<svg id="图层_1" data-name="图层 1" xmlns="http://www.w3.org/2000/svg" viewBox="0 0 518.86 517.87"><defs><style>.cls-1{fill:#fe5d71;}.cls-2{fill:#fe5f6d;}.cls-3{fill:#fe8f54;}.cls-4{fill:#fe5d76;}.cls-5{fill:#fe5c69;}.cls-6{fill:#fe9955;}.cls-7{fill:#fe8b57;}.cls-8{fill:#fe8b56;}.cls-9{fill:#fe8a57;}.cls-10{fill:#fe9954;}.cls-11{fill:#fe9655;}.cls-12{fill:#fe5c75;}.cls-13{fill:#fe9f57;}.cls-14{fill:#fe9554;}.cls-15{fill:#fe9253;}.cls-16{fill:#fe9254;}.cls-17{fill:#fe9353;}.cls-18{fill:#fe9456;}.cls-19{fill:#fe9e59;}.cls-20{fill:#fe5d6f;}.cls-21{fill:#fe5c6f;}.cls-22{fill:#fe5a6a;}.cls-23{fill:#fe7759;}.cls-24{fill:#fe5a6e;}.cls-25{fill:#fe9856;}.cls-26{fill:#fe9b59;}.cls-27{fill:#fe9251;}.cls-28{fill:#fe5972;}.cls-29{fill:#fe8752;}.cls-30{fill:#fe586e;}.cls-31{fill:#fe9551;}.cls-32{fill:#fe5b79;}.cls-33{fill:#fe566d;}.cls-34{fill:#fe935b;}.cls-35{fill:#fe5978;}.cls-36{fill:#fe556e;}.cls-37{fill:#fe9c5a;}.cls-38{fill:#fea363;}.cls-39{fill:#fe9758;}.cls-40{fill:#fe8e4e;}.cls-41{fill:#fe8e4d;}.cls-42{fill:#fea35c;}.cls-43{fill:#fe8a4f;}.cls-44{fill:#fe9051;}.cls-45{fill:#fe5975;}.cls-46{fill:#fe8a4e;}.cls-47{fill:#fe9957;}.cls-48{fill:#fe8a4d;}.cls-49{fill:#fe9b65;}.cls-50{fill:#fe526e;}.cls-51{fill:#fefefe;}.cls-52{fill:#fe5d6a;}.cls-53{fill:#fe8f56;}.cls-54{fill:#fe8b54;}.cls-55{fill:#fe995f;}.cls-56{fill:#fe864e;}.cls-57{fill:#fe9a59;}.cls-58{fill:#fe9b5b;}.cls-59{fill:#fe4e72;}.cls-60{fill:#fe4e6e;}.cls-61{fill:#fe5173;}.cls-62{fill:#fe5d64;}.cls-63{fill:#fe5268;}.cls-64{fill:#fea960;}.cls-65{fill:#fea25b;}.cls-66{fill:#fe6b5a;}.cls-67{fill:#fe8356;}.cls-68{fill:#fe615a;}.cls-69{fill:#fe6d59;}.cls-70{fill:#fe605b;}.cls-71{fill:#fe7b56;}.cls-72{fill:#fe7659;}.cls-73{fill:#fe7858;}.cls-74{fill:#fe7f56;}.cls-75{fill:#fe5b5a;}.cls-76{fill:#fe7b58;}.cls-77{fill:#fe6659;}.cls-78{fill:#fe7058;}.cls-79{fill:#fe8657;}.cls-80{fill:#fe675a;}.cls-81{fill:#fe8059;}.cls-82{fill:#fe7d57;}.cls-83{fill:#fe8955;}.cls-84{fill:#fe6359;}.cls-85{fill:#fe7657;}.cls-86{fill:#fe8e57;}.cls-87{fill:#fe975b;}.cls-88{fill:#fe814e;}.cls-89{fill:#fe8b53;}.cls-90{fill:#fe9a5e;}.cls-91{fill:#fe7c49;}.cls-92{fill:#fe5e5c;}.cls-93{fill:#fe655a;}.cls-94{fill:#fe685a;}.cls-95{fill:#fe8159;}.cls-96{fill:#fe924e;}.cls-97{fill:#fe934e;}.cls-98{fill:#fea65d;}.cls-99{fill:#fe9154;}.cls-100{fill:#fe9956;}.cls-101{fill:#fe894b;}.cls-102{fill:#fea25a;}.cls-103{fill:#feaa5d;}.cls-104{fill:#fe9552;}.cls-105{fill:#fe9250;}.cls-106{fill:#fe944e;}.cls-107{fill:#fea85d;}.cls-108{fill:#fe934d;}.cls-109{fill:#fe884a;}.cls-110{fill:#fea85f;}.cls-111{fill:#fea057;}.cls-112{fill:#fe5b5b;}.cls-113{fill:#fe5a5e;}.cls-114{fill:#fe5c60;}.cls-115{fill:#fe5c66;}.cls-116{fill:#fea45f;}.cls-117{fill:#fe8257;}.cls-118{fill:#fe765a;}.cls-119{fill:#fe8058;}</style></defs><title>版本信息</title><path class="cls-1" d="M-93.93-45A5.47,5.47,0,0,1-92-48.12c4.85,1.06.9-2.87,2.18-3.84a50.15,50.15,0,0,1,8.8-12.1l.55.14c.56.16,1.05,1.63,1.69.06.14-.37.29-.71.45-1.06.53-1.34,1.36-2.56,1.47-4A8.81,8.81,0,0,1-73-73.12c5.3.35,10.55-.55,15.86-.54q93.68.16,187.33,0a64.23,64.23,0,0,1,13.9,1.26,24.62,24.62,0,0,0,13.32-.4,20.59,20.59,0,0,1,5.41-.81c8.79-.47,17.59.65,26.4-1,3.41-.65,7.13,1,10.84,1q79.17-.1,158.36,0a37,37,0,0,0,7.44-.52,9,9,0,0,0,1.37-.9,2.65,2.65,0,0,1,1.42-.42c2.18,1,3.76,3.18,6.37,3.44h0a1.48,1.48,0,0,1,.46,1.34,3.79,3.79,0,0,1-1.37,2c.67-.42,1.12-1.14,1.9-1.41a1.14,1.14,0,0,1,.95.09A23.41,23.41,0,0,1,382.08-64c-2.5,4.17,1.47,3.14,3.17,3.94A26.26,26.26,0,0,1,390.87-52c-.28,1.5.4,3.15-.92,4.65,1.18-.32,2.13-.59,3.09-.81a5.63,5.63,0,0,1,1.9,3.13c-.54,1.84-1.19,3.58-3.38,4-5.65.26-11.3.57-17,.57q-223.85,0-447.69,0c-5.83,0-11.63-.57-17.45-.54C-92.73-41.38-93.42-43.11-93.93-45Z" transform="translate(108.95 108.89)"/><path class="cls-2" d="M-92-42H393c2.24-1.18,2.26.52,2.58,1.94.08.4-.2,1.25.45,1.11.3-.07.52-1.07,1.12-1.39,1.71,1.77,2.37,4,2.93,6.32-.79.54-.4,2.84-2.07,1.79-1.12-.71-1.42-.94-1.87.4s.77,2.25,1.34,2.07c4.31-1.29,4.32,1.92,5,4.5l.13,0a.83.83,0,0,1,.44-.81A4.09,4.09,0,0,1,403.9-22a5.11,5.11,0,0,0-.47,3.35c.78,5.22-.06,6.25-5.33,6.25-72.26-.1-144.53.07-216.78-.07-2.21.36-3.75-1-5.38-2.12-15-10.8-31.91-10.82-46.8-.07-1.62,1.17-3.15,2.51-5.38,2.19q-107,.15-213.92,0c-3.92,0-7.59.26-10.72,2.86-3-.56-1.9-3-2.09-4.75-.21-2,.49-3.87,1.12-5.89a17,17,0,0,0-1.22,5.68c-.12,1.64-.23,3.62-2.88,2.54.78-4.83,1.67-9.63,3.93-14,.11.13.19.27.31.39s.26.2.39.31c.48-2.4.25-4.57,4.44-3.65,2.83.62,2.92-3.32,2.55-5.73C-94.79-37.64-95.34-40.38-92-42Z" transform="translate(108.95 108.89)"/><path class="cls-3" d="M405.06,319c-.41,4.64-2.46,8.76-4.09,13-.51.65-.91,1.45-1.93,1.36s-1.9.48-2.79.91c-2.07.43-.32,1.9-.74,2.81a2.59,2.59,0,0,1-.85,1.38c-2.81,1.55-5.86,1.11-8.83,1.11-37.82,0-75.64,0-113.46.09-2.69,0-6.15-1.37-7.8,2.43a9.06,9.06,0,0,1-1.12,4.64c-2.26,2.34-5.22,1.87-8,1.88-17,.06-34,0-51,0q-107.62,0-215.27,0c-3.24,0-6.72.77-9.56-1.71a7.8,7.8,0,0,1-1.19-4.58c-.58-3.42-3.42-2.67-5.51-2.7-10.11-.17-20.21-.11-30.32-.07-11.26,0-22.53-.19-33.79.16A15,15,0,0,1-97,339a90.62,90.62,0,0,1-8-23c1.37-.49,2,.63,2.75,1.32.29.16.14.71.62.73a2.44,2.44,0,0,1,.62-2.12,3.34,3.34,0,0,1,2.41-.46q246.42.09,492.82,0c1.79,0,3.7.48,5.28-.87a4.89,4.89,0,0,1,2.83-1.93c2.49.6,2.5,2.2,1.67,4.14-.2.71-1.17,1.18-.6,2.08C404,318.83,404.54,318.62,405.06,319Z" transform="translate(108.95 108.89)"/><path class="cls-4" d="M369-75h-1c-.77-1.5-2.39-1.86-3.58-2.68l-.16-.15.26.17c1.14,1,2.72,1.28,3.48,2.66,0,1.65-.29,3-2.39,3-1.34,0-2.67,0-4,0-54.66,0-109.33.17-164-.16-9.65-.06-19.28.61-28.92.22-4.6-.19-9.16-.37-13.73,1.57-2.54,1.07-6.07.83-8.86.09C139.74-72,133.32-72,126.84-72q-94.23,0-188.48.06c-2.78,0-5.58-1-8.35,1.55-1.94,1.77-2.59-1.09-3.05-2.72a98.51,98.51,0,0,1,23-18c5,.59,9.92.6,14.63-1.71,2-1,4.24-.75,6.41-.75H329.78c3.78,0,7.55.93,11.33-.6,1.8-.73,3.6.29,4.65,2s2.23,3.68,3.44,5.64c.38-1.67-.25-3.61,1.77-4.44,2.92.84,5.12,2.8,7.38,4.69.18,2.43,1.64,3.14,3.84,2.84a32.88,32.88,0,0,1,8.75,7.57C370.8-74.33,370.06-74.27,369-75Z" transform="translate(108.95 108.89)"/><path class="cls-5" d="M180-13.13c1.56-1.46,3.49-.84,5.25-.84Q290.61-14,396-14a14.4,14.4,0,0,1,3.48.09c3.29.85,4.06-.77,3.25-3.42-.61-2-.94-3.54,1.21-4.64l2.1,7.08c.78,4.55,1.81,9.06,2.42,13.64-1.08,1.69.77,4.66-2.37,5.46-1-1.49-.34-3-.49-3.9-.59,1.6.11,3.75.75,5.91-.15,2.74,1.94,4.39,3.17,6.46-.3,1.26.77,3-1.21,3.67-13.11.06-26.22.13-39.32.7-3.32.14-6.63.54-10,.54H201.13c-2.66,0-5.34.22-7.94-.54-2.08-.75-2.25-2.6-2.51-4.4-1.24-8.27-3.69-16-9.56-22.29C180.26-10.57,179.29-11.63,180-13.13Z" transform="translate(108.95 108.89)"/><path class="cls-6" d="M357,387l-1.9,1.25a4.78,4.78,0,0,1-2.9-1.35,10.72,10.72,0,0,0-1.27-1.16c-27-.34-54-.1-80.93-.12-2.71,0-4.83.68-5.71,3.69-1.1,3.72-4,5.1-7.66,5.21-1.83.05-3.66.06-5.49.06q-129.64,0-259.29,0a58.07,58.07,0,0,1-7-.22c-2.69-.33-5-1.54-5.76-4.14-1.21-4.08-4-4.61-7.67-4.68-7.3-.15-14.65.78-21.9-.71-.47-.2-1-.39-1.47-.55-2.66-1.29-5.47,1.68-8.13-.22-3.77-2.09-6.8-5.14-10.08-7.85a6,6,0,0,1,.62-4.81c1.22-2.12,3.11-2.61,5.38-2.23,12.58.95,25.18.12,37.76.44,2.57.06,5.44-.57,7.17,2.26.61,4.63,3.54,5.56,7.77,5.56q132.92-.1,265.84,0c4.23,0,7.15-.93,7.74-5.57,1.91-3,5-2.24,7.7-2.25,29.31-.06,58.61,0,87.92,0,2.32,0,4.66.22,6.95-.37a8.46,8.46,0,0,1,4.41,0,2.16,2.16,0,0,1,1.19,1.09,4.14,4.14,0,0,1-.8,2.95c-1,1.3-2.4,2.2-3.36,3.54-.47.65-1.35,1.76-1.85,1.31-3.38-3-5.52,3.05-8.74.47.65,1.72,1.31,2.85.89,4.21S356.8,385.6,357,387Z" transform="translate(108.95 108.89)"/><path class="cls-7" d="M409.7,81q.09,45.92.18,91.83c0,37.94.06,75.88-.08,113.82,0,9.63-.79,19.25-3.68,28.55a2.75,2.75,0,0,1-.94-1.12,11.72,11.72,0,0,1-.44-3.58,9.75,9.75,0,0,0-1.15-4.48,5.76,5.76,0,0,0-1.95-5.2c0-2.11-1.33-1.57-2.69-1.58-15.74-.22-31.44,1.1-44.5,1.27,10.54,0,23.76,0,37,0,2.16,0,4.38-.13,6.4.72,2.38,1,4.71,2.18,3.09,5.51-2.5,2.29-5.61,1.83-8.56,1.83-19.47,0-38.93-.55-58.39-.79-45.94-.57-91.9-.17-137.85-.2-3,0-6,.46-8.81-1.08a22.28,22.28,0,0,1,.67-15.91c2.41-1.61,5.15-1.09,7.78-1.09,55.47,0,111,.19,166.42-.19,11.61-.08,23.24-.83,34.88-.83,2.42,0,4.89-.1,6.57,2.21.7-1.68-.06-2.25-1.55-2.2-11.29.41-22.63-1-33.88.81a33.56,33.56,0,0,1-5.49.16q-83.47,0-166.93,0c-2.62,0-5.36.51-7.78-1.12a3.62,3.62,0,0,1-.12-4.62c2.7-1.84,5.78-1.32,8.74-1.32,54.16,0,108.32.07,162.48-.09,13.81,0,27.61-1.26,41.45-1,6.32.13,6.5-.25,6.88-6.82,0-.67.12-1.33.13-2a70.8,70.8,0,0,1,0-7.57c-.13-6.18-.17-12.37,0-18.54-.05-3.56-.08-7.13,0-10.68,0-.87,0-1.73,0-2.6,0-1.41,0-2.83,0-4.25s0-2.85,0-4.28c-.13-3.48-.07-7-.07-10.44.13-2.89-.1-5.78.08-8.67,0-1.15-.08-2.31,0-3.46,0-.88,0-1.75,0-2.62-.13-3.85-.11-7.69,0-11.53q-.18-5.9,0-11.78c-.11-2.76-.09-5.51,0-8.27-.16-5.26-.15-10.53,0-15.8-.13-6.49-.18-13,0-19.45,0-1.77-.13-3.55,0-5.32,0-2.54,0-5.08,0-7.63,0-.83,0-1.67,0-2.5s0-1.68,0-2.51c-.1-1.42,0-2.85-.11-4.27,0-4.7-.12-9.4,0-14.1-.05-4-.11-8.11.07-12.16a6.48,6.48,0,0,1,.66-2.48A1.08,1.08,0,0,1,409.7,81Z" transform="translate(108.95 108.89)"/><path class="cls-8" d="M-103,318l-2-2a36.63,36.63,0,0,1-2-10.91c-1.16-2.09.23-4.12.15-6.2-.07-1.7.6-3.49-1.26-4.67-1.37-6.66-.64-13.36-.45-20.05a1.6,1.6,0,0,1,1.54,1.66c-.15,5.81,3.54,6,7.94,5.87,3-.11,7.44-.81,7.46,3.55s-4.44,2.67-7.13,3.08c-1.94.29-3.92-.19-5.88.31a79.52,79.52,0,0,0,17.51-.59c3.72-.44,7.29-.48,10.74,1.19a31.38,31.38,0,0,0,6.49.25q87.5,0,175,0c2.47,0,5-.39,7.39.72a2.41,2.41,0,0,1,1.44,1.85c.33,6,1.66,11.78,2.36,17.69-2.59,2.6-5.93,1.79-9,1.8q-95,.07-190,0c-3.66,0-7.34-.18-11,.12-1.72.15-3.82-.31-4.74,1.92A4.29,4.29,0,0,1-100,316l-1,1c-2.22.37-.91-1.52-1.53-1.92C-102.77,315.83-102,317.05-103,318Z" transform="translate(108.95 108.89)"/><path class="cls-4" d="M-32-100a104,104,0,0,1,42.15-8.71q140.34-.34,280.69,0A103.4,103.4,0,0,1,333-100c-2.09,1.87-4.52,1.38-6.53.28a3.86,3.86,0,0,0-4.91.9c-4.63,4.52-9.79,5.08-15.53,2.79a5.12,5.12,0,0,0-3.37-.55c-6.05,1.78-12.25,1-18.38,1q-137.4.07-274.79.06c-5.81,0-11.64-.62-17.42.66-3.66.8-6.58-2-10-2.54-1.92-.3-3.27-.67-4.77.95s-3.83,1.92-6.05,1.66c-1.48-.17-3.22-.33-3.42-2.24s1.43-2.2,2.65-2.58A2.67,2.67,0,0,1-32-100Z" transform="translate(108.95 108.89)"/><path class="cls-9" d="M-78,290c-5.36-2.78-10.7.6-16.1.14-2.26-.19-5.43-1.76-7,1.71-2.25-1.15-4.71-2-6.61-3.62-.52-.43,1.52-1.22,2.66-1.22,3.32,0,6.63,0,9.95,0,1.26,0,2.94.25,2.84-1.78-.08-1.63-1.41-2.13-2.84-2.16a58.58,58.58,0,0,0-7.95,0c-4,.45-5.45-1.17-5-5,.16-1.27.34-2.67-.55-3.84-.09-16.3-.25-32.6-.26-48.9q-.08-70.14-.05-140.28c0-1.32.14-2.65.21-4a.9.9,0,0,1,1.19.31,5.16,5.16,0,0,1,.6,2.07c.1.74.13,1.49.16,2.23s.07,1.58.11,2.37c0,2.53.08,5.06.06,7.6.18,6.4.17,12.79,0,19.19.11,3.67.09,7.35,0,11-.12,2.15.09,4.31,0,6.46q.26,9.81,0,19.63c.13,5.29.16,10.58,0,15.88q.18,4.19,0,8.38c.27,7.78,0,15.56,0,23.35a43.57,43.57,0,0,1,0,5.48c.17,3.29,0,6.57,0,9.86s.05,6.43-.06,9.64c0,1.43.09,2.86,0,4.28s0,2.84,0,4.26c0,.87,0,1.73,0,2.6.13,3.58.09,7.15,0,10.73.14,6.24.12,12.48,0,18.72.75,6,.87,6.15,6.59,6.3,4.77.13,9.39-.43,12.77,4.7,1.61,2.44,5.71,1.83,8-.6s5.37-3.07,8.63-3.07q88.73,0,177.44,0c2.15,0,4.37-.1,6.25,1.31a17.87,17.87,0,0,1,0,14.52c-2.36,1.74-5.11,1.2-7.72,1.2q-88,0-176,0A29,29,0,0,0-78,290Z" transform="translate(108.95 108.89)"/><path class="cls-10" d="M-52,383c8.55,2.07,17.23.7,25.85.92,3.8.1,6.58.33,6.28,5.25-.14,2.22,1.61,3.57,3.89,3.78,1.32.12,2.66.05,4,.05q133.48,0,267,0c4.59,0,8.41-.13,8.19-6.35-.1-2.72,2.42-2.69,4.48-2.69,9.33,0,18.66.1,28,0,18.48-.25,37,.7,55.42-.53,2.33-.16,1.78,1.34,2,2.55a11,11,0,0,1-3,3.49c-.84.65-4.17.37-.93,2.53-1.71,1.44-3.42,2.87-5.78,3.09-1.11.57-2.78,0-3.35,1.66L329,401.18a1.73,1.73,0,0,1-.56-1.09c-.25-.71,1.54-1.44,0-2.13-3.17-1.24-6.3-2.25-9.06.87-2.44.83-5,.57-7.44.57q-161.35,0-322.7,0c-3.31,0-6.7.35-9.73-1.47-1.79-1.31-4-.82-6-1.15-2.81-1.35-5.57-.27-8.35.24a1.77,1.77,0,0,1-1.05.57c-2.52.08-4-2.7-6.53-2.46a.66.66,0,0,1-.67-.29c-1.55-1.25-3-2.68-5.17-2.76l-.94-.66a1.77,1.77,0,0,1-.31-1.18c1.13-2.57-1.94-2.08-2.51-3.42a3.85,3.85,0,0,1-.71-1.2A2.6,2.6,0,0,1-52,383Z" transform="translate(108.95 108.89)"/><path class="cls-11" d="M-85,359l-4.85-7c1.23-1.62-.08-4.32,2.33-5.44a2,2,0,0,1,2.16.88c1.16,1.94.6,4.73,3,6.07.43.51.8-.59.3-.15,0,0-.08,0-.16-.12-2.1-2.83-1.77-4.79,1.06-6a10.73,10.73,0,0,1,4.43-.56c16.46,0,32.93,0,49.39,0,3.82,0,6.89.93,8.58,4.66.76,2,2.6,1.81,4.2,2a65.37,65.37,0,0,0,7,.13q130.44,0,260.87,0c3.15,0,6.35-.37,9.39.84,2.81,2.24,6.12,2.23,9.48,2.23,28.43,0,56.86.12,85.29-.12,6.73,0,13.56,1.67,20.24-.64,1-.36,1.85.5,2.38,1.4-.45,2.09.6,3.82,1.43,5.6-.21,1.72-1.41,2.14-2.89,2.19-3.55-1-7.6.62-10.86-2a1,1,0,0,1,.83-1.32c.66,0,1.32-.18,2,.37-33.09.68-66.18.37-99.27.46a56.93,56.93,0,0,1-8.46-.28,55.58,55.58,0,0,0-9.47-.5c-87.63,0-175.27-.48-262.89.39-18.53.18-37.17.89-55.74,1.61-4.26.74-8.57,1.14-12.89,1.5a4.38,4.38,0,0,1-1-2.6c-.88-2.44-.82-6.14-5.21-3.84C-84.6,358.79-84.8,358.89-85,359Z" transform="translate(108.95 108.89)"/><path class="cls-12" d="M-32-100l7.76-.73c-1.72,2.17-3.59,2.21-5.59,2a1.47,1.47,0,0,0-1.67,1.48c0,1.1,1,1.17,1.81,1.18,2.79,0,5.57.55,7.34-2.76,1-1.83,1.5-1.57,3.11.23.19.2.65.49.73.43,4.39-3.73,6.42,4.06,10.5,2.13,3.75-1.78,7.79-1,11.73-1H295.11a4.17,4.17,0,0,1,.5,0c4.47.76,8.8-3.73,13.84.58,1.57,1.35,8.83,2.06,10.44-4.16,2.15,1.79,3.44-2.13,5.82-.74A12,12,0,0,0,333-100h0c.58.5,1.48.83,1,1.87a1.38,1.38,0,0,1-.7.47,3.16,3.16,0,0,0,1.14-.82,2.86,2.86,0,0,1,2.44.45c5,1.76,9.95,3.6,14.08,7.09-.32.9-1.19,1.75-.43,2.78,2,2.72-.32,4.64-2,4.83-4.21.47-.23-1.92-.68-3-.88-2.09-3.1-2.91-3.67-5.77s-4-1.09-6,.56c-.57.48-.87.74-1.59.23-2.1-1.49-4.53-.7-6.79-.7Q151.65-92-26.6-92.1c-5.26,0-10,1.34-14.85,2.77-3.14.92-6.13.79-8.59-1.76.77-1.57,2.71-1,3.76-2,1.35-.79,3.15-.69,4.18-2.12l-.06,0c1.49-.39,3.24-.22,4.16-1.89Z" transform="translate(108.95 108.89)"/><path class="cls-13" d="M329,400c0,.4,0,.79,0,1.19-7.59,3.75-15.77,5.1-24.08,5.92.7-3.89,4.52-1,5.7-2.71a59.11,59.11,0,0,1-5.92.87,2.38,2.38,0,0,1-1.13-.67c-1.55-1.08-3.41-.3-5.07-.86-.62-.2.22-.13-.44-.17.06.43.47.09.64.3,1.76.43,3.8-.4,5.28,1.21-1.23,3.29-4.22,1.26-6.27,2.06a7.13,7.13,0,0,1-1.45.27,10.64,10.64,0,0,1-2.89-.66c-2-.69-4.13-.42-6-1.39a9.93,9.93,0,0,0-1.61-.7,30.59,30.59,0,0,0-5.49-.23H20.73a31.07,31.07,0,0,0-5.46.23,8.42,8.42,0,0,0-1.5.68c-2.26,1.12-4.77.75-7.16,1.12a13.57,13.57,0,0,0-1.7.76A6.62,6.62,0,0,0,4,408c-2.49.15-5,.27-7.34-.82,1-1.35,2.27-.86,3.46-.47-.85-1-3.8-.14-2.71-3,2.13-.2,4.26-.57,5.45-.11-1.39.06-3.63-.75-5.87.51-1.64,1.44-3.52,1.21-5.43.77-.34-.08-.62-.51-1-.2A1,1,0,0,1-9,406.25,74.61,74.61,0,0,1-34,399l.47-.6c3.22-2.21,6.39-2.33,9.58.11a4.35,4.35,0,0,0,3.2,1.12c3.11-1,6.3-.64,9.45-.64l323.81,0c2.48,0,5,.33,7.44-.41,2.14-.66,4.32.09,6.49-.14A3.78,3.78,0,0,1,329,400Z" transform="translate(108.95 108.89)"/><path class="cls-14" d="M379,359c.23-.75.86-1.55,0-2.26s-1.65-.5-2,.48c-.5,1.69-1.7,1.9-3.1,1.73-17.05-2.11-34.17-.63-51.25-.89-18.28-.28-36.57,0-54.86-.09-2.12,0-5.06,1-4.88-3-1.1-1.55-1.23-3.05.2-4.48,1.78-1.13,3.81-1.11,5.8-1.11,37.8,0,75.6-.14,113.38,0,1.77.23,3.3,0,3.93-2a2.34,2.34,0,0,1,1-.9,2.15,2.15,0,0,1,1.95.42c1.3,1.44.35,3.57,1.54,5.05-1.46,2.45-2.77,5-4.88,7l-.55-.31c-1.21-1.39-2.38-1.22-3.51.12a3.79,3.79,0,0,1-1.09.73A1.63,1.63,0,0,1,379,359Z" transform="translate(108.95 108.89)"/><path class="cls-15" d="M368,363c3.67.34,7.47-.85,11,1a1.08,1.08,0,0,1,.3,1.16c-.8,1.06-.89,2.39-1.39,3.56l-1.84,1.42c-2,.52-4.09,1.66-6.07-.14h-4c-1.05.72-2.25.47-3.4.48H266.11a6.15,6.15,0,0,1-2.94-.35,2.43,2.43,0,0,1-.69-1.7c1-2.57,1.74-5.39,4.9-6.32,32.12-.24,64.23-.05,96.35-.1C365.22,362,366.75,361.93,368,363Z" transform="translate(108.95 108.89)"/><path class="cls-16" d="M389,347h-2a26.6,26.6,0,0,1-6.95.63q-54.23,0-108.46,0c-2.92,0-6,.69-8.59-1.59v-4c2.58-2.14,5.69-1.57,8.63-1.58q55.44,0,110.88,0a68.11,68.11,0,0,0,11.94-.84,2.48,2.48,0,0,1,1.79.66c.09,4.5-2.79,7.66-5,11.1C389,350.66,390.43,348.09,389,347Z" transform="translate(108.95 108.89)"/><path class="cls-17" d="M-78,365c3.34-2.46,7.21-2,11-2,6.91-1.1,13.86-.32,20.79-.45,7.46-.15,14.92,0,22.38,0,5.85,0,5.85,0,5,5.8-.53,1.69-1.74,2.19-3.44,2.18-13.94-.06-27.88.06-41.81-.09-.3,0-.6-.26-.9-.41-1.88-.41-2.87.93-4,2a1,1,0,0,1-1.12.3,2.4,2.4,0,0,0-2.8.05A1.06,1.06,0,0,1-74,372a19.71,19.71,0,0,1-5.29-5.88A1.49,1.49,0,0,1-78,365Z" transform="translate(108.95 108.89)"/><path class="cls-16" d="M-86,347h-2c-1.43,1.09,0,3.65-2.2,4.34-2.59-3.08-3.93-6.87-5.92-10.29a2.56,2.56,0,0,1,2.82-1.49c21.71,1.85,43.46.37,65.19.86,2.78.07,5.7-.46,8.11,1.58v4c-1.49,1.59-3.44,1-5.2,1-17.3,0-34.6.09-51.91,0C-80.08,346.91-83,348-86,347Z" transform="translate(108.95 108.89)"/><path class="cls-18" d="M-20,342c-22.08,0-44.17-.18-66.25.19-3.48.06-6.38-2.88-9.87-1.14-.9-.42-.9-1.23-.88-2.05,2.76-1.52,5.83-.89,8.7-.91,21.3-.16,42.59,0,63.89-.14C-21.4,337.94-19.49,338.48-20,342Z" transform="translate(108.95 108.89)"/><path class="cls-19" d="M296.21,408.11c-2.5,1.3-5.22.76-7.83.76q-137.88.06-275.75,0c-2.61,0-5.33.55-7.84-.76,2.5-2.39,5.65-1.16,8.51-1.55q137.18-.12,274.35,0C290.56,406.73,293.62,406.16,296.21,408.11Z" transform="translate(108.95 108.89)"/><path class="cls-20" d="M409.7,81l-.35,0H409a3.7,3.7,0,0,1-1.22-2.35,58.18,58.18,0,0,1-.21-8q-.22-7.73,0-15.44c-.1-2.45-.11-4.89,0-7.33-.15-4-.11-8.06,0-12.09-.24-4.92-.12-9.84-.06-14.76,0-1.79,0-3.64,1.46-5V12a5,5,0,0,1-2.12-5.66c.55-2.43.4-4.93,1.14-7.3-.39-4.67-2.64-9.09-1.95-13.92,3.34,7.43,3.5,15.5,3.64,23.29C410.08,32.6,409.74,56.82,409.7,81Z" transform="translate(108.95 108.89)"/><path class="cls-21" d="M-92-42c-1.1,2.33-2.4,4.27-.88,7.34,1,2.06-.05,5.16-2.3,7.07-.46.39-.89,1.37-1.53.68-4-4.36-3.07,1-4.2,2.16-.39.4-.42,1.51-1,.19A4.79,4.79,0,0,1-102-26a67.46,67.46,0,0,1,8.09-19A3.05,3.05,0,0,1-92-42Z" transform="translate(108.95 108.89)"/><path class="cls-22" d="M-105.95-12c3.67-2.09,1.17-6.4,3.82-9.28,1.5,3.8-.62,7.63.13,11.28.15,4.56-.77,9.08-.41,13.63,1.24,1.42,3.55,2.93.91,4.71-2,1.34-3.85.42-4.43-2.09s-1.12.67-1.67,0l-.6-.28A63.64,63.64,0,0,1-105.95-12Z" transform="translate(108.95 108.89)"/><path class="cls-23" d="M-108,81h-.32l-.32,0q-.06-36.36-.1-72.72A9.61,9.61,0,0,1-108.2,6l.27.08c2.87,5.4,1,11.19,1.39,16.79.12,4.35.14,8.69,0,13,.1,4,.14,8,0,12q.15,3.64,0,7.31c.11,5.16.15,10.32,0,15.47a54.63,54.63,0,0,1-.2,8.09A3.44,3.44,0,0,1-108,81Z" transform="translate(108.95 108.89)"/><path class="cls-10" d="M355,383c.19-.87,1.33-1.73.19-2.6-.61-.47-2.27.55-2-1.2a2.3,2.3,0,0,1,2.58-1.82c3.93,1.48,5.29-.65,5.68-3.95,2.76.48-.16,3.46,2.23,3.78,2.16.3,1.1-2.46,2.67-2.88A13,13,0,0,0,369,373a4.37,4.37,0,0,1,2.26,1,2.79,2.79,0,0,1,.76,1c-2,2.89-5,4.47-7.92,6.16a12,12,0,0,0-2.32-.24c-1.77.37-2.86,1.68-4,2.87a2.07,2.07,0,0,1-1.22.5C355.79,384.12,355.42,383.54,355,383Z" transform="translate(108.95 108.89)"/><path class="cls-24" d="M403-26.09c-.05.64-.1,1.29-.17,2.06-2.09-1.18-1.13-3.91-2.92-5.15-1.79,0-1.61,3.21-1.83,2.56-.73-2.19-3.91-1.72-3.78-3.5s.49-4.19,2.63-5c1.32-.51.71,1,1.08,1.61,1.08,1.66,1.26-.69,2-.49C401.29-31.46,402.84-29,403-26.09Z" transform="translate(108.95 108.89)"/><path class="cls-25" d="M-3,404c.91,1.45,2.67,1.51,4.46,2.74l-4.79.42c-1.92-.15-3.94.34-5.68-.91L-10.95,404h8Z" transform="translate(108.95 108.89)"/><path class="cls-26" d="M304,405c2.57-1.42,5.27-1.13,8.17-.73-2.26,1.69-5.25.93-7.21,2.83a12.7,12.7,0,0,1-7,.85,2.54,2.54,0,0,1-1-1c1.88-2.26,5.12.28,7-2Z" transform="translate(108.95 108.89)"/><path class="cls-27" d="M349.07,392a5.45,5.45,0,0,1-3.49-1.53c1.08-2.1,2.93-1.28,4.44-1.51a10.27,10.27,0,0,1,3-2,2.11,2.11,0,0,1,2.13,1.26C353.42,390,351.2,390.94,349.07,392Z" transform="translate(108.95 108.89)"/><path class="cls-14" d="M379,365v-1a1.82,1.82,0,0,0,2-2,2.13,2.13,0,0,1,0-3h0c1.5-2.07,3.08-2.61,4.82-.25l.14.19c-1.39,2.89-3.9,4.89-5.82,7.35A1.5,1.5,0,0,1,379,365Z" transform="translate(108.95 108.89)"/><path class="cls-28" d="M385.25-60.09c-2.09.9-4.14,2.7-5.47-1.19-1-2.81.53-2.69,2.3-2.75A10.49,10.49,0,0,1,385.25-60.09Z" transform="translate(108.95 108.89)"/><path class="cls-9" d="M-108.14,294.23c2.21.57,3.24,1.72,2.52,4.19-.65,2.17-1,4.45-1.41,6.68C-108.6,301.6-107.93,297.87-108.14,294.23Z" transform="translate(108.95 108.89)"/><path class="cls-29" d="M405.9,314c.07.42.14.84.22,1.26a5.65,5.65,0,0,1-1.06,3.75L403,321a3.23,3.23,0,0,1,0-4,3.27,3.27,0,0,0,0-4,2,2,0,0,1,.18-3.12,1.3,1.3,0,0,1,1.28.29C405.35,311.28,405.19,312.8,405.9,314Z" transform="translate(108.95 108.89)"/><path class="cls-30" d="M397.15-40.34c-.28,1.23.17,2.72-1.23,3.56-2.7-.8-.08-4.53-2.92-5.22a3,3,0,0,1,1.94-3A10.89,10.89,0,0,1,397.15-40.34Z" transform="translate(108.95 108.89)"/><path class="cls-31" d="M-60,384.07c2-.59,4.65.56,5.83-2.48.25-.62,1,.7,1.2,1.41.13,2.21-.07,4.17-3,4Z" transform="translate(108.95 108.89)"/><path class="cls-32" d="M369-75l1.94-.81A9.93,9.93,0,0,1,375-72C371.56-70.16,370.24-72.5,369-75Z" transform="translate(108.95 108.89)"/><path class="cls-33" d="M393-48.12c-.37,3-3.65.28-4.65,2.44,1.43-2,1.23-4.41,2.48-6.28Q392-50,393-48.12Z" transform="translate(108.95 108.89)"/><path class="cls-34" d="M-78,365l-1.31,1.11A11.93,11.93,0,0,1-82.89,362a4.18,4.18,0,0,1,2.83-1.39c1-.07,1.51.7,2,1.38Z" transform="translate(108.95 108.89)"/><path class="cls-35" d="M362.19-83.38c-1.26,2.12-2.8,1.22-4.15.26-1.52-1.08-1.05-2.19.31-3.1Z" transform="translate(108.95 108.89)"/><path class="cls-18" d="M396,334c.9-.63.95-3.84,3-1a3,3,0,0,1,.1,3.22c-.07,1-.08,2-1.11,2.52-1.17-1-1.65-2.37-2.37-3.63A1.14,1.14,0,0,1,396,334Z" transform="translate(108.95 108.89)"/><path class="cls-36" d="M-89.86-52l1.93,5.56c-1.67-1-3.66,1.11-4.11-1.72Q-91-50-89.86-52Z" transform="translate(108.95 108.89)"/><path class="cls-37" d="M370,370c2,.8,4.09-1.73,6.07.14A3.19,3.19,0,0,1,374,373a5.57,5.57,0,0,1-3-.52,2.06,2.06,0,0,1-1-1.49Z" transform="translate(108.95 108.89)"/><path class="cls-6" d="M-42.37,395.13c3.15-2.12,4.63,2.39,7.37,1.87.87.33,1.37.87,1.07,1.87L-34,399A22.76,22.76,0,0,1-42.37,395.13Z" transform="translate(108.95 108.89)"/><path class="cls-38" d="M-80,361c-.69,1.13-1.81,1-2.88,1-1.22-.64-1.53-1.91-2.1-3l.12-.29C-81.51,355.82-80.76,358.43-80,361Z" transform="translate(108.95 108.89)"/><path class="cls-39" d="M-70,372l1,0a7.25,7.25,0,0,1-1.11,4.2L-74,372h1A2.13,2.13,0,0,1-70,372Z" transform="translate(108.95 108.89)"/><path class="cls-6" d="M-49,390c0,.48-.11,1-.16,1.44a10.1,10.1,0,0,1-5.06-3c-.27-1.73.45-2.55,2.21-2.4h0C-51.63,387.81-48.39,387.44-49,390Z" transform="translate(108.95 108.89)"/><path class="cls-32" d="M376.93-70c-2,.75-2.72,3.24-5.27,3.72.48-2.45,3.53-3.2,3.33-5.73Z" transform="translate(108.95 108.89)"/><path class="cls-40" d="M297,407l1,1-1.78.16L288,408a1,1,0,0,1,.35-1.46,10.78,10.78,0,0,1,7.6.49Z" transform="translate(108.95 108.89)"/><path class="cls-37" d="M379,365l1.14,1.3a3.17,3.17,0,0,1-2.23,2.43C377.16,367.15,376,365.47,379,365Z" transform="translate(108.95 108.89)"/><path class="cls-6" d="M-48.21,392.08c3.08-1.61,4.43,0,5.17,2.76C-45.14,394.62-46.54,393.1-48.21,392.08Z" transform="translate(108.95 108.89)"/><path class="cls-10" d="M362.25,382.12a8.23,8.23,0,0,1-4.12,4.14c-1-.46-1.6-1.08-1.13-2.26h0c1.19-1.13,2.28-2.42,4.07-2.58A1.9,1.9,0,0,1,362.25,382.12Z" transform="translate(108.95 108.89)"/><path class="cls-41" d="M13,408l-8.17.15-.41,0L4,408v-1c2.78-1.44,5.67-1.23,8.58-.52A1,1,0,0,1,13,408Z" transform="translate(108.95 108.89)"/><path class="cls-42" d="M-52,386a3.92,3.92,0,0,0-2.21,2.4L-56,387c1.83-.72,2.21-2.54,3-4h1Z" transform="translate(108.95 108.89)"/><path class="cls-3" d="M396,335c1.69.7,2.1,2.08,2,3.74l-1.75,1.5L396,340c-1.33-1.08.47-2.92-1-4C394.74,335.07,395.06,334.73,396,335Z" transform="translate(108.95 108.89)"/><path class="cls-43" d="M389,347c2.3.65,1,3.13,2.21,4.34a.68.68,0,0,1-.37.64C387.8,351.22,389.45,348.72,389,347Z" transform="translate(108.95 108.89)"/><path class="cls-4" d="M-38-97.06c.28,4.32-2.39,2.12-4.16,1.89A5.54,5.54,0,0,1-38-97.06Z" transform="translate(108.95 108.89)"/><path class="cls-44" d="M371,372c1.1,0,2.27-.19,3,1l-2,2h-1A2.14,2.14,0,0,1,371,372Z" transform="translate(108.95 108.89)"/><path class="cls-45" d="M-76.9-69c1.39,2-.2,3.42-1.1,5a2.77,2.77,0,0,1-1.28-2.13Z" transform="translate(108.95 108.89)"/><path class="cls-41" d="M357,384c.37.76.75,1.51,1.13,2.26L357,387c-1.83-.75-2.13-2.28-2-4Z" transform="translate(108.95 108.89)"/><path class="cls-46" d="M-90.2,351.34c1.18-1.22-.11-3.69,2.2-4.34-.45,1.72,1.2,4.22-1.84,5A.66.66,0,0,1-90.2,351.34Z" transform="translate(108.95 108.89)"/><path class="cls-4" d="M-42.1-95.22c-.6,2.26-2.34,2.29-4.18,2.12A6.31,6.31,0,0,1-42.1-95.22Z" transform="translate(108.95 108.89)"/><path class="cls-47" d="M339.94,396.77c-.74-4.3,2.22-1.13,3.35-1.66A5.91,5.91,0,0,1,339.94,396.77Z" transform="translate(108.95 108.89)"/><path class="cls-1" d="M-79.28-66.13A2.12,2.12,0,0,1-78-64h0a2.13,2.13,0,0,1-2.84.12l-.22-.18Z" transform="translate(108.95 108.89)"/><path class="cls-48" d="M362.25,382.12,361,382c-.61-1.14.23-1.55,1-2a2,2,0,0,1,2.07,1.15C363.75,382,363,382.07,362.25,382.12Z" transform="translate(108.95 108.89)"/><path class="cls-49" d="M399.1,336.22c0-1.07-.07-2.14-.1-3.22l2-1A7.24,7.24,0,0,1,399.1,336.22Z" transform="translate(108.95 108.89)"/><path class="cls-4" d="M334-98l-1-2c1.47.32,2.93.65,3.9,2Z" transform="translate(108.95 108.89)"/><path class="cls-50" d="M-80.84-63.88-78-64c-.33,1-.65,2.07-1.24,4Z" transform="translate(108.95 108.89)"/><path class="cls-51" d="M180-13.13A42.59,42.59,0,0,1,192.17,16c2.26,3.62.37,7.09-.51,10.53A31.67,31.67,0,0,1,187.2,37a54.88,54.88,0,0,1-13.28,13.27c-14.26,8.19-28.52,8-42.79,0A54.7,54.7,0,0,1,118,37.18c-2.41-4.28-5-8.5-5.46-13.56a36.38,36.38,0,0,1-.56-13.83c1.58-6.06,3.1-12.16,6.94-17.32,1.67-2.24,3.2-4.65,6.07-5.58,18-15.4,37.59-12.41,50-3.89C176.66-15.79,178.32-14.43,180-13.13Z" transform="translate(108.95 108.89)"/><path class="cls-52" d="M125-13.11c-6.09,6.34-9.75,14-11.81,22.42-3.38-1.75-7-1.72-10.7-1.72q-84.64,0-169.29,0C-76,7.64-85,5.72-94.21,6.42c-2.65.21-5.35-.56-6.62-3.47a8.88,8.88,0,0,1-.38-3.54c-.4,2.05.52,3.32-.32,4.5-.68.68-1.3,1.51-2.47,1.09-.67-4.39,1.76-8.74.13-13.19-.39-1.08.78-1.68,1.87-1.81,2.32-5.45,7.11-4,11.33-4q104.94,0,209.88,0C121.13-14,123.23-14.69,125-13.11Z" transform="translate(108.95 108.89)"/><path class="cls-18" d="M-86,347c1.47-1.63,3.43-1,5.17-1Q-50.41,346-20,346c1.47,1.64,3.43,1,5.18,1q136.32,0,272.64,0c1.75,0,3.71.67,5.18-1q59.16,0,118.32,0c1.91,0,4-.76,5.68,1h0c-1.16,1.09-.71,3-2,4H263c-2.73,2.25-6,1.61-9.12,1.61q-89.41.06-178.84,0-43.2,0-86.42,0c-2.94,0-6,.54-8.62-1.62-1.55-2.57-3.85-3.08-6.75-3.06-16.8.13-33.6.06-50.4.06h-1c-2,.05-4.25-.29-4.72,2.47-.52,3,2.42,2.19,4.44,3.07C-85.33,354.17-86,353.54-86,347Z" transform="translate(108.95 108.89)"/><path class="cls-53" d="M-100,316v-2c2.9-2.34,6.37-1.61,9.63-1.61,71.62.06,143.25-.1,214.88.09q118.43.3,236.87.1c10.83,0,21.65,0,32.48,0,2.15,0,4.35-.27,6.39.72l.75.68c0,1.66-.29,3-2.4,3-1.33,0-2.66,0-4,0q-244.2,0-488.41,0C-95.88,317-98.18,317.8-100,316Z" transform="translate(108.95 108.89)"/><path class="cls-54" d="M404,310c-1.18.72-1,1.9-1,3l-2,1c-2.24-1.64-4.83-1-7.26-1q-102.61-.06-205.23,0c-2.31,0-4.66.35-6.92-.44-.86-3.39.08-4.54,5.38-6.55,50,0,99.93-.43,149.89.23,19.27.25,38.55.63,57.83.78,2.16,0,4.35.23,6.31-1a1.73,1.73,0,0,1,2.19-.11C404.42,307.07,405.47,308.29,404,310Z" transform="translate(108.95 108.89)"/><path class="cls-18" d="M395,336c2.4.82,1,2.55,1,4-2.6,1.75-5.47,2.07-8.56,2.07Q325.21,342,263,342c-.67-4.67,2.62-4,5.41-4q60.61,0,121.23-.06C391.5,337.94,394.19,339.29,395,336Z" transform="translate(108.95 108.89)"/><path class="cls-55" d="M-103,318v-3.62l2,2.64v3.64Z" transform="translate(108.95 108.89)"/><path class="cls-56" d="M-94,335l-3.06-3.95c1.6-.69,2.37,0,3.06.95A2.17,2.17,0,0,1-94,335Z" transform="translate(108.95 108.89)"/><path class="cls-57" d="M396,335l-1,1c-1.15-.7-2.64-1.47-1.26-3,1.09-1.18,1.39.85,2.26,1Z" transform="translate(108.95 108.89)"/><path class="cls-53" d="M403,317v4C400.59,319.67,400.59,318.33,403,317Z" transform="translate(108.95 108.89)"/><path class="cls-58" d="M-94,335v-3c1,.53,2.06,1.06,1.65,2.43C-92.57,335.14-93.06,335.94-94,335Z" transform="translate(108.95 108.89)"/><path class="cls-59" d="M-66.71-75.46c.49-1.93,1.75-1.91,3.18-2.59C-64.08-76.13-64.79-75.31-66.71-75.46Z" transform="translate(108.95 108.89)"/><path class="cls-60" d="M368-75c-1.47-.83-3.27-1.2-4-3h0c1.83.34,3.69.63,4,3Z" transform="translate(108.95 108.89)"/><path class="cls-61" d="M364-78c-1.36-.08-2.42-.5-2.7-2.15,1.87-.2,2.54.67,2.7,2.15Z" transform="translate(108.95 108.89)"/><path class="cls-62" d="M186,37c3.5-6.57,5.92-13.46,6.2-21,56.28,0,112.57.27,168.85-.21,12.57-.1,25.19-.25,37.74-1,3.66-.22,7.05-1.76,10.18,1.2q0,10,0,20c-1.75,1.64-4,1.54-6.12,1.59-70.08,1.62-140.16.88-210.24,1C190.27,38.59,187.85,38.85,186,37Z" transform="translate(108.95 108.89)"/><path class="cls-62" d="M408-1c.47,4.31-.86,8.76,1,13-3.68.2-3.18-2.89-3.93-5,1-.79.06-2.2,1-3C407.9,2.84,406.11.22,408-1Z" transform="translate(108.95 108.89)"/><path class="cls-63" d="M406,4c0,1.1.18,2.28-1,3V-.84l1,0Z" transform="translate(108.95 108.89)"/><path class="cls-62" d="M403.76,6.51c-.33.5-.57,1.28-1.07,1.52s-.7-.52-.55-.86a8.74,8.74,0,0,1,1.11-1.51Z" transform="translate(108.95 108.89)"/><path class="cls-15" d="M263,372c0,7,0,7-6.93,7H-13.07C-20,379-20,379-20,372c2.7-2.37,6-1.6,9.09-1.6q98.69-.07,197.37,0c22.81,0,45.63,0,68.45,0C257.67,370.4,260.64,369.81,263,372Z" transform="translate(108.95 108.89)"/><path class="cls-11" d="M263,372H-20c-1.46-1.63-3.4-1-5.14-1-11.57-.06-23.15,0-34.72-.06-1.73,0-3.68.66-5.14-1,13.39,0,26.78,0,40.17-.05,1.75,0,4.2,1.09,4.83-1.95,1-1.81,2.71-2.33,4.62-2.5s3.66-.13,5.49-.13q131.42,0,262.85.05c3.46,0,7.47-1.26,10,2.58.81,3.28,3.49,1.94,5.35,1.94q48.82.12,97.65.06c-1.64,1.72-3.77,1-5.67,1q-45.82.06-91.67.06C266.76,371,264.64,370.28,263,372Z" transform="translate(108.95 108.89)"/><path class="cls-64" d="M371,372v3a3.43,3.43,0,0,1-2-2,2.08,2.08,0,0,1,1-2Z" transform="translate(108.95 108.89)"/><path class="cls-65" d="M353,387a3,3,0,0,1-3,2c0-2,1.73-2.25,3-3Z" transform="translate(108.95 108.89)"/><path class="cls-51" d="M187,306a20.35,20.35,0,0,1-6,4.89c-1.68,1.81-3.89,1.6-6,1.6q-24.84,0-49.67,0c-3.54,0-7-.19-9.07-3.82-4.77-5.19-2.59-11.7-3.34-17.66a2.43,2.43,0,0,1,0-3V274c-1.78-2.44-1.22-5.25-1.27-8q-.14-4.5,0-9c-.09-3.27-.11-6.55,0-9.83-.06-3.5-.08-7,0-10.51,0-.86,0-1.72,0-2.57,0-1.42,0-2.84,0-4.26s0-2.87,0-4.3c-.13-3.84-.11-7.67,0-11.51-.1-2.7-.09-5.4,0-8.1-.12-3.64-.12-7.27,0-10.91-.1-4.54-.14-9.08,0-13.62,0-1.51-.09-3,0-4.52-.12-2.72-.06-5.44,0-8.16-.17-5.25-.15-10.49,0-15.73-.13-6.53-.18-13.06,0-19.58,0-1.85-.11-3.69,0-5.54-.13-4-.12-7.93,0-11.9q-.19-9.54,0-19.08c0-3.72.9-7.09,4-9.51a19.33,19.33,0,0,1,3.19-1.82,11,11,0,0,1,4.37-.91c18.94,0,37.89-.37,56.84.2,6.37,1.75,9.28,6.11,9.42,12.55.16,4.93.12,9.87,0,14.8,0,1.13,0,2.25-.06,3.38,0,.82,0,1.65,0,2.48s0,1.67,0,2.5c.07,2.53.06,5.07,0,7.6.15,1.77,0,3.54,0,5.31.19,6.48.17,13,0,19.44.13,5.27.16,10.54,0,15.81.08,2.75.12,5.51,0,8.26.1,3.93.12,7.86,0,11.79.07,3.84.09,7.68,0,11.51l0,2.62c.07,1.15,0,2.3,0,3.45.1,2.6.07,5.19,0,7.79.1,3.78.11,7.55,0,11.33,0,1.43.09,2.86,0,4.29s.06,2.84,0,4.26c0,.86,0,1.73,0,2.6.13,3.55.1,7.11,0,10.67q.24,9.21,0,18.43c.09,2.77.12,5.53,0,8.3-.12,3.36.81,6.86-1.28,10v4a2.43,2.43,0,0,1,0,3C187.56,296,188.79,301.11,187,306Z" transform="translate(108.95 108.89)"/><path class="cls-66" d="M188.17,153V133c2.71-2.34,6-1.58,9.09-1.59,52.74,0,105.48.16,158.21-.15,15.28-.09,30.56-.93,45.86-.86,2.62,0,5.38-.38,7.61,1.6q0,10,0,20c-1.9,1.76-4.3,1.55-6.61,1.6q-58.85,1.31-117.72,1c-29.44-.12-58.89,0-88.34,0C193.5,154.59,190.54,155.15,188.17,153Z" transform="translate(108.95 108.89)"/><path class="cls-67" d="M188.17,266V247c2.7-2.34,6-1.59,9.09-1.6,53.4-.05,106.8.1,160.2-.12,14.62-.06,29.23-1.31,43.87-.9,2.62.08,5.38-.37,7.61,1.61v19c-1.9,1.76-4.29,1.57-6.61,1.63-69,1.64-138,.85-207.07,1C192.81,267.61,190.21,268,188.17,266Z" transform="translate(108.95 108.89)"/><path class="cls-68" d="M188.17,113q0-8,0-16c2.71-2.34,6-1.58,9.09-1.59,52.23,0,104.45.23,156.67-.2,15.23-.12,30.43-2.58,45.73-1.83,3.31.16,6.73-.13,9.3,2.62v15c-1.51,2.66-4.12,2.45-6.61,2.46-9.47,0-18.95-.24-28.39.1-59.22,2.1-118.45.3-177.68.88C193.53,114.48,190.55,115.22,188.17,113Z" transform="translate(108.95 108.89)"/><path class="cls-69" d="M188.17,153c73.59-.08,147.18.47,220.76-1q0,8,0,16c-1.91,1.75-4.3,1.56-6.62,1.6-38.9.71-77.8,1.27-116.72,1.05-29.78-.16-59.56,0-89.34-.06-2.77,0-5.72.56-8.09-1.59Z" transform="translate(108.95 108.89)"/><path class="cls-70" d="M409,96a129.56,129.56,0,0,0-37.75-.51c-11.33,1.52-22.5,1.37-33.72,1.42-49.77.21-99.54.09-149.32.09,0-5.28-2.83-8.69-7.38-10.91,2.71-3,6.34-2.48,9.78-2.48q58.37-.06,116.73,0h52.87c2.33,0,4.67.14,6.84-1,.63-.2-.2-.1.46-.19,13.08-1.77,26.21-.81,39.32-.59A3.71,3.71,0,0,1,409,83Z" transform="translate(108.95 108.89)"/><path class="cls-71" d="M188.17,226V214c2.71-2.34,6-1.58,9.09-1.58,53.08,0,106.15.17,159.23-.17,14.94-.09,29.9-.95,44.86-.83,2.76,0,5.8-.45,7.6,2.57,0,3.66,0,7.33,0,11a6.7,6.7,0,0,1-5.11,1.57c-7.65-.2-15.29.75-22.94.12-6.52-.54-12.93,1-19.41,1q-82.62,0-165.22,0C193.49,227.59,190.54,228.15,188.17,226Z" transform="translate(108.95 108.89)"/><path class="cls-72" d="M188.17,189q0-6,0-12c2.72-2.34,6-1.58,9.1-1.59,52.74,0,105.47.16,158.21-.15,15.28-.09,30.56-.93,45.85-.86,2.63,0,5.39-.38,7.62,1.59v12c-1.75,1.63-4,1.55-6.12,1.6-69.34,1.6-138.7.88-208.06,1C192.47,190.6,190.05,190.83,188.17,189Z" transform="translate(108.95 108.89)"/><path class="cls-73" d="M188.17,189c73.59-.05,147.18.42,220.77-1v12c-1.78,1.65-4,1.37-6.16,1.39-9.8,0-19.62-.26-29.41.09-59,2.11-118,.32-177.07.89-2.75,0-5.71.74-8.13-1.38Z" transform="translate(108.95 108.89)"/><path class="cls-74" d="M408.94,246c-73.59,1.47-147.18.94-220.77,1V236c2.42-2.12,5.38-1.38,8.13-1.38,54.41,0,108.83.18,163.24-.17,14.93-.1,29.88-1,44.83-.85,1.66,0,3.29.17,4.58,1.41Z" transform="translate(108.95 108.89)"/><path class="cls-9" d="M188.17,284V274c2.71-2.34,6-1.59,9.1-1.59,53-.05,106,.15,158.92-.15,15.8-.09,31.61-1.08,47.43-1,1.8,0,3.67-.5,5.32.69.2,11,.19,10.77-10.85,11.05C328.12,284.8,258.14,283.68,188.17,284Z" transform="translate(108.95 108.89)"/><path class="cls-75" d="M409,83c-11.93,0-23.86,0-35.78,0-1.75,0-3.7-.66-5.17,1-1.73.92-3.6.46-5.4.46-37.33,0-74.66.17-112,0-42.15-.21-84.3.34-126.45.67-64.49.5-129,0-193.45.29a39.89,39.89,0,0,1-6-.16c-1.52-.23-3-.74-3-2.69A3.38,3.38,0,0,1-76,79.11a10.91,10.91,0,0,1,3.92-.69c2.5-.09,5,0,7.5,0q209.73,0,419.46-.1c15.46,0,30.94-1,46.41-.88,2.63,0,5.4-.38,7.62,1.62,0,.67,0,1.35.07,2S409,82.34,409,83Z" transform="translate(108.95 108.89)"/><path class="cls-76" d="M409,214c-1.64-1-3.47-1-5.31-1-10.29,0-20.59-.3-30.87.06-61.53,2.19-123.07.31-184.6.95,0-2.67,0-5.33,0-8,2.22-2.12,5-1.47,7.61-1.47,54.41,0,108.83.23,163.24-.19,14.42-.11,28.86-.8,43.3-.82,2.31,0,4.72-.33,6.63,1.47Z" transform="translate(108.95 108.89)"/><path class="cls-77" d="M188.17,128v-8c2.42-2.12,5.38-1.38,8.13-1.38,53.72-.05,107.45.23,161.17-.21,14.93-.12,29.87-.83,44.82-.81,2.29,0,4.71-.37,6.65,1.4v8c-1.75,1.63-4,1.55-6.11,1.6-69.35,1.6-138.71.88-208.07,1C192.47,129.59,190.05,129.83,188.17,128Z" transform="translate(108.95 108.89)"/><path class="cls-78" d="M408.94,176c-73.59,1.44-147.18,1-220.78,1,0-2.67,0-5.34,0-8,73.59-.06,147.18.44,220.77-1Z" transform="translate(108.95 108.89)"/><path class="cls-79" d="M408.94,272a31.81,31.81,0,0,1-6.34,1.06c-71.47,1.55-143,.79-214.43.95v-8c73.59-.07,147.19.46,220.77-1Z" transform="translate(108.95 108.89)"/><path class="cls-80" d="M188.17,128c73.59,0,147.19.42,220.77-1v5c-73.59,1.42-147.18.95-220.77,1Z" transform="translate(108.95 108.89)"/><path class="cls-81" d="M188.17,226c73.59-.08,147.19.51,220.77-1v4c-1.76,1.63-4,1.54-6.12,1.59-69.35,1.67-138.7.84-208.06,1-2.29,0-4.71.24-6.59-1.59Z" transform="translate(108.95 108.89)"/><path class="cls-82" d="M188.17,230c73.59-.08,147.18.47,220.77-1,0,1.33,0,2.65,0,4-1.66,1.39-3.66.88-5.54,1-9.65,0-19.3-.29-28.92.06-60,2.16-120,.31-180.07.91-2.11,0-4.36.56-6.25-1Z" transform="translate(108.95 108.89)"/><path class="cls-83" d="M188.17,291v-3c73.36-.27,146.72.85,220.32-1.3-.34,3.75-5,2.56-4.67,5.91.05.53-.7.25-.79-.25-.76-4.05-4-2.32-6.06-2.27C327.38,291.78,257.77,290.71,188.17,291Z" transform="translate(108.95 108.89)"/><path class="cls-84" d="M188.17,113c58.1,0,116.21.32,174.31-.23q21.06-.19,42.16-.75a9.11,9.11,0,0,0,4.31-1v4c-1.78,1.65-4,1.39-6.16,1.4-9.8,0-19.62-.26-29.41.09-59.18,2.11-118.39.32-177.58.89-2.59,0-5.38.65-7.64-1.38C188.16,115,188.17,114,188.17,113Z" transform="translate(108.95 108.89)"/><path class="cls-73" d="M408.94,205c-73.59,1.43-147.18,1-220.78,1,0-1,0-2,0-3,2.06-1.6,4.49-1,6.76-1,55.15,0,110.3.25,165.45-.21,14.25-.12,28.52-.69,42.78-.79,2,0,4-.44,5.77,1Z" transform="translate(108.95 108.89)"/><path class="cls-85" d="M408.93,202c-73.58,1.49-147.17.93-220.76,1v-2c73.59-.05,147.18.41,220.77-1C408.94,200.67,408.94,201.33,408.93,202Z" transform="translate(108.95 108.89)"/><path class="cls-77" d="M188.16,116c73.6,0,147.2.42,220.79-1,0,.66,0,1.33,0,2-1.73,1.41-3.81,1-5.77,1-10.15,0-20.32-.29-30.45.08-59.26,2.16-118.53.31-177.79.9-2.27,0-4.7.64-6.76-1Z" transform="translate(108.95 108.89)"/><path class="cls-80" d="M188.17,118c73.59,0,147.19.42,220.78-1,0,.67,0,1.33,0,2-73.59,1.41-147.18,1-220.77,1Z" transform="translate(108.95 108.89)"/><path class="cls-86" d="M403,306h-2c-.83-3.94-3.95-4-7-4-14.45,0-28.9,0-43.35-.07-1.42,0-4,1.06-4-1.32,0-2,2.52-1.64,4.13-1.61,15.58.28,31.11-1.75,46.7-1,1.95.09,4,.32,5.66-2.4.17,2.79-1.89,4.62-.15,6.42,1.11,1,.91,2.19.44,3.4Z" transform="translate(108.95 108.89)"/><path class="cls-87" d="M404,310a6.74,6.74,0,0,0-1-4h0c.32-.5.65-.48,1,0,1.82.76,2.11,2.29,2,4-.55.56-.87,1.6-2,1Z" transform="translate(108.95 108.89)"/><path class="cls-81" d="M404,233H409v2H405C404.47,234.43,403.38,234.15,404,233Z" transform="translate(108.95 108.89)"/><path class="cls-88" d="M404,306l-1,0v-4C405.48,302,405.58,302.38,404,306Z" transform="translate(108.95 108.89)"/><path class="cls-54" d="M404,311l2-1c0,1.33-.06,2.65-.1,4Z" transform="translate(108.95 108.89)"/><path class="cls-89" d="M116.17,308.66a17.73,17.73,0,0,0,10,2.39c18.27-.15,36.53-.13,54.8-.17,1.75,1.95,4.07,1.08,6.12,1.08q104,.07,208.08.11c2,0,4.87-1.55,5.86,1.93H-100c-.15-2.67,1-4.1,3.78-4,1.33.05,2.67,0,4,0Q9,310,110.16,310C112.19,310,114.56,310.87,116.17,308.66Z" transform="translate(108.95 108.89)"/><path class="cls-83" d="M112.83,288v3q-92.58,0-185.15,0c-1.91,0-4,.75-5.68-1,1.53-3,4.33-2,6.67-2Q20.76,288,112.83,288Z" transform="translate(108.95 108.89)"/><path class="cls-9" d="M-83.66,296.31c-2.07-1.13-5.74,1.19-5.73-2,0-2.36,3.57-1.24,5.48-1.19,2.11.06,6-1.22,6,1C-77.85,297.67-81.88,294.94-83.66,296.31Z" transform="translate(108.95 108.89)"/><path class="cls-90" d="M-104,306c3.71,1.66.63,3.33,0,5A5.77,5.77,0,0,1-104,306Z" transform="translate(108.95 108.89)"/><path class="cls-91" d="M-104,306c0,1.66,0,3.33,0,5C-105.77,309.33-105.31,307.67-104,306Z" transform="translate(108.95 108.89)"/><path class="cls-92" d="M408.93,79c-12,0-23.94-.17-35.9,0C225.12,81.3,77.21,79.34-70.7,80.09c-2.23,0-6.47-1.93-6.47,2,0,4.1,4.22,1.78,6.31,1.79q219.44.2,438.86.12c-1.65,1.73-3.77,1-5.68,1Q279,85,195.61,85c-5,0-10-.3-14.83,1.09-18.79,0-37.59,0-56.38-.12A26.44,26.44,0,0,0,118.06,87C56,87-6.14,87-46.39,87c37.65,0,97.14,0,156.64,0,2.07,0,4.38-.72,6.15,1.13A10.66,10.66,0,0,0,112.84,96c-2.72,2.32-6,1.56-9.11,1.56q-83.47.07-166.95,0c-5.63,0-11.1-.33-16.08,3.75-2.91,2.37-7.31,1.89-10.13-1-3.14-3.27-6.75-3.85-10.89-3.74-2.62.06-5.38.41-7.63-1.55V87c3.74-2.09,7.8-.37,11.12-1-3.33-.55-7.39,1.08-11.13-1V83c4.42-2.93,9.59-.38,14.65-2-5-1.61-10.22.94-14.63-2V71c5.53-2.87,11.34-1.55,17.07-1.06,1.4.12,2.12,1.38,2.91,2.51,2.37,3.35,5.58,3.94,8.2,1.07,2.3-2.54,5-3.09,8-3.11l6.49,0q209.82,0,419.64-.09c15.62,0,31.25-1,46.88-.89,2.63,0,5.39-.39,7.63,1.59Z" transform="translate(108.95 108.89)"/><path class="cls-66" d="M112.83,133v20c-2.72,2.33-6,1.57-9.11,1.57q-84.24.08-168.48,0c-4.77,0-9.38-.4-13.44,3.61-2.92,2.89-9.73,1.74-12.2-1.53-2-2.68-4.48-3-7.4-3.12-3.42-.14-7.06.87-10.13-1.57V132c6.76-3.25,15.58-2.05,20.51,2.65,2.61,2.49,5.72,2.4,7.92-.11s4.93-3.11,8-3.12q89.12,0,178.24,0C108.87,131.44,111.1,131.3,112.83,133Z" transform="translate(108.95 108.89)"/><path class="cls-68" d="M-107.95,95c3.66,0,7.33.08,11,0,3.31-.1,5.88.38,7.88,3.75s8.1,3.36,10.6.14,5.73-2.86,9-2.86H112.84q0,10,0,20c-2.72,2.32-6,1.56-9.1,1.56q-85.09.07-170.19,0c-4,0-8-.63-11.11,3.62-2.24,3-11.43,1.61-13.46-1.65-1.61-2.59-3.72-2.87-6.3-3-3.57-.21-7.37.93-10.61-1.57Z" transform="translate(108.95 108.89)"/><path class="cls-69" d="M-107.93,152c4,0,8,.05,12,0,3,0,5.7-.46,6.61,3.88.64,3.06,10.27,3.4,11.48.34,1.36-3.43,3.64-3.21,6.31-3.21H112.83v16c-2.71,2.33-6,1.57-9.09,1.57q-85.12.08-170.24,0c-4.26,0-8.36-.39-11.8,3.57C-80.72,177-87.79,176-90,173c-2.09-2.84-4.65-3.3-7.77-3.39-3.42-.09-7.05.88-10.12-1.56Z" transform="translate(108.95 108.89)"/><path class="cls-71" d="M112.83,230v4c-1.76,1.73-4,1.4-6.14,1.4q-89.17,0-178.33,0a14.86,14.86,0,0,1-7.67-1.66c-3.2-1.8-6.7-1.11-10.17-.21a28.47,28.47,0,0,1-15.24,0,3.48,3.48,0,0,1-.87-4.17c3.44-3.3,7.89-.94,12.94-2.47-3.46-.69-5.88-.36-8.25-.49s-5,.44-7-1.44V215c3.65-4.59,14.32-5.13,18.3-.93s6.86,4.55,11.09,1.08c3.31-2.71,7-2.73,10.85-2.73H46.74c19.5,0,39,0,58.48,0,2.61,0,5.39-.47,7.61,1.57v12c-2.71,2.34-6,1.59-9.1,1.59q-84.68.07-169.35,0a67.65,67.65,0,0,0-7.21.2,20,20,0,0,0,6.71.55q84.93,0,169.85,0C106.81,228.42,110.12,227.67,112.83,230Z" transform="translate(108.95 108.89)"/><path class="cls-23" d="M112.84,181q0,7,0,14c-2.56,2.23-5.69,1.55-8.61,1.55q-84.73.07-169.45,0c-4.68,0-9.24.12-13.69,2.06-3.28,1.43-7.1,1.67-10.21-.17-6.79-4-13-4.12-18.82,1.52V176c6.85-3.15,14.82-2,19.74,3,1.78,1.82,4,1.38,6,1.46a26.33,26.33,0,0,0,5.92-.71,45.43,45.43,0,0,1,8-.39q86,0,172,0C106.82,179.4,110.12,178.66,112.84,181Z" transform="translate(108.95 108.89)"/><path class="cls-93" d="M-107.94,115c3.82,0,7.65,0,11.47,0,3.14,0,7.12-1.12,6.67,4.45-.07.9.83,1.44,1.72,1.46,3,.06,6,.08,9,0,1.07,0,2-.25,1.27-1.79-1.12-2.53,1-2.77,2.55-3.06a23.89,23.89,0,0,1,4.48-.1H112.83v12c-2.72,2.32-6,1.56-9.11,1.56q-84.93.08-169.87,0c-4.7,0-9,.13-13,3.63a6.66,6.66,0,0,1-9.54-.67c-3-3.71-6.55-4-10.64-4-3,0-6.48.82-8.61-2.52Z" transform="translate(108.95 108.89)"/><path class="cls-74" d="M112.83,236v11c-2.71,2.33-6,1.58-9.09,1.58q-84.58.07-169.18,0c-4.61,0-9-.31-12.84,3.66-2.86,2.95-9.33,1.33-12.41-2.06-1.49-2.82-4.16-2.63-6.8-2.78-3.51-.21-7.24,1-10.45-1.44V235a4.29,4.29,0,0,1,3.23-1c6.47.08,12.94,0,19.41-.57,5.65-.49,11,1.73,16.75,1.71,58.21-.21,116.42-.13,174.63-.1C108.35,235,110.77,234.4,112.83,236Z" transform="translate(108.95 108.89)"/><path class="cls-85" d="M-107.95,200c2.59-6.37,11.94-8.64,17.33-4,3.71,3.18,8,2.89,11.6,1.13a20.94,20.94,0,0,1,9.51-2.1q91.17,0,182.34,0v11c-2.72,2.32-6,1.56-9.1,1.56q-84.91.08-169.83,0c-4.29,0-8.32-.2-12,3.44-3.28,3.29-10.35,1.82-13.1-2.08-1.65-2.35-3.86-2.18-6.16-2.37-3.57-.3-7.38.92-10.62-1.6Z" transform="translate(108.95 108.89)"/><path class="cls-67" d="M-107.94,246c4.73,0,9.45,0,14.18,0,2.17,0,4,.14,3.76,3,.15,6-.51,6.47-9.07,6.46A25.09,25.09,0,0,0-88.7,254a15.26,15.26,0,0,1,9.38,0c5.21,1.62,10.5,1.49,15.81,1.49q83.87,0,167.74,0c2.92,0,6-.67,8.61,1.54v9c-2.72,2.32-6,1.55-9.11,1.55q-85.23.07-170.45,0c-4.14,0-8-.17-11.4,3.47-3.1,3.28-10.61,1.77-13.09-2.07-1.47-2.28-3.44-2.22-5.59-2.41-3.74-.32-7.72,1-11.13-1.59Z" transform="translate(108.95 108.89)"/><path class="cls-78" d="M-77,181c-3.52,2.1-7.36.58-11,.91a1.68,1.68,0,0,1-1.87-1.83c.06-4.18-2.74-4.15-5.71-4.1-4.11.07-8.22,0-12.33,0v-8c3.83,0,7.67.11,11.49,0,3.44-.12,6.27-.21,7.59,4.22,1.09,3.65,4.92,1.25,7.47,1.75,1.77.35,3.37-.12,3.4-2.48S-76.3,169-74.53,169c1.33,0,2.67,0,4,0H112.83c0,2.66,0,5.33,0,8-2.72,2.34-6,1.59-9.11,1.59q-85.2.07-170.42.08C-70.22,178.67-74.13,177.76-77,181Z" transform="translate(108.95 108.89)"/><path class="cls-76" d="M-107.94,205c3.84,0,7.67.06,11.5,0,3.55-.06,7.3-.62,7.17,4.82,0,1.53,1.34,1.25,2.23,1.17,3.79-.34,8.39,1.84,10.37-4,.65-1.89,3.31-1,5.06-1q67-.06,134,0h50.48v8H-70.4c-3.19,0-6-.19-7.87,3.61-1.48,3.09-10.64,1.71-11.83-1.56-.8-2.2-2.05-3.33-4.42-3-4.49.54-9.37-1.5-13.43,2Q-107.93,210-107.94,205Z" transform="translate(108.95 108.89)"/><path class="cls-79" d="M-107.94,265c5,0,10,0,15,0,1.61,0,3.74-.2,3.18,2.48-.7,3.35,1.25,3.83,3.67,3.45,3.36-.52,8.43,2.49,9-4.41.08-1.09,3-.52,4.64-.52q92.66,0,185.31,0v8H-71.36c-2.6,0-4.86-.28-6.49,2.95-1.85,3.64-6,1.79-9.15,2-2.37.13-3-1.67-3-3.71S-91.66,273-93.23,273h-7C-108.07,273-108.07,273-107.94,265Z" transform="translate(108.95 108.89)"/><path class="cls-94" d="M-107.95,126c4.32,1.94,8.86.76,13.3.91,2.72.09,4.64.37,5.73,3.43,1.17,3.28,9.14,4.16,10.34,1.07,1.56-4,4.34-3.42,7.25-3.42H112.83v5H-72.62c-2.34,0-4.69-.73-5.5,3.07s-4.48,1.44-6.85,1.85c-1.71.3-3.78.48-4.08-2.3-.36-3.23-2.55-3.77-5.39-3.67-4.5.15-9,0-13.5,0Q-107.94,129-107.95,126Z" transform="translate(108.95 108.89)"/><path class="cls-95" d="M112.83,236c-73.59-.24-147.19.71-220.77-1l0-2a2.13,2.13,0,0,1,3,0c7.47,1.05,14.62-1.35,21.93-1.95,2-.17,4.15-.56,5.56,2.06,1,1.75,3.38.86,5.14.86q92.6,0,185.2,0Z" transform="translate(108.95 108.89)"/><path class="cls-95" d="M-107.94,225c4.93,0,9.86,0,14.79,0,1.3,0,2.83-.11,3,1.74.17,2.2-1.47,2.22-3,2.23-3.94,0-7.89,0-11.83,0a2.12,2.12,0,0,1-3,0Z" transform="translate(108.95 108.89)"/><path class="cls-75" d="M-107.93,79c5,0,10,0,15,0,1.37,0,2.79.09,2.79,2S-91.6,83-93,83c-5,0-10,0-15,0,0-.66-.07-1.32-.1-2Z" transform="translate(108.95 108.89)"/><path class="cls-68" d="M-107.95,85h16l0,2h-16C-107.94,86.33-107.95,85.67-107.95,85Z" transform="translate(108.95 108.89)"/><path class="cls-74" d="M-108,229h3v4h-3C-108,231.66-108,230.34-108,229Z" transform="translate(108.95 108.89)"/><path class="cls-6" d="M322,399a27.33,27.33,0,0,1-8.36,1q-163.21,0-326.44-.22c-3.58,0-6.59,3-10.2,1.19.53-1.63-1.28-3.72,1-5,5.4,2.71,11.2,2,16.91,2H313.69c2.47,0,5,.43,7.31-1a1.47,1.47,0,0,1,2,1.21C323.22,399,322.72,399.22,322,399Z" transform="translate(108.95 108.89)"/><path class="cls-96" d="M-22,396c-1.82,1.37,1.79,3.82-1,5-3-4.22-7-3.09-10.93-2.13L-35,397h0c2.72.1,5.11-2.42,8-1C-25.34,396.7-23.66,394.21-22,396Z" transform="translate(108.95 108.89)"/><path class="cls-97" d="M322,399c1.22-1.45-.38-1.48-1-2a5.9,5.9,0,0,1-.64-1.8c0-.82,1.12-1.12,1.31-.7,1.47,3.33,6.5-1,7.33,3.49-.47.73-.85,1.63-2,1C325.33,399.69,323.67,400.91,322,399Z" transform="translate(108.95 108.89)"/><path class="cls-6" d="M-27,396c-2.75-.29-5.11,2.42-8,1l-.31-.94C-32.54,396.63-29.8,392.59-27,396Z" transform="translate(108.95 108.89)"/><path class="cls-42" d="M-49,390c-.45-1.75-3.1-1.83-3-4,1.35.63,2.69,1.27,4,1.89.54.25,1.61.27,1.08,1.11C-47.21,389.56-48.26,389.67-49,390Z" transform="translate(108.95 108.89)"/><path class="cls-98" d="M327,399l2-1c3.39.67-.59,1.34,0,2A2,2,0,0,1,327,399Z" transform="translate(108.95 108.89)"/><path class="cls-14" d="M263,368c-1.8-1.12-3.81-1-5.81-1H-14.19c-2,0-4-.11-5.81,1,1.22-4,0-5.21-4.37-5.12-14.2.32-28.42.12-42.63.12.82-1.09,2-1.05,3.18-1,27.85,1.42,55.54-2.34,83.38-2.17,79.08.46,158.17.15,237.26.2,2.06,0,4.36-.84,6.18,1,1.71,1,3.58.49,5.37.49q47.13,0,94.25.05c1.79,0,3.65-.46,5.38.46v1H266C263.8,363.94,264,366.35,263,368Z" transform="translate(108.95 108.89)"/><path class="cls-99" d="M-20,351H263v4q-138.54,0-277.09,0C-16.84,355-20.62,356.16-20,351Z" transform="translate(108.95 108.89)"/><path class="cls-100" d="M368,362q-49.67,0-99.32,0c-1.91,0-4,.77-5.68-1H374.73l.07,1Z" transform="translate(108.95 108.89)"/><path class="cls-101" d="M-80,361c-1.35-1.33-2.16-3.82-4.86-2.32-.16-3.36,2-3.27,3.72-1.92,1.55,1.18,3.49,2.64,3.13,5.2Z" transform="translate(108.95 108.89)"/><path class="cls-101" d="M381,359v3c-1.66-.33-2.94-.92-2-3Z" transform="translate(108.95 108.89)"/><path class="cls-4" d="M334-97.8c-.69.93-1.2,1.68-2.17,1.47s-1.62-.74-1.35-1.73c.22-.82,1-.64,1.62-.39S333.3-98,334-97.8Z" transform="translate(108.95 108.89)"/><path class="cls-4" d="M-37.4-91.9c-.32.17-.75.6-1,.51a7.28,7.28,0,0,1-1.65-1c.34-.2.67-.54,1-.58A1.32,1.32,0,0,1-37.4-91.9Z" transform="translate(108.95 108.89)"/><path class="cls-102" d="M13,404c1.47-1.64,3.43-1,5.18-1q132.32,0,264.64,0c1.75,0,3.71-.67,5.18,1-1.76,1.73-4,1.39-6.14,1.39q-131.36,0-262.72,0C17,405.39,14.76,405.73,13,404Z" transform="translate(108.95 108.89)"/><path class="cls-27" d="M13,404H288v1l-.74.68c-2,1.11-4.22.8-6.37.8q-130.39,0-260.78,0c-2.15,0-4.35.31-6.37-.8L13,405Z" transform="translate(108.95 108.89)"/><path class="cls-103" d="M13,407H4l1-1c2.48-1,5-.34,7.57-.4A.92.92,0,0,1,13,407Z" transform="translate(108.95 108.89)"/><path class="cls-104" d="M298,404c-.16,0-.37,0-.48-.09a4.21,4.21,0,0,1-.47-.62c2.37-.26,4.78-1,6.95.71A8.13,8.13,0,0,1,298,404Z" transform="translate(108.95 108.89)"/><path class="cls-105" d="M-3,404c2.13-2,4.56-.47,6.89,0H-3Z" transform="translate(108.95 108.89)"/><path class="cls-106" d="M13,406H5c2.46-2,5.34-.56,8-1h0c.25.22.34.44.25.67S13.09,406,13,406Z" transform="translate(108.95 108.89)"/><path class="cls-103" d="M296,407h-8a1,1,0,0,1,.34-1.39c1.89,0,3.83-.56,5.66.39A2.06,2.06,0,0,1,296,407Z" transform="translate(108.95 108.89)"/><path class="cls-107" d="M298,404h6v1h0C302,404.68,299.76,405.81,298,404Z" transform="translate(108.95 108.89)"/><path class="cls-108" d="M294,406h-6c-.25-.22-.34-.44-.25-.66s.17-.33.25-.33h0C290,405.33,292.24,404.19,294,406Z" transform="translate(108.95 108.89)"/><path class="cls-109" d="M385.82,358.75A4.38,4.38,0,0,0,381,359c.14-1.9,1.09-3,3.06-2.93S386,357.32,385.82,358.75Z" transform="translate(108.95 108.89)"/><path class="cls-43" d="M385,351c-.09-1.71.18-3.24,2-4C386.81,348.57,387.68,350.67,385,351Z" transform="translate(108.95 108.89)"/><path class="cls-17" d="M263,368c.07-2.22-2.22-5.86,3-5C265.65,365.06,265,366.94,263,368Z" transform="translate(108.95 108.89)"/><path class="cls-110" d="M-70,372h-3c.15-1,.39-2,1.73-1.81C-70.23,370.32-70.13,371.18-70,372Z" transform="translate(108.95 108.89)"/><path class="cls-111" d="M288,405v2c0,.32,0,.64,0,1H13c0-.32,0-.65,0-1v-2Z" transform="translate(108.95 108.89)"/><path class="cls-112" d="M408.93,71c-9.47,0-18.94-.11-28.41,0-151.1,2.26-302.21.35-453.31,1-2.74,0-4.65-.1-5.72,3.64-.87,3-5,.87-7.66,1.35-2.22.4-3.23-1.22-3.12-2.93.2-3-1.44-3.1-3.64-3.06-5,.07-10,0-15,0q0-8,0-16c5.37-2.88,11-1.64,16.54-.93,1.2.15,1.83,1.29,2.54,2.24,2.43,3.24,6.2,4.32,8.85,1.72,3.68-3.6,7.93-3.67,12.47-3.67,55.61,0,111.23-.08,166.85.06,16.63,0,33.28-.92,49.88,1,7.49.88,14.9-1.14,22.4-1.13,61.28.07,122.56.2,183.84-.07,15.28-.07,30.58-.92,45.88-.87,2.63,0,5.39-.39,7.62,1.6Z" transform="translate(108.95 108.89)"/><path class="cls-113" d="M408.93,55c-11.13,0-22.27-.15-33.4,0-149,2.27-298.09.34-447.14.95-3,0-5,.34-6.73,3.55s-6.06,1-9.2,1.4C-90,61.2-90,59.22-90,57.51c0-2.39-1.63-2.52-3.42-2.51-4.84,0-9.67,0-14.5,0V48c5.37-2.87,11-1.64,16.54-.92,1.4.18,2.05,1.56,2.87,2.62,2.29,2.95,6.24,3.72,8.5,1.07,2.67-3.12,5.89-3.38,9.44-3.38q26.48,0,53,0,69.21,0,138.42,0c3.52,0,7,.14,10.25,1.61Q152.51,61,174,49c3.43-1.58,7.06-1.63,10.74-1.63,57.09,0,114.17.2,171.25-.11,15.12-.08,30.24-.9,45.37-.85,2.63,0,5.39-.38,7.61,1.61Z" transform="translate(108.95 108.89)"/><path class="cls-114" d="M408.93,48c-12.12,0-24.25-.35-36.36.05-66.2,2.16-132.41.32-198.61.93a67.53,67.53,0,0,0,12-12c58.75,0,117.5.37,176.24-.24,15.56-.16,31.15-.38,46.72-.74Z" transform="translate(108.95 108.89)"/><path class="cls-115" d="M-101,1c1.38,3.56,4.23,4,7.64,4.06,66.92,2,133.85.43,200.77,1,2.41,0,5.75-1.17,5.73,3.28-.11,4.89-.35,9.79.63,14.64-1.88,1-3.91.63-5.89.63Q21,24.57-66,24.55c-4.6,0-8.8.52-12.75,3.32-3.44,2.43-7.59,2.37-10.57-.72-3.49-3.63-7.54-3.73-11.94-3.43-2.28.16-4.65,1-6.73-.71q0-8.49,0-17l1.59-3.35A2.38,2.38,0,0,1-105,5.18c.05,1.38.15,2.71,2,2.74.88,0,1.75-.22,1.8-1.24.09-2.14-2.52,0-2.8-1.68l2-1C-101,3.21-101.94,1.8-101,1Z" transform="translate(108.95 108.89)"/><path class="cls-62" d="M-107.95,23c3.49,0,6.79-1.37,10.35-1.08s7.15-.17,9.11,4.29c1.14,2.6,7,2.7,9.36.26C-76.28,23.58-73,23-69.21,23q88.35.11,176.68.06c2.13,0,4.35-.39,6.3.94.54,4.84,3.52,8.69,5.26,13-2.71,2.36-6,1.58-9.1,1.58q-87.91.07-175.85,0c-4.42,0-8.7-.39-12.35,3.58-2.64,2.86-10,1.83-12.23-1.37-2-2.8-4.4-3.11-7.31-3.24-3.42-.16-7.06.85-10.13-1.57Z" transform="translate(108.95 108.89)"/><path class="cls-114" d="M-107.94,36c4.16,0,8.33,0,12.5,0,2.88,0,5.74-.45,5.73,4,0,1.75,2,2.22,3.5,2,2.66-.42,6.71,1.69,7.72-1.3,1.43-4.21,4.11-3.64,7-3.64Q23.78,37,119,37a67.48,67.48,0,0,0,12,12Q29.6,49-71.85,49c-2.78,0-5.56-1-6.69,3.66-.72,2.9-5,.88-7.68,1.27-1.77.25-3.62-.37-3.62-2.48,0-3.44-2-3.56-4.61-3.5-4.5.11-9,0-13.49,0Z" transform="translate(108.95 108.89)"/><path class="cls-116" d="M362,380c-.33.66-.67,1.32-1,2-1.4.55-2.27,2.15-4,2C357.39,381.05,359.53,380.31,362,380Z" transform="translate(108.95 108.89)"/><path class="cls-22" d="M-101,1c0,1.1.18,2.28-1,3V-1.14C-100.63-.59-101.18.33-101,1Z" transform="translate(108.95 108.89)"/><path class="cls-117" d="M112.84,257c-60.74,0-121.47-.08-182.2.14-5.72,0-10.74-3.06-16.53-2.23-4.86.71-9.49,3.09-14.6,2.11-1.55-.3-3.35.54-4.91-1.36,2.57-2.66,5.89-1.76,8.71-1.55,4.07.31,6.34-.94,6.69-5.11a7.58,7.58,0,0,0,12.61-.24c1.57-2.46,3.77-1.73,5.79-1.73q69-.06,138,0h46.48C112.83,250.33,112.83,253.67,112.84,257Z" transform="translate(108.95 108.89)"/><path class="cls-81" d="M112.83,230H-69.54A12.92,12.92,0,0,1-72,230c-1.72-.34-4.7,1.18-4.69-2s3-1.94,4.69-1.95Q20.4,226,112.83,226Z" transform="translate(108.95 108.89)"/><path class="cls-118" d="M-77,181c-.21-3.08,1.4-4.06,4.27-4,6.82.09,13.64,0,20.45,0H112.84v4Z" transform="translate(108.95 108.89)"/><path class="cls-119" d="M404,233c.33.67.67,1.33,1,2-72.27,1.6-144.55.84-216.83,1v-2C260.11,233.83,332.06,234.62,404,233Z" transform="translate(108.95 108.89)"/><path class="cls-68" d="M116.4,88.17c-14.49-.06-29-.16-43.47-.16Q1.45,88-70,88h-5.58c1.56-2.65,3.4-2,4.92-2Q21,86,112.75,86a9.83,9.83,0,0,1,5.31,1Z" transform="translate(108.95 108.89)"/><path class="cls-68" d="M-78.5,92.65h-8.4C-84.67,90.76-82.34,90.51-78.5,92.65Z" transform="translate(108.95 108.89)"/><path class="cls-52" d="M-84,5.94c1.94.47,5.18-1,5.42,1.94S-81.32,11-83.75,11s-5.83.16-5.65-3.15C-89.25,4.93-85.93,6.41-84,5.94Z" transform="translate(108.95 108.89)"/></svg>