<svg id="图层_1" data-name="图层 1" xmlns="http://www.w3.org/2000/svg" viewBox="0 0 500 500"><defs><style>.cls-1{fill:#fdfdfd;}.cls-2{fill:#20c5df;}.cls-3{fill:#949494;}.cls-4{fill:#dadada;}.cls-5{fill:#fefefe;}.cls-6{fill:#1bc5df;}.cls-7{fill:#12c2e3;}.cls-8{fill:#1bc7f6;}.cls-9{fill:#1bd0ec;}.cls-10{fill:#487379;}.cls-11{fill:#1e5f69;}.cls-12{fill:#1cc9f0;}.cls-13{fill:#16c4e2;}.cls-14{fill:#15c6e4;}</style></defs><title>传感器</title><path d="M304,401H-1a93.7,93.7,0,0,1-41.19-12.23Q-92.86,360-98,301.81c-.29-3.27,0-6.61-1-9.81V182a3.68,3.68,0,0,1,2.07-1A176.78,176.78,0,0,1-40,197.24a11.59,11.59,0,0,0,8.64.63c7.06-2,14.1-4.07,21.21-5.81A18.51,18.51,0,0,0,.66,184.68c7.42-9.85,14.5-19.94,22-29.72,4-5.2,4.32-5.3,9.56-1.69,7.14,4.91,14.09,10.08,21,15.29,5,3.74,5.55,3.66,8.11-2.22,6.24-14.37,12.58-28.69,18.87-43,1.74-4,3.73-7.82,5.42-11.81.7-1.63,1.15-3.88,3.43-3.76s2.57,2.43,3.16,4.06c5.56,15.53,12.19,30.64,17.62,46.21,2.36,6.77,5.35,13.3,7.75,20.05a11.09,11.09,0,0,0,5.18,5.84c8,4.82,15.79,9.95,23.83,14.69,5.42,3.2,5.92,3.18,9.25-2.39,6-10,11.8-20.13,17.64-30.22,2.68-4.61,5.71-9,8.18-13.74a12.75,12.75,0,0,1,8.45-6.5c6.58-1.82,13.08-3.91,19.65-5.81a9.08,9.08,0,0,0,6.64-6.71c6.86-22.64,14.79-44.95,21.66-67.59,1.18-3.87,1.71-8.21,5.36-10.94a1.65,1.65,0,0,1,1.29,1c1.08,2.91.67,5.93.71,8.92-.09,10.86,0,21.73,0,32.59q0,67.27,0,134.54-.1,79.14,0,158.28c0,1.51-.45,3.08.32,4.46-.31-21.89-.36-43.71,0-65.51.19-12.28-.76-24.57.18-36.84a19.19,19.19,0,0,0,.69-6.91c-.17-14.1.52-28.22-.66-42.32.83-2.76.65-5.6.65-8.42q0-81.58-.06-163.16a45,45,0,0,1,.18-7,4.07,4.07,0,0,1,1.18-2.27c2.86-.54,3.16,1.9,3.84,3.57,5,12.18,9.66,24.46,14.85,36.55,2.37,5.51,4.62,11.07,6.92,16.6,1.73,4.14,3.12,4.52,6.76,1.92,6.77-4.85,13.3-10,19.9-15.09,6.14-4.71,7.45-4.44,10.73,2.43q11.42,23.89,23.3,47.56c.6,1.19,1.14,2.41,1.81,3.57s1.14,3.07,2.9,3.1,2.21-1.83,2.83-3.12c5.79-12.18,11.22-24.53,17-36.73,3.9-8.28,7.38-16.76,11.45-25a12.32,12.32,0,0,1,1.78-3c9.08-9.72,17.61-20,27.69-28.71A1.29,1.29,0,0,1,401,66V304c-1.15,13.87-4.47,27.22-11,39.48-14.39,26.92-36.07,45.18-65.51,54C317.74,399.54,310.85,400.05,304,401Z" transform="translate(99 99)"/><path d="M7-99H245a4.12,4.12,0,0,1,.3,2.72c-.05,1,0,2,0,2.93.06,1.36.09,2.7.1,4.06,0,.61,0,1.2,0,1.81q0,59.94,0,119.86a58.86,58.86,0,0,1-.22,8c-7.45,12.28-10.1,26.35-14.49,39.74-5.61,17.1-10.9,34.29-16.46,51.41a9.11,9.11,0,0,1-6.85,6.5c-6.76,1.8-13.35,4.18-20.09,6.07a11.87,11.87,0,0,0-7.51,6.05c-7.89,13.91-16.21,27.57-24.19,41.42-3.26,5.66-5.13,6-10.82,3-6.9-3.74-13.2-8.44-20-12.25-3.47-1.93-5-5.2-6.3-8.69-7.83-21.62-16.28-43-24.31-64.55-.88-2.34-1.79-4.67-2.76-7-.4-.92-.84-2-1.92-2.13-1.45-.21-2,1-2.45,2.09-2.39,5.69-5.35,11.11-7.7,16.81-5.91,14.32-12.42,28.38-18.79,42.5-2.85,6.3-4.1,6.58-9.52,2.56-6-4.47-12-9-18-13.48-6.21-4.62-6.79-4.61-11.4,1.78-7.41,10.28-15.25,20.23-22.64,30.51a17.93,17.93,0,0,1-11.73,7.68c-5.89,1.14-11.62,3-17.38,4.66a13.6,13.6,0,0,1-9.69-.53c-7.66-3.26-15.47-6.19-23.23-9.2-10.32-4-21.5-4.44-32.21-6.87a18.62,18.62,0,0,1-2.44-.53A6.79,6.79,0,0,1-99,177V10c1.31-7.66.89-15.52,2.76-23.12Q-79.68-80.59-12.19-97C-5.89-98.56.64-97.94,7-99Z" transform="translate(99 99)"/><path d="M248-99h48c3.51,1.31,7.18.32,10.79.82,42,5.83,70.92,28.63,87.56,67.3,4.21,9.79,6,20.25,6.65,30.88V59a137.24,137.24,0,0,1-19.54,20.61c-10.13,8.62-16,19.72-21,31.6-5.58,13.17-12,26-17.72,39.07-.76,1.75-1.4,4.12-3.83,4.11s-3.12-2.23-4-4c-7.26-14.23-13.62-28.9-21.06-43-.85-1.61-1.62-3.28-2.47-4.9-2.82-5.41-3.81-5.68-8.6-2.17-5.1,3.75-10.12,7.58-15.18,11.37-1.47,1.1-2.91,2.22-4.4,3.29-5.25,3.79-6.64,3.42-9.12-2.51-6.79-16.27-13.51-32.58-19.95-49-2.07-5.28-4.63-10.3-7.16-15.36a8.8,8.8,0,0,1-.26-1.76c-.14-45.32,0-90.62-.08-135.93C246.76-92.77,245.83-96.12,248-99Z" transform="translate(99 99)"/><path class="cls-1" d="M248.16,49c5.88,7.69,8,17.09,11.72,25.77,5.59,13.11,10.89,26.34,16.21,39.56,1.05,2.61,1.88,3.23,4.39,1.25,7.42-5.89,15-11.51,22.63-17.2,4.91-3.69,6-3.36,8.75,2.26q12.58,25.68,25.2,51.32c.37.74.87,1.41,1.66,2.68,4-6,6.3-12.57,9.18-18.75,6.31-13.51,12.43-27.11,18.52-40.72,1.54-3.44,4.05-6,6.61-8.63,8.12-8.34,16.19-16.74,24.34-25A22,22,0,0,1,401,59v2c-1.22,1.55.13,3.56-.93,5.14-6.31,6.6-12.4,13.42-19,19.71a58.19,58.19,0,0,0-13.15,19c-8.27,18.62-16.95,37.06-25.46,55.58-.82,1.79-1.37,4.35-3.65,4.16-2-.16-2.83-2.52-3.72-4.31q-13.41-27.23-26.84-54.42c-.51-1-1.06-2-1.74-3.35-8.8,6.59-17.42,13-26,19.51-4.59,3.45-5.65,3.21-7.83-2.08Q260.73,91,248.86,62.05c-2.86-1.77-2-4.67-2.23-7.25C246.79,52.76,246.23,50.54,248.16,49Z" transform="translate(99 99)"/><path class="cls-2" d="M248-99l-.36,9a2.29,2.29,0,0,1-1.06.72,2.31,2.31,0,0,1-2.37-.72c0-1.32,0-2.64,0-4,1.5-.94.86-2,.15-3l.62-2Z" transform="translate(99 99)"/><path class="cls-3" d="M-99,177l1.12.18a4.67,4.67,0,0,1,.94,4.71L-99,182Z" transform="translate(99 99)"/><path class="cls-4" d="M400.07,66.14c.14-1.74-.73-3.67.93-5.14v5C400.69,66,400.38,66.08,400.07,66.14Z" transform="translate(99 99)"/><path class="cls-5" d="M-96.94,181.89c-1-1.43-.76-3.11-.94-4.71,15,1.81,30.13,3.58,43.81,10.41,12.38,6.18,24.22,7.63,37.59,2.6,7-2.63,12.62-5.16,16.93-11.55C7.5,168.17,15.56,158.38,23,148.14c2.36-3.26,4.15-4,7.58-1.23C38.21,153,46.3,158.61,54,164.64c2.39,1.86,3.06,1.31,4.15-1.16,9.09-20.63,18.31-41.22,27.51-61.81.79-1.78,1.23-4.27,3.73-4.07s2.74,2.68,3.43,4.47q14.07,37,28,74a8.44,8.44,0,0,0,3.68,4.49c7.79,4.79,15.66,9.45,23.34,14.42,4.28,2.78,4.86-1.34,6-3.19,7.57-12.51,15.22-25,22.12-37.88,3.71-6.94,8.33-11.57,16.25-12.8,2.93-.46,5.69-2.31,8.59-2.52,9.3-.66,12.24-6.63,14.66-14.6,7.7-25.32,16-50.44,24.3-75.58.75-2.27.67-5.44,4-6.24,1.44,1,1.32,2.45,1.16,3.91-1.15,2.89.29,6.31-1.8,9-8.65,26.49-17.38,53-25.87,79.49-1.15,3.62-2.95,5.47-6.56,6.48-8.47,2.36-18.34,3.18-24.8,8.25s-9.54,14.53-14,22.11c-5.51,9.29-11,18.59-16.38,28-1.91,3.33-3.47,4.37-7.25,1.81-8.51-5.78-17.41-11-26.26-16.25a12.82,12.82,0,0,1-5.89-7q-8.94-24-18.21-48c-2.84-7.31-6.08-14.46-8.75-23.22-6.41,14.39-12.26,27.5-18.09,40.61-3.31,7.44-6.74,14.83-9.84,22.35-1.53,3.73-3,4.51-6.44,1.82-8.12-6.35-16.59-12.23-24.7-18.59-2.43-1.9-3.35-1.35-4.94.83C16.76,165.19,8.2,176.44-.14,187.86a12.8,12.8,0,0,1-7.67,5c-8.54,2.18-17.07,4.4-25.53,6.84a6.2,6.2,0,0,1-4.63-.36c-5.2-2.21-10.6-4-15.69-6.38C-67.39,186.47-82.39,185.1-96.94,181.89Z" transform="translate(99 99)"/><path class="cls-6" d="M243.82,45.65l-.06-3.49c.11-11.79.29-23.58.32-35.37q.1-47.88.12-95.76c3,1.07,1.72,3.66,1.73,5.55.1,22,.07,44,.07,65.94V2.24c0,14.2.06,28.41,0,42.61q0-25.05,0-50.1,0-39.18,0-78.36c0-2.12-.52-4.36.89-6.29l.72-.09c.09,4.15.25,8.29.25,12.44q0,62.79,0,125.58c-.77,2.33-.18,4.72-.37,7.08.06,2.65-.2,5.31.47,7.93q-.19,57.95-.37,115.9c-.05,19.82,0,39.64,0,59.45,0,1.65-.26,3.29-.4,4.94-2.53-2.46-1.8-5.67-1.55-8.51.65-7.48.36-15,.37-22.44q.08-53.43,0-106.85,0,60.16-.07,120.33c0,2,1.3,4.77-1.71,6.09q-.06-50.31-.11-100.63c0-11.45,0-22.91.06-34.37a314.15,314.15,0,0,0,0-32.91l-.36-8.92A32.32,32.32,0,0,1,243.82,45.65Z" transform="translate(99 99)"/><path class="cls-7" d="M244.06,232c1.39-1.77.75-3.85.75-5.79q.06-60.91.07-121.85c0-1.86-.7-3.91,2.12-5.6V243.33c.7,16.3,1.06,32.61,0,48.92-1.06-.81-1.1-2-1.1-3.16q-.07-17.94,0-35.89a14.27,14.27,0,0,0,.26-2.57c-.29,17.73-.32,35.46-.23,53.2-.14,6.91,0,13.82.15,20.73a20.62,20.62,0,0,0-.2,3.76v43c.28,8.7-.6,17.42.49,26.11l.68.47c.67,1.14.44,1.92-.95,2-.78.06-1.77.18-2-.95a14.62,14.62,0,0,1-.11-2.48l-.09-163.07C243.9,232.94,244,232.45,244.06,232Z" transform="translate(99 99)"/><path class="cls-8" d="M245,304c.05-18.3-.13-36.61.12-54.9l1.87,0v43.13q.12,39.63.22,79.26c0,8.81-.12,17.61-.19,26.41l-.26.06c-2.44-.6-1.17-2.66-1.24-4-.36-6.8.37-13.62-.33-20.42L245,350.81a116.49,116.49,0,0,0-.06-23V325.1A95.6,95.6,0,0,0,245,304Z" transform="translate(99 99)"/><path class="cls-9" d="M244.16,64c1.77,3.46.84,7.17.75,10.72-.18,7.4,1.11,14.86-.74,22.19Z" transform="translate(99 99)"/><path class="cls-10" d="M243.82,45.65c0,3.16,0,6.31,0,9.47l-.34.05-.34-.09C243.3,51.93,242.66,48.72,243.82,45.65Z" transform="translate(99 99)"/><path class="cls-11" d="M248,63c-1.68-2.43-.74-5.15-.85-7.75.12-.61.38-.68.77-.18l1,6.94Z" transform="translate(99 99)"/><path class="cls-12" d="M246.92-89.9q0,42.48,0,85c-1.64,2,1.5,5.33-1.84,6.91L245-6a26.67,26.67,0,0,0,0-11q0-33.34-.05-66.69c0-1.77.6-3.68-.78-5.26,0-.34,0-.68,0-1Z" transform="translate(99 99)"/><path class="cls-13" d="M244.38-97c1.35.31,2.72.75,2.22,2.51-.37,1.31-1.41,1.07-2.37.53Z" transform="translate(99 99)"/><path class="cls-2" d="M247.87,55.11a3.45,3.45,0,0,0-.77.18c.17-2.42-.89-5,.75-7.26a2.76,2.76,0,0,1,.31.93C248.06,51,248,53.06,247.87,55.11Z" transform="translate(99 99)"/><path class="cls-12" d="M245.16,2c2.16-1.89-.26-5,1.84-6.91v50.8l-1.37,0C244.51,31.29,245.38,16.61,245.16,2Z" transform="translate(99 99)"/><path class="cls-13" d="M245-17a13.53,13.53,0,0,1,0,11Z" transform="translate(99 99)"/><path class="cls-14" d="M245,372c2.06,3.52.54,7.35.95,11,.57,5-1,10.08.91,15-3.5,1.07-1.77-1.9-1.79-2.74C244.94,387.49,245,379.73,245,372Z" transform="translate(99 99)"/><path class="cls-14" d="M245,328a56.59,56.59,0,0,1,0,23Q245,339.5,245,328Z" transform="translate(99 99)"/><path class="cls-14" d="M245,304a47.14,47.14,0,0,1,0,21Z" transform="translate(99 99)"/></svg>