<svg id="图层_1" data-name="图层 1" xmlns="http://www.w3.org/2000/svg" viewBox="0 0 500 500"><defs><style>.cls-1{fill:#f5f5f7;}.cls-2{fill:#e5e4e9;}.cls-3{fill:#f9f9fb;}.cls-4{fill:#f2f2f4;}.cls-5{fill:#edecf1;}.cls-6{fill:#efeff1;}.cls-7{fill:#eeedf3;}.cls-8{fill:#ebeaef;}.cls-9{fill:#e0dfe5;}.cls-10{fill:#b6b6c1;}.cls-11{fill:#e8e8e8;}.cls-12{fill:#dad9dc;}.cls-13{fill:#f4f4f5;}.cls-14{fill:#d7d8db;}.cls-15{fill:#cac9d3;}.cls-16{fill:#f6f6f8;}.cls-17{fill:#c2c0ce;}.cls-18{fill:#bbbac6;}.cls-19{fill:#ceced9;}.cls-20{fill:#d4d4de;}.cls-21{fill:#cfcfd4;}.cls-22{fill:#dadbe0;}.cls-23{fill:#e8e7ec;}.cls-24{fill:#bcbcc7;}.cls-25{fill:#eaeaea;}.cls-26{fill:#dadada;}.cls-27{fill:#e3e3e3;}.cls-28{fill:#f7f7f7;}.cls-29{fill:#e3e3e6;}.cls-30{fill:#efeef3;}.cls-31{fill:#f7f7f9;}.cls-32{fill:#f4f4f6;}.cls-33{fill:#030202;}.cls-34{fill:#e7e6eb;}.cls-35{fill:#e3e2ea;}.cls-36{fill:#e3e2e7;}.cls-37{fill:#fbfbfb;}.cls-38{fill:#fafafc;}.cls-39{fill:#e1e1e2;}.cls-40{fill:#d1d1d5;}.cls-41{fill:#f0f0f1;}.cls-42{fill:#f1f1f2;}.cls-43{fill:#eae9ee;}.cls-44{fill:#f7f7f8;}.cls-45{fill:#dcdcde;}.cls-46{fill:#dededf;}.cls-47{fill:#dbdcdd;}.cls-48{fill:#dbdbdc;}.cls-49{fill:#dedfe0;}.cls-50{fill:#dcdcdc;}.cls-51{fill:#d5d4db;}.cls-52{fill:#cbcbd0;}.cls-53{fill:#d0d0d5;}.cls-54{fill:#cfd0d5;}.cls-55{fill:#dddee1;}.cls-56{fill:#e3e4e4;}.cls-57{fill:#e0dfe1;}.cls-58{fill:#dddddf;}.cls-59{fill:#e1e0e8;}.cls-60{fill:#dddee3;}.cls-61{fill:#dfdee6;}.cls-62{fill:#bebec8;}.cls-63{fill:#c5c6ce;}.cls-64{fill:#afafbb;}.cls-65{fill:#b3b3bf;}.cls-66{fill:#b5b5c1;}.cls-67{fill:#fdfdfd;}.cls-68{fill:#eae9ec;}.cls-69{fill:#f0f0f4;}.cls-70{fill:#e4e4e8;}.cls-71{fill:#e7e7e9;}.cls-72{fill:#d3d3db;}.cls-73{fill:#dddfe3;}.cls-74{fill:#e1e1e6;}.cls-75{fill:#d0d1d6;}.cls-76{fill:#c3c3cd;}.cls-77{fill:#c5c5cf;}.cls-78{fill:#c0c0cc;}.cls-79{fill:#bfbfca;}.cls-80{fill:#b9b9c4;}.cls-81{fill:#cbcbd5;}.cls-82{fill:#cacad5;}.cls-83{fill:#cdcdd7;}.cls-84{fill:#c8c8d2;}.cls-85{fill:#d0d0da;}.cls-86{fill:#cfcfd9;}.cls-87{fill:#d1d1db;}.cls-88{fill:#d7d8dd;}.cls-89{fill:#c6c6d2;}.cls-90{fill:#dcdbe3;}.cls-91{fill:#c9c9d4;}.cls-92{fill:#dad9e1;}.cls-93{fill:#cfcdd8;}.cls-94{fill:#d0ced9;}.cls-95{fill:#c5c5d1;}.cls-96{fill:#d4d3de;}.cls-97{fill:#c7c7d3;}.cls-98{fill:#d7d5e0;}.cls-99{fill:#d9d8e0;}.cls-100{fill:#e6e6ea;}.cls-101{fill:#eae9f1;}.cls-102{fill:#6c41fa;}.cls-103{fill:#e0dee9;}.cls-104{fill:#ebeaf0;}.cls-105{fill:#f5f4fd;}.cls-106{fill:#efeef8;}.cls-107{fill:#e8e8f3;}.cls-108{fill:#eeedf6;}.cls-109{fill:#e7e6ef;}.cls-110{fill:#d6d5e0;}.cls-111{fill:#fefdfe;}.cls-112{fill:#b71cfe;}.cls-113{fill:#dddce0;}.cls-114{fill:#d8d8e5;}.cls-115{fill:#f9f8fc;}.cls-116{fill:#ecebf2;}.cls-117{fill:#fefefe;}.cls-118{fill:#dedeec;}.cls-119{fill:#e4e3e7;}.cls-120{fill:#fbfafd;}.cls-121{fill:#d3d3e0;}.cls-122{fill:#dedee6;}.cls-123{fill:#d4d4e1;}.cls-124{fill:#fdfcfe;}.cls-125{fill:#e3e3ee;}.cls-126{fill:#e4e2ee;}.cls-127{fill:#d7d7e2;}.cls-128{fill:#f9f9fa;}.cls-129{fill:#d5d5e2;}.cls-130{fill:#dfdfea;}.cls-131{fill:#e7e7f5;}.cls-132{fill:#e4e2ec;}.cls-133{fill:#e0e1e8;}.cls-134{fill:#e4e3ea;}.cls-135{fill:#dbdbe8;}.cls-136{fill:#d1d2de;}.cls-137{fill:#f1effa;}.cls-138{fill:#eae9ed;}.cls-139{fill:#eae9f2;}.cls-140{fill:#fbfbfd;}.cls-141{fill:#edecf0;}.cls-142{fill:#d3d3df;}.cls-143{fill:#dadae5;}.cls-144{fill:#e3e3e7;}.cls-145{fill:#f8f7fb;}.cls-146{fill:#d6d6e3;}.cls-147{fill:#eae8f1;}.cls-148{fill:#d6d3df;}.cls-149{fill:#fcfbfd;}.cls-150{fill:#f5f3fc;}.cls-151{fill:#e0e0ee;}.cls-152{fill:#f8f7fc;}.cls-153{fill:#e5e5f3;}.cls-154{fill:#4e5cfd;}.cls-155{fill:#9c11fd;}.cls-156{fill:#4961fb;}.cls-157{fill:#9814fd;}.cls-158{fill:#921afc;}.cls-159{fill:#8a22fd;}.cls-160{fill:#5654fc;}.cls-161{fill:#5d4ffd;}.cls-162{fill:#5556fb;}.cls-163{fill:#812afd;}.cls-164{fill:#7a32fc;}.cls-165{fill:#6448fb;}.cls-166{fill:#5d4efa;}.cls-167{fill:#6f3dfc;}.cls-168{fill:#6447fe;}.cls-169{fill:#6942fa;}.cls-170{fill:#ebeaec;}.cls-171{fill:#4e6ef7;}.cls-172{fill:#aa14fe;}.cls-173{fill:#7537f8;}.cls-174{fill:#f0f0f2;}.cls-175{fill:#cdccd5;}.cls-176{fill:#c8c8d1;}.cls-177{fill:#f5f4fc;}.cls-178{fill:#bbbbc7;}.cls-179{fill:#b8b8c4;}.cls-180{fill:#b9b9c5;}.cls-181{fill:#e2e2e4;}.cls-182{fill:#ecebf0;}.cls-183{fill:#dedee3;}.cls-184{fill:#d8d8dd;}.cls-185{fill:#cacad4;}.cls-186{fill:#d2d2d9;}.cls-187{fill:#ceced7;}.cls-188{fill:#c8c8d0;}.cls-189{fill:#c7c7d1;}.cls-190{fill:#dbdbe6;}.cls-191{fill:#d3d3dd;}.cls-192{fill:#f7f7fe;}.cls-193{fill:#ebebf6;}.cls-194{fill:#d5d6db;}.cls-195{fill:#f3f2fb;}.cls-196{fill:#f9f8fe;}.cls-197{fill:#e9e8f4;}.cls-198{fill:#d6d5dd;}.cls-199{fill:#6365fe;}.cls-200{fill:#9b27fb;}.cls-201{fill:#f0eff8;}.cls-202{fill:#dbdae2;}.cls-203{fill:#e6e5ea;}.cls-204{fill:#e2e1e9;}.cls-205{fill:#dddce4;}.cls-206{fill:#dedde5;}.cls-207{fill:#6a51fe;}.cls-208{fill:#bdbdc9;}</style></defs><title>触碰</title><path class="cls-1" d="M401-26v2c-4.58,1.39-9.16,2.89-13.15-1.39-8.47-8-18.71-9.26-29.65-7.85-1,.13-2.25.07-2.79.88-2.81,4.26-8.33,4.52-11.64,8.15-2,2.18-5.07,2-7.42.47s-4.64-1.58-7.12-1.64-4.67,0-7,0q-193.62,0-387.24,0c-8.08,0-16.28-.93-24.09,2.19a4.62,4.62,0,0,1-3.18-2.23,4.05,4.05,0,0,1-.4-1.94c3.25-3.64,8-2.92,12.12-4,2.52-.69,5.3-.22,8-.22q198.18,0,396.37,0c3,0,6.21.74,9.35-1.59-3-1.7-5.9-1.11-8.63-1.11q-197.44,0-394.88,0a71,71,0,0,1-8-.15c-5.33-.59-6.57-2.94-4.44-8.23,2-1.88,4.34-1.74,6.75-1.21,3,2.52,6.09,4.24,9.36.29A5.49,5.49,0,0,1-65-44.24a63,63,0,0,1,7-.17q33.47,0,66.94,0c111.39.14,222.78-.38,334.17-.18,12,0,24-.44,35.94.34a4.92,4.92,0,0,1,1.57.52c1.92,2.27,2.67,5.46,6.49,6.22,2.38.47,1.34,2.4-.17,3.76a7.91,7.91,0,0,1,7-2.34c3.37.47,3.9,3.13,4.84,5.64A18.48,18.48,0,0,0,401-26Z" transform="translate(99 99)"/><path class="cls-2" d="M401,85v37c-3-.64-2.38-3.17-2.46-5.09-.19-4.72-.19-9.45,0-14.16a49.3,49.3,0,0,0-.14-7c-.34-2.91-1.48-5.1-4.88-5.25-3-.14-4,1.31-4.08,4.23,0,2.17-2,3.16-3.86,3.26a324.58,324.58,0,0,1-37.43,0A4.41,4.41,0,0,1,344.42,95c-2.37-5.47-4.86-6-9.5-2.26a7.74,7.74,0,0,1-1.65,1.12c-2.91,1-5.93.7-8.91.7q-66.83,0-133.65,0c-3.31,0-6.68-.25-9.74,1.44-1.08.45-2.31.77-3.23-.11-3-2.83-5.93-5.54-9.81-7.13-.89-.37-.76-1.7-.44-2.69,4.57-5.15,7.09-11.72,11.63-16.91a6,6,0,0,1,3.21-.88q74.7.33,149.38-.09c3.24,0,5.58.6,6.52,3.92.64,2.28,2.26,3.15,4.41,3.38,3.46.37,5.16,2.33,5.93,5.71,1.29,5.65,2.94,7,8.54,7.14,6.33.19,12.66.21,19,0,5.35-.19,7.25-1.64,8.27-6.82.78-3.9,2.76-5.93,6.67-6,2.75-.07,4.23-1.33,4.73-4.09.39-2.18,1.51-3.78,4.18-2.72C401.46,74.06,399.52,79.64,401,85Z" transform="translate(99 99)"/><path class="cls-3" d="M-75-43h-7c-2.72,1.5-2.23-1.89-3.66-2.38a1.78,1.78,0,0,1-.49-1.85,5.58,5.58,0,0,1,.87-1.07c.48-.45,1.33-1,1.26-1.46-.71-4.63.23-7.65,5.89-7,1,.11,1.35-1.35,1.22-2.37-.46-3.74,1.47-5.1,4.88-5.09a5.93,5.93,0,0,0,4.42-1.87,4.74,4.74,0,0,1,1.19-.65c2-.74,4.38.21,6.13-1.49.25-.35.51-.69.73-1.06.73-2.15.58-4.67,2.69-6.22,1.78-.88,3.83-.66,5.65-1.41,3.4-1.36,6.46-1.45,8.51,2.26a4.64,4.64,0,0,1,.33,1.38c1,4.67,2.45,4.91,7.19,1.15,5.15-3,10.6-4.77,16.64-3.82a57.25,57.25,0,0,0,9,.46q166.59,0,333.18,0c6.91,0,13.89-2.13,20.77.7,2.14.88,4.41,1.42,6.42,2.66,2.47,1.53,4.46,1.14,5.58-1.71,1.61-4.08,4.57-5,8.46-3.67a10.91,10.91,0,0,0,9.6-.9c1.39-.83,2.85-1.07,4,.47,1.36,1.83-.2,2.66-1.34,3.56-1.31,1-2.88,2.11-2.33,4s2.65,1.82,4.2,2c3.72.5,6.68,4.19,10.86,2.53,3.9-1.51,4.72,2,6.5,4,.82,1.38,1.66,2.75,2.56,4.1,1.14,1.37,1.27,3.2,2.13,4.71v21c-3.41.11-4.11-2.54-4.22-4.89-.18-4.08-2.4-4.71-5.81-4.72s-6.91.93-10-1.39h0a5.1,5.1,0,0,1-1.23-2.49c-.35-3-.1-5.74,3.58-6.84a12.38,12.38,0,0,0-6.41.37c-5,1.89-8.56,0-11.2-3.93-2.45-3.6-5.59-4.9-9.76-4.63-2.76.18-4.87-1.32-7.25-2.69-5.57-3.22-10.94-7.63-18.28-5.56-2.54.72-5.3.32-8,.32H-8.36c-2.16,0-4.42.37-6.47-.17-8-2.14-14.08,1.75-20.07,6-1.4,1-2.88,2-4.54,1.86-7-.49-13.85,2.14-20.85.42-1-.25-2.74-1-3.07,1.15,1.83,1.29,3.89.72,5.82.72,17.06.06,34.12,0,51.19,0a23.42,23.42,0,0,1,4.95.23c1.78.39,3.29,1.05,2.07,3.34-2.07,2.54-5,2.31-7.8,2.32-20.6,0-41.19,0-62.21,0,3.49,1.46,4,4.06,3.57,7.11A5,5,0,0,1-67-43h0A6.3,6.3,0,0,1-75-43Z" transform="translate(99 99)"/><path class="cls-4" d="M401-18v3a52.9,52.9,0,0,1-12.84,1.62c-2.36,0-4.21.42-4.43,3.43S381-5.84,378.41-5.69a189.81,189.81,0,0,1-24,0c-2.62-.17-5-1.26-5.19-4.39-.17-2.73-1.91-2.89-4-3.34-13.45-2.89-27.07-2-40.64-2q-188.44,0-376.89,0c-4.82,0-9.67-.43-14.37,1.24-1,.37-2.36.65-2.78-1.05,2-5.81,3.48-7,9.19-7.18,2.33-.07,4.66,0,7,0H324.31c3.49,0,7,.22,10.43-.58a5.33,5.33,0,0,1,1.78.26c2.4,2.45,4.64,3.25,7.41.19,1.6-1.77,4.21-1.78,6.58-1.79q15.94,0,31.91,0c2.19,0,4.45.07,6.2,1.47,2.63,2.11,4.73,3.2,8.3,1C400.29-24,399.71-19.47,401-18Z" transform="translate(99 99)"/><path class="cls-5" d="M401,31v3c-2.86,0-3.63-2.55-5.14-4.19-2.71-2.93-5-2.73-7,.68s-5,6.58-6.07,10.76c-.61,2.36-3,3-5.23,3.11q-11,.36-22,0c-2.48-.08-4.88-.91-5.5-3.5-1-4.07-3.88-6.9-5.85-10.32s-4.12-3.86-6.66-1.12c-3,3.27-6.62,4.09-10.78,4.09q-68.65,0-137.32,0c-3.36,0-6.71,0-9.22-2.84a5.73,5.73,0,0,1-.63-.77c-3.79-6.38-2.81-8.3,4.53-8.35,16.32-.11,32.64,0,49,0q44.72,0,89.44,0c4.65,0,8.79-.31,11.91-4.61,2.24-3.08,5.93-2.71,9.23-1.75,2.94.86,4.68,2.66,4.68,6.17,0,3,2.47,4.15,5.22,4.2,8.65.15,17.32.19,26,0,3-.07,4.87-1.46,5.24-4.8.44-4.06,3-5.93,7.63-6.08,4.39-.13,6.48,1.48,7.65,5.54C401.1,23.74,399.7,27.48,401,31Z" transform="translate(99 99)"/><path class="cls-4" d="M-89-15c5.51-2.67,11.41-2,17.22-2q198.71,0,397.4-.28c8.13,0,15.55,3.68,23.67,2.46,2-.3,3.56,1.43,1.82,3.66-2.34,3,.36,3.85,2,3.9q13.23.39,26.47,0c1.82,0,4.84-.8,2.14-4.12-1.51-1.86-.2-3.31,1.72-3.53,5-.59,10.21.7,15.08-1.65.47-.23,1.62,1,2.46,1.5v4A30.34,30.34,0,0,1,392-8.46c-3.27.27-5.65,1.85-6.09,5.45s-2.78,5.18-6.14,5.26c-9,.22-17.92.24-26.88,0-2.5-.07-5-1.12-5.28-3.69-.55-5.64-4.08-7.09-8.83-7.39a6.23,6.23,0,0,1-1.91-.55,11.29,11.29,0,0,1-2.24-1.45c-1.86-1.06-3.9-.73-5.88-.73H-78.16a21.22,21.22,0,0,0-6,.39c-.54.29-1.09.55-1.64.81A4.48,4.48,0,0,1-90-10.79a3.25,3.25,0,0,1-.45-3.93A1,1,0,0,1-89-15Z" transform="translate(99 99)"/><path class="cls-6" d="M337-10c3.46,0,7.07-.54,9.84,2.36,1,1.06,2.45,2,2,3.76C347.58.42,350.28,1,353.42,1c8.81.05,17.63.08,26.45,0,2.85,0,5.08-.52,4.5-4.64-.53-3.84,2.87-5.44,5.95-6.12s6.37.37,8.8-2.46A19.63,19.63,0,0,1,401-11V13a3.45,3.45,0,0,1-1.26.72,3.65,3.65,0,0,1-2.13-.36c-3.24-1.94-6.32-1.24-9.35.58a6.28,6.28,0,0,1-1.64.37c-12.23.2-24.45.79-36.65-.32-2.33-1.05-3.74-3.12-5.18-5-2.28-3-1.74-4,2.4-4.72,1.37.4,1.74,2.38,3.77,2.25a13.32,13.32,0,0,1-3.47-2.61C342.33,2.39,337,2.54,331.77,2.55c-55.07.13-110.13-.09-165.2,0a67.4,67.4,0,0,0-10.44.31A7.77,7.77,0,0,1,149.52.56c-1-1.44-2.68-2.67-1.53-4.8,2.79-2.94,6.46-2.3,9.88-2.3q73.5-.08,147,0c5.5,0,11,0,16.49,0C327-6.64,332.71-6.69,338.9-4,337.5-6.37,335.17-7.74,337-10Z" transform="translate(99 99)"/><path class="cls-7" d="M398,13h2c1.2,1.49-.24,3.52,1,5V31c-2-2.34-.69-5.12-1-7.68-.78-6.69-7.3-9.8-12.67-5.92-.88.63-2.15,1.22-1.57,2.73,2,5.06-2.12,6.51-5.17,6.68a278.52,278.52,0,0,1-28.46,0c-3-.15-6.55-2-5-6.47.66-1.91-.72-2.39-1.71-3.07a7.92,7.92,0,0,0-11.31,2.53c-1.89,3.08-4.75,3.21-7.82,3.21q-50.22,0-100.44,0H185.39c-8.57,0-8.22-.71-4.38,7,1.41,2,2.86,4,3.32,6.53,1.73,5.3.88,10.76,1.09,16.16a25.08,25.08,0,0,1-.86,8.36c-.93,2.76-.54,6.11-3.53,8a2.06,2.06,0,0,1-2,1c-1.56-4.07,1.18-7.39,1.9-11.07a10.65,10.65,0,0,0,.7-5.15,61.27,61.27,0,0,0-9.76-34.25c-1-1.5-2.41-2.79-2.26-4.83A3.73,3.73,0,0,1,171.93,12a17.25,17.25,0,0,1,5.93-.64q77.63,0,155.26,0a18.94,18.94,0,0,1,2,.1c2.72.24,5.46,0,8.17.28a6.48,6.48,0,0,1,1.62.44c3,1.95,5.62,4.16,6.07,8,.29,2.49,1.84,3.36,4.08,3.39q11.42.18,22.83,0c2.2,0,3.92-.78,4.12-3.32.3-3.84,3-5.69,6-7.27h1A9.56,9.56,0,0,1,398,13Z" transform="translate(99 99)"/><path class="cls-8" d="M183,36l-2-6a9.71,9.71,0,0,0,6.44,2q70.65-.1,141.29,0c3.28,0,6.08-.33,7.6-4.14,1.28-3.23,4.65-1.75,7.13-1.71,2.26,0,2.35,1.66,1.89,3.6-.35,1.49,1.2,2.26,2.1,3.17,1.29,1.32,3.06,2.66,3.06,4.43,0,6,3.79,5.83,8.07,5.7,6.32-.19,12.65-.11,19,0,2.76,0,4.47-.72,4.49-3.88,0-2.48,1.57-4.27,3.24-6,.91-.92,2.37-2.12,2.27-3.07-.23-2.31-.29-4.15,2.61-4,2.58.1,5.71-1.29,7,2.8.62,1.92,2.49,3.43,3.79,5.13V61l-.84.24a2.83,2.83,0,0,1-1.07-1.34c-.87-3.45-.42-7-.51-10.46-.25-3.16,0-6.32-.24-9.48s-2.15-4.28-5-4.28c-2.67,0-5.09.45-5.53,3.73-.75,5.55-4.2,10.51-3.48,16.41a3,3,0,0,1-1.77,3.32c-1.63.56-2.38-.9-3-2-1.21-2.36-3.36-2.48-5.55-2.52-4.16-.08-8.32,0-12.48,0-3.48,0-7-.39-9,3.72-.87,1.83-2.45,1.29-3.34-.46a5.83,5.83,0,0,1-.65-3.4c.86-5.77-3-10.43-3.64-15.88-.35-3-3.32-3.12-5.62-2.81-29.67,4-59.47,1-89.21,1.74-19.8.46-39.62.1-59.43.07C188,37.51,185.28,37.93,183,36Z" transform="translate(99 99)"/><path class="cls-9" d="M400,102c.62,6.65-1.27,13.43,1,20v42a1.51,1.51,0,0,1-1.54-.63c-1.73-4.53-.66-9.23-.88-13.85.15-4.79-.22-9.61.1-14.38.28-4.06-1.81-7.34-2.94-10.9a2.53,2.53,0,0,0-4.84.23c-1.5,5.68-6,5.89-10.4,6.77-9.05.12-18.11.87-27.13-.42a7.24,7.24,0,0,1-1.39-.7,9.65,9.65,0,0,0-3.92-2c-2.29-.41-5.09-.62-2.12-4.16,1-1.23-1.39-1.15-2-1.94a12.47,12.47,0,0,1-1.24-.8c-2.62-1.93-7.07.06-8.67-4.06-.65-6.73-.39-13.33,2.72-19.53,6.4-2,8.22-.83,8.67,5.68.05.66.06,1.33.11,2,.76,9.53,2.92,11.93,12.46,12.05,8.42.11,16.91,1.09,25.25-1.61,2.85-.93,4.13-2.25,4.46-5.07.31-2.64.72-5.26.84-7.93s.19-5.21,3.42-5.86,5.61.21,6.83,3.46A5.28,5.28,0,0,0,400,102Z" transform="translate(99 99)"/><path class="cls-10" d="M338,401H-30a1.16,1.16,0,0,1,.49-1.61,7.62,7.62,0,0,1,2.77-.84c2.83-.27,5.66-.18,8.49-.18H327.12a57.32,57.32,0,0,1,8.49.26,6.63,6.63,0,0,1,1.86.69A1.23,1.23,0,0,1,338,401Z" transform="translate(99 99)"/><path class="cls-11" d="M-12-99H326a1.13,1.13,0,0,1-.46,1.58c-3,1.46-6.2.65-9.31.84q-158.25,0-316.49,0c-3.75-.28-7.6.77-11.26-.82A1.15,1.15,0,0,1-12-99Z" transform="translate(99 99)"/><path class="cls-12" d="M-99-19c2-3.41.35-7.8,3-11,1.72,1.82,1.3,4,1,6.12-1.53,7.44-1.69,15-1.58,22.54q0,55.1,0,110.19c.18,13.31-.1,26.61,0,39.92q.12,8.15,0,16.3c0,11,.11,22.08,0,33.12,0,2.13.26,4.31-.84,6.3A1.2,1.2,0,0,1-99,205Z" transform="translate(99 99)"/><path class="cls-13" d="M401-18c-1.59-1.72-2.53-5.6-5.63-1.11-1.27,1.85-3.72,1.67-5-.44-1.72-2.77-4.18-3.48-7.17-3.46q-16.67,0-33.32,0c-2.6,0-4.83.52-6.65,2.61-3,3.44-4,3.14-6.2-1.59,8.07-4.09,16.61-5.17,25.58-4.64,6.75.39,13.55,0,20.32.09,2.15,0,4.34,0,6.1,1.55,3.82,2.49,8.09-.41,12,1Z" transform="translate(99 99)"/><path class="cls-14" d="M-99,205h1c2.2,2.49,1.1,5.54,1.43,8.35,0,16.48.07,33,0,49.44q-.06,29.29,0,58.57c0,2.13-.37,4.33.84,6.3a10,10,0,0,1,1.43,2.26c.59,4.39,3.45,8.82-.19,13.15a1.42,1.42,0,0,1-1.61,0c-2.17-3-1-7-2.9-10.06Z" transform="translate(99 99)"/><path class="cls-15" d="M401,368c-2.93,1.87-3.57,5.45-5.78,7.8-1.19,1.26-2,3.15-4.11,3.35-2.69-1.36-1.46-3.12-.61-5,2.1-4.63,4.77-9,5.86-14.07-.88-4.29,2.38-7.76,2.27-12-.12-4.76-.1-9.53-.07-14.3.08-2.05-.07-4.1,0-6.15.1-4.58-.33-9.16,0-13.73,0-6.3,0-12.59-.06-18.88a10.4,10.4,0,0,1,.89-5.33A1.6,1.6,0,0,1,401,289Z" transform="translate(99 99)"/><path class="cls-16" d="M381-43c3.81,0,7.63.25,11.41-.07,4.19-.35,6.36.76,5.62,5.38A5,5,0,0,0,401-32v6c-1.94-1.29-3.62-2.63-4.06-5.25-.63-3.76-4.49-5.14-7.65-2.92-.66.46-1.07,1.32-1.75,1.7a3.61,3.61,0,0,1-3.75,0,1.41,1.41,0,0,1-.48-1.25c.34-1.59,1.77-1.07,2.82-1.33a20,20,0,0,0,2.23-1C384-37,379.5-37.4,381-43Z" transform="translate(99 99)"/><path class="cls-17" d="M-53,401c0-1.46-1-1.86-2.24-1.95-3.12-.21-5-1.95-5.86-4.9-.32-.94.23-1.44,1-1.86,3.28-1.27,5.76,1.37,8.69,1.79,3.85,1.46,6.94,4.66,11.3,5a3.5,3.5,0,0,1,1.24.68A1,1,0,0,1-39,401Z" transform="translate(99 99)"/><path class="cls-18" d="M338,401v-1c.23-.24.47-.62.74-.62,8.27.05,15.37-3.91,22.83-6.64a7.77,7.77,0,0,1,3.81.54c.79.55,1.24,1.43.27,1.92-2.4,1.23-3.82,3.65-6.19,4.87-.73.55-1.8.19-2.46.93Z" transform="translate(99 99)"/><path class="cls-19" d="M401,289h-1l-.64-.69c-1.54-8.64-.51-17.36-.89-26,.26-3,.09-6,.13-9,.21-4.42-.35-8.84.19-13.25a4.81,4.81,0,0,1,.67-1.64A1.12,1.12,0,0,1,401,238Z" transform="translate(99 99)"/><path class="cls-20" d="M401,238h-1c-2.25-2.64-1.24-5.83-1.49-8.81.25-2.1-.13-4.22,0-6.32.09-3.33-.09-6.66,0-10,.45-6.46-.75-13,.89-19.4A1.14,1.14,0,0,1,401,193Z" transform="translate(99 99)"/><path class="cls-21" d="M357,401a2.08,2.08,0,0,1,2-1c5.42-1.94,10.05-5.45,15.33-7.68,1,.16,2,.32,1.71,1.76-1.68,3.47-6.23,3.61-8,6.93Z" transform="translate(99 99)"/><path class="cls-22" d="M401,193h-1a3.53,3.53,0,0,1-1-1.5c-.89-6-.31-12-.39-18.06.08-2.94-.46-5.95.79-8.79.21-.22.41-.44.62-.65h1Z" transform="translate(99 99)"/><path class="cls-23" d="M400,61h1V85c-2.12-5.22-.46-10.68-1-16C398.15,66.33,398,63.67,400,61Z" transform="translate(99 99)"/><path class="cls-24" d="M-39,401v-1a7.28,7.28,0,0,1,9,0v1Z" transform="translate(99 99)"/><path class="cls-25" d="M335-99l2,2c-.87.69-2,.51-3,1a5,5,0,0,1-3.84-.54,1.37,1.37,0,0,1-.48-1.37c1.2-1.22,3,.08,4.25-1.08Z" transform="translate(99 99)"/><path class="cls-26" d="M334-99c-1.05,1.48-2.66.84-4,1-1.33,1-2.65,1.16-4,0v-1Z" transform="translate(99 99)"/><path class="cls-27" d="M-20-99h1c.59.75,1.92.24,2.31,1.35a1.53,1.53,0,0,1-.68,1.23,5.41,5.41,0,0,1-2.19.62c-1.77-.12-3.8.37-4.66-1.94C-23.16-99.32-21.16-97.76-20-99Z" transform="translate(99 99)"/><path class="cls-26" d="M-16.94-97.95A2.26,2.26,0,0,1-19-99h7v1C-13.63-96.52-15.28-96.69-16.94-97.95Z" transform="translate(99 99)"/><path class="cls-28" d="M-20-99c-1.06,1.46-2.63.87-4,1-.29.64-.74,1.15-1.47,1.07C-26-97-26.2-97.47-26-98c0-.33,0-.66,0-1Z" transform="translate(99 99)"/><path class="cls-29" d="M399-58l2,2v3l-2.94-4.06A1.69,1.69,0,0,1,399-58Z" transform="translate(99 99)"/><path class="cls-30" d="M401,18c-1.67-1.4-.76-3.32-1-5h1Z" transform="translate(99 99)"/><path class="cls-31" d="M-96-24l0-6,0,0c.87-2.29,1.23-4.73,2-7l0,0a59.47,59.47,0,0,1,3-8l0,.05c1.75-2.66,1.53-6.72,5.56-7.75C-81.38-51.14-83.89-49-85-47h-1c-.46,1.13-.27,1.6,1,1,2.59-.59.67,3.33,3,3-1.71,6.52-1.33,7,5.66,7H333.05c1.41,0,2.68.15,2.89,2a3.06,3.06,0,0,1-2.08,3.53c-1.93.79-3.95.46-5.92.46Q125.49-30-77-30c-3.49,0-7-.41-9.93,2.27-1.17,1.08-2.33.39-3.65-.18-2.15-.93-1.16,1.1-1.46,1.91-1.81,3.24,1.27,6.91-.9,10.12a2.89,2.89,0,0,1-3-.76A11.44,11.44,0,0,1-96-24Z" transform="translate(99 99)"/><path class="cls-16" d="M-67-43v-2c2.74-2.24,6-1.58,9.13-1.59q112.16,0,224.31,0c2.33,0,4.66.09,7-.13,1.49-.15,3.13-.23,4.07-1.57,3.84-5.49,9.76-6.18,15.54-6.2q82.94-.23,165.86,0c6.1,0,12.25,1,16.46,6.49,1.35,1.76,4.09,1.38,5.64,3v2Z" transform="translate(99 99)"/><path class="cls-32" d="M-93-16c.18-1.83-.56-3.52-.8-5.28S-95-25.37-92-26h0c.68.65.62,2.05,2,2,9.7-5.44,20.27-2.87,30.42-2.88q194-.27,387.9-.12c3.13,0,6,0,8.88,2.21,2.09,1.63,4.52,1.09,7.09-1.68,3.41-3.66,8.18-7.13,12.92-8.19C363.4-36,370.13-35,376.63-35a2.09,2.09,0,0,1,.5,0,14.35,14.35,0,0,1,2.7.72c-.62,6.79,9.37,3,9.17,9.27-11.64,0-23.28,0-34.92,0-4,0-8.2-.83-11.76,2.5-1,1-3.51.36-5.32.48h-1c-3.26-1-6.53.06-9.79.06Q124.64-22-76.93-22.13c-6.13,0-10.74,1-13.07,7.13v4l-.65.39C-94-11.28-93.06-13.83-93-16Z" transform="translate(99 99)"/><path class="cls-31" d="M-75-43h8c.26,3.37-2.11,3-4.24,3S-75.26-40.11-75-43Z" transform="translate(99 99)"/><path class="cls-31" d="M-90-24c-.2.68-.21,1.9-1.25,1.37-1.33-.68-.55-2.22-.75-3.37A3.46,3.46,0,0,1-90-24Z" transform="translate(99 99)"/><path class="cls-33" d="M168.18,86.07c.11.58.08,1.62.32,1.68C173.19,89,176,92.61,179.05,96c2,.86,2.85,2.77,3.5,4.58,1.18,3.27,3,3.91,6,2.2a19.87,19.87,0,0,1,4.11-1.7,24.76,24.76,0,0,1,6-.36c3.17.14,5.76,1.8,8.44,3.25a20.77,20.77,0,0,1,6.84,6.41c1,1.84,1.94,3.75,2.86,5.65,1.39,2.86,3.26,4,6.17,1.93a9.21,9.21,0,0,1,4.34-1.22c9.1-1.06,16.25,2.21,21.53,9.67a41.06,41.06,0,0,1,3.7,7.67,23.35,23.35,0,0,1,1.8,8.74c.05,29,.33,58.09-.12,87.13a19.45,19.45,0,0,0-.82,6c.27,5.86-1.57,11.46-2.11,17.22a9.13,9.13,0,0,1-.29,1.56,38.59,38.59,0,0,0-1.11,5.23,76.91,76.91,0,0,1-7.72,19.21c-2.05,2.52-3.7,5.32-5.49,8-1.76,2.1-4,3.66-6,5.47-1.24,1-2.3,2.2-3.52,3.22-6,3.69-12.14,7-19.16,8.33a21.71,21.71,0,0,0-5,1.35c-3.89,1.44-8.11.1-12,1.44a9.63,9.63,0,0,1-1.69.29c-11.13.2-22.27.54-33.22-2-2.2-.89-4.6-1-6.83-1.76a15.59,15.59,0,0,1-2.09-.71c-1.46-.69-2.9-1.43-4.37-2.12-3-1.5-5.82-3.41-8.8-5-1.29-.88-2.38-2-3.72-2.84-2.7-1.63-4.63-4.12-6.88-6.25a13.33,13.33,0,0,1-4.44-4.49,59.3,59.3,0,0,0-9.51-11.67c-3-4.73-6.58-9.08-10-13.53a43.63,43.63,0,0,0-4.91-5.35c-.48-.48-.93-1-1.38-1.5-5-4.5-7.58-10.89-12.48-15.44-.81-1.31-1.62-2.63-2.48-3.91a16,16,0,0,0-4-4.13c-1.58-1.83-2.33-4.2-3.93-6s-2.88-3.44-4.39-5.1c-3.56-4.79-7.67-9.11-11.47-13.7-2-2.37-2.74-5.29-4.29-7.82-1.37-2.44-2.63-4.9-2.42-7.82,0-.52,0-1,0-1.55,0-2.6,0-5.2,0-7.81,0-.51,0-1,.06-1.55a12.36,12.36,0,0,1,.41-2.25c1.37-4.42,2.14-9.07,4.79-13,1.11-1.55,2.16-3.15,3.21-4.75A11.39,11.39,0,0,1,60,151.64c7.75-4.35,15.65-5.68,23.82-1.14A38,38,0,0,1,88.4,154a9.16,9.16,0,0,1,1.46,1.46c1.4,1.72,2.73,3.49,4.07,5.26,3.37,3.18,5.41,7.48,8.93,10.52,1.85,1.59.26-.79.8-.7,0-.3,0-.6,0-.91,0-2,0-4,0-6.05,0-1.14,0-2.28,0-3.42q0-14.53,0-29.05c.15-10.59-.22-21.18.18-31.76-.11-5.89,0-11.79-.08-17.7,0-4.29-.22-8.59.14-12.89.18-6.12-.66-12.26.94-18.36a31.23,31.23,0,0,1,10.67-17c9.71-7.83,24.13-4.62,31,6.63,4.89,8,5.25,16.67,4.88,25.58a33,33,0,0,0-.26,5c.54,4.2.21,8.42.46,12.62-.18,2-.69,4.6,2.65,3.54A25.7,25.7,0,0,1,168.18,86.07Z" transform="translate(99 99)"/><path d="M168.18,86.07c-.68.44-1.68,1.43-2,1.24-4.4-2.57-8.38-.13-12.43.94-1.4.37-2.5.71-3.48-.72s-.71-2.4.73-3.2c1-3.78,5-4.89,7-7.83a26.62,26.62,0,0,0,3.3-4A34.14,34.14,0,0,0,165,66.2a19.18,19.18,0,0,0,1.73-6.65c.25-2.2.88-4.31,1.34-6.46,1.26-11.05-2.52-20.47-9.28-28.94a52.78,52.78,0,0,0-5.33-5.35,45.53,45.53,0,0,0-5-3.32c-2.35-2-5.38-2.34-8.12-3.4a13.67,13.67,0,0,0-4.82-.84c-2.88-.36-5.72-1.15-8.66-.89a13.88,13.88,0,0,0-4.57,1.17c-1.68.54-3.42-.44-5.1.22-.4.14-.81.26-1.22.38a27.63,27.63,0,0,0-5.88,2.62,20.89,20.89,0,0,0-6.16,4.09c-1.78,1.89-4.12,3.21-5.54,5.47A19.82,19.82,0,0,0,94,30.64c-1.2,2.4-2.56,4.73-3,7.46a9.41,9.41,0,0,1-.36,1.36,15.62,15.62,0,0,0-1.32,6.28c0,2.53,0,5.06,0,7.58.39,10.31,5.26,18.45,12.35,25.5,1.1,1.2,2.52,2.1,3.36,3.54l-.26,15.72a2.11,2.11,0,0,1-2,.43C98,97.12,94.91,93,90.74,90.61c-2.61-2.29-4.31-5.32-6.45-8-1.16-1.44-2.22-3-3.27-4.48a86.61,86.61,0,0,1-5.09-9.74c-1.23-3.88-2.42-7.77-2.31-11.91s0-8.46,0-12.69c-.18-7.18,3.29-13.27,5.89-19.62.82-1.47,1.87-2.79,2.72-4.24a16.1,16.1,0,0,1,5.35-6.73c3.75-3.34,6.65-7.62,11.18-10.1a88.3,88.3,0,0,1,7.9-4.4c11.18-4.65,22.7-5.19,34.43-2.8A19.09,19.09,0,0,1,150,0a10.32,10.32,0,0,0,4.59,2.17c3.65.52,6.14,3.09,9,5.06,2.56,2.28,6.15,3.67,6.61,7.74,9.09,11.24,12.44,24.37,12.72,38.52-.83,1.76,0,3.76-.79,5.51l-3.05,11c-2.56,5.26-5.85,10.08-9,15A2,2,0,0,1,168.18,86.07Z" transform="translate(99 99)"/><path class="cls-34" d="M400,61v8c-2.53-.22-3.29,1.21-3,3.39.56,3.9-1.28,5.11-4.87,4.62-4.3-.6-6.42.74-6.3,5.66.12,4.45-3.19,7.21-7.84,7.29q-11.49.21-23,0c-4.85-.09-7.94-2.9-7.89-7.77,0-4.4-1.86-5.67-5.75-5.18-3.1.38-4.58-.64-4.49-4.07.06-2.29-.84-4.25-4.07-3.14-1.5.51-3.3.19-5,.19q-70,0-140,0c-2.31,0-4.69.35-6.81-1,.67-2.67,1.33-5.34,2-8,2.18-1.56,4.68-1.55,7.2-1.55q73.23,0,146.46,0c4.75,0,8.31.67,9.59,6.32.61,2.71,3.11,5,3.83,8,.47,2,2.28,2.19,4.06,2.07a218.61,218.61,0,0,1,25.47,0c1.6.08,3.25-.1,3.49-2,.38-3.14,2.39-5.39,3.72-8C390.23,59,393.24,57.83,400,61Z" transform="translate(99 99)"/><path class="cls-35" d="M192.25,102.14c-8,4.12-8,4.12-12.14-4-.37-.73-.71-1.47-1.06-2.21,1.6-3,4.31-3,7.25-3Q260.15,93,334,93c3.94.58,3,3.18,2.36,5.67-2.26,6.94-7.2,9-14.24,9-31.8-.22-63.6-.09-95.4-.11-4.5,0-9,0-13.47.43-2.49-.16-3.92-2.54-6.29-3-2.63-1.07-5-2.74-8-3-2.11-1-4.34-.3-6.52-.45-.65,0-1,.24-.33.16A3.6,3.6,0,0,1,192.25,102.14Z" transform="translate(99 99)"/><path class="cls-36" d="M336,98c0-1.93.33-4-2-5,.58-5.53,4.82-4,8-3.89,2.89.07,4.55,1.42,3.62,4.9-.7,2.65,1.85,2.89,3.48,2.91,11.95.11,23.9.15,35.85,0,2.25,0,5.12-.6,2.56-4.19-1-1.42,0-2.39,1.35-3.1,5.4-2.85,10.64-.12,11.1,5.92.17,2.14,0,4.31,0,6.47-1.76-.06-2.49-1.16-3.17-2.66-1-2.24-3.17-1.27-4.86-1.22-2.16.07-1.92,1.86-2,3.34s0,2.66,0,4c-.33,10.08-3.42,13.26-13.56,13.53-6.63.17-13.27,0-19.91,0-3.5,0-6.37-2.54-9.94-2.46-1,0-1.41-1.27-1.53-2.32-.35-3.11-.93-6.21-1-9.33-.17-7.41.86-6.86-7.05-6.89C336.67,98.48,336.33,98.48,336,98Z" transform="translate(99 99)"/><path class="cls-37" d="M-26-98c.66,1.12,1.33.12,2,0,1.4,1.7,3.34.74,5,1,11.82,2.06,23.75,1.56,35.66,1.56q150.21,0,300.42,0c3.29,0,6.59-.4,9.82,1.1,3,1.4,4.71-1.76,7.08-2.68l3,0,2.54-.28c-.48,2.19-2.78.49-3.51,1.92,3.12,1.3,6-.68,9-.61,2.26.87,4.68,1.16,6.94,2l0,0c1.64.77,3.65.64,5,2l0,0c3.75.68,6.75,3,10,4.65a96.62,96.62,0,0,1,22.07,17.09c.69,1.39,2.3,2.37,1.92,4.24a4.15,4.15,0,0,0-.58,3.61c-5.5-1.12-9.58-5.25-15.22-4.64-1.86.2-2.75-1.32-2.94-2.81-.31-2.56,1.26-4.29,3.17-5.81.82-.65,3.51.56,2.41-1.69s-2.52.11-3.44.76c-3.22,2.27-6.47,2.2-9.84.65s-5.92-2.1-6.68,2.91c-.64,4.27-4.12,5.1-7.8,2.71-5.31-3.43-11.07-5.45-17.59-4a23.39,23.39,0,0,1-5,.36Q157-74-13.59-74c-5.32,0-10.53-1.62-16,.74A55.94,55.94,0,0,0-36-70c-5.45,1.46-6.46,1-7-3v-1c-2.15-4.07-3.56-4.42-8-2-1.75,1.81-4,.68-6,1-2.38,1.84-.84,4.81-2,7h0c-1.91,2.15-4.79.9-7,2h-1c-2.07.85-4.37.1-6.54,1.64s-3-.54-3.2-2.61C-76-69-73.95-70.13-73-72L-71-73.95c2.26-1.39,3.78-3.65,6-5.06l0,0c1.45-.92,2.7-2.08,4-3.12l.89-.9c3-.92,5.35-3,8.06-4.43A54.55,54.55,0,0,1-43-92C-37.7-95.08-32.18-97.45-26-98Z" transform="translate(99 99)"/><path class="cls-31" d="M381-45c-3.51-.26-8.21,1.55-8.3-4.77,0-.39-.94-1.11-1.42-1.09-4.82.18-9.07-2.32-14-2.3q-82.24.38-164.49,0c-4.18,0-7.48,2.63-11.52,2.37-.26,0-.75.3-.78.52-1.21,7.5-7.11,5.16-11.48,5.17Q51-44.92-67-45c.49-4.07-.28-7-5.41-6-.75.13-1.82.13-2-.94-.21-1.28.83-1.75,1.82-1.88a31,31,0,0,1,4-.13H-6.3c2.16,0,4.34.23,6.3-1,2.18-1.52,4.67-1.6,7.19-1.6q82.49,0,165-.08c3.41,0,7.13,2,10.3-.58,0-1-.46-1.4-.88-1.3-8.06,2-16.26,1.12-24.39,1.13-49,.07-98,.39-147-.12-23.82-.24-47.63-.25-71.44-.46-1.65,0-3.37.2-4.78-1-1.18-3.78,1.92-3.34,3.51-2.89,7,2,13.84-.56,20.76-.15,3,.18,6.19.44,7-3.74C-34.49-67-33.25-67-32.27-67c2.43.06,4.15-.33,5.7-2.86s5-1.41,7.38-.89a39.23,39.23,0,0,0,8.41.71q167.15,0,334.28,0a54.16,54.16,0,0,0,9.9-.72c3-.55,6.76-1.72,8.66,2.56.67,1.5,2.26,1.18,3.56,1.15,2.19-.06,3.83.39,4.54,2.87C351-61.28,353.6-62,355.64-62c4.5-.15,8.47-.45,11.06,4.87,1.45,3,4.12,6.77,9.54,3.59,2.61-1.53,6.83-.36,10.32-.28,1,0,2,.57,1.86,1.84-.15,1.09-1.24,1.1-2,1C381.31-52,380.49-49.1,381-45Z" transform="translate(99 99)"/><path class="cls-38" d="M-66-59H173c2.45,0,4.91.36,7.19-1.35a4.3,4.3,0,0,1,5.16,0c1.33,1,.18,2.54-.48,3.58-1.16,1.82-2.71,4.09-5.08,2.82-2.62-1.4-5.19-1-7.78-1Q86-55,0-55c.74-4-2.4-1.89-3.5-1.9C-22.39-57-41.28-57-60.17-57c-1.32,0-2.65,0-4-.07S-65.82-57.93-66-59Z" transform="translate(99 99)"/><path class="cls-38" d="M-76-67c.31,1.73.43,3.62,2.83,1.37,1.85-1.74,4-2.42,6.18-.35-.43,3.76-3.33,3-5.66,3-2.51,0-3.91.8-3,3.5,1.49,4.5-1.2,4.92-4.38,4.29-2.76-.54-4.15-.59-2.48,2.71,1.39,2.76-.37,4.26-2.47,5.53-.45-1.65,3-4.14-1.07-5-.59-4,2.91-6,4.5-9,.5-2,2.21-2.88,3.59-4.07,0-.29,0-.57,0-.86C-77.46-66.52-77.19-67.61-76-67Z" transform="translate(99 99)"/><path class="cls-39" d="M391-66c-.55-1.38-2.16-2.19-2-3.91-.25-.24-.34-.46-.24-.69s.18-.33.26-.33a41.74,41.74,0,0,1,7.87,10c-.3.43-.57.43-.8-.06C393.68-62,393.52-65.18,391-66Z" transform="translate(99 99)"/><path class="cls-38" d="M-43-73c.79,4.59,4.46,2.48,7,3-1.79,2-3.84,2.44-6.15.91C-43.68-70.11-44.84-71.23-43-73Z" transform="translate(99 99)"/><path class="cls-38" d="M-51-76c.79-3.29,3.42-1.86,5.28-1.87,2.4,0,2.77,1.9,2.72,3.87C-45.11-76.9-47.83-77.35-51-76Z" transform="translate(99 99)"/><path class="cls-38" d="M-59-68c.72-2.32-1.74-5.54,2-7C-58.06-72.78-57.37-70.06-59-68Z" transform="translate(99 99)"/><path class="cls-38" d="M-66-66c2.06-1.63,4.78-.94,7-2C-60.63-64.87-63.58-66.36-66-66Z" transform="translate(99 99)"/><path class="cls-40" d="M396.06-61l.8.06c.71,1,1.41,2,2.12,3l-.92.92C397.45-58.4,395.91-59.28,396.06-61Z" transform="translate(99 99)"/><path class="cls-38" d="M-85-46c-.12.73,0,2.24-.47,2-1.17-.55-2-1.74-.53-3Z" transform="translate(99 99)"/><path class="cls-13" d="M-90-15c2.51-7.64,3-8,10.83-8q202,0,403.93,0c3,0,6,.47,8.9-.68,1.43-.57,2.18.28,2.34,1.7a27.3,27.3,0,0,1-8.35,1q-202.75,0-405.53-.15c-5.28,0-9,1.18-11.12,6.12Z" transform="translate(99 99)"/><path class="cls-13" d="M367-19h11.48c1,0,2.15.13,2.3,1.38a2,2,0,0,1-2,2.42q-12.22.15-24.46,0a2.05,2.05,0,0,1-2.05-2.37c.18-1.58,1.58-1.45,2.73-1.46C359-19,363-19,367-19Z" transform="translate(99 99)"/><path class="cls-6" d="M337-10c-.17,2.67,1,4.09,3.76,4,1.22,0,2.73.3,2.68,1.63-.07,2-2,1.11-3.14,1.33-4.6.87-8.48-2.14-13.12-2.13C269.92-4.93,212.65-5,155.39-5c-2.64,0-5.4-.41-7.39,2-2,1.63-3.85.14-5.63-.32a56.36,56.36,0,0,0-31.32.93c-1.57.48-3.09,1.24-4.82,1C45.09-1.7-16-1.41-77.18-1.51c-1.83,0-3.67.07-5.5-.08C-85-1.78-87-2.53-87.82-4.88S-88.43-9.5-86-11h0c1.75-1.38,3.82-1,5.78-1q205.49,0,411,0c1.79,0,3.7-.43,5.25,1Z" transform="translate(99 99)"/><path class="cls-41" d="M336-11H-86a2.07,2.07,0,0,1,2.37-2c1.5,0,3,0,4.5,0H327.13a31.18,31.18,0,0,0,6-.23C335.21-13.66,335.85-12.8,336-11Z" transform="translate(99 99)"/><path class="cls-41" d="M-86-11c-2.22,6.66-1.3,8,5.6,8Q10.22-3,100.82-3c2.07,0,4.36-.84,6.18,1,.76,1.12-.94,1.22-.85,2.06L99.36,4.15C96.7,1,93.05,1.56,89.56,1.56H-77.21c-8.1,0-8.1,0-8.38,8A8.81,8.81,0,0,1-86,12,3.76,3.76,0,0,1-87,13.43a6,6,0,0,0-3.94,5.48c-.19,1.78-.19,4.5-3.45,3.92C-96,20.06-95.51,17-95,14.17a70.92,70.92,0,0,0,.67-8.83c.09-2.58-.31-5.3,2.45-7.06,1.31-.83.69-2.4.66-3.68-.06-2-.23-4,1.26-5.6h4Z" transform="translate(99 99)"/><path class="cls-6" d="M163,7.89l-8.45-5.73C156.86.8,159.37,1,161.86,1Q242.43,1,323,1.08c5.33,0,10.8-1.64,16.08.82a4.08,4.08,0,0,0,3.37-.31C346.78-1.22,347.78,2,349,5a.61.61,0,0,1-1,0c-1.19.24-2.84-.65-3.47.91-.52,1.27.93,1.9,1.63,2.73C347.29,10,349,10.92,349,13c-1.33,1.23-2.67.83-4,0h-1a7.59,7.59,0,0,0-8,0H171C167.34,12.86,166.61,8.17,163,7.89Z" transform="translate(99 99)"/><path class="cls-30" d="M345,13h43c-1.6,3.14-6.17,4.65-4.66,9.66C383.76,24,381,25,379,25c-8.33-.05-16.67,0-25-.06-2.94,0-5.14-.74-4.3-4.78C350.43,16.67,346,15.78,345,13Z" transform="translate(99 99)"/><path class="cls-42" d="M106.15.06c-1.36-1.36,1-1.18.85-2.06,13.55-5.1,27.23-5.07,41-1,.6,1,2.16,1.44,2,3C135.37-5.81,120.76-5.16,106.15.06Z" transform="translate(99 99)"/><path class="cls-5" d="M398,13h-9A5.81,5.81,0,0,1,398,13Z" transform="translate(99 99)"/><path class="cls-4" d="M348,5h1c1.39.17,2.86-.4,4.26.49-.52,1.35-.95,3.14-2.54,3S348.11,6.8,348,5Z" transform="translate(99 99)"/><path class="cls-4" d="M384.59,6.36c-.45,1.1-1.14,2.11-2.39,2.2s-1.57-1.13-1.74-2.05c-.29-1.52,1-1.45,1.92-1.47S384.46,4.87,384.59,6.36Z" transform="translate(99 99)"/><path class="cls-43" d="M183,36c48,0,96-.1,143.94.16,4.95,0,9.11-2.64,14-2.28,4.15.29,6.21,1.63,6.05,5.95-.07,2-.76,4.34,2,5.57,1.42.62.89,2.36.91,3.64a64.08,64.08,0,0,0,.59,9.71c1.18-7.5,6.57-5.68,11-5.74,4,0,8,.16,12-.06,4.24-.23,8-.11,8,6.58,2-2.76,1.2-4.79,1.43-6.63.39-3.07-1.35-6.69,2.55-8.89.59-.33.4-2.17.44-3.32.23-6.21.86-6.78,7.67-6.69,5.5.07,6.31,1,6.34,7,0,3,0,6,0,9a3.19,3.19,0,0,1-1.34.63c-8.33.92-8.33.92-10.62,8.81-.41,1.44-.92,2.85-1.46,4.25-2.41,6.28-2.85,5.89-9.39,4-7.33-2.12-15.1-2.41-22.46.46-4.64,1.81-5.71,1.68-7.65-2.79a46.49,46.49,0,0,1-3.11-10c-.62-3.27-2.48-4.91-5.88-4.82-1.83.05-3.66,0-5.49,0H196.85c-4.45,0-8.94-.37-12.82,2.48C183.91,47.32,184.44,41.6,183,36Z" transform="translate(99 99)"/><path class="cls-23" d="M184,53c1-3.3,3.13-4.09,6.54-4.08q73.92.2,147.82,0c4.3,0,6.53,1,6.94,5.51.39,4.14,2.26,7.92,3.59,11.83.72,2.11,1.86,3.67,3.75,1.43,2.42-2.86,5.42-2.75,8.61-2.7,4.16.07,8.32.09,12.48,0,2.26,0,4.24.24,5.84,2.09,2.38,2.74,3.74,1.86,4.64-1.33,1-3.49,2.53-6.77,3.23-10.4,1.24-6.51,2.67-7.3,9.17-6.23,1.14.19,2.24.6,3.36.9V61c-1.66,0-3.33.09-5,0-3.59-.23-6.86-.22-6.07,5a2.16,2.16,0,0,1-1.26,2.5c-3.27.84-2.46,3.37-2.73,5.61-.34,2.79-.73,4.25-4.91,3.56a79.33,79.33,0,0,0-26.27,0c-4.2.72-5-1.23-5.63-3.79-.52-2.2.13-4.66-2.94-5.52a2.42,2.42,0,0,1-1.08-2c.92-5.93-3-5.3-6.78-5.3Q260.18,61,183,61C184.53,58.48,183.85,55.68,184,53Z" transform="translate(99 99)"/><path class="cls-5" d="M336,13q4-4.85,8,0Z" transform="translate(99 99)"/><path class="cls-44" d="M163,7.89c2.2-1.78,2.74.77,3.86,1.57,1.46,1,2.74,2.35,4.1,3.54-.28.65-.55,1.31-.82,2Z" transform="translate(99 99)"/><path class="cls-34" d="M182.11,59a12.49,12.49,0,0,1,.79-5.51C182.85,55.35,183.65,57.34,182.11,59Z" transform="translate(99 99)"/><path class="cls-45" d="M-81-61c-1.61,3-4.43,5.39-5,9-2.77,1.56-2.57,5.21-5,7,1.23-6.33,4.92-11.28,8.94-16.05C-81.72-61.51-81.37-61.48-81-61Z" transform="translate(99 99)"/><path class="cls-46" d="M-43-92c-2.61,2.38-6.05,3.27-9,5a.64.64,0,0,1-1.08,0A15.82,15.82,0,0,1-43-92Z" transform="translate(99 99)"/><path class="cls-29" d="M-53.06-87-52-87c-2.64,1.47-4.59,4.32-8.11,4C-58-84.73-55.95-86.64-53.06-87Z" transform="translate(99 99)"/><path class="cls-47" d="M-76-67l-2,1.07c.48-3,2.84-4.49,5.06-6.07C-72.91-69.7-75.25-68.85-76-67Z" transform="translate(99 99)"/><path class="cls-48" d="M-91-45c0,3.05-1.59,5.52-3,8A10.41,10.41,0,0,1-91-45Z" transform="translate(99 99)"/><path class="cls-49" d="M-65-79c-1.56,2.23-3.09,4.48-6,5.06C-69.46-76.18-68-78.48-65-79Z" transform="translate(99 99)"/><path class="cls-48" d="M-94-37a10.17,10.17,0,0,1-2,7C-96.06-32.53-95.74-35-94-37Z" transform="translate(99 99)"/><path class="cls-50" d="M-81-61l-1,0A4.49,4.49,0,0,1-78-65.09Q-79.51-63-81-61Z" transform="translate(99 99)"/><path class="cls-50" d="M-61-82.11A4.67,4.67,0,0,1-65-79,5,5,0,0,1-61-82.11Z" transform="translate(99 99)"/><path class="cls-51" d="M-87,367a51.8,51.8,0,0,1-8-20c.14-1,.29-1.92,1.43-2.25,1.94.64,1.73,2.63,2.5,4,2.5,5.38,5.6,10.52,6.68,16.47a2.24,2.24,0,0,1-.52,2A1.77,1.77,0,0,1-87,367Z" transform="translate(99 99)"/><path class="cls-52" d="M-60,393l-1.11,1.15c-5.44-.9-8.16-5-10.9-9.15,0-.23,0-.46,0-.69.26-.81.66-1.6,1.57-1.67C-66.7,382.36-60.35,388.73-60,393Z" transform="translate(99 99)"/><path class="cls-53" d="M-87,367h2c1-1.62,2-1.32,3,.1,1.19,1.75,1.85,3.86,3.59,5.22,1.07.9,2.27,1.73,1.9,3.43a4.29,4.29,0,0,1-2.48,2.3C-82.93,375.27-84.95,371.12-87,367Z" transform="translate(99 99)"/><path class="cls-54" d="M-79,378.05A1.87,1.87,0,0,1-77,376c5.44.31,7.07,3.16,5.1,8.88L-72,385A11.84,11.84,0,0,1-79,378.05Z" transform="translate(99 99)"/><path class="cls-55" d="M-94,345a2.05,2.05,0,0,1-1.08,2c-1.41-1-.75-2.63-1-4L-95,343C-94.1,343.38-93.5,343.92-94,345Z" transform="translate(99 99)"/><path class="cls-56" d="M389-71c0,.34,0,.68,0,1A215.81,215.81,0,0,0,367-87c-.26-.2-.35-.4-.27-.61s.17-.32.26-.32A68.59,68.59,0,0,1,389-71Z" transform="translate(99 99)"/><path class="cls-39" d="M367-87.94c0,.31,0,.62,0,.93-3.76-.81-6.58-3.52-10-5C360.93-92.15,364.07-90.31,367-87.94Z" transform="translate(99 99)"/><path class="cls-57" d="M352-94c-2.51,0-4.92-.3-6.94-2A9.62,9.62,0,0,1,352-94Z" transform="translate(99 99)"/><path class="cls-58" d="M357-92c-1.8-.39-3.64-.66-5-2C353.92-94,356-94.33,357-92Z" transform="translate(99 99)"/><path class="cls-59" d="M336,98h1c-.9,6.64-2.28,13.24-2,20-1.46,3.92-4.94,3.45-8,3.47-16.47.1-32.94,0-49.4,0-7.65,0-15.31,0-23,0-3.29,0-6.51-.3-5.7,4.64.07.45-.59.75-1,1-5.36-6.76-12.09-10.41-21-9.21-1.6-.73-3-.93-3.83,1.12-3.25,3.48-5.46,2.06-7.13-1.56-1-2.16-1.91-4.36-2.86-6.55.73-1.65-2.07-2.26-1.17-4a27.55,27.55,0,0,1,8.34-1c33.46,0,66.93-.21,100.38.22C328,106.28,332.92,104.51,336,98Z" transform="translate(99 99)"/><path class="cls-60" d="M381,130c1.46-.91,3.14-.87,4.75-1.16s3.33-1,3.19-3.14c-.25-3.77,1.58-4.91,5.1-4.75s2.57,2.62,3.64,4.56c4.26,7.74,1.32,15.73,2.32,23.49-3.25,1-3-1.66-3.29-3.4-.52-2.74-.49-5.61-2.57-8.3a13.2,13.2,0,0,0-3.76,8.88c-.11,2.83-1.67,4.06-4.12,5.46-9.14,5.24-19,3.78-28.67,3.54-4.54-.12-8.53-2.72-12.44-4.78-3.55-1.87-2.36-5.82-2.54-9,0-1,0-2,0-3-.08-5.51-.4-5.83-5.95-5.89a5,5,0,0,1-2.89-.47c-.57-3.54.94-6.86,2.12-9.83,1.43-3.6,5.11-2.46,8.1-1.2-.46,5.8,3.2,7.47,8,8a4.18,4.18,0,0,0,3.54,2.41,214.47,214.47,0,0,0,22.82-.14A4.22,4.22,0,0,0,381,130Z" transform="translate(99 99)"/><path class="cls-61" d="M344,121c-1.66,0-3.33,0-5,0-1.23,0-3,.68-2.53,1.75,1.55,3.86-1.88,6.11-2.48,9.21-1.14,2.39-3.41,2.52-5.56,2.53-24.13.17-48.27.11-72.4.05a8,8,0,0,1-5.17-1.53q-1.45-3-2.93-5.89c.32-.91.82-1.72,0-2.76s-3.07-1.72-2-3.48c1-1.61,3.06-.9,4.66-.9q38.72,0,77.43,0c2.59,0,4.95-.26,6.94-2C337.56,120.31,341.94,117.18,344,121Z" transform="translate(99 99)"/><path class="cls-22" d="M344,141c0,1.83,0,3.66,0,5.49,0,1.42.31,2.83,1.8,3.22,6,1.57,11.32,5.72,18.08,4.36a16.61,16.61,0,0,1,6.95,0c6.51,1.58,11.14-3.6,17-4.36a1.52,1.52,0,0,0,1.12-2c-1.16-4.48,2.38-7.66,3.09-11.6.19-1,.38-2,1.71-1.95a2.25,2.25,0,0,1,2.12,1.81c.83,3,2.41,5.83,2.2,9.13-.1,1.56-.53,3.51,2,3.85v15h0c-1.72.52-2.77-.78-4-1.5a5.06,5.06,0,0,0-4.75-.26c-14.35,6-29,5.37-43.8,2.11-3.12-.68-5.71-2.66-8.79-3.41-3-1.39-2.24-4.72-3.65-6.95a29.62,29.62,0,0,1-.38-8.81C335,139.19,338.91,137.5,344,141Z" transform="translate(99 99)"/><path class="cls-61" d="M381,130c-.57,2.79-2.8,2.95-5,3-6.27.06-12.54,0-18.8,0-2.85,0-4.8-1-5.24-4,4.43,2,9.11.76,13.67.95C370.77,130.17,375.89,130,381,130Z" transform="translate(99 99)"/><path class="cls-61" d="M352,129c-8,0-8,0-8-8,1.61,1.1,3.86.86,5.25,2.45-.27,2.32-3,.81-3.82,2.75C347.2,128,350.91,125.79,352,129Z" transform="translate(99 99)"/><path class="cls-62" d="M374,393c-4.62,3.15-8.93,7-15,7,1.14-3.39,3.79-5,7-6-.46-1.16.48-1.54,1.14-2.09,1.5-.68,1.78-2.4,2.89-3.42a22.11,22.11,0,0,0,10.82-12.62,4.5,4.5,0,0,1,.86-1c2.16-.52,3.17-2.05,3.61-4.09a9.41,9.41,0,0,1,3.64-4.9c1.25-1.25,1.39-3.72,3.91-3.58a3,3,0,0,1,1.32.52c.81,4.45-1.39,7.92-3.89,11.18-2.08,2.73-3.77,5.48-3.21,9.08L387,385c-2-.87-2.87.69-4.2,1.72C379.93,388.9,377.37,391.51,374,393Z" transform="translate(99 99)"/><path class="cls-63" d="M387.09,383c-3.77-2.23-1.07-4.7.11-6.63,2.64-4.3,6.54-7.91,6.8-13.41.29-2.75,1.08-4.51,4-2-2.75,4.83-3.89,10.45-7.33,14.95-.92,1.19,0,2.17.44,3.2C391.21,381.93,389.82,383.18,387.09,383Z" transform="translate(99 99)"/><path class="cls-21" d="M374,393c2.42-3.78,6.57-5.62,9.64-8.66,1.57-1.55,2,1.31,3.29.62-3.22,3.53-5.33,8.4-10.91,9.1A2,2,0,0,0,374,393Z" transform="translate(99 99)"/><path class="cls-64" d="M337,400H-28c-3.34-2.53-8-1.74-11.24-4.5-1.68-3.83-4.39-7.09-6.18-10.86-.7-1.46-2-2.85.1-4.21a3.2,3.2,0,0,1,2.18.06,12.9,12.9,0,0,0,7.61,3.06c2.43,4.61,6.75,5.39,11.34,5.67,1.83.11,3.66.17,5.49.17H333.4a42.93,42.93,0,0,0,9.92-.85c2-.48,3.86-1.15,4.5-3.41,2.57-3.33,6.68-3.46,10.22-4.43,2.88-.78,3.09,1.89,2.55,4-.91,3.48-4.15,5.5-5.65,8.74-1.69,3.66-5.48,3-8.82,3.08A14.88,14.88,0,0,0,337,400Z" transform="translate(99 99)"/><path class="cls-65" d="M337,400c1.33-4.55,5.34-4.65,8.88-4.91,3.89-.28,8.58,1.76,8.68-5.22,0-1.09,3.31-2.19,4.38-4.21.65-1.23,1.56-2.48.72-3.66-1.13-1.59-2.46-.1-3.46.46A12.21,12.21,0,0,1,349,384c-1.54,2.24-3,2-4.29-.2a2.55,2.55,0,0,1,2-2.53c5.23-1,9.6-4.55,15-5.1,2.47-.07,3.46-2.24,5.06-3.56a5,5,0,0,1,6.83,0c2.25,1.88,2.42,5.32.47,6.58-3.7,2.4-4.17,6.29-6.07,9.51-1.62,2.2-2.44,5.3-6,5.34-3.54-.39-6.73,2.11-8.8,3.58-5.08,3.59-10.17,1.77-15.2,2.42Z" transform="translate(99 99)"/><path class="cls-66" d="M-39,395c3.48,2.08,8.78.16,11,5H-39c-3.42-2.56-7.45-3.82-11.35-5.35a4.22,4.22,0,0,1-1.13-.78,5.23,5.23,0,0,1-.57-1.25,4.23,4.23,0,0,0-2.81-3.73c-4.85-1.68-7.54-5.42-9.74-9.72-.62-1.2-1.81-1.88-2.78-2.76a9.33,9.33,0,0,1-2.5-3.54c-.77-3.46,1.43-6.3,2.06-9.47.51-2.54,2.46-2.14,4.21-1s3.11,3,5.51,2.88c5,4.73,11.06,8.21,15.2,13.84-3,1.78-5.28-.58-7.77-1.53-1.07-.41-1.84-1.38-2.84-2s-2.44-1.72-3.46-.27.24,2.43,1.23,3.33a5.34,5.34,0,0,0,2.18,1.12c1.31.63,3.48,1.58,2.36,3-2.64,3.28.18,3.71,2,4.13C-44.5,388-43.39,393.57-39,395Z" transform="translate(99 99)"/><path class="cls-67" d="M-1-98H317c1.14.87,1.66,1.79,0,2.54S313.68-95,312-95Q157.43-95,2.82-95c-1.49,0-3.09.34-4.45-.32C-4.87-96.92-1.88-97.24-1-98Z" transform="translate(99 99)"/><path class="cls-37" d="M-1-98c.17.69-2.3,1.19-.2,1.93a9.55,9.55,0,0,0,3,0Q157.35-96,313-96.1c1.27,0,4.21,1.88,4.05-1.87l9,0,4,0c0,.31.05.63.06.94-2.59,2.17-5.69,2.49-8.87,2.49q-163.6,0-327.21,0c-3.93,0-7.14-2.45-11-2.54,0-.32,0-.63.08-.94L-12-98Z" transform="translate(99 99)"/><path class="cls-68" d="M-98,149l0-40c2.11-5.61.32-11.48,1.13-17.18.82-3.7.15-7.47.56-11.17.21-1.92,0-4.67,3.45-3.54,2,2.65,1.3,5.74,1.37,8.68.12,5.14-.06,10.29-.1,15.44.1,2.62-.07,5.26.59,7.84.47,2.59.25,5.22.41,7.83.11,1.47-.07,2.93,0,4.4.16,3.3,0,6.6,0,9.9s.81,6.86-1.27,10c-4.49.45-3.23-3.1-3-5.06.68-7.48.23-15,.38-22.45,0-.81.26-1.66-.11-2.25.18,7,.11,14.17,0,21.35-1,3.95.06,7.91-.13,11.84C-94.8,146.55-94.11,149.62-98,149Z" transform="translate(99 99)"/><path class="cls-69" d="M-96,92c0,4.4,0,8.8,0,13.21,0,1.55.47,3.44-2,3.78V-2c3.28.86,2.27,3.65,2.3,5.69.17,9.56.06,19.11.08,28.66,0,2.14-.17,4.3.61,6.36a25.69,25.69,0,0,1,.42,6.72c-.1,6.64.06,13.28.07,19.91C-94.49,74.27-95.64,83.11-96,92Z" transform="translate(99 99)"/><path class="cls-70" d="M-98,213c0-2.67,0-5.33,0-8q0-20,0-40c2.18-.05,2,1.72,2.17,3,.21,1.75.32,3.49,1.46,5a6.48,6.48,0,0,1,.55,1.66c1,14.92-.31,29.79-.75,44.68a6,6,0,0,1-1,3.29c-1.77,1.19-1.81-.19-1.94-1.34C-97.77,218.53-96.93,215.7-98,213Z" transform="translate(99 99)"/><path class="cls-16" d="M-96,39c-1.63-1.46-1-3.4-1-5.14C-97,23.63-97,13.39-97,3.16-97,1.42-96.38-.51-98-2c-.1-7.42-.26-14.84,2-22,.43,2.33-.91,4.92,1,7,2.7,10.07-.07,20.16.11,30.23-.47,5.25.24,10.48.3,15.71C-95,32.3-93.58,35.92-96,39Z" transform="translate(99 99)"/><path class="cls-71" d="M-95,173c-2.15-.23-1.92-1.84-2-3.34s.57-3.36-1-4.66V149c2.78-.49,1.77-2.71,2-4.36.5-3.87-1.08-7.91,1-11.64,2,12.08,1.6,24.24,1.34,36.4A4.59,4.59,0,0,1-95,173Z" transform="translate(99 99)"/><path class="cls-72" d="M-95,330c-.34-.33-.67-.67-1-1-2-3.88-.7-8-.87-12,1-12.07.37-24.16.39-36.25a150.15,150.15,0,0,1,1.22-16.3c.19-1.69,0-4.63,3.38-2.86a5.15,5.15,0,0,1,1.21,2.57c.54,9.61-.16,19.22.09,28.83,0,5.27-.17,10.56.09,15.85.08,1.51.26,3.67-.94,4.14-2.06.82-1.69,1.3-.77,2.81A10.53,10.53,0,0,1-92,326.65,15.55,15.55,0,0,1-95,330Z" transform="translate(99 99)"/><path class="cls-73" d="M-96,317v12c-3-.63-2-3.1-2-4.84q-.1-30.59,0-61.16a1.63,1.63,0,0,1,2.48.35c1.36,3.78,0,7.57-.07,11.35C-95.67,288.8-95,302.91-96,317Z" transform="translate(99 99)"/><path class="cls-74" d="M-96,263h-2V213c2.56,2.95-.59,7.05,2,10,1.84,1.81,1.14,4.43,2.09,6.52-.51,10,.72,19.95-.71,29.88C-94.81,260.69-94.95,262-96,263Z" transform="translate(99 99)"/><path class="cls-75" d="M-95,330c0-1.45,0-2.91,2-3,1.63,1.39,1,3.68,2.09,5.27,1.51,4,.44,8.26,1.07,12.35-.17,1.74.57,3.92-2.16,4.38-1.62-.86-.38-3.14-2-4l-1-2C-92.38,338.67-95.51,334.34-95,330Z" transform="translate(99 99)"/><path class="cls-76" d="M400,314v14c-.8.52-1.85.59-2.2-.21-2.17-5.07-6.38-4.34-10.39-4,1.13,6-2,10.85-4.26,15.67-1.85,3.88-6.14,4.11-10.09,4.12H-53.38c-1.84,0-3.67,0-5.5,0-7.55-.15-10.22-2-12.13-9.26-.86-3.29-4.33-6.4-.66-10.53-3.89.14-7.45-1.51-10,2a9,9,0,0,1-.39,1.53c-1.85,2.79-3.86,5.53-2.62,9.21-.17,5.3,0,10.55,2.31,15.48a8.94,8.94,0,0,1,.46,1.5c-.43,2,3,5.6-2.27,5.63a4.27,4.27,0,0,1-.9-1.39,39.84,39.84,0,0,1-4.3-22.69,121.53,121.53,0,0,1,1.56-18.67c.58-4,2.73-7.51,4.64-10.84s5.93-1.77,9.17-1.41a29.21,29.21,0,0,0,3.44.62c1.34.24,2.82.59,3,2.2a2.4,2.4,0,0,1-2,2.68c4.89,3.28,10.75,2.76,16.53,2.76h359.4a38.71,38.71,0,0,1,8,.33c1.42.29,3.2.57,3,2.64-.21,1.76-1.63,2.4-3.24,2.53-2,.16-4,.08-6,.08h16.54a19.74,19.74,0,0,1-4-.19,2.25,2.25,0,0,1-2-1.92,2.35,2.35,0,0,1,1.67-2.72,15,15,0,0,1,5.91-.74c11.5,0,23,.1,34.49-.06,7.92-.11,16,1.37,23.37-2.6-.84-.44-2.29-1-1.91-2.69a2.9,2.9,0,0,1,2.54-2.15c4.23-.54,7-2.44,8-6.89.39-1.79,2.14-3.44,4.12-2.86s2.34,2.77,2.15,4.63C398.36,304.62,398.27,309.37,400,314Z" transform="translate(99 99)"/><path class="cls-77" d="M400,314c-3.61-3.46-3.18-8-2.61-12.18a10,10,0,0,0-.9-6.21c-1.84,1-3.88,2.21-3.22,4.47,1.24,4.26-2,4.71-4.44,5.74-1,.42-2.31.13-3.47.2s-2.7.07-2.59,1.58,1.65,1.37,2.82,1.39c1.47,0,2.94,0,4.45,0a8.43,8.43,0,0,1-.09,1.22c-7.16.88-13.61,4.41-21.27,4-14.63-.76-29.32-.22-44-.22-1.33,0-2.67,0-4,.11a1.33,1.33,0,0,0-1.37,1.18,1.35,1.35,0,0,0,1.44,1.6c1.33.1,2.66.11,4,.11q24.75,0,49.49,0c1.71,0,3.54-.42,5,1.44h-445c1.5-2.16,3.45-1.42,5-1.42,12.5-.07,25,0,37.49,0q166.47,0,332.94-.06c2.28,0,6.38,1.29,6.39-1.61,0-2.58-4.16-1.26-6.39-1.26q-184-.12-367.93.14c-6.41,0-11-4.1-18.23-3.71,2.6-2,4.3-1.26,5.79-1.56,1-.21,2.12-.56,2.09-1.72,0-1.41-1.36-1.11-2.29-1.21-1.44-.16-3.06.44-4.18-1,2.54-2.26,5.67-1.6,8.59-1.59,71.57,0,143.13-.24,214.69.12,2.26-.32,4.46.59,6.72.47,11.6,1.95,23.29,2.26,35,2.12a1,1,0,0,1-.77,1.29c-4.85.22-9.73-.1-13.13.1,3.65-.62,8.9.85,13.95-.59,2.4-1,5,.1,7.43-.71.64-.23-.26-1,.06-.41.14.25.06.4-.22.44-2.19.27-4.39.72-6.52-.33,4-1.31,8.31-.17,12.22-1.82,2,.82,4-.45,6-.12,13-1.06,26-.46,38.93-.51,26.49-.1,53,0,79.46,0,6.84,0,6.87-.05,7.22-6.88.13-2.5-.16-5-.07-7.49-.07-2.78-1.19-5.71,1-8.2,2.49-1.36,4.63-.43,5,2,.62,4.39,2.95,5.93,7,6,1.52,0,3.12.62,3.38,2.37.25,1.59-1,2.27-2.76,2.75,12.61,4.15,24.87,3.85,37.23,0-1.78-.24-3.6-.6-3.43-2.8.12-1.5,1.57-2,2.92-2.29a12.87,12.87,0,0,1,2.47-.26c3.26,0,5.24-1.34,5.74-4.86.38-2.65,1.79-4.4,4.83-2.55,2.32,2.15-.71,5.7,2,7.75Z" transform="translate(99 99)"/><path class="cls-78" d="M-83,327c-.65-1.22-1.08-2.41-.08-3.7,1.26-1.62,14.13-2,15.23-.35s-.31,1.84-1.49,2.08c-3.45.68-4.35,2.12-1.44,4.78,2.49,2.28.59,5.9,2.77,8.61,1.87,2.33,3.59,3.74,6.54,3.59,1-.06,2,0,3,0H372.25c8.93,0,9.82-.74,11.86-9.62a4.47,4.47,0,0,1,1-2.26c2.68-2.42,2.92-4.14-1.1-5-.81-.18-1.78-.46-1.44-1.55a2,2,0,0,1,1.36-1.25c4-.13,8-.25,12-.08,1.48.06,2.11,1.46,2.13,3s.2,2.71,2,2.84v6c-2.91.37-3.41-2-4.35-3.85-1.57-3.08-3.4-2.64-5.37-.42a3.55,3.55,0,0,0-.57.82c-3.06,6.37-6.2,12.71-7.5,19.76-3.08,4-4.58,9.65-10.86,10.29-1.15-.42-2.35-1.12-2.58-2.22-1.08-5.3-5.08-4.8-8.95-4.8q-120.74,0-241.47,0H-45.13c-3.9,0-7.91-.8-9.79,4.49-.94,2.62-4.29,2.05-6.59-.59-1.62-1.87-1.68-4.8-4.16-6.05a5.09,5.09,0,0,1-1.42-.92c-1.37-7.43-6.87-12.94-9.33-19.87C-77.57,327.45-81.25,329-83,327Z" transform="translate(99 99)"/><path class="cls-79" d="M381,350a14.66,14.66,0,0,1,2.6-8.27c2.14-3.38,2.09-7.72,4.49-11.18,1.47-2.13,2.72-4.42,5.46-4.33,2.53.09,3.28,2.25,3.6,4.58.21,1.56,1.49,2.49,2.85,3.2-.53,7.77,1.57,15.79-2.46,23.25-.49.9.28,2.48.46,3.75-2.29-1.24-3.08.5-4,2h-1c-1.7-2.86-.56-6.21.86-7.94,3-3.61,2.09-7.54,2.43-11.35s-3-5.78-6.26-3.56a11.92,11.92,0,0,0-5.33,7C384.23,349.07,383.52,350.72,381,350Z" transform="translate(99 99)"/><path class="cls-79" d="M-84,359c3.76-1.43-.31-4.16,1-6,3.35-1.14,3.4,1.66,4.1,3.52,2,5.28,3.7,10.62,7.09,15.27a15.69,15.69,0,0,0,4.83,4.9,3.17,3.17,0,0,1,1,1.9,5.66,5.66,0,0,0,2.31,5.93c4.09,3.35,8.43,6.35,12.68,9.48h0c.25.22.34.45.25.67s-.17.33-.25.33c-3.33.84-5.66-2.84-9-2-2.27-3.43-4.74-6.52-8.45-8.74-2-1.18-2.43-.25-3.46.62,1.2-4.62-1.14-7.22-5.09-8.88.16-1.56-1.42-1.95-2-3-1.27-3.68-.65-8.17-4.57-10.72C-84.35,361.27-85,360.24-84,359Z" transform="translate(99 99)"/><path class="cls-24" d="M-51,395v-1c4.65.7,9.29,1.42,12,6C-44,400.66-47.5,397.87-51,395Z" transform="translate(99 99)"/><path class="cls-80" d="M362,394c2.95-.93,2.87-4.38,5-6,3.73-2.74,7.38-5.54,9.45-9.91a4.32,4.32,0,0,1,4.3-2.8A3.18,3.18,0,0,1,382,376c-2.13,6.06-5.11,11.34-12,13-1.3,1-.94,2.86-2,4a2.07,2.07,0,0,0-2,1Z" transform="translate(99 99)"/><path class="cls-81" d="M249.89,254.63l-.17-.34L250,254c1.35-1.46.68-3.89,2.47-5.15,2.76-2.92,6.28-3.38,10.07-3.37q30.18,0,60.37,0c8.7,0,8.69,0,11.34-8.27.55-1.74,1-3.76,3.31-3.81,2.58,0,3.75,1.77,4.51,4,2.84,8.11,2.85,8.13,11.47,8.13,10.15,0,20.3,0,30.44,0,3.91,0,6.81-1.26,7.49-5.64.4-2.58.41-5.89,3.73-6.32,3.67-.47,3.21,3.62,4.82,5.48v14c-3.22,1.19-2.63-2.05-3.79-3.25-4,4.66-6.56,9.81-6,16.26.23,2.74-1.73,4.21-4.47,4.28q-18.21.49-36.43,0c-3.29-.09-5.36-1.76-5.58-5.15a27.34,27.34,0,0,0-6-15.43c-.59,2.05-1.53,4-2.1,6.06-1.81,6.54-1.82,6.69-8.66,6.7q-34.69.06-69.38,0c-2.47,0-5,.3-7.17-1.46C249.36,259,250,256.77,249.89,254.63Z" transform="translate(99 99)"/><path class="cls-82" d="M250,260a9.79,9.79,0,0,0,5.3,1c24.64,0,49.27-.08,73.91.06,3.59,0,5-.82,5-4.68,0-3,2.43-5.7,2-9a1.75,1.75,0,0,1,1.83-1.94c1.48,0,1.62,1.29,2,2.42,2.16,6.29,5.36,12.24,5.32,19.19,0,1.7,2,2,3.56,2,12.32,0,24.64,0,36.95,0,2.39,0,3.28-1,3.19-3.31s-.06-4.66,0-7c0-1.14-.12-2.78.53-3.33,2.82-2.33,5.19-4.69,4.85-8.77-.06-.75,1-1.41,1.88-1.2,1.09.26,1.4,1.21,1.69,2.23.51,1.83-1.31,4.59,2,5.35v9c-3.52.23-2.51-3.25-3.87-4.79-.72.35-.68,1.06-.87,1.64-4.06,12.2-9.84,16.4-22.75,16.51-3.82,0-7.67-.27-11.47.07-6,.54-10.81-3-16.33-3.95a3,3,0,0,1-2.4-2.34c-.49-4.57-3.77-8.11-4.59-12.25-1.54,5-.84,10.47-1.36,15.86-2.32,5.51-6.46,7-12.32,6.9-22.82-.3-45.65-.13-68.47-.11-4,0-8-.19-12,.48-.88.15-2.45,1.05-2.61-1,3.22-6.1,5.5-12.58,7.85-19C249.23,259.4,249.6,259.41,250,260Z" transform="translate(99 99)"/><path class="cls-83" d="M400,239a9.9,9.9,0,0,0-1.63-1.13c-1.65-.72-.76-4.38-3.35-3.45-2.35.85-2,3.53-2,5.68-.16,4.7-2.73,6.9-7.33,6.9q-18.71,0-37.43,0c-4.62,0-7.08-2.31-7.23-7,0-1.32.24-2.7-.6-3.87-.68-1-1.44-1.93-2.74-1.93-1.69,0-1.51,1.43-1.77,2.52s-.68,2.22-.84,3.36c-.84,5.8-2.08,6.91-8,6.92-20,0-39.93.05-59.89,0-5.27,0-10.54-.45-15.06,3a36.21,36.21,0,0,1,1.45-14,3.65,3.65,0,0,1,1.46-1c2.44-.74,4.95-.53,7.44-.53,20.13,0,40.27-.08,60.4,0,4.5,0,7.92-.67,10-5.39,1.62-3.63,4.34-4,7.23-1.23,3.22,3.11,6.84,3.64,11,3.6q16-.17,31.95,0c4.13,0,7.82-.45,10.94-3.64,2.17-2.22,4.68-2.68,6.07,1.12v10Z" transform="translate(99 99)"/><path class="cls-84" d="M336,272c-2.35-6.31.08-12.24,1.57-18.46.28,5.34,5.73,8.38,5.45,13.77-.07,1.23.23,2.73,1.51,2.81,4.69.29,8.48,3.65,13.09,3.82,6,.23,12,.58,17.94-.11,4.6-.53,9.05-2.5,13.53-4,.67-.22,1.68-1.24,1.59-1.71-.82-4.47,4.14-7.15,3.45-11.59a2.48,2.48,0,0,1,2.28-2.82c1.81,0,1.53,1.82,1.58,3.09.07,2-.37,4.1,2,5.16v27c-5.49-1-.63-4.87-2-7-1.44-1.85-1.19-4.09-1.46-6.21-.09-.67-.27-1.44-1-1.63a1.56,1.56,0,0,0-1.93,1.2c-.73,4.75-3.89,6.08-8.16,6.27a3.39,3.39,0,0,0-3.31,3.22c-.31,3.84-2.81,4.45-5.92,4.45-6.66,0-13.32.05-20,0-2.68,0-5-.49-5.33-3.88-.26-2.87-2.29-3.86-4.84-4.09-2.81-.26-4.65-1.52-5.17-4.47-.43-2.43-2.32-3.51-4.39-4.36Z" transform="translate(99 99)"/><path class="cls-85" d="M400,213v10c-3.77.08-3.83-3-4.6-5.43-.31-.95-.53-2.06-1.78-2.12s-1.79,1-1.88,2c-.85,9.33-8.73,9.67-15,10.78a59.73,59.73,0,0,1-19.92,0c-6.14-1-13.22-2.1-14.46-10.51-.2-1.36-.82-2.6-2.57-2.49-1.47.09-1.76,1.25-2.17,2.37-3.26,8.92-3.27,8.92-12.65,8.93q-31,0-62,0c-2.64,0-5.36.37-7.84-1a3,3,0,0,1-1-1.52c-.34-4-.08-8-.17-12,.27-2.44-.66-5,.93-7.32,2.39-1.57,5.11-1.19,7.73-1.2,21.07,0,42.13-.08,63.2,0,4.42,0,8-.26,8-6,0-2.21,1.68-3.13,3.87-2.54,2.61.69,5.83.14,7.27,3.38a21.36,21.36,0,0,1,.51,6.28,33.31,33.31,0,0,0,.05,5.47c.69,8.46,4.64,12.23,13.27,12.47,5.15.15,10.3,0,15.45.05,4.38.08,7.78-2.64,11.66-3.93,2.29-.76,1.77-3.72,2.11-5.78.68-4.17.24-8.77,6-10.07,1.72-.39,1.39-2.83,2-4.32.4-.94.86-1.89,2.08-1.75s1.36,1.26,1.33,2.25c-.08,2.15.38,4.34-.38,6.43A7.85,7.85,0,0,0,400,213Z" transform="translate(99 99)"/><path class="cls-86" d="M255,225h73.32c5.76,0,7.33-1.35,7.64-7.11.14-2.78.36-4.9,3.95-4.93s4.17,1.78,4.14,4.73c0,3.72,2,4.87,5.47,6.69,8.34,4.4,16.84,1.31,25.06,2.73,5.2.9,8.41-3.91,13.43-3.67,1.6.08,2.06-3.78,2-6.14s.53-4.29,3.5-4.29,3.69,1.78,3.49,4.26.59,4.57,3,5.73v6c-1.89-2.72-4-2.33-5.49.11-2.3,3.81-5.69,4-9.5,3.93-12.64-.1-25.28-.08-37.92,0a7.83,7.83,0,0,1-6.87-3.09c-3.29-4.13-5.74-3.73-7,1.42-1,4.16-3.38,4.68-6.87,4.67q-36.17-.09-72.35,0C252.41,232.16,253,228.52,255,225Z" transform="translate(99 99)"/><path class="cls-87" d="M400,213c-3.19-1.83-3.94-4.3-2-7.5,1.57-2.58,1.22-5.2.37-8.29-1.88,1.37-1.28,3-1.34,4.3-.11,2.21-1.07,3.6-3.33,3.43-3.36-.25-3.72,1.6-3.76,4.31a89.08,89.08,0,0,1-1,8.87c-.11.88-.55,1.92-1.32,1.92-4.54,0-7.59,4.29-12.27,4-4.15-.25-8.41-.59-12.47.08-5.95,1-10.69-2.06-15.86-3.69a2.61,2.61,0,0,1-2-2.58c0-4.31-1.65-8.5-1-12.86,4.76-1.19,9.6-.35,14.39-.45,7.83-.16,15.66-.1,23.48,0,3.52,0,5.82-.87,5.76-4.95,0-2.92,1.53-4.65,4.49-5a7.51,7.51,0,0,0,4.67-2.64c1-1.11,2.17-1.62,3.21.05v21Z" transform="translate(99 99)"/><path class="cls-88" d="M338,160c4.65-1.27,7.81,2.76,12,3.62A56.4,56.4,0,0,0,361.14,165c8.55,0,17.18.77,25.52-2,.47-.15,1.17,0,1.42-.34,4.68-5.53,8.29-2.07,11.92,1.36v9c-1,1-2.1,1.74-3.62,1.37-3.06-1.06-4.7,0-5.16,3.24a7.29,7.29,0,0,1-5.53,6.4c-12.39,3.42-24.81,3.76-37.25.18-2.77-.8-5.12-2.34-5.33-5.26-.35-5-3.21-5.44-7.1-4.74a3.4,3.4,0,0,1-1-1.41,23.32,23.32,0,0,1-.2-8.81C335.09,162.09,335.94,160.52,338,160Z" transform="translate(99 99)"/><path class="cls-20" d="M397,174l3-1v19a8.55,8.55,0,0,0-1.78-.1c-.9,3.57-3.27,4.41-6.67,4.18-3.16-.21-2.74,2.48-2.49,4.29.66,4.78-1.44,5.84-5.87,5.72-11.13-.28-22.26-.1-33.39-.08-2,0-4,.11-5.8-1v-6c1.24-1.94,3.79-1.74,5.75-3.54-3.26-1.86-6.61-.73-9.68-1.22-1.67-.27-3.28-.59-4-2.39s.18-3.11,1.92-3.87c7.1-1.13,14.24-.42,21.36-.52,9.45-.13,18.9,0,28.35,0,7.47,0,7.45,0,7.72-7.34C395.53,178,395.27,175.72,397,174Z" transform="translate(99 99)"/><path class="cls-67" d="M-17-97c50,4.51,100.2,1.28,150.3,1.88s100.23.31,150.34,0c15.46-.08,31.07,2,46.4-1.9l4,0c-1.11,2.49-2.37,4.82-5.47,5.25-1.26.18-3.58,2.33-2.57-1.51.24-.94-.8-.74-1.37-.76-1.17,0-2.33,0-3.5,0q-162.63,0-325.26.07c-5.24,0-9.93-1.8-14.81-3Z" transform="translate(99 99)"/><path class="cls-4" d="M-96,13c.24-6.12-.66-12.29,1-18.34,1-3.87-2.49-7.78,0-11.66l2,1c2,1-.35,4.74,3,5,.21,2.79-.39,5.6.61,8.38.61,1.69.59,3.5-2.26,2.6C-93.42-.58-93,.91-93,1.71c.62,7.15-1.57,14.15-1,21.29,1.78,1.77,1.36,4.05,1.43,6.21-.18,2.71.65,5.65-1.92,8.08-1.92-2.62-.56-5.48-1-8.08C-95.8,23.81-94.84,18.37-96,13Z" transform="translate(99 99)"/><path class="cls-87" d="M93.83,229.08,75,205c-.48-2.43-2.59-3.79-3.8-5.75-.47-1.51-2.86-2.41-1.9-4.21.84-1.58,2.86-1.34,4.49-1.42,8.55-.42,17.16.77,25.67-.9,1.77-.35,2.67.95,3.44,2.28,4.22,1.88,5.88,6.2,8.82,9.3,1.11,1.15.73,4.16,3.09,3.6,2.74-.64,1.19-3.37,1.2-5q.13-69.69,0-139.37c0-2.17.13-4.33.2-6.49,2.95,1.22,2.07,3.91,2.09,6,.12,13,0,25.93.07,38.9q0,15.53,0,31.06c0,15.85,0,31.7,0,47.55.52,8.69-1.66,17.29-.85,26,.07.66,1.05-.26.49.09-.17.11-.31,0-.32-.38-.13-4.24-.91-8.51.46-12.71,2.09-1.38,4.46-1.15,6.76-1.15q54,0,108.08,0A17.13,17.13,0,0,1,239,193a3.56,3.56,0,0,1,1.53,1.18c1.16,8.86.21,17.76.51,26.64-.1,1.58.26,3.26-1,4.57-2.75,1.66-5.81,1.17-8.77,1.17q-63.12,0-126.24,0C101,226.54,97.18,226.65,93.83,229.08Z" transform="translate(99 99)"/><path class="cls-87" d="M51.06,194c4.08,8,11.15,13.81,16,21.3.44,2.27,2.88,3.78,2.42,6.39-1.79,3.32-5,2.87-7.94,2.89-14,.09-28,0-42,0q-44.71,0-89.43,0a112.72,112.72,0,0,0-16.43.75c-1.12-.22-1.55-1.09-1.94-2a35.14,35.14,0,0,1-.39-17.84,18.17,18.17,0,0,0,2.17-7.09c.35-3.21,2.17-4.66,5.24-4.88,2.16-.16,4.32-.13,6.48-.13,37.87,0,75.75-.06,113.63.08C42.9,193.49,47.09,191.64,51.06,194Z" transform="translate(99 99)"/><path class="cls-89" d="M150,304c-1.85,1.73-4.13.92-6.2.92Q34.41,305-75,305c-1.66,0-3.32,0-5,0-1,0-2.63,0-2.57.91.25,4.07-3.75,6.43-4,9.8-.57,6.4-1.91,12.78-1.41,19.27-3.81-1.71-1.8-5.21-2.46-7.89-.34-8.95,1.19-17.81,1-26.76-.24-3.6,1.53-6.78,2.2-10.2.45-2.34,2.68-3.23,5-3.52a58.52,58.52,0,0,1,7.49-.22q91.7,0,183.4,0c5.17,0,10.29-.66,15.45-.64,3,1.42,4.16,4.8,7,6.41.89,1,1.55,2.31,3,2.66,3.53.81,6.19,3.2,9.2,5,.83,1.49,2.32,1.77,3.81,2l1.95.21A4.56,4.56,0,0,1,150,304Z" transform="translate(99 99)"/><path class="cls-81" d="M94.22,249.91l.81,1A16.75,16.75,0,0,0,99.77,256c3.77,4.44,7.9,8.59,10.46,13.93-1,2.22-3,2.38-5,2.56-2.16.2-4.33.11-6.49.11H-73.57c-2,0-4,0-6,0-3.38,0-4.87,1.54-5.62,4.95-.87,4-.83,8.31-3,12-1.23,1.21-2.17.58-3-.49a27.66,27.66,0,0,1,.73-11.76c1.65-5.63.59-11.55,1.83-17.24,3.62-9.67,3.62-9.69,14.21-9.69q67.91,0,135.81,0C72.31,250.38,83.27,250.68,94.22,249.91Z" transform="translate(99 99)"/><path class="cls-90" d="M84,151.91c-8.2-4.85-16.16-3.23-24,.91-22.77,1.41-45.56.55-68.34.7-22,.14-43.95,0-65.93,0-8.17,0-9.47,1.05-11.36,8.77a7.22,7.22,0,0,1-1.26,3.22c-2.14,2.4-2.25,5-1.22,7.9a9.55,9.55,0,0,1,.2,5.43c-.58,2.39-1.88,3.5-4.33,2a5.21,5.21,0,0,1-1.1-3.75c.41-9.08-1.3-18.24.81-27.28,3.43-3,3.8-7.25,4.71-11.26,1.38-6.09,2.4-7.1,8.75-7.17,11.65-.13,23.3,0,34.95-.05q69.16,0,138.32,0c3,0,6-.5,8.78,1.17,2,5.9,1,11.9.59,17.88-1.74,2.35-4.35,1.88-6.74,1.95-2.78.08-5.56.11-8.32.31C86.86,153.3,85.64,151.5,84,151.91Z" transform="translate(99 99)"/><path class="cls-91" d="M-89,290c.12-5,2.17-9.66,2.24-14.7a4,4,0,0,1,4.49-4.3c1.33.06,2.66,0,4,0H103c2.48,0,5,.31,7.28-1.1,5.91,4.18,8.51,11.24,13.84,15.92-3,2-6.3,2.22-9.8,2.22Q19.16,288-76,288c-11,0-11.1.09-12,11-.06.66,0,1.33,0,2-2.67-.3-2.27-2.49-2.09-4C-89.81,294.65-90.63,292.11-89,290Z" transform="translate(99 99)"/><path class="cls-81" d="M128.92,272c-7.25-7.82-13.32-16.58-20-24.89-.93-1.91-.59-3.22,1.71-3.58a29,29,0,0,1,4.47-.17H229.25c1.16,0,2.32,0,3.48.05,5.45.28,6,.91,6.22,6.56.32,9.17-3.8,16.65-9,23.72a38.3,38.3,0,0,1-9.37.9c-28.74.08-57.47-.25-86.2.16C132,275.06,130.78,272.86,128.92,272Z" transform="translate(99 99)"/><path class="cls-92" d="M-92,181c5.66-1.06,3.26-5.38,2.26-7.7-1.49-3.46-1.89-6,1.42-8.16,1.56-1,1.24-2.57,1.32-4,.32-6,3.64-9.11,9.75-9.11q61.2,0,122.39,0c3.47,0,6.93.23,10.39-.81,1.47-.44,3.8-1.09,4.47,1.64L56.81,156c-1.67.84-2.22,2.45-2.79,4.05-2.18,4.18-3.46,8.69-4.91,13.15-.65-.29-.36-1-.72-1.46.31,1.05-.26,2.25.53,3.23L48.83,176a23.09,23.09,0,0,0,0,9l.08,1c-2.28.94-2.68-.74-3.19-2.28-.89-9.16-.89-9.16-10.26-9.16H-75.81a59.91,59.91,0,0,0-6,.17,3.47,3.47,0,0,0-3.5,3.47c-.69,6.1-2.77,11.88-4.2,17.82-.84,3,1.89,7.08-2.63,9-2-2.44-1.39-5.37-1.3-8.1.18-5.08-.87-10.23.78-15.23C-92.44,181.46-92.22,181.23-92,181Z" transform="translate(99 99)"/><path class="cls-83" d="M94.22,249.91C92.44,252.14,90,252,87.45,252q-81.69,0-163.37,0c-1.16,0-2.33,0-3.49,0-3.67.13-7.12.43-6.73,5.6A4.06,4.06,0,0,1-88,261c-2.19-2.37-1.17-5.32-1.47-8-.35-4.5.64-8.89,1.16-13.31a5.26,5.26,0,0,1,2.7-4.47c2.88-1.14,5.9-.79,8.88-.8q72.3,0,144.6.05c4.48,0,8.89-.86,13.37-.54C87,238.06,89.16,245.17,94.22,249.91Z" transform="translate(99 99)"/><path class="cls-93" d="M239,250c-.62-4.56-3.43-5.11-7.57-5.09q-59.94.22-119.89-.05c-2.17,0-2.62.47-2.54,2.28-4.33-5.28-8.81-10.45-12.86-15.94-.71-.95-2-.89-2.26-2.11-.28-4.3,2.39-4.15,5.59-4.14q70.27.13,140.55.07c2.33,6,.53,12-.12,18A7.77,7.77,0,0,1,239,250Z" transform="translate(99 99)"/><path class="cls-90" d="M255,225c-1.27,3.58-1,7.31-1,11h0a.89.89,0,0,1-1.39-.34,12.68,12.68,0,0,1,.26-5c.7-28.53.54-57.08.31-85.62,0-4.17-1.78-7.94-2.31-12L327.7,133c2.15,0,4.34.23,6.3-1a11,11,0,0,1,4.28-1.05c4.24-.42,6.29,1.12,5.75,5.58a37,37,0,0,0,0,4.47c-6.83-1.71-8-.84-8,6v8c1,2.42-.88,2.83-2.46,3.25a20.64,20.64,0,0,1-5.44.37q-32.82,0-65.64,0c-2.46,0-5,.29-7.24-1.15-1.64-3.92-.11-8.07-1-12.57,1.43,22.52,1.87,44.53.24,66.55.25,4.15-.53,8.34.46,12.46Z" transform="translate(99 99)"/><path class="cls-94" d="M81.24,233.9c-2.3,2-5,2.14-7.93,2.13Q-6.34,236-86,236c-1.92-3.52-3.15-7.11-1-11,2.12-2,4.72-2,7.43-2q71.13.06,142.25,0c2.41,0,5.66,1.21,6.33-2.89a1.21,1.21,0,0,1,1.92,0c2.41,1.35,2.48,4.26,4.09,6.15a8.3,8.3,0,0,0,3.8,3.81C79.58,231.32,81.56,231.9,81.24,233.9Z" transform="translate(99 99)"/><path class="cls-95" d="M336,288c0,5,0,9.91,0,14.87,0,1.52.14,2.73-2.37,2.57C327,305,320.34,305,313.7,305Q260.84,305,208,305a1.21,1.21,0,0,1,0-1.83,71.33,71.33,0,0,0,18.8-8.62c2,.33,2.26-1.56,3.23-2.56a14.16,14.16,0,0,1,5.94-5.11c3.34,2.17,7,2.64,10.94,2.63,25.45-.07,50.91-.14,76.37.06C327.64,289.59,331.68,287.84,336,288Z" transform="translate(99 99)"/><path class="cls-96" d="M47,184a1.83,1.83,0,0,0,2,2c-.54,3,1.77,5.22,2.11,8-27.22,2.25-54.48.56-81.71,1-16.3.25-32.61.1-48.91,0-3.28,0-5.73,0-5.71,4.52,0,2.1.06,5.16-2.73,6.52-2.28-2.9-1.74-6.34-1.08-9.4A100.05,100.05,0,0,0-87.6,186c1.6-3.61,4.85-3.62,8-3.63,12.33,0,24.65,0,37,0q40.72,0,81.43,0C41.64,182.4,44.58,181.94,47,184Z" transform="translate(99 99)"/><path class="cls-97" d="M133,274a9.39,9.39,0,0,1,4.81-1q44.42,0,88.83,0c1.16,0,2.35-.15,3.32.71L226.85,277a14,14,0,0,0-3.87,3.92l0,0c-1.15.41-2.62.4-2.79,2.11a15.8,15.8,0,0,1-8,4,3.42,3.42,0,0,1-1.83.44,5.39,5.39,0,0,0-1.39,0c.4.22,1,.06,1.23.58l-6.2,1.85c-.85-.69-1.87-.38-2.82-.43-.29,0-.67-.17-.87.24.54-.24.85,0,1.08.48A4.89,4.89,0,0,1,198,291c-2.94,0-5.9-.17-8.82.51-4.82.06-9.65,0-14.47,0a37.45,37.45,0,0,0-7.16-1.26c1.08,1.4,4-1.33,4.46,1.67a20.68,20.68,0,0,1-11.24-1.74c.43-.55.89-.85,1.47-.19a1,1,0,0,0-1-.47c-1.07.1-2.2-.3-3.19.41-8.73-2-16.79-5.34-23.05-12.08C134.45,276.47,132.41,275.92,133,274Z" transform="translate(99 99)"/><path class="cls-97" d="M336,288a15.67,15.67,0,0,1-9.74,3c-27.57-.07-55.15,0-82.72-.06-3.2,0-6.81.47-7.6-4.11.64-3.3,3.18-5.38,5.05-7.88,3.75-1.28,7.64-1,11.49-1,22.82,0,45.64-.2,68.46.13,6.2.09,11.59-.23,15.06-6.13,2.2,3,1.89,6,0,9C334.79,283.33,335.91,285.67,336,288Z" transform="translate(99 99)"/><path class="cls-96" d="M240,194H118a21.53,21.53,0,0,1,0-10.31c2.36-1.69,5.1-1.26,7.73-1.27q32.92-.06,65.87,0,7,0,14-.28a4.83,4.83,0,0,1,3.25,1.85c4.76,4.86,7.19,4.32,10-2.23a3.53,3.53,0,0,0,3.15.51c4.29.32,8.58.24,12.87.31,2,0,4-.1,5.56,1.5C241.09,187.42,241.74,190.76,240,194Z" transform="translate(99 99)"/><path d="M150.3,70.11c-1.06-7,.34-14-1.23-21-2.2-9.87-10.71-18.53-20.44-18.87-8.53-.31-14.78,4.42-18.94,11.56a34.63,34.63,0,0,0-4.12,24.43c.1.55-.28,1.18-.44,1.78a3,3,0,0,1-2-1,28.66,28.66,0,0,1-5.36-12.66c-.15-5.4-.51-10.83,1.9-15.92a29.88,29.88,0,0,1,1.65-4.17,29.7,29.7,0,0,0,3.13-4.48c1.31-1.9,3.49-2.87,4.92-4.64A15.69,15.69,0,0,1,114.75,22a46.88,46.88,0,0,0,4.64-1.94,19,19,0,0,1,6-1.38c2.1,0,4.21-.07,6.31,0a50.2,50.2,0,0,1,9,2.32c2.69,1.27,5.11,3,7.76,4.41a35.54,35.54,0,0,1,11.28,21.17c.71,2.86-.19,5.63-.46,8.43a16,16,0,0,1-.32,2.06,36.06,36.06,0,0,1-1.83,5.17c-.81,1.62-1.57,3.26-2.48,4.82C153.46,68.51,152.48,70.18,150.3,70.11Z" transform="translate(99 99)"/><path class="cls-98" d="M207,183a26.06,26.06,0,0,1-7.82,1q-40.55-.08-81.1,0c-.85-1.06-.4-2.31-.51-3.48.34-2.67-.77-5.49.78-8.05a6.57,6.57,0,0,1,3.8-1c16.11,0,32.23-.51,48.3.25,2.17-1,1.14-3,1.15-4.42.08-10.83.06-21.66,0-32.5,0-4.77,0-9.53,0-14.3,0-1.93-.26-4,1.39-5.54,1.36,1.91.83,4.11.84,6.19q.06,24.08,0,48.15c0,2.86.28,5.5,2.17,7.76s4,2,6,.18l1.86-2.31c1.13-.87,1.53-2.5,3.09-2.92,6.24-.68,12.48-1.22,18.68.32,1.73,1.19,1.24,3,1.37,4.68a13.13,13.13,0,0,0,.34,3.9C207.51,181.68,207.65,182.42,207,183Z" transform="translate(99 99)"/><path class="cls-99" d="M172,173H118c-1-4.33-.56-8.69-.24-13.05,6.19-2.8,12.6-1.32,19-1a3.4,3.4,0,0,1,2.38,3.05,6.75,6.75,0,0,0,1.19,1.84c1.92,1.95,4,3,6.67,1.34l1.2-1.2c1.45-.81,2.3-2.49,4.07-2.85,5,.24,9.92.46,14.88.44,1.8,0,3.68,0,5.11,1.42C172.51,166.34,172.9,169.68,172,173Z" transform="translate(99 99)"/><path class="cls-98" d="M62,187.09a3.29,3.29,0,0,1-.81-3.14,6.43,6.43,0,0,0-.09-4.93A13.89,13.89,0,0,1,66,168c1.67-.64,3.31-1.37,5-1.9a8.08,8.08,0,0,1,8.15.86l1.89.24A16.06,16.06,0,0,0,84.77,171c.37,2.6,2.84,3.52,4.24,5.3.38,2.17,3,3.32,2.63,5.83-1.26,3-4,3.18-6.63,3.29-4.3.18-8.6.16-12.89,0A24.41,24.41,0,0,0,62,187.09Z" transform="translate(99 99)"/><path class="cls-96" d="M62,187.09c.79-2.33,2.32-3.21,4.85-3.14,6.24.16,12.49.08,18.73,0,2.29,0,4.75.07,5.46-3,.58-.66,1.18-.55,1.79,0,2.18,4.57,6.8,7.14,9.41,11.38.53.87,1.17,1.55.7,2.62-.85-.47-1.87-1.54-2.52-1.34-10,3.08-20.31.23-30.47,1.66C69.7,197.25,72.36,198,72,200a.7.7,0,0,1-1.14.05C67.76,195.82,63.37,192.48,62,187.09Z" transform="translate(99 99)"/><path class="cls-23" d="M139,163.06c-1.13-.75-1-1.94-1.05-3.05-2.71-4.76-1.06-9.92-1.38-14.89-.13-4.69-.15-9.37,0-14.06-.14-4.06-.13-8.13,0-12.19-.17-8.47-.21-17,0-25.41-.09-8-.13-16,0-24,.06-3.55-.59-5.17-4.76-4.43-4.37.77-8.93,1.08-13.33-.42-1.94-3.47-.84-7.06-.43-10.63,1.34-2.63,3-4.91,6-5.87,2.35.53,4.78-.63,7.1.36,2.18.29,2.77,3,5,3.27,2.51,2.75,2.84,6.16,3,9.64a9.58,9.58,0,0,1,.42,3.94q0,47.16,0,94.32C139.47,160.82,139.74,162,139,163.06Z" transform="translate(99 99)"/><path class="cls-90" d="M240,194V184c-2.38-3.28-1.31-7-1.44-10.6-.06-4.93,0-9.88,0-14.82-.07-5.65-.5-6-6.31-6.12a16.94,16.94,0,0,1-2.47,0c-4.74-.74-7.57,1-8.07,6-2.25,2.07-1.82-.91-2.69-1.43,0-2.67.07-5.33.11-8a5.26,5.26,0,0,0,.73-1.08c-.07-2,1.09-3.86.37-5.87a9.52,9.52,0,0,1,6.82-8c2.31.16,4.63-.25,6.94,0,1.19.43,2.52.58,3.3,1.76,0,1.24.7,1.8,1.84,2a4.71,4.71,0,0,1,2,3.9c.87,14.25.23,28.51.42,42.76,0,3,.09,6-.07,9A.9.9,0,0,1,240,194Z" transform="translate(99 99)"/><path class="cls-59" d="M171.05,108.9a5.53,5.53,0,0,1,1.8,4.14c-1.2,2.74.75,5.92-1.23,8.55a42.37,42.37,0,0,1-19.27,0c-2.86-2.52-.22-5.81-1.19-8.6,3.62-9.49,8.56-12,15.92-8.07A7.37,7.37,0,0,0,171.05,108.9Z" transform="translate(99 99)"/><path class="cls-61" d="M186.05,173a1.88,1.88,0,0,1-2.2,1.94l.38-1c.65-12.56.09-25.14.3-37.71,0-1.79-.41-3.64.42-5.38a12.67,12.67,0,0,1,9-11.77c5-1.73,11.1,3.06,13.15,9.44a3,3,0,0,1,0,2.62,3.84,3.84,0,0,1-1.52.92c-3.74.77-7.53.35-11.31.41-6.64.1-6.76.18-6.8,7,0,3.29.06,6.58,0,9.87.27,6,.09,12,.09,18C187.55,169.36,187.48,171.38,186.05,173Z" transform="translate(99 99)"/><path class="cls-92" d="M87,152c5.23-2.08,10.68-.51,16-1l.6.73c.3,6.83,1.4,13.69-.66,20.44C98.13,169.78,96.46,164.6,93,161c-.15-2.51-2.24-3.54-3.8-5L88,154.77C87.5,153.9,86.31,153.29,87,152Z" transform="translate(99 99)"/><path class="cls-100" d="M139,163.06l.09-101.64c1.12,6.77.48,13.6.51,20.39.14,24.83,0,49.65,0,74.48,0,2.67-.13,5.34,1.57,7.65-.36.52-.76.54-1.18.06Z" transform="translate(99 99)"/><path class="cls-101" d="M103,151V133c-2.67-4.06-1.19-8.58-1.46-12.91-.1-5.29-.18-10.59,0-15.89.06-1.61.14-3.21,1.51-4.36,2.57.9,1.27,3.07,1.33,4.62.39,8.84-.46,17.7.49,26.53q0,15,.07,30c-2.27,0-1.28-1.79-1.44-2.85-.34-2.37.55-4.83-.54-7.15Z" transform="translate(99 99)"/><path class="cls-102" d="M150.3,70.11,154,66.87c.88,3.73,2.07,7.3,4.83,10.13-2,3.1-5.13,4.94-7.77,7.33C148.83,79.68,150.24,74.86,150.3,70.11Z" transform="translate(99 99)"/><path class="cls-103" d="M206.89,131.13c.08-.86.16-1.73.23-2.59,1.08,1.08.77,2.49.77,3.77,0,16.23,0,32.46,0,48.69-.32.49-.63.49-.94,0-1.17-.74-.94-1.93-1-3,1.48-3-.38-5.83-.4-8.75q-.08-17,0-33.9A5.7,5.7,0,0,1,206.89,131.13Z" transform="translate(99 99)"/><path class="cls-104" d="M151.05,162a3.11,3.11,0,0,1-2.87,2,11.33,11.33,0,0,0,2-7.35c-.13-12.24-.08-24.49,0-36.74,0-1.77-.5-3.65.66-5.29a75.46,75.46,0,0,1,1.63,16c0,9.41-.14,18.82.08,28.22A2.87,2.87,0,0,1,151.05,162Z" transform="translate(99 99)"/><path class="cls-67" d="M118,54V64c1.44,1.61,1.52,3.61,1.52,5.59,0,7.58.18,15.15-.09,22.73-.12,3,.45,6.15-.79,9.1a1.11,1.11,0,0,1-1.51.57c0-13.43,0-26.86-.16-40.29,0-1.57.76-3.34-.74-4.7C116.86,56,117.45,55,118,54Z" transform="translate(99 99)"/><path class="cls-105" d="M152,160c-1.56-1.5-.9-3.43-.91-5.17-.13-13.41-.19-26.81-.27-40.21l.36-1.57c1.73,2.5.43,5.33.87,8,2.55,3.58,1.28,7.68,1.51,11.56a65.58,65.58,0,0,1-.07,8.41c.22,4.65.13,9.29.06,13.94C153.5,156.72,153.48,158.59,152,160Z" transform="translate(99 99)"/><path class="cls-106" d="M241,185c-.46-13.31.81-26.65-.66-40-.12-1.06.45-2.2.7-3.31,1.85,5.17,1,10.54,1.08,15.82.06,9.15-.12,18.3-.19,27.46C241.63,185.47,241.33,185.44,241,185Z" transform="translate(99 99)"/><path class="cls-98" d="M185,130.87q0,19.66.06,39.32c0,1.3.29,2.68-.78,3.77V134.18C184.23,133,184.12,131.85,185,130.87Z" transform="translate(99 99)"/><path class="cls-107" d="M241,185H242c.34,12.33.43,24.65,0,37-1.42.07-1.32-1-1.38-1.88.26-8.69-.56-17.41.46-26.09C241,191,241,188,241,185Z" transform="translate(99 99)"/><path class="cls-108" d="M104.91,131c-2-6.41-.33-13-.93-19.46-.36-3.84,1.09-7.84-1-11.53a1.62,1.62,0,0,1,.07-2.28l1.72.36C105.42,109.05,105.17,120,104.91,131Z" transform="translate(99 99)"/><path class="cls-109" d="M219,157l2,2c2.53,3.83,1.1,8.06,1.22,12.13a6.91,6.91,0,0,1-.39,1.55c-.62,1.11-1,2.51-2.74,2.3Z" transform="translate(99 99)"/><path class="cls-110" d="M253,236h1l-1.92,14c0,1.7-.24,3.27-2.1,4l2.16-18C252.43,235.51,252.72,235.51,253,236Z" transform="translate(99 99)"/><path class="cls-90" d="M103,151c2.56,2.95-.57,7,2,10a3.71,3.71,0,0,1,0,3,10.63,10.63,0,0,0-.1,7c-.34.93-.39,2.36-2,1.18Z" transform="translate(99 99)"/><path class="cls-98" d="M241,221l.91,1v1c-1.13,4.8.32,9.75-.83,14.55a5.08,5.08,0,0,1-1.21,5.41l.12-18,0-4C240.33,220.54,240.66,220.56,241,221Z" transform="translate(99 99)"/><path class="cls-111" d="M172,121c.47-2.63-.85-5.46.89-8,.05.65.11,1.29.16,1.94q-.12,10-.25,20a1.22,1.22,0,0,1-1.48-.71C170.34,129.79,169.62,125.32,172,121Z" transform="translate(99 99)"/><path class="cls-112" d="M103.93,67l1.2,1q0,7.19-.07,14.36c-1.48-.48-3.2-.58-3.9-2.36,1.67-2.11,1.65-4.6,1.54-7.1C103.34,71,101.2,68.5,103.93,67Z" transform="translate(99 99)"/><path class="cls-113" d="M79.13,167c-2.71-.07-5.43-1.34-8.13.05a1.26,1.26,0,0,1,0-1.9C74,164.39,77.18,163,79.13,167Z" transform="translate(99 99)"/><path class="cls-114" d="M174,291h16l.35.45-.36.44-16,0c-.34-.2-.45-.41-.34-.61S173.89,291,174,291Z" transform="translate(99 99)"/><path class="cls-93" d="M241.06,237.57c.28-4.85-1.05-9.8.83-14.55C241.75,227.87,242.2,232.77,241.06,237.57Z" transform="translate(99 99)"/><path class="cls-115" d="M234,134.09a6.08,6.08,0,0,1-6.94,0C229.34,132.78,231.65,132.44,234,134.09Z" transform="translate(99 99)"/><path class="cls-116" d="M140,164l1.18-.06c1.77,1.22,3.78,1.3,5.82,1.24C144,168.94,142,166.05,140,164Z" transform="translate(99 99)"/><path class="cls-117" d="M132,49c-2.65-.35-5.46.88-8-.83a8.89,8.89,0,0,1,8,0q.44.27.3.54C132.2,48.89,132.1,49,132,49Z" transform="translate(99 99)"/><path class="cls-16" d="M212,107c.13,1.4,2.95,2,1.17,4L207,105C209.08,104.56,210.41,106.09,212,107Z" transform="translate(99 99)"/><path class="cls-118" d="M133,274c.53,1.35,2.13,2.13,2,3.82-2.67-1.26-4.45-3.43-6.06-5.8C130.68,271.84,131.61,273.38,133,274Z" transform="translate(99 99)"/><path class="cls-119" d="M89.23,156c2.27.9,4.82,1.57,3.8,5C91.56,159.48,89.92,158.11,89.23,156Z" transform="translate(99 99)"/><path class="cls-92" d="M219.09,175l1.91-2c1.89,2.74,2,5.43-.19,8.08-2.67-.46-.35-3.05-1.73-4.06C219.08,176.34,219.09,175.66,219.09,175Z" transform="translate(99 99)"/><path class="cls-120" d="M171.05,108.9c-2.82.53-3.33-2.48-5.21-3.4l1.24-.54A7.33,7.33,0,0,1,171.05,108.9Z" transform="translate(99 99)"/><path class="cls-121" d="M150,304a2,2,0,0,1-1-2l6,1.92C153.35,305.88,151.67,303.91,150,304Z" transform="translate(99 99)"/><path class="cls-122" d="M70.93,220l-1.92,0c-2.16-1-2.08-2.88-2-4.79A13.52,13.52,0,0,1,70.93,220Z" transform="translate(99 99)"/><path class="cls-123" d="M174,291v.92l-2,0c-1.31-1.7-3.53-.2-5.18-1.51A9.43,9.43,0,0,1,174,291Z" transform="translate(99 99)"/><path class="cls-96" d="M48.87,185a10.38,10.38,0,0,1,0-9Q48.86,180.5,48.87,185Z" transform="translate(99 99)"/><path class="cls-124" d="M192.25,102.14c-.41-.3-1.3-.93-1.05-.93,2.61,0,5.38-1.14,7.79.77Z" transform="translate(99 99)"/><path class="cls-125" d="M99.77,256A5.81,5.81,0,0,1,95,250.9,9.74,9.74,0,0,1,99.77,256Z" transform="translate(99 99)"/><path class="cls-126" d="M78.82,230c-2.77.23-4-1.11-3.8-3.81C77.09,226.63,78.06,228.2,78.82,230Z" transform="translate(99 99)"/><path class="cls-127" d="M190,307a8.77,8.77,0,0,0,0-.89.63.63,0,0,1,.8-.21h6.93l0,1.09H190Z" transform="translate(99 99)"/><path class="cls-128" d="M132,49c0-.27,0-.55,0-.82,2.15.31,3.11,2,4.1,3.62C133.32,52.92,133.28,50,132,49Z" transform="translate(99 99)"/><path class="cls-129" d="M190,291a7.53,7.53,0,0,1,8-.06l-.33.22-.4-.07A13.18,13.18,0,0,1,190,291Z" transform="translate(99 99)"/><path class="cls-130" d="M250,260l-1.12,0c.48-1.74-.15-3.71,1-5.32C250.79,256.4,251.39,258.18,250,260Z" transform="translate(99 99)"/><path class="cls-131" d="M208,303.16V305c-1.65-.26-3.53.7-4.94-.9C204.71,303.94,206.14,302.46,208,303.16Z" transform="translate(99 99)"/><path class="cls-132" d="M182,177.26c-2.09,2.67-4.1,2.83-6-.18A8,8,0,0,0,182,177.26Z" transform="translate(99 99)"/><path class="cls-133" d="M70.86,200.05,72,200a4.72,4.72,0,0,1,3,5Z" transform="translate(99 99)"/><path class="cls-134" d="M92.79,181,91,181c-.78-1.53-2.41-2.71-2-4.74C90.54,177.63,92.11,179,92.79,181Z" transform="translate(99 99)"/><path class="cls-135" d="M223,280.94a4.13,4.13,0,0,1,3.87-3.92A6.55,6.55,0,0,1,223,280.94Z" transform="translate(99 99)"/><path class="cls-97" d="M190,291l7.26.1c-2.31,1.22-4.79,1-7.26.8Z" transform="translate(99 99)"/><path class="cls-136" d="M147.06,301.87c-2,.64-3.46.41-3.81-2A4.94,4.94,0,0,1,147.06,301.87Z" transform="translate(99 99)"/><path class="cls-137" d="M219.08,177c1.37,1.07.76,2.61.95,4a1.41,1.41,0,0,1,0,2c-1.62.73-.66-1-1.19-1.26Z" transform="translate(99 99)"/><path class="cls-138" d="M71,165.1V167l-5,1C67.13,166.13,69.23,165.91,71,165.1Z" transform="translate(99 99)"/><path class="cls-139" d="M104.93,171a5.87,5.87,0,0,1,.1-7Z" transform="translate(99 99)"/><path class="cls-43" d="M87,152c.33.92.66,1.85,1,2.77-1.75-.35-2.67-1.87-4-2.86C85.06,150.39,86,151.77,87,152Z" transform="translate(99 99)"/><path class="cls-140" d="M220.2,142.05A6.45,6.45,0,0,1,220,149c-.9-1.74-.57-3.53-.19-5.32Z" transform="translate(99 99)"/><path class="cls-141" d="M84.77,171A4,4,0,0,1,81,167.19,5.34,5.34,0,0,1,84.77,171Z" transform="translate(99 99)"/><path class="cls-142" d="M220.17,283.08c-.7-2.86.86-2.74,2.79-2.11A4.77,4.77,0,0,1,220.17,283.08Z" transform="translate(99 99)"/><path class="cls-129" d="M230,292c-.91,3.16-1.13,3.33-3.23,2.56Z" transform="translate(99 99)"/><path class="cls-143" d="M134.05,294.89c-2.4.7-2.59-1.12-3-2.66A3.4,3.4,0,0,1,134.05,294.89Z" transform="translate(99 99)"/><path class="cls-144" d="M54,160.06c-.1-2.05.21-3.83,2.79-4.05A9.91,9.91,0,0,1,54,160.06Z" transform="translate(99 99)"/><path class="cls-145" d="M223.15,119.07c.11-2.3,1.07-2.58,3.83-1.12Z" transform="translate(99 99)"/><path class="cls-146" d="M210.17,288.08l-2.22-.31.06-.72h4.15A2.24,2.24,0,0,1,210.17,288.08Z" transform="translate(99 99)"/><path class="cls-147" d="M207,181h.94l.94,3a2,2,0,0,1-1.91-1Z" transform="translate(99 99)"/><path class="cls-92" d="M219.84,143.67c.06,1.77.13,3.55.19,5.32h-.93A11.4,11.4,0,0,1,219.84,143.67Z" transform="translate(99 99)"/><path class="cls-148" d="M253,236h-.86c0-1.82-.49-3.7.73-5.36C252.92,232.43,253,234.21,253,236Z" transform="translate(99 99)"/><path class="cls-149" d="M239.1,137.82c-.7,1.11-1.29.42-1.86-.13s-1.08-1.24,0-1.84A2.88,2.88,0,0,1,239.1,137.82Z" transform="translate(99 99)"/><path class="cls-150" d="M61.06,179c1.46,1.62,1.33,3.26.09,4.93A6.67,6.67,0,0,1,61.06,179Z" transform="translate(99 99)"/><path class="cls-151" d="M201.36,290.22c-.43-.19-1.11-.28-1.25-.6-.3-.68.43-.58.78-.6,1.12,0,2.3-.2,3.08.91Z" transform="translate(99 99)"/><path class="cls-152" d="M48.92,175c-1.37-1.08-.78-2.5-.91-4,1.36.49.62,1.61,1.1,2.22Z" transform="translate(99 99)"/><path class="cls-153" d="M158,289.9c.79-1,1.93-.93,3-.87.32,0,.62.33.92.52l-1.22.6Z" transform="translate(99 99)"/><path class="cls-2" d="M-92,109c-1.92-2.11-.61-4.67-1-7a11.29,11.29,0,0,0,1.57-5.67c.42-4.79.73-9.62,3.65-13.8,1.4-2,1.15-4.47,1.3-6.77.25-4,2.31-6.05,6.3-6.24,2.16-.1,4.33-.09,6.49-.1,49.38-.06,98.76.12,148.13-.1,2.8-.24,3.38,2,4.36,3.87.84,1.59,1.52,3.26,2.49,4.78A9.8,9.8,0,0,0,85,82c2.61,2.17,4,5.25,6.09,7.86,1.69,2.09,1.46,3.63-1.32,4.31a31.6,31.6,0,0,1-7.46.4H-73c-1.5,0-3,0-4.49,0-6.8.11-7.2.48-8.52,7-.61,3-.49,6.43-3.65,8.38C-90.79,110.52-91.47,109.93-92,109Z" transform="translate(99 99)"/><path class="cls-7" d="M-95,29v6.82l1,0V29c3-1.64,3.67-4.24,3.66-7.47,0-3-1-6.42,2.34-8.53h1c1.92-1.72,4.3-1.61,6.62-1.61q80.38,0,160.78,0c2.72,0,5.81-.55,7.55,2.57l-4.83,6.27c-1.36.88-2.49,1.89-2.19,3.74-2.34,6.25-5.77,12.14-6.08,19a52.28,52.28,0,0,0,0,14l2.28,12a1.16,1.16,0,0,1-1.55,0c-3.3-5-3.49-10.7-4-16.36a53.19,53.19,0,0,1,2.12-19.23c.49-2.22-.24-3.55-2.64-3.75-1.33-.11-2.66-.12-4-.12H-77.64c-.83,0-1.66,0-2.5,0-7.29.31-11,3.92-11.18,11.25-.12,3.65.14,7.32-.63,10.93a3.85,3.85,0,0,1-1,1.48c-2.2.65-2.47-.67-2.59-2.38-.13-2,.56-4-.49-5.84V29C-95.67,28.55-95.33,28.55-95,29Z" transform="translate(99 99)"/><path class="cls-6" d="M88,14c-2.12-1.34-4.49-1-6.8-1H-87c-.36-2.9.49-5.8-1-8.77C-89.09,2-86.54.86-84.77.2c1.18-.44,2.63-.19,4-.19H94.77C100,0,100,0,99.36,4.15,95.06,6.86,91.73,10.68,88,14Z" transform="translate(99 99)"/><path class="cls-35" d="M-91,110c4.24-2.52,3.33-7.2,3.71-10.8.54-5.21,2.82-6.27,7.4-6.26Q2.56,93.08,85,93a33.17,33.17,0,0,1,4,0c2.93.34,2.17-1.59,2.06-3.16,4.73,1.52,7.39,6.21,12,7.85,0,.76,0,1.52-.07,2.28,0,1.33,0,2.67,0,4-2.75,2.23-6,1.57-9.13,1.57q-81.86.06-163.72,0c-1.66,0-3.33,0-5,0-7.71.09-10.36,2.4-11.59,10-.51,3.15-.76,6.64-5.57,5.37v-4C-90.65,114.81-92.3,112.2-91,110Z" transform="translate(99 99)"/><path class="cls-154" d="M158.83,47.32c-1.17-8.33-5.56-15-10.87-21.2-3-4.13-4.56-9.06-7.36-13.3A1.49,1.49,0,0,1,141,11c2.88.77,5.74,1.57,8.12,3.5C156.41,22.7,160,33,165.51,42.27c2,3.39,4.29,6.79,3.65,11.1L168,60c-5-2.06-5.78-7.33-8.42-11.18,0-.32-.07-.64-.08-1,0-.8,0-1.61,0-2.41C159.34,46.09,159.62,46.9,158.83,47.32Z" transform="translate(99 99)"/><path class="cls-155" d="M104,73c-1,2.33,2.41,6.42-2.84,7-7.67-7-12.37-15.52-13-26a21.67,21.67,0,0,0,0-8.93A6.86,6.86,0,0,1,90,38.87,3.42,3.42,0,0,1,91.21,42C90.28,54.48,98.45,63.2,104,73Z" transform="translate(99 99)"/><path class="cls-156" d="M169.16,53.37C164.89,42.43,158.81,32.46,153,22.3c-1.41-2.48-2.59-5.19-3.92-7.77,1.83,1,3.81,1.74,4.8,3.77,1.71,1.52,2.8,3.74,5.15,4.53C167,31.49,170.49,41.64,169.16,53.37Z" transform="translate(99 99)"/><path class="cls-157" d="M104,73c-2.33-.14-3.3-1.85-4.32-3.62-3.1-5.38-6-10.94-8.92-16.37-2-3.74-.66-9.36-.81-14.14a4.82,4.82,0,0,1,.11-.85c3,.56,2.07,3.83,3.63,5.35.92.9.5,4.2,3.51,1.85,1.11-.86,1.18,1,1.28,1.87.26,2.63-.51,5.31.44,7.89a54.86,54.86,0,0,0,5,12.06C104,69,104,71,104,73Z" transform="translate(99 99)"/><path class="cls-158" d="M98.92,55c-2-2.7-.26-5.85-1.15-8.73-1.59.45-.17,2.26-1.49,3.15C93,46.31,91.68,42.07,90.06,38c-.28-3.15,1.46-5.55,3-8,2.39,0,1.53,2.41,2.54,3.47,1.33,1.4,1.37,4.15,4.22,3.94a1.64,1.64,0,0,1,1.12.58C98.9,43.5,98.57,49.2,98.92,55Z" transform="translate(99 99)"/><path class="cls-159" d="M100,38c-1.1,1.26-2.43,2-3.27,0-1.13-2.71-3.35-4.93-3.66-8,1.12-2.45,2.11-5,4.9-6.13,2.94,1.43,3.84,5.27,7.24,6.17-.22,1.83-.83,3.39-2.75,4.07C100.9,35,101.26,37,100,38Z" transform="translate(99 99)"/><path class="cls-160" d="M160,49c3.85,2.8,4.57,7.9,8,11-.06,2.57-1.18,4.78-2.31,7-4.59-.56-6.88-3.53-7.75-10l.19-2C160,53.38,158.78,50.81,160,49Z" transform="translate(99 99)"/><path class="cls-161" d="M140.92,22.41,132,19.87c-.31-.27-.62-.56-.93-.84a10.37,10.37,0,0,1-1.15-1.55c-1.58-2.64-3.48-5.13-3.88-8.32,3.42-.91,6.65.52,10,.8C137.24,14.27,141,17.56,140.92,22.41Z" transform="translate(99 99)"/><path class="cls-162" d="M140.92,22.41c-1.46-4.22-5.71-7.34-4.92-12.45A6.8,6.8,0,0,1,141,11c2.43,5,6.23,9.33,7,15.09C145.24,25.58,143.25,23.66,140.92,22.41Z" transform="translate(99 99)"/><path class="cls-163" d="M105.2,30.05c-5.66,1.75-4.89-4-7.24-6.17.12-3.47,3.9-3.56,5.37-5.79,3.72,1.36,4.45,5.19,6.54,7.91C109,28.17,106.51,28.42,105.2,30.05Z" transform="translate(99 99)"/><path class="cls-164" d="M109.87,26c-3.48-1.57-4.18-5.43-6.54-7.91a12,12,0,0,1,6.29-4.23,2.74,2.74,0,0,1,1.33-.14,2.35,2.35,0,0,1,.65,1.17c-.09,3.17,3.16,4.92,3.37,8Z" transform="translate(99 99)"/><path class="cls-165" d="M158.78,77c-4.67-1.92-5.92-5.46-4.83-10.13.12-1.89,1.26-3.31,2.19-4.83,3.29,3,4.79,6.93,5.92,11.08C161.67,75,159.77,75.62,158.78,77Z" transform="translate(99 99)"/><path class="cls-166" d="M162.06,73.12c-2.89-3.2-4.54-7.07-5.92-11.08.61-1.68,1.22-3.37,1.82-5,2.19,3.64,3.13,8.25,7.75,10A16.23,16.23,0,0,1,162.06,73.12Z" transform="translate(99 99)"/><path class="cls-167" d="M111,15V14c1.52-1.22,3.42-1.76,5-2.89a.7.7,0,0,1,.8-.21c.9-.05,1.7-1.35,1.85,1.25.19,3.37,4.38,5,6.35,7.78l-5.6,1.18C113.6,23.16,112.84,18.35,111,15Z" transform="translate(99 99)"/><path class="cls-168" d="M126,9.16c2.45,2.5,3.59,5.74,5,8.84-1.47,1.41-3.25.93-5,.8-3.63-1.63-5.91-4-4.18-8.29C123.28,10.19,124.32,8.63,126,9.16Z" transform="translate(99 99)"/><path class="cls-169" d="M121.84,10.51C122,13.68,123,16.38,126,18c1.84,1.3,4.15-.25,6,1v.87l-7,.07c-5.36-.62-5.82-5.7-8.2-9C118.33,9.06,120.17,10.86,121.84,10.51Z" transform="translate(99 99)"/><path class="cls-170" d="M76,69l1.16,0c2.52,2.45,2.85,6.13,4.94,8.83C82.62,79,82,79.12,81,79c-1.75-3-2.63-6.39-5-9A.8.8,0,0,1,76,69Z" transform="translate(99 99)"/><path class="cls-43" d="M74.88,57a23.68,23.68,0,0,1,0-14Z" transform="translate(99 99)"/><path class="cls-171" d="M159.07,22.83c-3.31.31-4-2.39-5.15-4.53C156.38,19,157.62,21,159.07,22.83Z" transform="translate(99 99)"/><path class="cls-172" d="M88.14,45a10.25,10.25,0,0,1,0,8.93A28.45,28.45,0,0,1,88.14,45Z" transform="translate(99 99)"/><path class="cls-173" d="M116,11.12c-1.12,1.89-3,2.55-5,2.89l-1.38-.15A12.68,12.68,0,0,1,116,11.12Z" transform="translate(99 99)"/><path class="cls-174" d="M80.93,24c-.75-2.78-.12-3.85,2.19-3.74Z" transform="translate(99 99)"/><path class="cls-34" d="M81,79l1.1-1.22L85,82C83,81.9,81.87,80.6,81,79Z" transform="translate(99 99)"/><path class="cls-6" d="M-88,13c-1.86,3.59-1.08,7.47-.89,11.17.21,4.08-1.37,5.37-5.11,4.83V23c1.82-1.49,2-3.54,2-5.68C-91.84,14.88-91.1,12.8-88,13Z" transform="translate(99 99)"/><path class="cls-175" d="M-84,359c.33,1,.66,2,1,3,.94,2.08.28,3.09-2,3q-3.51-8-7-16c1.67-1.4.76-3.32,1-5,1.76-.22,1.8,1.1,1.94,2.23.51,4.43,2.52,8.21,5.06,11.77Z" transform="translate(99 99)"/><path class="cls-176" d="M-85,365a3,3,0,0,0,2-3c5.2,2.27,4.39,6.71,4,11-2.71-.65-2.78-3.36-3.8-5.2-.71-1.28-1.23-1.17-2.2-.8Z" transform="translate(99 99)"/><path class="cls-177" d="M233.76,116.77h-5.2C230.66,115.44,232.3,116.32,233.76,116.77Z" transform="translate(99 99)"/><path class="cls-99" d="M255.06,157c25.2,0,50.4,0,75.6-.07,1.86,0,4.54,1.34,5.34-1.94,3.64.48-.19,3.94,2,5-3.36,3.92-1.55,8.63-2,13-1.92,1.73-4.31,1.6-6.63,1.61q-34,0-68,0c-2.15,0-4.37.15-6.26-1.22A47.62,47.62,0,0,1,255.06,157Z" transform="translate(99 99)"/><path class="cls-178" d="M381,350a3.69,3.69,0,0,0,2.41-3.13c1.07-5.3,6.42-9.32,10.74-8.88,1.18.12,2.15.22,2.84,1.5,1.44,2.63.14,11.92-1.3,14.57S393.85,360,393,363c-2.81,0-1.31,3.18-3,4-2.83-3.35-3.47-7-1.49-11a17.1,17.1,0,0,0,1-2.26c.45-1.41,1.19-3-.56-4-1.52-.84-2.57.44-3.26,1.51-3.63,5.61-8.68,10-12.9,15.09-.78,1-1.5,2-2.89,2.12a1.52,1.52,0,0,1-1.24-.75c-.36-3.57.09-6.7,4.3-7.73A68.78,68.78,0,0,0,381,350Z" transform="translate(99 99)"/><path class="cls-179" d="M372,366c4.81-5.79,9.64-11.58,14.43-17.38,1-1.21,1.86-1.55,3.32-.49,1.67,1.21,2.77,2.31,1.52,4.44-2.7,4.6-3.36,9.4-1.27,14.43-2.16.51-2.87,2.46-4,4-.65,2-1.61,3.72-4,4v1h-1c-1.32-3.87,1.78-8-1-11.86C377.23,363.61,376.42,373,372,366Z" transform="translate(99 99)"/><path class="cls-80" d="M382,375l4-4C385.58,373.25,386.38,376.72,382,375Z" transform="translate(99 99)"/><path class="cls-18" d="M368,393c.19-1.57-.68-3.67,2-4C370.09,390.71,369.82,392.24,368,393Z" transform="translate(99 99)"/><path class="cls-65" d="M-54,381a11.91,11.91,0,0,1-2.63-1.21c-2-1.54-3.53-3.81-1.79-6s3.93-.68,5.7.76c2.85,2.32,5.93,4.14,9.72,4.4,4.59-1.34,8.44,1.39,12.25,2.85a58.57,58.57,0,0,0,21.47,3.6q165.86-.12,331.72-.05c6.32,0,12.66.25,18.78-1.9a3.61,3.61,0,0,1,3.78.5,3.27,3.27,0,0,0,4,0c.48,4-.62,5.95-5.28,6.27-3.6.25-7.23.72-10.87.72q-176.58,0-353.17,0c-4.12,0-8.24-.7-12.36-1-2.1-.14-2.39-1.49-2.3-3.1.11-2.18-1-3-3-2.88-1.7-.94-3.57-1.61-5-3h-2C-48,381.33-51,378.37-54,381Z" transform="translate(99 99)"/><path class="cls-65" d="M-54,381c.26-2.3,1.28-3.28,3.65-2.25,1.77.77,3.86.79,5.35,2.25-1.59,3.11,3.53,4,2.29,7,4.77.44,2.54,4.6,3.71,7-2.93.24-5.09-.55-6.11-3.7s-4.54-2.84-6.9-4.1c-3.42-1.83-3.54-1.73-.5-4.24C-51.66,382.26-51.66,382.26-54,381Z" transform="translate(99 99)"/><path class="cls-65" d="M-43,381c2.06.35,3.94,1,5,3C-40.58,384.52-42.19,383.42-43,381Z" transform="translate(99 99)"/><path class="cls-178" d="M345,384c-10.31,4.33-21.18,3-31.87,3q-162.93.07-325.87.13a48.81,48.81,0,0,1-17.81-3.48C-34.69,382-38.85,380.54-43,379c-5.38-3.89-11-7.55-15-13a2.55,2.55,0,0,1-1.3-3.82c2.28-1.77,3.6-.64,4.3,1.59s1.74,4.19,4.41,4.56a5.79,5.79,0,0,1,3.94,2.7c2.17,3.77,5.69,5.21,9.7,5.91A7.39,7.39,0,0,1-34.64,378c5.18.87,10.31,2.65,15.49,2.63,115.3-.63,230.6-.1,345.9-.09,7.8,0,15.29-1.5,22.92-2.24a6.41,6.41,0,0,1,2.05-1.37c3.94-1,7.56-2.47,9.53-6.46a4,4,0,0,1,2.8-1.93c1.69.18,3.21-1.18,4.95-.56h1a1.53,1.53,0,0,1-.26,2.5c-3,1.74-4.75,4.83-7.74,6.5-5.22.95-9.46,4.75-14.89,5.15A2.73,2.73,0,0,0,345,384Z" transform="translate(99 99)"/><path class="cls-66" d="M362,377c1.45-4.08,6.47-5,8-9l2-2c1.69,1,3.52,3.32,4.52-.72.21-.85,1.2-1.56,1.94-2.2s1.43-2.13,2.82-1.45c1.06.52.63,1.74.71,2.68.34,3.95,1.21,7.95-1,11.69a4.38,4.38,0,0,0-3.92,3.17A14.41,14.41,0,0,1,367,388c1.37-2.16,4.13-4.43-.89-5.76,1.54-2.08,3.54-.32,5.16-1.63,1.87-1.5,2.87-2.84,2.76-5.25-.1-2-1.5-2.34-2.89-2.77a3.66,3.66,0,0,0-4.83,2.23C365.44,377.24,363.78,377,362,377Z" transform="translate(99 99)"/><path class="cls-178" d="M-67,377c-2.74.26-4-1.49-5.32-3.55a54.44,54.44,0,0,1-8-17.94A2.77,2.77,0,0,0-83,353h0c-.56-3.08-1.55-6.09-1.41-9.26.1-2.43-.44-5.36,2.49-6.5a8.34,8.34,0,0,1,8.85,1.59c3.54,2.94,4.71,7.09,6.07,11.17h0a2.22,2.22,0,0,1,.33,2.73c-2,1.76-3.28,0-4.66-1.09-1.14-.92-2.24-2.31-3.85-1a2.78,2.78,0,0,0-.43,3.68C-71.74,360-73.92,367.75-69,373c.61,1,2.16,1.45,2,3,.26.22.34.45.25.67S-66.92,377-67,377Z" transform="translate(99 99)"/><path class="cls-180" d="M-69,373c-3.21-3.19-6.62-6.17-5.06-11.58,1-3.32-3.78-4.71-3.23-8.36.23-1.54-.66-3,1.32-4.1a3.4,3.4,0,0,1,4.79.94c1.14,1.42,2.06,3,4.18,3.1l.52.45c1.39,3.54,4.51,5.53,7.17,7.94l.31.61a6.71,6.71,0,0,0,1,4c-2.91,2-4-.82-5.66-2.16-.74-.59-1.31-1.7-2.44-1.32s-.94,1.65-.87,2.56C-66.76,368-69.89,370-69,373Z" transform="translate(99 99)"/><path class="cls-180" d="M-67,377v-1a3,3,0,0,1,2.94,1.57c2.09,5.51,6.09,9,11.41,11.15,2,.83,1.59,2.66,1.65,4.28-.25.24-.65.54-.83.4-5.49-4.34-12.61-7-15.17-14.4Z" transform="translate(99 99)"/><path class="cls-24" d="M-67,379c4.14,6,10.51,9.52,16,14v1c-6.85-1.54-11.09-6.87-16-11.22C-67.59,382.22-67,380.29-67,379Z" transform="translate(99 99)"/><path class="cls-59" d="M-92,121c3.1-.28,4-2,4.07-5,.07-8.29,3.93-12,12.07-12H103v16c-2.75,2.23-6,1.56-9.13,1.57q-83.67.06-167.34,0c-2,0-4,0-6,0-3.57,0-6,1-6.69,5.08-.5,2.75-2,5.48-5.85,4.3Z" transform="translate(99 99)"/><path class="cls-34" d="M76,69v1c-1.64,1.73-3.77,1-5.67,1Q-4,71-78.42,71C-85,71-85.06,71-85,77.72a10.91,10.91,0,0,1-2.65,7.65c-2.54,3.16-1.75,7.56-2.28,11.41-.33,2.38-1,4.13-3.11,5.22V77l.18-.94c.64-7,2.78-13.6,5.44-20.08a6.37,6.37,0,0,1,5.95-4.44c1.5-.11,3-.13,4.49-.13q70.89,0,141.79,0c2.78,0,5.72-.48,8.12,1.58C73,58.52,74.81,63.71,76,69Z" transform="translate(99 99)"/><path class="cls-61" d="M-92,131c3-1.05,5.49-2.25,4.48-6.33-.65-2.65,1.4-4,3.63-4.46a22.82,22.82,0,0,1,5-.2H103v13q-91,0-182-.08c-4.77,0-6.87.72-7.49,6.31-.39,3.51,1,9.7-5.55,10.77-2.14-3-2-6,0-9Z" transform="translate(99 99)"/><path class="cls-181" d="M-92,141v40h0c-1.8.95-2.37,0-2.45-1.61-.1-1.8,0-3.59,0-5.38,1.46-1.86.8-4.1,1-6.18-.21,1.61.15,3.26-.31,4.86A.8.8,0,0,1-95,173h0V110.17h1c0,8.66-.06,17.32,0,26C-93.93,137.89-95.06,140.36-92,141Z" transform="translate(99 99)"/><path class="cls-182" d="M-96,45c1.56,1.29.88,3.07,1,4.66s-.13,3.11,2,3.34c1.72,1.69,1.53,3.91,1.57,6,.09,6,.14,12.09-1.57,18h0c-2.78.48-1.76,2.7-2,4.35-.52,3.54,1.13,7.27-1,10.65Z" transform="translate(99 99)"/><path class="cls-59" d="M-91,110c-.39,2.32.92,4.89-1,7v-8Z" transform="translate(99 99)"/><path class="cls-183" d="M-94,173c.85,2.62-2,6.17,2,8v24c2.7,4.62,1.38,9.53,1,14.37-.8,1.94-1.72,3.8-1.75,6,0,1.49.12,3.44-2.26,3.6-1.81-1.75-.67-4-1-6,0-16.67,1.71-33.31,1-50Z" transform="translate(99 99)"/><path class="cls-41" d="M-95,29h-1V13C-93.88,18.22-95.54,23.68-95,29Z" transform="translate(99 99)"/><path class="cls-184" d="M-95,229c1.52-1.24.93-3,1-4.51,0-1.82,0-3.6,2-4.49,2.51,2.89,1.13,6.37,1.37,9.59.18,2.48,0,5,.16,7.47.17,6.78.06,13.56-.15,20.34,0,1.64,0,3.34-1.38,4.6-3-1-1.84,1.37-2,2.52-1.91,15.73-.65,31.53-1,47.3,0,1.75.66,3.71-1,5.18-2-2.68.18-5.35.13-8.05C-96.14,293.64-96,278.32-96,263Q-95.5,246-95,229Z" transform="translate(99 99)"/><path class="cls-185" d="M-89,290c1.76,3.54-1.54,7.53,1,11q-.5,13-1,26c-.68,2.16-.93,4.54-3,6-1.81-1.75-.67-4-1-6,2.91-5.44-1.14-10.48-1.11-15.81,1.76-.13.59,1.71,2.11,2V294c1.23-1.49-.18-3.5,1-5Z" transform="translate(99 99)"/><path class="cls-186" d="M-92,262V237c1.09-2.67.15-5.47.55-8.17s.61-5.69,4.45-5.83v2q.5,5.5,1,11a68.09,68.09,0,0,0-2,17c-1.63,1.87-1.46,4.19-1.7,6.44-.18,1.75.49,4.07-2.3,4.56Z" transform="translate(99 99)"/><path class="cls-187" d="M-92,264c1.8-1.79,1-4.07.93-6.09-.07-2.49.68-4.12,3.07-4.91v8c0,7,.4,13.94-2.72,20.61-1,2.06-.24,4.91-.28,7.39-.24,1.68.67,3.6-1,5Z" transform="translate(99 99)"/><path class="cls-188" d="M-92,333c-.18-2.59,1.93-4,3-6,.44,2.65-1,5.54,1,8-1.11,8.09,1,15.62,4,23-3.94-1.52-4.35-5.16-5.44-8.56-.58-1.8.2-4-1.56-5.44C-92.19,340.41-90.39,336.55-92,333Z" transform="translate(99 99)"/><path class="cls-79" d="M-67,350c-3.28-2.63-3.32-7.28-6.75-10.12a8,8,0,0,0-7.78-1.55c-2.59.65-1.31,3.38-1.42,5.2-.19,3.14,0,6.31,0,9.47-3.5-5.23-3.17-11.13-3-17,1.62-2.43,1.2-5.63,3-8v-1c5.23-1,7.67,1,9.14,6.31C-72.27,339.05-66,343-67,350Z" transform="translate(99 99)"/><path class="cls-78" d="M-83,328c.06,3.06.14,6.13-3,8C-86.88,332.63-86.76,329.63-83,328Z" transform="translate(99 99)"/><path class="cls-189" d="M336,281v-9c4.28-1.67,6.4,1.75,6.41,4.37,0,3.41,1.36,3.55,3.7,3.63,3.85.13,6.94.95,6.12,6-.31,1.93,1.27,2,2.65,2q11.7,0,23.41,0c1.45,0,2.76-.22,2.46-2.18-.69-4.58,2.06-5.73,5.81-5.78,2.92,0,5.69.4,5-4.35-.24-1.61,2.25-4.15,4.35-4.09s2.06,2.62,2.11,4.44c.05,2,0,4,0,6-2.34-1.2-4.15-.91-3.75,2.13.6,4.64-2,5.69-5.75,5.87a8.16,8.16,0,0,0-1,0c-1.69.26-4.6-.81-4.63,1.46s2.89,1.26,4.56,1.52a9.88,9.88,0,0,1,2.9.7c-7.58,2.29-14.92,4.55-23.14,4.62s-15.81-2.12-24.07-4.13c1.45-1.57,3-1.05,4.33-1.18,1.16-.1,2.71,0,2.77-1.44s-1.47-1.5-2.63-1.54a20.12,20.12,0,0,1-3.48-.08c-2.71-.62-5.23-1.68-4.47-5.22C340.35,281.46,338.45,281,336,281Z" transform="translate(99 99)"/><path class="cls-190" d="M190,307c-5.2,2.36-10.57.15-15.86,0H190Z" transform="translate(99 99)"/><path class="cls-79" d="M-67,353v-3c2.75-.16,4.31,1.18,5.11,3.77a12.91,12.91,0,0,0,1.81,3.52c.78,1.12,1.91,2,3.4,1.41a2.32,2.32,0,0,0,1.32-3.3c-1.27-3,.43-3.48,2.83-3.4.83,0,1.66,0,2.5,0q206.94,0,413.89,0c3,0,7.19-1.37,5.44,4.71-.49,1.7,1.64,3.07,3.7,3.27-3.44,1.61-2.58,5.38-4,8-1.4.08-2.06,3.09-4,1-1.17-.38-2.63-.57-3.24.48-2.38,4-6.09,3.35-9.74,3.16-1.33-.07-2.66,0-4,0q-193.65,0-387.31.06c-3.08,0-6-.11-8.06-2.9-.87-1.17-2.28-1.24-3.66-.76-3.51,1.12-4.44-1.53-4.86-3.86-.38-2.09-.79-3.37-3.14-3.14C-61.78,359.1-65.21,356.78-67,353Z" transform="translate(99 99)"/><path class="cls-97" d="M248.3,276.64c-1.44.37-2.86.93-3.81-.62-.15-.25.39-1.3.81-1.46C247.12,273.9,247.82,275.08,248.3,276.64Z" transform="translate(99 99)"/><path class="cls-191" d="M337,189c-1.1,2.94.27,4,3,4h8c2,0,3.79.33,3.88,2.78.1,2.61-2,2-3.54,2.25s-2.89.64-4.33,1c-1.61-4.47-6.56.28-8.18-4a9,9,0,0,0-.76,1.76c-.29,8.24-.29,8.24-8.73,8.24H255.05c-1-7.06-.67-14.12-.15-21.18,1.48-1.34,3.34-1.38,5.16-1.39,25-.11,50.09,0,75.14-.11C337.85,184,337.78,186.4,337,189Z" transform="translate(99 99)"/><path class="cls-192" d="M255.06,184q0,10.5,0,21l-.09,7q-.42.74-.69-.06V142.27l.79,0V157q0,8,0,16A10.43,10.43,0,0,1,255.06,184Z" transform="translate(99 99)"/><path class="cls-193" d="M254.27,211.92a2.65,2.65,0,0,0,.69.06c0,4,0,8,0,11.92C253.18,220,254.29,215.92,254.27,211.92Z" transform="translate(99 99)"/><path class="cls-98" d="M255.06,184q0-5.5,0-11H336v1c3.69,3,1.8,6,0,9a27.08,27.08,0,0,1-8.31,1Q291.38,184,255.06,184Z" transform="translate(99 99)"/><path class="cls-194" d="M336,183c-.55-3,2.28-6,0-9,5.71-3.6,7.27-2.91,8,3.67.23,2.11.84,4.31,3,4.67,4,.67,7.51,3,11.86,2.76,8.65-.56,17.39.78,25.91-2,3.49-1.15,5.36-2.94,5.25-6.66-.05-1.67-.14-3.54,1.88-4.13s4-.58,5.11,1.73a80.75,80.75,0,0,0,.06,8.94c.54,4.66-1,6.26-5.9,6.18-18.05-.3-36.11-.12-54.16-.12C335.81,187.14,336,185.06,336,183Z" transform="translate(99 99)"/><path class="cls-195" d="M118,160v13l-.06,8c-.29.48-.56.46-.81,0V133a1.13,1.13,0,0,1,1.5.6c1.42,3.84.62,7.83.78,11.76C119.14,150.24,120.79,155.34,118,160Z" transform="translate(99 99)"/><path class="cls-196" d="M118,133h-.81V102H118c3,5.32,1,11.09,1.48,16.64a103.61,103.61,0,0,1-.19,12A3.7,3.7,0,0,1,118,133Z" transform="translate(99 99)"/><path class="cls-197" d="M117.16,181a5.49,5.49,0,0,0,.81,0l.06,3v23.82h-.87Z" transform="translate(99 99)"/><path class="cls-96" d="M241,221h-1V194h1Q241,207.51,241,221Z" transform="translate(99 99)"/><path class="cls-198" d="M-87,223a9.61,9.61,0,0,0-4,8.9c.1,1.71.68,3.65-1,5.1V205c2-2.81.56-6,1-9,1.35-2.4,3-4.68,2.57-7.7-.12-.86.29-1.6,1.43-1.3,1.16,6.41-2.19,12.59-1,19C-87.7,211.67-88.81,217.42-87,223Z" transform="translate(99 99)"/><path class="cls-38" d="M75.22,147.53a5.89,5.89,0,0,1-4.48-.11A5.07,5.07,0,0,1,75.22,147.53Z" transform="translate(99 99)"/><path class="cls-98" d="M-87,187c-2,2.69-.08,7.15-4,9,1.45-6.65,4.41-13,4.08-20-.1-2,1.3-2.93,3.25-3,2.16,0,4.32,0,6.48,0H40.08C47,173,47,173,47,180c0,1.33,0,2.66,0,4q-64,0-128,0C-83.6,184-86.09,183.83-87,187Z" transform="translate(99 99)"/><path class="cls-98" d="M220.05,183c0-.68,0-1.35,0-2,1.94-2.47.55-5.34,1-8h0a25.05,25.05,0,0,1,19,0v11C233.35,183.63,226.62,184.9,220.05,183Z" transform="translate(99 99)"/><path class="cls-173" d="M111,15c3,1.74,3.38,7.1,8.38,6.12A8.11,8.11,0,0,1,115,22.85C112.9,20.61,110.14,18.72,111,15Z" transform="translate(99 99)"/><path class="cls-199" d="M160,49c-.67,2,1.54,4.86-1.86,6,.23-2.56.45-5.12.68-7.68.12-.77.25-1.54.44-2.64C160.49,46.24,159.78,47.69,160,49Z" transform="translate(99 99)"/><path class="cls-200" d="M100,38c.28-1.64.57-3.26,2.46-3.88A5.52,5.52,0,0,1,100.94,38h-1Z" transform="translate(99 99)"/><path class="cls-92" d="M186.05,173V149c6.65-2.59,13.33-2.32,20-.21A130.32,130.32,0,0,1,206,173Z" transform="translate(99 99)"/><path class="cls-201" d="M206,173q0-12,0-24a23.25,23.25,0,0,1,0-18,3,3,0,0,1,.89.13q0,21.57.06,43.15c0,1.29.3,2.69-.93,3.68C206,176.31,206,174.66,206,173Z" transform="translate(99 99)"/><path class="cls-196" d="M172,135h.72q.08,18.71.16,37.41c0,.15,0,.4-.12.44a4.21,4.21,0,0,1-.8.17l0-10c-2.07-2.54-1.48-5.58-1.51-8.46,0-4.4-.18-8.81.09-13.21C170.62,139.12,170.18,136.78,172,135Z" transform="translate(99 99)"/><path class="cls-202" d="M172,141q0,11,0,22c-7-.21-14,.66-20.92-1l.93-2q0-9.48.05-19A27.47,27.47,0,0,1,172,141Z" transform="translate(99 99)"/><path class="cls-202" d="M118,160V145a27.44,27.44,0,0,1,19.9,0v15Z" transform="translate(99 99)"/><path class="cls-203" d="M118,93V64c5.78-.24,11.64.71,17.34-1,3.17-1,2.62,1.33,2.62,3.07q0,13.49,0,27A27.78,27.78,0,0,1,118,93Z" transform="translate(99 99)"/><path class="cls-204" d="M118,93H138q0,13,0,26A27.7,27.7,0,0,1,118,119L118,102Z" transform="translate(99 99)"/><path class="cls-205" d="M137.93,145H118L118,133l.06-2a27.47,27.47,0,0,1,19.91,0Z" transform="translate(99 99)"/><path class="cls-61" d="M137.94,131H118V119H138Q138,125,137.94,131Z" transform="translate(99 99)"/><path class="cls-92" d="M240,173H221V159c.12-9.06-1.09-7.95,7.82-8C240,151,240,151,240,162.1Z" transform="translate(99 99)"/><path class="cls-206" d="M172,141H152V121H172q0,7,.08,14C172,137,172,139,172,141Z" transform="translate(99 99)"/><path class="cls-205" d="M206,131l0,18H186.05c0-4.78.07-9.56-.08-14.33-.09-2.77,1-3.8,3.73-3.73C195.13,131.1,200.57,131,206,131Z" transform="translate(99 99)"/><path class="cls-43" d="M-93,77V53h0a88.2,88.2,0,0,0,4.33-13.67c1-4.47,3.63-6.48,8-6.8,1.33-.09,2.65-.12,4-.12q72.08,0,144.14,0c2.59,0,5.38-.53,7.58,1.57a58.3,58.3,0,0,0-2,19q-76.35,0-152.69-.07c-4.13,0-6,.65-6.66,5.53-.39,3-2.49,6.16-3.23,9.62-.42,2-1.46,3.89-1.39,6C-91,75.59-91.22,76.82-93,77Z" transform="translate(99 99)"/><path class="cls-182" d="M75,34H-78.73c-7,0-6.45.43-8.59,7.15-1.27,4-1.23,9.18-5.68,11.85.59-5.42-.63-10.9.61-16.3A11.18,11.18,0,0,1-81.26,28q38.94,0,77.88,0Q33.81,28,71,28C76.82,28,77.09,28.52,75,34Z" transform="translate(99 99)"/><path class="cls-207" d="M132,19c-2-.33-4.24.81-6-1h5Z" transform="translate(99 99)"/><path class="cls-208" d="M-51,369c1.77-3.1,3.65-1.71,5,.2s2.87,2.35,5.06,1.88a21.67,21.67,0,0,1,4.49-.08H350.35c1.83,0,3.76-.28,5.46.21,2,.57,2.93.15,4-1.59,1.29-2.12,3-4,5.2-.63-.84.51-2.16.83-2.45,1.56-1.73,4.43-5.37,6.24-9.55,7.44-1.83-2.14-4.36-.75-6.35-1.15,1.26.6,3.19-.48,4.35,1.15-.19,2.34-1.73,3.59-3.71,2.79-3.37-1.36-6.26-.25-9.08,1.09-3.81,1.8-7.51,0-11.23,0q-133.67.15-267.32.08c-23.49,0-47,.05-70.46,0-5.82,0-11.86,1.91-17.4-1.75-.76-.51-2.39-.25-3.36.2-2.74,1.26-3.58-.49-4.44-2.41,1.08-1.39,2.67-.78,4-1.05-2,.4-4.35-1.21-6,1.05-4.15-.71-7.73-2.28-9.65-6.36C-48.33,370.21-49.69,369.64-51,369Z" transform="translate(99 99)"/><path class="cls-79" d="M351,378h-8.41c.05-.65.11-1.3.17-1.95,3.32,1.56,7.34-3.86,10.24,1.95Z" transform="translate(99 99)"/><path class="cls-79" d="M-38,378c.18-1.62.69-2.89,2.71-2.61l8.35,1.14c-3.21,2.5-6.3,1-9.06,1.47Z" transform="translate(99 99)"/><path class="cls-178" d="M-67,353c2.88,2.81,6.58,4.89,8,9C-63.08,360.25-66.74,358.14-67,353Z" transform="translate(99 99)"/><path class="cls-183" d="M-94,173v-5.79c.79,2,1.77,3.94,0,5.79Z" transform="translate(99 99)"/><path class="cls-208" d="M138.43,364.84c.06,1-.69,1-1.31,1.06s-1.4,0-1.56-.77c-.2-.94.65-1,1.27-1.05A1.39,1.39,0,0,1,138.43,364.84Z" transform="translate(99 99)"/><path class="cls-208" d="M178.83,365.18c-.61.3-1,.63-1.37.63-.71,0-1.19-.46-.85-1.17.13-.27.8-.45,1.18-.39S178.38,364.76,178.83,365.18Z" transform="translate(99 99)"/></svg>