<svg id="图层_1" data-name="图层 1" xmlns="http://www.w3.org/2000/svg" viewBox="0 0 658 658"><defs><style>.cls-1{fill:#23d593;}.cls-2{fill:#fefefe;}.cls-3{fill:#c5f3e2;}.cls-4{fill:#f7f9f8;}</style></defs><title>触屏矫正</title><path class="cls-1" d="M-178,350V-49c1.95-4.13,1.15-8.67,1.53-13,1.32-14.8,7.62-27.76,14.26-40.54,11.1-21.35,27.19-38.41,46.91-52.05a146.92,146.92,0,0,1,46-21.07c4.42-1.17,9.31-1.25,14-1.37,2.15-.06,4.31.09,6.29-1H352c3.29,1.48,6.85.95,10.28,1.21,16.19,1.23,30.49,7.69,44.34,15.58,19.23,11,35.59,25.1,48.24,43.3a163.69,163.69,0,0,1,22,45.11c1.66,5.34,1.78,10.95,2.1,16.5.15,2.47.1,4.95,1,7.3V350c-1.48,5.42-.68,11-1.53,16.54-2.19,14.11-7.64,27-14.45,39.39a151.16,151.16,0,0,1-24.48,32.49c-9.94,10.21-21.4,18.34-33.52,25.7-10.46,6.35-21.92,10.21-33.56,13.45A40,40,0,0,1,360.3,479a19.66,19.66,0,0,0-8.3,1H-51c-4.07-1.52-8.38-1.12-12.57-1.4-14.08-.92-26.12-7.39-38.28-13.56C-122,454.84-138,439.9-151.54,422a138.16,138.16,0,0,1-24.05-50.43C-177.35,364.6-176.87,357.17-178,350Z" transform="translate(178 178)"/><path class="cls-2" d="M357.82,168.45c0,58.5.2,117-.11,175.5-.1,18.65-13,36.06-29.13,43.85-8.18,3.94-16.77,5.13-25.86,5.12-103-.15-206,0-309-.2-18.18,0-31.72-9.35-41.66-24.23-6-8.94-8-18.76-8-29.46.14-115.17-.06-230.34.23-345.5,0-18.91,10-32.82,26.11-42.46,8.91-5.33,18.48-7,28.83-7,103,.17,206,0,309,.21,18.18,0,31.72,9.35,41.66,24.22,6,8.92,8,18.75,8,29.45C357.72,54.79,357.82,111.62,357.82,168.45Z" transform="translate(178 178)"/><path class="cls-3" d="M329,169V344.47c0,13.91-5.55,19.53-19.31,19.53H-7.71C-21.29,364-27,358.36-27,345V-7.94C-27-21.24-21.15-27-7.66-27h317.4C323.29-27,329-21.35,329-7.92Z" transform="translate(178 178)"/><path class="cls-1" d="M328,168.45V344.92c0,11.94-6.1,18.08-18,18.08h-318C-19.86,363-26,356.9-26,345v-353C-26-19.7-19.74-26-8-26h318C321.86-26,328-19.9,328-8Z" transform="translate(178 178)"/><path class="cls-4" d="M30.06,18.48c-.65,2.94-3,3.08-5.11,2.9-4.2-.36-6.72.6-6,5.58.29,2-.35,4.28-2.93,4.41-3,.16-3.59-2.28-3.28-4.49.73-5.12-2-5.88-6.11-5.48A12.49,12.49,0,0,1,2.7,21a2.51,2.51,0,0,1-2-2.56,2.72,2.72,0,0,1,1.75-2.76,3.91,3.91,0,0,1,1.91-.47c6.66,1.11,9.44-1.49,8.45-8.3a2.75,2.75,0,0,1,3.05-3.16c2.06.05,2.8,1.53,3,3.32A8.63,8.63,0,0,1,19,9.56c-.67,4.31.91,6.15,5.43,5.62C26.89,14.89,29.62,15.05,30.06,18.48Z" transform="translate(178 178)"/><path class="cls-4" d="M294.87,18.1A2.79,2.79,0,0,1,292,21a39.42,39.42,0,0,1-5,.09c-2.38-.13-3.35.91-3.19,3.25a15.59,15.59,0,0,1-.13,3.48c-.28,1.72-.91,3.35-3.07,3.25s-2.94-1.72-2.65-3.49c1-5.91-2-7.15-7.06-6.54-2,.25-4.85.56-4.91-2.64s2.79-3.27,4.78-3c6.12.89,8-1.78,7.17-7.45-.26-1.87.18-3.87,2.67-4s2.84,1.86,3.14,3.73a3.73,3.73,0,0,1,.05,1c-.76,4.94.82,7.47,6.32,6.7C292.06,15.17,294.25,15.59,294.87,18.1Z" transform="translate(178 178)"/><path class="cls-4" d="M34.88,323.24c-.3,2.42-2,3.06-4,2.82-5-.61-8,.41-7.21,6.42.25,1.83-.75,3.78-3.17,3.58S17.72,333.84,18,332c.7-5-1.51-6.61-6.17-5.88a13,13,0,0,1-3,0c-1.71-.11-2.84-.9-2.85-2.76a2.36,2.36,0,0,1,2.5-2.57c6.83.52,11.18-1.2,9.67-9.35C17.9,310,19.21,309,20.78,309a2.53,2.53,0,0,1,2.57,2,5.23,5.23,0,0,1,.45,2.42c-1,5.67,1.28,7.88,7,7.12C32.52,320.25,34.51,320.88,34.88,323.24Z" transform="translate(178 178)"/><path class="cls-4" d="M294.88,323.25c-.31,2.42-2,3.05-4,2.81-5-.63-8,.44-7.21,6.43.26,1.83-.76,3.78-3.17,3.57s-2.81-2.24-2.54-4.11c.71-5-1.54-6.58-6.18-5.86a13,13,0,0,1-3,0c-1.71-.11-2.84-.91-2.84-2.77a2.37,2.37,0,0,1,2.51-2.56c6.86.54,11.15-1.24,9.66-9.36-.25-1.38,1.07-2.34,2.65-2.37a2.53,2.53,0,0,1,2.56,2,5.22,5.22,0,0,1,.44,2.42c-1,5.7,1.32,7.85,7,7.11C292.53,320.25,294.52,320.89,294.88,323.25Z" transform="translate(178 178)"/></svg>