<svg id="图层_1" data-name="图层 1" xmlns="http://www.w3.org/2000/svg" viewBox="0 0 500 500"><defs><style>.cls-1{fill:#c2c2cc;}.cls-2{fill:#efeff1;}.cls-3{fill:#cbcbd5;}.cls-4{fill:#edecf1;}.cls-5{fill:#eeedf3;}.cls-6{fill:#f3f3f5;}.cls-7{fill:#f0f0f2;}.cls-8{fill:#f2f2f4;}.cls-9{fill:#f9f9fb;}.cls-10{fill:#ebeaef;}.cls-11{fill:#e5e4e9;}.cls-12{fill:#eae9ee;}.cls-13{fill:#e7e6eb;}.cls-14{fill:#b1b1bd;}.cls-15{fill:#e8e7ec;}.cls-16{fill:#e3e2e7;}.cls-17{fill:#d1d1db;}.cls-18{fill:#dadbe0;}.cls-19{fill:#dfdee4;}.cls-20{fill:#cdcdd7;}.cls-21{fill:#c9c9d3;}.cls-22{fill:#d4d4de;}.cls-23{fill:#e0dfe5;}.cls-24{fill:#cfcfd9;}.cls-25{fill:#d2d2d4;}.cls-26{fill:#e2e2e2;}.cls-27{fill:#d6d7dd;}.cls-28{fill:#f6f6f8;}.cls-29{fill:#cacad0;}.cls-30{fill:#b3b2be;}.cls-31{fill:#bcbcc7;}.cls-32{fill:#c5c5cf;}.cls-33{fill:#cecdd5;}.cls-34{fill:#c7c7d1;}.cls-35{fill:#b6b5c1;}.cls-36{fill:#bbbac6;}.cls-37{fill:#c8c8ce;}.cls-38{fill:#c2c1cc;}.cls-39{fill:#c5c3ce;}.cls-40{fill:#d9d9da;}.cls-41{fill:#e1e1e1;}.cls-42{fill:#d5d5d5;}.cls-43{fill:#e0e0e0;}.cls-44{fill:#c6c6d2;}.cls-45{fill:#c0c0cc;}.cls-46{fill:#bfbfca;}.cls-47{fill:#bfbfc9;}.cls-48{fill:#c9c9d2;}.cls-49{fill:#efeef3;}.cls-50{fill:#c9c9d4;}.cls-51{fill:#272636;}.cls-52{fill:#ccccd6;}.cls-53{fill:#d0d0d8;}.cls-54{fill:#d1d1d7;}.cls-55{fill:#f5f5f7;}.cls-56{fill:#f7f7f9;}.cls-57{fill:#ededf1;}.cls-58{fill:#fbfbfb;}.cls-59{fill:#dddedf;}.cls-60{fill:#dadada;}.cls-61{fill:#e3e2ea;}.cls-62{fill:#d9d9db;}.cls-63{fill:#dadadb;}.cls-64{fill:#dcddde;}.cls-65{fill:#d8d8d9;}.cls-66{fill:#dedee0;}.cls-67{fill:#d6d6d7;}.cls-68{fill:#dcdcdc;}.cls-69{fill:#afafbb;}.cls-70{fill:#b3b3bf;}.cls-71{fill:#d0d0da;}.cls-72{fill:#cacbd0;}.cls-73{fill:#cbcad3;}.cls-74{fill:#d4d3d9;}.cls-75{fill:#ceced3;}.cls-76{fill:#d3d4d8;}.cls-77{fill:#cfd0d4;}.cls-78{fill:#d7d6dc;}.cls-79{fill:#dcdbe3;}.cls-80{fill:#d7d8dd;}.cls-81{fill:#d9d8e0;}.cls-82{fill:#dddee3;}.cls-83{fill:#dcdcdd;}.cls-84{fill:#d9d9d9;}.cls-85{fill:#e0dfe7;}.cls-86{fill:#cfcdd8;}.cls-87{fill:#d2d2dc;}.cls-88{fill:#d5d6db;}.cls-89{fill:#e1e0e8;}.cls-90{fill:#dedfe3;}.cls-91{fill:#f3f2f5;}.cls-92{fill:#e6e6e8;}.cls-93{fill:#e3e3e7;}.cls-94{fill:#ececee;}.cls-95{fill:#e8e8ec;}.cls-96{fill:#fefefe;}.cls-97{fill:#dad9e1;}.cls-98{fill:#bfbfc8;}.cls-99{fill:#c2c2cb;}.cls-100{fill:#c0c0c8;}.cls-101{fill:#b8b8c4;}.cls-102{fill:#bfbfcb;}.cls-103{fill:#bbbbc7;}.cls-104{fill:#c4c4ce;}.cls-105{fill:#e6e5ea;}.cls-106{fill:#dddce4;}.cls-107{fill:#d0ced9;}.cls-108{fill:#d4d3de;}.cls-109{fill:#d7d5e0;}.cls-110{fill:#dfdee6;}.cls-111{fill:#e3e2e9;}.cls-112{fill:#dedde5;}.cls-113{fill:#d6d4df;}.cls-114{fill:#d3d3dd;}.cls-115{fill:#e8e7eb;}.cls-116{fill:#e0dfe4;}.cls-117{fill:#ebebed;}.cls-118{fill:#f9f9f9;}.cls-119{fill:#b5b5c1;}.cls-120{fill:#dbdbe0;}.cls-121{fill:#dfdfe3;}.cls-122{fill:#d6d6dd;}.cls-123{fill:#bdbdc9;}.cls-124{fill:#b9b8c5;}.cls-125{fill:#d4d3dd;}.cls-126{fill:#b2b2be;}.cls-127{fill:#8824fe;}.cls-128{fill:#4268fe;}.cls-129{fill:#9716fe;}.cls-130{fill:#9c11fe;}.cls-131{fill:#5852fe;}.cls-132{fill:#d4d2dd;}.cls-133{fill:#7b30fe;}.cls-134{fill:#4d5efe;}.cls-135{fill:#5d4dfe;}.cls-136{fill:#7635fe;}.cls-137{fill:#4862fe;}.cls-138{fill:#6248fe;}.cls-139{fill:#3d6dfe;}.cls-140{fill:#3475fe;}.cls-141{fill:#a20cfe;}.cls-142{fill:#2781fe;}.cls-143{fill:#6744fe;}.cls-144{fill:#802bfe;}.cls-145{fill:#1099fd;}.cls-146{fill:#3971fe;}.cls-147{fill:#901dfe;}.cls-148{fill:#6b40fe;}.cls-149{fill:#2a7ffe;}.cls-150{fill:#8428fe;}.cls-151{fill:#8f1efd;}.cls-152{fill:#a608fd;}.cls-153{fill:#2f7afe;}.cls-154{fill:#1891fd;}.cls-155{fill:#5259fe;}.cls-156{fill:#1494fe;}.cls-157{fill:#5358fe;}.cls-158{fill:#713afe;}.cls-159{fill:#703bfe;}.cls-160{fill:#2783fb;}.cls-161{fill:#6c3ffe;}.cls-162{fill:#7e9acf;}.cls-163{fill:#723afe;}.cls-164{fill:#2287fe;}.cls-165{fill:#1c8cfd;}</style></defs><title>超声波</title><path class="cls-1" d="M401,321v28a1.51,1.51,0,0,1-2.26-.17c.17-7.68-2.31-15-3.3-22.48-1.83-4.34-5.73-2-8.74-2.77,2.8,1,3.69,2.78,1.8,5-2,2.38-2.88,5.15-3.89,8-1.36,3.8-4.08,6-8.3,6-2,0-4,.05-6,.05H-56.53c-1.83,0-3.67-.08-5.5,0-4.49.13-7.45-2.19-8.56-6.23A30.72,30.72,0,0,0-75,327.56c.15-2.2-1.4-2.17-2.91-2.17-1.83,0-2.89.82-3.74,2.59a29.4,29.4,0,0,0-.42,25.33c0,1.91.47,4.19-2.71,3.9-2.23-3.62-4.1-7.38-4.56-11.69a255.57,255.57,0,0,1,.87-26.82c.49-4.86,2.9-8.86,5-12.88,1.82-3.49,5.68-2.45,8.93-1.25,2.37,5.34,9.43,6.19,11.46,11.94.33.94,1.71.86,2.7.91,1.66.07,3.33,0,5,0q212,0,424.09,0c4.27,0,8.19.46,10.85-4.51,1.76-3.27,6.81-3.8,8.64-7.87.84-1.89,2.37-3.52,3-5.64.74-2.41,2.22-4.09,5-4a2.29,2.29,0,0,1,1.73,1.72c-.18,7.29,1.4,14.42,2,21.64A4.27,4.27,0,0,0,401,321Z" transform="translate(99 99)"/><path class="cls-2" d="M401,1V13c-4.11,2.73-8.73,1-13.09,1.5-13.89,0-27.78.31-41.67-.12a9.52,9.52,0,0,1-2.6-.39c-2.93-2.27-5.73-.36-8.57.32a54.76,54.76,0,0,1-8.49.32q-201.88,0-403.79,0c-3.29,0-6.69.6-9.78-1.19-2-2.48-2.18-5.59-2.5-8.49-.41-3.63,2.17-5.35,5.35-6.12,2.28-.56,4.64-.29,7-.29q202.46,0,404.91,0c3.8,0,7.65-.82,11.41.45-3.33-1.47-6.78-.47-10.17-.47q-204.45-.06-408.9,0c-6.69,0-8.53-1.28-8.43-5.68.07-2.88,1.28-4.76,4.31-5.17a48.5,48.5,0,0,1,6.49-.23q201.95,0,403.9-.18c7.29,0,12.83,3.85,19.25,5.63,3.74,1,5.85,11.18,3.48,15.07,11.68-.45,23-1.35,34.27.48,1-.66,3.6.42,2.75-2.42a3.32,3.32,0,0,1-1.64-1.21,3.79,3.79,0,0,1-.15-3A2.94,2.94,0,0,1,386,.22C390.93,1.76,396.09-.91,401,1Z" transform="translate(99 99)"/><path class="cls-3" d="M401,253v21c-2.61.23-3.23-1.81-3.14-3.52.27-5.09-1.54-9.74-2.78-15.64-.89,5.35-4.88,8.28-5.26,12.91-.05.63-.51,1.45-1.14,1.54-5.24.75-8.92,5.65-14.72,5.2a95.28,95.28,0,0,0-14.92,0c-5.8.46-9.48-4.47-14.73-5.19a1.33,1.33,0,0,1-.93-1.1c-.41-4.81-4.69-8-5.47-12.72-.74,4.63-3,8.87-3,13.62-1,2.54-3.21,3.2-5.65,3.38s-5,.11-7.49.11H-73.89c-10.62,0-10.75,0-11.87,10.34-.63,5.75-2.59,11.39-1.57,17.28.89,6.22-.13,12.36-.8,18.53-.49,2.22-1.43,4.32-1.67,6.63-.18,1.64-.66,3.33-3,2.93a2.73,2.73,0,0,1-1.13-2.22,6.33,6.33,0,0,1,.13-1.74c.9-5.21.22-10.46.4-15.69s-.33-10.44.33-15.65c.29-9.73,5.09-18.88,3.68-28.83a9.09,9.09,0,0,1,.21-2.48c1.25-9.87,2.76-11.24,12.58-11.25H40.11a45.79,45.79,0,0,0,9.43-.62c2.33-.82,3.64.68,5,2.16,6.78,7.14,8.72,7.21,15.57.51a6.29,6.29,0,0,1,3.44-1.82,65.73,65.73,0,0,1,9-.27q68.9,0,137.78,0c3.28,0,6.77.51,9-2.9.87-.72,1.68-.93,2.31.32a17.4,17.4,0,0,1,.81,3.33c1.68,6.22,7.06,8,12,4,2-1.62,3.59-4,6.66-3.66q35.64,0,71.26,0c9.85,0,10.94-1,12-10.81.1-1,.07-2,.21-3a6.48,6.48,0,0,1,.9-3.35c4.15-1.33,5,1.65,5.59,4.54.46,2.21.24,4.59,2.66,5.87,2.21,3.92,5.56,5.06,10,4.91,8.47-.29,17-.08,25.43-.09,7.13,0,9.28-1.64,11.27-8.57a34.1,34.1,0,0,1,1.19-4.32c.77-1.73,1.74-3.33,3.95-3.23s2.55,1.87,3,3.46c1.08,3.7,1.13,7.53,1.41,11.34C400.09,249.88,399.89,251.57,401,253Z" transform="translate(99 99)"/><path class="cls-4" d="M401,21V32c-2.24,1.46-3.66.17-5.12-1.4-3.72-4-4.46-3.69-7.27,1.17-1.9,3.27-4.13,6.24-5.11,10.05-.68,2.66-3.42,3.5-6.05,3.59-7.33.26-14.67.29-22,0-3.8-.15-6.32-2.15-6.84-6-.55-4.2-4.37-6.51-5.7-10.36-.65-1.87-3.43-1.59-4.6.11-3,4.42-7.45,4.44-12,4.44q-63.74,0-127.48,0h-273c-2.33,0-4.66-.06-7,.15-3.51.32-5.94,1.68-6.46,5.61-.35,2.65-1.52,4.87-4.92,4.21C-95,41.89-94,39-95,36.79c.08-3.11-1.9-6.9,2.74-8.55.81-.23,1.66-.48,1.7-1.51.21-5.13,3.61-6.21,7.86-6.27,2.16,0,4.33,0,6.49,0H322c4.76,0,9.13.29,13-4.28s12.68-.9,13.85,5.17c.53,2.79,1.86,4.16,4.59,4.21,8.66.14,17.32.11,26,0,2.7,0,4.48-1.19,4.71-4.06.39-4.81,3.64-6.39,7.79-6.86s7.32.52,8.32,5.12A3.51,3.51,0,0,0,401,21Z" transform="translate(99 99)"/><path class="cls-5" d="M401,21A2.61,2.61,0,0,1,399,19.8a8.08,8.08,0,0,0-11.51-2.45c-1.2.84-2.42,1.64-2,3.6,1,4.26-1.78,5.89-5.26,6-9.15.22-18.32.18-27.47,0-3.35-.06-5.91-1.81-5.29-5.58s-2-4.58-4.21-5c-2.68-.46-6.67-2.09-8,1.26-1.75,4.4-4.68,4.37-8.31,4.37Q122.57,22-81.78,22c-7,0-7,0-6.82,6.78,0,1.24-.44,2.13-1.31,2.38-1.7.49-.8-2-2.09-2.16a6.52,6.52,0,0,1-1-6.47c.92-2.92,2.53-5.58,3.34-8.59A1.62,1.62,0,0,1-87,13H337c2-.9,4-1.32,6,0h2c3.09,1.77,5.8,3.75,6.2,7.78.23,2.26,2.24,2.72,4.13,2.77q11.19.3,22.38,0c2.13-.06,4-.75,4.26-3.27.38-3.81,3-5.72,6-7.29h13Z" transform="translate(99 99)"/><path class="cls-6" d="M401-26v7a19.63,19.63,0,0,1-12.72,3.63,6.91,6.91,0,0,0-3.46.36c-8.86,4.46-18.47,3.18-27.5,2.19-7.51-.83-15.41-1.71-22.6-4.83a13.09,13.09,0,0,0-5.39-.78q-203,.08-405.93,0c-5.86,0-10.35,1.61-12.84,7.2-.3,2.84.67,6-2.15,8.52-3.28-4.06-.89-8.84-2.17-13-.38-1.33-.83-2.65-1.2-4a8.57,8.57,0,0,1-.23-1.6,5.53,5.53,0,0,1,.93-3.79c1.77-1.41,3.26,1.45,5,.3,3.32-2.95,7.19-3.67,11.56-3.67q202.35.11,404.71.07c2,0,4.19-.45,5.93.44,8,4.13,13.45.14,18.39-5.6a5.64,5.64,0,0,1,4.45-1.9c8,0,16-.69,23.93.39,2.74,4.18,8.24,4.78,11.28,8.74,1.36,1.76,3.64.87,5.42-.18S399.71-28.28,401-26Z" transform="translate(99 99)"/><path class="cls-7" d="M-93-17c2.35,4.09,0,8.65,2,12.88V-11c3.19-4.21,7.48-5.63,12.67-5.62,23.82.09,47.65,0,71.48,0q165.21,0,330.41-.13c7.54,0,14.45,2,21.53,3.65,3.72.88,5.46,4.38,7,7.39,1.65,3.19,3.93,4.15,7.22,4.1,4.66-.08,9.33-.1,14,0,3.46.07,5.75-1,7.61-4.28,4-7,13-10.88,20.06-9.16v4c-3.12,2.71-6.24,5.33-10.76,5.38-2.09,0-3.37,1.21-3,3.57A3.28,3.28,0,0,1,386,1l-1,1c-.83,1-1.46,2,0,3h2c1.38,1.76-.41,2.73-1,4-1.89.87-3.54,4.36-5.89.39-.3-.51-1.87-.37-2.85-.37-7.34,0-14.67,0-22,0a9.37,9.37,0,0,0-1.5,0c-5.25.93-5.25.94-8-3.85l5-.45c-2.16-3.28-5-5.76-4.33-10,.2-1.21-2.51-1.68-4.23-1.78-2.6-.16-5.9,1.15-6.7-3.12-.08-.4-1.39-.72-2.16-.81a27.08,27.08,0,0,0-3.49-.06Q124.39-11-81-11c-3.66,0-6.75-.11-6,5.06.29,2,.9,3.07,3,3,1.5-.06,3,0,4.5,0H344.34c-.68,4.65-3.95,4.77-6.38,3.61a9.65,9.65,0,0,0-7-.7,21.83,21.83,0,0,1-5,.09H-79.46c-1.67,0-3.51-.4-5,.17-2.48,1-5.78,1.93-3.2,6,1.32,2.08.41,4.57.62,6.86-.46.17-1.31.32-1.32.5-.19,5.42-5.3,9.67-3.68,15.5-4,1.83-1.14,5.38-2,8l-.94-.08c-1.68-1.52-1.41-3.57-1.43-5.5-.07-6.21,0-12.42,0-18.64.39-7.9-.8-15.93,1.7-23.68,1.1,7.37,2,14.7.48,22.05l.82,0c-.48-7.81.71-15.66-.71-23.48A4.76,4.76,0,0,1-93-17Z" transform="translate(99 99)"/><path class="cls-8" d="M401-15c-4.61.4-8.54,3.09-13.34,3.54-2.39.22-5.91,4.5-6.09,8-.17,3.2-1.92,3.34-3.68,3.38q-11.49.26-23,0c-1.86,0-3.71-.37-3.37-3.58.3-2.81-6.45-7.8-9.33-8.36-33.64-6.58-67.61-2.49-101.39-2.71C137.34-15.42,33.86-15-69.61-15c-7.37,0-15-1.2-21.39,4a11.48,11.48,0,0,1,11.56-9q202.13,0,404.26.1c4.39,0,9.44-2.29,13.21,2.55.66.86,3.17.24,4.83.36,3.5.23,7.28-1,10.14,2.52.64.8,2.83.44,4.31.45,5.33,0,10.67.08,16,0,3.2-.05,6.52.81,9.19-2.37.83-1,3.47-.43,5.27-.61,3.45-.37,7.35,1.3,10-2.57.72-1,2.14.17,3.2.57Z" transform="translate(99 99)"/><path class="cls-9" d="M401-55v23c-3.52.16-4.1-2.48-4.21-5-.17-3.73-2-4.79-5.45-4.69-3.13.09-6.31.38-9.41-.44a3.87,3.87,0,0,1-1.34-.83c-.82-1-1.44-2.48-2.88-2.45-4.31.06-6.09-3.26-8.41-5.94a18.37,18.37,0,0,1-3.15-3.21c-2.81-4.59-6.8-6.49-12.14-6.07-2.22.18-4-1.11-5.84-2.4-5.27-3.68-10.54-7.52-17.72-5.66-2.38.61-5,.22-7.47.22q-165.95,0-331.89,0a60.09,60.09,0,0,1-10.47-.51,8.93,8.93,0,0,0-7.5,1.7,6.94,6.94,0,0,1-8,.68,3.54,3.54,0,0,1-1-3.57c4.26-4.92,10.05-6.17,16.07-5.94,4.32.17,8.63.5,13,.5H321.86a89.55,89.55,0,0,0,11.46-.53c6.12-.8,11.36,2,16.58,4.53,5,2.39,5.76,2.41,8.93-2,2.5-3.47,8.34-3.33,12,1.15,4,4.88,9.85,5.17,14.86,7.51,1.28.6,2.61,0,3.7-.9a3.65,3.65,0,0,1,1.48-.72,2.88,2.88,0,0,1,2.15.73c1.22,1.38,2.13,3,3.55,4.26C398.52-59.68,399.65-57.26,401-55Z" transform="translate(99 99)"/><path class="cls-10" d="M-93,43c2.3.1,3.66-.64,4-3.26C-88,33.49-86,32-79.24,32H308.52c7.33,0,14.66.09,22-.05,2.68-.05,5.37.15,6-4.07.51-3.24,4.17-1.66,6.45-1.78,1.92-.1,3.26.91,2.37,3.19-.68,1.73.22,2.89,1.37,3.92,2.06,1.83,3.5,3.78,3.39,6.83-.08,2.5,1.75,3.91,4.26,3.92q12.24.09,24.48,0c.78,0,2-.27,2.25-.8,2.3-4.48,5-8.9,6.34-13.69.58-2.08.62-3.55,2.8-3.35s5.82-1.77,6.33,2.48c.36,2.94,2.07,3.42,4.42,3.42v5c-2.15.68-3.7-1-5.6-1.42-5.13-1-7.38.52-8.07,5.7-.2,1.47-.22,3-1.15,4.24-2.21,1.66-1.64,4.14-1.92,6.39-.38,3.05-1.16,4.55-5.15,3.57-8.24-2-16.75-1.74-25.08-.15-4,.76-4.92.53-5.31-3.7-.21-2.29.14-4.7-2.07-6.33a5.94,5.94,0,0,1-.78-1.65c-1.45-8.27-2.79-9.21-10.9-7-4,1.06-7.92,1-11.91,1H-70.58c-12.72,0-12.72,0-16.88,11.87-.77,2.2-1.3,4.63-4.43,4.49-2.25-2.48-1.24-5.68-1.88-8.52A3.06,3.06,0,0,1-93,43Z" transform="translate(99 99)"/><path class="cls-11" d="M401,70V99c-2.76-.43-2.2-2.94-2.77-4.64-.85-2.53-2.33-3.94-5.09-3.85-2.13.06-3.49.71-3.4,3.21.11,3.23-2.06,4.46-4.82,4.52-12.33.3-24.66.32-37,0-2.3-.06-4.08-1-4.67-3.67-1-4.44-3.52-5.38-7.23-2.85-1,.65-1.59,1.73-2.73,2.17a5.55,5.55,0,0,1-1.94.49c-18.3.23-36.61.61-54.9-.18a6.26,6.26,0,0,1-4.2-3.93,159.07,159.07,0,0,0-7.87-16.06c-.75-1.29-1.3-2.75-.07-4.15,2.27-1.9,5-1.51,7.64-1.53,20.13-.15,40.26.23,60.39-.23,2.4-.05,4.43.32,4.86,3.06.49,3,2.29,4.16,5.16,4.25,3.78.11,5.45,2.32,6.21,5.9,1.13,5.3,2.92,6.75,8.18,6.92,6.48.21,13,.22,19.46,0,5.32-.18,7.24-1.68,8.18-6.87.72-4,2.71-5.94,6.64-6,2.72,0,4.2-1.18,4.74-4C396.44,68.1,398.36,67.53,401,70Z" transform="translate(99 99)"/><path class="cls-12" d="M386,45a4,4,0,0,1,0-.49c.39-3.4-1.47-7.71,2.72-9.7,4.37-2.07,8.6-.9,12.28,2.19V53c-.28.19-.6.54-.85.48-9.55-2.09-11.7,4.57-13.5,11.49-1,3.9-3.23,5.35-7.27,5a141.93,141.93,0,0,0-25.91,0c-3.74.35-6.2-.71-7-4.58-.61-3.13-2.77-5.68-3.18-8.89-.25-2-1.73-2.67-3.55-2.85-1.32-.13-2.65-.13-4-.13H260.92a30.43,30.43,0,0,0-6.93.64c-5.14-.79-10.52-7.44-9.29-11.49,2.68-2,5.85-2.2,9-2.21q41.8-.08,83.61,0c3.92,0,7.73.34,9.68,4.56,2.28,1.1,1.94,3.21,2,5.18s-.17,4,.47,5.91c.71,2.12,1.82,2.84,4.11,2.16a44.43,44.43,0,0,1,25.84,0c2.29.68,3.4,0,4.11-2.16.64-2,.42-3.94.47-5.91S383.72,46.1,386,45Z" transform="translate(99 99)"/><path class="cls-13" d="M401,70c-2.09-.47-4.55-1.47-4,2.39s-1.26,5.11-4.85,4.62c-4.28-.59-6.44.71-6.31,5.64.12,4.46-3.18,7.23-7.81,7.31q-11.49.21-23,0c-4.87-.08-8-2.87-7.94-7.72,0-4.32-1.74-5.75-5.69-5.23s-6.11-.57-5.48-5c.17-1.23.24-2.58-2-2.47-21.79,1.09-43.6.22-65.4.48a6.9,6.9,0,0,0-4.28,1c-3.61-1.56-4.82-5-6.37-8.17a1.87,1.87,0,0,1,1.18-2.73c2.09-.76,4.27-.6,6.43-.6,23.28,0,46.56,0,69.84-.05,5.23,0,9.46.52,10.88,6.83.57,2.54,3.17,4.47,3.81,7.36.44,2,2.51,1.9,4.17,1.89,8.31,0,16.62-.12,24.94.06,1.5,0,3.43.08,3.78-1.65.61-3.07,2.74-5.21,4-7.84,3.36-6.94,7-8.38,14.07-5.09Z" transform="translate(99 99)"/><path class="cls-14" d="M334,401H-25c-3.65-1.11-7.34-2.13-10.63-4.18-.79-1.45-1.18-2.82.73-3.75,2.29-.82,4.83-1.1,6.82.07,4.49,2.63,9.29,2.23,14.09,2.23q170.21,0,340.4,0c3.15,0,6.34-.36,9.43.61C340,399.42,335.47,399.65,334,401Z" transform="translate(99 99)"/><path class="cls-15" d="M401,61c-2.16,0-4.34.13-6.49,0-3.54-.25-6,.56-5.55,4.82a2.48,2.48,0,0,1-1.58,2.84c-2.71.74-2.53,2.79-2.35,4.76.28,3.2-1.43,4.11-4.2,4a235.83,235.83,0,0,0-28.88,0c-1.32.08-3.56-.29-3.44-1.26.6-4.54-3.76-7-4.28-10.58-.56-3.85-2.12-4.61-5.47-4.58-13.64.1-27.28,0-40.93,0L257.9,61c-3.28-1.12-4.57-3.68-4.95-6.89.29-2.41,2.12-2.14,3.77-2.14q41.92,0,83.85,0c2.75,0,4.71.74,4.39,3.89-.44,4.36,4,7.11,3.55,11.56-.14,1.31,1.84,1.64,3.26,1.44a102.57,102.57,0,0,1,29.69,0c1.21.18,2.93-.12,2.93-1.24,0-3.85,3.5-6.62,3.41-10-.15-5.52,2.71-5.85,6.86-5.71A39.22,39.22,0,0,1,401,53Z" transform="translate(99 99)"/><path class="cls-16" d="M334,93c1.44-3.81,7.69-5.53,10.83-3,1.17.93,1.17,1.73.34,2.93-2.32,3.36,0,4,2.66,4.06q18.71.11,37.4,0c2.65,0,4.93-.76,2.57-4.11-1.62-2.32.27-3,1.79-3.51,6.06-2.22,9.64,0,10.39,6.51.13,1.14-.12,2.36,1,3.16v18c-3.86-3.17-3.23-8.26-5.23-12.23a11.2,11.2,0,0,1-.41-2.45c-.26-1.2-.65-2.26-2.15-2.32-1.71-.06-2.33,1-2.52,2.49a69.58,69.58,0,0,0-.21,9.47c0,4-1.64,5.81-5.7,6.69a84.55,84.55,0,0,1-37.52-.19c-3.19-.73-4.53-2.38-4.66-5.44a41.39,41.39,0,0,1,0-6.49c.54-4.62-1.15-7.31-5.94-7.73C334.55,97.41,334.43,95.13,334,93Z" transform="translate(99 99)"/><path class="cls-17" d="M401,195v30c-3.19-.49-2.81-3.29-3.29-5.36-.62-2.63-1.21-5.23-3.16-7.18s-3.21-1.4-3.91,1.11c-.18.64-.16-.13-.06.48,1.39,8.93-5.31,11.07-11.37,11.68-10.29,1-20.74,2.19-31-1.62-4.21-1.56-6-3.7-5.64-8,.08-1.15,0-2.32,0-3.49,0-2.66-.45-5.38,1.25-7.76,2.15-1.71,4.72-1.37,7.18-1.38,10-.05,20-.11,29.94,0,4,0,7-.53,6.56-5.58-.18-2.08,1.32-2.86,3.11-3.22,1.61-.32,3.42-.23,4.66-1.5C398.4,190.07,399.76,192.26,401,195Z" transform="translate(99 99)"/><path class="cls-18" d="M401,149v24a1.69,1.69,0,0,1-2.32,0c-1.6-2.61-1.09-5.81-2.52-8.52-1.25-2.36-2.7-3.1-5.19-2.06-14.89,6.21-30.08,5.16-45.31,1.64-2.71-.62-5-2.6-7.82-3a3.24,3.24,0,0,1-2.21-2.44,12.16,12.16,0,0,0-1.5-3.51c-1.13-4.14-.07-8.22.91-12.11,1.09-4.35,4.86-3.41,8.12-2.82a3.27,3.27,0,0,1,1.34,1,15.4,15.4,0,0,0,14,10.44c4.3.08,8.69-.53,12.88.15,5.9,1,10-2.79,14.71-4.72,2.52-1,1.18-4.15,1.5-6.35a37,37,0,0,1,0-4.94c.15-3.41,1.9-5,5.32-5s5,1.51,5.53,4.91C399.09,140.07,398.65,144.81,401,149Z" transform="translate(99 99)"/><path class="cls-19" d="M401,149c-4.82-2.67-2.87-7.7-3.86-11.64-.68-2.66.41-5.51-4.19-5.49S389,134.74,389,137.5c0,1.17,0,2.33,0,3.5-1.6,1.46-3.6,1.57-5.6,1.58q-16.9.1-33.8,0c-2,0-4-.12-5.6-1.58-1.59-1.77-1.37-4-1.56-6.11-.13-1.5-.27-3.06-2-3.61s-2.77.73-3.73,1.85a9.49,9.49,0,0,1-7.49,3.28c-13.41.17-26.82.13-40.23,0a7.18,7.18,0,0,1-3.81-.93c-2-2.53-2.88-5.25-1.46-8.36,13.67.73,27.36.33,41,.41,7.24,0,7.24,0,9.55-6.52a7.3,7.3,0,0,1,1-1.73c2.22-2.11,4.86-1.86,7.35-.88,2.12.83,4,2.19,6.3,2.71,1,.22,2.37,1.31,2,1.82-2.32,3.49,2,4.34,2.44,6.65a2.41,2.41,0,0,0,2.52,1.92c7.25.21,14.5.2,21.76,0,1.19,0,1.73-.78,2.18-1.7a5.56,5.56,0,0,1,.91-1.14c.4-.27.85-.65,1.29-.61,4.86.44,6.54-2.14,6.32-6.57a2.58,2.58,0,0,1,1-1.17,9.84,9.84,0,0,1,7.24-.07,2.64,2.64,0,0,1,1.1,1.12c1.05,3.2,0,7.14,3.33,9.57Z" transform="translate(99 99)"/><path class="cls-20" d="M336,234v3a1.58,1.58,0,0,1-2.3-.13c-.84-1.79-.38-3.61,0-5.36,1-4,3.77-5.12,6.91-2.31a9.91,9.91,0,0,0,7.25,2.46c12.45,0,24.9,0,37.35,0,2,0,4,.25,5.67-1.26s3.32-3.47,6-2.34c3.11,1.31,2.7,4.23,3,6.8A6.87,6.87,0,0,0,401,237v16c-3.69-2.75-1.62-7.1-2.83-10.6-.94-2.74.15-7.59-3-7.79s-2.78,4.43-3.24,7.3A10.83,10.83,0,0,1,381.39,251c-9.49,0-19-.35-28.48.14-5.17.26-8.62-.81-9.91-6.14-2.63-1.38-1.75-3.88-2-6.06C340.63,236,340.45,232.82,336,234Z" transform="translate(99 99)"/><path class="cls-21" d="M334,268c-1.05-4.88,3-9,2.06-13.9-.18-.9.36-1.6,1.49-1.28.94.26,2.53.49,2.22,1.53-1.55,5.29,5.92,7.37,4.33,12.59a2,2,0,0,0,.46,1.29c5.11-.93,7.66,4.78,12.4,4.77,5.14,0,10.29.13,15.43-.05,3.38-.11,7.54,1.57,9.29-3.35.13-.36,1.21-.62,1.79-.54,4.28.61,6.29-.95,5.57-5.45a2,2,0,0,1,1.24-2.44c2.77-.78,2.87-2.92,2.7-5.15s.84-3.32,2.79-3.21c2.15.11,1,2,1.2,3.13,1,5.26,2.77,10.39,2.21,15.88-.11,1,.88,1.72,1.82,2.18v15c-2.57.34-2.84-1.64-3.11-3.33a18.75,18.75,0,0,0-1.45-5.05,7.77,7.77,0,0,1-.45-1.39c-.6-4-.23-8,.12-12.71,0,.12-.76.21-.1.29,0,0,0,.15,0,.44a8.32,8.32,0,0,1-2.51,6.3c-.79.85-1.8,1.65-1.78,2.9,0,3.84-2.43,4.67-5.54,4.89-2.85.19-4.77,1.27-4.5,4.62.17,2.1-1.28,3-3.11,3.13-8,.41-15.94.32-23.91.05-1.78-.06-3.44-.86-3.28-3,.28-3.63-1.8-4.65-4.82-4.87s-4.89-1.16-5.31-4.65-4.86-5.17-4.19-9.22c-.6,0-.65.64-1.08.88A1.77,1.77,0,0,1,334,268Z" transform="translate(99 99)"/><path class="cls-22" d="M399,173h2v22l-3.32-2.87c-.47,3.07-2.14,4.4-5.09,3.89-2.79-.48-4.4.16-3.64,3.59,1,4.48-1.18,5.58-5.5,5.49-13.14-.27-26.3-.1-39.45-.1l-.59-.62a8.63,8.63,0,0,1,.12-7.33,5.54,5.54,0,0,1,5.32-.79c-1.37-.76-3.53-.25-5.63-.09-2.53.19-5,.06-7.11-1.5a3.43,3.43,0,0,1-.95-1.42c-.42-1.86-.5-3.64,1.27-4.93,2.35-1.12,4.88-.86,7.36-.87,14.95,0,29.91,0,44.86,0,6.37,0,6.64-.38,6.8-6.81.05-2.47-.28-5,1-7.31A1.7,1.7,0,0,1,399,173Z" transform="translate(99 99)"/><path class="cls-23" d="M352,130c-.26-4.4-4.51-2.06-6.29-3.57-.27-.85.19-1.07.64-1.26,1.34-.58,4,.58,3.79-1.89-.13-1.79-2.65-.71-3.76-1.38-3.23-2-6.44-3.62-10.38-2.9-2.29-2.63-1-5.85-1.45-8.79a90.14,90.14,0,0,1,.2-9.86A3.67,3.67,0,0,1,336,98a15.9,15.9,0,0,0,2.49,0c4.33-.68,6.28,1,5.53,5.45a10.36,10.36,0,0,0,0,2.49c.24,3.44-1.57,8.28.79,10,3.11,2.27,7.92,2.68,12.06,3,6.45.45,12.95.08,19.43.14,3.83,0,7-2.8,11-2.23,1.68.24,1.67-1.71,1.68-3,0-4,.17-8,0-12-.17-3.26,1.39-3.87,4.21-3.85,2.67,0,4,.71,3.87,3.65-.32,5.54,3.43,10.07,4,15.41v12c-2.36.56-3.47-.54-3.43-2.79,0-1.46.67-2.94-.57-4.21v-1c-2.67-1.65-5.33-1.4-8,0v1c-.58,1-4.94.74-.9,3.37,1.27.82-.43,2.28-1.86,2.52-1.76.3-3.69-.22-5.24,1.11v1a6.11,6.11,0,0,1-4.1,1.46q-10.39.07-20.79,0A6.12,6.12,0,0,1,352,130Z" transform="translate(99 99)"/><path class="cls-24" d="M401,237l-1-1c-1.46-2.63.2-6-2.15-8.48-.9-1-1.41-2.37-3-2.36-1.88,0-1.85,1.6-2.11,2.87-.7,3.34-2.76,4.52-6.12,4.5-13.49-.11-27-.08-40.48,0-2.38,0-5-.45-5.23-2.77-.42-5.15-3.84-4.78-7.26-4.89-1.07-3.78.42-7.34,1.87-10.45,1.69-3.62,5.19-3.46,8.45-1.41,0,8.17,2.2,11.38,10.81,11.76,10.81.48,21.86,1.8,32.37-2.77,2.52-1.1,1.65-2.93,1.79-4.57.29-3.3-1.19-8.44,3.42-8.47,3.69,0,5.62,4.81,6.45,8.59.56,2.56.32,5.29,2.16,7.46Z" transform="translate(99 99)"/><path class="cls-25" d="M-99,330V-16a1.17,1.17,0,0,1,1.62.53c1.64,5.69.49,11.52.75,17.28.17,3.8,0,7.62,0,11.43q0,47.82,0,95.63,0,27.85,0,55.69a69.51,69.51,0,0,1,0,8.66c-.07,10.62,0,21.24,0,31.86q-.06,28.9,0,57.82c0,19.47,0,38.93,0,58.4a30.06,30.06,0,0,1-.34,7C-97.32,329.21-97.74,330.11-99,330Z" transform="translate(99 99)"/><path class="cls-26" d="M-11-99H325a1.12,1.12,0,0,1-.46,1.57c-2.68,1.33-5.55.78-8.36.85q-159.17,0-318.31,0c-2.82-.09-5.71.5-8.4-.84A1.14,1.14,0,0,1-11-99Z" transform="translate(99 99)"/><path class="cls-27" d="M-99,330l1-1c2-8.5.42-17.13.83-25.7.62-12.93.24-25.91.13-38.88a188.78,188.78,0,0,1,.89-18.88c.72-2,.67-4.16,1-6.24.15-.93.43-2.09,1.56-2.16s1.48,1.08,1.69,2c.41,1.91.26,3.89.64,5.81-.29,5.61.91,11.15.8,16.75.52,10.48-.63,20.88-1.54,31.29v16c-1.52.09-1.47-1-1.47-2q0-21.5,0-43a1,1,0,0,1,.73-1.07l-.75.08c0,20.62-.16,41.3.5,62v1c-1.65,2.65-.63,5.47-.26,8.14.75,5.36.68,10.85,2.31,16.1a4.34,4.34,0,0,1-.51,3.36,1,1,0,0,1-1.43.4c-3-5.77-3.94-12.1-5.1-18.37-.18-1,0-2-1-2.63Z" transform="translate(99 99)"/><path class="cls-28" d="M381-43c3.81,0,7.63.25,11.41-.07,4.19-.35,6.36.76,5.61,5.38A5,5,0,0,0,401-32v6c-1.42-.8-2.44-.75-3.88.49-3.2,2.78-6.31,2.08-8.29-1.54A3.1,3.1,0,0,0,385.69-29c-3.76.32-5.08-1.55-4.69-5C381.59-37,378.19-40,381-43Z" transform="translate(99 99)"/><path class="cls-2" d="M386,1c-.08-1.24.71-2.33,0-3.78a2.68,2.68,0,0,1,2.26-4c4-.25,7.69-.58,10.38-4.07.33-.42,1.58-.13,2.4-.16V1C396,1.39,391,3.35,386,1Z" transform="translate(99 99)"/><path class="cls-29" d="M393,377c-5.62,7.92-12,15-20.79,19.56-1.64.85-3.92,1.92-4.24,4.41H357c-1-1.61-.07-2.24,1.32-2.64,6.64-.15,11-4.88,15.75-8.4a73.56,73.56,0,0,0,9.12-8.15c1.69,0,1.4-1.45,1.76-2.42,1.12-3,3.35-4.31,6.49-4.26C392.36,375.43,393.37,375.67,393,377Z" transform="translate(99 99)"/><path class="cls-30" d="M334,401c.43-1.76,3.09-1.85,3-4,3.33-2.54,6.77-4.63,11.27-4.1,2,.23,3.34-1,4.39-2.67,1.2-1.91,2.79-2.86,4.87-1,1.51,3.61-.24,5.46-3.49,6.51-3.67,1.76-7.76,2.66-11,5.26Z" transform="translate(99 99)"/><path class="cls-31" d="M-37,401h-6c-3.69-2.44-7.72-4.26-11.56-6.43A88,88,0,0,0-62.85,387c-2.42-1.92-5.29-4.09-4.3-8a2.62,2.62,0,0,1,3.16.87c2.79,3.87,7.47,5.74,10.34,9,3.4,3.86,7.81,4.56,11.65,6.85C-38.74,395.94-36,396.74-37,401Z" transform="translate(99 99)"/><path class="cls-32" d="M401,321c-1.35-1.18-4.09-1.82-1.65-4.46a1.39,1.39,0,0,0,0-1.34c-4.64-5.21-1.46-11.49-2.4-17.2a2.91,2.91,0,0,1,4,0Z" transform="translate(99 99)"/><path class="cls-33" d="M401,367a15.08,15.08,0,0,0-5.07,8c-1.65.42-1.95-.94-2.54-1.92-.75-2.19.62-3.76,1.55-5.5,1.05-2,2.6-3.91,1.26-6.38a5,5,0,0,1,.28-1.38c1.48-1.61,1.57-4.55,4.52-4.78Z" transform="translate(99 99)"/><path class="cls-34" d="M401,298h-4v-2c-1.8-5.33-2.49-10.67,0-16a5.67,5.67,0,0,1,2,4.86c-.05,1.74.16,3.33,2,4.14Z" transform="translate(99 99)"/><path class="cls-35" d="M-37,401c-.71-3.26-2.66-4.68-6-4a1.7,1.7,0,0,1,0-2.29c3.47-2,5.81-.06,8,2.29,4.24-.92,6.77,2.4,10,4Z" transform="translate(99 99)"/><path class="cls-35" d="M343,401c1.7-4.72,6.6-4.11,10-6,1.25-.82,2.59-.47,3.91-.31a2,2,0,0,1,.48,2.13A54.2,54.2,0,0,1,350,401Z" transform="translate(99 99)"/><path class="cls-36" d="M350,401c1.84-2.2,3.28-5.09,7-4,1.65-3.19,3.86-5.16,7.71-3.45,0,3.77-3.09,4.39-5.71,5.46a1.83,1.83,0,0,0-2,2Z" transform="translate(99 99)"/><path class="cls-37" d="M-53,401c.06-2.16-1.59-1.93-3-2.11-.48-2.31-5.14-2.87-2.71-6.42a2.64,2.64,0,0,1,3.19.81,29,29,0,0,0,8.91,5.79c.88.38,2,.54,1.56,1.93Z" transform="translate(99 99)"/><path class="cls-38" d="M-45,401a32,32,0,0,1-11-7,1.35,1.35,0,0,1,2,0c4.09.23,6.41,4.42,10.5,4.75.22,0,.33,1.47.5,2.25Z" transform="translate(99 99)"/><path class="cls-39" d="M401,355c-1.86,1.25-1.67,4.13-4,5a2.72,2.72,0,0,1-.89-1.25,10.4,10.4,0,0,1,.06-5.37c.65-1.65,1.2-3.36,2.83-4.38h2Z" transform="translate(99 99)"/><path class="cls-40" d="M-98-16h-1v-3c2-3.38.3-7.79,3-11l.5.5a5.92,5.92,0,0,1,.63,2.77c-.07,1.18-.18,2.36-.36,3.53a18,18,0,0,0-.52,2.82C-96-18.64-95.95-16.78-98-16Z" transform="translate(99 99)"/><path class="cls-19" d="M397,122c1.09.56,2.21,1.33,1.59,2.64-1.31,2.74.56,3.5,2.41,4.36v2C395.41,129.89,397.41,125.41,397,122Z" transform="translate(99 99)"/><path class="cls-41" d="M334-99c1.17,1.92,3.84.06,5,2a7,7,0,0,1-2.88,1.19,9.44,9.44,0,0,1-4.59-.5,1.52,1.52,0,0,1-.84-1.18c.24-1.3,1.71-.74,2.31-1.51Z" transform="translate(99 99)"/><path class="cls-42" d="M333-99A2.24,2.24,0,0,1,331-98c-2,1.47-4,1.68-5.92-.09l0-1Z" transform="translate(99 99)"/><path class="cls-43" d="M-24-98c1.38-.15,2.95.46,4-1h1c.6.76,2,.23,2.31,1.42a1.39,1.39,0,0,1-.76,1.21,7.48,7.48,0,0,1-3.82.56C-22.5-96.14-24.11-96-24-98Z" transform="translate(99 99)"/><path class="cls-42" d="M-16.94-98A2.25,2.25,0,0,1-19-99h8l0,1C-13-96.28-14.95-96.49-16.94-98Z" transform="translate(99 99)"/><path class="cls-32" d="M397,280v16c-2.83.58-5.17,1.63-4.41,5.21.45,2.14-1.3,2.89-2.41,4s-3.57,1.31-1.84,4.05c1.05,1.66-.9,1.79-2,1.7-2.24-.18-3.63,1.12-5.3,2.27-2.34,1.6-4.41,2.77,1.71,5.39H-66a5.57,5.57,0,0,0-4.26-7.41c-2.66-.46-5.58.11-3.45-4.16.19-.37-.82-1.34-1.27-2,2.37-2.17,5.33-1.6,8.1-1.6q38.25-.07,76.49,0H323a55,55,0,0,0,8-.33,23.47,23.47,0,0,0-6.26-.4l-399.44,0a45.32,45.32,0,0,1-8.48-.31c-1.65-.31-3.41-.77-3.28-3,.1-1.92,1.69-2.34,3.17-2.62a47.09,47.09,0,0,1,8.48-.32H321.66c14.95,0,12.3.6,12.8-12a15.18,15.18,0,0,1,.28-2.45,5,5,0,0,1,.66-1.54c2.92-1.58,4.84.25,5.18,2.56.65,4.45,3,5.89,7.11,5.87,1.45,0,3.29.16,3.59,2,.33,2-1.29,2.78-3,3.23,16,4.24,26.85,3.57,35.71,0-.54-.39.43-.05.35-.08-1.7-.56-3.13-1.45-2.62-3.44.38-1.49,2-1.74,3.31-1.72,4.28.07,6.83-1.52,7.42-6.14C392.74,280.64,394.55,279.29,397,280Z" transform="translate(99 99)"/><path class="cls-44" d="M336,280c0,4.83-.09,9.67,0,14.49.06,2.56-.89,3.73-3.49,3.52-1.33-.1-2.67,0-4,0q-203.94,0-407.88.07c-2.1,0-6.06-1.32-6,1.26,0,3.2,4,1.58,6.15,1.59q204.2.13,408.39.18c2.19,0,6.41-2,6.38,2,0,3.36-4,1.77-6.19,1.77Q127.2,305.05-75,305c-1.83,0-3.66,0-5.49,0a2.31,2.31,0,0,0-2.36,1.41A56.6,56.6,0,0,0-88,331.51c.06,4.83,0,9.66,0,14.49-2.31-.24-2.28-2.14-2.32-3.67C-90.55,334.52-91,326.68-89,319q.5-9,1-18c-1.24-4,.21-7.83.75-11.68.34-2.35,2.51-3.38,4.83-3.69a65,65,0,0,1,8.49-.24l394.42,0c4.56,0,9.49,1,12-4.62A2.38,2.38,0,0,1,336,280Z" transform="translate(99 99)"/><path class="cls-45" d="M-75,326c2.31,2.92,5,5.37,5.57,9.6.5,3.51,3.11,5.51,7.54,5.51q218.79-.19,437.59,0c3.71,0,6.21-1.1,7.36-4.41s1.77-7,4.95-9.38c1.26-1,.65-2.14-1-2.24a15.41,15.41,0,0,1-5.06-.72c3.44-3.79,8.11-2.06,12.24-2.18,3.11-.1,2.76,2.69,2.8,4.84-5.73.6-7.93,4.53-9.76,9.44s-4.79,9.23-7,13.94c-1.89,1.24-2.8,3.19-3.89,5.06-2,3.48-4.35,3.72-6.29.37-1.53-2.63-3.55-3.23-6.17-3.2-1.17,0-2.34,0-3.5,0H-46.22c-4.07,0-8.18-.71-10.63,4.31-1.26,2.6-3.88,1.2-5.13-.89s-2.3-4.42-4.46-5.85c-3.24-6.89-6.51-13.78-9.06-21A2.88,2.88,0,0,1-75,326Z" transform="translate(99 99)"/><path class="cls-46" d="M-75,326c2.28,5.32,2.87,11.38,6.62,16,1.81,2.24,1.17,4.61,1.38,7l-.6.38c-2.48,0-2.66-2.16-3.47-3.66a14.78,14.78,0,0,0-3.87-5.11,5.34,5.34,0,0,0-5.62-.87c-1.93.9-1.26,2.83-1.28,4.43,0,2.79.58,5.64-.63,8.34L-83,353c-4-7.67-3.79-14.89-.7-23.31,1.83-5,3.22-6.21,7.69-5.72C-74.32,324.15-74.71,325-75,326Z" transform="translate(99 99)"/><path class="cls-47" d="M381,349c-.26-3.12.32-5.94,2.69-8.23s3-5.28,3.75-8c1.44-5.38,4.53-6.9,9.56-5.73,0,4.93,2.54,9.36,2.71,14.3.09,2.65.64,5.23-.71,7.7a5.49,5.49,0,0,1-2,4l-.53-.51c-1.25-2.69-.58-5.55-.78-8.34-.12-1.6.38-3.56-1.53-4.39s-3.9-.16-5.54,1.17c-2,1.62-3.06,3.88-4.15,6.13-.58,1.18-1.14,2.47-2.84,2.32Z" transform="translate(99 99)"/><path class="cls-48" d="M-89,319c0,7.44,0,14.88,0,22.31,0,1.6-.55,3.38,1,4.69-.34,4,4.22,6.73,3,11-.11.24-.23.47-.34.71a2.42,2.42,0,0,1-2.11.79c-4.24-1.78-2.38-6.08-3.67-9.09-2.54-6-.95-12.65-2.91-18.78A2.47,2.47,0,0,1-93,328c2.42-.28,1.83-2.17,2-3.7A9.12,9.12,0,0,1-89,319Z" transform="translate(99 99)"/><path class="cls-46" d="M-85,357c2.68-.33,1.81-2.43,2-4h0a2,2,0,0,1,3.24.89c1.52,5.61,5,10.6,5.32,16.59-.67,1.24-1.65.83-2.62.5-2.08-1.13-2.4-3.4-3.31-5.27s-1.33-3.74-3.48-4.47c-1.36-1.15-2.34-2.4-1.16-4.24Z" transform="translate(99 99)"/><path class="cls-49" d="M388,13c-1.55,3.15-6.25,4.61-4.67,9.62.37,1.18-2.61,2.31-4.47,2.33-8.3.07-16.61.2-24.9-.09-2.47-.08-5.31-.67-4.25-4.9.89-3.5-4.22-3.85-4.71-7Z" transform="translate(99 99)"/><path class="cls-4" d="M343,13h-6C339,11.23,341,9.68,343,13Z" transform="translate(99 99)"/><path class="cls-2" d="M386,9c.33-1.33.67-2.67,1-4,.95.08,2.24.16,2.28,1.22C389.37,8.3,387.12,8.08,386,9Z" transform="translate(99 99)"/><path class="cls-2" d="M385,5c-.89-.21-2.35.92-2.53,0-.3-1.54,1.31-2.28,2.53-3Z" transform="translate(99 99)"/><path class="cls-50" d="M336,280c-1.9.08-3.83,1.34-3.66,2.79.67,5.65-3.26,4.18-6,4.18q-175.08.06-350.16,0c-18.81,0-37.63.08-56.44-.06-4.5,0-7,1.23-6.75,6.21.14,2.62-1.41,5.13-1,7.85-1.09-.17-1.73-.48-1.57-1.91.94-8,2.66-16,2.86-24.1a3.89,3.89,0,0,1,4.26-4c1.5.05,3,0,4.49,0q202.61,0,405.19-.06c2.51,0,6,1.5,6.77-2.94h2C338.19,272,337.57,276,336,280Z" transform="translate(99 99)"/><path class="cls-51" d="M71.89,252c-4.86,8.57-11.19,9.18-17.57,1.71-1.07-1.24-2.22-2.42-3.33-3.63-4-2.08-5.49-6.27-8.05-9.55-1.3-1.66-2.36-3.52-3.75-5.12-3.24-4-4.49-9.08-7.14-13.4-4.89-8.93-7.8-18.63-11-28.23C19.87,189.41,19,185,18,180.63s-1.07-8.91-2.12-13.29c-.69-6-.35-12.09-.31-18.13a87.58,87.58,0,0,1,1.09-19.61c.53-3.85,1.38-7.64,2-11.46.93-4.1,1.91-8.19,3.13-12.21,1.55-4.24,2.86-8.57,4.34-12.84,2.94-7.27,6.5-14.24,10.09-21.2,4.24-6.69,8.43-13.42,13.31-19.68,1.81-2,3.24-4.23,5.13-6.12,5.92-5.93,12.13-5.34,17.12,1.65C74.17,52.09,73,55.87,70,59.46c-1.35,1.63-2.58,3.37-4,5a140.58,140.58,0,0,0-17.29,28,147,147,0,0,0-5.92,15c-1.41,5-3,9.89-3.9,15-.92,4.34-1.4,8.74-2,13.13-1.12,7.35,0,14.76-.5,22.12a70.17,70.17,0,0,0,1,12.78,92.69,92.69,0,0,0,2.81,15c1.67,7.64,4.54,14.88,7.51,22.08a120.22,120.22,0,0,0,8.88,16.84c.94,1.56,2,3.07,3,4.56a77.9,77.9,0,0,0,5.64,7.88,69.84,69.84,0,0,1,6.25,8.12C72.9,247.06,74.12,249.47,71.89,252Z" transform="translate(99 99)"/><path class="cls-51" d="M284.16,127l1,8c3,7,2.3,14.34,2.22,21.64-.77,4.59-.85,9.25-1.32,13.87-1,4-1,8.14-2.06,12.12-.77,3-1.22,6.14-2.09,9.15-1.58,4-2.39,8.2-3.93,12.2-1.26,2.63-1.86,5.53-3.16,8.16-2,4.31-3.75,8.76-6,13s-4.68,8.14-7.15,12.14c-3.91,4.87-6.27,11-11.77,14.57a27.21,27.21,0,0,0-2.08,2.08c-3.05,3.72-6.54,6.28-11.61,4.17s-6-6.16-5.43-11c-1.19-2.69,1.14-3.88,2.42-5.45s2.54-3.5,4-5.09a83.94,83.94,0,0,0,8.23-12A102.15,102.15,0,0,0,256,204.13c2.55-6.31,5.17-12.59,5.86-19.45,1.07-4.12,2.89-8.06,2.86-12.43,1-10.29,3-20.52,1.37-30.92-.71-3-.16-6.12-1-9.11-.52-3.67-.81-7.39-2-11-1.23-4.92-2-10-4.05-14.64-2.2-5-3.46-10.3-5.87-15.19A115.76,115.76,0,0,0,236,64.3c-4.29-4.63-7.79-9.53-5.58-16.37,2.13-3.26,4.8-5.75,8.92-6,1.84-.11,3.56.33,4.59,2.12L253,54.14,257.9,61l6.37,10q5.4,11,10.79,22c3.81,4.21,4.08,9.88,6.12,14.81,1.22,3.73,1.91,7.58,2.78,11.39C284.13,121.81,285.78,124.38,284.16,127Z" transform="translate(99 99)"/><path class="cls-20" d="M238,237c-1.73,3.83-5.7,6.06-7.24,10-.6,4.11-2.84,5.1-7,5.08-50.63-.2-101.26-.15-151.89-.16.9-6.76-4.91-10.07-7.65-15,1.87-1.85,4.29-1.59,6.58-1.6q80.33,0,160.64,0C233.76,235.4,236.18,235.15,238,237Z" transform="translate(99 99)"/><path class="cls-20" d="M40.13,234.64,51,250c-1.4,2.76-4,1.93-6.19,1.93-41.39,0-82.79.11-124.18-.07-5.27,0-7.18,1.66-7.84,7C-88,265.33-86,272.43-88.55,278c-2.31,5-1.32,10.26-3.45,15V261c.66-6.92,3.18-13.5,3.65-20.46.15-2.06.7-4,3-4.66,2.78-.72,5.62-.48,8.43-.48q53.3,0,106.59,0A46,46,0,0,0,40.13,234.64Z" transform="translate(99 99)"/><path class="cls-52" d="M249.92,251.82l10.86-14.9c2.15-1.63,4.68-1.54,7.18-1.54q29.46,0,58.92,0c2.47,0,5-.22,7.12,1.61h2c1.09,4.94-1.77,9.25-2.31,13.95-.3,2.6-3.05,2-5,2q-28.16,0-56.3,0c-6,0-11.95,0-17.93,0C252.91,253,251.12,253.5,249.92,251.82Z" transform="translate(99 99)"/><path class="cls-53" d="M-93,325c-1.26-1-1-2.38-1-3.68q0-28.71,0-57.43A2.14,2.14,0,0,1-93,262c0,13.27-.06,26.53,0,39.79,0,2.39-1,5,1,7.18C-92.54,314.32-90.88,319.78-93,325Z" transform="translate(99 99)"/><path class="cls-54" d="M-93,328c1.79,7.25.43,15,3.47,22,1.14,2.62-1,6.23,2.53,8a1.19,1.19,0,0,1,.09,1.41c-1.22,1.17-2.43,1.92-3.53-.13-.62-1.73-.61-3.65-1.55-5.29-.88-6.44-1.91-12.86-2.56-19.33-.29-2.92-2.37-6.4,1.55-8.66Z" transform="translate(99 99)"/><path class="cls-52" d="M336,234c.16-1.62-.1-4,2.59-1.84,2.08,1.66,3.81,3.55,3.45,6.63a9.24,9.24,0,0,0,1,6.21c-3,.26-3.15-1.7-3-3.86C340.24,237.87,339.41,235.22,336,234Z" transform="translate(99 99)"/><path class="cls-7" d="M-93,43v2c-3.83-2.23-2.62-5.09-1-8h0C-92.19,38.75-93.33,41-93,43Z" transform="translate(99 99)"/><path class="cls-55" d="M381-43c.28,2.28-.63,4.6,1.76,6.68,1.78,1.55-1.79,1-1.76,2.32q-12.24,0-24.48,0a16.12,16.12,0,0,0-3.32.28c-.17,5.67-6,4.83-8.52,7.64-2.87,3.25-6.2,2.86-8.81,1s-5.13-2-7.94-2q-203.09,0-406.17-.06c-4,0-7.6.28-10.12,3.87A3.17,3.17,0,0,1-91-22c-.37-1.89-1.33-3.59-1.68-5.49a1.87,1.87,0,0,1,2.58-1.72c9.36-2.14,18.86-1.39,28.31-1.39q192-.06,384,0a46.25,46.25,0,0,0,8-.29c1.13-.2,2.6-.35,2.67-1.75.08-1.65-1.55-1.43-2.6-1.57a46,46,0,0,0-6-.13H-69.72c-2.34,0-4.67.07-7,0-6-.3-7.1-1.79-6.09-7.9,1.37-2.16,3.45-2,5.56-1.69a4.14,4.14,0,0,1,1.3.59c5,4,5,4,9.39-.31a5.53,5.53,0,0,1,1.69-.52c2.84-.25,5.67-.15,8.5-.15,73,0,145.92.16,218.88-.06q90-.27,179.9-.1c10.49,0,21-.14,31.46,0C376.35-44.59,378.92-44.83,381-43Z" transform="translate(99 99)"/><path class="cls-9" d="M-76-43h-6c-.24.26-.6.54-.82.41-1-.64-2.06-1.69-1.72.81.77,5.7.48,10.94-6.46,12.78a2.06,2.06,0,0,0-1,2,4.94,4.94,0,0,1-2,2v4c-1.76.43-1.77-.91-2-2l.06-4a2.74,2.74,0,0,0,.46-4c.19-2.13,1-4.08,1.51-6.13L-93-39c-.07-2.24,1.49-3.92,2-6a2,2,0,0,0,1-2,14,14,0,0,1,2-4.1L-82-61c.91-1.4,2.13-2.57,3-4l1-1a1.64,1.64,0,0,1,1.32-.44c2.14,2.78,4.73,2.61,7.47,1.08a13.77,13.77,0,0,1,5.09-1.93c3-.35,5.08-2,6.83-4.49,4.45-6.27,9.89-6.09,13.74.42,1,1.76,2.42,2,4.19,1.88,1.46-.13,2.81-1.21,4.36-.53v3c1.1,4.24.14,6.19-4,6.29-7.06.17-14.1,1.13-19.27.71,7.73,0,17.35-.61,27-.6q99.9.08,199.8,0a36,36,0,0,0,10.86-1.19c2.84-.87,6.29-1.73,8.07,1.56,1.63,3-.91,5.27-2.82,7.35a23.61,23.61,0,0,1-2.15,2.09,4.45,4.45,0,0,1-3.73.39c-3.63-2.12-7.62-2.07-11.64-2.06l-228.87,0c-2.3,0-4.61-.16-7.28,0,3.68,1.3,4.69,3.61,3.51,6.92A6,6,0,0,1-67-43h0A7.43,7.43,0,0,1-76-43Z" transform="translate(99 99)"/><path class="cls-8" d="M366.26-19c-5.81,0-11.62.05-17.42,0-1.31,0-3.48.71-3.45-1.57,0-1.84,2-1.36,3.19-1.37q17.93,0,35.83,0c1.22,0,3.17-.47,3.2,1.36,0,2.29-2.13,1.57-3.44,1.58C378.2-18.95,372.23-19,366.26-19Z" transform="translate(99 99)"/><path class="cls-55" d="M-98-16a8.91,8.91,0,0,0,1-5c.34-.15.66,0,.91,0,.91-.09-.11,3.83,2,1,.33,1,.67,2,1,3V11.87l-.86,0V-9.68L-95-9.7V13a.92.92,0,0,1-1.41-.55c-.16-7.71,0-15.43-.08-22.66-.12-1.15-1.12-.19-.55-.54.15-.09.26,0,.28.35.54,7.28.13,14.57.21,21.86,0,.9-.26,1.63-1.4,1.51Z" transform="translate(99 99)"/><path class="cls-56" d="M-94-20l-1.67,2.15c-.61-1,0-2.46-1.29-3.13A2,2,0,0,1-96-23l2,2Z" transform="translate(99 99)"/><path class="cls-56" d="M-94-25a3.46,3.46,0,0,1,2-2,8.21,8.21,0,0,1,1,5C-92.31-22.69-91.81-25.19-94-25Z" transform="translate(99 99)"/><path class="cls-57" d="M-96,13h1c0,6.45,0,12.9,0,19.35,0,1.59-.54,3.36,1,4.65.44,2.65-1,5.54,1,8s.56,5.35,1,8a109.5,109.5,0,0,1,.43,16.4c0,10.52.29,21,0,31.55.23,6.6-.15,13.2-.16,19.8,0,1.72.2,3.79-2.21,4.4-1.34-5.38-.23-10.84-.59-16.25q0-27.09,0-54.17,0,27,0,53.9c-.09,5.37.2,10.74-.15,16.11a1.1,1.1,0,0,1-1.65.07c-1.43-5.52-.37-11.15-.66-16.73-.27-5.1.45-10.24-.43-15.33.09-14.25,0-28.5.2-42.75.11-10.41.62-20.84.25-31.27C-97,16.8-97.45,14.72-96,13Z" transform="translate(99 99)"/><path class="cls-58" d="M-35-70c-5.64,3.54-7.13,3.08-10.24-3.21C-46-74.85-47.47-75-49-75c-2.74,0-5.58.11-6.79,3-1.66,4-4.54,6.07-8.81,5.92-2.93-.1-4.09,3.11-7.12,3.15-4.14.05-4.13.41-5.23-3.11-.47-2.41,1.78-2.78,3-4l3-4c1.88-1.11,3.19-2.93,5.08-4l2-1A8.31,8.31,0,0,1-61-82L-55-86c2.84-1.37,5.77-2.6,8-5,7.61-2.59,15.15-5.4,23.06-7,.7,1.23,1.91.94,3,1a2.91,2.91,0,0,1,.71.89,4.3,4.3,0,0,0,2.3.94c2.67.85,5.12,3.29,8.22,1.1a18.61,18.61,0,0,1,7.65.19c2.3.65,4.64.42,7,.42q152.1,0,304.19,0a27.89,27.89,0,0,0,7-.37,20.47,20.47,0,0,1,7.6-.36c1.43.27,2.72,1.08,4.08,1.39,1.09.24-.53-.48,0-.77a1.23,1.23,0,0,1,.68-.9,1.56,1.56,0,0,1,.44,0c.13,0,.23.13.35.21-2.07-1.47-1.09-2.3.7-2.4,2-.12,4.13.7,6.15-.28l3,0c-.52,1.33-.51,2.42,1.33,1.73a11.32,11.32,0,0,1,4.73-.71,12.88,12.88,0,0,0,4.86,1A28.83,28.83,0,0,0,361-91c2.22,2.38,5.16,3.59,8,5,1.54,2,4.61,1.72,6,4,1.39.92,2.58,2.12,4,3l1,1c1.84,1.15,3.18,2.92,5,4l3,4c1.17,1.18,3.42,1.55,3,4-1.92.69.29,3.46-1.35,3.54A11.76,11.76,0,0,1,383-63.89a12.16,12.16,0,0,0-6.37-2.23A6.42,6.42,0,0,1,371-69.78c-1.45-3.64-4.66-3.85-7.49-4.87-1.79-.65-3-.36-3.56,2-1.23,5-5.53,6.07-9.8,3.38-5.66-3.58-11.55-6.92-18.81-4.85a17.11,17.11,0,0,1-4.48.12q-169.95,0-339.92-.19c-6.64,0-13-.24-19.27,2.18A4.19,4.19,0,0,0-35-70Z" transform="translate(99 99)"/><path class="cls-56" d="M182-51c.14-2.69,2.59-3.72,4-5.51a3.29,3.29,0,0,0,.79-3.22c-.5-1.46-1.85-1-2.94-1.29-3.65-.87-6.3,2.16-10,2.15Q55.8-59.12-62.27-59c-1.28,0-2.56-.12-4.14-.2,1.14-2.91,3.25-3.21,5.39-2.58,7.79,2.31,15.46-1.06,23.23-.38C-34.73-61.9-35-64.85-35-67c3.33-.11,6.85.93,8.92-3.42.7-1.48,3.85-.91,5.66-.38,3.3,1,6.59.79,9.9.79q167.91,0,335.82,0a41.82,41.82,0,0,0,8.9-.71c2.65-.56,6.06-1.63,7.48,2.57.4,1.16,1.92,1.22,3.1,1.13,2.41-.18,4.18.19,4.54,3.17.18,1.47,1.8,2.11,3.16,1.79,9.8-2.31,13.95,4.7,18.52,11.06a4.33,4.33,0,0,1-4.67.87c-4.7-1.62-9.54-1.25-14.35-1.25H199.1c-4.32,0-8.66-.31-12.88,1.08A4,4,0,0,1,182-51Z" transform="translate(99 99)"/><path class="cls-28" d="M182-51c19.22-4.17,38.68-1.6,58-1.87,33.48-.47,67-.15,100.47-.12,10.21,0,20.49-.8,30.52,2,2.13,2.51,4.19,4.71,8.15,4.2,2.34-.3,1.67,2.28,1.85,3.8H-67v-2c2.74-2.23,6-1.6,9.13-1.6q111.09,0,222.17,0c1.83,0,3.67-.12,5.49,0,4,.31,7.2-.71,9.21-4.4Z" transform="translate(99 99)"/><path class="cls-59" d="M391-66l-3-4c2.46.18,3.68,1.61,4,4Z" transform="translate(99 99)"/><path class="cls-60" d="M393-65c1.65.85,2.88,2,3,4C394.37-61.84,393.11-63,393-65Z" transform="translate(99 99)"/><path class="cls-12" d="M-93,69c.54-5.32-1.11-10.78,1-16a1.11,1.11,0,0,0,1.92-.55c.34-4.35,3.93-7.64,4-11.93C-86,37-84.51,35.73-81.2,36c1.33.11,2.67,0,4,0q201.17,0,402.32.12c4.92,0,9.33-1.82,14-2.06,7.08-.36,7.82.52,7.84,7.44V45c-2.8-2.38-6-3.08-9.67-3.07q-41.67.2-83.33,0a21.94,21.94,0,0,0-10.12,2.1c-5.28-2-9.42-.38-12.65,4a10.47,10.47,0,0,1-4.41.6c-50.3-.18-100.59-.07-150.88-.07-1.66,0-3.35.19-4.89-.66-5.93-6.56-10.91-6.46-16.7.32-1.38,1.6-2.8,3.17-4.21,4.75-2.86,1.79-6.07,1.53-9.22,1.53H-73c-11.61,0-11.51,0-14.56,11.54-1,3.73-1.31,7.8-3.85,11.44C-93.53,74.61-91.56,71.51-93,69Z" transform="translate(99 99)"/><path class="cls-12" d="M386,45c-1.79,3.28-.81,6.83-1,10.26-.25,5.36-2,6.54-6.57,4A10.77,10.77,0,0,0,371.72,58c-6.42.7-13.06-1.71-19.34,2.4-2.56,1.67-4.15-1.35-4.39-4.18-.3-3.75.88-7.64-1-11.25,2.51-.21,3,1.19,3.05,3.37s-.75,4.64.78,6.74c4.57-3,26.77-3,31.34,0,1.53-2.1.73-4.5.78-6.74S383.49,44.79,386,45Z" transform="translate(99 99)"/><path class="cls-61" d="M280.11,108q-2.52-7.5-5.05-15H334c3.21.65,1.57,3.24,2,5v2a18.36,18.36,0,0,0-1.8,4.08,6.15,6.15,0,0,1-6,4.35c-15.58.26-31.16,0-46.74.19A2.72,2.72,0,0,1,280.11,108Z" transform="translate(99 99)"/><path class="cls-62" d="M-47.06-91c-1.71,3.19-4.57,4.53-8,5C-52.79-88.29-49.88-89.56-47.06-91Z" transform="translate(99 99)"/><path class="cls-63" d="M-91-45c.24,2.3-1.1,4.06-2,6C-94.37-41.73-92.21-43.21-91-45Z" transform="translate(99 99)"/><path class="cls-64" d="M-65.93-78c-1.3,1.84-2.54,3.76-5.08,4C-69.78-75.91-68.51-77.78-65.93-78Z" transform="translate(99 99)"/><path class="cls-65" d="M-94-37.13-95.06-30a.55.55,0,0,1-1,0l0,0A10.19,10.19,0,0,1-94-37.13Z" transform="translate(99 99)"/><path class="cls-66" d="M-74-69.95l-3,4h-1C-77.7-68.34-76.48-69.77-74-69.95Z" transform="translate(99 99)"/><path class="cls-60" d="M-79-65c-.09,2-1.35,3.15-3,4C-81.9-63-80.67-64.14-79-65Z" transform="translate(99 99)"/><path class="cls-67" d="M-88-51.07A5.47,5.47,0,0,1-90-47C-90.9-49.1-89.38-50.06-88-51.07Z" transform="translate(99 99)"/><path class="cls-68" d="M-61-82a6.19,6.19,0,0,1-2.93,3C-64-81.06-62.84-81.9-61-82Z" transform="translate(99 99)"/><path class="cls-69" d="M357,389c-1.14,0-2.92-.19-3.08.9-.77,5.32-4.54,4.56-8,4.07s-5.3,4-8.93,3q-178.65,0-357.29,0c-2.62,0-5.21.7-7.56-2.22-1.64-2.05-5.37-.46-8.15-.74a1.64,1.64,0,0,1-2,.32c-1-2.85-3.44-4.42-5.54-6.3a5,5,0,0,1-.49-1.54c-.08-2.22.35-4.08,3.07-4.31A9,9,0,0,1-35.84,384c4.33,4.73,9.88,6.56,16.09,6.57q176.67,0,353.35,0c6.11,0,11.84-1.53,16.08-6.45a37.24,37.24,0,0,1,6.52-3.44,3.16,3.16,0,0,1,3.71.3c1.27,1.27.78,2.75-.06,4.06S358.35,388,357,389Z" transform="translate(99 99)"/><path class="cls-70" d="M-38,394h2l1,3c-2.65-.75-5-2.8-8-2-5.19-.72-8.49-4.34-11.92-7.76-1.7-2.26-1.52-5.44-4.32-7.36-1.67-1.15-1.28-4-.37-6.05s2.86-2,4.69-2.08a9.31,9.31,0,0,1,3.9.57c6.14,5.13,14,6.65,21,9.85,1.61.73,4.25,1,2.88,4-3.7,1.19-6.76-.59-9.87-2.15a6.71,6.71,0,0,1-4-1c-1.64-1-3.34-.39-5.24-.62.56,2.31,2.24,3.22,3.24,4.62v1A13.25,13.25,0,0,0-38,394Z" transform="translate(99 99)"/><path class="cls-71" d="M267.89,224.79,274,211.9c3.11-.89,6.29-.44,9.44-.45q22.25-.06,44.49,0c3.36,0,6-.32,7.09-4.5,1-3.81,4.08-4.21,9-1.95v8c-4.88-.49-8.93-.16-8.19,6.59.2,1.79-2.28,3.21-1.81,5.41-1.27,2.57-3.74,2.54-6,2.55-18.22.12-36.43.14-54.65,0C271.31,227.49,268.43,228.19,267.89,224.79Z" transform="translate(99 99)"/><path class="cls-72" d="M-61.09,394.06c-5.64-1.15-8.59-5.27-11-10,.06-.23.11-.47.17-.7.54-.9,1.72-2,2.29-1.46,3.78,3.33,9.15,5.3,10.11,11.19C-59.77,393.9-60.16,394.42-61.09,394.06Z" transform="translate(99 99)"/><path class="cls-73" d="M-87,359v-1l2-1a5.61,5.61,0,0,0,2,4c2.42,3.53,4.47,7.21,4.63,11.64A8.79,8.79,0,0,1-81,376l-2-3C-84.46,368.39-88.21,364.4-87,359Z" transform="translate(99 99)"/><path class="cls-74" d="M-87,359c1.12,4.74,4,9,4,14a37.81,37.81,0,0,1-8-14,.57.57,0,0,1,1,0C-89,360.59-88,359.27-87,359Z" transform="translate(99 99)"/><path class="cls-75" d="M-72.1,384.09c-1-.21-2.2.13-2.76-1.13-.34-2.25-2.83-2.81-3.7-4.82s-.3-2.7,1.4-3.28c5.22,1,7.28,4.56,5.2,9.1Z" transform="translate(99 99)"/><path class="cls-76" d="M-77,376c-2.25.23-.69,1.2-.59,2.16.22,2.09,3.86,2.09,2.72,4.8-2.76-1.68-4.47-4.28-6.15-6.92,0-1.45-.06-2.94,2-3a2.53,2.53,0,0,1,2.4,1.08A1.8,1.8,0,0,1-77,376Z" transform="translate(99 99)"/><path class="cls-77" d="M-61.09,394.06-60,393a.59.59,0,0,1,1,0c-.28,2.64,4.81,2.49,3.06,5.88C-58.82,398.51-60.4,396.75-61.09,394.06Z" transform="translate(99 99)"/><path class="cls-78" d="M-90,359h-1c-1.35-1.39-1.67-3.18-1.92-5h.9C-88.8,354.66-90.42,357.23-90,359Z" transform="translate(99 99)"/><path class="cls-79" d="M286,157l-.83-22q21.69,0,43.38,0c3.4,0,6.7,0,7.65-4.52.48-2.25,2.72-1.5,4.23-1.34,1.9.2,3.55,1,3.54,3.39,0,2.83,0,5.65,0,8.48l-5.42,0c-1.53,0-2.62.61-2.52,2.3.24,4.28-1.67,8.37-1.06,12.68-.34,2.6-2.54,2.42-4.19,2.46-13.56.27-27.13.23-40.7,0A6,6,0,0,1,286,157Z" transform="translate(99 99)"/><path class="cls-80" d="M399,173h-2c-4,.24-6.92,1.52-7,6.33,0,2.12-1.74,3.62-3.72,4.28a62.11,62.11,0,0,1-39.44.06c-1.62-.53-3.45-1.63-3.45-3.27,0-5.37-3.44-7.2-7.78-8.36-1.19-4.2-2.64-8.44,1.4-12,4.77-1.58,8.23,2.36,12.27,3.49,5.65,1.58,11.06,1.32,16.58,1.45,7,.17,14.15.62,20.95-2,.3-.11.67-.05,1-.17C397.1,159,399,160.41,399,171Z" transform="translate(99 99)"/><path class="cls-81" d="M337,160c-1.91,3.87-.62,8-1,12a1.21,1.21,0,0,1-.57,1.66,9.81,9.81,0,0,1-4.85.92c-13.31.06-26.62.15-39.92-.1-2.3,0-6.23,1.13-5.75-3.74q.55-6.87,1.1-13.74c14.61,0,29.22,0,43.83,0,1.74,0,3.69.66,5.16-1,2.08-1,4.18-1.59,6.34-.39C341.51,158.82,334.51,154.55,337,160Z" transform="translate(99 99)"/><path class="cls-82" d="M344,141h45c0,1.66.05,3.31,0,5a7.9,7.9,0,0,1-.52,2.24c-5-.74-7.17,5.09-12,4.86-5.78-.28-11.59,0-17.38-.08-3.2,0-6.81,1-8.42-3.25a1,1,0,0,0-.79-.52C342.6,150.23,344.06,145.07,344,141Z" transform="translate(99 99)"/><path class="cls-62" d="M369-86c-3.41-.49-6.28-1.82-8-5C363.83-89.56,366.77-88.34,369-86Z" transform="translate(99 99)"/><path class="cls-83" d="M385-74c-2.51-.3-3.78-2.16-5-4C382.53-77.74,383.8-75.9,385-74Z" transform="translate(99 99)"/><path class="cls-84" d="M349.92-95c-2,1.51-3.35-.12-4.86-1A7.44,7.44,0,0,1,349.92-95Z" transform="translate(99 99)"/><path class="cls-60" d="M379-79c-2-.12-3.14-1.38-4-3C377-81.93,378.14-80.65,379-79Z" transform="translate(99 99)"/><path class="cls-85" d="M284.16,127c-.43-2.66-.87-5.32-1.3-8,2-2,4.62-1.55,7.05-1.56,11.6-.07,23.2-.14,34.79,0,4.51.06,8.32-.29,9.22-5.79A1.87,1.87,0,0,1,336,110v9c.69,2.31-2.45,4.12-.51,7,.85,1.25-1.68,3-3.68,3-14.8,0-29.61,0-44.41.06C285.78,129,285.11,127.89,284.16,127Z" transform="translate(99 99)"/><path class="cls-19" d="M352,130h29c-.32,1.95-1,3.4-3.41,3.33-7.12-.18-14.24-.26-21.35-.32C354.06,133,352.21,132.7,352,130Z" transform="translate(99 99)"/><path class="cls-19" d="M381,129c1.19-3.1,4.5-1.2,6.4-2.62-.11-.36-.11-.74-.3-.93-1.34-1.31-5.18.67-4.58-2,.64-2.88,4.25-.85,6.48-1.41C389.73,129,389.73,129,381,129Z" transform="translate(99 99)"/><path class="cls-19" d="M389,121c2.67-2.7,5.33-3.39,8,0Z" transform="translate(99 99)"/><path class="cls-86" d="M267.89,224.79c1.18,1.69,3,1.19,4.56,1.19q28.13,0,56.26,0a9.76,9.76,0,0,0,5.29-1c5.66-3.57,6.95-2.91,7.35,3.59.15,2.47,1.92,3.37,4.12,3.38,14,0,27.92.07,41.88,0,2.75,0,5-1,3.92-4.6-.57-2-.25-3.73,2.13-4.23a4.43,4.43,0,0,1,5.34,2.61C400.31,229,400,232.52,400,236c-1.34-.66-2-1.48-1.49-3.16.61-1.87-.42-3.23-2.06-4s-2.85.29-3.66,1.64c-1.42,2.34-3.6,2.57-6.06,2.56q-20.22-.09-40.45,0c-2.46,0-4.64-.21-6.06-2.55-.82-1.36-1.89-2.36-3.67-1.66-1.57.61-1.44,2-1.59,3.33-.18,1.63-.63,3.23-1,4.85l-73.22-.08Z" transform="translate(99 99)"/><path class="cls-34" d="M336,280V268c.26-1.71-.58-3.57.63-5.25,2,1.09,1.27,2.95,1.34,4.47a7.82,7.82,0,0,0,3,6.07c1.48,1.19,3.39,1.55,1.8,4.5-1.07,2,1.74,2.15,3.31,2.19,4.18.1,8.32,0,6.27,6.37-.49,1.53,1.27,1.63,2.43,1.63q11.73,0,23.46,0c1.34,0,3.1-.07,2.41-2.07-1.86-5.36,1.79-5.47,5.29-5.93,2.24-.29,6.46,1.08,3.58-3.94a1,1,0,0,1,.19-.91c5-2.55,5.66-7.46,5.57-12.78l1.75.56V280c-2.16,1.14-4.27,1.71-3.62,5.41.56,3.17-2.48,4.47-5.7,4.66-1.75.1-4.93-1.23-4.95,1.31s3.21,1.34,5.06,1.65c.63.1,1.34,0,1.6,1.11a64.58,64.58,0,0,1-45.78,0c.54-2,2.37-.91,3.61-1.1s3.15-.09,3.2-1.67c.06-2-1.93-1.2-3.1-1.34s-2.38.14-3.49-.11c-2.38-.55-5-1.95-4.28-4.5C340.54,281.71,338.16,281.14,336,280Z" transform="translate(99 99)"/><path class="cls-87" d="M277,204q1.9-6.15,3.8-12.31c13.44-.47,26.87,0,40.31-.2,5.18-.05,11,1.24,13-5.9.16-.57,1.06-.72,1.75-.76,1.43,1.34,1.19,2.75.18,4.19v5a26.14,26.14,0,0,0-.48,3.95c-.25,7.15-1.53,8.54-8.51,8.6q-21.93.15-43.86,0C280.89,206.5,278,207.23,277,204Z" transform="translate(99 99)"/><path class="cls-17" d="M277,204c1.28,1.54,3.06,1,4.65,1,15.58,0,31.17-.11,46.75.1,4.39.06,6-1.42,5.71-5.75-.12-1.82-1.39-4.53,1.9-5.33,1.75,3.45,5.78.82,8,3v8c-1.33,0-2.67.11-4,0-3-.3-4.35.8-4,3.91s-1.22,4.14-4.15,4.13c-18.25-.05-36.5,0-54.75,0-1.17,0-2.35,0-3.12-1.1A22.17,22.17,0,0,1,277,204Z" transform="translate(99 99)"/><path class="cls-88" d="M336,189v-4c-1.28-1.13-1.28-2.67-1.38-4.19-.05-2.69-.53-5.46,1.38-7.81v-1c1.33,0,2.67.11,4,0,3-.3,4.42.85,4,3.94-.6,4.51,1.6,5.89,5.84,7.34,9.18,3.11,18.39,1.25,27.55,1.56,3.08.11,6.24-1.69,9.33-2.74,2.12-.72,2.23-2.55,2.31-4.49.24-6.23,1.52-6.93,8-4.59v9.44c0,6.55,0,6.56-6.34,6.56Z" transform="translate(99 99)"/><path class="cls-87" d="M344,197c-2.58-1.22-7.14,2.83-8-3,4.85,2,10.31.07,15.23,1.63,0,.45-.05.91-.08,1.37Z" transform="translate(99 99)"/><path class="cls-89" d="M336,110c-.12.11-.31.2-.36.34C333,119,333,119,323.65,119l-40.79,0q-1.38-5.52-2.75-11a24.25,24.25,0,0,1,7.82-1c12.6.07,25.21-.07,37.81.09,3.56,0,6.41-.19,7.52-4.33.29-1.08,1.79-1.83,2.74-2.73Z" transform="translate(99 99)"/><path class="cls-76" d="M394,373l1.95,2c-.58,1.25-1.95,1.38-2.91,2.07a2.1,2.1,0,0,0-2-1c-1.2-2,.28-2.62,1.63-3.34A1.56,1.56,0,0,1,394,373Z" transform="translate(99 99)"/><path class="cls-90" d="M-95,245c-1.77,20.06-.12,40.2-1.32,60.23-.44,7.21,1.67,14.5-.69,21.58A23.48,23.48,0,0,1-98,329V263c1-1.71.49-3.58.48-5.37-.12-17.26.32-34.51.83-51.76a2.37,2.37,0,0,1,1.37-1.21,2.1,2.1,0,0,1,1.68.64c2,8,.93,16.05.6,24.1C-93.25,234.64-95.77,239.61-95,245Z" transform="translate(99 99)"/><path class="cls-91" d="M-96,13l-1,80c1,5.12.28,10.28.42,15.42A.87.87,0,0,1-98,109q0-48,0-96c2.09-4.28.59-8.81.9-13.21.26-3.8,0-7.62,1-11.45Z" transform="translate(99 99)"/><path class="cls-92" d="M-97,109V93c1.63,1.47,1,3.41,1,5.15.06,9,0,17.89,0,26.84,1.74,1.93,1.33,4.32,1.39,6.59.26,10.53-.49,21.08.41,31.59l.43.8a6.62,6.62,0,0,1,.73,1.63,20.12,20.12,0,0,1-.07,8.07c-1.07,8.23-.19,16.49-.5,24.73-.09,2.27.45,4.68-1.39,6.59h-1l-.58-.66c-1-9.93,0-19.9-.56-29.84A4.45,4.45,0,0,0-98,173v-8c1-2.56.44-5.24.45-7.85.07-14.42,0-28.84.06-43.25C-97.46,112.24-97.89,110.55-97,109Z" transform="translate(99 99)"/><path class="cls-93" d="M-96,205c.45,18.28-1.75,36.52-1,54.8.05,1.16.1,2.36-1,3.19q0-29,0-58a1.6,1.6,0,0,1,1-.56,1.62,1.62,0,0,1,1,.57Z" transform="translate(99 99)"/><path class="cls-94" d="M-97,109c0,16.93,0,33.86,0,50.8,0,1.74.66,3.69-.94,5.17q0-28,0-56Z" transform="translate(99 99)"/><path class="cls-95" d="M-97,205h-1V173h1A212.31,212.31,0,0,1-97,205Z" transform="translate(99 99)"/><path class="cls-58" d="M-19-94c-.67-.66-2.45-.22-2-2,1.11-1.15,2.88.26,4-1,0-.32.05-.63.09-.94L-11-98-3-98c1.74.91,3.6.46,5.4.46q154.57,0,309.16,0c1.8,0,3.66.45,5.4-.46l8-.08L331-98c0,.31.07.63.09.94-8.37,4.1-17.37,3.42-26.26,3.42q-145.5,0-291,0c-10.48,0-21-.26-31.41-.9A2.86,2.86,0,0,0-19-94Z" transform="translate(99 99)"/><path class="cls-96" d="M317-98c-1.5,1.61-3.45.94-5.2.94Q157-97,2.22-97C.47-97-1.48-96.36-3-98Z" transform="translate(99 99)"/><path class="cls-17" d="M-86,237c-1.82,1.78-.84,4.05-1,6.09-.5,6.31-3.2,12-5,17.91,1.11-5.33-2.48-10.67,0-16a167.23,167.23,0,0,1-.71-23.25c2-2.68,2.07,1.32,3.46,1,.55-6-1.28-12.21,1-18.12a13.93,13.93,0,0,0,1.72-5.7c.12-4.08,2.6-5.47,6.24-5.49,33.47-.15,66.93,0,100.4,0a13.18,13.18,0,0,1,2,.34c3.32,9.51,6.82,18.94,10.92,28.15-.15,2.36-2.09,2.24-3.63,2.48a42.32,42.32,0,0,1-6.47.17H-73.8c-2,0-4,0-6,.1-3.63.18-5.55,1.7-4.92,5.68C-84.34,232.66-84.28,235-86,237Z" transform="translate(99 99)"/><path class="cls-97" d="M-92,221a135.36,135.36,0,0,1,0,24c-2.08-2-.23-4.84-1.44-7.19-1.46,2.32.58,5.2-1.56,7.19-2.85-4.47-.34-9.08.24-13.38,1.19-8.9.36-17.76.76-26.62v-.92c-.19-12.21.83-24.39,1-36.59a5.09,5.09,0,0,1,.66-2.85c3.32-2.86,3.43-7.14,4.42-10.88,1.18-4.52,3.67-6.33,8.15-6.33q45.72,0,91.46,0c1.82,0,3.69.08,5.11,1.53q.14,9.31.28,18.64c.74,6.26.25,6.89-6.65,6.9-28.59.08-57.18,0-85.77,0-1.67,0-3.33.06-5,0-3.13-.08-4.8,1.13-5.37,4.46-1,5.7-2.39,11.33-3.83,16.95.24,7-1.34,13.9-1.06,20.9A4.87,4.87,0,0,1-92,221Z" transform="translate(99 99)"/><path class="cls-98" d="M359,399a17.08,17.08,0,0,1,6-5c.12-2.87,2.42-4.44,4.36-5.48,5.19-2.78,8.28-7.36,11.53-11.9,1.37-.83,2.76-1.49,4.35-.57.55,2.19-.28,4.08-1.24,5.95-1.92,4.16-6.16,6.06-9.27,9-3.77,3.53-8.68,5.83-13.13,8.62A1.79,1.79,0,0,1,359,399Z" transform="translate(99 99)"/><path class="cls-99" d="M384,382c-.35-2.11.67-4,1-6-.05-2.46,2-3.55,3.34-5.06a4.94,4.94,0,0,1,3.13-1.32,1.68,1.68,0,0,1,1.1.73A5.85,5.85,0,0,1,393,373c-.6,1-2.16,1.45-2,3-3.55.53-5.59,2.33-5.37,6.17C385.67,383,385.51,383,384,382Z" transform="translate(99 99)"/><path class="cls-70" d="M357,389c-.15-1.9.08-3.57,2-4.71a1.71,1.71,0,0,0,.56-2.58c-.76-1-1.76-.48-2.7-.1-1.95.77-3.37,2.84-5.82,2.39-3.05,1.72-6,3.72-9.81,2.26-1.55-2.59.71-3.06,2.21-3.88,3.66-2,7.78-2.79,11.59-4.44a42.38,42.38,0,0,0,9.94-5.58,8.92,8.92,0,0,1,3.89-.62c4.76.11,7.56,4.69,4.39,8.05-2.18,2.31-2.62,5.09-4.2,7.44-3,4.19-7.23,6.39-12,7.77h-4C355.71,393.92,358,392.54,357,389Z" transform="translate(99 99)"/><path class="cls-100" d="M-59,393h-1c-1.39-5-7.31-5.88-9.51-10.2,0,0-1.6.75-2.45,1.15.86-4.25-.9-6.85-5-8l0-2c.1-1.33-1.58-2.67,0-4l2,1c4.1.15,5,4.76,8.32,6a1.68,1.68,0,0,1-.32,2,13.17,13.17,0,0,0,5.7,7.78A23.73,23.73,0,0,1-54,394h-2C-56.72,392.83-57.9,393-59,393Z" transform="translate(99 99)"/><path class="cls-101" d="M-67,379v-2a1.68,1.68,0,0,1-.21-2.07c2.74-1.33,3.72.87,5.07,2.47,2.71,3.21,4,7.58,8.14,9.6,3.13,3.4,7.1,5.66,11,8v2c-6.89-2.27-11.57-7.95-17.67-11.47C-63.31,384-63.69,380-67,379Z" transform="translate(99 99)"/><path class="cls-34" d="M393,373c-1.18-.72-1-1.9-1-3,0-3.94.55-7.54,5-9,2.53,3,0,5.29-1.25,7.56C395,370,393.8,371.19,394,373Z" transform="translate(99 99)"/><path class="cls-99" d="M397,361c-3.08,2.21-3.13,6.11-5,9h0c-1.9-5,.12-9.45,5-11v2Z" transform="translate(99 99)"/><path class="cls-101" d="M357,395c3.9-2.34,7.87-4.6,11-8,4.1-2,5.43-6.39,8.13-9.59,1.35-1.6,2.34-3.79,5.08-2.49A1.69,1.69,0,0,1,381,377c-.17,4.75-4,7.24-6.95,9.73s-6.18,4.66-9.05,7.27c-3.3-.69-5.7,1-8,3Z" transform="translate(99 99)"/><path class="cls-102" d="M397,359c-3.66,2.76-5.11,6.53-5,11l-3,1c-1.26-1.37-.67-2.75,0-4.15,1.72-3.77,3.65-7.44,4.37-11.61A2.6,2.6,0,0,1,397,353h0Z" transform="translate(99 99)"/><path class="cls-56" d="M-96-30h1c.58,0,1.6-.78,1.65,0a2.64,2.64,0,0,1-2.54,3C-96-28-96-29-96-30Z" transform="translate(99 99)"/><path class="cls-96" d="M-19-94c3.22-1,6.22-3,9.92-1.17,1.36.65,3.28.17,4.94.17q161.12,0,322.23.15c4.61,0,8.38-3.09,13-2.17L336-97c-2,2-4.74.25-7,1.26.58,1.39,2.19.12,3,1.22-1.25,1-2.69.26-4,.48-5.37,1.07-10.86.9-16.25.9Q157-92.9,2.18-93C-2.21-93-6.61-94.53-11-93c-.54,3.18-2.47,1.18-3.68.83C-16.16-92.6-17.09-94.45-19-94Z" transform="translate(99 99)"/><path class="cls-96" d="M-17-97c.4.2,1.6.51.75.82-1.41.51-3.12.18-4.71.2v-1Z" transform="translate(99 99)"/><path class="cls-102" d="M-67,349c3.31.28,5,2.29,5.66,5.35.35,1.5.89,3.15,2.77,2.95s1.6-1.91,1.55-3.19c-.11-2.44,1.09-3.26,3.35-3.12,1.33.08,2.67,0,4,0q206.42,0,412.84,0c3.6,0,8.56-1.77,8.09,5.06a1.34,1.34,0,0,0,1.8,1.21,2.83,2.83,0,0,0,2.12-2.48c.73-3.13,2.21-5.55,5.82-5.82h0a3.26,3.26,0,0,1,.5,3.76c-3,3.49-5.51,7.37-9.58,9.76-6.74,5.72-13.67,10.19-23.26,10.18q-191.67-.26-383.33,0c-9.58,0-16.52-4.44-23.21-10.19-4.14-2.3-6.62-6.27-9.61-9.72A3.28,3.28,0,0,1-67,349Z" transform="translate(99 99)"/><path class="cls-103" d="M-67,349v4l-.57.41c-2.14.39-3.24-1.32-4.68-2.34-1.9-1.32-4.16-.29-3.16,1.33,3.37,5.44.72,12.6,5.46,17.46a13.39,13.39,0,0,0,2.09,2.1c.93.83,1.92,1.65.86,3v2c-4.66.66-4.74-4.79-8-6-1-5.83-5-10.67-5.53-16.67-.09-1-1.43-1.26-2.47-1.33,0-3,.1-6-.06-9-.12-2.12-1.13-4.87,1.37-5.68s5.51-1,7.93,1.34a19,19,0,0,1,4.67,7.56A2.22,2.22,0,0,0-67,349Z" transform="translate(99 99)"/><path class="cls-103" d="M381,353v-4c2.37-.07,2.12-2.28,2.76-3.62a17.69,17.69,0,0,1,4.72-6.29c2.18-1.78,4.81-1.4,7.11-.77s1.29,3.08,1.37,4.74c.14,3.31,0,6.63,0,9.94-1.09.67-2.84.86-2.83,2.46,0,4.82-2.53,8.63-4.58,12.67A10.6,10.6,0,0,0,389,371c-.53,2.31-2.88,3.16-4,5a6.71,6.71,0,0,1-4,1v-2c-1.06-1.4-.05-2.21.87-3,3.27-3,5.83-6.35,5-11.27-.35-2.11,1-3.72,2.12-5.42s2.08-3.86.15-5.42-2.86.72-4,1.75a5.12,5.12,0,0,1-3.51,1.68Z" transform="translate(99 99)"/><path class="cls-104" d="M-77,370c-1.34,1.33,2.57,2.68,0,4a2,2,0,0,1-2-1c.09-4.48-3.72-7.65-4-12,2.76-.41,2.61,1.87,3.3,3.47C-78.89,366.35-77.91,368.16-77,370Z" transform="translate(99 99)"/><path class="cls-105" d="M237.1,63.78A102,102,0,0,1,254,91c.94,3.66-2.06,3.26-3.88,3.36a122.33,122.33,0,0,1-16.8,0c-1.86-.23-3.29-1.32-4.77-2.38-4.51-3.25-6.56-3.22-11,.18a8.88,8.88,0,0,1-3.81,2.15c-12,.59-24,.34-36.06.1-5.63-.73-10.81-3.18-16.44-4.09a61.21,61.21,0,0,0-30,2.77,17.65,17.65,0,0,1-5.81,1.35c-10.76.27-21.51.15-32.27.15a18.32,18.32,0,0,1-6.37-.79,12.33,12.33,0,0,1-2.18-1.16c-6.24-4.15-6.59-4.16-12.74.16a7.89,7.89,0,0,1-3.12,1.48,118,118,0,0,1-16.28.2c-1.78-.06-4.15.32-4.53-2.52A105,105,0,0,1,65,64a28.09,28.09,0,0,1,7.43-.63q79.11,0,158.21,0C232.81,63.35,235,63.59,237.1,63.78Z" transform="translate(99 99)"/><path class="cls-15" d="M237.1,63.78C235.76,65.64,233.76,65,232,65Q150.85,65,69.68,65c-1.59,0-3.37.55-4.68-1a56.24,56.24,0,0,1,3.58-4.65c3.11-3.33,4-7.06,2.47-11.37,1.8-1.13,3.81-1,5.8-1H225c2.17,0,4.34-.08,6.28,1.12C229,54.91,233.36,59.22,237.1,63.78Z" transform="translate(99 99)"/><path class="cls-13" d="M-93,69c2.16,2,.07,4.87,2.23,8.12-1.44-5.7,1.52-9.49,2.15-13.85.42-2.91,2.74-5.73,3.09-9.18.17-1.66,2.54-1.06,4-1.07,11.31,0,22.62,0,33.93,0l97.79,0L37.38,72.14c-2.69,1.78-5.74,1.42-8.72,1.42q-50.89,0-101.8,0c-1.67,0-3.33,0-5,.06-2.51.06-4.18,1-4.25,3.76a12,12,0,0,1-3.69,8.48c-3,3-1.45,6.59-1.58,10-.19,4.68-1.19,5.68-5.35,5.17Z" transform="translate(99 99)"/><path class="cls-11" d="M-93,101c5.74,0,4.51-4.64,3.74-7.21-1.38-4.64-.14-7.71,3.37-10.4,2.56-2,2-4.81,1.84-7.39-.15-3,1-4.06,4-4q58.7.18,117.41.19-5,10.49-10.1,21c-2.49,1.81-5.38,1.46-8.18,1.46q-46.57,0-93.16,0c-1.49,0-3,0-4.48,0-6,.14-6.12.34-7.24,6.35-.64,3.47.06,7.5-3.48,10,.2,1.64-2.89-2.09-1.79,1.11.57,1.68.31,3.48.45,5.22.07,1.41,0,2.81,0,4.21.16,3,.09,6,0,8.94,1,10.34-1.27,20.56-1.16,30.87,0,1.54,0,3.44-2.29,3.74h0a163.22,163.22,0,0,1,0-40c2.13-4.06.66-8.4,1-12.59C-92.8,108.62-93,104.8-93,101Z" transform="translate(99 99)"/><path class="cls-106" d="M16.83,149c-32,0-64.08,0-96.12-.05-4.07,0-7,.06-7,5.62,0,2.6-1.73,5.44-2.27,8.32-.33,1.73-1.79,2.25-3.46,2.11-.37-6.28-1.87-12.55,1.91-18.59,1.58-2.54,1.06-6.12,1.63-9.21.83-6.69,1.94-7.75,9-7.77,24.31-.07,48.63,0,72.94,0,8.14,0,16.28.13,24.42-.38Z" transform="translate(99 99)"/><path class="cls-86" d="M238,237l-173.8,0a34.08,34.08,0,0,1-5.69-7.85c2.13-2.25,4.94-1.67,7.53-1.68,16.83-.07,33.65,0,50.48-.05,3,0,6,.17,8.88-.89,1.75-1.4,2.91-.56,3.9,1a11.92,11.92,0,0,0,3.73,4.34,5.27,5.27,0,0,0,5.71,0,22.19,22.19,0,0,0,6.61-5.81c1.42-1.76,3-3,5.45-2.64,29.66-.13,59.32,0,89,0,2.28,0,4.73-.29,6.54,1.7A50.83,50.83,0,0,1,238,237Z" transform="translate(99 99)"/><path class="cls-107" d="M-86,237c-.17-2.65.48-5.36-.49-7.93-1.45-3.83.84-5.23,3.91-5.93A20.85,20.85,0,0,1-78.1,223q52.74,0,105.49,0c1.9,0,4,.77,5.65-1l7.09,12.71c-.7,3.62-3.61,2.3-5.65,2.31Q-25.76,237.06-86,237Z" transform="translate(99 99)"/><path class="cls-89" d="M-92,130v-9c1.8-1.49,2.32-3.48,2.55-5.73.71-6.86,4-10.1,10.81-10.71,1.49-.14,3-.11,4.49-.11q43.67,0,87.32,0c3.3,0,6.7-.37,9.71,1.55l-3,12c-.81,3.5-3.64,3.46-6.31,3.48-10.66.1-21.33,0-32,0h-57c-8.61,0-8.61,0-11.56,7.39C-88.39,130.56-90,131.35-92,130Z" transform="translate(99 99)"/><path class="cls-61" d="M22.88,106H-27.86q-24.7,0-49.39,0c-7.94,0-10.57,2.47-10.71,10.22-.05,2.88-.51,5-4,4.77v-4c1.3-1.84-.25-4.15,1-6,5-3.25,3.07-8.7,3.8-13.13.58-3.52,1.44-4.93,5.11-4.92q54.69.18,109.37.15Q25.07,99.57,22.88,106Z" transform="translate(99 99)"/><path class="cls-108" d="M22.12,193.78c-1.51,2-3.67,1.18-5.56,1.19q-47.83.06-95.67,0c-3.73,0-6.47.05-6.06,5.09.17,2.06-.39,4.69-2.83,6-2.36-3.15-1.69-6.77-1-10.07a49.24,49.24,0,0,0,1.31-9.79c1.18-3.31,4-3.66,6.9-3.7,7.3-.09,14.6,0,21.91,0q34.11,0,68.22,0c3.34,0,6.62-.17,9.71-1.61Q20.6,187.29,22.12,193.78Z" transform="translate(99 99)"/><path class="cls-71" d="M56,225a67.91,67.91,0,0,1-9-17c2.2-2,4.94-1.39,7.5-1.46,4.1-.11,8.2.05,12.28-.32,2.42-.16,3.8,1.49,5.34,3,4.46,4.29,7.22,4.37,11.84.39,1.25-1.08,2.33-2.38,4.26-1.75,11.43,1.41,22.9.3,34.34.63,4,.11,8-.18,11.74,1.62,1.16.7,1.76,2,1,2.92-3.47,4.13-5.13,9.58-9.55,13a17.63,17.63,0,0,1-5.91.59q-28.09,0-56.19,0C61,226.61,58.3,226.6,56,225Z" transform="translate(99 99)"/><path class="cls-109" d="M19.08,180.81c.16,3.7-2.48,3.19-4.79,3.19h-48.9c-15.63,0-31.27,0-46.9,0-2.55,0-4.65.23-5.49,3-1.13,1.78.55,3.81-.58,5.65-.88,1.42-.83,3.69-3.42,3.35,1.5-6.9,3.81-13.63,4.08-20.78.11-2.85,2.46-2.19,4.15-2.19,12.79-.05,25.58,0,38.38,0,18.61,0,37.22-.14,55.83.11,4.31,0,6.25-1.06,5.67-5.47Q18.1,174.23,19.08,180.81Z" transform="translate(99 99)"/><path class="cls-110" d="M-88,129a3.66,3.66,0,0,0,.4-.91c1.5-8.09,1.49-8.09,10-8.09H13.62c2.27,0,4.75.56,6.24-2l-2,11c-1.49,2.5-3.95,2-6.23,2H-80c-6.74,0-6.88.15-7,7C-91.09,135.42-88.87,132.13-88,129Z" transform="translate(99 99)"/><path class="cls-87" d="M68.48,206.83c-7.05,2.43-14.33.6-21.49,1.17a85.74,85.74,0,0,1-7.79-22c3.22-1.75,6.74-1.34,10.18-1.37a21.61,21.61,0,0,0,7.33-.93c1.45-.17,2.11.84,2.55,1.91a198.35,198.35,0,0,0,8.79,18.3A4.18,4.18,0,0,1,68.48,206.83Z" transform="translate(99 99)"/><path class="cls-111" d="M48,91.91c4,2.34,8.36.68,12.54,1,3.11.26,6.27,0,9.41,0C68,99.6,65.29,105.7,59.69,110.12a62.39,62.39,0,0,1-13.86.24c-1.85-.12-4.85.25-3.85-3.42C42.87,101.49,45.39,96.69,48,91.91Z" transform="translate(99 99)"/><path class="cls-112" d="M35.89,134.6a35.4,35.4,0,0,1,2-12.62c6-2.54,12.08-1.8,18.16-.19.71,7.14-1.33,13.65-4.56,19.9-3,1.28-6.11.92-9.19.79C36.18,142.22,35.13,140.85,35.89,134.6Z" transform="translate(99 99)"/><path class="cls-79" d="M35.89,134.6c-.6,5.12,1.94,6.8,6.72,6.44,3.14-.23,6.3,0,9.45,0,1.2,1.29,1.11,2.84.87,4.42-.81,2.74-.44,5.56-.61,8.35-.17,2.59-1.31,4.62-3.87,5.09-4.51.82-9.11,1.7-13.43-.86C34.39,150.16,34.25,142.35,35.89,134.6Z" transform="translate(99 99)"/><path class="cls-107" d="M56,225H127l.29.38-.22.42c-.39,3.69-3.18,3.19-5.64,3.2H65c-2.16,0-4.32.08-6.48.13A9.87,9.87,0,0,1,56,225Z" transform="translate(99 99)"/><path class="cls-81" d="M35,158c3.62,0,7.24,0,10.86,0s5.36-1.47,5.2-5.37c-.1-2.52-.94-5.26.8-7.64.12.11.33.21.35.34,1.58,9.22,2.76,18.47,2,27.86-5,2.33-10.19,1.33-15.34.89-1.69-.15-2.34-1.58-2.73-3.06A47.17,47.17,0,0,1,35,158Z" transform="translate(99 99)"/><path class="cls-89" d="M55.88,122l-17.94,0a49.68,49.68,0,0,1,4-15c.33,2.45,2.22,2,3.84,2,5,0,10,0,15,0A15.75,15.75,0,0,1,55.88,122Z" transform="translate(99 99)"/><path class="cls-113" d="M36.17,171a4.87,4.87,0,0,0,4.62,2c4.4-.13,8.8,0,13.2,0,3.43,2.95,3.54,6.83,3,10.87-.19,1.64-1.21,2.14-2.73,2.13-5,0-10.08,0-15.11,0A65.8,65.8,0,0,1,36.17,171Z" transform="translate(99 99)"/><path class="cls-17" d="M246.35,225.12q-45.93-.06-91.85-.15c-1.89,0-4.06.8-5.58-1.18.85-6.93,4-10.76,10.47-11.66a65.9,65.9,0,0,0,26.68-10c1.38-.87,2.79-1.85,4.6-1.27,5.33,1.37,10.76.45,16.14.71,2.12.1,4.27-.14,6.33.57s2,2.86,2.73,4.49c3,7,8.79,7.91,13.89,2.17,1.92-2.18,3-5.28,6.33-6a123.58,123.58,0,0,1,15.75-.22c1.94,0,4,.09,5,2.39A88.43,88.43,0,0,1,246.35,225.12Z" transform="translate(99 99)"/><path class="cls-22" d="M336,181v4c-.95.45-1.93,1.17-1.84,2.17.49,5.79-3.22,5.89-7.39,5.86-13.49-.08-27,0-40.45-.06-1.89,0-4.07.75-5.53-1.3a32.34,32.34,0,0,1,2.07-8.72c2.12-1.7,4.66-1.51,7.13-1.52,11.6,0,23.2-.18,34.79.09C328.56,181.61,332.21,179.77,336,181Z" transform="translate(99 99)"/><path class="cls-109" d="M336,181c-3.52,2.32-7.48,2-11.43,2-13.9,0-27.81,0-41.71-.06,0-4.18,1.07-8.18,2.05-12.2.47,3,2.87,2.22,4.7,2.22,15.46.05,30.93,0,46.39,0Z" transform="translate(99 99)"/><path class="cls-114" d="M256.8,205c-7.21-2.14-14.6-.4-21.88-1a2.37,2.37,0,0,1-.06-2.78,166.21,166.21,0,0,0,7.62-16.08c.58-1.39,1.34-2.74,3.26-2.42,3.54,1.05,7.19.81,10.81.86,2.29,0,4.67-.23,6.61,1.44C262.29,192.06,259.67,198.55,256.8,205Z" transform="translate(99 99)"/><path class="cls-79" d="M266.18,131.7a22.53,22.53,0,0,1,.91,9c.84,4.4.16,8.85.4,13.27.13,2.44-1.46,3.25-3.39,3.36-4.57.26-9.19.95-13.68-.67-1.73-1.22-1.78-3.11-1.86-4.92-.28-6.1-2-12.12-1.09-18.29,2.72-2.58,6.16-1.74,9.35-1.85A55.21,55.21,0,0,1,266.18,131.7Z" transform="translate(99 99)"/><path class="cls-61" d="M231.66,93.13c6,0,12,0,18-.16,1.67,0,3.88.81,4.37-2,3.15,4.52,4.13,9.91,6,14.93.85,3.57-1.67,4.2-4.16,4.39a74.64,74.64,0,0,1-13.7-.08,4.12,4.12,0,0,1-3.18-2C236.67,103.11,232.09,99.12,231.66,93.13Z" transform="translate(99 99)"/><path class="cls-97" d="M249.81,156c4.43,0,8.87-.11,13.29.1,3,.14,4.06-1.06,3.94-4-.16-3.77,0-7.55,0-11.32,1.69,10.84.65,21.58-1.23,32.29-6.19,2.3-12.34,2.83-18.41-.42C246.7,166.82,245.94,161.06,249.81,156Z" transform="translate(99 99)"/><path class="cls-89" d="M240.72,109.1c4.9,0,9.8-.1,14.7-.09,2.28,0,4.36-.13,4.61-3.08a50.32,50.32,0,0,1,4.22,15c-5.95,3-12.15,1.5-18.29,1.06A15.15,15.15,0,0,1,240.72,109.1Z" transform="translate(99 99)"/><path class="cls-109" d="M247.81,171.62c2.58,2.62,5.84,1.08,8.78,1.32s6.18.06,9.27.06c.07,4.22-1.49,8.07-2.7,12-4.46,0-8.92,0-13.38,0-2.05,0-4,0-4.94-2.34C243.34,178.32,244.76,174.75,247.81,171.62Z" transform="translate(99 99)"/><path class="cls-112" d="M245.23,121l19-.07a31,31,0,0,1,1.93,10.77c-1.94,2.3-4.57,1.13-6.89,1.25-3.7.19-7.41.05-11.11.05A13.49,13.49,0,0,1,245.23,121Z" transform="translate(99 99)"/><path class="cls-56" d="M-91-29c7.75-3.55,4-11.8,6.72-17.68C-82.7-45.53-84.79-42.8-82-43c0,7,0,7,7,7q201.68,0,403.36.12c2.54,0,7.35-2.42,7.43,2.62s-4.61,4.24-8,4.24Q125.31-29-77.13-29c-3.56,0-7.27-.88-10.61,1.61C-89-26.45-90.73-26.82-91-29Z" transform="translate(99 99)"/><path class="cls-56" d="M-76-43h9c.24,2.82-1.58,3.72-3.88,3.94C-73.73-38.79-75.56-40-76-43Z" transform="translate(99 99)"/><path class="cls-56" d="M179-51c.8,5-1.7,6.09-6.3,6.08Q52.85-45.08-67-45c1.34-5.42,1.34-5.42-7.16-6.38.41-2.38,2.18-2.59,4-2.61,2.5,0,5,0,7.5,0H171.26C174.23-54,177.41-54.55,179-51Z" transform="translate(99 99)"/><path class="cls-115" d="M-95,109V54.23h1V109C-94.33,109.45-94.66,109.45-95,109Z" transform="translate(99 99)"/><path class="cls-116" d="M-95,109h1v56h-1c-1.07-11.7-.21-23.43-.45-35.14,0-1.62-.42-3.31.45-4.86Z" transform="translate(99 99)"/><path class="cls-117" d="M-95,125v40c-1.62-1.47-.95-3.42-1-5.17-.06-11.61,0-23.22,0-34.83Z" transform="translate(99 99)"/><path class="cls-118" d="M-11-93l-1.9-.19V-94H328v1a2.46,2.46,0,0,1-3,0h-8c-1.73.92-3.6.46-5.4.46q-154.61,0-309.2,0c-1.8,0-3.67.46-5.4-.46Z" transform="translate(99 99)"/><path class="cls-96" d="M-3-93H317c-1.48,1.64-3.43,1-5.18,1Q157-92,2.18-92C.43-92-1.52-91.36-3-93Z" transform="translate(99 99)"/><path class="cls-96" d="M325-93h3c.38.2,1.6.34.77.77A2.89,2.89,0,0,1,325-93Z" transform="translate(99 99)"/><path class="cls-14" d="M341,386l10-2c-3.06,7.08-9.65,7.87-15.87,7.89q-103.42.25-206.86.11c-50,0-99.94.11-149.9-.15-5.92,0-12.57-.73-15.37-7.85,3.5-.16,6.65,1.41,10,2l1,.11c3.8,1.95,7.84,2.44,12.09,2.44q170.94-.07,341.88,0c4.25,0,8.3-.44,12.09-2.44Z" transform="translate(99 99)"/><path class="cls-14" d="M-43,387a2.44,2.44,0,0,1-.48-.05c-2.45-1-5.77-3.22-4.63-5.05,1.41-2.24,4.93-1,7.11,1.1C-43.68,383.33-42.81,385.43-43,387Z" transform="translate(99 99)"/><path class="cls-14" d="M-38,394c-4.24.14-5.52-2.18-5-6C-40,388.92-36.93,389.72-38,394Z" transform="translate(99 99)"/><path class="cls-103" d="M365,373c-3.33,5.31-9.49,5.52-14.41,8-3.24,1.6-7.28,1.65-9.59,5h0a30.56,30.56,0,0,1-13.13,2.48q-170.86,0-341.74,0A30.56,30.56,0,0,1-27,386h0c-2.31-3.39-6.35-3.44-9.59-5-4.92-2.44-11.08-2.65-14.41-8-1.7-1.06-4.7-.85-4-4.19,1.32-.77,2.45-.16,3.6.47a63.44,63.44,0,0,0,6.27,3.58c8.82,5.45,18.51,7.14,28.68,6.75,2.5-.1,5-.16,7.49-.16H323.33c6.46,0,12.87.5,19.39-.55,7-1.11,13.2-3,18.07-8.37a6.69,6.69,0,0,1,5.85-2.2,3,3,0,0,1,1.58.73C369.18,372,366.55,372.07,365,373Z" transform="translate(99 99)"/><path class="cls-119" d="M-55,369c.69,2,2.8,2.53,4,4a20.34,20.34,0,0,0-2.47,0c-2.31.28-5.53-1.29-5.6,3.29-.06,3.77,1.53,5.15,5.68,4.58-1.31,2.25-2.83,4.19-.61,6.11-5.56,0-6.21-5.39-8.85-8.48-1.26-1.47-1.9-3.32-4.15-3.52a1.82,1.82,0,0,0-2-2c-1.85-3.79.59-7,1.56-10.36.55-1.88,2.52-1.26,3.72-.27A17.5,17.5,0,0,0-56.77,366C-55.67,366.67-54.52,367.37-55,369Z" transform="translate(99 99)"/><path class="cls-120" d="M-95,205c0-8.95,0-17.9,0-26.84,0-1.75-.66-3.69,1-5.16,1.89,2.9,1.09,6.18.9,9.21-.47,7.59.06,15.22-.9,22.79h-1Z" transform="translate(99 99)"/><path class="cls-116" d="M-94,205V165a2.93,2.93,0,0,0,1-2.68c-.3-10.79,1.75-21.51,1-32.32a6.71,6.71,0,0,0,4-1c1.25,2.9-1.53,6.24,1,9-.1,2.77-1.47,5.38-1,8.22.08.47.09,1.25-.17,1.42-7,4.55-2.53,11.59-3.8,17.36.67,12.47-1,24.87-1,37.32A3,3,0,0,1-94,205Z" transform="translate(99 99)"/><path class="cls-121" d="M-97,205V173c1.63,1.47,1,3.42,1,5.16.06,8.94,0,17.89,0,26.84Z" transform="translate(99 99)"/><path class="cls-122" d="M-91,196c3.92-1.85,2-6.31,4-9,1.37,3-.06,5.7-.58,8.59-.61,3.39-.32,6.93-.42,10.41.33,5.1-.58,10.24.56,15.34.45,2-.94,3.71-2.35,5.26-2.45-1.26-.08-4.33-2.21-5.59C-92.67,212.63-91,204.35-91,196Z" transform="translate(99 99)"/><path class="cls-119" d="M365,373l3-3c2-4.69,7.32-5.13,10.66-8.13a1.73,1.73,0,0,1,2.85.79c.76,3.4,3.34,6.57,1.49,10.34a1.82,1.82,0,0,0-2,2c-4.43.74-4.61,5.31-7,7.92-1.76,2-2.94,4.27-6,4.08,1.68-1.87,2-3.68-.71-5.12,1.85-1.5,4.23-.22,5.2-2.2a7.33,7.33,0,0,0,.26-5.31c-.56-1.94-2.42-1.24-3.8-1.35S366.32,373,365,373Z" transform="translate(99 99)"/><path class="cls-123" d="M-55,369a3.46,3.46,0,0,0-2-2c-.85-1.63-3.08-2.47-2.72-4.79A2.43,2.43,0,0,1-59,361c.5,0,1.29-.16,1.45.09,2.81,4.19,8.18,4.52,11.52,7.67A7.38,7.38,0,0,0-40.41,371q197.42,0,394.82,0A8.52,8.52,0,0,0,360,368.8c4-3.06,8.6-5.25,13-7.8a2.62,2.62,0,0,1,.79,1.22c.19,4.07-3.84,4.53-5.79,6.78-3.5.48-5.91,2.16-8.34,5-3.38,3.94-8.8,5.05-13.81,5.89-3.41.57-6.9.73-10.14,2-2.59,1-4.54-1-7-1-114.5.16-229,.05-343.48.3A79.76,79.76,0,0,1-41.41,377c-2.31-.8-3.9-2.43-5.59-4-1.55-1.2-2.82-2.85-5-3Z" transform="translate(99 99)"/><path class="cls-103" d="M-59,361v1c-5.37.06-9.26-4.32-8-9h0C-63.24,354.58-61.67,358.33-59,361Z" transform="translate(99 99)"/><path class="cls-103" d="M373,362v-1c2.67-2.67,4.24-6.42,8-8h0C382.2,357.51,378.16,362.05,373,362Z" transform="translate(99 99)"/><path class="cls-101" d="M-67,353c.09,5.29,4.26,6.95,8,9l2,5a9.24,9.24,0,0,1-7.07-3.47c-1.47-1.8-3.09-1.7-2.85,1.05.27,3.13-3,5.24-2.08,8.42-3.11-3.75-6.37-7.41-5-12.93.47-1.91-1.32-2.76-2.13-4.11-1.3-2.14-1.73-4.83.24-6.78,2.34-2.31,3.73.28,5.22,1.63C-69.61,351.8-68.69,353-67,353Z" transform="translate(99 99)"/><path class="cls-124" d="M373,362c3.64-2.13,7.68-3.91,8-9a9,9,0,0,0,4.79-4.11c.64-1.11,1.79-2.34,3.25-1.17,1.18.93,3.78,1.63,2.61,3.6-4,6.8-2.06,16-8.65,21.68.69-3.42-2.55-5.88-2.19-9.36.18-1.79-1.57-1.51-2.33-.5-2.7,3.56-7.58,3.68-10.48,6.86v-1C368.85,366.08,373.35,365.78,373,362Z" transform="translate(99 99)"/><path class="cls-51" d="M190,200.93c-9.15,6.51-19,11.25-30.36,12.32-3.57.34-6.21,1.32-7.52,5-.7,2-2.09,3.7-3.18,5.54-3.23,3.24-5.6,7.38-10,9.43a11.26,11.26,0,0,1-5.93-.15c-4.07-.72-4.16-4.68-5.93-7.27a.61.61,0,0,0-.07-.8c.31-6.06,6-8.95,8.17-13.94,1.6-5.12,3.12-10.28,7.31-14.06a18.44,18.44,0,0,1,4.19-2c3.85-.87,7.84.15,11.69-.81,1.65-.46,3.41-.37,5-1a27.14,27.14,0,0,0,2.6-1.12c13.52-4.59,22.42-13.8,27.16-27.17.44-1.35.7-2.75,1-4.13.54-1.61.55-3.33,1-5a20.71,20.71,0,0,0,.12-9.3,13.32,13.32,0,0,1-.38-2.06,11.56,11.56,0,0,0-.63-3.24,26.7,26.7,0,0,1-1.1-3,14.11,14.11,0,0,1-.3-1.84,7.55,7.55,0,0,0-1.38-3.26c-.28-.55-.49-1.13-.72-1.7a26.9,26.9,0,0,0-1.47-2.69,22.14,22.14,0,0,0-1.22-2.05c-.51-.61-1.11-1.12-1.59-1.75a11.84,11.84,0,0,0-1.81-2.36,28.42,28.42,0,0,1-2.22-2.17c-.68-.77-1.18-1.67-1.8-2.49a8.2,8.2,0,0,0-1.33-1.16,18.66,18.66,0,0,1-1.92-1.38,7.37,7.37,0,0,0-2.54-1.41,8.92,8.92,0,0,1-1.12-.43c-1.08-.55-2.16-1.1-3.23-1.66-1.23-.69-2.34-1.58-3.62-2.18a14.56,14.56,0,0,0-2.33-.8c-.43-.09-.84-.2-1.26-.32-1.33-.36-2.7-.44-4-.69-2.4-.76-4.87-.52-7.33-.55s-5-.26-7.45.45a28.88,28.88,0,0,0-4.21,1.08c-2,.87-4.07,1.22-6.05,2-11.28,4.87-18.78,13.34-23.43,24.55a33.33,33.33,0,0,0-2,6.94c-.74,2.45-.38,5-.47,7.46,0,1.51,0,3,0,4.52,0,.48,0,1,0,1.45a14,14,0,0,0,.59,4.81c.28,1.3.56,2.6,1,3.86a22.33,22.33,0,0,0,1.06,3c.49,1.11,1,2.2,1.62,3.27.44.87.83,1.77,1.28,2.64a25,25,0,0,0,1.58,2.37c.4.63.75,1.3,1.22,1.9.39.42.79.84,1.2,1.25.86.87,1.73,1.71,2.6,2.56a15.73,15.73,0,0,1,1.31,1.4c.7.87,1.28,1.81,1.93,2.71a10.49,10.49,0,0,1,1.15,1.79,9.75,9.75,0,0,1,.54,1.39c1.35,4.65-.67,8.14-4.16,10.78s-7.12,2-10.75.12c-2.69-1.41-4.73-3.56-6.83-5.66A76.18,76.18,0,0,1,96.12,183a108,108,0,0,1-5.36-11.8c-3.49-8.3-3.27-17.06-3.15-25.8a46.74,46.74,0,0,1,2.08-11.18A80.55,80.55,0,0,1,95.06,121c2.15-4.56,5.32-8.45,8.36-12.42,6.5-6.82,13.45-13,22.88-15.51a67.17,67.17,0,0,1,50.54,0c8.95,2.17,15.47,8.06,21.76,14.28,3.85,4,6.7,8.64,9.56,13.32,2.27,3.89,3.6,8.16,5.07,12.38a60.64,60.64,0,0,1,2.06,9.88c.08,2.33-.11,4.68.51,7a7.6,7.6,0,0,1,0,2.38c-.5,6.87-1,13.74-3.67,20.21A52.49,52.49,0,0,1,207,183.26c-3.52,5.35-7,10.71-12,14.94C193.5,199.46,192.25,201.12,190,200.93Z" transform="translate(99 99)"/><path class="cls-51" d="M245.23,121q1.47,6,3,12A195.64,195.64,0,0,1,249.81,156q-1,7.83-2,15.67l-3,11A228.85,228.85,0,0,1,234.92,204c-1,1.3-2,2.56-2.88,3.93-2.58,4-5.82,7-11,5.66-5.33-1.37-7-5.54-7.08-10.57-1.53-3,.86-4.93,2.25-6.92,3-4.29,6.15-8.46,7.75-13.54a45.91,45.91,0,0,0,3.23-10,52.11,52.11,0,0,0,2.57-16.94,8.64,8.64,0,0,1,.27-1.52,9.8,9.8,0,0,0-.06-6.65c-.61-4.89-.21-9.92-1.93-14.66-1.82-3.87-1.32-8.47-3.84-12.11-1.95-5-3.86-10-7.49-14.18-4.75-6.25-5.09-8.82-1.81-13.53,5.9-6.62,10.51-6.58,16.73.15l9.06,16Q243,115,245.23,121Z" transform="translate(99 99)"/><path class="cls-51" d="M57,183.87q-1.51-5.43-3-10.87a151,151,0,0,1-2.11-28l.18-4c.17-6.56,2.92-12.59,3.82-19q2.46-6.51,4.93-13l9.1-16c5.86-6.29,9.75-6.52,16.06-1,3.13,3.51,2.85,7.22.56,11-1.21,2-2.47,3.93-3.6,6a46.54,46.54,0,0,0-6.12,12.55c-1.61,4.31-3.25,8.6-3.79,13.21a71.25,71.25,0,0,0-1.57,18.07c-.42,6.59,1.36,12.9,2.59,19.26A77.83,77.83,0,0,0,78,183.45c1.14,3.78,3.24,7.08,5.35,10.36,1.34,2.46,3.28,4.59,4.26,7.22.86,2.34,1.32,4.79-.56,7-6,8.36-11.26,8-18.52-1.18C63.84,199.59,60.49,191.71,57,183.87Z" transform="translate(99 99)"/><path class="cls-61" d="M81.63,108.89a15,15,0,0,1,2.86-5C87.39,100.24,88,96.28,86,92c2,1.17,4.1,1,6.24,1l34.09.11a83,83,0,0,0-21.89,16C96.79,111.3,89.19,111.92,81.63,108.89Z" transform="translate(99 99)"/><path class="cls-61" d="M214.93,93c-2,5.09-.18,9.33,3,13.25a2.71,2.71,0,0,1-2.75,2.87c-5.81.44-11.69,1.49-17.33-1a86.63,86.63,0,0,0-21-15Z" transform="translate(99 99)"/><path class="cls-89" d="M-91,111c-.33,2,.81,4.24-1,6,0-2.23,0-4.45,0-6.68,0-.09.2-.18.3-.28Z" transform="translate(99 99)"/><path class="cls-20" d="M133,233.07l5.93.15C136.94,234.4,135,234.56,133,233.07Z" transform="translate(99 99)"/><path class="cls-87" d="M87,208c1.46-5.74-2.61-9.56-4.85-14,1.88-1.87,4.31-1.48,6.59-1.51,5.15-.07,10.3-.12,15.45.1,1.07,1,2.18,2,3.2,3,3.44,3.52,7.21,6,12.26,3.43,4.74-2.37,5.45-6.5,4.5-11.23,1.34-.32,2.18.7,3.22,1.2l2,1.09a5.82,5.82,0,0,1,.92.64,4.57,4.57,0,0,0,1.82,1.17,11.09,11.09,0,0,1,3.24,1.29,11.2,11.2,0,0,0,2.89.92,18.7,18.7,0,0,1,3.72,1.32,2.1,2.1,0,0,1,1.05,2.34c-4.12,3.54-4.09,9.52-7.84,13.27-14.4-2.11-28.88-.57-43.31-1.1C90.11,209.9,87.65,211.06,87,208Z" transform="translate(99 99)"/><path class="cls-125" d="M224.91,183c-1.79,6.83-6.59,12-10.17,17.77A6.94,6.94,0,0,0,214,203c-6.58,0-13.17,0-19.75,0-1.67,0-3.84.69-4.26-2A81.44,81.44,0,0,0,206,183,80.82,80.82,0,0,1,224.91,183Z" transform="translate(99 99)"/><path class="cls-126" d="M-27,386q184,2.49,368,0c-2.25,3.06-5.27,4.05-9.05,4.05q-174.94-.09-349.9,0C-21.73,390.05-24.75,389.06-27,386Z" transform="translate(99 99)"/><path class="cls-103" d="M-52,370c3.1-1.38,4,1,5,3C-49.13,372.78-50.52,371.3-52,370Z" transform="translate(99 99)"/><path class="cls-102" d="M345.73,378c-1.46-.34-4,.63-3.84-1.69.15-2,2.65-1.31,4.17-1.3,1.32,0,3.59-.68,3.56,1.38C349.58,378.89,347.11,377.62,345.73,378Z" transform="translate(99 99)"/><path class="cls-79" d="M70.13,153c-.4-6.44-.12-12.81,1.86-19,6.29-2.45,12.57-2,18.86,0l-2,11c-.76,2.92-.43,5.91-.29,8.83.17,3.3-1.43,4.42-4.33,4.58-2.63.14-5.27,0-7.9.1C72.41,158.7,70,157.31,70.13,153Z" transform="translate(99 99)"/><path class="cls-106" d="M229.05,131.89a39,39,0,0,1,2.06,15.68,13.7,13.7,0,0,1,0,6.85l.2.28-.18.3c-4.49,2.7-9.32,1.69-14,1.14-2.56-.3-3-2.21-2.19-4.49a5.51,5.51,0,0,1-.22-.89c0-.12.14-.27.22-.41-.93-2.37.14-4.94-.71-7.32q-1-5-2.05-10C217.62,130.16,223.38,131.76,229.05,131.89Z" transform="translate(99 99)"/><path class="cls-97" d="M70.13,153c.89,2.57,2,4.5,5.43,4.07,3.72-.48,8.22.94,11.12-.7,3.24-1.82.59-6.68,1.44-10.1a5.92,5.92,0,0,1,.72-1.26A80.83,80.83,0,0,0,92,171.94a1.5,1.5,0,0,1-1.21,1.84c-5.94.89-11.92,2-17.7-.78A56.07,56.07,0,0,1,70.13,153Z" transform="translate(99 99)"/><path class="cls-81" d="M214.9,151.65c-.07,2.43,1,3.48,3.54,3.39,4.22-.15,8.46,0,12.69,0a46.36,46.36,0,0,1-2.83,18.11c-5.81,2.14-11.62,2.57-17.39-.14A118.71,118.71,0,0,0,214.9,151.65Z" transform="translate(99 99)"/><path class="cls-89" d="M81.63,108.89l22.78.25L96,121A27.78,27.78,0,0,1,75.86,121,37.05,37.05,0,0,1,81.63,108.89Z" transform="translate(99 99)"/><path class="cls-89" d="M197.87,108.05l15.31,0c1.82,0,3.69.19,4.77-1.77,3.84,3.81,5.17,9,7.33,13.69-5.81,4.27-11.94,3.19-18.14,1.08Z" transform="translate(99 99)"/><path class="cls-110" d="M75.86,121,96,121l-5.19,13H72A35,35,0,0,1,75.86,121Z" transform="translate(99 99)"/><path class="cls-127" d="M160,107c1.42-.05,2.88-.2,4,.95,1.46,3.22-1.41,4.48-3,6.07q-20.55,20.76-41.28,41.34c-3.18,3.16-6.25,6.43-9.31,9.71a1.28,1.28,0,0,1-1.34-.12,5.57,5.57,0,0,1-1.06-4,8.74,8.74,0,0,1,2.46-3.67c10.44-10.63,20.87-21.26,31.42-31.78C148,119.45,153.74,113,160,107Z" transform="translate(99 99)"/><path class="cls-128" d="M129.71,191.11a.85.85,0,0,1-.67-.27c-.44-2.16,1.17-3.37,2.33-4.68,7.86-8.83,16.49-16.9,24.65-25.44,9.64-10.09,19.63-19.82,29.44-29.73,1.22-1.23,2.21-3,4.37-2.94l2,3c-3.92,6.24-9.73,10.78-14.78,15.95q-20.53,21-41.51,41.6C134,190.11,132.63,192.58,129.71,191.11Z" transform="translate(99 99)"/><path class="cls-129" d="M107.08,155c0-1.66-.11-3.32-.16-5,13.18-14.69,27.21-28.54,41.32-42.32a5.34,5.34,0,0,1,1.71-1,7.78,7.78,0,0,1,2.15-.17,3.85,3.85,0,0,1,2.11.35c1.13,2.67-1,4-2.41,5.48-4.9,5-9.73,10-14.77,14.87-8.39,8.07-15.83,17.06-24.24,25.11C111.27,153.78,110.08,156.48,107.08,155Z" transform="translate(99 99)"/><path class="cls-130" d="M150,107q-10.94,11.17-21.86,22.35c-5.76,5.93-11.52,11.85-17.17,17.89a13,13,0,0,1-4,2.75c0-2.8-.42-5.64.91-8.3,1.65,0,2.79-1,3.79-2.08C120.7,130.06,130,120.7,138.89,111c.84-.92,1.42-1.82.87-3.09,1.19-1.12,2.68-.86,4.11-.92A8.85,8.85,0,0,1,150,107Z" transform="translate(99 99)"/><path class="cls-131" d="M123,185.91l-2.39-2.71a33.88,33.88,0,0,1,7.92-9.51c9.58-7.56,16.8-17.44,25.71-25.71,8.36-7.76,16.07-16.35,24.12-24.52,1.37-1.39,2.54-3.13,4.67-3.57l2,2.06a6.74,6.74,0,0,1-2.39,4.24C173,134.92,164.58,145,155,153.86a164.44,164.44,0,0,0-18.42,19.42C131.5,176.9,128.57,182.81,123,185.91Z" transform="translate(99 99)"/><path class="cls-109" d="M73.13,173c6.29-.6,12.71,1.26,18.91-1.06l5.06,10.88a1.7,1.7,0,0,1-1.58,2.12c-6.2.64-12.45,2-18.48-.94A32,32,0,0,1,73.13,173Z" transform="translate(99 99)"/><path class="cls-132" d="M77,184c5.16,0,10.31,0,15.47,0,1.59,0,3.39.51,4.59-1.16l7.09,9.77c-1.19,2-3.16,1.37-4.87,1.39-5.72.06-11.45,0-17.17,0A32.33,32.33,0,0,1,77,184Z" transform="translate(99 99)"/><path class="cls-133" d="M111.7,171.14a5.1,5.1,0,0,1-1.53-3.15c10.28-10.12,20.18-20.61,30.56-30.65,8.45-8.17,16.54-16.75,24.62-25.31.79-.84.85-2.16,1.67-3,1.76-.25,2.77,1.07,4,1.91.64,2.26-1.17,3.3-2.36,4.58-16.78,18-34.28,35.31-51.71,52.69C115.53,169.6,114.39,171.83,111.7,171.14Z" transform="translate(99 99)"/><path class="cls-134" d="M127,189.76c-1-.64-1.91-1.29-2.86-1.94a1.36,1.36,0,0,1-.26-.75c9.11-9.6,18.21-19.19,27.62-28.51,7.16-7.09,14.7-13.91,21-21.91,3.17-3.19,6-6.75,9.54-9.52,1.51-1.17,2.85-2.95,5.2-2.23.74.11,1.55.12,1.68,1.13-2.09,4.74-6.44,7.51-9.88,11-16.75,17-33.17,34.32-50,51.22A8,8,0,0,1,127,189.76Z" transform="translate(99 99)"/><path class="cls-110" d="M207.14,121c6.05-.32,12.19.86,18.14-1.08,2.47,3.6,2.49,8,3.77,12-5.5,2.45-11.29.49-16.91,1.11Z" transform="translate(99 99)"/><path class="cls-135" d="M183.05,119.89c-7.64,7.87-15.61,15.45-22.8,23.7-5.67,6.51-12.53,11.71-18.12,18.36-6.46,7.68-14.27,14.22-21.5,21.25-.27-.28-.54-.55-.82-.82-.63-2.6,1.35-3.91,2.74-5.48,10.94-12.32,23.21-23.32,34.54-35.25C165,133.37,173.15,125.4,181,117.1Z" transform="translate(99 99)"/><path class="cls-136" d="M111.7,171.14c8.9-7.52,16.76-16.11,24.8-24.5,1.27-1.32,2.64-2.43,3.94-3.66,10.72-10.19,20.5-21.27,30.59-32.07,1,.76,2.51.66,3.08,2a3.25,3.25,0,0,1-1,1.79c-4.48,4.93-9.3,9.53-13.94,14.31-.3.35-.64.67-1,1-7.21,7.4-15.06,14.18-21.59,22.25-2.77,4-7.54,5.93-10,10.19q-4.42,4.58-9,9c-1.23,1.19-2.25,2.93-4.44,2.47Z" transform="translate(99 99)"/><path class="cls-137" d="M127,189.76c.57-3.23,3.33-5.1,5.39-6.93,7.94-7.06,15.22-14.8,22.49-22.47,10.4-11,21.06-21.69,31.7-32.43a28.14,28.14,0,0,1,2.29-1.9c.32.67.64,1.34,1,2-5.55,5.63-11.19,11.19-16.63,16.93-12.1,12.77-25.14,24.62-36.73,37.89-2.39,2.73-5.47,4.83-7.43,8Z" transform="translate(99 99)"/><path class="cls-138" d="M181,117.1c-2.42,4.55-5.92,8.25-9.5,11.88-15.57,15.76-31.62,31.05-46.67,47.33-1.79,1.93-3.91,3.57-5,6.06a7.36,7.36,0,0,1-2.92-3.32c9.56-10.18,19.59-19.9,29.33-29.89,10.42-10.69,20.43-21.82,31.52-31.87A5.16,5.16,0,0,1,180,116.2Z" transform="translate(99 99)"/><path class="cls-109" d="M210.91,173l17.39.14a28.6,28.6,0,0,1-3.39,9.9A37.51,37.51,0,0,1,206,183Q208.45,178,210.91,173Z" transform="translate(99 99)"/><path class="cls-139" d="M129.71,191.11c2.49-.08,3.71-2.06,5.21-3.56,15.78-15.73,31.61-31.41,47.2-47.33,3.12-3.2,6.41-6.17,9.69-9.17l.27,1.8c-1.58,5.37-6.41,8.2-9.91,11.89-13.34,14.09-27.34,27.56-40.65,41.7-2.68,2.85-5.5,6.45-10.33,6.07C130.21,192.55,130,191.82,129.71,191.11Z" transform="translate(99 99)"/><path class="cls-140" d="M138,195c-1.13.06-2.24.08-3-1-.6-1.86.85-2.69,1.89-3.69,15.72-15,30.36-31.08,45.93-46.23,2.46-2.39,4.78-5,7.22-7.42,1.18-1.19,2.29-1.94,3.84-.67v2c-.54,2.25-2.32,3.58-3.84,5.08-11.86,11.8-23.57,23.76-35.48,35.51a30.07,30.07,0,0,0-4.9,5.6C145.91,188,142.83,192.41,138,195Z" transform="translate(99 99)"/><path class="cls-141" d="M139.76,107.86c3.07,0,2.93,1,1,2.91-7.41,7.62-14.62,15.44-22.12,23-2.9,2.91-5.09,6.51-8.64,8.84-1.59,1-2,.66-2.19-.87.2-2.42.58-4.79,2.11-6.8,8.31-8,16.87-15.79,23.94-25C135.6,108.55,137.76,108.42,139.76,107.86Z" transform="translate(99 99)"/><path class="cls-142" d="M159.18,195.1c-4.23,1.87-8.74.31-13.06,1.12a1.57,1.57,0,0,1-1.37,0c-2.44-2.78.26-4.24,1.7-5.73,6.61-6.8,13.36-13.46,20.08-20.15,7.89-7.86,15.7-15.79,23.21-24,1.36-1.49,2.64-5.48,6.11-2.3l.25,1.83a1.37,1.37,0,0,1,.11,1.33q-23,22.65-45.34,46c.85.8,1.72.51,2.53.58a27.45,27.45,0,0,1,3,0A3.57,3.57,0,0,1,159.18,195.1Z" transform="translate(99 99)"/><path class="cls-143" d="M180,116.2c-2.39,3.87-6.14,6.43-9.25,9.6q-25.23,25.83-50.39,51.73a4.38,4.38,0,0,1-3.42,1.52l-.92-1c.49-2.29,2.37-3.53,3.88-5,12.52-12.28,24.55-25,37-37.36,1.51-1.5,3.22-2.88,4.16-4.89a6.77,6.77,0,0,1,1.35-1.62c5.15-4,9.3-9.06,13.81-13.74a1.59,1.59,0,0,1,1.89-.46Z" transform="translate(99 99)"/><path class="cls-144" d="M167,109c1.17,2.56-.63,3.92-2.13,5.49-6.72,7-13.33,14.28-20.39,20.9-11.22,10.51-21.22,22.23-32.91,32.23-.33.28-.94.25-1.42.37-.46-1-1.29-1.79-1.06-3H110c17.87-17.87,35.95-35.53,53.38-53.84a5.77,5.77,0,0,0,1.65-3A1.92,1.92,0,0,1,167,109Z" transform="translate(99 99)"/><path class="cls-145" d="M194.09,165.05c-4.57,14.08-13.55,23.77-28,28-1.11-1.72-1.19-1.8-.09-2.89,7.86-7.84,15.46-15.93,23.39-23.7C190.64,165.26,192,163.58,194.09,165.05Z" transform="translate(99 99)"/><path class="cls-146" d="M193.87,136c-3.56-.13-5.17,3.11-6.9,5-11.61,12.71-24.31,24.34-36.22,36.74-5.23,5.45-10.51,10.85-15.76,16.27l-3.81-1.5c5.66-2.34,9.69-6.74,13.67-11.1,11.36-12.46,23.54-24.12,35.35-36.13,4-4.09,7.92-8.28,11.88-12.43A3.24,3.24,0,0,1,193.87,136Z" transform="translate(99 99)"/><path class="cls-147" d="M107.08,155c5.87-2.82,9.61-8.07,13.83-12.62,6.64-7.16,13.58-14,20.31-21.05,4.4-4.61,9.95-8.26,12.77-14.29,1.39-.74,3.09-1.15,3.95.25s-.67,2.39-1.58,3.31c-10.75,11-21.11,22.3-32.24,32.9-4.43,4.22-8.29,9-12.82,13.16-1.65,1.51-3.23,2.71-4.16-.62Z" transform="translate(99 99)"/><path class="cls-148" d="M162,131c-1.52,4.46-5.61,6.79-8.61,9.92C142.13,152.63,130.51,164,119,175.48c-.93.93-2,1.7-3,2.54l-1.29-1.87c2.07-4.1,6-6.55,8.9-9.87,2.51-2.84,5.73-5,7.54-8.5a43.31,43.31,0,0,1,5.22-5.53,8.23,8.23,0,0,1,.89-1.08c5.75-4.78,10.64-10.44,16-15.58,1.67-1.6,3.11-3.48,5.33-4.42C159.72,130.84,160.83,130.27,162,131Z" transform="translate(99 99)"/><path class="cls-149" d="M195.85,144c-2.14-1.31-3,.64-4,1.74-14.51,16.16-30.34,31-45.56,46.5-1,1.05-2.44,1.95-1.27,3.73a1.68,1.68,0,0,1-1.91.43c-2.66-2.21-1.05-4.16.54-5.87,2.36-2.54,5-4.8,7.19-7.51.3-.35.63-.67,1-1a72,72,0,0,0,6.64-6.89c10.8-10,20.63-21,31.07-31.43,1.61-1.6,3-3.73,5.82-2.85C196.16,141.77,196,142.88,195.85,144Z" transform="translate(99 99)"/><path class="cls-150" d="M165,108.16c1.2,1.86-.46,2.64-1.39,3.7-13.16,15-27.9,28.56-41.85,42.84-3.23,3.31-6.52,6.55-9.81,9.79-.52.51-1,1.52-2,.51a17.19,17.19,0,0,1,4.43-5.95q23.16-23.12,46.27-46.28c1.37-1.38,3.25-2.47,3.32-4.78Z" transform="translate(99 99)"/><path class="cls-151" d="M107.14,156c1.15,1.79,2.14,1.28,3.4,0,11.46-11.93,23.84-23,34.69-35.5,3.85-4.45,9-7.73,12.08-12.89-1-1-2.23-.45-3.32-.58l-2,0c-.32-.18-.43-.37-.33-.55s.22-.28.33-.28c2.72-.18,5.45-.51,8,.88,0,1.92-1.44,2.92-2.61,4C145.67,122.41,135,134.76,123,145.83c-5.18,4.76-9.5,10.54-14.94,15.15C106.94,159.48,107,157.77,107.14,156Z" transform="translate(99 99)"/><path class="cls-152" d="M133.88,109.93c2,.23,1.6,1.08.56,2.13-6.23,6.25-12.48,12.47-18.66,18.77-1.36,1.4-2.46,3.06-3.73,4.55-.93,1.09-1.84,1.63-2.1-.47A40.52,40.52,0,0,1,133.88,109.93Z" transform="translate(99 99)"/><path class="cls-153" d="M195.31,140.84c-4.85,2.12-7.74,6.46-11.25,10-8.27,8.46-16.18,17.26-25.06,25.11a29.45,29.45,0,0,0-7,7c-.95.47-1.69,1.59-3,1,1.9-5.27,6.78-7.91,10.41-11.6,11.36-11.59,23-22.93,34.46-34.37Z" transform="translate(99 99)"/><path class="cls-154" d="M159.18,195.1,156,195c-.13-3.45,2.57-5.3,4.6-7.21,9.42-8.89,18.6-18,27.42-27.47,2.25-2.42,4.06-6.09,8.26-6.18a2.56,2.56,0,0,1-.21,2.11c-.18,1.72.32,3.57-.9,5.1-4.79,1.95-7.66,6.17-10.87,9.77-5.83,6.54-12.3,12.43-18.29,18.8-1.12,1.19-2.67,2.1-2.05,4.13C162.59,195.29,160.84,195,159.18,195.1Z" transform="translate(99 99)"/><path class="cls-155" d="M173,137c0,2.32-1.94,3.4-3.31,4.77-10.76,10.82-21.6,21.56-32.33,32.41-3.26,3.3-6.23,6.89-9.37,10.31-1.12,1.22-2.22,2.54-4.1,2.58l-.87-1.16c3.94-4.69,7.4-9.87,13-12.91,11.26-12.35,23.42-23.81,35.23-35.62A1.43,1.43,0,0,1,173,137Z" transform="translate(99 99)"/><path class="cls-156" d="M164,194c-3.28-.78-1.38-2.64-.41-3.51,10.25-9.15,18.94-19.81,28.8-29.33.81-.78,2.06-3.21,2.82.14-.28,1.27.16,2.75-1.1,3.74-5.34,1.13-6.94,6.6-10.89,9.48-6.63,4.83-10.71,12.41-17.4,17.34-.12.09.2.77.31,1.18C165.72,194.08,164.85,194.05,164,194Z" transform="translate(99 99)"/><path class="cls-157" d="M173,137q-15.75,15.51-31.52,31c-1.76,1.73-3.65,3.34-5.48,5,0-2.31,1.92-3.38,3.28-4.75,10.47-10.53,21-21,31.48-31.53,4.84-4.87,9.57-9.84,14.34-14.77,1.79.21,2,1.52,2.1,3C181.45,127.74,178.07,133.36,173,137Z" transform="translate(99 99)"/><path class="cls-158" d="M159,132c-5.76,5.59-11.5,11.2-17.29,16.76-1.38,1.33-2.42,3.21-4.71,3.24-.37-2.27,1.68-3,2.82-4.24,5.94-6.36,12.6-12,18.18-18.76a128,128,0,0,0,15-15l1.11-1a4.18,4.18,0,0,1,.92.19c2,1,1.14,2.22.31,3.45-3.87,3.91-7.74,7.83-11.65,11.7C162.05,129.42,160.65,130.87,159,132Z" transform="translate(99 99)"/><path class="cls-159" d="M132,158c-1.57,4.68-5.89,7-9,10.37-2.56,2.78-5,5.82-8.34,7.78-.5-.73-1-1.46-1.51-2.2L126,162C128.27,161.07,128.72,157.42,132,158Z" transform="translate(99 99)"/><path class="cls-160" d="M196.09,156.21l-.21-2.15a4.33,4.33,0,0,1-1.15-3.08,5.64,5.64,0,0,1,1.15-4l.21-1.21A15.23,15.23,0,0,1,196.09,156.21Z" transform="translate(99 99)"/><path class="cls-147" d="M152,106.16V107l-2,0-6.13-.08C146.46,105.44,149.26,106.1,152,106.16Z" transform="translate(99 99)"/><path class="cls-81" d="M214.19,143c1.58,2.31.58,4.87.71,7.32A21.75,21.75,0,0,1,214.19,143Z" transform="translate(99 99)"/><path class="cls-161" d="M175,116a2.43,2.43,0,0,0,0-2.86c1.48-.19,2.34.69,3.06,1.8L177,116A1.34,1.34,0,0,1,175,116Z" transform="translate(99 99)"/><path class="cls-162" d="M143,195.84l2,.11,1.12.27L143,197.79c-.36-.55-.71-1.11-1.06-1.66C142.19,195.66,142.52,195.54,143,195.84Z" transform="translate(99 99)"/><path class="cls-81" d="M231.11,154.42v-6.85A9.47,9.47,0,0,1,231.11,154.42Z" transform="translate(99 99)"/><path class="cls-153" d="M143,195.84l-1,.29c-1.39-.13-2.84-.06-4-1.16a70.81,70.81,0,0,1,11-11l3-1a46,46,0,0,1-6.53,7.14C143.83,191.55,141.72,193,143,195.84Z" transform="translate(99 99)"/><path class="cls-163" d="M158,129c0,2.32-1.95,3.37-3.3,4.77-5.87,6.1-11.79,12.16-17.7,18.23h0a.57.57,0,0,1-1,0c0-1.9,1.4-2.91,2.56-4Q148.25,138.46,158,129Z" transform="translate(99 99)"/><path class="cls-163" d="M173,114a44.47,44.47,0,0,1-15,15A125,125,0,0,1,173,114Z" transform="translate(99 99)"/><path class="cls-158" d="M136,152h1l-5,6c-2.29.9-3.15,3.95-6,4C127.9,157.24,132.66,155.33,136,152Z" transform="translate(99 99)"/><path class="cls-164" d="M195.88,147l.05,4c-1.69,4.05-5.71,5.9-8.52,8.89C176.22,171.88,165,183.81,153,195c-1.52-.29-3.82.94-4.39-1s1.92-2.3,3-3.41c5-5,9.76-10.15,14.7-15.16q13.78-13.95,27.69-27.79C194.44,147.22,195.25,147.22,195.88,147Z" transform="translate(99 99)"/><path class="cls-165" d="M153,195c2.76-5.89,8.16-9.43,12.56-13.8,10.14-10,18.86-21.51,30.37-30.15,0,1,0,2-.05,3-11.62,11.61-22.39,24.07-34.94,34.76-2,1.68-3.3,4.08-4.92,6.14Z" transform="translate(99 99)"/><path class="cls-148" d="M175,116h2c-4.33,5-8.7,10-14,14a1.34,1.34,0,0,1,0-2A83,83,0,0,1,175,116Z" transform="translate(99 99)"/><path class="cls-161" d="M163,128v2l-1,1-3,1A10.26,10.26,0,0,1,163,128Z" transform="translate(99 99)"/><path class="cls-153" d="M152,183a10.53,10.53,0,0,1,7-7A28.91,28.91,0,0,1,152,183Z" transform="translate(99 99)"/></svg>