<svg id="图层_1" data-name="图层 1" xmlns="http://www.w3.org/2000/svg" viewBox="0 0 518.98 517.83"><defs><style>.cls-1{fill:#1ed2fd;}.cls-2{fill:#236dea;}.cls-3{fill:#1cdefd;}.cls-4{fill:#2371ea;}.cls-5{fill:#1cd7fc;}.cls-6{fill:#1dcdfb;}.cls-7{fill:#2276ed;}.cls-8{fill:#2367e9;}.cls-9{fill:#1cdafe;}.cls-10{fill:#2563e9;}.cls-11{fill:#2366e8;}.cls-12{fill:#255fea;}.cls-13{fill:#1ce1fe;}.cls-14{fill:#2462e8;}.cls-15{fill:#1bdbfc;}.cls-16{fill:#1fadf5;}.cls-17{fill:#236ae9;}.cls-18{fill:#2361e7;}.cls-19{fill:#20a4f5;}.cls-20{fill:#2469ea;}.cls-21{fill:#1cdff9;}.cls-22{fill:#2464e9;}.cls-23{fill:#2b65e7;}.cls-24{fill:#1ed0f8;}.cls-25{fill:#1ecffd;}.cls-26{fill:#1ec9f9;}.cls-27{fill:#2162e5;}.cls-28{fill:#1ad7f8;}.cls-29{fill:#1bd6f9;}.cls-30{fill:#1dd5f8;}.cls-31{fill:#17d9f8;}.cls-32{fill:#16d9f8;}.cls-33{fill:#2168e2;}.cls-34{fill:#236ae0;}.cls-35{fill:#1ddafe;}.cls-36{fill:#1cdef6;}.cls-37{fill:#2677ed;}.cls-38{fill:#1bdef7;}.cls-39{fill:#2c60f1;}.cls-40{fill:#1a66e1;}.cls-41{fill:#25e1ee;}.cls-42{fill:#27d9fe;}.cls-43{fill:#28d9fc;}.cls-44{fill:#0be2f3;}.cls-45{fill:#0adff7;}.cls-46{fill:#12e0f5;}.cls-47{fill:#2474ec;}.cls-48{fill:#2377ec;}.cls-49{fill:#1f75f1;}.cls-50{fill:#2275e1;}.cls-51{fill:#2b73e2;}.cls-52{fill:#1f73d9;}.cls-53{fill:#fefefe;}.cls-54{fill:#1dc9f9;}.cls-55{fill:#18ceef;}.cls-56{fill:#2379ed;}.cls-57{fill:#2960e2;}.cls-58{fill:#2d5ff2;}.cls-59{fill:#255cec;}.cls-60{fill:#2366e4;}.cls-61{fill:#226add;}.cls-62{fill:#218df0;}.cls-63{fill:#1fa8f3;}.cls-64{fill:#2091f1;}.cls-65{fill:#237aed;}.cls-66{fill:#2287ef;}.cls-67{fill:#217fee;}.cls-68{fill:#2096f3;}.cls-69{fill:#1fa1f3;}.cls-70{fill:#21a4f5;}.cls-71{fill:#208aed;}.cls-72{fill:#2099f1;}.cls-73{fill:#209cf1;}.cls-74{fill:#2185ee;}.cls-75{fill:#219ef3;}.cls-76{fill:#227dee;}.cls-77{fill:#2281ee;}.cls-78{fill:#2283ee;}.cls-79{fill:#1eb0f6;}.cls-80{fill:#2286ef;}.cls-81{fill:#2092f1;}.cls-82{fill:#1fa8f4;}.cls-83{fill:#2095f3;}.cls-84{fill:#2283ed;}.cls-85{fill:#209bf1;}.cls-86{fill:#2098f1;}.cls-87{fill:#219ff3;}.cls-88{fill:#1ebaf7;}.cls-89{fill:#1ec0f9;}.cls-90{fill:#1fc3f9;}.cls-91{fill:#1fb3f7;}.cls-92{fill:#1fb7f7;}.cls-93{fill:#1ec6f9;}.cls-94{fill:#1fc4f9;}.cls-95{fill:#1ec3f9;}.cls-96{fill:#1ebbf8;}.cls-97{fill:#1dbff8;}.cls-98{fill:#1fb3f6;}.cls-99{fill:#1faaf5;}.cls-100{fill:#218fef;}.cls-101{fill:#207eee;}.cls-102{fill:#2092f2;}.cls-103{fill:#20b7f8;}.cls-104{fill:#208aee;}.cls-105{fill:#1fa7f5;}.cls-106{fill:#1faef5;}.cls-107{fill:#1fa9f4;}.cls-108{fill:#20a3f4;}.cls-109{fill:#219df2;}</style></defs><title>程序管理</title><path class="cls-1" d="M403-26.07A11.55,11.55,0,0,1,404.94-20c-.57,1.11-.63,2.59-2.17,3-3.26,1-6.61.61-9.93.61q-241.3,0-482.61,0c-3.66,0-7.34-.16-11,.56-3.08.5-3.12-1.31-2.87-3.6s2-4.24,1.41-6.68c2-5.59,3.55-11.33,7-16.25.84-.22.53,4.2,2.3.54.5-1,1.81-1.31,3-1.54a18.35,18.35,0,0,1,10.28-.48,27.7,27.7,0,0,0,6,.19q224.08,0,448.18,0c5.74,0,11.53-1.83,17.22.3,3.49.92,4.17,3.52,4,6.63,1.29,1.58.85,3.23-.18,5.67,1.23-2.34,1.78-3.89.26-5.39.26-1.38-.18-3,1.31-3.94,1.73,1.74,2.36,4,2.9,6.28-.36,3.58,3.37,6.29,2.13,10.05a.06.06,0,0,1,0,0c.15.08.3,0,.33-.33C402.55-24.9,402.47-25.58,403-26.07Z" transform="translate(109.04 108.86)"/><path class="cls-2" d="M404.05,323.09a70.56,70.56,0,0,1-7.78,19c-3.56-3-7.82-2.58-12-2.58q-54.08,0-108.15,0h-4c-6.64,0-6.64,0-8.15,6.49a3.66,3.66,0,0,1-1.2,1.52c-2.31,1.26-4.85,1-7.33,1q-133.87,0-267.76,0c-2.32,0-4.67.13-6.89-.77a3.82,3.82,0,0,1-2-3.73c0-4.21-2.47-4.72-5.89-4.71-20.08.09-40.17,0-60.25.1-2.13,0-4.7-1.09-4.55,3.44.08,2.42-2.12-.35-3.26-.9a63.74,63.74,0,0,1-8-20c1.54-2.06,3.78-1.78,5.93-1.78q245.07.3,490.12.09c2.5,0,5-.21,7.49-.19C402.22,320.2,404.07,320.49,404.05,323.09Z" transform="translate(109.04 108.86)"/><path class="cls-3" d="M361.24-84.1a35.82,35.82,0,0,1,7.62,6.15,1.79,1.79,0,0,1-1.2,1.49,4.65,4.65,0,0,1-3.18-.58,6.93,6.93,0,0,1-1-.62c-.64-.41-.85-.08-.88.57,0,1.23.13,2.44-.83,3.41-2.25,1.49-4.79,1.25-7.27,1.25q-78.31,0-156.65,0c-5.3,0-10.61-.11-15.92-.12-10.33,0-20.56.16-30.44,3.68a8.89,8.89,0,0,1-2.91.14c-13.4-4.29-27.22-3.71-41-3.7q-78.66.09-157.32,0c-3.47,0-7,.44-10.26-1.34-1.49-.63-1.63-2.78-3.44-3-1.24.15-2.47.83-3.71.06a2,2,0,0,1-.49-1.19,95.26,95.26,0,0,1,34.2-21.2c5.41-2.28,11.12-1.18,16.7-1.53,3-.19,6.73-2.94,8.56-1.46,3.44,2.75,6.76,1.48,10,1.48q144.44.15,288.87.07c12.15,0,24.29-.21,36.44.07,2.57.05,4.86,1,7.31,1.37,9,2.89,16.94,7.72,24.49,13.29C358.86-84.17,360.49-84.71,361.24-84.1Z" transform="translate(109.04 108.86)"/><path class="cls-4" d="M404.05,323.09c-.57-1.08-1.22-2-2.67-1.71-5.76,1.34-11.6.58-17.4.58Q145.32,322-93.35,322c-3.29,0-6.59-.83-9.89,0a32,32,0,0,1-2.85-11.83c-.16-3.25-1.53-6.33-1.37-9.62,1.33-2,2.27-1.06,2.94.47a6.85,6.85,0,0,1,.3,4.18,4.17,4.17,0,0,0-.23.94c0,.32-.06.65-.1,1,.14-.18,0-.39.1-.62a6.7,6.7,0,0,1,.31-1.21c.38-1.26-.19-2.93,1.58-3.55,1.9.62,1.69,3.76,4.29,3.54,10.19.22,20.35.25,30.51.25q204.23,0,408.45-.07c20.16,0,40.33.35,60.47-.47a8.23,8.23,0,0,1,2.38.1c2.19-.54,1-2.35,1.18-3.54.45-3,.47-6.12,2.66-8.59a1.87,1.87,0,0,1,1.47-.28.86.86,0,0,1,.31,1.3A90.49,90.49,0,0,1,404.05,323.09Z" transform="translate(109.04 108.86)"/><path class="cls-5" d="M393-42H-92a1.21,1.21,0,0,1,0-1.28c1.4-1.3,3.2-2.19,4-4.19.45-1.17-.2-1.29-1-1.53a2.35,2.35,0,0,1,0-3.11c1.54-5.87,6-9.7,9.78-14,1.83-.49,2.4,1,3.22,2.06a2.87,2.87,0,0,1-.1,3.36c-1.17,1.39-3.12,1.81-4.72,4.13H382.48l.23-1.1c-1.85-.93-3.89-1.79-3.19-4.34.38-1.42,1.4-1.72,2.71-1.07a21.41,21.41,0,0,1,7.83,10.91c.69,1.36,1.22,2.73.07,4.09,0,.82-1.78-.62-1.19.77.78,1.86,2.69,2.76,4.14,4A1.08,1.08,0,0,1,393-42Z" transform="translate(109.04 108.86)"/><path class="cls-6" d="M404-18a2.09,2.09,0,0,1,.94-2c.74,1.65-.59,3.71,1.06,5.17,1.12,4,1.4,8.15,1.92,12.25-.17,1.72.78,3.81-1.58,4.8-.7-.26-.74-.9-.86-1.5a2.13,2.13,0,0,0,.12,1.07A27.33,27.33,0,0,1,406.71,8c-.13,2.12-1.07,3.62-3.34,3.48-2.06-.12-2-1.92-2.08-3.4-.17-2.33-1.85-2.53-3.58-2.5-23.47.42-47-1-70.42.75-3,.21-6,.23-9,.23H142.4a81.49,81.49,0,0,0-10.48.3c-10.86-3.58-22.08-2.24-33.17-2.28-30.15-.13-60.31,0-90.46-.1-6.4,0-12.64.26-18.53,3-20.2-2.23-40.47-.57-60.71-1A8.43,8.43,0,0,0-77.18,9.1c-5.08,4.79-8.86,4.47-13.23-.85-3-3.65-7.7-3.75-10.79-.13-1.49,1.76-2.8,2.29-4.27.08a4,4,0,0,1,.35-2.46c1.35-2.51.45-5.41,1.36-8,.52-1.41.88-2.92,2.17-3.91C-98.73-8-95.49-7.6-92.36-7.6q49.49,0,99,0H387c2,0,4-.1,6,0,4.56.25,7.88-1,8.44-6.2A6.6,6.6,0,0,1,404-18Z" transform="translate(109.04 108.86)"/><path class="cls-7" d="M-105,306c-.27-2.13.59-4.65-2-6-.28.5-.56.47-.83,0l0-1c.72-1.57.15-3.31.67-4.91-.19-1.49-.22-3-.41-4.48-.38-2.95,1.22-4.65,3.86-4.74,5.61-.19,11.6-2.16,15.95,4,1.88,2.64,5.3,2,7.65.05,3.48-2.93,7.42-3.39,11.68-3.38,17,.07,34,0,51,0a4.32,4.32,0,0,1,2,1.44c5.39,7.89,13.1,9.62,22.2,9.61q126.95-.27,253.87,0c10.39,0,20.69.56,29.39-6.56a28.69,28.69,0,0,1,7.45-.55c18,0,36-.12,54,0,14.66.13,29.26-1.74,43.93-1,2.64.13,5.37-.31,7.77,1.27,2.9,6.84,1.13,10-6.18,9.86-14.33-.34-28.6,1.17-42.91,1.1-3.12,0-6.06.05-7,3.94-.36,1.45-1.6,2-3.11,1.94-1.33-.05-2.66,0-4,0q-202.81,0-405.63,0c-6.63,0-13.16-1.58-19.83-1.11a5.75,5.75,0,0,1-5.43-3,5,5,0,0,0-5.49-2.48c-2.73.36-2.64,2.6-3.14,4.46A6.47,6.47,0,0,1-101,307c-1.9-1.17-.1-3.83-2-5-.63-.65-.46-1.46-.44-2.24-.43,2.06.5,4.24-.56,6.24h0C-104.33,306.45-104.66,306.46-105,306Z" transform="translate(109.04 108.86)"/><path class="cls-8" d="M387.8,355.91l-.6,1.19c-2,.63-4.81-1.4-6.06,1.71,0,0,0,0,0,0,.4-.53-.14.2.29-.35,1.77-1.81,3.26-1.64,4.51.52-2,2.37-2.89,5.6-5.92,7.08-4.72-3.48-10.14-3.49-15.7-3.48-30.48.09-61,0-91.45.05-6.65,0-6.71,0-8.64,6.43a5.59,5.59,0,0,1-4.94,4.28,41.24,41.24,0,0,1-6.48.28H-10.56a27.37,27.37,0,0,1-7.45-.53,4.51,4.51,0,0,1-2.22-1.48c-1.1-1.56-1.13-3.4-1.13-5.19,0-2.6-1.11-4-3.81-4q-19.65-.06-39.26,0c-3.43.06-6.88.28-10.29-.41-2.26-.57-2.43-2.82-3.38-4.4-1.25-2.08-2.65-2.57-4.65-1.12a2,2,0,0,1-2-1.09,4.71,4.71,0,0,1-.07-3.5c1.35-2.53,3.82-2.45,6.11-2.46q25.72-.15,51.45,0c2.88,0,5.7.33,7.6,2.94a7,7,0,0,1,1,2.72c.38,2.21,1.92,2.94,3.92,3.13,1.49.14,3,.14,4.49.14q131.67,0,263.34-.06c3,0,7,1.39,8.42-3.19a6.88,6.88,0,0,1,1-2.73c1.63-2.24,4-2.91,6.58-2.92,37.76-.05,75.52-.37,113.28.16.67,0-.17,0,.48.07C384.93,351.46,390.6,350.35,387.8,355.91Z" transform="translate(109.04 108.86)"/><path class="cls-9" d="M382.23-63.09c-1.29.16-2.42.62-2,2.16.29,1.08,1.12,2.64,2.28,2.1,2.14-1,2.31.19,2.41,1.62.11,1.8-1.1,2.22-2.61,2.2-1.17,0-2.33,0-3.5,0H-76.57A18.43,18.43,0,0,1-81-55.24c-1-.25-2.54.35-2.88-1.31-.47-2.36,1.67-1.28,2.49-1.92,1.71-1.35,3.25-2.91,5.43-3.53,2.7-2.36,6-1.57,9.08-1.58q97.55-.08,195.09-.05c4.12,0,8.33.44,12.15-1.72C142.54-68.16,145.83-69,149-70h2c7.3,3.1,15,2.43,22.63,2.43q92.67,0,185.34,0c5.36,0,10.66-.24,15.78-1.94,1.15-.17,2.38-.2,2.66,1.26.31,1.7,1.66,1.73,2.84,2.11A4.11,4.11,0,0,1,382.23-63.09Z" transform="translate(109.04 108.86)"/><path class="cls-10" d="M371,375.94a82.57,82.57,0,0,1-19,14.17c-3.51,1.3-6.83,2.36-8.58-2.61-.44-1.27-2.34-1-3.66-1q-34.95,0-69.89,0c-3,0-5.21.78-5.61,4.21a3.94,3.94,0,0,1-1.68,3c-2.34,1.19-4.87,1-7.35,1q-133.57,0-267.13,0h-1.5c-7.58-.19-9-2-7.52-9.59a2.59,2.59,0,0,1,1.42-1.32c6.28.87,12.61.68,18.93.68H249.22c2.33,0,4.66,0,7-.1,3.32-.19,5.36-1.62,5.26-5.23.07-8,1.49-9.6,9.11-9.62q43.86-.09,87.72,0a37.45,37.45,0,0,1,9.9.86c1.71.83,2.25,2.55,3,4.07A1.71,1.71,0,0,1,371,375.94Z" transform="translate(109.04 108.86)"/><path class="cls-11" d="M369,372c-3.64-.34-7.29-1-10.94-1-29.1-.08-58.19,0-87.28,0-7.77,0-7.77,0-7.78,8-1.12,2-3.06,2.4-5.11,2.54-1.83.12-3.67.09-5.5.09q-130.95,0-261.9,0c-3.44,0-7,.65-10.2-1.5a4.54,4.54,0,0,1-1.15-1.59c-.36-2.45-1.58-5.15,1.86-6.51H255.7c7,0,7.15,0,7.23-7,0-3,1-4,4-4q53.19.12,106.39,0c3.84,0,4.78,3,6.65,5.11a10.71,10.71,0,0,1-3.88,4c-1.7,1.38-3.85,1.65-5.82,2.37A1.74,1.74,0,0,1,369,372Z" transform="translate(109.04 108.86)"/><path class="cls-12" d="M-4.21,407.08a83.34,83.34,0,0,1-29.18-7.88c2.4-3.09,5.25-3.14,8.26-1.08,1.6,1.08,2.63,1.86,3.16-1,.2-1.09,2-.9,3.14-.93,3.52.16,7,.15,10.51.15H253.5c2.83,0,5.66-.12,8.48.11,16.92.14,33.85,0,50.78.06a30.89,30.89,0,0,0,6.44-.53c1.13-.24,2.68-.71,3.27.34,1.53,2.73,3.4,1.47,5.48,1.1,3.43-.61,3.82,1,2.05,3.58-8.07,2.89-16.23,5.46-24.8,6.36-3,.31-5.94.47-8.91.7-1.6.7-3.29.37-4.93.37q-140.78,0-281.54,0c-1.64,0-3.33.33-4.93-.38l0,.05a1.06,1.06,0,0,1,.57-1.54c88.32-2.46,246.39-2.41,289.22,0-2.3-.38-4.81.44-6.92-1.08a9.7,9.7,0,0,0-4.43-.53q-133.7,0-267.41,0c-.5,0-1,.05-1.48.09-2.94,1.76-6.22,1.32-9.42,1.43a12.06,12.06,0,0,0-5.21.84C-1.53,407.45-2.9,407.75-4.21,407.08Z" transform="translate(109.04 108.86)"/><path class="cls-13" d="M334.45-99.14H-8.84c-.35-1.23,2-.83,1-2.61-8.09,4.74-17,1.91-25.65,2.61C-21.65-105-9.07-107.51,4-108q146.52,0,293,0a56.81,56.81,0,0,1,19,2.93c2.48,5.06,7.06,2.86,10.92,3.16A13,13,0,0,1,334.45-99.14Z" transform="translate(109.04 108.86)"/><path class="cls-14" d="M263,398H-13.69c-2.47,0-5,.43-7.31-1-4.39.26-9-.94-13,2a68.7,68.7,0,0,1-20.11-10.71c-.33-3.26,1.49-5.21,4.38-5.43a186,186,0,0,1,27.63,0A3.21,3.21,0,0,1-20,384c0,9,0,9,8.93,9H263C264.51,394.67,264.25,396.33,263,398Z" transform="translate(109.04 108.86)"/><path class="cls-15" d="M377-69c-4.36,2.92-9.35,3-14.29,3q-100.47,0-200.93.09c-4.3,0-7.81-1-10.77-4.07a67.36,67.36,0,0,1,23.17-4.14c60.65.26,121.31.16,182,.07,2,0,4.87,1.55,5.87-1.93,1.49-1.32,2.92.38,4.39.06a3.53,3.53,0,0,0,1.6-1l.87-1c2.23,3.16,6.09,4.69,8.11,8.06.33.19.44.38.34.58S377.1-69,377-69Z" transform="translate(109.04 108.86)"/><path class="cls-15" d="M149-70c-1.86,2.17-4.5,3-7,4-1.93,1.7-4.31,1.57-6.63,1.58q-98.31,0-196.61,0c-3.17,0-6.3-.53-9.45-.77A6.52,6.52,0,0,1-76-68.36a1.88,1.88,0,0,1,0-1.85l3-2c.66.16.89,1.43,1.88.73-.51-.58-1.25-.91-1.72-1.54.85-2.62,3.63-3.17,5.27-4.94l.67,1a3.54,3.54,0,0,0,1.87,1.13c1.38,0,2.69-1.48,4.11-.16,2,2.41,4.75,2,7.39,2,57.27,0,114.55.16,171.82-.14A113.75,113.75,0,0,1,149-70Z" transform="translate(109.04 108.86)"/><path class="cls-16" d="M409.16,294l-.32-1c-2-3.09-1.18-6.57-1.33-9.92.07-3.93-.15-7.86.06-11.79-.05-2.08-.11-4.17,0-6.25-.08-2.65-.05-5.3-.05-8,.18-2.62-.13-5.26.07-7.89,0-2-.09-4.08,0-6.13a40.9,40.9,0,0,1,0-4.43c0-4.51-.22-9,0-13.54-.12-2.75-.1-5.5,0-8.24q-.23-7.87,0-15.76c-.13-4.32-.1-8.64,0-13,.08-4-.16-7.93.06-11.89-.06-2.7-.11-5.41,0-8.11-.06-2.39-.1-4.78,0-7.16,0-3-.13-6,0-9-.09-3-.12-6.06,0-9.09,0-3.69-.15-7.39,0-11.08-.25-3.16-.09-6.33-.14-9.49s-1.37-4.69-4.51-4.67c-11.65.07-23.3-.34-35,.37a363.35,363.35,0,0,1-46.9,0c-3.78-4.27-5.2-9.92-8.4-14.55-.34-.49.15-1.24.6-1.75a6.82,6.82,0,0,1,3.76-1.17,20.65,20.65,0,0,1,2.49-.1c27.09.71,54.14-1.35,81.23-1,2.64,0,5.34-.33,7.83,1,2.06,4.69.32,9.67,1.08,14.47.08,23.64.2,47.27.23,70.91q.06,50.2,0,100.41C409.84,288.78,410.32,291.48,409.16,294Z" transform="translate(109.04 108.86)"/><path class="cls-17" d="M387.8,355.91c1-2.76-1.7-3.37-2.8-4.91-2.24-3.5-5.77-3.4-9.3-3.4q-52.05,0-104.1,0c-2.93,0-6,.57-8.6-1.58a15.9,15.9,0,0,0,0-2.49c-.68-4.33,1-5.63,5.44-5.61,41.7.16,83.4.21,125.1-.13,5.12,0-.21,4.31,2.75,4.36A62,62,0,0,1,387.8,355.91Z" transform="translate(109.04 108.86)"/><path class="cls-18" d="M263,398v-5c0-8,0-8,7.78-8q35.14,0,70.3,0c2.61,0,4.92-.26,4.71,3.59-.13,2.33,1.59,2.62,3.39,1.64,1-.54,1.83-1.68,2.85-.1-6.61,5.13-14.21,8.26-22,10.93.31-1.89.9-4.08-2.37-2.34l-6.37,3.44c1.78-4,2.76-6.9-3-4.36-2.37,1.05-5.58.22-8.4.22Z" transform="translate(109.04 108.86)"/><path class="cls-19" d="M-108.18,294.14c-1-1.87-.65-3.92-.66-5.89q0-71.71,0-143.45c0-1,.14-2,.22-3,.68-3.43-.86-7.08,1-10.41,4.85-1.72,9.83-.89,14.76-.71,1.74.07,2.93,1.12,4,2.63,2.51,3.7,6.23,4.29,9.47,1.2,2.54-2.42,5.35-3.08,8.59-3.08,15.42,0,30.84,0,46.26,0,2,0,4,0,5.73,1.25,1.93,3.33,1.76,6.73.34,10.17-2.19,2.07-5,1.58-7.56,1.59q-20.91.09-41.81,0c-3.56,0-6.67.4-9.55,3.12-3.51,3.31-10,2.37-13.42-1.27-2.56-2.7-10.15-4-13.37-2.13s-1.91,5-2.35,7.64c.14,3,0,6,0,9,.11,2.4,0,4.79,0,7.18.11,2.71.08,5.42,0,8.12.2,4,0,7.93,0,11.9.09,4.32.1,8.64,0,13,.13,5.27.15,10.53,0,15.8q.17,4.17,0,8.34.24,8.84,0,17.66c.25,3.37-.08,6.74,0,10.12.08,3.65,0,7.31,0,11-.1,2.44.12,4.89,0,7.34a124.78,124.78,0,0,1-.6,18.54C-107.08,291.32-106.7,293-108.18,294.14Z" transform="translate(109.04 108.86)"/><path class="cls-20" d="M-20,353a9.56,9.56,0,0,0-5.92-2.06c-17.91.11-35.82,0-53.73.09-1.66,0-3.87-.8-4.35,2-.85.5-1,1.4-1.25,2.23a2,2,0,0,1-.91.91c-2.33-.4-2.6-2.59-3.59-4.15.46-.52,1.18-.88,1.13-1.74-.25.88-.73,1.34-1.68.87a29.76,29.76,0,0,1-4.92-9.06l2.81,1.37c.27-2.57-3.09-3-3-5.43h66.46c8.94,0,8.94,0,8.94,9C-18.52,349-18.27,351-20,353Z" transform="translate(109.04 108.86)"/><path class="cls-21" d="M297-108c-1.45,1.7-3.42,1-5.16,1q-141.35,0-282.7,0c-1.75,0-3.71.67-5.17-1,2.18-1.18,4.57-.78,6.87-.78q139.64,0,279.28,0C292.44-108.8,294.82-109.18,297-108Z" transform="translate(109.04 108.86)"/><path class="cls-11" d="M-24,361c2.77-.31,4.32.56,4,3.71-.18,2.08,0,4.19,0,6.29-1.28,1.29-2.95,1.44-4.61,1.45-13.26.06-26.52.2-39.78-.27a26.63,26.63,0,0,1-4.87-.9,40.52,40.52,0,0,1-4.8-.16L-76,369.71c-.94-.58-.59-2.39-2.2-2.31l-2.1-2.27A6.35,6.35,0,0,1-76,361h11c8.22,1.14,16.48.4,24.72.45C-34.86,361.48-29.39,362.16-24,361Z" transform="translate(109.04 108.86)"/><path class="cls-22" d="M-70,370c16.64,1.75,33.33.7,50,1l1,1c-1.81,1.75-.68,4-1,6-3.88,1.48-7.86.11-11.79.33-4.81.27-9.64.14-14.47.05-3.16-.06-5.1,1.06-5.46,4.34-2.49,1.77-3.16-1.73-4.76-1.51-.78-.67-.74.54-.48-.07.05-.13.17,0,.45.17,1.12.73,2.64,1.71,1.73,3-1.62,2.32-3.44-.49-5.24-.29-5.13-3.38-10-7-13.74-12C-72.86,370.67-70.9,371.34-70,370Z" transform="translate(109.04 108.86)"/><path class="cls-23" d="M4.89,408.09Q45.63,408,86.36,408q102.46,0,204.93,0c1.66,0,3.33.07,5,.11-3.37,1.22-6.89.77-10.35.77q-135.35.06-270.71,0C11.78,408.86,8.25,409.37,4.89,408.09Z" transform="translate(109.04 108.86)"/><path class="cls-10" d="M-53,383c.19-6,.23-6.17,7.43-5.95,8.52.26,17.11-1.11,25.57.95v1c1,1.67,1.57,3.33,0,5-8.75,0-17.51.21-26.25-.1-3.79-.13-6.35.89-7.87,4.35L-56,387A19.86,19.86,0,0,1-53,383Z" transform="translate(109.04 108.86)"/><path class="cls-24" d="M-102.18-26.08c2,1.37.69,2.83.09,4.25-.82,2-1.74,3.91.09,5.83,1.66,1.84,1.45,3.84.53,5.91-3,1.79-3.91,4.88-4,8-.08,5.74-1.44,11.37-1.17,17.12.1,2,.07,4,0,6,.11,1.78,0,3.56,0,5.34.16,4.57.13,9.14,0,13.71.14,4.95.15,9.89,0,14.84.11,5.17.16,10.34,0,15.51,0,3.73.12,7.47-.18,11.21a5.15,5.15,0,0,1-.49,1.62,1.32,1.32,0,0,1-1.38.75c-.11-28.87-1.32-57.76.87-86.59A75.15,75.15,0,0,1-102.18-26.08Z" transform="translate(109.04 108.86)"/><path class="cls-25" d="M409.62,114.84c-1.33-4.56-.21-9.24-.67-13.85-1.34-1.51-1.37-3.36-1.37-5.22-.16-4.27-.13-8.53,0-12.8q-.19-6,0-12c-.13-5.27-.15-10.53,0-15.79-.09-4-.13-8,0-12-.06-2.43-.14-4.86,0-7.28,0-3.91-.09-7.83,0-11.74-.13-2.91,0-5.83,0-8.74C407.26,9.32,407.38,3.15,407-3q-.5-5.91-1-11.82C409.42-7.56,409.53.42,409.6,8,410,43.64,409.67,79.24,409.62,114.84Z" transform="translate(109.04 108.86)"/><path class="cls-26" d="M-108.61,84h.51c2.74,3.48,1.19,7.53,1.52,11.34,0,.89.06,1.77,0,2.66-.05,1.47,0,2.94,0,4.4.27,3.86-.16,7.71.07,11.56.18,2.71-.17,5.43,0,8.14-.19,3.34.78,6.85-1.44,9.89-.45,3.27.64,6.63-.67,9.83Q-109.21,112.9-108.61,84Z" transform="translate(109.04 108.86)"/><path class="cls-22" d="M-76,361a10,10,0,0,1-4.3,4.13,7.8,7.8,0,0,1-3.21-4,5.48,5.48,0,0,1,2.24-2.38,2.25,2.25,0,0,1,1.28-.12c.42.18.68.61,1.14.76a3.26,3.26,0,0,0-1.5-1.46A2.86,2.86,0,0,1-82,356c.08-3.89,2.83-2,3.54-1.1C-77.15,356.58-75.32,358.39-76,361Z" transform="translate(109.04 108.86)"/><path class="cls-27" d="M-34,399c-1.15-3.72,2-1.16,2.9-1.69A9.94,9.94,0,0,1-21,397c-2.38,1.42.52,2.74.12,4.56-4.11-1.62-7.74-5.65-12.51-2.36h-.36Z" transform="translate(109.04 108.86)"/><path class="cls-14" d="M-53,383c-.08,2.05-1.42,3.14-3,4l-4-3c1.53-1.27,3,.83,4.58.07.08-2.11-1.82-1.82-3-2.4a1.5,1.5,0,0,1-.62-2.42c.76-1.25,1.56-.94,2.18.1C-55.91,381-53.64,381.12-53,383Z" transform="translate(109.04 108.86)"/><path class="cls-3" d="M327-102c-3.82,1.88-7.53,2.87-10.89-1-.75-.86-.21-1.45,0-2.17l1,.2c2.07,1.63,4.74,1.06,7,1.9C325.14-103,326.25-103,327-102Z" transform="translate(109.04 108.86)"/><path class="cls-1" d="M-88-49c.4-.51,1.33-1,1.27-.17C-86.95-45.94-88-43.11-92-43a2.62,2.62,0,0,1-1.91-2A5.19,5.19,0,0,1-92-48.08,4,4,0,0,0-88-49Z" transform="translate(109.04 108.86)"/><path class="cls-1" d="M393-43c-3.79-.09-4.83-2.71-5.31-5.81-.09-.58.39-.88.82-.51s.34.87.49,1.32c1.36.75,2.7.27,4-.08a5.38,5.38,0,0,1,1.88,3.1A2.61,2.61,0,0,1,393-43Z" transform="translate(109.04 108.86)"/><path class="cls-28" d="M393-43l1.91-2a9.94,9.94,0,0,1,2.23,4.68L396-36h0l-3-6Z" transform="translate(109.04 108.86)"/><path class="cls-8" d="M370,372c1.62-2,3.83-2.12,6.13-2-.81,2.75-3,4.33-5.15,5.89,0-.31,0-.62,0-.94A4.82,4.82,0,0,1,370,372Z" transform="translate(109.04 108.86)"/><path class="cls-29" d="M-93.91-45-92-43v1l-2.58,5.48c-2.51-1.82.56-4-.57-5.81Z" transform="translate(109.04 108.86)"/><path class="cls-30" d="M403-26.07l-.15,1.92c-1-3.3-4.22-5.94-2.84-9.87C401.24-31.44,402.82-29,403-26.07Z" transform="translate(109.04 108.86)"/><path class="cls-31" d="M-88-49c-.08,1.35-.55,2.48-2,2.8s-1.9-.67-2-1.88c.81-1.48.91-3.49,3-4C-89-51-89.19-49.75-88-49Z" transform="translate(109.04 108.86)"/><path class="cls-32" d="M393-48.08c-1.27,3.37-2.64,2.15-4,.08,1.48-1.11.83-2.76,1.06-4.18C392.09-51.56,392.21-49.57,393-48.08Z" transform="translate(109.04 108.86)"/><path class="cls-33" d="M385.93,359a4,4,0,0,0-4.93,0c.79-4.78,3.47-3.43,6.2-1.9C386.77,357.72,386.35,358.35,385.93,359Z" transform="translate(109.04 108.86)"/><path class="cls-34" d="M-80,359h-1c-1.32.26-2.63.62-3.94,0a2.42,2.42,0,0,1-1.23-2.83l.25-.23A1.32,1.32,0,0,1-84,356h2l2,1A1.34,1.34,0,0,1-80,359Z" transform="translate(109.04 108.86)"/><path class="cls-35" d="M-72.92-73l4.53.66c-1.59.52-3.22,6.27-4.69.15A1.73,1.73,0,0,1-72.92-73Z" transform="translate(109.04 108.86)"/><path class="cls-36" d="M377-69c0-.3,0-.59,0-.89a9.07,9.07,0,0,1,3.28,3.77c-1.14.39-2.24,1.54-3.49.21C375.71-67,376.64-68,377-69Z" transform="translate(109.04 108.86)"/><path class="cls-37" d="M-107.83,300h.83c-.11,3.45,1.68,6.73.91,10.23A26.28,26.28,0,0,1-107.83,300Z" transform="translate(109.04 108.86)"/><path class="cls-38" d="M-76.08-70.21-76-69c.88,1.92,1,3.68-1,5l-2.26-2.13Z" transform="translate(109.04 108.86)"/><path class="cls-20" d="M-84.93,359c1.31-.53,2.63-1.76,3.94,0-.1,1.59-1.16,2.05-2.52,2.17Z" transform="translate(109.04 108.86)"/><path class="cls-37" d="M-108.18,294.14l.26-4.11c2.5,1.25,1.31,3.18.93,5-.15,1.35.42,2.86-.87,4C-108,297.36-108.08,295.75-108.18,294.14Z" transform="translate(109.04 108.86)"/><path class="cls-13" d="M324.05-103c-2.43-.32-5.33,1.13-7-1.9C319.47-104.67,321.92-104.42,324.05-103Z" transform="translate(109.04 108.86)"/><path class="cls-23" d="M-4.21,407.08,0,407a4.19,4.19,0,0,1,5,0l-.09,1.14C1.84,408.07-1.27,408.3-4.21,407.08Z" transform="translate(109.04 108.86)"/><path class="cls-39" d="M-70,370c-.25,2.56-2.23,1.84-3.76,2a1.53,1.53,0,0,1-.3-.88C-73,369.54-71.42,370.13-70,370Z" transform="translate(109.04 108.86)"/><path class="cls-40" d="M-90.3,351.12c1.84-.53.37-2.37,1.63-3.22.37,1.51,1.74,3.18-1.08,4.09Z" transform="translate(109.04 108.86)"/><path class="cls-22" d="M-78.2,367.4c1.87-.76,1.91-.71,2.2,2.31A3.61,3.61,0,0,1-78.2,367.4Z" transform="translate(109.04 108.86)"/><path class="cls-41" d="M361.24-84.1l-3.3-.23,1-1.52Z" transform="translate(109.04 108.86)"/><path class="cls-25" d="M-102-10v-6a2.07,2.07,0,0,1,2.37-2c1.5,0,3,0,4.5,0H404c-.09.49-.14,1-.27,1.47C400.73-6,400.73-6,389.28-6h-484c-2.47,0-5-.43-7.31,1C-103.63-6.67-102.77-8.33-102-10Z" transform="translate(109.04 108.86)"/><path class="cls-30" d="M396-36c2.78,2.52,2.55,3.7-1.61,7.47-.59-2.87,1.52-5,1.61-7.47Z" transform="translate(109.04 108.86)"/><path class="cls-30" d="M398.11-26.19c-.4-.47-.84-.76-.87-1.09s.17-1.06.44-1.16c.74-.29,1.16.26,1.14.94C398.81-27.13,398.44-26.77,398.11-26.19Z" transform="translate(109.04 108.86)"/><path class="cls-17" d="M-20,353v-6H263c1.85,2,1.15,4,0,6v2c-2.73,2.25-6,1.61-9.12,1.61q-89.17.06-178.34,0-43.46,0-86.92,0c-2.94,0-6,.54-8.62-1.62Z" transform="translate(109.04 108.86)"/><path class="cls-20" d="M263,353v-7c38.87,0,77.73.05,116.6-.07,3.87,0,6.16.64,5.4,5.07q-57.28,0-114.58,0C267.71,351,265.11,351,263,353Z" transform="translate(109.04 108.86)"/><path class="cls-42" d="M367-75c-2.16,2.15-3.12-1.73-5-1-1-.67-1-1.34,0-2a1.35,1.35,0,0,1,2,0h0C365.06-77.07,366.58-76.58,367-75Z" transform="translate(109.04 108.86)"/><path class="cls-43" d="M-61-76c-1.88-.73-2.84,3.14-5,1,.42-1.59,2-2.07,3-3C-60.82-78.84-61.36-77-61-76Z" transform="translate(109.04 108.86)"/><path class="cls-44" d="M-63-78a6.27,6.27,0,0,1-3,3,2,2,0,0,1-1-2Z" transform="translate(109.04 108.86)"/><path class="cls-45" d="M367-75a6.35,6.35,0,0,1-3-3l4,1A2,2,0,0,1,367-75Z" transform="translate(109.04 108.86)"/><path class="cls-46" d="M364-78l-2,0-.6-2.15C363-80.31,363.34-79,364-78Z" transform="translate(109.04 108.86)"/><path class="cls-47" d="M-101,307v-2.5c0-6,3.93-8.63,9.43-6.33.54.22,1.33.81,1.33,1.24,0,5.62,4.08,4.67,7.44,4.54,2.58-.1,5.34.9,7.74-.89.54-.4,1.45-.84,1.64,0,1.19,4.84,5.06,2.89,7.77,2.89q202.22.13,404.42.06c3.6,0,8.13,1.36,7.42-5.21-.21-2,2.06-1.79,3.49-1.75,15.14.44,30.21-1.55,45.37-1.09,9,.27,7.83,1.2,7.95-7.93a2.41,2.41,0,0,1,2.93-.39c2.56,3.8-.85,7.33-.49,11-.58,1.89-.88,3.91-2.44,5.36-2.12,1.33-4.49,1-6.81,1Z" transform="translate(109.04 108.86)"/><path class="cls-48" d="M406,290h-3c-9.81,0-19.66-.56-29.43.11-27.89,1.91-55.8.34-83.69.85-.54-4.42,1.85-7.09,5.41-9.09a34.09,34.09,0,0,1,7.94-.47c18.77,0,37.55.32,56.32-.11,13.93-.32,27.86-1.17,41.81-.86,2.75.06,5.79-.45,7.59,2.55,0,3.34-.07,6.68-.11,10H408C406.84,292.33,407.09,290.72,406,290Z" transform="translate(109.04 108.86)"/><path class="cls-49" d="M406,290c2,.09,2,1.55,2,3-1.91,4.11-2,8.52-2.19,12.92,0,.09-.22.23-.35.24A1.4,1.4,0,0,1,405,306c-1.29-1.67-.74-3.33,0-5C405.33,297.34,405.67,293.67,406,290Z" transform="translate(109.04 108.86)"/><path class="cls-50" d="M405,301v5h-2A5.77,5.77,0,0,1,405,301Z" transform="translate(109.04 108.86)"/><path class="cls-51" d="M-104,306v-7.08c1.62.84.72,2.12,1,3.08C-103.14,303.38-102.53,305-104,306Z" transform="translate(109.04 108.86)"/><path class="cls-52" d="M-105,306h1v3.89l-.8,0Z" transform="translate(109.04 108.86)"/><path class="cls-35" d="M-77-64c.34-1.67.69-3.33,1-5C-71.53-65.7-66.29-66-61.27-66q101.64.1,203.27,0c-.08,1.76-1.12,2.51-2.7,3.11a20.37,20.37,0,0,1-7.38.89H-76Z" transform="translate(109.04 108.86)"/><path class="cls-53" d="M294.17,283l-4.29,8c-5.4,5-11.4,7.23-19.12,7.21q-132.72-.39-265.44,0c-10.44,0-18-3.22-23.21-12.21-3.94-4.05-2.18-9.14-2.54-13.84-.1-2.11-.07-4.22,0-6.33-.14-4.57-.13-9.14,0-13.71q-.18-5.06,0-10.13c-.14-5.24-.16-10.49,0-15.73-.1-2.78-.11-5.56,0-8.33q-.23-7.9,0-15.8c-.12-4.63-.15-9.27,0-13.9-.1-3.66-.13-7.32,0-11-.07-2.71-.11-5.42,0-8.13-.08-3-.1-6,0-9-.1-2.41-.08-4.82,0-7.23.11-3.32-.79-6.78,1.27-9.86V133c-2.37-4.05-1-8.47-1.27-12.73-.06-3-.13-6,0-9,0-2.61-.08-5.23,0-7.85,0-1.16-.07-2.31,0-3.47-.1-1.17,0-2.34,0-3.51-.14-4.19-.12-8.37,0-12.56-.14-4-.12-8,0-12-.14-5.29-.15-10.58,0-15.87-.13-5-.16-9.91,0-14.87-.08-4.52-.13-9.05,0-13.57,0-1.71-.07-3.42.07-5.13a16.35,16.35,0,0,1,.92-5.59c2-4.06,3-8.86,8.4-10.07,4.18-2.9,8.75-3.93,13.87-3.91Q58,3.13,113.26,3c6.45,0,12.86-.3,18.69,3.15,5.39,2,6.89,7,9.06,11.56a27.71,27.71,0,0,1,1.39,8.94c.18,3.27.09,6.54.07,9.8,0,5.22,3.68,5,7.28,5H271.84a22.52,22.52,0,0,1,9.25,1.63A27,27,0,0,1,294.3,56.31c2.13,5.15,2.29,10.57,2.12,16,.13,3.82.12,7.64,0,11.46.05,3.66.12,7.33-.12,11-.1,3,2.18,1.73,3.54,1.92,5.08.7,10.25,1.14,13.09,6.4,3.59,4,6.86,8.2,7.22,13.9,2.75,5.46.2,10.74-.53,16.08-.29,3.29-1.14,6.5-1.49,9.78-.72,3.39-1.17,6.83-1.8,10.24-.33,2.62-1,5.19-1.24,7.83-.7,2.8-.84,5.72-1.61,8.51-.1,2.65-.86,5.2-1.16,7.82-.62,3.7-1.19,7.41-1.9,11.1-.31,4.64-1.36,9.16-2.06,13.74-.92,5.37-1.63,10.78-2.8,16.11-.16,2.68-.87,5.27-1.23,7.92-.62,3.65-1.14,7.32-1.91,10.94-.09,2.36-.83,4.62-1.1,7-.16,2.07-.83,4.06-1,6.12s-.86,4.08-1,6.18c-.24,3.19-1,6.3-1.38,9.46-.54,2.08-.65,4.22-1,6.32C295.94,275.72,297,279.86,294.17,283Z" transform="translate(109.04 108.86)"/><path class="cls-54" d="M139.89,17A46.4,46.4,0,0,0,132,6.11C133.71,4.16,136,5,138.08,5,199,5,260,5.58,320.88,4.73c26.43-.37,52.86-.2,79.28-.86,3.54-.09,3.34,1.44,3,3.74-.16,1-1.61,2-.23,3.07a2.13,2.13,0,0,0,1.84-.21c1.61-1,.81-2.26.24-3.47,1.24-1.49-.19-3.51,1-5,1.67-1.4.76-3.32,1-5a66.28,66.28,0,0,1,1.94,18c-4.05,2.79-8.9,2.16-13.27,2.33-12.62.5-25.27,1.08-37.89,1.13-69.58.28-139.16.14-208.74.11C145.93,18.59,142.66,19.18,139.89,17Z" transform="translate(109.04 108.86)"/><path class="cls-26" d="M-11,6.84A20.06,20.06,0,0,0-18.17,17c-2.15,1.67-4.69,1.47-7.17,1.47-14.13,0-28.26,0-42.38,0-3.77,0-7,.43-9.85,3.55s-9.31,3.5-11.71.2c-4.37-6-10.93-5.19-16.81-6.62a4.61,4.61,0,0,1-1.85-.58c-.13-7.28,1.21-14.42,1.83-21.63.26-3.08,1.65-3.58,4.11-3.37v5c0,1.1.18,2.28-1,3,0,0-.35-.29-.35-.28-.63-.61-.17.21-.31.27-.16.35-.33.69-.51,1-.41,2.66,1,5.48-.83,8,.78,2.46,2.72,2.59,2.73.25C-102.26,3.1-100,4-97.58,4c4.21,0,8.07-.17,9.55,5.41.79,3,8,2.4,9.56-1C-77,5.33-74.81,5-72,5q27,0,53.93,0A12.18,12.18,0,0,1-11,6.84Z" transform="translate(109.04 108.86)"/><path class="cls-24" d="M-105,7c-.12-2.1.29-4.22-.6-6.27-.66-1.51-.16-2.54,1.6-2.73a14,14,0,0,1,0,8Z" transform="translate(109.04 108.86)"/><path class="cls-55" d="M406,2c-.25,1.68.67,3.6-1,5V-1.07C406.63-.25,405.72,1,406,2Z" transform="translate(109.04 108.86)"/><path class="cls-26" d="M-104,6V-2h0c.33-.45.67-.45,1,0h0C-103.44.65-102,3.54-104,6Z" transform="translate(109.04 108.86)"/><path class="cls-56" d="M-19.17,272c.51,4.64-.46,9.42,1.28,13.95-2,1.22-4.13,1.06-6.29,1.05q-23.7,0-47.4,0c-2.35,0-4.52.09-6.39,2-4.66,4.81-8.93,4.32-12.29-1.28A3.45,3.45,0,0,0-93.58,286c-1.67,0-3.33-.06-5,0-2.31.08-4.92-.38-6.86.53-2.95,1.38.21,4.16-.54,6.3-.27.77-.3,1.61-1,2.16-.25-1.67.63-3.55-.93-5q0-9.51,0-19A18.06,18.06,0,0,1-88,274a6.24,6.24,0,0,0,8.66-.11c3.31-2.94,7-3.42,11.11-3.41,14,.06,28,0,42,.05C-23.84,270.48-21.24,270.08-19.17,272Z" transform="translate(109.04 108.86)"/><path class="cls-56" d="M-103.72,289.93l-.44,5.91h-.52v-5.93Z" transform="translate(109.04 108.86)"/><path class="cls-56" d="M-101.74,293.49c-.51-3,.61-3.61,3.12-3.34Z" transform="translate(109.04 108.86)"/><path class="cls-20" d="M-20,355H263c.58,3.85-.89,5.09-4.92,5.09q-136.57-.18-273.16,0C-19.11,360.09-20.58,358.85-20,355Z" transform="translate(109.04 108.86)"/><path class="cls-22" d="M-24,361a171.45,171.45,0,0,1-41,0Z" transform="translate(109.04 108.86)"/><path class="cls-22" d="M-84,356l-1.91-.08c.49-1.07-1.6-3.83,1.91-2.91Z" transform="translate(109.04 108.86)"/><path class="cls-33" d="M381,359.87c-.06.72-.05,1.49-.83,1.6-1.06.16-1.31-.76-1.41-1.52-.13-.95.71-.82,1.3-.94C380.86,358.84,381.23,359.09,381,359.87Z" transform="translate(109.04 108.86)"/><path class="cls-5" d="M151.45-59c-1.56-.48-3.95,1.09-5.15-1.23-.6-1.16.68-2,1.37-3,1.68-2.21,3.67-1.74,5.77-.83.76.33,1.55.58,2.29.93,1.08.5,2.18,1.13,2,2.51-.21,2-1.86,1.48-3.09,1.56C153.68-58.95,152.68-59,151.45-59Z" transform="translate(109.04 108.86)"/><path class="cls-22" d="M-20,384v-5c1.8,1.12,3.81,1,5.81,1H257.19c2,0,4,.11,5.81-1-.14,6.34-.75,7-6.83,7q-134.61,0-269.23.05C-15.65,386-18,385.78-20,384Z" transform="translate(109.04 108.86)"/><path class="cls-57" d="M360.17,380.67c-1.86,1.25-3.79,2.26-5.54,3.59C355.61,381.84,356.73,379.63,360.17,380.67Z" transform="translate(109.04 108.86)"/><path class="cls-58" d="M370,372c1.18.71,1,1.9,1,3a3,3,0,0,1-2-3Z" transform="translate(109.04 108.86)"/><path class="cls-59" d="M5,407l-5,0c1-2.07,2.48-1.93,4.47-1.39A11.28,11.28,0,0,0,13,405c1.73-.92,3.6-.46,5.4-.46q132.09,0,264.2,0c1.8,0,3.67-.46,5.4.46,3.44,2.21,7.41.07,10.43.9C201,406.62,103,404.77,5,407Z" transform="translate(109.04 108.86)"/><path class="cls-60" d="M288,405H13c1.47-1.64,3.43-1,5.18-1q132.32,0,264.64,0C284.57,404,286.53,403.36,288,405Z" transform="translate(109.04 108.86)"/><path class="cls-61" d="M305.83,404.49c1-.71,2.06-.62,3.43,0A2.93,2.93,0,0,1,305.83,404.49Z" transform="translate(109.04 108.86)"/><path class="cls-3" d="M-24-101.23c2.26-.66,4.71-2.9,6.6,1.08Z" transform="translate(109.04 108.86)"/><path class="cls-62" d="M304.17,218l3-16c1.88-1.82,4.29-1.55,6.58-1.57,8.63-.06,17.27-.14,25.9,0,20.57.34,41.1-1.59,61.68-1,2.61.07,5.37-.4,7.6,1.58v16a3.16,3.16,0,0,1-2.28.85c-8.93-1.25-17.88,1.21-26.82-.14a20,20,0,0,0-6.46.09c-21.45,3.72-43.07.93-64.6,1.69A5.75,5.75,0,0,1,304.17,218Z" transform="translate(109.04 108.86)"/><path class="cls-63" d="M318.17,133a61.72,61.72,0,0,0,2-16c7.3,0,14.61-.1,21.92,0,20.23.35,40.41-1.64,60.66-1.13,4.63.11,6.82,1.18,6.31,6.15-.34,3.29-.11,6.64-.13,10-1.75,1.63-4,1.58-6.1,1.56-25.54-.25-51,1.67-76.58,1C323.49,134.49,320.55,135.13,318.17,133Z" transform="translate(109.04 108.86)"/><path class="cls-64" d="M408.93,201c-33.93-.18-67.83,1.69-101.76,1q1-7,2-14c2.22-2,5-1.55,7.59-1.56,14.95-.05,29.91.46,44.83-.17,13.26-.56,26.51-.6,39.77-.81,2.73,0,5.78-.5,7.58,2.52Q408.93,194.49,408.93,201Z" transform="translate(109.04 108.86)"/><path class="cls-65" d="M294.17,283c.95-3.62.2-7.51,1.72-11,1.95-1.62,4.32-1.55,6.65-1.57,6.49,0,13-.15,19.47,0,26.28.66,52.54-1.18,78.82-1,2.78,0,5.71-.49,8.11,1.6,0,4,0,8,0,12-2-1.24-4.15-1-6.3-1C366.5,283.08,330.33,283.09,294.17,283Z" transform="translate(109.04 108.86)"/><path class="cls-66" d="M301.17,237l2-11c2-1.93,4.64-1.55,7.08-1.57,9.63-.06,19.26-.16,28.89,0,20.74.35,41.45-1.6,62.19-1,2.62.07,5.37-.4,7.6,1.57q0,7,0,14c-13.7-2.49-27.48-1.61-41.23-.75-7.5.46-15,.29-22.47.34-12.32.08-24.65.05-37,0C305.82,238.55,303.22,238.93,301.17,237Z" transform="translate(109.04 108.86)"/><path class="cls-67" d="M296.88,266l1.29-10c1.88-1.83,4.29-1.56,6.59-1.58,9-.06,17.94-.23,26.91,0,22.92.62,45.8-1.5,68.72-1,3.3.07,6.82-.28,8.56,3.58v8c-1.76,1.64-4,1.59-6.12,1.61-32.79.31-65.57,1.61-98.37,1C301.85,267.55,299.06,268.08,296.88,266Z" transform="translate(109.04 108.86)"/><path class="cls-68" d="M408.94,188c-6.68-2-13.57-1.17-20.26-.67-3.69.27-7.15-.67-10.77-.36-22.89,2-45.83.69-68.74,1.05q1-5.49,2-11c1.88-1.82,4.29-1.55,6.58-1.56,9-.07,17.93-.1,26.89,0,18.91.18,37.78-1.39,56.69-1,2.62.06,5.37-.4,7.6,1.58Z" transform="translate(109.04 108.86)"/><path class="cls-69" d="M315.17,153c.78-3.31.25-6.88,2-10,1.88-1.81,4.3-1.54,6.59-1.55,9.46-.07,18.92.16,28.38-.07,16.4-.41,32.81-1.14,49.22-.93,2.75,0,5.79-.49,7.58,2.54,0,3,0,6,0,9-1.75,1.63-4,1.57-6.1,1.56-26.54-.16-53,1.67-79.58,1C320.49,154.5,317.55,155.14,315.17,153Z" transform="translate(109.04 108.86)"/><path class="cls-70" d="M408.94,143a8.94,8.94,0,0,0-4.8-1c-10.76,0-21.59-.71-32.28.18-18.25,1.53-36.47.32-54.69.84-.83-3.45,1.27-6.61,1-10,30.26.69,60.5-1.4,90.76-1C408.93,135.66,408.94,139.33,408.94,143Z" transform="translate(109.04 108.86)"/><path class="cls-71" d="M408.93,225c-35.26-.09-70.5,1.69-105.76,1,.33-2.67.66-5.33,1-8,16.32,0,32.65.06,49,0,6.44,0,12.84.42,19.26-1.69,4.71-1.54,10,1.07,14.78.47a71.11,71.11,0,0,1,21.75.26Q408.93,221,408.93,225Z" transform="translate(109.04 108.86)"/><path class="cls-72" d="M408.93,176c-32.59-.13-65.17,1.66-97.76,1,.33-2.67.66-5.33,1-8,2.13-1.62,4.64-1.58,7.14-1.58,8,0,15.92-.08,23.88,0,19.39.22,38.75-1.58,58.15-1,2.61.08,5.36-.39,7.59,1.58Z" transform="translate(109.04 108.86)"/><path class="cls-73" d="M408.93,168c-32.26-.29-64.5,1.71-96.76,1,1.68-2.41-.19-5.71,2-8,1.56-1.58,3.6-1.51,5.58-1.57q4-.13,8,0c24.4.71,48.75-1.58,73.14-1,2.89.07,6.13-.62,8.08,2.56C408.94,163.32,408.93,165.66,408.93,168Z" transform="translate(109.04 108.86)"/><path class="cls-74" d="M301.17,237c13.95,0,27.91-.14,41.86,0,19.74.24,39.43-1.71,59.18-1.1,2.86.09,5.22.41,6.74,3,0,1.34,0,2.68,0,4-1.75,1.63-4,1.56-6.11,1.57-31.69.18-63.38,1.65-95.08,1-2.6-.06-5.37.46-7.58-1.58C300.5,241.67,300.83,239.33,301.17,237Z" transform="translate(109.04 108.86)"/><path class="cls-75" d="M408.94,161a9.05,9.05,0,0,0-4.8-1c-11.11,0-22.29-.72-33.34.19-18.89,1.56-37.76.28-56.63.83-.89-2.82.78-5.32,1-8,31.26.7,62.5-1.34,93.76-1C408.93,155,408.93,158,408.94,161Z" transform="translate(109.04 108.86)"/><path class="cls-76" d="M296.88,266c23.27,0,46.57.72,69.8-.22,14.1-.57,28.18-.32,42.27-.75q0,3,0,6c-28.39-.49-56.74,1.7-85.13,1-9.31-.22-18.62-.06-27.92-.07C296.46,270,295.13,267.73,296.88,266Z" transform="translate(109.04 108.86)"/><path class="cls-77" d="M409,257c-2.11-2.07-4.74-2.06-7.45-2-34.44.73-68.88,1.35-103.33,1-.75-2.18,1.21-3.91,1-6,1.72-1.71,3.94-1.55,6.08-1.59,5.15-.08,10.3-.14,15.44,0,26.73.68,53.43-1.21,80.15-1,2.77,0,5.71-.49,8.1,1.6Q408.94,253,409,257Z" transform="translate(109.04 108.86)"/><path class="cls-78" d="M408.94,249c-36.6,0-73.17,1.71-109.77,1-.75-2.18,1.21-3.91,1-6,36.26.67,72.51-1,108.77-1Z" transform="translate(109.04 108.86)"/><path class="cls-79" d="M313,103.1a22.14,22.14,0,0,0-15.37-5.21c-.68,0-4.11,1.81-2.41-1.89,2.05-1.93,4.65-1.55,7.1-1.56,12.32-.06,24.64-.24,37,0,18.14.39,36.22-1.52,54.35-1,5.22.15,10.74-1.22,15.38,2.53v5c-30.63-.52-61.23,1.76-91.87,1C315.64,102,314,101.63,313,103.1Z" transform="translate(109.04 108.86)"/><path class="cls-80" d="M-19.17,226v16c-2.09,1.9-4.68,1.46-7.13,1.47-13,.05-26,.09-38.93,0-4.76,0-9.2.48-13.27,3.34-3.29,2.3-7.29,2.45-10.3,0-5.17-4.28-10.63-5.05-16.8-3.23a2.55,2.55,0,0,1-2.34-.51V225c5.37-2.79,11-1.56,16.53-.89,1.21.15,1.81,1.31,2.51,2.26,2.67,3.66,6.2,4.21,9.56,1.08a11.13,11.13,0,0,1,8.15-3q23.19,0,46.39,0C-22.8,224.48-20.75,224.43-19.17,226Z" transform="translate(109.04 108.86)"/><path class="cls-62" d="M-19.17,202v16c-2.06,1.92-4.65,1.52-7.1,1.53-14.29.06-28.58,0-42.87,0-3.18,0-6,.24-8.44,3.11-2.71,3.16-10.16,2.64-12.55-.74-2.06-2.91-4.55-3.37-7.68-3.43-3.41-.06-7,.91-10.12-1.49V201c5.37-2.79,11-1.54,16.51-.91,1.39.16,2.06,1.53,2.9,2.57,2.68,3.32,6.21,3.83,9.35.85,2.54-2.4,5.35-3.06,8.6-3.06,15.1,0,30.2,0,45.3,0C-23.13,200.48-20.9,200.31-19.17,202Z" transform="translate(109.04 108.86)"/><path class="cls-81" d="M-19.17,202q-26.44,0-52.9,0c-2.61,0-4.7.05-6,3.11C-79.6,208.86-83.3,206.4-86,207c-2.23.46-3.58-1-3.8-3-.31-2.79-2-3-4.16-3-4.66.08-9.32,0-14,0V188c4.52-4,15.33-3.57,18.89.72,2.72,3.27,6.53,3.9,9.9,1a13.7,13.7,0,0,1,9.59-3.27c14.76,0,29.52,0,44.29,0,2.13,0,4.36-.16,6.09,1.52Z" transform="translate(109.04 108.86)"/><path class="cls-67" d="M-19.17,252v14c-2.08,1.91-4.67,1.5-7.12,1.51q-21.7.08-43.4,0c-3.42,0-6.39.44-9.1,3a6.59,6.59,0,0,1-9.83-.32c-2.87-3.5-6.33-3.67-10.23-3.74-3.17-.07-6.81,1.07-9.1-2.45V253c.56-1,.69-2.17,1.91-2.78,3.84-1.95,14.18-.51,17.38,2.51,3.52,3.3,6.33,3.62,10.12.57a12.52,12.52,0,0,1,8.29-2.79c15.14,0,30.29,0,45.44,0C-22.81,250.51-20.76,250.44-19.17,252Z" transform="translate(109.04 108.86)"/><path class="cls-82" d="M-19.17,120v13H-72.46c-2.48,0-4.48-.12-5.8,3.15-1.62,4-5.86,1.17-8.88,1.78-2.12.43-3-1-2.86-3,.13-2.55-1.39-3-3.5-3-4.81.07-9.63,0-14.44,0q0-5,0-10c3.36-5.14,11.83-6.58,17-2.16,4.86,4.19,9.3,4.47,14.34.88,2.55-1.81,5.49-2.19,8.54-2.19,14.27,0,28.55,0,42.83,0C-23.15,118.53-20.92,118.32-19.17,120Z" transform="translate(109.04 108.86)"/><path class="cls-83" d="M-19.17,188q-26.11,0-52.24,0c-2.78,0-5,.3-6.64,3.15-2.22,3.82-6.26,1.28-9.45,1.79-2.39.38-2.41-1.62-2.59-3.31a2.5,2.5,0,0,0-2.61-2.5c-5.08.18-10.25-1.07-15.23.87V176c5.38-2.79,11-1.56,16.54-.89,1.21.15,1.81,1.31,2.51,2.26,2.73,3.72,6.6,4.25,10,1a10.46,10.46,0,0,1,7.66-2.9q23.19-.06,46.4,0c2,0,4,0,5.61,1.53Z" transform="translate(109.04 108.86)"/><path class="cls-69" d="M-19.17,143v10c-2.06,1.92-4.67,1.53-7.12,1.54-14.16.06-28.33,0-42.49,0-3.32,0-6.3,0-8.93,3.15-3,3.52-11,2.38-13.56-1.6-1.59-2.48-3.71-2.38-6-2.56-3.58-.29-7.39.93-10.64-1.56,0-1.67-.11-3.34,0-5a4.89,4.89,0,0,1,.62-2.84c3.59-4.11,8.44-1.46,12.7-2.11,2-.32,3.69.12,4.75,2.53,2,4.56,9.43,5.07,12.18.92,1.56-2.35,3.64-2.52,6.06-2.52Q-45.41,143-19.17,143Z" transform="translate(109.04 108.86)"/><path class="cls-84" d="M-19.17,252c-17.29,0-34.57,0-51.86,0-2.75,0-4.89.23-6.75,3-2.49,3.65-9.7,2.84-12.06-.9-.52-.82-.78-1.93-1.49-2.47-2-1.56-14.27-.41-16.6,1.4V243c3.28-1.12,6.47-2.35,10.11-2.07a11.77,11.77,0,0,1,8,3.37c3.49,3.5,7.3,3.8,11.06.95a15.84,15.84,0,0,1,10.16-3.31c16.48.14,33,.06,49.45.06C-19.17,245.33-19.17,248.67-19.17,252Z" transform="translate(109.04 108.86)"/><path class="cls-85" d="M-19.17,160v9c-2.07,1.92-4.67,1.51-7.12,1.52q-21.48.07-42.95,0c-3.24,0-6,.44-8.59,3-3.13,3.09-9,2.87-11.7-.47-2.45-3-5.3-3.52-8.76-3.54-3.25,0-6.72.84-9.64-1.49v-7c3.88-4.27,13.31-5,17.68-1.27,5.71,4.82,6.38,4.89,12.9.73a13.82,13.82,0,0,1,7.62-1.94q22.47-.07,44.95,0C-22.81,158.52-20.76,158.44-19.17,160Z" transform="translate(109.04 108.86)"/><path class="cls-86" d="M-107.93,168c3.66,0,7.32.06,11,0,3.49-.07,6.69-.45,8.23,4.13,1,2.87,9.27,2.95,10.3.13,1.3-3.53,3.68-3.24,6.34-3.24h52.91v8q-26.47,0-52.95,0c-2,0-4.11-.55-5.26,2.38-1.89,4.81-6.36,2-9.67,2.53-3,.52-2.88-1.89-3-3.91s-1.85-2-3.35-2c-4.83,0-9.66,0-14.49,0Z" transform="translate(109.04 108.86)"/><path class="cls-71" d="M-107.93,217c3.65,0,7.3,0,11,0,3.3,0,6.91-1,7.85,4.22.43,2.48,10.2,2.8,10.78.38,1-4.05,3.63-3.61,6.44-3.61h52.74v8H-72.45c-2.48,0-4.49-.14-5.81,3.14-1.61,4-5.85,1.17-8.87,1.79-2.11.43-3-1-2.87-3,.14-2.53-1.36-3-3.49-3-4.81.07-9.62,0-14.44,0Z" transform="translate(109.04 108.86)"/><path class="cls-87" d="M-19.17,160q-25.66,0-51.34,0c-3.11,0-5.76.44-7.79,3.33-1.69,2.41-9.54,2.73-10.86.29-4.24-7.84-10.69-4.18-16.55-3.69a6.85,6.85,0,0,0-2.23,1.08q0-4.5,0-9c4.67,0,9.33,0,14,0,2.17,0,4.11.07,3.94,3-.13,2.08.86,3.25,3,2.94,3-.43,7.47,1.79,8.54-1.49,1.23-3.78,3.24-3.47,5.84-3.47h53.48Z" transform="translate(109.04 108.86)"/><path class="cls-76" d="M-107.94,264c4.47,2,9.18.64,13.77.94,2.38.15,4.22.13,5.46,3a5.46,5.46,0,0,0,9.84.46c1.55-2.63,3.59-2.46,5.9-2.45h53.81q0,3,0,6c-17.47,0-34.94,0-52.41,0-2.84,0-4.9.5-6.55,3.34-2.1,3.63-6,1.05-9.1,1.63-2.22.41-2.71-1.18-2.84-3.08-.19-2.75-2.27-2.87-4.38-2.86h-13.48C-107.93,268.67-107.94,266.35-107.94,264Z" transform="translate(109.04 108.86)"/><path class="cls-88" d="M-19.16,56q0,8,0,16c-2.06,1.91-4.65,1.52-7.1,1.53q-21.15.07-42.32,0c-3.23,0-6,.43-8.57,3-3.47,3.41-10.52,2.82-13.31-1-1.87-2.56-4.12-2.88-6.87-3-3.56-.15-7.35,1-10.6-1.51V55c5.37-2.79,11-1.56,16.53-.89,1.21.14,1.82,1.29,2.53,2.25,2.67,3.66,6.21,4.21,9.55,1.09a11.22,11.22,0,0,1,8.15-3c15.47,0,30.93,0,46.4,0C-22.79,54.48-20.75,54.44-19.16,56Z" transform="translate(109.04 108.86)"/><path class="cls-89" d="M-19.16,56h-53.3c-2.48,0-4.48-.12-5.8,3.15-1.62,4-5.86,1.17-8.88,1.78-2.12.43-3-1-2.86-3,.13-2.55-1.39-3-3.5-3-4.82.07-9.63,0-14.45,0V40c6.79-2.19,13.47-3.38,19.66,1.7,3,2.44,6.22,2.32,9.18.16a13.57,13.57,0,0,1,8.44-2.42c15.13,0,30.26,0,45.39,0,2.14,0,4.38-.16,6.12,1.53Z" transform="translate(109.04 108.86)"/><path class="cls-90" d="M-19.16,41h-53c-2.45,0-4.78-.34-6.23,2.77-1,2.19-9.65,1.95-10.7-.29-1.64-3.5-4.29-3.6-7.41-3.51-3.83.12-7.66,0-11.49,0q0-7,0-14c6.84-2.29,13.52-3.25,19.45,2.27,2.84,2.64,6.08,2.91,9.07.65,3.7-2.81,7.78-3.47,12.21-3.46,13.8,0,27.61,0,41.42,0,2.3,0,4.71-.3,6.62,1.5Z" transform="translate(109.04 108.86)"/><path class="cls-91" d="M-19.17,84q0,6.5,0,13c-1.91,1.82-4.33,1.46-6.62,1.47q-22.42,0-44.85,0c-2.93,0-5.28.48-7.56,2.74a7.73,7.73,0,0,1-11.83-.9c-1.77-2.4-3.71-2.75-6.31-2.87-3.89-.19-8,1.19-11.61-1.41l-.15-12c0-.33.09-.67.14-1,5.36-2.78,11-1.53,16.5-.91,1.4.15,2.07,1.51,2.91,2.55,2.57,3.19,6,3.84,8.94,1.08s6.31-3.29,10-3.28c14.43,0,28.86,0,43.29,0C-23.81,82.48-21.23,82.09-19.17,84Z" transform="translate(109.04 108.86)"/><path class="cls-92" d="M-19.17,84q-26.37,0-52.75,0c-2.57,0-4.55.11-6.18,2.85-2.43,4.08-10.24,3-11.76-1.48-.73-2.17-1.9-2.36-3.65-2.35-4.81,0-9.63,0-14.44,0q0-6,0-12c4,0,8,0,12,0,3,0,5.72-.52,6.62,3.84.62,3,10.26,3.44,11.47.4,1.35-3.4,3.59-3.25,6.29-3.25q26.21.06,52.41,0Z" transform="translate(109.04 108.86)"/><path class="cls-93" d="M-107.94,15c2.28-1.46,4.45-2.53,6.91-.1,1,1,2.69,1.16,4.25,1.11,3.34-.1,6.22-.43,7.39,4.37.94,3.88,9.44,3.64,11.69-.28,1.53-2.66,3.4-3.15,6.1-3.14C-53.79,17-36,17-18.17,17c-.33,1.67-.66,3.33-1,5-2.07,1.92-4.67,1.51-7.12,1.52q-21,.07-42,0c-3.39,0-6.4.33-9.08,3.07-2.85,2.91-9.83,2.94-12.36-.1-3.11-3.73-6.83-4.16-11.11-4-2.46.09-5,.35-7.14-1.5Z" transform="translate(109.04 108.86)"/><path class="cls-93" d="M-107.94,21c3.32,0,6.65,0,10,0,3.63,0,7.2-.69,8.53,4.46.65,2.54,10.07,2.39,11.35-.17,1.49-3,3.73-3.32,6.55-3.31,17.46.06,34.92,0,52.37,0v5q-25.14,0-50.27,0c-3.52,0-6.75.36-9.17,3.69-1.69,2.33-9.13,2.08-10.32-.41C-91,25.85-94.66,26-98.48,26c-3.15,0-6.31,0-9.46,0Z" transform="translate(109.04 108.86)"/><path class="cls-94" d="M141.17,36V26c2.71-2.34,6-1.59,9.1-1.59,67.79-.05,135.58.1,203.37-.13,16.47-.06,32.93-1.24,49.42-.92,2,0,4-.34,5.88.66V36a8.24,8.24,0,0,1-4.38.67c-34.47-.26-68.91,1.35-103.39,1.08-50.3-.4-100.6-.09-150.9-.14C147.19,37.59,143.88,38.34,141.17,36Z" transform="translate(109.04 108.86)"/><path class="cls-93" d="M408.94,24c-1.64,1-3.46,1-5.31,1-5,0-10-.12-15,0-82.49,2.05-165,.5-247.49,1-.43-3-.86-6-1.28-9,72.73,0,145.47.16,218.2-.22,12.92-.06,25.9-.38,38.81-1.06,4-.21,8-.86,12-.74Z" transform="translate(109.04 108.86)"/><path class="cls-95" d="M141.17,36c72.55,0,145.11.23,217.66-.19,14.76-.08,29.53-.77,44.31-.81,2,0,4-.15,5.8,1v7c-1.91,1.76-4.31,1.58-6.62,1.59-35,.17-69.9,1.65-104.86,1-5.15-.1-10.32.18-15.42-.8A27,27,0,0,0,271,43q-61.68.1-123.35,0C140.8,43,140.8,43,141.17,36Z" transform="translate(109.04 108.86)"/><path class="cls-96" d="M295.17,72a56.51,56.51,0,0,0-2-16c2.2-2.08,5-1.56,7.58-1.57,16.11-.06,32.22,0,48.33,0,17.43,0,34.83-1.48,52.27-1,2.62.08,5.37-.38,7.6,1.59V71c-1.75,1.63-4,1.56-6.11,1.57-33.36.21-66.71,1.63-100.08,1C300.15,73.53,297.38,74,295.17,72Z" transform="translate(109.04 108.86)"/><path class="cls-97" d="M408.94,55c-38.59.06-77.17,1.66-115.78,1-3.05-4.38-6.2-8.65-11.12-11.17,1.4-1.33,3.15-.8,4.76-.81,7.15-.05,14.31-.15,21.46,0,33.57.72,67.11-1.38,100.68-1Z" transform="translate(109.04 108.86)"/><path class="cls-98" d="M409,96c-12.34-1.89-24.83-1.55-37.15-.81-25.55,1.54-51.1.22-76.64.8V84c1.72-1.71,3.95-1.55,6.09-1.59,5-.08,10-.13,14.95,0,28.23.69,56.43-1.23,84.65-1,2.77,0,5.71-.48,8.1,1.6Z" transform="translate(109.04 108.86)"/><path class="cls-92" d="M409,83C371,83,333.1,84.7,295.16,84q0-6,0-12c37.93.67,75.84-1,113.77-1Q408.94,77,409,83Z" transform="translate(109.04 108.86)"/><path class="cls-99" d="M-19.17,120c-16.28,0-32.56.09-48.84-.07a15,15,0,0,0-9.23,2.79c-5.35,3.74-9,3.32-13.63-1.09-4.16-4-11.68-3.82-17.08.35v-8c2-6,12.44-7.86,17.68-3.06,4.86,4.46,7.36,4.76,12.62,1.11a12.68,12.68,0,0,1,7.42-2.49q23-.09,45.93,0c1.83,0,3.69,0,5.13,1.46Z" transform="translate(109.04 108.86)"/><path class="cls-16" d="M-19.17,111H-70.48c-2,0-3.82,0-5.57,1.48-6.34,5.39-10,5-15.31-1-2.27-2.59-5.31-1-8-1.43-3.74-.58-6.94.06-8.61,4,0-4,0-8,0-12,5.3-2.75,10.9-1.17,16.38-1.15a4.81,4.81,0,0,1,1.46.61c1.74,1.38,1.11,4.66,4.13,5.09,3.28.47,6.27.41,7.93-3.16a6.23,6.23,0,0,1,1.44-.93c2-1,4.21-.94,6.37-.94q22.47,0,45,0c2.14,0,4.37-.25,6.11,1.48Z" transform="translate(109.04 108.86)"/><path class="cls-79" d="M-107.94,96c4,0,8,.1,12,0,3.09-.11,5.47,0,7,3.62,1.52,3.5,8,3.68,10.18.33,1.82-2.81,4-3,6.75-2.94q26.43.06,52.84,0c0,1,0,2,0,3-1.9,1.84-4.32,1.46-6.62,1.47q-22.23,0-44.46,0c-2.89,0-5.7,0-7.75,2.52-4.56,4-9.53,3.21-12-2-3.36-2.5-7.27-1.24-11-1.6-2.52-.24-5.39.54-7-2.38Z" transform="translate(109.04 108.86)"/><path class="cls-79" d="M-107.95,98c3.9,1.89,8,.63,12.07,1,2.4.2,5.08-.26,5.88,3h-17.94C-107.94,100.67-107.94,99.34-107.95,98Z" transform="translate(109.04 108.86)"/><path class="cls-20" d="M-80,359v-2c1.93,1,2.48,2.49,1.44,4.67C-79.9,361.16-79.3,359.7-80,359Z" transform="translate(109.04 108.86)"/><path class="cls-100" d="M289.84,201q-1.5,8-3,16c-2.72,2.31-6,1.61-9.11,1.61q-103.23.06-206.46,0-28.25,0-56.49,0c-2.61,0-5.39.45-7.6-1.61q1.5-8,3-16c2.71-2.35,6-1.6,9.11-1.6q104-.08,208,0,27.49,0,55,0C284.85,199.4,287.63,198.94,289.84,201Z" transform="translate(109.04 108.86)"/><path class="cls-91" d="M277.84,83c.15,4.8,2,10.85-.63,14s-8.75.93-13.34.94Q147,98.05,30.21,98c-3.11,0-6.24-.24-9.25.83-5.72.9-11.48.72-17.23.66-2,0-4,0-5.57-1.5V83c2.71-2.35,6-1.6,9.11-1.6q103.49-.08,207,0,28,0,56,0C272.85,81.4,275.63,80.94,277.84,83Z" transform="translate(109.04 108.86)"/><path class="cls-84" d="M281.84,241c.18,5.21-1.28,10.12-2.72,15-2.77,2.15-6,1.57-9.16,1.57q-97.41.06-194.82,0c-22.31,0-44.63,0-66.94-.05-2.85,0-6.16.78-8-2.56,0-5.18,1.5-10.11,2.72-15.08a9.59,9.59,0,0,1,4.4-.65c88.82.15,177.64,0,266.45.1C276.51,239.4,279.47,238.81,281.84,241Z" transform="translate(109.04 108.86)"/><path class="cls-66" d="M281.84,241H10.19c-2.48,0-5,.38-7.3-1L5.17,226c2.14-1.61,4.65-1.63,7.16-1.63q132.7,0,265.41,0c2.45,0,5.06-.37,7.09,1.61A50.62,50.62,0,0,1,281.84,241Z" transform="translate(109.04 108.86)"/><path class="cls-101" d="M.17,255c2.11,1.41,4.5,1,6.8,1Q143,256,279.12,256q-1.15,7.48-2.29,15c-2.71,2.35-6,1.6-9.1,1.6q-104.24.07-208.47,0c-17.83,0-35.66,0-53.49,0-2.61,0-5.39.45-7.6-1.61C-2.24,265.54-2.2,260.14.17,255Z" transform="translate(109.04 108.86)"/><path class="cls-96" d="M-1.83,72V56c1.88-1.84,4.3-1.6,6.6-1.6q56.24-.07,112.46,0c2.3,0,4.72-.24,6.6,1.6-.44,3.74,1.62,4.07,4.75,4.06q66.82-.14,133.65,0a19.67,19.67,0,0,1,6.31.69c6.28,2,8.58,4.77,8.29,11.28-2.7,2.37-6,1.6-9.09,1.6q-105.74.08-211.48,0c-16.83,0-33.66,0-50.49,0C3.16,73.6.38,74.06-1.83,72Z" transform="translate(109.04 108.86)"/><path class="cls-102" d="M289.84,201H10.16c.61-4.41,1.08-8.85,2.72-13,2.77-2.15,6-1.58,9.16-1.58q94.76,0,189.5,0,36.26,0,72.5,0c2.77,0,5.73-.57,8.08,1.65C292.05,192.48,290.56,196.67,289.84,201Z" transform="translate(109.04 108.86)"/><path class="cls-83" d="M292.12,188,20.38,188c-2.5,0-5,0-7.5,0a41.14,41.14,0,0,1,2-11c2.77-2.15,6-1.58,9.16-1.58q94.74,0,189.49,0,36.26,0,72.5,0c2.77,0,5.73-.57,8.08,1.64A29.82,29.82,0,0,1,292.12,188Z" transform="translate(109.04 108.86)"/><path class="cls-103" d="M-1.83,72H276.83c2.22,3.5.88,7.32,1,11H-1.84C-1.84,79.33-1.83,75.67-1.83,72Z" transform="translate(109.04 108.86)"/><path class="cls-65" d="M-1.83,271H276.83c-.63,6.85-3.13,9-9.53,10.09-7.27,1.2-14.52.88-21.79.89q-114.39,0-228.8.09A53.31,53.31,0,0,1,6,280.72C1.26,279.76-2,276.5-1.83,271Z" transform="translate(109.04 108.86)"/><path class="cls-69" d="M300.83,143c.06,3.48-1.09,6.71-2,10-2.71,2.35-6,1.6-9.1,1.6q-103.74.08-207.47,0-27.73,0-55.49,0c-2.61,0-5.39.45-7.6-1.61.66-3.33,1.33-6.67,2-10,2.71-2.35,6-1.6,9.1-1.6q103.49-.08,207,0,28,0,56,0C295.84,141.4,298.63,140.94,300.83,143Z" transform="translate(109.04 108.86)"/><path class="cls-19" d="M300.83,143H21.17c-.07-3.48,1.09-6.71,2-10,2.71-2.35,6-1.6,9.1-1.6q104.24-.08,208.47,0c18.16,0,36.32,0,54.49,0,2.61,0,5.39-.45,7.6,1.61Q301.84,138,300.83,143Z" transform="translate(109.04 108.86)"/><path class="cls-99" d="M24.17,125c.6-6.1,4.25-9.39,11.13-10,.66-.05,1.33,0,2,0q126.15,0,252.28,0c5.58,0,10.41,1.6,13,7.11a9,9,0,0,1,.29,2.88c-2.71,2.35-6,1.6-9.1,1.6q-104.49.08-209,0c-17.66,0-35.33,0-53,0C29.16,126.6,26.37,127.06,24.17,125Z" transform="translate(109.04 108.86)"/><path class="cls-104" d="M284.83,226H5.17c1.47-2.82.23-6.24,2-9H286.83C285.72,219.9,286.72,223.27,284.83,226Z" transform="translate(109.04 108.86)"/><path class="cls-73" d="M16.17,169q1-4.5,2-9c2.71-2.35,6-1.6,9.1-1.6q103.49-.08,207,0,28,0,56,0c2.61,0,5.4-.45,7.6,1.61-1.48,2.82-.23,6.24-2,9-2.71,2.35-6,1.6-9.1,1.6q-104.49.08-209,0c-18,0-36,0-54,0C21.16,170.6,18.37,171.06,16.17,169Z" transform="translate(109.04 108.86)"/><path class="cls-95" d="M-1.83,46V28c2.14-1.62,4.65-1.62,7.16-1.62q55.2,0,110.39,0c2.47,0,5-.29,7.11,1.61,1.75,5.92,1.2,12,1,18-1.88,1.84-4.3,1.6-6.6,1.6Q61,47.68,4.77,47.6C2.47,47.6.05,47.84-1.83,46Z" transform="translate(109.04 108.86)"/><path class="cls-72" d="M16.17,169H295.83a21,21,0,0,1-1.71,8L22.38,177c-2.5,0-5,0-7.49,0C14.58,174.19,15.86,171.67,16.17,169Z" transform="translate(109.04 108.86)"/><path class="cls-105" d="M24.17,125H302.83v8H23.17C22.28,130.18,24,127.68,24.17,125Z" transform="translate(109.04 108.86)"/><path class="cls-87" d="M297.83,160H18.17c-.87-2.5,1.06-4.61,1-7H298.83C298.5,155.33,298.17,157.67,297.83,160Z" transform="translate(109.04 108.86)"/><path class="cls-97" d="M-1.83,46H123.83V56H-1.83Z" transform="translate(109.04 108.86)"/><path class="cls-93" d="M122.83,28H-1.83c2.18-8.67,9.72-8.75,16.09-8.83q46.13-.55,92.27,0c5.79.08,12.91-.42,16,6.94A7.1,7.1,0,0,1,122.83,28Z" transform="translate(109.04 108.86)"/><path class="cls-106" d="M-1.84,98c7.59.48,15.26-1,22.8.84-5.76,2.57-9.78,7-13.13,12.16a8.31,8.31,0,0,1-9.66,0Z" transform="translate(109.04 108.86)"/><path class="cls-79" d="M-78,104c1-4.21,4.31-4,7.47-4q25.68,0,51.36,0v3c-17,0-34,0-51,0A26.92,26.92,0,0,0-78,104Z" transform="translate(109.04 108.86)"/><path class="cls-107" d="M-1.83,111H7.83A110.76,110.76,0,0,0,5,129.91,6.79,6.79,0,0,1,3.83,133a4,4,0,0,1-5.66,0Z" transform="translate(109.04 108.86)"/><path class="cls-108" d="M-1.83,133H3.83a95.9,95.9,0,0,1-3,20,1.76,1.76,0,0,1-2.66,0Z" transform="translate(109.04 108.86)"/><path class="cls-109" d="M-1.83,153H.83a70.56,70.56,0,0,1-2.91,17.9L-2,171Q-1.91,162-1.83,153Z" transform="translate(109.04 108.86)"/><path class="cls-72" d="M-2.08,170.9v5.48c-1-2.55-1.63-4,.08-5.41Z" transform="translate(109.04 108.86)"/><path class="cls-24" d="M-103-2h-1c.21-1.17-1.2-2.34-.17-3.67C-102.42-4.69-103.24-3.2-103-2Z" transform="translate(109.04 108.86)"/><path class="cls-79" d="M-90,102c3.34,4.63,7.67,3.29,12,2,0,5.71-4.32,3.8-7.22,3.93C-89.22,108.11-90.21,105.44-90,102Z" transform="translate(109.04 108.86)"/></svg>