<svg id="图层_1" data-name="图层 1" xmlns="http://www.w3.org/2000/svg" viewBox="0 0 519.11 517.81"><defs><style>.cls-1{fill:#7d7d7d;}.cls-2{fill:#7f7f7f;}.cls-3{fill:#9b9b9b;}.cls-4{fill:#999;}.cls-5{fill:#9d9d9d;}.cls-6{fill:#828282;}.cls-7{fill:#818181;}.cls-8{fill:#7a7a7a;}.cls-9{fill:#989898;}.cls-10{fill:#868686;}.cls-11{fill:#848484;}.cls-12{fill:#8f8f8f;}.cls-13{fill:#929292;}.cls-14{fill:#898989;}.cls-15{fill:#969696;}.cls-16{fill:#939393;}.cls-17{fill:#8d8d8d;}.cls-18{fill:#8b8b8b;}.cls-19{fill:#888;}.cls-20{fill:#8c8c8c;}.cls-21{fill:#909090;}.cls-22{fill:#959595;}.cls-23{fill:#9b0df7;}.cls-24{fill:#9f0af8;}.cls-25{fill:#a308f9;}.cls-26{fill:#ac05fb;}.cls-27{fill:#a706fb;}.cls-28{fill:#9510f4;}.cls-29{fill:#8f14f2;}.cls-30{fill:#9014f2;}.cls-31{fill:#8917f0;}.cls-32{fill:#17e2f0;}.cls-33{fill:#13d9e7;}.cls-34{fill:#1becf9;}.cls-35{fill:#15ddec;}.cls-36{fill:#19e8f6;}.cls-37{fill:#0abfd1;}.cls-38{fill:#1ae8f5;}.cls-39{fill:#10d0e0;}.cls-40{fill:#0ecada;}.cls-41{fill:#0cc5d6;}.cls-42{fill:#1debf7;}.cls-43{fill:#12d5e5;}.cls-44{fill:#8a8b8b;}.cls-45{fill:#7920eb;}.cls-46{fill:#4b77cf;}.cls-47{fill:#831bee;}.cls-48{fill:#7026e8;}.cls-49{fill:#9c0cf7;}.cls-50{fill:#6929e5;}.cls-51{fill:#8818f0;}.cls-52{fill:#a907fa;}.cls-53{fill:#9610f4;}.cls-54{fill:#a30af8;}.cls-55{fill:#4340d8;}.cls-56{fill:#493bdb;}.cls-57{fill:#4e38dc;}.cls-58{fill:#4d6ed1;}.cls-59{fill:#4249d6;}.cls-60{fill:#4551d5;}.cls-61{fill:#0bc4d5;}.cls-62{fill:#09c0d1;}.cls-63{fill:#01aabd;}.cls-64{fill:#14dbea;}.cls-65{fill:#10d1e0;}.cls-66{fill:#288ec5;}.cls-67{fill:#03afc2;}.cls-68{fill:#16e0ee;}.cls-69{fill:#07a3bd;}.cls-70{fill:#07bbcc;}.cls-71{fill:#06b7c9;}.cls-72{fill:#04b3c5;}.cls-73{fill:#0ecddd;}.cls-74{fill:#1e94c3;}.cls-75{fill:#18e4f2;}.cls-76{fill:#0dc9d9;}.cls-77{fill:#129cc0;}.cls-78{fill:#3a81ca;}.cls-79{fill:#1898c2;}.cls-80{fill:#2f88c8;}.cls-81{fill:#407fcb;}.cls-82{fill:#0d9fbe;}.cls-83{fill:#483cdb;}.cls-84{fill:#4a62d2;}.cls-85{fill:#4c6dd1;}.cls-86{fill:#4349d6;}.cls-87{fill:#4657d4;}.cls-88{fill:#831aee;}.cls-89{fill:#7224e9;}.cls-90{fill:#7e1eec;}.cls-91{fill:#5535df;}.cls-92{fill:#6d27e7;}.cls-93{fill:#672be5;}.cls-94{fill:#5b31e1;}.cls-95{fill:#7324e9;}.cls-96{fill:#454bd6;}.cls-97{fill:#4a77ce;}.cls-98{fill:#1b96c2;}.cls-99{fill:#407ecc;}.cls-100{fill:#268fc5;}.cls-101{fill:#2f89c8;}.cls-102{fill:#3884c9;}.cls-103{fill:#0da0be;}.cls-104{fill:#129bc0;}.cls-105{fill:#07b8ca;}.cls-106{fill:#03adc0;}.cls-107{fill:#00a8bc;}.cls-108{fill:#04b2c4;}.cls-109{fill:#07a4bc;}.cls-110{fill:#4d39dc;}.cls-111{fill:#612ee3;}.cls-112{fill:#5733df;}.cls-113{fill:#622de3;}.cls-114{fill:#447bcd;}.cls-115{fill:#08b9cb;}.cls-116{fill:#88898a;}.cls-117{fill:#12d5e4;}.cls-118{fill:#09bfd0;}.cls-119{fill:#0dc9da;}.cls-120{fill:#0fcddd;}.cls-121{fill:#2590c5;}.cls-122{fill:#0ea0be;}.cls-123{fill:#3f7ecc;}.cls-124{fill:#3088c8;}.cls-125{fill:#3585c9;}.cls-126{fill:#2b8dc6;}.cls-127{fill:#3a82ca;}.cls-128{fill:#919191;}.cls-129{fill:#4757d4;}.cls-130{fill:#4a66d2;}.cls-131{fill:#495fd2;}.cls-132{fill:#8e8e8e;}.cls-133{fill:#3485c9;}.cls-134{fill:#4451d5;}.cls-135{fill:#05b3c6;}.cls-136{fill:#01a8bc;}.cls-137{fill:#139bc0;}.cls-138{fill:#3883c9;}.cls-139{fill:#06a4bd;}.cls-140{fill:#7920ea;}.cls-141{fill:#7025e8;}.cls-142{fill:#9013f2;}.cls-143{fill:#9c0df7;}.cls-144{fill:#811bed;}.cls-145{fill:#a906fa;}.cls-146{fill:#9610f5;}.cls-147{fill:#5f2fe2;}</style></defs><title>重置磁盘</title><path class="cls-1" d="M383,363c-21.22,26.65-49,41.24-82.65,45.11a155.94,155.94,0,0,1-17.95.8q-133.66,0-267.33,0c-35.35,0-65.64-12.47-90.38-37.88-3.58-3.68-7.25-7.36-9.66-12-1.46-5.67.08-8.27,5.55-9.24a46.26,46.26,0,0,1,8-.32c14,0,28,.05,42,0,5.17,0,9.76.53,11.24,6.63.43,1.76,1.9,2.15,3.47,2.29s3.33.1,5,.1q131.18,0,262.34,0c4.46,0,8.73.37,10.06-5.51.44-2,2.65-2.85,4.73-3.21a32.38,32.38,0,0,1,5.48-.3q48,0,95.94,0c3.51,0,7,.54,10.47.56,6.88,0,8.36,2.06,6.73,9h0C383.17,359,382.86,360.81,383,363Z" transform="translate(108.99 108.91)"/><path class="cls-2" d="M386,359c-.32-1.61-1-3.26-.88-4.85.2-2.83-1.79-2.94-3.47-2.95q-25.86-.18-51.71-.17c-19.83,0-39.65.08-59.47-.06-4.7,0-8,.75-7.5,6.45.17,1.93-1,2.65-2.8,2.61-1.16,0-2.33,0-3.5,0q-135.18,0-270.36,0c-3.7,0-7.08.47-6.47-5.19.28-2.68-2.13-3.85-4.82-3.84-17.66,0-35.32-.07-53,.05-5.5,0-6.58,1.48-7,7.91a99.35,99.35,0,0,1-18.08-35.85c-.54-5.13.37-6.44,5.36-7.38a45.33,45.33,0,0,1,8.48-.32H389a67.47,67.47,0,0,0,9-.28c5.31-.71,6.56.49,6.32,6a14.74,14.74,0,0,1-.2,2A100.64,100.64,0,0,1,386,359Z" transform="translate(108.99 108.91)"/><path class="cls-3" d="M358-86.32c14.47,9.23,25.44,21.8,34.3,36.31,4.59,7.52,8.62,15.36,10.76,24-3.89,1.43-6.91.15-9-3.21s-4.78-4.41-8.41-4.22c-1.66.09-3.33,0-5,0q-229.92,0-459.86,0c-4.44,0-9-.71-13.08,2.1-1.57,1.09-2.74-.23-3.89-1.29-2.19,3.4-2.18,8.26-7,9.6,3.91-15,11.44-28.24,21-40.3,4.24-5.32,8.68-10.49,14.16-14.64a5,5,0,0,1,4.76.76c3.6,2.82,7.73,2.65,11.91,2.64q91.47,0,182.92,0c5.39,0,10.67.19,15.44,3.12a4.85,4.85,0,0,0,5.65-.23c3.6-2.53,7.68-2.79,11.91-2.92,8.1-.24,16.35,1.27,24.26-1.78a3.52,3.52,0,0,1,2.9.41c2.77,1.48,5.78,1.42,8.78,1.42H351.57A29.15,29.15,0,0,0,358-75c1.54-.34,3.59-.17,4-2.26.35-1.69-1-2.72-2.17-3.65C358.08-82.3,356.59-83.8,358-86.32Z" transform="translate(108.99 108.91)"/><path class="cls-4" d="M-103.08-23c3.12-3.87,4.52-8.57,6.39-13.42l2.9,5.48c1.92-3.94,5-4.12,8.44-4.11q235.79.09,471.59,0c4.22,0,7.35.67,9.13,4.93.91,2.16,2.06,4.88,5.46,2.58.27-.19,1.49,1,2.27,1.57A81.55,81.55,0,0,1,409,.09c2,32.1.75,64.25.87,96.38.23,63.46.1,126.92.07,190.38,0,3.12.58,6.33-.79,9.36-2.91-3.75-1.32-8.1-1.64-12.19-.05-7.66-.19-15.33,0-23-.19-8-.14-16,0-24,.48-11-.44-21.93,0-32.89-.17-9.32-.2-18.64,0-28-.16-6.41-.15-12.82,0-19.23-.1-13.27-.18-26.54,0-39.81.08-11.56-.26-23.13.08-34.69-.08-4.65-.15-9.3,0-14,0-1.53-.09-3.06,0-4.58-.14-3.06-.08-6.11,0-9.16-.18-6-.16-11.91,0-17.87.07-11.48-.5-23-.91-34.43-.07-1.8-.52-2.58-2.3-3.08a47.12,47.12,0,0,0-12.79-1.77q-145.67.07-291.34,0-93.94,0-187.89,0c-4.7,0-9.31.16-13.71,1.93-2.92-.43-.73-3-1.69-4.22-.32-.42.43-1.38-.64-1.46-.28,0-.8.14-.87.31-.34.74.37,1.07.77,1.51.82.89,1.31,1.84.64,3.05.42,1.46,1,3.09.22,4.39-5.46,9.74-2.84,20.39-3.57,30.65a31.1,31.1,0,0,0,0,4q.22,8.73,0,17.45.28,13.4,0,26.79.28,14.37,0,28.75c.33,3.17-.19,6.35.08,9.52,0,10.89.13,21.77,0,32.66.12,7.65.16,15.3,0,22.94.22,4.44,0,8.89,0,13.33q.18,15.43,0,30.86c.11,13.61.2,27.21,0,40.82.2,7.7.12,15.41,0,23.12-.27,4.12,1.27,8.48-1.63,12.25-1.22-2.17-.78-4.56-.78-6.85q0-139.59.15-279.17C-108.74-1.08-107.19-12.32-103.08-23Z" transform="translate(108.99 108.91)"/><path class="cls-5" d="M358-86.32c.73,1.51-.22,3.7,2.92,4.17,2.78.42,3.54,4.15,3.89,6.32.31,1.92-3.16,1.46-5,2.09A20.25,20.25,0,0,1,353-73q-77.67,0-155.34,0c-2.39,0-5.11.84-6.75-2a1.19,1.19,0,0,0-1.73-.41c-7.56,4.75-15.92,1.61-23.88,2.32-4.44.4-8.89-.29-12.52,3.46-1.47,1.51-3.91,1.54-6-.08C143.4-72.43,139.4-73,135.11-73Q44.45-73-46.21-73c-7.59,0-15.49,1.26-21.68-4.93,5.63-4.81,11-10,17.92-13,.8-.08,1.55-.25,1.8-1.17,14.33-9.08,30.15-13.68,46.83-15.85,9.29-1.21,18.6-.93,27.92-.94q129.93,0,259.86,0a125.37,125.37,0,0,1,59,14.34,39.52,39.52,0,0,1,3.72,2.49c-1.22,3.25,1.4.43,1.79,1.13C354.09-90.56,355.52-87.6,358-86.32Z" transform="translate(108.99 108.91)"/><path class="cls-6" d="M-108.13,296.2l.2-12.22c4.28-3.77,15.37-3.71,19.3.11s5.23,4,9.24.69a9.84,9.84,0,0,1,5.91-2.3c2.5-.14,5-.1,7.5-.1q210.93,0,421.87-.1c15.14,0,30.28-1.25,45.43-.87,2.76.07,5.81-.46,7.61,2.57q.1,6.12.2,12.22c-.11,4.78-.25,9.55-2,14.1-3.31-3.94.11-8.4-.87-11.92-16.84-1.88-33.52.21-50.23.18-3.81,0-7.32.27-9.17,4.44-.82,1.85-2.78,2.24-4.66,2.42-2.49.23-5,.15-7.49.15q-198.72,0-397.44.1C-71,305.68-78.8,303-87,303.28c-1.93.08-3.27-1.31-4.59-2.68-3.27-3.37-4.62-2.59-8.41-.42-4.3,2.47-4.42,6.59-6.14,10.12C-107.89,305.75-108,301-108.13,296.2Z" transform="translate(108.99 108.91)"/><path class="cls-7" d="M-106.14,310.3c.58-3-.26-5.92-1.06-9.37,3,.72,6,1.78,6.5-2.7.21-1.81,2.37-2.33,4-2.15,2.41.25,5.54.16,6.33,2.94.73,2.55,2,2.8,4.19,3,33.45,3.69,67,1.76,100.5,1.84,108.45.26,216.9.1,325.35.09,3,0,6.36,1,6.68-4.1.14-2.22,3-2.81,5.27-2.87q21.18-.54,42.35-1c3.65-.09,7.46,2.44,10.92-.68.38,1.41,3-.54,3,2.69,0,4.14-1.66,8.15-.78,12.29a39,39,0,0,1-3.06,12.84c.87-2.89-3.84-4.34-1.88-7.75-2.26,2.19-5,1.6-7.51,1.6q-244.24,0-488.49-.12c-3.17,0-5.71,1.11-8.38,2.09-1.83.67.65,3-.87,4.15A36.34,36.34,0,0,1-106.14,310.3Z" transform="translate(108.99 108.91)"/><path class="cls-2" d="M383,363c-1.9-1.46-1.28-2.86,0-4.44,1.4-1.78,2.1-.2,3,.44C385.26,360.52,384.56,362.08,383,363Z" transform="translate(108.99 108.91)"/><path class="cls-3" d="M351-90.94a3,3,0,0,1-4,1.64,1.17,1.17,0,0,1-.67-1.59c.51-1.42,1.85-1,2.89-1.18A2,2,0,0,1,351-90.94Z" transform="translate(108.99 108.91)"/><path class="cls-3" d="M-48.17-92.1c.71.42.76,1,.15,1.47a1.16,1.16,0,0,1-1.95-.3A2.08,2.08,0,0,1-48.17-92.1Z" transform="translate(108.99 108.91)"/><path class="cls-8" d="M285.66,407.86H15.33v-.5H285.87Z" transform="translate(108.99 108.91)"/><path class="cls-2" d="M-79.78,354.13c1.66.05,2.6,1.41,3.15,2.63s-1,1.7-1.82,1.8c-1.92.22-2.23-1.66-2.83-2.85C-81.73,354.83-80.68,354.39-79.78,354.13Z" transform="translate(108.99 108.91)"/><path class="cls-2" d="M379.63,358.73c-.83-.54-2.4-.63-2-1.83a3.52,3.52,0,0,1,3.09-2.72c.89,0,1.88.59,1.59,1.41C381.87,356.89,381.28,358.36,379.63,358.73Z" transform="translate(108.99 108.91)"/><path class="cls-4" d="M398.36-28.32c-1.59-1.75-1.75-3.21-.84-4.74a3.35,3.35,0,0,1,1.68.66C400.87-30.9,399.24-29.91,398.36-28.32Z" transform="translate(108.99 108.91)"/><path class="cls-9" d="M-103-2c.42.61,1.24,1.06,1.65.55C-98.7-4.7-95.08-4-91.65-4q243.11,0,486.2.05c2.77,0,6.25-1.49,8.11,2,1.32,2.48,1.54-2.72,3.6-.23A6.79,6.79,0,0,1,408,2.24c.82,11.57,1.24,23.15,1,34.76-6.91,1.41-13.9.47-20.85.66-24.1.68-48.19,1.12-72.3,1-32.1-.19-64.2,0-96.3,0a68.67,68.67,0,0,0-9,.43c-1.76.79-3.24.19-4.6-.94-1.91-2-4.32-3.54-6.41-5.38a37.24,37.24,0,0,0-5.83-4.13,30.54,30.54,0,0,0-5.49-3.42c-2.08-.85-3.8-2.38-6-3-3-1.44-5.81-3.14-9-4.11a49.86,49.86,0,0,0-9.33-2.88c-16.23-4.14-32.46-5.27-48.69-.05-2.94.52-5.62,1.84-8.38,2.89s-5.38,2.63-8.09,3.91a31,31,0,0,0-5.11,3,53.41,53.41,0,0,0-6.32,4.57c-1.92,1.08-3.37,2.73-5.09,4.06A29.22,29.22,0,0,0,77,38.06c-1.35,1.12-2.79,1.73-4.51.86a55,55,0,0,0-7.48-.35q-65.89,0-131.8,0c-4,0-7.71.14-11,3.37-3,3-10,2.21-12.18-1-1.9-2.77-4.25-3.23-7.21-3.4-3.61-.21-7.29,1.13-10.82-.51.08-9.39-.39-18.79.9-28.16.54-4,3.94-6.78,4.06-10.85Z" transform="translate(108.99 108.91)"/><path class="cls-10" d="M-107.93,261V220c3.9-3.45,14.23-3.66,18.54-.37,5.54,4.23,5.57,4.29,11.72.64a14.41,14.41,0,0,1,7.65-1.8q49.1,0,98.21,0c2,0,4-.05,5.79,1.09,1.69,1.72,1.36,3.93,1.41,6,.15,6.54-.22,13.08.22,19.61a20,20,0,0,0,1,2.1c5.24,8.26,11.85,8.18,16.73-.24a5,5,0,0,1,1.06-1.24,5.7,5.7,0,0,1,2.42-1.05,23.81,23.81,0,0,1,5-.35q75.69-.06,151.36,0c2.63-.18,3.92,1.68,5.26,3.47s2.51,3.3,4.6,4a10.94,10.94,0,0,0,9.3-.36,8.34,8.34,0,0,0,4.13-3.71,36.6,36.6,0,0,1,3-3.32,29.66,29.66,0,0,0,4-4.9c1-1.14,1.89-2.36,2.93-3.47a71.12,71.12,0,0,1,4.91-5.5,38.42,38.42,0,0,0,3.25-4.16,29,29,0,0,1,3.31-3.7c1.47-1.24,2.89-2.55,4.88-2.94a41.81,41.81,0,0,1,8-.37q41.25,0,82.5,0c13.3,0,26.58-1.09,39.89-.94,2.83,0,5.67-.16,8.49.08,5.52.47,6.82,2,7,7.53.1,3.63-.53,7.3.43,10.91q0,12,0,24c-2.23,2-5,1.55-7.62,1.61-60.62,1.52-121.25,1-181.87,1Q77,263.7-65.44,263.54c-12.45,0-24.89-1.32-37.37-1A6.71,6.71,0,0,1-107.93,261Z" transform="translate(108.99 108.91)"/><path class="cls-11" d="M-107.93,261q258.44,2.5,516.86,0v23c-1.8-1.15-3.82-1-5.81-1-8.83,0-17.66-.12-26.48,0-149.83,2.28-299.67.34-449.51,1-2.61,0-4.43.23-6,3-2,3.56-8.62,3-10.42-.91-1.24-2.67-2.8-3.33-5.36-3.07-4.42.45-9-.95-13.3,1Z" transform="translate(108.99 108.91)"/><path class="cls-12" d="M409,117q0,20,0,40c-13.23-4.61-26.84-2.41-40.27-1.88-14.6.57-29.18.31-43.77.27a8,8,0,0,1-3.81-1,4.33,4.33,0,0,1-1.29-1.08c-1-2.46.77-3.81,2.1-5.35a18.71,18.71,0,0,0,3.08-3.33c.42-.66.88-1.31,1.3-2a5.13,5.13,0,0,0,.59-2.16,18.09,18.09,0,0,0-.08-2.33,12.14,12.14,0,0,0-.75-2.9A6.9,6.9,0,0,0,324,132.2c-4-3.1-7.93-2.51-11.87,0a11.06,11.06,0,0,0-2.45,2.83,19.3,19.3,0,0,1-2,2.3c-.7.69-1.42,1.37-2.11,2.08a25,25,0,0,0-2,2.13c-.71.95-1.27,2-2.06,2.91-1,1.06-2,2-2.91,3.17a30,30,0,0,1-3.32,4.23,8.25,8.25,0,0,1-3.26,2.16,10.63,10.63,0,0,1-1.75.35c-14.71.38-29.41.13-44.1.14a8.52,8.52,0,0,1-5.23-1.19c-1.76-2.16-1.2-4.74-1.28-7.18-.33-9.94.6-19.9-.55-29.83-.24-1.67-.26-3.28,1.18-4.51a11.08,11.08,0,0,1,4.43-.46c37.63.1,75.26.24,112.88-.07,13.79-.12,27.59-.77,41.39-1C404.06,110.28,407.76,111.54,409,117Z" transform="translate(108.99 108.91)"/><path class="cls-13" d="M409,117c-4.8-8.4-12.87-4.55-19.57-4.82-8.69-.35-17.45.49-26.14.6-38.92.51-77.85.22-116.78.21-2.13,0-4.36.43-6.26-1l-.63-.46c-1.62-2.84-.31-6.12-1.35-9a26.6,26.6,0,0,1-.61-3,25.22,25.22,0,0,1-.78-3.65,25,25,0,0,0-.76-6c-.39-1.87-1-3.7-.89-5.66A3.12,3.12,0,0,1,236.65,82c3.37-1.89,7.09-1.59,10.73-1.6,37,0,73.94.25,110.9-.14,13.78-.15,27.57-.47,41.35-.83,3.31-.09,6.74-.19,9.32,2.57Z" transform="translate(108.99 108.91)"/><path class="cls-12" d="M34.8,247c-1.79-5.79-.41-11.74-.78-17.6-.19-3.12-.06-6.27-.07-9.4-1.42-1.61-1.51-3.6-1.51-5.58,0-8.37-.19-16.75.09-25.13-.12-4.09-.15-8.18,0-12.26-.21-5.82-.15-11.64-.06-17.46.06-3.61-1.4-5.05-5-5q-49.12,0-98.26,0a8.38,8.38,0,0,0-6.15,2.67c-3.69,3.55-10.83,3.23-13.77-.7-1.74-2.34-3.74-2.9-6.36-3-3.62-.17-7.3.75-10.87-.53V120c3.75-4.69,14.63-5.12,18.73-.73,3.54,3.79,6.44,4.22,10.2,1a11.26,11.26,0,0,1,7.76-2.79q50.48-.06,101,0c2,0,4,0,5.61,1.58,1.13,1.6,1,3.45,1.06,5.26,0,.85,0,1.71,0,2.57,0,1.37,0,2.74,0,4.11s0,2.7,0,4.05c-.08,1.6,0,3.21,0,4.82s0,3.21,0,4.82c0,.81,0,1.62,0,2.43,0,1.1,0,2.19,0,3.29,0,2,.16,3.93,0,5.9.18,3.77-.08,7.52,0,11.28.07,1.44-.11,2.87,0,4.31.06,1.71-.15,3.41,0,5.12,0,2-.16,4,0,6,0,2-.13,4,0,6s-.17,4,0,6c.06,2.28-.14,4.55-.06,6.83,0,1.42,0,2.83,0,4.25,0,2-.12,4,0,5.94s-.12,4,0,6c.1,1.71-.11,3.41,0,5.12.07,2.29-.06,4.57,0,6.86.11,2-.07,4,0,6,.13,1.75-.13,3.5,0,5.25C36.34,243.25,36.72,245.46,34.8,247Z" transform="translate(108.99 108.91)"/><path class="cls-14" d="M34,189q0,15.51,0,31-52.23,0-104.44-.06c-3.15,0-5.63.58-8.06,2.89-3.56,3.4-8,3-10.78-1a6.08,6.08,0,0,0-6.3-2.82c-4.1.37-8.34-.95-12.31,1V189c4.82-4.24,15.66-3.59,19.61,1.18a5.49,5.49,0,0,0,8.6.21,9.79,9.79,0,0,1,7.64-2.93q50.21-.09,100.42,0C30.33,187.45,32.35,187.51,34,189Z" transform="translate(108.99 108.91)"/><path class="cls-13" d="M-107.95,111V82c5.8-4,14.15-3.57,19.24,1,3.48,3.1,6.39,3.33,10.13.26a12.36,12.36,0,0,1,8.28-2.79q53.85,0,107.71,0c2.5,0,5,.09,7,1.93a4.57,4.57,0,0,1,1,1.42c.43,2.23-.67,4.11-1.41,6.07-.91,1.92-1.46,4-2.18,6-.33.85-.71,1.69-1,2.54-.62,1.53-.57,3.19-1,4.76s-.62,3-1,4.42c-.59,1.56-.65,3.43-2.47,4.29-2.57,1-5.25.7-7.9.7q-48.09,0-96.2,0c-3.72,0-7.06.37-10.18,3-3.49,2.89-8.9,2.91-11.39-.18-3-3.71-6.63-3.82-10.68-3.8C-102.7,111.54-105.4,112.15-107.95,111Z" transform="translate(108.99 108.91)"/><path class="cls-15" d="M209,39.05c.76-3.31,3.46-2,5.33-2,48.38-.08,96.77.24,145.16-.24,14.55-.15,29.12-.72,43.68-.82,2,0,4-.15,5.8,1q0,9,0,18c-2.08,1.85-4.66,1.52-7.13,1.58-56.06,1.39-112.14,1-168.22,1-2.66,0-5.33,0-8,.08a5.24,5.24,0,0,1-4.93-2.52,51.2,51.2,0,0,0-3.19-4.57,31.28,31.28,0,0,0-4-5c-1.31-1.41-2.72-2.71-4-4.15C209,40.72,208.49,40,209,39.05Z" transform="translate(108.99 108.91)"/><path class="cls-16" d="M44.78,84a7.82,7.82,0,0,0-5.9-2q-55.33.09-110.67,0c-2.67,0-4.79.39-6.19,3.09-1.15,2.22-9.58,3.12-10.52,1-3.63-8-10.34-4.52-16.06-4.71a16.29,16.29,0,0,0-3.39.63V55c5.36-2.85,11-1.6,16.52-.93,1.2.15,1.83,1.28,2.54,2.23,2.71,3.62,6.31,4.26,9.62,1.21,2.72-2.51,5.71-3.11,9.13-3.11q61.35,0,122.69,0c2.15,0,4.35-.1,6.25,1.23,2,2.58.13,4.57-1,6.68-1.27,1.75-2.58,3.45-4.9,3.89a45.19,45.19,0,0,1-8.46.35q-57.15,0-114.29,0c-1.42,0-2.9-.41-4.44.42,1.71.74,3.33.36,4.9.36q55.91,0,111.79,0c2.8,0,5.69-.4,8.29,1.12,2.24,2.52.39,4.74-.53,7a45.64,45.64,0,0,0-3.23,6.63A2.74,2.74,0,0,1,44.78,84Z" transform="translate(108.99 108.91)"/><path class="cls-17" d="M-107.94,153c5.16-2,10.53-.59,15.8-.93a1.72,1.72,0,0,1,2,1.73c0,3.25,1.66,4.73,4.7,4.15,2.81-.54,7.08,2.33,8-3.17.35-2.1,2.16-1.75,3.59-1.75q52.2,0,104.41-.05c2.62,0,3.51,1,3.47,3.55C33.92,163.35,34,170.18,34,177c-2.42,2-5.35,1.53-8.13,1.53q-47.17.06-94.36,0c-3.47,0-6.83-.31-9.31,3.29-1.51,2.19-9.22,2.27-11.37.78s-1.7-3.54,1.24-6.21c-6.61,1.31-13.32,2.38-20-.41Z" transform="translate(108.99 108.91)"/><path class="cls-15" d="M59.08,57.2c-1.19-1.71-3-1.18-4.58-1.18Q-8.85,56-72.2,56c-2.67,0-4.42.4-5.93,3.19-2.07,3.87-6.26,1.28-9.48,1.73C-90,61.23-90,59.14-90,57.46c0-2.41-1.71-2.47-3.47-2.46-4.82,0-9.64,0-14.46,0q0-9,0-18c5-1.74,10.23-.76,15.35-1,1.56-.07,2.87.66,3,2.05.42,3.91,2.89,4.15,6,4,2.61-.15,5.24.44,6.43-3.07.64-1.9,2.82-2,4.74-2Q-1.22,37,70,37c1.56,0,3.52-.6,4,1.86a3,3,0,0,1-.74,1.86c-2,1.79-3.11,4.25-4.52,6.48-.71.85-1.51,1.61-2.25,2.43-1.06,1.12-1.84,2.45-2.79,3.65-1.22,1.22-2,2.87-3.38,3.92A1.36,1.36,0,0,1,59.08,57.2Z" transform="translate(108.99 108.91)"/><path class="cls-18" d="M408.93,176v28a4.75,4.75,0,0,1-3.29.9c-39.61-.22-79.22,1.35-118.84.68-3-.05-6,.38-8.82-1.11a2.83,2.83,0,0,1-1-3.79,9.62,9.62,0,0,1,2.25-3c.78-.78,1.6-1.55,2.35-2.38,1-1.08,1.76-2.38,2.7-3.53.69-.78,1.45-1.5,2.18-2.23a21.28,21.28,0,0,0,2.07-2.27,29.45,29.45,0,0,1,3.11-4c1.74-1.57,2.79-3.71,4.39-5.4a7.75,7.75,0,0,1,4.46-2.17c15.65-.63,31.3-.22,46.95-.26,18-.05,35.91-1.53,53.89-1C403.93,174.5,406.69,174,408.93,176Z" transform="translate(108.99 108.91)"/><path class="cls-19" d="M276.87,203c1.79,1.07,3.77,1.06,5.78,1.06,26.91,0,53.82.5,80.71-.25,11.58-.33,23.17-.45,34.75-.79a46.19,46.19,0,0,1,10.82,1q0,16.49,0,33c-2-3.59-.81-7.49-.84-11.21,0-3.92-2-5.67-5.37-5.67-4.79,0-9.62-.77-14.39.61-3.47,1-6.78-1-10.34-.78-38.91,2.27-77.86.52-116.79,1.08-.81-.94-.15-1.69.3-2.47a34,34,0,0,0,3.82-4.64,22.46,22.46,0,0,1,2.18-2.49,26.21,26.21,0,0,0,3.42-3.79,19.69,19.69,0,0,1,2.39-2.91,10.78,10.78,0,0,1,2.4-2A1.23,1.23,0,0,1,276.87,203Z" transform="translate(108.99 108.91)"/><path class="cls-20" d="M408.93,176c-12.44,0-24.93-.71-37.32.14-24.25,1.67-48.49.32-72.72.82-.25-2.82,2-4.4,3.21-6.49,1.78-1.88,4-3.32,5.3-5.69,1.19-1.58,2.69-2.88,4-4.35,1.07-1.09,1.85-2.4,2.8-3.58.7-.81,1.48-1.53,2.23-2.28.95-.8,1.76-1.88,3.23-1.69a31.89,31.89,0,0,0,8.82,1.16c24.07.67,48.09-1.48,72.16-1.15,3.72,0,6.42.91,8.29,4.09Q408.94,166.5,408.93,176Z" transform="translate(108.99 108.91)"/><path class="cls-16" d="M409,82a60.44,60.44,0,0,0-21.21-.26c-2.66.45-5.56-.82-8.32-.7-45.52,2.07-91.06.41-136.58,1A53.49,53.49,0,0,0,236,83c-1.29.36-1.64-.65-2.13-1.46-.75-1.79-1.29-3.66-2-5.47-.46-2.5-2.94-4.48-1.91-7.38a4.84,4.84,0,0,1,1.59-.83c2.8-.67,5.64-.46,8.47-.46,38.63,0,77.26.24,115.89-.13,15.13-.15,30.26-.92,45.4-.86,2.63,0,5.39-.38,7.62,1.6Z" transform="translate(108.99 108.91)"/><path class="cls-18" d="M-107.94,176c9.09.21,18.17-.16,27.28-.42-1.62,2-3.65,1.41-5.47,1.36-2.56-.07-3.27,1.65-3.32,3.45-.08,2.46,2.17,1.62,3.37,1.53,3.33-.27,7.85,2,8.74-4.14.2-1.42,3-.77,4.6-.77q53.35,0,106.7,0v12H-71.76c-2.84,0-5.47-.73-7,3.47-1.13,3.13-5.37,1.2-8.22,1.43-2,.16-3-1.2-3-3.15-.05-1.46-.4-2.8-2.18-2.69-5.25.31-10.61-1.09-15.77.92Z" transform="translate(108.99 108.91)"/><path class="cls-16" d="M224,57.12c1.58-1.87,3.73-1.08,5.62-1.09,43.4,0,86.81.36,130.2-.23,16.39-.22,32.79-.66,49.18-.79v9c-1.92,1.74-4.31,1.53-6.63,1.57-9.31.14-18.64-.4-27.95,0-47.9,2.25-95.83.23-143.73,1.11a11.93,11.93,0,0,1-1.69,0c-2.06-.52-2.52-2.44-3.44-4-.59-1.26-1.44-2.39-2-3.68A1.82,1.82,0,0,1,224,57.12Z" transform="translate(108.99 108.91)"/><path class="cls-21" d="M-107.95,111c5.16-2,10.52-.58,15.78-.94,1.13-.07,1.62.69,2.13,1.68,2.82,5.49,8.82,6.26,12.37,1.31,1.82-2.53,4-2,6.16-2q54.15,0,108.3,0a1.89,1.89,0,0,1,.86,1.84,37.81,37.81,0,0,0-.46,4.25,5.14,5.14,0,0,1-.82,2.8,1.14,1.14,0,0,1-1.33.2c-1.42-1.73-3.39-1.06-5.13-1.06Q-20.94,119-71.79,119c-2.81,0-4.82.31-6.5,3.2-2.12,3.64-10.2,2.46-11.7-1.43-.44-1.16-.86-2.52-2.07-2.49-5.34.16-10.94-1.89-15.89,1.75Z" transform="translate(108.99 108.91)"/><path class="cls-22" d="M229,66c1.67-1.67,3.79-.92,5.7-.93q54.71-.06,109.41,0c21.61,0,43.21-1.55,64.83-1v4c-59.54,1.24-119.08,1-178.63,1C228.64,68.53,228,67.58,229,66Z" transform="translate(108.99 108.91)"/><path class="cls-9" d="M-103-2c-2.78-2.46-2.78-2.46.08-7.88C-101.73-7-101.28-4.52-103-2Z" transform="translate(108.99 108.91)"/><path class="cls-7" d="M-102.4,290.73c.44,1.52.89,2.86-.73,3.94C-104.54,293-103.55,291.93-102.4,290.73Z" transform="translate(108.99 108.91)"/><path class="cls-7" d="M-105.86,296.65c.37.47,1,.92,1.1,1.47s-.55.72-.89.43a7.94,7.94,0,0,1-1.09-1.49Z" transform="translate(108.99 108.91)"/><path class="cls-23" d="M86.61,28.84a20.59,20.59,0,0,1,6.45-4.68,50.83,50.83,0,0,1,8.89-.68c22.56.05,45.12,0,67.68,0,6.43,0,12.88-.36,19.27.75a15.34,15.34,0,0,1,5.38,3.58c-1.35,2.81-4,2.63-6.45,2.63-13.72,0-27.43.21-41.15,0a14.94,14.94,0,0,0-5.4.5,15.89,15.89,0,0,1-6.55.06c-4.41-1.21-8.89-.29-13.33-.39-9.43-.2-18.87,0-28.31-.09C90.83,30.5,88.39,30.87,86.61,28.84Z" transform="translate(108.99 108.91)"/><path class="cls-24" d="M188.9,24.27c-1.29,1.12-2.85.71-4.31.71Q141,25,97.32,25c-1.45,0-3,.43-4.26-.82l5-3c8.57-1.37,17.21-.55,25.82-.64,16.92-.18,33.84.17,50.76-.2,2.85-.06,5.46,1.35,8.3.8Z" transform="translate(108.99 108.91)"/><path class="cls-25" d="M183,21.14c-1.22,1.27-2.8.84-4.25.84q-38.19,0-76.37,0c-1.45,0-3,.43-4.26-.8a31.72,31.72,0,0,1,8-4c19.31.68,38.63.23,58,.25,3.31,0,6.66.39,10-.28C177.32,17.68,179.91,19.91,183,21.14Z" transform="translate(108.99 108.91)"/><path class="cls-26" d="M114,14.15c17-5.89,33.94-4.78,50.92,0-.25,3-2.63,3.22-4.75,3.24q-20.72.24-41.44,0C116.65,17.38,114.27,17.18,114,14.15Z" transform="translate(108.99 108.91)"/><path class="cls-27" d="M114,14.15c1,2,2.92,1.85,4.76,1.85h41.38c1.84,0,3.73.19,4.78-1.84a32.1,32.1,0,0,1,9,3c-1,2-2.93,1.85-4.77,1.85H110.85c-1.84,0-3.73.2-4.8-1.81A27.55,27.55,0,0,1,114,14.15Z" transform="translate(108.99 108.91)"/><path class="cls-28" d="M140.94,30c5.35-2.27,10.94-.47,16.4-.79,10.21-.59,20.47-.18,30.72-.16,2.16,0,4.3.06,6.22-1.16a14.55,14.55,0,0,1,5.78,4.07c-.28,2.66-2.51,2.45-4.14,2.47-11.76.16-23.53.34-35.28,0-6.46-1.15-13.16-1-19.34-3.69Z" transform="translate(108.99 108.91)"/><path class="cls-29" d="M159.83,33.09q18,0,36.1-.1c1.45,0,3,.37,4.13-1.07,2.19,1.44,4.45,2.79,6,5-.76,3.27-3.56,2.52-5.62,2.55-8.76.17-17.53.25-26.28-.12C169.14,37.81,163.54,37.61,159.83,33.09Z" transform="translate(108.99 108.91)"/><path class="cls-28" d="M86.61,28.84c14.4.06,28.8.09,43.2.19,1.76,0,3.69-.63,5.21.89A3.25,3.25,0,0,1,134,31.16c-6.09,1.46-12.15,3.1-18.43,3.71-9-.72-17.91-.15-26.86-.38-2.42-.06-5,.5-7-1.63C83.06,31.22,84.47,29.58,86.61,28.84Z" transform="translate(108.99 108.91)"/><path class="cls-30" d="M81.65,32.86,109,33c2.42,0,4.89-.22,7.06,1.25-1.87,3.93-5.66,4.37-9.3,5.1-8.05.37-16.1.28-24.15.13-2,0-4.82.72-5.62-2.49A10.16,10.16,0,0,1,81.65,32.86Z" transform="translate(108.99 108.91)"/><path class="cls-31" d="M172.91,38c9.33,0,18.66,0,28-.07,1.74,0,3.71.66,5.15-1L209,39.05l1.08,1.85c-.72,3.31-3.54,2.53-5.59,2.57-7.44.15-14.89.29-22.32-.11C178.52,42.57,174.59,42.26,172.91,38Z" transform="translate(108.99 108.91)"/><path class="cls-31" d="M77,37c1.64,1.73,3.76.95,5.66,1,8.48.1,17,.06,25.44.08-1.79,4-5.31,5.26-9.3,5.74-7.1-.55-14.22,0-21.3-.39-1.92-.12-5,.56-4.46-3.29l1-1.22Z" transform="translate(108.99 108.91)"/><path class="cls-10" d="M214.69,245c-1.91,1.47-4.15,1-6.28,1q-76.66,0-153.35,0a2.76,2.76,0,0,1-.54-1.84c.16-7.16.1-14.32.06-21.48,0-4.17,1.8-6.19,5.94-6.23,1.33,0,2.66-.06,4-.06H183.43a37.27,37.27,0,0,1,6,.3,5.74,5.74,0,0,1,3.69,1.93,54,54,0,0,0,4.37,4.71,32.91,32.91,0,0,1,4.15,5,31.59,31.59,0,0,0,3,3.2,32.36,32.36,0,0,1,4.07,4.91c1.52,1.84,3.31,3.41,5,5.11C214.31,242.64,215.91,243.41,214.69,245Z" transform="translate(108.99 108.91)"/><path class="cls-32" d="M214.69,245,213,242.1c-1.16-2.7.68-3.61,2.68-4.13a9.73,9.73,0,0,0,5.4-3.25c2.95-5.17,8.2-4.79,12.7-4.26,4.06.48,5.1,4.74,5.56,8.41.25,2,2,3.93.72,6.14l-2.86,3.3c-6.38-1.23-12.74-1.7-19.07.28Z" transform="translate(108.99 108.91)"/><path class="cls-33" d="M222,236c-1.9,1.6-3.53,3.52-6.52,3.17-1.68-.2-2.37,1.35-2.53,2.93a19.26,19.26,0,0,1-4.88-5.3c-1-2.94,1.41-2.71,3-3,7.76-1.21,7.77-1.18,7.17-9a16.69,16.69,0,0,1,0-4.94,2.65,2.65,0,0,1,.9-1.3,4,4,0,0,1,1.59-.4c5.72.81,11.54-.23,17.24.84,3.26,1.61,1.8,4.64,2,7.09s-.08,4.4,3.58,4.45,3.78,3.28,3.48,6.19q-1.44,1.71-2.87,3.44c-3.61-1.75-5.46-5.17-7.41-8.32s-3.85-6.19-8.38-5.29-5.42,4.26-5.85,8A2.44,2.44,0,0,1,222,236Z" transform="translate(108.99 108.91)"/><path class="cls-34" d="M54,247c-.53,5.11-4.26,7-8.52,7.5-4.47.49-8-1.61-9.62-6.13-.58-1.9-.71-3.84,1.7-4.35a33.65,33.65,0,0,1,14.2,0A3,3,0,0,1,54,247Z" transform="translate(108.99 108.91)"/><path class="cls-35" d="M222,236c.6-3.28-1.71-7.27,2.94-9.55,5.6-2.74,9.08-1.71,12.2,3.69,2,3.53,4.63,6.73,7,10.08C243,242,241.87,243.84,240,245c-.24-1.95-2.36-3-2.08-5.39a7.9,7.9,0,0,0-4.28-8.27C230.67,229.88,223.65,233.15,222,236Z" transform="translate(108.99 108.91)"/><path class="cls-36" d="M54,247c-2.11-1.66-14.8-2.95-17-1.7-1.19.69-1,2-1.17,3.07-.35-.45-.71-.9-1.06-1.36.07-2,.15-4,.22-6a3.56,3.56,0,0,1,2.6-2.06c5.51-.45,11.05-1.43,16.45.73,1.64,2.45.64,4.9,0,7.34Z" transform="translate(108.99 108.91)"/><path class="cls-37" d="M262.2,219.08c-.33.64-.66,1.29-1,1.93l-3.27,2.8a34,34,0,0,1-8.3.51c-6.24-.49-8.7-4.43-6.57-10.51,4.57,2.54,9.51,3.09,14.64,2.91C259.51,216.66,261.37,217,262.2,219.08Z" transform="translate(108.99 108.91)"/><path class="cls-38" d="M218.08,248.59c-.1-1.55.41-2.58,2.15-2.57,4.92,0,9.85,0,14.77,0,1.42,0,1.92,1,2.15,2.25a7.24,7.24,0,0,1-4.09,4c-3.73-2-7.41-1.39-11.07.21A6,6,0,0,1,218.08,248.59Z" transform="translate(108.99 108.91)"/><path class="cls-39" d="M247,236.78c-1.8-1.57,0-7.54-5.76-4.56-.72.37-2.87-1.56-2.51-4A62.9,62.9,0,0,0,239,220a11.24,11.24,0,0,1,.44-6.44,2.08,2.08,0,0,1,1.2-.8,2,2,0,0,1,1.13.89,5.54,5.54,0,0,1,.52,2.86,13.41,13.41,0,0,0-.21,3.9c0,7.07,0,7.05,6.93,8.41,1.3.25,3.16,0,3,2.23Z" transform="translate(108.99 108.91)"/><path class="cls-40" d="M252,231.05c-1.09-1.44-2.68-1-4.12-1-6.07-.29-7.68-1.95-7-7.9.23-2-.78-4.36,1.1-6.11,1.05,1.28.33,2.87.76,4.31.79,2.66,1.82,4.11,5.12,4.08,2.48,0,6.17-1.15,7.32,2.92Z" transform="translate(108.99 108.91)"/><path class="cls-41" d="M255.2,227.31c-2.48-2.1-5.63-2.09-8.34-1.58-4,.74-5.22-.48-4.89-4.25.16-1.82,0-3.65,0-5.48-.33-.67-.66-1.34-1-2a1.37,1.37,0,0,1,2,0c1.13,8.71,1.38,8.91,10.21,9,1.59,0,3.32-.51,4.72.79Z" transform="translate(108.99 108.91)"/><path class="cls-42" d="M222,252.55c1.84-5.4,6.25-1.44,9.3-2.48,1.81-.61,2.3.63,1.77,2.27C229.42,255.2,225.71,254.25,222,252.55Z" transform="translate(108.99 108.91)"/><path class="cls-43" d="M54.05,247l0-7a6.79,6.79,0,0,1-1.39-4.95c-.08-2-.06-4.08,0-6.12s-.21-4.28,1.31-6.07a1.12,1.12,0,0,1,1.5.63c0,7.16.46,14.32-.27,21.46,0,.35,0,.7-.08,1.05Z" transform="translate(108.99 108.91)"/><path class="cls-10" d="M-83.55,267.09c-2.11-.47-5.61.86-5.64-1.63,0-2.91,3.39-.85,5.18-1.45a1,1,0,0,1,.48,0c1.76.4,5-1,5,1.35C-78.56,268.51-82,266.24-83.55,267.09Z" transform="translate(108.99 108.91)"/><path class="cls-17" d="M241,153l51.15.09c1,1.88-.42,3-1.39,4.19a42.87,42.87,0,0,0-3.16,3.3,35.64,35.64,0,0,1-3.22,4.12,43.3,43.3,0,0,0-6.21,7.29c-2.49,2.31-3.89,6-7.95,6.34-8.15.54-16.31.35-24.46.16-5-.12-6.05-1.36-6.17-6.41-.12-4.82-.08-9.65,0-14.47C239.65,156,239.61,154.24,241,153Z" transform="translate(108.99 108.91)"/><path class="cls-44" d="M241,153c0,6.61.12,13.22-.1,19.83-.1,3.28,1.09,4.29,4.3,4.23,8.92-.17,17.84-.05,26.77-.05a1.32,1.32,0,0,1,.27,1.25c-1,1.79-2.61,3.05-3.6,4.81a30.56,30.56,0,0,1-3,3.31,15.92,15.92,0,0,0-2.8,3.22,17.41,17.41,0,0,1-2.33,2.87c-.71.73-1.44,1.45-2.15,2.19a16.82,16.82,0,0,0-2.66,3.29,10.5,10.5,0,0,1-1.15,1.42c-.7.72-1.42,1.41-2.11,2.13a22,22,0,0,0-2,2.21,26.05,26.05,0,0,1-3,3.92,23.71,23.71,0,0,0-3.72,4.34,3.82,3.82,0,0,1-1.5,1.26,1,1,0,0,1-1.2-.14,3.14,3.14,0,0,0-.89-.22l-.6-.51c-.84-1.44-.76-3-.83-4.61-.06-1.32,0-2.65,0-4s0-2.73,0-4.1c-.09-2.54-.07-5.07,0-7.61-.05-2.28-.08-4.55,0-6.83,0-1.69-.08-3.39,0-5.09,0-1.41-.05-2.82,0-4.23-.07-2-.05-3.95,0-5.92s-.06-4,0-5.94c0-2.24-.07-4.49,0-6.73,0-1.64,0-3.28,0-4.92,0-1.07,0-2.14,0-3.21s0-2.09,0-3.14,0-2.08,0-3.11c0-1.3,0-2.59,0-3.88s0-2.58,0-3.86c0-1,0-2,0-3.07s0-2,0-3,0-2,0-3,0-2,0-3,0-2,0-3a9,9,0,0,1,.44-3,2.15,2.15,0,0,1,1-1.1c1.61,3.13.7,6.48.75,9.72C241.11,134.81,241,143.9,241,153Z" transform="translate(108.99 108.91)"/><path class="cls-45" d="M323.12,148l-3.33,4c-4.07,2.63-8.63,1.17-13,1.46a48,48,0,0,1-7.86,0c-1.67-.16-3.82.09-4.06-2.52l3.14-3.78c7.49-1.16,15-.51,22.52-.36A3.37,3.37,0,0,1,323.12,148Z" transform="translate(108.99 108.91)"/><path class="cls-46" d="M240.2,116c-.08.33-.17.67-.25,1-1.76,1.6-3.94,1.44-6.07,1.46-4.71.05-9.44-.16-14.14.53a7.31,7.31,0,0,1,0-8c6.75-.21,13.58-1.81,20.16,1.09l.28-.08Z" transform="translate(108.99 108.91)"/><path class="cls-47" d="M323.12,148c-6.79,0-13.58,0-20.36-.06-1.6,0-3.35.54-4.71-.88l2.86-3.25c6.93-.5,13.87-.18,20.8-.2,1.49,0,3,.07,4.1,1.34A6.81,6.81,0,0,1,323.12,148Z" transform="translate(108.99 108.91)"/><path class="cls-48" d="M294.91,150.88c2.61,2.21,5.7.94,8.55,1.06,5.44.21,10.89.06,16.33.05a2.28,2.28,0,0,1-.12.9L317.06,155c-7.24,2.61-14.7,1.2-22.07,1-1.51,0-2.95-.93-2-3Z" transform="translate(108.99 108.91)"/><path class="cls-29" d="M327.85,141a2.1,2.1,0,0,1-.84,2c-7.36,2-14.85.69-22.28.79-1.29,0-2.69-.74-1.67-2.63L305,139c6.25-.79,12.52-.31,18.78-.31A4,4,0,0,1,327.85,141Z" transform="translate(108.99 108.91)"/><path class="cls-49" d="M306.91,136.88l1.69-2a27.64,27.64,0,0,1,18.48.14,3.75,3.75,0,0,1,.9,3c-6.54,2-13.19.85-19.81.65C307.27,138.62,306.84,137.83,306.91,136.88Z" transform="translate(108.99 108.91)"/><path class="cls-50" d="M293,153c.49,2.74,2.69,1.91,4.33,1.93,6.57.08,13.15.05,19.72.06l-1.83,2.07c-8.49,2.21-17,2.72-25.44-.16l2.4-3.85Z" transform="translate(108.99 108.91)"/><path class="cls-51" d="M303.06,141.17c.46,2.51,2.46,1.79,4,1.8,6.66.07,13.31,0,20,0l-1.2,2c-6.78,0-13.55,0-20.33,0-1.58,0-3.36.51-4.57-1.13Z" transform="translate(108.99 108.91)"/><path class="cls-52" d="M311,132c4.82-4.36,9.47-4.45,14.19-.27.15.94-.19,1.73-1.11,1.88a36.41,36.41,0,0,1-12.19,0C311.2,133.43,311,132.7,311,132Z" transform="translate(108.99 108.91)"/><path class="cls-53" d="M306.91,136.88c4,2.41,8.41.67,12.6,1.07,2.8.27,5.65.05,8.47.05,0,1-.08,2-.13,3-5.46-2-11.15-.43-16.7-1-2.06-.2-4.33.81-6.15-1Z" transform="translate(108.99 108.91)"/><path class="cls-54" d="M311,132c4.76,1.53,9.5,1.91,14.19-.26,1.14.8,2,1.74,1.9,3.28l-18.47-.14A5.66,5.66,0,0,1,311,132Z" transform="translate(108.99 108.91)"/><path class="cls-55" d="M237.11,90c1.38,1.86,1,4,.84,6-2.54,2.13-5.6,1.37-8.48,1.44-3.42.09-6.85,0-10.27.22C216,96,216.11,93.33,217,90.42,223.63,87.2,230.35,87.76,237.11,90Z" transform="translate(108.99 108.91)"/><path class="cls-56" d="M237.11,90c-6.63.6-13.37-1.08-19.91,1-2.13-1.3-2.49-3.15-1.7-5.38,1.74-1.94,4.05-1.11,6.09-1,4.78.19,9.6-.69,14.35.43A8.49,8.49,0,0,1,237.11,90Z" transform="translate(108.99 108.91)"/><path class="cls-57" d="M235.94,85c-6,2-12.11.75-18.18.74-.65,0-1.26-.23-1.79.32-2.25-.17-2.25-2-2.64-3.56a2,2,0,0,1,1.18-2c6.78.24,13.58-.41,20.34.58L236,83C236,83.68,236,84.35,235.94,85Z" transform="translate(108.99 108.91)"/><path class="cls-58" d="M239.92,112c-6.58-.6-13.29,1.16-19.79-1a1.63,1.63,0,0,1-.15-2.26c3.4-2,7.14-.82,10.73-1.15,2.11-.2,4.32.43,6.33-.64a5.65,5.65,0,0,0,.8-2.65,6.48,6.48,0,0,1,.34-1.38,2.44,2.44,0,0,1,.91-1C240.77,105.14,239.76,108.63,239.92,112Z" transform="translate(108.99 108.91)"/><path class="cls-59" d="M218.89,97c6.26-2.16,12.72-.5,19.06-1,.32,1,.64,2,1,3-6.45,2.54-13,1.59-19.55.58A1.8,1.8,0,0,1,218.89,97Z" transform="translate(108.99 108.91)"/><path class="cls-60" d="M219.1,99h19.82c.05,1,.11,1.92.17,2.88l-.15,1.09a96.29,96.29,0,0,0-15.09-.55c-1.9,0-4,.57-5-1.89A1.55,1.55,0,0,1,219.1,99Z" transform="translate(108.99 108.91)"/><path class="cls-43" d="M35,223v-5c0-4.61,2.84-5.79,6.85-5.57,1.65.09,3.32,0,5,0,8.3.1,9.25,1.29,7.55,9.45C48.09,224.85,41.53,223.54,35,223Z" transform="translate(108.99 108.91)"/><path class="cls-61" d="M35,202v-7c.35-3.2,2.23-4.51,5.35-4.47,2.15,0,4.31,0,6.47,0,7.38.07,7.43.11,9.21,7.41.38,4.29,1.25,8.61-.62,12.79-2.56,1.18-2.09-1.16-2.67-2.28a36.21,36.21,0,0,1-.19-5c.09-2.55-1.7-2.9-3.61-3C44.24,200.23,39.5,200,35,202Z" transform="translate(108.99 108.91)"/><path class="cls-62" d="M54.81,198c-2-1.48.95-6.49-3.43-5.84C45.92,193,39.52,188.78,35,195v-6c.06-4.62,2.83-5.79,6.87-5.53,2,.13,4,0,6,0,6.07.14,6.44.44,8.15,6.44C56.37,192.72,57.22,195.61,54.81,198Z" transform="translate(108.99 108.91)"/><path class="cls-63" d="M35,168q0-6,0-12c5.38-1.24,10.84-.7,16.22-.23,3.89.33,4.58,2.5,3.3,8-1.93,2.08-4.51,1.65-6.92,1.67C43.27,165.47,38.84,165.09,35,168Z" transform="translate(108.99 108.91)"/><path class="cls-64" d="M35,223c6.23-2.12,12.66-.46,19-1q.39.33.27.66c-.09.23-.17.34-.25.34,0,2,0,4,0,6-6.2,2.67-12.6,1.54-19,1Z" transform="translate(108.99 108.91)"/><path class="cls-65" d="M54,223c0-.33,0-.67,0-1a17.21,17.21,0,0,1,0-2.49c.69-4.35-1-6.17-5.47-5.56a26.66,26.66,0,0,1-7,0c-3.44-.46-5.57.77-6.56,4.05v-6c0-4.61,2.82-5.87,6.85-5.52S50.22,205.37,54,208c0,1.06-.16,2.19.8,3,3.31,4,.37,8,0,12Z" transform="translate(108.99 108.91)"/><path class="cls-66" d="M35.05,135v-4a57.42,57.42,0,0,1,18.5.27c1.41.81,1.78,2.26,2.3,3.64a19.76,19.76,0,0,1,.54,5.09c-.17,2,.21,4-1,5.81a1.32,1.32,0,0,1-1.56.23A5.18,5.18,0,0,1,52.64,143c-.2-2.77-2-3.48-4.42-3.51-2.63,0-5.26-.08-7.89,0C37.25,139.44,35.32,138.29,35.05,135Z" transform="translate(108.99 108.91)"/><path class="cls-67" d="M35,168c1-3.3,3.11-4.33,6.53-4.05,4.12.34,8.28.08,12.43.08,1.54,1.41,1.28,3.45,1.85,5.2a3.29,3.29,0,0,1-.92,3C48.31,171,41.68,171.29,35,172Z" transform="translate(108.99 108.91)"/><path class="cls-68" d="M35,230c6.23-2.12,12.66-.46,19-1v6c-6.2,2.68-12.6,1.54-19,1Z" transform="translate(108.99 108.91)"/><path class="cls-69" d="M54.85,169c-1.42-1.47-.64-3.32-.85-5,0-7,0-6.86-6.79-7.05-4.06-.11-8.24,1-12.16-.94v-6c6.2,1.27,12.62-.49,18.76,1.43,1.27.95,1.68,2.39,2.16,3.79a48.43,48.43,0,0,1,.46,9.7C56.23,166.43,56.27,168,54.85,169Z" transform="translate(108.99 108.91)"/><path class="cls-70" d="M54.81,190c-.38-4.74-3.32-5.58-7.39-5a22.14,22.14,0,0,1-5.92,0c-3.43-.51-5.49.8-6.48,4v-6c.31-3.17,2.14-4.46,5.23-4.45,3.27,0,6.54-.07,9.82,0,2.69.09,4.76,1.07,5.66,3.81a10.69,10.69,0,0,1,.2,6.26A2.77,2.77,0,0,1,54.81,190Z" transform="translate(108.99 108.91)"/><path class="cls-71" d="M54.82,183c-.9-2.18-2.27-3.3-4.88-3.07a50.56,50.56,0,0,1-9.45,0c-2.75-.28-4.31.84-5.47,3q0-3,0-6a7.56,7.56,0,0,1,.63-1.34c3.63-4.2,17.42-2.74,20.19,2.1C56.28,179.65,56.55,181.52,54.82,183Z" transform="translate(108.99 108.91)"/><path class="cls-72" d="M54.82,178c-.91-2.09-2.19-3.29-4.79-3.07a77.11,77.11,0,0,1-10.31,0A5.4,5.4,0,0,0,35,177c0-1.67,0-3.33,0-5,4.07-3.93,9.09-1.28,13.64-1.92,2.2-.31,4.71-.62,6.15,1.94Q57.62,175,54.82,178Z" transform="translate(108.99 108.91)"/><path class="cls-73" d="M54,208c-4.15,0-8.33.26-12.45-.08-3.44-.29-5.54.8-6.53,4.07v-6c.42-3.13,2.22-4.68,5.37-4.46,4.55.31,9.32-1.28,13.6,1.47Z" transform="translate(108.99 108.91)"/><path class="cls-74" d="M35.05,135c1.12,2.19,2.65,3.33,5.36,3,2.91-.31,5.91.19,8.82-.13,4.1-.46,5.28,1.39,4.77,5.06-5.19,2.74-10.68,1.32-16.06,1.1-2.47-.1-2.21-2.5-2.89-4.07Z" transform="translate(108.99 108.91)"/><path class="cls-75" d="M35,236c6.23-2.12,12.66-.46,19-1,0,1.67,0,3.33,0,5-6.32.53-12.75-1.14-19,1Z" transform="translate(108.99 108.91)"/><path class="cls-76" d="M54,203c-4.49,0-9,.22-13.48-.08A5.11,5.11,0,0,0,35,206v-4c1.13-2.17,2.64-3.33,5.37-3.06a60.62,60.62,0,0,0,9.81,0C53.33,198.75,54.35,200.13,54,203Z" transform="translate(108.99 108.91)"/><path class="cls-77" d="M54.86,155c-1-.79-.83-1.93-.87-3-3.94-3-8.5-1.05-12.76-1.54-2.61-.3-5.37,0-6.18-3.44v-2c6.36-.44,12.76-1.69,19,1l.83,0A6.92,6.92,0,0,1,54.86,155Z" transform="translate(108.99 108.91)"/><path class="cls-78" d="M35.09,127V125c.3-2.72.6-4.41,4.54-3.66a28.61,28.61,0,0,0,14.53-.57,1.38,1.38,0,0,1,1.38.69,4.48,4.48,0,0,1-.34,4.75c-6.06,2.3-12.42.65-18.6,1.35A2.46,2.46,0,0,1,35.09,127Z" transform="translate(108.99 108.91)"/><path class="cls-79" d="M54,146c-6.31-.51-12.73,1.14-19-1v-5c1.12,2.28,2.77,3.22,5.48,3.05,4.47-.29,9-.08,13.47-.08C54,144,54,145,54,146Z" transform="translate(108.99 108.91)"/><path class="cls-80" d="M35.09,127H36c4.73,1.09,9.55.11,14.29.64,2.42.27,5.39.45,3.7,4.36-6.3-.53-12.72,1.13-18.94-1C35.07,129.69,35.08,128.35,35.09,127Z" transform="translate(108.99 108.91)"/><path class="cls-81" d="M54.94,121c-4.86,4.2-10.68,1.84-15.91,1.66-2.71-.09-3,.91-3.93,2.32,0-1.63,0-3.25-.07-4.87a5,5,0,0,1,.85-.13c5.83-2.62,11.83-1.52,17.8-.78A1.49,1.49,0,0,1,54.94,121Z" transform="translate(108.99 108.91)"/><path class="cls-82" d="M35.05,147c2.16,3,5.36,1.8,8.19,1.95,2.63.14,5.28.1,7.92,0,2.19-.08,3,1,2.83,3-4.58,0-9.17-.09-13.76,0-2.09.06-3.86-.27-5.18-2Z" transform="translate(108.99 108.91)"/><path class="cls-55" d="M41,96a11.15,11.15,0,0,1,2-6c6.91-2.2,13.77-2.6,20.54.57,1,3,0,5.3-2.67,6.89-5.46.11-10.93,0-16.4,0C43.21,97.41,41.3,98.33,41,96Z" transform="translate(108.99 108.91)"/><path class="cls-83" d="M63.1,91.21C56.51,88.72,49.65,90.6,43,90c.35-1.79.65-3.6,2-5,6.85-.89,13.73-.29,20.6-.34C67.71,87.91,66,89.77,63.1,91.21Z" transform="translate(108.99 108.91)"/><path class="cls-57" d="M66,85A46,46,0,0,1,44.91,85a5.05,5.05,0,0,0-.13-1c.41-.67.83-1.34,1.25-2a2.66,2.66,0,0,1,2.43-1.48c5.16,0,10.32-.13,15.47.18a4,4,0,0,1,3.45,1.7C67.64,83.62,67.91,84.86,66,85Z" transform="translate(108.99 108.91)"/><path class="cls-84" d="M38,107c.08-1.4-.26-2.9,1-4,6.66-.11,13.37-1.45,20,.68,1.34,1.81.5,3.33-.61,4.83-6.45,2.14-13.07.68-19.62.76C37.53,109.24,37.32,108,38,107Z" transform="translate(108.99 108.91)"/><path class="cls-85" d="M38,107c.21.43.41,1.24.61,1.23,6.42,0,12.84-.12,19.26-.2,1.42,2,.38,3.41-1.18,4.67a59,59,0,0,1-19.76.33l-.12-2C37.23,109.67,36.66,108,38,107Z" transform="translate(108.99 108.91)"/><path class="cls-86" d="M41,96c6.65.73,13.44-1.22,20,1,1,1.68.17,2.68-1.3,3.44-6.49-.19-13,.07-19.47-.14A1.42,1.42,0,0,1,40,98.06Z" transform="translate(108.99 108.91)"/><path class="cls-87" d="M40,98.06l0,1.9c4.71.14,9.42,0,14.13.05,1.78,0,3.64-.2,4.92,1.49a2,2,0,0,1-.22,2.49c-6.12.09-12.24.13-18.35.31-1.19,0-1.39-.5-1.57-1.35C39.17,101.28,38.57,99.45,40,98.06Z" transform="translate(108.99 108.91)"/><path class="cls-88" d="M180.66,42.18c8.1-.06,16.2-.09,24.31-.21,1.73,0,3.69.65,5.1-1.07A12.52,12.52,0,0,1,214,45c.63,3.81-2.43,3.34-4.4,3.39-6.77.19-13.55.24-20.33,0C185.38,47.74,182.14,46.18,180.66,42.18Z" transform="translate(108.99 108.91)"/><path class="cls-45" d="M218.08,49.85a9.36,9.36,0,0,1,3,4.06c.14,1.89-1.39,2.25-2.6,2.3-7.41.25-14.85,1.21-22.2-.7-2-1.56-5.46-2.22-3.84-6.07C201,48.12,209.57,47.63,218.08,49.85Z" transform="translate(108.99 108.91)"/><path class="cls-89" d="M195.71,54.1c8.46,1.23,16.92,1.83,25.36-.19L224,57.12c.12.6.24,1.2.35,1.79-1.18,1.42-2.85,1.58-4.47,1.54-6.35-.13-12.74.81-19-.71a14.9,14.9,0,0,1-4.92-3.3A2.25,2.25,0,0,1,195.71,54.1Z" transform="translate(108.99 108.91)"/><path class="cls-90" d="M218.08,49.85l-26.44.33c-2.55.56-3.63-.72-3.86-3.08,7.29,0,14.59,0,21.88-.13,1.66,0,3.87.79,4.35-2C216,46.12,217,48,218.08,49.85Z" transform="translate(108.99 108.91)"/><path class="cls-22" d="M51.09,70.22c-1.51-2-3.69-1.18-5.57-1.19q-60.45,0-120.88.09c-1.91,0-2.67-.07-2.69-2.16s1-2.07,2.77-2.06q64.68.15,129.37.12a1.88,1.88,0,0,1,.44,1.84,10.37,10.37,0,0,1-2.21,3.24A1.31,1.31,0,0,1,51.09,70.22Z" transform="translate(108.99 108.91)"/><path class="cls-91" d="M67,83c-2.67-2.09-5.76-.81-8.65-1C54.26,81.83,50.14,82,46,82a13.43,13.43,0,0,1,2.86-6c6.83-2.78,13.85-1.37,20.82-1,3.82,3.26-.07,5.38-1.17,7.91A1.24,1.24,0,0,1,67,83Z" transform="translate(108.99 108.91)"/><path class="cls-92" d="M59.08,57.2,60,57c7.33,1.38,14.82-.29,22.14,1.23,2.66,2.84-.55,3.86-1.71,5.53a4.27,4.27,0,0,1-2.49.91c-5.39-.21-10.79,0-16.17-.22-1.89-.09-4.51.58-4.89-2.6Z" transform="translate(108.99 108.91)"/><path class="cls-93" d="M56.86,61.8c2.36,2.3,5.29.85,7.94,1.17,4.66.57,9.48-1,14,1,.57,2-.93,2.7-2.23,3.52-7.67,1.26-15.34,2.32-22.9-.59.13-.63.26-1.27.38-1.9C55,64,55.94,62.87,56.86,61.8Z" transform="translate(108.99 108.91)"/><path class="cls-94" d="M70.91,76l-22,0c.73-1.91,1.46-3.83,2.2-5.74.29-.1.59-.19.89-.27,6.8,1.4,13.83-.44,20.61,1.42C74.65,73.86,73.11,75.05,70.91,76Z" transform="translate(108.99 108.91)"/><path class="cls-47" d="M73,40.1C73.44,42.58,75.4,42,76.94,42c5.8.05,11.6,0,17.4,0,2,0,4,0,5.78,1-.49,3.71-3.51,4.35-6.34,5.23-7.2.45-14.4.15-21.6.18-1.64,0-3.29-.13-4.48-1.54C69.26,44.47,70,41.41,73,40.1Z" transform="translate(108.99 108.91)"/><path class="cls-45" d="M62.94,52.86c.81-1.45,1.46-3,3-3.92,8.16-.47,16.31-1.08,24.44.36,1.55,4.76-2.23,5.52-5.19,6.91a119.26,119.26,0,0,1-17.93.2C65.26,56.33,62.23,56.66,62.94,52.86Z" transform="translate(108.99 108.91)"/><path class="cls-95" d="M62.94,52.86c.4,2.69,2.5,2.11,4.2,2.13,6.4.07,12.79.09,19.19.13a2.44,2.44,0,0,1,0,1.34C85.57,57.77,85.19,59.61,83,59c-6.24,0-12.48,0-18.72,0-1.67,0-3.83.71-4.27-2A9.08,9.08,0,0,1,62.94,52.86Z" transform="translate(108.99 108.91)"/><path class="cls-90" d="M91.32,50.15c-6.75,0-13.51-.06-20.26-.18-1.73,0-3.67.65-5.1-1l1.74-2L95.05,47C95.1,49.6,93.93,50.74,91.32,50.15Z" transform="translate(108.99 108.91)"/><path class="cls-96" d="M271.89,178c.05-.32.09-.64.12-1l5.81-6.07c8.38-2.32,16.76-2.66,25.12.05l-4.05,6-2.8,2.19c-6.71.78-13.44.33-20.16.29A5,5,0,0,1,271.89,178Z" transform="translate(108.99 108.91)"/><path class="cls-97" d="M271.89,178c6.56,0,13.12,0,19.68,0,1.57,0,3.34-.5,4.52,1.15-1.06,1.85-2,3.79-4,4.86-7.23,2.82-14.69,1.25-22.06,1.07a2,2,0,0,1-2.12-2.25C268.45,180.58,270.13,179.26,271.89,178Z" transform="translate(108.99 108.91)"/><path class="cls-98" d="M254.76,197.9a7.32,7.32,0,0,1,3.13-4c6.78-.84,13.59-.32,20.38-.28,1.54,0,3.46.05,3.73,2.36l-1.85,2.05C271.67,200,263.21,200.57,254.76,197.9Z" transform="translate(108.99 108.91)"/><path class="cls-99" d="M267.89,182.84c2.38,2.24,5.31,1,8,1.1,5.39.21,10.8.07,16.21.08L289,187.93c-6.68.93-13.38.37-20.07.34-1.68,0-3.25-.51-4-2.31Z" transform="translate(108.99 108.91)"/><path class="cls-100" d="M282,196c-3.17-2-6.69-.61-10-1-4.68-.51-9.52,1-14.08-1.08l2-2c8.44-2.13,16.88-2.55,25.3.11C284.28,193.5,283.67,195.17,282,196Z" transform="translate(108.99 108.91)"/><path class="cls-101" d="M285.17,192.05l-25.3-.11,2.25-2.93c2.36-1.87,5.11-.92,7.69-1q6.69-.15,13.4,0c1.51,0,3.48-.47,3.82,2Z" transform="translate(108.99 108.91)"/><path class="cls-102" d="M287,190c-3.34-2.18-7-.77-10.56-1-4.77-.27-9.57-.06-14.35-.06a6.53,6.53,0,0,1,2.8-3c4.21,2,8.71.57,13,1.06,3.66.41,7.48-1.09,11,.91Z" transform="translate(108.99 108.91)"/><path class="cls-103" d="M252,201l1.91-2.19c6.44.44,12.89.06,19.33.23,1.75,0,3.68-.49,5.14,1.07-.5,1-1,1.9-1.48,2.85-.28,0-.56.06-.84.1-6.48.69-13,.27-19.48.27C254.7,203.32,252.84,203.05,252,201Z" transform="translate(108.99 108.91)"/><path class="cls-104" d="M278.35,200.1c-6.47,0-12.93,0-19.4-.13-1.74,0-3.71.65-5.07-1.17l.88-.9,25.39.15Z" transform="translate(108.99 108.91)"/><path class="cls-105" d="M241,213.09a1.26,1.26,0,0,1,.76-.18c7.21-2.61,14.64-1.2,22-1.09,1.24,0,2.64.66,2.44,2.48a11.62,11.62,0,0,1-4,4.78c-2.27-1.4-4.83-1.23-7.29-1-4.59.35-8.87.06-11.91-4l-2,0C241,213.69,241,213.39,241,213.09Z" transform="translate(108.99 108.91)"/><path class="cls-106" d="M242.63,211.92a12,12,0,0,1,4.23-5c7.36-2.68,14.91-1.24,22.4-1a2.83,2.83,0,0,1,2.56,2,11.71,11.71,0,0,1-3.73,4.27C259.62,210.68,251.12,211.57,242.63,211.92Z" transform="translate(108.99 108.91)"/><path class="cls-107" d="M271.82,207.94c-5.77-2-11.72-.51-17.57-.91-2.45-.18-4.92-.07-7.39-.09l3.07-4c7,0,14,0,21.06.1,1.38,0,3.15-.18,3.12,2.1Z" transform="translate(108.99 108.91)"/><path class="cls-108" d="M242.63,211.92c7.85-3.72,16.12-1.39,24.21-1.65.83,0,1.08,1.12,1.25,1.94l-1.89,2.09c-1.3-1.88-3.28-1.25-5-1.28-6.47-.08-12.93-.08-19.4-.11Z" transform="translate(108.99 108.91)"/><path class="cls-109" d="M274.11,205.16c-2.06-2.13-4.68-.9-7-1.13-5.7-.56-11.53,1.05-17.14-1.07l2-2c5.9,2.12,12,.47,18,1,2,.19,4.29-.82,6,1Z" transform="translate(108.99 108.91)"/><path class="cls-110" d="M302.94,171l-25.12-.05a22.18,22.18,0,0,1,6.1-7.07c6.75-.86,13.52-.36,20.28-.32a4.89,4.89,0,0,1,4,1.53C307.37,167.85,305,169.24,302.94,171Z" transform="translate(108.99 108.91)"/><path class="cls-111" d="M289.79,156.94l25.44.16c-1,1.38-1.61,3.07-3.26,3.89-7.76,2.92-15.69,1.64-23.59.87a1.53,1.53,0,0,1-1.34-1.8A7.29,7.29,0,0,1,289.79,156.94Z" transform="translate(108.99 108.91)"/><path class="cls-112" d="M287,160.06c4.4,2,9,.58,13.56.89,3.78.25,7.58.05,11.37,0a11.83,11.83,0,0,1-3.74,4.09c-6.58,0-13.16,0-19.75-.1-1.58,0-3.35.51-4.56-1.11Z" transform="translate(108.99 108.91)"/><path class="cls-91" d="M234.85,81.05A47.72,47.72,0,0,1,214,81c-2.94-1-3.13-2.93-1.79-5.37,6.95-1.39,13.89-2.25,20.77.36Z" transform="translate(108.99 108.91)"/><path class="cls-113" d="M229,66c.44,1,.87,2,1.31,3a3.88,3.88,0,0,0-.21.76c1,2.72-1,3.37-2.81,3.47-5.94.31-11.92,1.06-17.79-.69a7.32,7.32,0,0,1-3.29-3.15c-.51-1.16-1-2.32.52-3.16,7.12-1.3,14.28-.73,21.43-.47Z" transform="translate(108.99 108.91)"/><path class="cls-94" d="M209,71c6.41,2,13,.67,19.46.83,1.18,0,1.48-1.1,1.7-2.08A14,14,0,0,1,233,76l-21.26.09C209.33,75.19,207.93,73.76,209,71Z" transform="translate(108.99 108.91)"/><path class="cls-92" d="M199.67,58.12c8.16,1.84,16.42.51,24.63.79a4.12,4.12,0,0,1,1.8,3c0,2.64-2.28,2.74-3.88,3-5.94.87-11.91,1.28-17.83-.3C202,63,199.11,61.83,199.67,58.12Z" transform="translate(108.99 108.91)"/><path class="cls-93" d="M203.69,63.11c7.56,1.13,15.11,2.28,22.41-1.24a7.33,7.33,0,0,1,2.07,3.89c-2.55,2.39-5.68,1-8.52,1.18-4.46.23-8.94.06-13.41,0a3.17,3.17,0,0,1-2.69-1.89A2.16,2.16,0,0,1,203.69,63.11Z" transform="translate(108.99 108.91)"/><path class="cls-46" d="M36.91,113c6.57-2.08,13.33-.48,20-1,1.34,1.5.76,2.84-.33,4.15C49.87,120,43,119.16,36,117,36.08,115.61,35.66,114.12,36.91,113Z" transform="translate(108.99 108.91)"/><path class="cls-114" d="M36,117c4.93,0,9.86-.1,14.78,0a5.88,5.88,0,0,0,5.2-2,4.34,4.34,0,0,1,1.08,3.88c-.31,1.07-.53,2.23-2.06,2.14l-.1,0c-6.25-2.17-12.72-.38-19.06-1C35.94,119,36,118,36,117Z" transform="translate(108.99 108.91)"/><path class="cls-28" d="M133.8,30.14l1.22-.22,5.92,0,.14.2C138.64,33.36,136.22,33.24,133.8,30.14Z" transform="translate(108.99 108.91)"/><path class="cls-15" d="M133.8,30.14a9.38,9.38,0,0,0,7.28,0l18.75,2.93L172.91,38l7.75,4.14a31.73,31.73,0,0,0,7.12,4.92,7.94,7.94,0,0,0,3.87,3.08l4.06,3.92.62,1.76c-1.63,1.88-3.89,1.73-6,1.73q-49,.1-98,0c-2.15,0-4.39.13-6.12-1.56a3.52,3.52,0,0,1,.12-.92l5-5A7.22,7.22,0,0,0,95.05,47l5.07-4,8-5,8-3.79C121.78,32,127.87,31.46,133.8,30.14Z" transform="translate(108.99 108.91)"/><path class="cls-14" d="M54.81,190l.38-1c2.54-2.25,5.66-1.56,8.58-1.57,32.74-.13,65.48.12,98.2-.16a6.82,6.82,0,0,1,1.75-.13A4.71,4.71,0,0,1,166,188a21.19,21.19,0,0,1,3.68,4.39,30.91,30.91,0,0,0,2.71,2.9c.47.44.92.91,1.37,1.38a26.62,26.62,0,0,1,2.72,3.54,19.94,19.94,0,0,0,2,2.29c.71.72,1.44,1.43,2.16,2.15a36.94,36.94,0,0,1,2.46,2.83c1.18,1.26,2.28,2.58,3.42,3.86,1.29,1.49,2.79,2.79,4.07,4.3.41.76,1.14,1.5.25,2.39-43.22,0-86.43,0-129.64-.12-4.2,0-5.28,1.26-5.31,5.35-.07,7.22,1.16,14.52-.74,21.69Q55,234,54.8,223q0-6,0-12V190Z" transform="translate(108.99 108.91)"/><path class="cls-62" d="M196.82,224.09a13.58,13.58,0,0,1-3.79-4.16c-1-2.06.49-2.92,1.93-3,7.29-.28,14.7-1.87,21.73,1.57.34,4.06-2.5,5.43-5.62,5.7C206.35,224.62,201.56,224.94,196.82,224.09Z" transform="translate(108.99 108.91)"/><path class="cls-65" d="M219,220c.32,4,.77,7.92.91,11.89.1,3.07-2.29,2.84-4.47,3.19-2.48.38-5.61-1.72-7.36,1.73L204,232.1c-1-1.68.05-2.46,1.41-3a7.91,7.91,0,0,1,3.93-.48c4.76.65,6.71-1.68,6.79-6.14C216.74,221.29,217.17,219.82,219,220Z" transform="translate(108.99 108.91)"/><path class="cls-115" d="M217,219c-6.66-1.26-13.39-1-20.11-1-1.55,0-3.48-.55-3.86,1.91l-2.2-1.9c-.34-.59-.67-1.19-1-1.78.22-2.91,2.63-2.63,4.41-2.68a166.17,166.17,0,0,1,19.71.18c2.51.65,4.65,1.66,4.45,4.82A.87.87,0,0,1,217,219Z" transform="translate(108.99 108.91)"/><path class="cls-40" d="M217,222c-.1,9.16,1,7.82-7.8,8.05-1.87,0-4.53-1.23-5.25,2L201,228.89c-1.27-2.26-.21-3.4,1.94-4a10.22,10.22,0,0,1,4.45-.29C211.11,225.34,213.91,223.21,217,222Z" transform="translate(108.99 108.91)"/><path class="cls-41" d="M217,222c-2.79,4.45-7.14,4.29-11.6,4-2-.11-4.6-.65-4.37,2.86l-4.21-4.8c2.93-1.76,6.18-1.19,9.27-1,4.34.25,8.18-.28,10.91-4.07l1.35-.22.6.24c0,.32,0,.65,0,1Z" transform="translate(108.99 108.91)"/><path class="cls-116" d="M219,219a.88.88,0,0,0-.6-.23,8.45,8.45,0,0,0-3.3-3.82,14.79,14.79,0,0,1-5.45-4.54,17.62,17.62,0,0,0-3-3.84q-1.47-1.53-3-3a19.79,19.79,0,0,1-2-2.23c-.43-.65-.79-1.34-1.26-2a26.26,26.26,0,0,0-2.09-2.13c-.82-.78-1.65-1.53-2.46-2.32-1.13-1.61-3.56-3-.76-5.21a49.16,49.16,0,0,1,24.19,0c1.76,2.54,1,5.45,1.14,8.21.23,6.13-.34,12.27.35,18.38a2.89,2.89,0,0,1-.85,2.55A5.76,5.76,0,0,0,219,219Z" transform="translate(108.99 108.91)"/><path class="cls-117" d="M219.88,218.91l0-2c-.38-1.19-.65-2.38.39-3.41,6.58-1.84,13.24-1.15,19.89-.65h0c-.62,2.33.83,5-1.13,7.13C232.64,219.44,226.14,221.2,219.88,218.91Z" transform="translate(108.99 108.91)"/><path class="cls-61" d="M240,192v8c-5.69,2.78-11.63,1.48-17.5,1a3.21,3.21,0,0,1-2.67-2.64,22.76,22.76,0,0,1-.15-7.18C226.48,190.72,233.32,189.21,240,192Z" transform="translate(108.99 108.91)"/><path class="cls-118" d="M240,192c-5.8.09-11.61.08-17.41.34-1.34.06-1.64-.86-2.41-1.34a4.81,4.81,0,0,1-.52-6c6.78-2.18,13.56-2.51,20.34,0Z" transform="translate(108.99 108.91)"/><path class="cls-63" d="M240,157v7a6.33,6.33,0,0,1-4.63,1.41,99.21,99.21,0,0,0-14.31.81,4.41,4.41,0,0,1-1.38-3.29c.07-2.44-.55-5,1.23-7.15C227.32,155.65,233.8,154.24,240,157Z" transform="translate(108.99 108.91)"/><path class="cls-72" d="M221,163v3c1.52,2.43,3.84,2.57,6.45,2.67,4.2.16,8.61-1.23,12.56,1.33v6c-5.69,2.77-11.63,1.58-17.49,1-2.35-.25-2.69-2.64-3.4-4.47-.54-3.05-1-6.09.32-9.08A1.11,1.11,0,0,1,221,163Z" transform="translate(108.99 108.91)"/><path class="cls-39" d="M240.12,212.88c-6.54,2.36-13.3.56-19.93,1.12a7.09,7.09,0,0,1-.08-6.36c6.66-1.74,13.3-2.3,19.88.36C240,209.63,240.07,211.26,240.12,212.88Z" transform="translate(108.99 108.91)"/><path class="cls-67" d="M240,170c-5,0-10-.37-14.89.12-3.69.37-4.71-.77-4.12-4.12,3.47-3.16,7.72-1.73,11.68-2,2.43-.15,4.88,0,7.33,0Z" transform="translate(108.99 108.91)"/><path class="cls-70" d="M240,185H220.18c-2.23-2.39-1.77-5-.66-7.67,5.33,1.78,10.87,1,16.32,1.28A6.15,6.15,0,0,1,240,180Z" transform="translate(108.99 108.91)"/><path class="cls-69" d="M240,157c-6.32-.53-12.77,1.14-19-1-1.58-2.35-1-4.59,1.62-4.92,5.78-.72,11.71-1.8,17.37.92C240,153.67,240,155.33,240,157Z" transform="translate(108.99 108.91)"/><path class="cls-74" d="M240,139c0,1.34,0,2.67,0,4-3.61,2.48-7.7.91-11.54,1.4-2,.26-4.33-1-5.94,1.21-.33,1.26-.43,2.61-1.48,3.57a1.35,1.35,0,0,1-1.51-.5,11.57,11.57,0,0,1-.1-8.73,4.2,4.2,0,0,1,2.08-1.82C227.69,137.48,233.93,136.19,240,139Z" transform="translate(108.99 108.91)"/><path class="cls-119" d="M220.18,198c1.1,1.68,2.66,2.09,4.62,2,5.06-.12,10.13,0,15.2,0,0,1.33,0,2.67,0,4a30.15,30.15,0,0,1-20.19.14C219.51,202.07,219,200,220.18,198Z" transform="translate(108.99 108.91)"/><path class="cls-71" d="M240,180c-5.08,0-10.21-.43-15.22.16-3.09.36-3.86-1-4.6-3.16-1.67-1.67-1.67-3.33,0-5,.79,3.08,2.47,4.4,5.93,4.1,4.6-.4,9.26-.1,13.9-.1C240,177.33,240,178.67,240,180Z" transform="translate(108.99 108.91)"/><path class="cls-120" d="M220.18,204H240v4h-19.8A3.08,3.08,0,0,1,220.18,204Z" transform="translate(108.99 108.91)"/><path class="cls-121" d="M240,139H221a3.19,3.19,0,0,1-.31-4.07,4.08,4.08,0,0,1,1.52-1c5.95-.24,12-1.74,17.75,1Z" transform="translate(108.99 108.91)"/><path class="cls-122" d="M220.15,149H221a26.2,26.2,0,0,1,19,0v3c-5.07,0-10.14.15-15.2-.05-3.13-.13-4.13,1.2-3.79,4.05v7h-.85A14.41,14.41,0,0,1,220.15,149Z" transform="translate(108.99 108.91)"/><path class="cls-123" d="M240,120v3c-4,2.62-8.55,1-12.83,1.45-1.82.21-4.07-.67-4.9,2-.67.85-1,2.38-2.62,1.28a6.87,6.87,0,0,1,.12-7.13C226.37,117.23,233.13,117.76,240,120Z" transform="translate(108.99 108.91)"/><path class="cls-124" d="M240,129v3c-3.92,2.61-8.34,1-12.51,1.46-2.22.24-4.7-.64-6.45,1.54h0a1.08,1.08,0,0,1-1.54-.43,4.6,4.6,0,0,1,.5-5.22C226.58,126.37,233.25,126.77,240,129Z" transform="translate(108.99 108.91)"/><path class="cls-114" d="M240,120c-6.6.52-13.3-1.12-19.81,1a1.28,1.28,0,0,1,0-2c1.23-1.88,3.05-2.08,5.12-2,4.9.1,9.8,0,14.7,0Z" transform="translate(108.99 108.91)"/><path class="cls-125" d="M240,129c-6.59.53-13.29-1.13-19.8,1a1.27,1.27,0,0,1,0-2l.87-2A26,26,0,0,1,240,126C240,127,240,128,240,129Z" transform="translate(108.99 108.91)"/><path class="cls-77" d="M240,149H221v-4c6.37-.4,12.78-1.7,19,1C240,147,240,148,240,149Z" transform="translate(108.99 108.91)"/><path class="cls-126" d="M221,135c-.24-2.89,1.61-3.05,3.78-3,5.06.06,10.12,0,15.18,0,0,1,0,2,0,3Z" transform="translate(108.99 108.91)"/><path class="cls-127" d="M240,126H221c-.24-2.89,1.61-3,3.77-3,5.06.06,10.12,0,15.18,0Z" transform="translate(108.99 108.91)"/><path class="cls-79" d="M240,146c-6.32-.53-12.75,1.13-19-1,0-1.37-.11-2.36,2.09-2.22,5.62.33,11.26.18,16.89.22Z" transform="translate(108.99 108.91)"/><path class="cls-128" d="M220.13,128c0,.66,0,1.33,0,2,0,1.66,0,3.33,0,5a8.07,8.07,0,0,1,0,5c0,3,0,6,0,9v14l0,9v32c0,1.33,0,2.67,0,4v6c-.12,1-.24,2-.35,2.94-1.79-5.44-.49-11-.8-16.57-.2-3.44,0-6.91,0-10.37-2.7-4.12-1.19-8.7-1.47-13.09q-.27-11.52,0-23c-.3-9-.05-18-.13-26.94-.06-7-.32-7.32-7.3-7.33q-74.1,0-148.18,0c-2,0-4,.35-5.88-.63,0-1.32,0-2.65,0-4,1-.79.93-1.91.86-3,.33-1.33.65-2.67,1-4s.69-2.67,1-4c.08-.64.17-1.28.26-1.92A2.11,2.11,0,0,1,60,100l1-3c1-1.84,2.07-3.62,2.12-5.79A16.21,16.21,0,0,0,66,85l1-2a4.81,4.81,0,0,1,.76-.12,7,7,0,0,1,3.86-.75c45.5.49,91,.1,136.49.21a18.57,18.57,0,0,1,5.94.54L216,86.08,217.2,91c1,1.9.31,4.25,1.7,6,.06.65.13,1.31.2,2,0,.35,0,.7.05,1.06.33,2.1,2.32,3.63,2,6a4.62,4.62,0,0,1-1.1,3l0,2v8c0,.67,0,1.34,0,2C220.14,123.34,220.14,125.67,220.13,128Z" transform="translate(108.99 108.91)"/><path class="cls-16" d="M214.06,82.91c-1.42,1.72-3.39,1.06-5.14,1.06Q142,84,75.11,84a28.67,28.67,0,0,1-7.34-1.13c1-2.3,2.09-4.61,3.14-6.91l2.31-3.93c.19-2.62,1.8-3.85,4.19-4.34a32,32,0,0,1,6.48-.35H198.34c3,0,6-.22,8.69,1.61L209,71c.39,2,1.69,3.46,2.75,5.07L214,81C214,81.64,214,82.28,214.06,82.91Z" transform="translate(108.99 108.91)"/><path class="cls-129" d="M220.05,106l-.9-5.94c4.42,2.15,9.1.48,13.65.91,2.24.21,4.62-.31,6.14,2l0,1c-2.08,1.88-4.65,1.22-7.07,1.38-3.42.24-6.92-.62-10.25.82A1.67,1.67,0,0,1,220.05,106Z" transform="translate(108.99 108.91)"/><path class="cls-130" d="M220.05,106H221c6.07-1,12.19-2.82,18,1-.33,2.4-2.19,2-3.76,2-5,0-10.09,0-15.14,0C220.08,108,220.07,107,220.05,106Z" transform="translate(108.99 108.91)"/><path class="cls-131" d="M239,107c-5.9-2.09-12-.5-18-1,.33-2.41,2.2-2,3.77-2,4.73,0,9.47,0,14.2,0Z" transform="translate(108.99 108.91)"/><path class="cls-132" d="M56,119c1.8-1.13,3.8-1,5.8-1,50.59,0,101.18.07,151.76-.09,4.53,0,5.63,1.34,5.51,5.65-.31,10.14-.1,20.3-.1,30.45-2.24,1.92-5,1.55-7.59,1.56q-23.81,0-47.61,0c-.56,0-1.12.08-1.68.11-2.33-.25-3.34-2.11-4.55-3.73a36.31,36.31,0,0,0-4-4.34,21.19,21.19,0,0,1-2.07-2.36,14.73,14.73,0,0,0-2.23-2.93c-.89-.91-1.79-1.8-2.7-2.69-.48-.44-.94-.91-1.39-1.39a35.88,35.88,0,0,1-2.84-3.64,15.9,15.9,0,0,0-2.33-2.31c-5.27-3.08-8.16-2.9-12.88.81a9.07,9.07,0,0,0-1.4,2,7,7,0,0,0-.62,2.84c0,.58,0,1.16,0,1.74a8,8,0,0,0,.75,2.76,13.53,13.53,0,0,0,1.74,3,25.26,25.26,0,0,0,2.17,2.22c1.27,1.28,2.57,2.53,3.85,3.8a9.71,9.71,0,0,1,2.52,3.82,2.38,2.38,0,0,1-1.31,2.94c-2.27,1.3-4.79,1.25-7.28,1.26q-32.37,0-64.75,0c-7.18,0-7.27-.27-7.37-7.62-.06-4,.49-7.95-.37-11.89l-.28-5.12c-.11-3-1.32-6,.06-9,.05-1.65.09-3.3.14-5Z" transform="translate(108.99 108.91)"/><path class="cls-20" d="M55.12,140.06c2,4.45.66,9.13.78,13.68.09,3.19,1,4.34,4.28,4.32,23.4-.11,46.79,0,70.19-.11a34.07,34.07,0,0,0,5.83-1c1.49-.34,2.3.77,3.26,1.54.75.73,1.49,1.47,2.2,2.24a34.29,34.29,0,0,0,3.16,4c2.07,2.16,4.26,4.2,6.27,6.43,1.12,2.2,5.9,3.74,1.3,7a26.71,26.71,0,0,1-7,.48H64.51c-1.67,0-3.33,0-5-.15-2.73-.24-4.19-1.37-4.07-4.43s.43-6-.26-8.95L54.86,155c0-3,0-6,0-9Q55,143,55.12,140.06Z" transform="translate(108.99 108.91)"/><path class="cls-133" d="M54.9,126l-.06,9c-1-.76-.8-1.89-.85-2.94.21-2.46-1.12-3.08-3.32-3-3.62.09-7.24.05-10.86,0-1.57,0-3.47.45-3.81-2C42.21,125,48.6,126.37,54.9,126Z" transform="translate(108.99 108.91)"/><path class="cls-18" d="M55.19,165.08c1.62,2.45.86,5.21.72,7.76-.22,3.92,1.82,4.22,4.89,4.2,16.47-.09,32.94,0,49.41,0l43.93,0a2.67,2.67,0,0,1,2.56.73,34.38,34.38,0,0,1,6,6.67c.64,1.14,2.05,2,1.33,3.64-2.12,1.34-4.5,1-6.81,1h-102q-.19-3-.37-6v-5c0-2,0-4,0-6,0-1,0-2,0-3C55,167.7,55.08,166.39,55.19,165.08Z" transform="translate(108.99 108.91)"/><path class="cls-134" d="M60,100l-.81,2.09c-4.21-2.06-8.72-.61-13.06-1.09-2-.22-4.29.87-6-1A42.5,42.5,0,0,1,60,100Z" transform="translate(108.99 108.91)"/><path class="cls-16" d="M86.2,56l110.13-.18,3.34,2.26a14.05,14.05,0,0,0,4,5c.18.61.35,1.21.52,1.82-1.83,1.92-4.26,1.67-6.54,1.68-37.07,0-74.14.09-111.21-.1C84.12,66.5,80,68.13,80,63l3-4Z" transform="translate(108.99 108.91)"/><path class="cls-113" d="M76,69l-2.75,3.08c-5.64,0-11.28,0-16.92-.1-1.68,0-3.87.74-4.32-2a4.13,4.13,0,0,1,1.73-3c7.85-.29,15.75,1,23.54-.83C78,67.58,77,68.29,76,69Z" transform="translate(108.99 108.91)"/><path class="cls-22" d="M76,69c.42-1,.85-1.94,1.28-2.9A3,3,0,0,0,78.84,64L80,63c.51,2.79,2.75,1.93,4.39,1.93q59.9,0,119.8,0c.68.69,1.35,1.38,2,2.06.26.67.52,1.34.79,2Z" transform="translate(108.99 108.91)"/><path class="cls-135" d="M210.32,209.87l4.73,5.1c-6.74,0-13.48,0-20.22.05-1.73,0-3.69-.6-5,1.23L186,212c-1-2,.5-3,1.94-3.06C195.41,208.68,203,207.22,210.32,209.87Z" transform="translate(108.99 108.91)"/><path class="cls-106" d="M210.32,209.87c-6.65,0-13.31,0-20,.16-1.67,0-3.88-.79-4.37,2l-3.75-4.08c.7-1.9,2.38-2.26,4-2.27,6.91,0,13.83-.65,20.72.36A7,7,0,0,1,210.32,209.87Z" transform="translate(108.99 108.91)"/><path class="cls-100" d="M194.13,191l2.94,4c-1.37,1.5-3.21,1.5-5,1.49-6.72,0-13.45.29-20.15-.33L169,193c.68-3,3.22-2.3,5.15-2.36,6.07-.22,12.16.06,18.24-.18A2.84,2.84,0,0,1,194.13,191Z" transform="translate(108.99 108.91)"/><path class="cls-136" d="M207,206c-3.36,2.08-7.06.55-10.58,1-4.7.53-9.54-1-14.16,1l-2.32-2.82c.26-2.72,2.48-2.4,4.15-2.41,6.66-.07,13.33-.41,20,.21A6.17,6.17,0,0,1,207,206Z" transform="translate(108.99 108.91)"/><path class="cls-99" d="M164,188l-2-3c.64-3.06,3.22-2.35,5.14-2.42,6.11-.23,12.22,0,18.33-.19,2.33.44,4.22,1.24,3.45,4.22-1.41,1.74-3.42,1.75-5.39,1.75-6.21,0-12.43.23-18.64-.21Z" transform="translate(108.99 108.91)"/><path class="cls-101" d="M193.08,190.74c-1.46,2-3.62,1.07-5.5,1.25-6.17.57-12.45-1.09-18.55,1l-3.2-3.9c2-1.76,4.45-1,6.69-1,6.13-.05,12.26-.16,18.4-.07A2.72,2.72,0,0,1,193.08,190.74Z" transform="translate(108.99 108.91)"/><path class="cls-98" d="M171.91,196.13c2.05-2.09,4.65-1,7-1.08,6.06-.16,12.12-.07,18.17-.08l2,2c-.85,2-2.66,2.29-4.51,2.34-5.26.14-10.53,0-15.8.06-2.33,0-4-1.35-5.86-2.33Z" transform="translate(108.99 108.91)"/><path class="cls-137" d="M172.86,197.05c8.73,1.35,17.45,1.74,26.17-.07a3.17,3.17,0,0,1,1.85,2.08c-.75,1.84-2.38,2.24-4.06,2.23-6.92,0-13.86.62-20.76-.39Z" transform="translate(108.99 108.91)"/><path class="cls-122" d="M176.06,200.9c3.75-1.91,7.75-.49,11.62-.89,4.39-.45,8.91.91,13.2-.95a2,2,0,0,1,1.27,1.7c-.11,2.94-2.45,2.15-4,2.18-6.71.1-13.42.1-20.14.06Z" transform="translate(108.99 108.91)"/><path class="cls-138" d="M191.86,189l-26,0-.93-.92c2.4-2.2,5.31-.81,8-1.1,5.32-.59,10.78,1.05,16-1C190.68,186.2,192.36,186.52,191.86,189Z" transform="translate(108.99 108.91)"/><path class="cls-139" d="M178,203c5.93-2.23,12.09-.39,18.1-1,2.05-.21,4.38.87,6.05-1.22l1.9,2.15c-5.55,2.41-11.38.43-17,1.11-2.38.28-5-1-7.1,1.09Z" transform="translate(108.99 108.91)"/><path class="cls-18" d="M191.86,189c-.35-1.64-2.18-1.81-3-3a6.37,6.37,0,0,0-2.79-3.16c-2.91-1.18-4.57-2.93-2.81-6.22,1.59-1.12,3.43-1.16,5.25-1.17q12.43-.11,24.86,0c2,0,4,.09,5.61,1.55v13c-8.29.47-16.64-1-24.87,1l-1-.22C192.68,190.16,192.27,189.59,191.86,189Z" transform="translate(108.99 108.91)"/><path class="cls-126" d="M220.14,140v-5H221v4Z" transform="translate(108.99 108.91)"/><path class="cls-17" d="M219,177c-10.31,0-20.62,0-30.93,0-1.73,0-3.71-.68-5.11,1.09a2.67,2.67,0,0,1-2.56-.71c-2.35-1.84-3.84-4.47-6.05-6.42-1.94-1.49-3-3.74-4.84-5.36-1.54-1.52-2.58-3.45-4-5-1-1.15-2.16-2.16-3.14-3.34-.45-.77-1.08-1.51-.3-2.42,1.57-1.41,3.48-.81,5.24-.81,17.24-.05,34.49,0,51.73,0Z" transform="translate(108.99 108.91)"/><path class="cls-140" d="M132.73,152.11,128.94,148c4.39-2.24,9.13-1.2,13.72-1.36a97.73,97.73,0,0,1,11.48.13L158,151c.07,1.56-1.14,2.1-2.24,2.12C148.06,153.26,140.3,154.72,132.73,152.11Z" transform="translate(108.99 108.91)"/><path class="cls-93" d="M162,154.84l1,2.11c.9,1.69-.08,2.83-1.49,2.85-7.54.1-15.16,2.07-22.59-.78l-2.75-2.08c-.33-.65-.66-1.3-1-1.95.38-.32.67-.82,1.19-.86,8.34-.71,16.69-1.74,24.93.76Z" transform="translate(108.99 108.91)"/><path class="cls-141" d="M161.31,154.89l-26.12.1-2.46-2.88c6.88,0,13.76,0,20.64-.13,1.58,0,3.32.53,4.62-.95Z" transform="translate(108.99 108.91)"/><path class="cls-51" d="M127.18,146A4.51,4.51,0,0,1,125,143a3.85,3.85,0,0,1,3.1-1.35c7.28,0,14.58-.66,21.84.39a4.34,4.34,0,0,1,2.32,2.82c-.34.78-.82,1.66-1.66,1.69C142.81,146.9,135,148,127.18,146Z" transform="translate(108.99 108.91)"/><path class="cls-142" d="M150,142c-4.39,2.06-9,.6-13.56.91-3.78.25-7.59.05-11.38.05a3.94,3.94,0,0,1-1-3c1.94-1.78,4.36-1.36,6.65-1.38,5.48,0,11-.11,16.44.16C148.09,139.87,149,141,150,142Z" transform="translate(108.99 108.91)"/><path class="cls-143" d="M124,138c-.06-1.11-.13-2.22.75-3.1,6-2.38,12.13-1.24,18.24-.81l3.28,3.84A49.54,49.54,0,0,1,124,138Z" transform="translate(108.99 108.91)"/><path class="cls-144" d="M127.18,146c6.62,0,13.24,0,19.86.07a10.18,10.18,0,0,0,5.26-1.16c.61.64,1.22,1.29,1.84,1.93-1.34,1.81-3.3,1.17-5,1.18-6.72.07-13.45,0-20.17.05A3.17,3.17,0,0,1,127.18,146Z" transform="translate(108.99 108.91)"/><path class="cls-145" d="M125.81,133c4.72-5.47,10-5.79,15.18-.93,0,.71-.23,1.48-.88,1.54C135.32,134,130.5,134.89,125.81,133Z" transform="translate(108.99 108.91)"/><path class="cls-146" d="M124,138l22.27-.07.9.86c-2.23,2.28-5.06,1.05-7.59,1.15-5.16.2-10.33.06-15.5.06C124,139.33,124,138.67,124,138Z" transform="translate(108.99 108.91)"/><path class="cls-54" d="M125.81,133c5.05-.48,10.24,1.22,15.18-.93l2,2.07c-6,1.94-12.16.51-18.24.81Z" transform="translate(108.99 108.91)"/><path class="cls-96" d="M174.9,170.21c2.53,1.82,4.21,4.4,6.08,6.81a1.77,1.77,0,0,1-1.75,2c-7.78.5-15.62,1.93-23.26-1l-1.83-1c-1.46-2-2.91-3.92-4.37-5.87a4.79,4.79,0,0,1,4-1.53C160.82,169.56,167.89,168.85,174.9,170.21Z" transform="translate(108.99 108.91)"/><path class="cls-110" d="M174.9,170.21c-6.16,1.75-12.45.35-18.67.77-2.14.15-4.3.08-6.46.11a27.05,27.05,0,0,1-5.7-6.19c.06-.33.13-.89.26-.9,8.63-.5,17.3-1.74,25.82.95C172.53,166,172.89,168.83,174.9,170.21Z" transform="translate(108.99 108.91)"/><path class="cls-112" d="M170.15,165l-26.08,0c-1.72-.73-2.28-2.47-3.26-3.83,5.81-2.3,11.9-.63,17.85-1.14,2.35-.2,4.88-.53,7.3.15C167.89,161.25,168.87,163.23,170.15,165Z" transform="translate(108.99 108.91)"/><path class="cls-147" d="M166,160.08c-4.79,2-9.79.54-14.69.88-3.47.24-7,.09-10.46.11-.63-.68-1.25-1.37-1.87-2,7.26,0,14.52-.08,21.78-.07a2,2,0,0,0,2.3-2A6.52,6.52,0,0,1,166,160.08Z" transform="translate(108.99 108.91)"/><path class="cls-97" d="M156,178c6.79,0,13.57,0,20.35,0,1.59,0,3.36.56,4.66-.95l2,1.1,3.13,4.73c-2.42,2.24-5.36.81-8,1.12-5.33.63-10.8-1.08-16,1Z" transform="translate(108.99 108.91)"/></svg>