<svg id="图层_1" data-name="图层 1" xmlns="http://www.w3.org/2000/svg" viewBox="0 0 746.91 252.28"><defs><style>.cls-1{fill:#fefefe;}</style></defs><title>电池</title><path d="M178.32,26.71c86.8,0,173.59-.15,260.38.08,26.07.07,48.16,11.19,67.59,27.57,24.56,20.7,39.18,47.83,43.15,79.07,3.58,28.07.13,56-14.3,81.69-15.74,28-38,48.07-68.57,58.52a94.2,94.2,0,0,1-30.88,5.2q-259.9-.3-519.81-.23c-26.07,0-48.15-11.19-67.58-27.57-24.57-20.7-39.18-47.83-43.16-79.07-3.57-28.07-.13-56,14.31-81.69,15.74-28,38-48.07,68.56-58.52a93.73,93.73,0,0,1,30.88-5.2C5.37,26.82,91.85,26.71,178.32,26.71Z" transform="translate(196.16 -26.56)"/><path class="cls-1" d="M176.93,259.7c-86.83,0-173.67.48-260.49-.28-27.18-.24-48.76-13.76-66.45-34.43-13.61-15.89-22.05-33.69-25.16-54-4.76-31.2,1.54-59.94,20.62-85.51C-141.3,67.67-124.12,55.35-102.78,49c6.19-1.85,12.44-3.37,19-3.37,174,0,348-.22,521.93.28,27.24.08,48.66,14.08,66.42,34.49a104.41,104.41,0,0,1,25.19,54c4.75,31.2-1.55,59.95-20.63,85.52-13.26,17.77-30.36,30.18-51.77,36.49-6.51,1.91-13.05,3.38-19.94,3.37Q307.17,259.65,176.93,259.7Z" transform="translate(196.16 -26.56)"/><path d="M127.71,149.67c2.92-23.19,3.42-47,18.73-66.92C162.38,62,180,65.55,193.05,81.61c8.73,10.71,12.57,24.12,14.65,37.8,1.2,7.89,3.25,15.82,3.18,23.72-.2,25.55-.93,51.84-18.93,72.06s-33.75,14.38-48.5-4.07c-8.91-11.14-11.81-25.36-13.33-39.19C129.31,164.59,126.31,157.34,127.71,149.67Z" transform="translate(196.16 -26.56)"/><path d="M308.58,149.88c-2.29,20.85-3.1,42.08-15.26,60.55a41.56,41.56,0,0,1-17.28,15c-11.39,5.29-28.65-2.26-36-15.08-8.34-14.56-11.42-30.41-13.69-47-2.85-20.78,1.1-40.45,6.48-59.83,3-10.78,7.6-21.72,18.32-28.52,15.42-9.78,29.34-7.59,39.77,7.28,9.71,13.85,13.6,29.88,15.35,46.22C307,135.63,310.11,142.53,308.58,149.88Z" transform="translate(196.16 -26.56)"/><path d="M65.11,94.92c-6.71,4.19-9.76,10.44-15.85,13.48-3.2,1.6-5.76,2.78-8.1-.55s1.25-4.38,2.77-5.91c8.8-8.85,17.6-17.63,24.48-28.16,2.42-3.7,5.92-6.78,11.06-5.34C85.25,70.06,82,74.86,82,77.87c.27,43.24.4,86.49,0,129.74C82,216,84.38,219.38,92.74,218.1c1.55-.24,3.17.07,4.74,0,2.85-.21,3.8,1,3.83,3.83s-1.08,3.81-3.86,3.8q-22.82-.12-45.62,0c-2.73,0-3.95-.77-3.9-3.74,0-2.79.87-4.09,3.78-3.88,1.89.13,3.81-.14,5.7,0,5.71.56,7.82-1.79,7.79-7.61C65,172.34,65.11,134.19,65.11,94.92Z" transform="translate(196.16 -26.56)"/><path class="cls-1" d="M144.78,150.49c2.42-19.48.69-39.52,7.79-58.42C154.62,86.6,157,81.16,162,77.94c8.22-5.24,20.63,1.08,24.49,12.74,2.28,6.88,4.69,14.12,4.8,21.23.23,16.35,4.62,32.31,1.75,49.11-2.16,12.63-.84,25.93-4.35,38.62-1.9,6.9-4.2,13.37-10.11,18.13-7.17,5.78-14.3,4.84-20.51-2.13-8.1-9.11-9.91-20.65-10.74-31.54C146.51,173,143.59,161.85,144.78,150.49Z" transform="translate(196.16 -26.56)"/><path class="cls-1" d="M291.41,148.67c-1.49,19.24-.65,38.83-7.67,57.36-3.11,8.22-8.27,15.7-17.52,15.43-8.64-.25-13.78-7.42-16.63-15.39-4.06-11.37-4.76-23.24-6.1-35.16-1.85-16.53-.29-32.88.72-49.16.89-14.32,1.51-29.22,12.63-41.17,6.63-7.11,15.6-5.3,21.7,2,7.8,9.31,9.81,20.69,10.46,31.59C289.68,125.64,293.2,137,291.41,148.67Z" transform="translate(196.16 -26.56)"/></svg>