<svg id="图层_1" data-name="图层 1" xmlns="http://www.w3.org/2000/svg" viewBox="0 0 500 500"><defs><style>.cls-1{fill:#efeff1;}.cls-2{fill:#edecf1;}.cls-3{fill:#eeedf3;}.cls-4{fill:#f3f3f5;}.cls-5{fill:#f0f0f2;}.cls-6{fill:#cdcdd7;}.cls-7{fill:#cbcbd5;}.cls-8{fill:#c2c2cc;}.cls-9{fill:#f2f2f4;}.cls-10{fill:#cfcfd9;}.cls-11{fill:#f9f9fb;}.cls-12{fill:#e5e4e9;}.cls-13{fill:#b1b1bd;}.cls-14{fill:#eae9ee;}.cls-15{fill:#e7e6eb;}.cls-16{fill:#e8e7ec;}.cls-17{fill:#e3e2e7;}.cls-18{fill:#dfdee4;}.cls-19{fill:#d1d1db;}.cls-20{fill:#dadbe0;}.cls-21{fill:#ebeaef;}.cls-22{fill:#c9c9d3;}.cls-23{fill:#d4d4de;}.cls-24{fill:#e0dfe5;}.cls-25{fill:#d5d6dc;}.cls-26{fill:#d2d2d4;}.cls-27{fill:#e2e2e2;}.cls-28{fill:#f6f6f8;}.cls-29{fill:#cacad0;}.cls-30{fill:#b3b2be;}.cls-31{fill:#bcbcc7;}.cls-32{fill:#c5c5cf;}.cls-33{fill:#cecdd5;}.cls-34{fill:#c7c7d1;}.cls-35{fill:#b6b5c1;}.cls-36{fill:#bbbac6;}.cls-37{fill:#c8c8ce;}.cls-38{fill:#c2c1cc;}.cls-39{fill:#c5c3ce;}.cls-40{fill:#d9d9da;}.cls-41{fill:#e1e1e1;}.cls-42{fill:#d5d5d5;}.cls-43{fill:#e0e0e0;}.cls-44{fill:#efeef3;}.cls-45{fill:#f5f5f7;}.cls-46{fill:#e6e6e8;}.cls-47{fill:#e8e7eb;}.cls-48{fill:#e0dfe4;}.cls-49{fill:#ebebed;}.cls-50{fill:#e9e8ed;}.cls-51{fill:#f7f7f9;}.cls-52{fill:#272636;}.cls-53{fill:#cacad4;}.cls-54{fill:#c4c4ce;}.cls-55{fill:#d0d0da;}.cls-56{fill:#fbfbfb;}.cls-57{fill:#dddedf;}.cls-58{fill:#dadada;}.cls-59{fill:#dcdbe3;}.cls-60{fill:#e3e2ea;}.cls-61{fill:#d9d9db;}.cls-62{fill:#dadadb;}.cls-63{fill:#d8d8d9;}.cls-64{fill:#dcddde;}.cls-65{fill:#dedee0;}.cls-66{fill:#d6d6d7;}.cls-67{fill:#dcdcdc;}.cls-68{fill:#afafbb;}.cls-69{fill:#b3b3bf;}.cls-70{fill:#e0dfe7;}.cls-71{fill:#dddee3;}.cls-72{fill:#cbcad3;}.cls-73{fill:#d4d3d9;}.cls-74{fill:#cacbd0;}.cls-75{fill:#ceced3;}.cls-76{fill:#d7d6dc;}.cls-77{fill:#d3d4d8;}.cls-78{fill:#cfd0d4;}.cls-79{fill:#dcdcdd;}.cls-80{fill:#d9d9d9;}.cls-81{fill:#d9d8e0;}.cls-82{fill:#d7d8dd;}.cls-83{fill:#d3d3dd;}.cls-84{fill:#d5d6db;}.cls-85{fill:#e1e0e8;}.cls-86{fill:#dad9e1;}.cls-87{fill:#dedfe3;}.cls-88{fill:#e3e3e7;}.cls-89{fill:#ececee;}.cls-90{fill:#e8e8ec;}.cls-91{fill:#fefefe;}.cls-92{fill:#c0c0cc;}.cls-93{fill:#c2c2ce;}.cls-94{fill:#bfbfc9;}.cls-95{fill:#bfbfc8;}.cls-96{fill:#c2c2cb;}.cls-97{fill:#c0c0c8;}.cls-98{fill:#b8b8c4;}.cls-99{fill:#bfbfcb;}.cls-100{fill:#dbdbe0;}.cls-101{fill:#dfdfe3;}.cls-102{fill:#e6e5ea;}.cls-103{fill:#dddce4;}.cls-104{fill:#d0ced9;}.cls-105{fill:#dfdee6;}.cls-106{fill:#d2d2dc;}.cls-107{fill:#d4d3de;}.cls-108{fill:#d7d5e0;}.cls-109{fill:#cfcdd8;}.cls-110{fill:#d4d3dd;}.cls-111{fill:#d6d4df;}.cls-112{fill:#dbdae2;}.cls-113{fill:#c8c8d4;}.cls-114{fill:#c7c7d3;}.cls-115{fill:#c6c6d2;}.cls-116{fill:#c9c8d1;}.cls-117{fill:#c5c5d1;}.cls-118{fill:#bfbfca;}.cls-119{fill:#c3c3ce;}.cls-120{fill:#f9f9f9;}.cls-121{fill:#bbbbc7;}.cls-122{fill:#b5b5c1;}.cls-123{fill:#d6d6dd;}.cls-124{fill:#292839;}.cls-125{fill:#b2b2be;}.cls-126{fill:#bdbdc9;}.cls-127{fill:#b9b8c5;}.cls-128{fill:#6d3ffe;}.cls-129{fill:#5c4efd;}.cls-130{fill:#1790fa;}.cls-131{fill:#7a32fc;}.cls-132{fill:#5259fe;}.cls-133{fill:#3871fd;}.cls-134{fill:#2386fd;}.cls-135{fill:#2d7cfd;}.cls-136{fill:#8328fc;}.cls-137{fill:#9517fc;}.cls-138{fill:#8b21fd;}.cls-139{fill:#4664fe;}.cls-140{fill:#3f6bfe;}.cls-141{fill:#4862fd;}.cls-142{fill:#a00ffe;}.cls-143{fill:#202424;}</style></defs><title>红外线</title><path class="cls-1" d="M401,1V13c-4.11,2.73-8.73,1-13.09,1.5-13.9,0-27.8.31-41.69-.12a9.93,9.93,0,0,1-2.6-.4c-2.9-2.37-5.68-.71-8.48.3a50.23,50.23,0,0,1-8.49.35q-201.93,0-403.86,0c-3.28,0-6.69.6-9.78-1.18-2-2.49-2.18-5.59-2.5-8.5-.41-3.63,2.17-5.35,5.34-6.12,2.29-.56,4.65-.29,7-.29q202.46,0,404.9,0c3.8,0,7.66-.82,11.42.45-3.33-1.47-6.78-.47-10.17-.47q-204.45-.06-408.9,0c-6.69,0-8.52-1.28-8.43-5.68.06-2.88,1.28-4.76,4.31-5.17a48.44,48.44,0,0,1,6.49-.23q201.95,0,403.9-.18c7.29,0,12.83,3.85,19.25,5.62,3.74,1,5.85,11.19,3.48,15.08,11.68-.45,23-1.35,34.27.48,1-.66,3.61.42,2.75-2.42a3.32,3.32,0,0,1-1.64-1.21,3.79,3.79,0,0,1-.15-3A2.94,2.94,0,0,1,386,.22C390.93,1.76,396.09-.91,401,1Z" transform="translate(99 99)"/><path class="cls-2" d="M401,21V32c-1.95,1.38-3.38.44-4.76-1-4.41-4.63-4.84-4.43-7.7.8-1.81,3.31-4.18,6.21-5.05,10.07-.5,2.24-2.81,3.27-5.11,3.38a227.78,227.78,0,0,1-23.95,0c-2.73-.17-5.18-1.74-5.35-4.43-.3-4.73-4.45-7.23-5.74-11.41-.82-2.68-3.77-2.25-5.17-.19-2.79,4.12-6.78,4.3-11,4.29H248.73a41,41,0,0,0-10.42.83,206.45,206.45,0,0,0-25.33,2c-6.3.77-12.56-.75-18.9-.74q-133.47.22-266.94.1c-2,0-4,.08-6,0-3.82-.15-6.39,1.11-7.07,5.28s-5.17,7-4.88,11.77c-1.65,7.77-.41,15.63-.76,23.44.23,8.3.1,16.59,0,24.89.23,6.6-.14,13.19-.15,19.78,0,1.72.2,3.78-2.22,4.38-1.33-5.37-.22-10.83-.58-16.24q0-27.09,0-54.17,0,27,0,53.9c-.09,5.37.2,10.74-.15,16.11a1.11,1.11,0,0,1-1.66.08c-1.47-2.06-1-4.45-1.06-6.72-.29-8.42.55-16.86-.5-25.26,0-14.26,0-28.51.2-42.76.11-10.42.7-20.85.35-31.28-.07-2.13-.78-4.82,2.18-6,3.1,4.51,1.71,9.57,1.28,14.31a58.73,58.73,0,0,0-.49,9.27c1.45,2.1.72,4.45.89,6.7-.37-2.24.72-4.65-.93-6.75.82-2.68-2.28-6.41,2.17-8.11.56-.27,1.32-.36,1.24-1.25-.43-4.78,2.76-5.93,6.51-6.41a56.33,56.33,0,0,1,7-.14q199.7,0,399.41,0c4.76,0,9.15.32,13-4.25s12.72-1,13.86,5.12c.58,3.09,2.2,4.24,5.09,4.26,8.5.06,17,.09,25.49,0,2.7,0,4.5-1.17,4.72-4,.39-4.82,3.63-6.41,7.79-6.87s7.32.51,8.32,5.11A3.51,3.51,0,0,0,401,21Z" transform="translate(99 99)"/><path class="cls-3" d="M401,21A2.61,2.61,0,0,1,399,19.8a8.08,8.08,0,0,0-11.51-2.45c-1.2.83-2.42,1.64-2,3.6,1,4.26-1.78,5.89-5.25,6-9.15.22-18.32.18-27.47,0-3.35-.06-5.92-1.81-5.3-5.57s-2-4.58-4.2-5c-2.68-.47-6.68-2.08-8,1.25C333.49,22,330.57,22,326.94,22Q123.12,22-80.69,22c-1.33,0-2.67-.08-4,0-3.63.28-6.85.92-4.26,5.81.73,1.39.53,2.82-1,3.33-1.66.56-.79-2-2.08-2.16a6.52,6.52,0,0,1-1-6.47c.92-2.92,2.53-5.58,3.34-8.59A1.62,1.62,0,0,1-87,13H337a5.3,5.3,0,0,1,6,0h2c3.09,1.77,5.8,3.75,6.2,7.78.23,2.26,2.24,2.72,4.13,2.77q11.19.3,22.38,0c2.13-.06,4-.75,4.26-3.27.38-3.81,3-5.72,6-7.29h13Z" transform="translate(99 99)"/><path class="cls-4" d="M401-26v7a19.63,19.63,0,0,1-12.72,3.63,6.91,6.91,0,0,0-3.46.36c-8.86,4.46-18.47,3.18-27.5,2.19-7.51-.83-15.41-1.71-22.6-4.83a13.09,13.09,0,0,0-5.39-.78q-203,.08-405.93,0c-5.86,0-10.35,1.61-12.84,7.2-.3,2.84.67,6-2.15,8.52-3.28-4.06-.89-8.84-2.17-13-.38-1.33-.83-2.65-1.2-4a8.57,8.57,0,0,1-.23-1.6,5.53,5.53,0,0,1,.93-3.79c1.77-1.41,3.26,1.45,5,.3,3.32-2.95,7.19-3.67,11.56-3.67q202.35.11,404.71.07c2,0,4.19-.45,5.93.44,8,4.13,13.45.14,18.39-5.6a5.64,5.64,0,0,1,4.45-1.9c8,0,16-.69,23.93.39,2.74,4.18,8.24,4.78,11.28,8.74,1.36,1.76,3.64.87,5.42-.18S399.71-28.28,401-26Z" transform="translate(99 99)"/><path class="cls-5" d="M-93-17c2.35,4.09,0,8.65,2,12.88V-11c3.19-4.21,7.48-5.63,12.67-5.62,23.82.09,47.65,0,71.48,0q165.21,0,330.41-.13c7.54,0,14.45,2,21.53,3.65,3.72.88,5.46,4.38,7,7.39,1.65,3.19,3.93,4.15,7.22,4.1,4.66-.08,9.33-.1,14,0,3.46.07,5.75-1,7.61-4.28,4-7,13-10.88,20.06-9.16v4c-3.12,2.71-6.24,5.33-10.76,5.38-2.09,0-3.37,1.21-3,3.57A3.28,3.28,0,0,1,386,1l-1,1c-.83,1-1.46,2,0,3h2c1.38,1.76-.41,2.73-1,4-1.89.87-3.54,4.36-5.89.39-.3-.51-1.87-.37-2.85-.37-7.34,0-14.67,0-22,0a9.37,9.37,0,0,0-1.5,0c-5.25.93-5.25.94-8-3.85l5-.45c-2.16-3.28-5-5.76-4.33-10,.2-1.21-2.51-1.68-4.23-1.78-2.6-.16-5.9,1.15-6.7-3.12-.08-.4-1.39-.72-2.16-.81a27.08,27.08,0,0,0-3.49-.06Q124.39-11-81-11c-3.66,0-6.75-.11-6,5.06.29,2,.9,3.07,3,3,1.5-.06,3,0,4.5,0H344.34c-.68,4.65-3.95,4.77-6.38,3.61a9.65,9.65,0,0,0-7-.7,21.83,21.83,0,0,1-5,.09H-79.46c-1.67,0-3.51-.4-5,.17-2.48,1-5.78,1.93-3.2,6,1.32,2.08.41,4.57.62,6.86-.46.17-1.31.32-1.32.5-.19,5.42-5.3,9.67-3.68,15.5-4,1.83-1.14,5.38-2,8h0c-2.14-4-.66-8.39-1-12.59-.25-3.79,0-7.6,0-11.41-1.53-1.4-1.45-3.27-1.47-5.09,0-4.66-.07-9.31,0-14,0-1.77,0-3.64,2.87-5.5.13,7.9,0,15.09.06,20.71-.44-6.29.9-14.17-.68-22A4.25,4.25,0,0,1-93-17Z" transform="translate(99 99)"/><path class="cls-6" d="M401,237v16c-3.09,0-3.1-2.47-3.44-4.55-.57-3.56-.73-7.21-1.89-10.77-2.51.81-2,2.8-2.36,4.25-2.08,7.47-5.92,10.55-13.49,10.58q-13,.06-26,0c-8.37,0-12-2.86-14.19-11-.34-1.25-.36-2.63-1.57-3.92-1.91,1.38-1.49,3.57-2,5.31-2,7.45-4.63,9.6-12.33,9.61q-79.94,0-159.87,0c-.83,0-1.67,0-2.5-.06-4.88-.39-5.75-1.54-4.82-6.37a12.29,12.29,0,0,1,.67-2.39c3.57-5.64,8.49-10,13.38-14.47,1.09-1,2.86-3,4.12.12-.85,3.87.56,5.2,4.62,5.19q72.41-.16,144.82,0c3.66,0,6.2-.82,7.85-4.58,1.89-4.31,4.81-4.89,8.29-1.8,3,2.66,6.27,3.4,10.07,3.37,11-.07,22,0,33,0,3.27,0,6.26-.46,8.7-2.94,1.68-1.7,3.64-3,6.24-1.95,2.95,1.19,2,3.83,2.17,6C400.62,234.09,400.08,235.63,401,237Z" transform="translate(99 99)"/><path class="cls-7" d="M158.85,242.61c-2.27,8.39-2.27,8.39,6.46,8.39H324.68c6.15,0,9.7-3.37,10.33-9.68.26-2.63-.59-6.81,2.86-6.8,3.21,0,2.94,4,3.18,6.88.4,4.89,5.81,9.6,10.78,9.6h29.48c5,0,10.18-4.76,10.68-9.74,0-.33,0-.67,0-1,.09-2.57.41-5.81,3.27-5.83,2.63,0,2.59,3.34,2.68,5.54.14,3.48,1.53,6.8,1.14,10.36-.15,1.26.79,2.12,1.91,2.67v21c-2.7-.19-3.3-2.4-3.13-4.25.47-5.27-2.48-9.83-2.64-15-.4,5.09-5.26,8.23-5.49,13.28,0,.46-.45,1.11-.86,1.17-5.11.72-8.69,5.46-14.22,5.24-4.82-.2-9.72-.53-14.47.08-6.25.81-10.25-4.26-15.78-5.14-1.16-.19-1.41-1.75-1.63-2.9-.9-4.61-4.5-8-5.52-12.63-.39-1.77-1.29-1.09-1.33.45-1.6,7.63-2.32,8.28-10.29,8.29q-87.55,0-175.1,0c-2.62,0-5.38.34-7.63-1.55-1.09-1.66-.53-3.18.57-4.53,4.07-5,8.9-9.23,13.5-13.71A1.85,1.85,0,0,1,158.85,242.61Z" transform="translate(99 99)"/><path class="cls-8" d="M401,321v10c-2.48.12-2.84-2-3.45-3.55-2.42-6.23-2.37-6.27-9.18-6.15-1.62,0-3.34-.33-5,1,.61,2.13,5.42,1.63,3.65,5.15a5.61,5.61,0,0,1-6.58,3.28,21,21,0,0,1-2.43-.82c-2.44-.87-5-.52-7.45-.52q-108.69,0-217.38,0H-4.69c-2.66,0-5.33.09-8-.13-3.34-.43-5.41-2.75-7.34-5.14-1-1.2-2.25-2.68,0-4,2.56-1,5.26-.7,7.91-.7q40,0,80,0H367.19c2.17,0,4.33,0,6.5-.05,3,0,5.12-1.13,5.95-4.22.31-1.13.9-2.52,2.05-2.68,7.73-1.06,9.35-7.42,11.73-13.17a3.42,3.42,0,0,1,1.8-1.65,2.78,2.78,0,0,1,1.78.09c1.68,2,1.4,4.21.87,6.47-3.41,2.81-2.52,7.58-5.19,10.89,2.48,1.1,3-.83,3.95-2,3-.81,3.88,1.17,3.61,3.4C400,318.22,399.88,319.64,401,321Z" transform="translate(99 99)"/><path class="cls-9" d="M401-15c-4.61.4-8.54,3.09-13.34,3.54-2.39.22-5.91,4.5-6.09,8-.17,3.2-1.92,3.34-3.68,3.38q-11.49.26-23,0c-1.86,0-3.71-.37-3.37-3.58.3-2.81-6.45-7.8-9.33-8.36-33.64-6.58-67.61-2.49-101.39-2.71C137.34-15.42,33.86-15-69.61-15c-7.37,0-15-1.2-21.39,4a11.48,11.48,0,0,1,11.56-9q202.13,0,404.26.1c4.39,0,9.44-2.29,13.21,2.55.66.86,3.17.24,4.83.36,3.5.23,7.28-1,10.14,2.52.64.8,2.83.44,4.31.45,5.33,0,10.67.08,16,0,3.2-.05,6.52.81,9.19-2.37.83-1,3.47-.43,5.27-.61,3.45-.37,7.35,1.3,10-2.57.72-1,2.14.17,3.2.57Z" transform="translate(99 99)"/><path class="cls-10" d="M401,237c-1.74-1.64-.9-3.77-.95-5.68s-.48-3.2-2.33-3.93a3,3,0,0,0-3.88,1.37c-2.5,4.48-6.58,4.32-10.85,4.28q-17.48-.16-35,0c-3.34,0-6.22-.31-8.17-3.54-.8-1.33-2.08-2.9-4.06-2.23A4.07,4.07,0,0,0,333,231c-.33,4.25-2.75,5.06-6.74,5.05q-74.16-.21-148.33-.09c-6.17,0-6.13,0-4.29-5.5a11.86,11.86,0,0,0,.2-2.94c1-3.3,2.81-5.55,6.77-4.55a61,61,0,0,0,8,.42H324c8,0,8.05,0,10.76-7.7,1.53-4.37,4.74-4.57,8.5-3.55a2.58,2.58,0,0,1,1.68,2.3c-.34,7.82,6.19,9,11,9.53,8.95.94,18.18,2.18,27-1.91,3-1.38,4.65-2.76,4.6-6.11,0-2.93.32-5.84,4.11-6.34,3-.4,6.46,2.19,7.25,5.68.72,3.21.83,6.56,2,9.68Z" transform="translate(99 99)"/><path class="cls-11" d="M401-55v23c-3.52.16-4.1-2.48-4.21-5-.17-3.73-2-4.79-5.45-4.69-3.13.09-6.31.38-9.41-.44a3.87,3.87,0,0,1-1.34-.83c-.82-1-1.44-2.48-2.88-2.45-4.31.06-6.09-3.26-8.41-5.94a18.37,18.37,0,0,1-3.15-3.21c-2.81-4.59-6.8-6.49-12.14-6.07-2.22.18-4-1.11-5.84-2.4-5.27-3.68-10.54-7.52-17.72-5.66-2.38.61-5,.22-7.47.22q-165.95,0-331.89,0a60.09,60.09,0,0,1-10.47-.51,8.93,8.93,0,0,0-7.5,1.7,6.94,6.94,0,0,1-8,.68,3.54,3.54,0,0,1-1-3.57c4.26-4.92,10.05-6.17,16.07-5.94,4.32.17,8.63.5,13,.5H321.86a89.55,89.55,0,0,0,11.46-.53c6.12-.8,11.36,2,16.58,4.53,5,2.39,5.76,2.41,8.93-2,2.5-3.47,8.34-3.33,12,1.15,4,4.88,9.85,5.17,14.86,7.51,1.28.6,2.61,0,3.7-.9a3.65,3.65,0,0,1,1.48-.72,2.88,2.88,0,0,1,2.15.73c1.22,1.38,2.13,3,3.55,4.26C398.52-59.68,399.65-57.26,401-55Z" transform="translate(99 99)"/><path class="cls-12" d="M401,70V99c-2.76-.42-2.22-2.91-2.76-4.61-.9-2.81-2.63-4.1-5.55-3.86-1.63.14-3,.62-2.91,2.61.18,4.09-2.43,5.14-5.75,5.19-11.77.16-23.55.18-35.33,0-2.61,0-4.85-.75-5.47-3.94-.78-4.07-3.44-5.05-6.88-2.7-1.08.74-1.88,1.89-3.2,2.33a20.55,20.55,0,0,1-6.43.6q-26.66,0-53.31,0c-2.47,0-5,.26-7.29-1.12-2.44-2.82-1.33-6.24-1.48-9.41a41.4,41.4,0,0,1,1.86-14c2-1.95,4.63-1.56,7.08-1.58,19.61-.17,39.21.23,58.82-.24,2.41-.06,4.42.36,4.84,3.09.47,3,2.31,4.12,5.16,4.23,3.76.14,5.43,2.34,6.2,5.91,1.13,5.27,2.91,6.71,8.19,6.9,6.47.22,13,.22,19.43,0,5.31-.19,7.22-1.69,8.18-6.87.73-3.94,2.72-5.92,6.64-6,2.72,0,4.19-1.2,4.74-4C396.45,68.1,398.37,67.54,401,70Z" transform="translate(99 99)"/><path class="cls-13" d="M334,401H-25c-3.65-1.11-7.34-2.13-10.63-4.18-.79-1.45-1.18-2.82.73-3.75,2.29-.82,4.83-1.1,6.82.07,4.49,2.63,9.29,2.23,14.09,2.23q170.21,0,340.4,0c3.15,0,6.34-.36,9.43.61C340,399.42,335.47,399.65,334,401Z" transform="translate(99 99)"/><path class="cls-14" d="M401,37V53c-.42.26-.86.72-1.33.61-8.8-2.1-10.77,4.07-12.81,10.38-2,6.11-2.41,6.16-9,5.79a150.28,150.28,0,0,0-23.91.15c-4.15.43-6.82-.65-7.64-5-.56-3-2.65-5.35-3.05-8.39-.27-2-1.71-2.68-3.53-2.86a52.86,52.86,0,0,0-5.48-.15H268.45a51.79,51.79,0,0,1-7.47-.28c-3.84-.81-5.92-3.88-8.31-6.52-1-1.16-1.49-2.58,0-3.9,2.18-1.59,4.72-1.37,7.19-1.38q39.29,0,78.59,0c2.81,0,5.67-.09,8.07,1.8a7.9,7.9,0,0,1,1.3,1.22c2.34,3.27,1.42,7,1.61,10.65.16,3.17.93,4.11,4.62,3.37a61.72,61.72,0,0,1,25.25.08c3.41.74,4.25-.17,4.35-3.14.12-3.65-.27-7.34.83-10.92,0-1,.07-2,.12-3,.16-3.83.92-7.28,5.29-8.51C394.39,31.73,398.09,33,401,37Z" transform="translate(99 99)"/><path class="cls-15" d="M401,70c-2.09-.47-4.55-1.46-4,2.39s-1.27,5.11-4.85,4.62c-4.29-.59-6.44.72-6.31,5.65.12,4.45-3.18,7.22-7.82,7.3q-11.49.21-23,0c-4.86-.08-8-2.88-7.92-7.73,0-4.35-1.78-5.74-5.7-5.22S335.33,76.39,336,72c.17-1.24.21-2.55-2-2.45-22.3,1.07-44.61.23-66.91.49-2.12-2.51-1.18-5.56-1.52-8.39a2.11,2.11,0,0,1,1.09-1.35c2.05-.92,4.23-.76,6.38-.77,21,0,41.92.06,62.88-.06,5.18,0,9,.9,10.38,6.84.59,2.54,3.17,4.47,3.79,7.37.44,2,2.5,1.9,4.17,1.89,8.31,0,16.63-.1,24.94,0,1.5,0,3.44.1,3.79-1.64.62-3.06,2.74-5.21,4-7.83,3.37-6.95,7-8.38,14.07-5.1Z" transform="translate(99 99)"/><path class="cls-16" d="M401,61c-2.16,0-4.33.12-6.48,0-3.52-.25-6,.53-5.56,4.8a2.48,2.48,0,0,1-1.56,2.85c-2.69.74-2.54,2.75-2.38,4.74.29,3.57-1.7,4.06-4.64,3.92a254,254,0,0,0-27.87,0c-3,.17-4.84-.59-4.53-4,.18-2,.2-4-2.47-4.71a2.39,2.39,0,0,1-1.32-1.88c.59-6.41-3.74-5.69-7.82-5.68q-35.14.06-70.3,0a2.89,2.89,0,0,1-.94-.9A13.21,13.21,0,0,0,261.91,56a12.39,12.39,0,0,1-.94-1c-.64-.92-1.61-1.74-1-3.06,26.32,0,52.64,0,79-.06,3.91,0,6.22.5,6.21,5.33,0,3.63,3.3,6.57,3.53,10.51.08,1.25,2.08,1.21,3.48,1a105.65,105.65,0,0,1,28.75,0c1.4.19,3.38.17,3.42-1.14.13-3.82,3.52-6.62,3.44-10-.13-5.51,2.68-5.9,6.86-5.74A40.28,40.28,0,0,1,401,53Z" transform="translate(99 99)"/><path class="cls-17" d="M334,93a7.54,7.54,0,0,1,10.45-3.23c1.13.7,1.88,1.46,1,2.78-2.77,4,0,4.41,3,4.43,9,.06,17.94,0,26.91,0,3.32,0,6.65.11,10,0,2.66-.12,4.9-.8,2.53-4.14-1.63-2.31.31-2.94,1.82-3.49,6.08-2.22,9.62,0,10.37,6.51.13,1.14-.11,2.36,1,3.16v18c-3.86-3.17-3.23-8.26-5.23-12.23a11.2,11.2,0,0,1-.41-2.45c-.26-1.2-.65-2.26-2.15-2.32-1.71-.06-2.33,1-2.52,2.49a69.58,69.58,0,0,0-.21,9.47c0,4-1.64,5.81-5.7,6.69a84.55,84.55,0,0,1-37.52-.19c-3.19-.73-4.53-2.39-4.66-5.44a41.39,41.39,0,0,1,0-6.49c.54-4.62-1.15-7.31-5.94-7.73C334.55,97.41,334.43,95.13,334,93Z" transform="translate(99 99)"/><path class="cls-18" d="M401,131v18c-2.82.25-3.61-1.77-4.12-3.88a57.3,57.3,0,0,1-1.22-7.28c-.19-1.75,0-3.93-2.54-4.09s-2.53,2-2.78,3.78-.28,3.32-2,4.27c-3.37,1.23-6.88.82-10.32.74-11.05-.26-22.13.8-33.15-.61a3.42,3.42,0,0,1-1.46-1.17c-1-1.82-.81-3.86-1.06-5.83-.19-1.49-.29-3.06-2.11-3.59-1.57-.46-2.52.55-3.37,1.58-2.33,2.85-5.48,3.58-8.93,3.59-19.46.05-38.92.1-58.38,0-6.32,0-7.5-1.7-6-7.48,2.26-1.93,5-1.47,7.63-1.47,17.13,0,34.26-.24,51.38.08,6.34.12,11.58-.18,12.39-8,2.29-2.51,5.12-2.16,7.81-1.08,2,.8,3.78,2.08,5.93,2.56,1,.23,2.46,1.26,2.14,1.76-2.25,3.49,1.88,4.46,2.45,6.76a2.42,2.42,0,0,0,2.52,1.93c7.26.21,14.51.2,21.77,0a2.42,2.42,0,0,0,2.18-1.7,5.56,5.56,0,0,1,.91-1.14c.4-.27.84-.65,1.29-.61,4.86.44,6.54-2.13,6.32-6.57a2.58,2.58,0,0,1,1-1.17,9.84,9.84,0,0,1,7.24-.07,2.64,2.64,0,0,1,1.1,1.12C398.72,124.63,397.7,128.57,401,131Z" transform="translate(99 99)"/><path class="cls-19" d="M401,225c-1.63-2.64-3.35-5.19-3.06-8.6.23-2.69-1.78-4.35-3.9-5.25-2.56-1.07-4.86-.84-5.08,2.93-.15,2.56,1.39,6.08-1,7.5a30.1,30.1,0,0,1-11.84,4.23c-6.39.69-12.92.35-19.39.12-4.15-.14-7.74-2.64-11.38-4.21-3-1.31-.86-5.73-1.37-8.72-1.88-2.58-1.79-5.23-.3-7.94,2.08-1.87,4.67-1.5,7.13-1.52,10-.06,20-.08,30,0,3.86,0,7.17-.22,6.7-5.44a2.58,2.58,0,0,1,2.05-3,17.85,17.85,0,0,0,7.39-3.53c2.55-1.95,2.78,2.06,4.05,3.43Z" transform="translate(99 99)"/><path class="cls-20" d="M389,141c0-1.67.13-3.34,0-5-.28-3,.9-4.12,4-4.09s3.85.91,4.19,4c.52,4.51-1.05,9.85,3.86,13.12v24a1.69,1.69,0,0,1-2.32,0c-1.6-2.61-1.09-5.81-2.52-8.53-1.25-2.36-2.71-3.09-5.2-2.05-14.9,6.21-30.09,5.17-45.33,1.63-2.71-.63-5-2.6-7.83-3a3.2,3.2,0,0,1-2.05-2,35,35,0,0,0-1.72-4.17c-.89-3,0-6,.38-8.9.89-6.4,3.43-7.66,9.59-4.87,3,8.07,9.28,10.67,17.26,10.57,3.33,0,6.74-.49,10,.1,5.89,1.07,10-2.76,14.82-4.65C388.45,146.08,387.13,142.61,389,141Z" transform="translate(99 99)"/><path class="cls-21" d="M401,37c-1.82-1.06-3.37-2.57-5.58-3-7.37-1.27-9.42,1.1-9.42,11-1.83.81-2,2.39-2,4.13,0,2.15.06,4.31,0,6.46-.06,1.43.25,3.25-1.71,3.65-1.65.33-2.19-1.24-2.75-2.38-1.09-2.19-3.06-2.32-5.07-2.35-5.13-.08-10.26,0-15.39,0-2.64,0-4.92.43-6.06,3.25a2,2,0,0,1-2.26,1.54c-1.45-.27-1.6-1.51-1.67-2.68-.12-2.32-.06-4.63-.05-6.95,0-1.85.1-3.71-2-4.63a12.51,12.51,0,0,1-1.45-3.69c-1.24-5.32-3-6.74-8.33-5.26-5.73,1.59-11.48,1.49-17.28,1.5H245.22c-3.12-.08-5.55-1.12-6.22-4.56,2-1.23,4.15-1,6.3-1q41.43,0,82.84,0c3.51,0,7.56,1.25,8.65-4.65.47-2.49,4.43-1.25,6.8-1.14,1.84.08,2.51,1.39,1.75,3.22s.32,2.88,1.47,3.89a8.48,8.48,0,0,1,3.33,6.85c0,2.77,2.13,3.88,4.82,3.87h23c1.17,0,2.69.16,3.23-.88,2.32-4.47,5-8.9,6.29-13.69.58-2.1.66-3.48,2.83-3.34s5.81-1.48,6.27,2C397,31.35,398.41,32,401,32Z" transform="translate(99 99)"/><path class="cls-22" d="M336,253c2.47-1.79,3.65.13,3.84,1.9.3,2.86,0,5.67,3.57,6.81.4.13.64,1.52.54,2.27-.48,3.85.93,5.67,5,5,.63-.1,1.73-.11,1.91.22,3.4,6.38,9.35,3.05,14.18,3.68a57.12,57.12,0,0,0,9,.05c2.83-.09,5-1.17,7.66-2.62,4.1-2.25,7.91-2.71,8.43-8.7.12-1.29,2.94-3.87,3-6.77.06-1.93,1.77-2.55,4.1-3.32-1.59,6.49,2.9,11.85,1.86,18.06A4.72,4.72,0,0,0,401,274v15c-2.56.28-2.93-1.67-3.17-3.41a26.94,26.94,0,0,0-1.62-5.59c-1-4.11-.5-8.24-.19-12,.14,4.4-4.74,6.93-5.34,11.54-.2,1.58-2.69,1.62-4.35,1.77-2.81.24-4.77,1.2-4.64,4.54.11,2.69-1.9,3.3-4,3.36-7.48.2-14.95.22-22.42,0-2.14-.06-4.08-.73-3.93-3.43.16-3.05-1.56-4.21-4.21-4.39-3.32-.23-4.46-2-6.2-5-2.84-4.85-3.93-10-5.82-15.08C335.16,258.55,334.32,255.63,336,253Z" transform="translate(99 99)"/><path class="cls-23" d="M399,173h2v22c-1.55-.53-1.94-2.18-3.46-3.95-.14,4.64-2.6,5.55-6,4.95-2.76-.47-2.93,1-2.54,3.19.79,4.39-.77,6.06-5.57,5.93-13.12-.35-26.26-.12-39.39-.12l-.58-.6a8.88,8.88,0,0,1,0-7.11c1.13-1.56,2.91-1.34,5.28-1.75-4.71-.59-8.95.35-12.6-2a2.93,2.93,0,0,1-.87-1.36c-.25-1.54-.18-3,1.33-3.89,2.37-1,4.89-.8,7.36-.81,14.93,0,29.87,0,44.8,0,6.34,0,6.61-.38,6.76-6.82.05-2.47-.28-5,1-7.3A1.7,1.7,0,0,1,399,173Z" transform="translate(99 99)"/><path class="cls-24" d="M381,129v1a6.11,6.11,0,0,1-4.1,1.46q-10.39.07-20.79,0A6.12,6.12,0,0,1,352,130c-.26-4.4-4.51-2.06-6.29-3.57-.27-.85.19-1.07.64-1.26,1.34-.58,4,.58,3.79-1.89-.13-1.79-2.65-.71-3.76-1.38-3.23-2-6.44-3.62-10.38-2.9-2.29-2.63-1-5.85-1.45-8.79a90.14,90.14,0,0,1,.2-9.86A3.67,3.67,0,0,1,336,98a15.9,15.9,0,0,0,2.49,0c4.33-.68,6.28,1,5.53,5.45a10.36,10.36,0,0,0,0,2.49c.24,3.44-1.57,8.28.79,10,3.11,2.27,7.92,2.68,12.06,3,6.45.45,12.95.08,19.43.14,3.83,0,7-2.8,11-2.23,1.68.24,1.67-1.71,1.68-3,0-4,.17-8,0-12-.17-3.26,1.39-3.87,4.21-3.85,2.67,0,4,.71,3.87,3.65-.32,5.54,3.43,10.07,4,15.41v12c-2.36.56-3.47-.54-3.43-2.79,0-1.46.67-2.94-.57-4.21v-1c-2.67-1.65-5.33-1.4-8,0v1c-.58,1-4.94.74-.9,3.37,1.27.82-.43,2.28-1.86,2.52C384.48,128.19,382.55,127.67,381,129Z" transform="translate(99 99)"/><path class="cls-25" d="M-96,343c-2.32-2.94-1-6.95-3-10v-3a5.21,5.21,0,0,0,1-2.45c.34-11.43.53-22.85.68-34.28.22-15.92-1-31.88,1.24-47.75.84-2.17.55-4.54,1.13-6.75.2-.74.45-1.67,1.51-1.63s1.28.93,1.48,1.68c.51,1.88.36,3.93,1.45,5.67,1.57,3.52.75,7,.09,10.6a22.73,22.73,0,0,0,0,6.38c.22,10.48-.29,20.95,0,31.42,0,9.05.09,18.11,0,27.15-.65,4.65-.67,9.43-2.31,14.12-2.27-.9-1.39-2.54-1.64-4.2-.63,3.87,2.51,6.44,1.84,9.84a5.55,5.55,0,0,1-1,3.19A1.76,1.76,0,0,1-96,343Z" transform="translate(99 99)"/><path class="cls-26" d="M-98,329l-1,1V-16a1.25,1.25,0,0,1,1.66.58c1.77,9.05.74,18.19.66,27.28-.1,11.76-.36,23.52-.51,35.28-.15,13.11-.29,26.23-.3,39.34,0,7.47.78,14.92.49,22.39.2,18.57.58,37.13.44,55.69a69.51,69.51,0,0,1,0,8.66c-.07,10.62,0,21.24,0,31.86-.09,19.3.2,38.61-.43,57.91-.26,16.41.46,32.83-.46,49.25C-97.77,317.81-96.25,323.45-98,329Z" transform="translate(99 99)"/><path class="cls-27" d="M-11-99H325a1.12,1.12,0,0,1-.46,1.57c-2.68,1.33-5.55.78-8.36.85q-159.17,0-318.31,0c-2.82-.09-5.71.5-8.4-.84A1.14,1.14,0,0,1-11-99Z" transform="translate(99 99)"/><path class="cls-28" d="M381-43c3.81,0,7.63.25,11.41-.07,4.19-.35,6.36.76,5.61,5.38A5,5,0,0,0,401-32v6c-1.42-.8-2.44-.75-3.88.49-3.2,2.78-6.31,2.08-8.29-1.54A3.1,3.1,0,0,0,385.69-29c-3.76.32-5.08-1.55-4.69-5C381.59-37,378.19-40,381-43Z" transform="translate(99 99)"/><path class="cls-8" d="M381,330a4.26,4.26,0,0,0,4-1.52c.59-.75,1.51-1.61,1.49-2.39-.05-1.28-1.43-1-2.37-1.08-1.56-.07-3.13-.11-3-2.29s1.6-2.7,3.44-2.7c3,0,6-.2,8.91,0,2.79.23,5,1.21,4.73,4.86-.2,2.39,1.2,4.36,2.8,6.08v18a1.72,1.72,0,0,1-2.09.19c-.86-6.13-.6-12.41-2.82-18.38-1.85-5-2.55-5.28-6.55-1.65-1.66,1.38-3.15,2.81-3.66,5.11-.31,1.39-.92,2.92-2.86,2.93-1.3-1.22-1.76-2.92-2.62-4.4A2.6,2.6,0,0,1,381,330Z" transform="translate(99 99)"/><path class="cls-1" d="M386,1c-.08-1.24.71-2.33,0-3.78a2.68,2.68,0,0,1,2.26-4c4-.25,7.69-.58,10.38-4.07.33-.42,1.58-.13,2.4-.16V1C396,1.39,391,3.35,386,1Z" transform="translate(99 99)"/><path class="cls-29" d="M393,377c-5.62,7.92-12,15-20.79,19.56-1.64.85-3.92,1.92-4.24,4.41H357c-1-1.61-.07-2.24,1.32-2.64,6.64-.15,11-4.88,15.75-8.4a73.56,73.56,0,0,0,9.12-8.15c1.69,0,1.4-1.45,1.76-2.42,1.12-3,3.35-4.31,6.49-4.26C392.36,375.43,393.37,375.67,393,377Z" transform="translate(99 99)"/><path class="cls-30" d="M334,401c.43-1.76,3.09-1.85,3-4,3.33-2.54,6.77-4.63,11.27-4.1,2,.23,3.34-1,4.39-2.67,1.2-1.91,2.79-2.86,4.87-1,1.51,3.61-.24,5.46-3.49,6.51-3.67,1.76-7.76,2.66-11,5.26Z" transform="translate(99 99)"/><path class="cls-31" d="M-37,401h-6c-3.69-2.44-7.72-4.26-11.56-6.43A88,88,0,0,0-62.85,387c-2.42-1.92-5.29-4.09-4.3-8a2.62,2.62,0,0,1,3.16.87c2.79,3.87,7.47,5.74,10.34,9,3.4,3.86,7.81,4.56,11.65,6.85C-38.74,395.94-36,396.74-37,401Z" transform="translate(99 99)"/><path class="cls-32" d="M397,305v-7c1.33-1.22,2.67-1,4,0v23c-1.26-1.18-3.85-1.55-1.76-4.43,1.34-1.84-1-2.65-2.24-3.57C395,310.33,395.15,307.67,397,305Z" transform="translate(99 99)"/><path class="cls-33" d="M401,367a15.08,15.08,0,0,0-5.07,8c-1.65.42-1.95-.94-2.54-1.92-.75-2.19.62-3.76,1.55-5.5,1.05-2,2.6-3.91,1.26-6.38a5,5,0,0,1,.28-1.38c1.48-1.61,1.57-4.55,4.52-4.78Z" transform="translate(99 99)"/><path class="cls-34" d="M401,298h-4c-1.93-2.32-1.27-5.1-1.41-7.74.13-3.22-.54-6.5.79-9.62L397,280a5.67,5.67,0,0,1,2,4.86c-.05,1.74.16,3.33,2,4.14Z" transform="translate(99 99)"/><path class="cls-35" d="M-37,401c-.71-3.26-2.66-4.68-6-4a1.7,1.7,0,0,1,0-2.29c3.47-2,5.81-.06,8,2.29,4.24-.92,6.77,2.4,10,4Z" transform="translate(99 99)"/><path class="cls-35" d="M343,401c1.7-4.72,6.6-4.11,10-6,1.25-.82,2.59-.47,3.91-.31a2,2,0,0,1,.48,2.13A54.2,54.2,0,0,1,350,401Z" transform="translate(99 99)"/><path class="cls-36" d="M350,401c1.84-2.2,3.28-5.09,7-4,1.65-3.19,3.86-5.16,7.71-3.45,0,3.77-3.09,4.39-5.71,5.46a1.83,1.83,0,0,0-2,2Z" transform="translate(99 99)"/><path class="cls-37" d="M-53,401c.06-2.16-1.59-1.93-3-2.11-.48-2.31-5.14-2.87-2.71-6.42a2.64,2.64,0,0,1,3.19.81,29,29,0,0,0,8.91,5.79c.88.38,2,.54,1.56,1.93Z" transform="translate(99 99)"/><path class="cls-38" d="M-45,401a32,32,0,0,1-11-7,1.35,1.35,0,0,1,2,0c4.09.23,6.41,4.42,10.5,4.75.22,0,.33,1.47.5,2.25Z" transform="translate(99 99)"/><path class="cls-39" d="M401,355c-1.86,1.25-1.67,4.13-4,5a2.72,2.72,0,0,1-.89-1.25,10.4,10.4,0,0,1,.06-5.37c.65-1.65,1.2-3.36,2.83-4.38h2Z" transform="translate(99 99)"/><path class="cls-40" d="M-98-16h-1v-3c2-3.38.3-7.79,3-11l.5.5a5.92,5.92,0,0,1,.63,2.77c-.07,1.18-.18,2.36-.36,3.53a18,18,0,0,0-.52,2.82C-96-18.64-95.95-16.78-98-16Z" transform="translate(99 99)"/><path class="cls-18" d="M397,122c1.09.56,2.21,1.33,1.59,2.64-1.31,2.74.56,3.5,2.41,4.36v2C395.41,129.89,397.41,125.41,397,122Z" transform="translate(99 99)"/><path class="cls-41" d="M334-99c1.17,1.92,3.84.06,5,2a7,7,0,0,1-2.88,1.19,9.44,9.44,0,0,1-4.59-.5,1.52,1.52,0,0,1-.84-1.18c.24-1.3,1.71-.74,2.31-1.51Z" transform="translate(99 99)"/><path class="cls-42" d="M333-99A2.24,2.24,0,0,1,331-98c-2,1.47-4,1.68-5.92-.09l0-1Z" transform="translate(99 99)"/><path class="cls-43" d="M-24-98c1.38-.15,2.95.46,4-1h1c.6.76,2,.23,2.31,1.42a1.39,1.39,0,0,1-.76,1.21,7.48,7.48,0,0,1-3.82.56C-22.5-96.14-24.11-96-24-98Z" transform="translate(99 99)"/><path class="cls-42" d="M-16.94-98A2.25,2.25,0,0,1-19-99h8l0,1C-13-96.28-14.95-96.49-16.94-98Z" transform="translate(99 99)"/><path class="cls-44" d="M388,13c-1.55,3.15-6.25,4.61-4.67,9.62.37,1.18-2.61,2.31-4.47,2.33-8.3.07-16.61.2-24.9-.09-2.47-.08-5.31-.67-4.25-4.9.89-3.5-4.22-3.85-4.71-7Z" transform="translate(99 99)"/><path class="cls-2" d="M343,13h-6Q340,8.73,343,13Z" transform="translate(99 99)"/><path class="cls-1" d="M386,9c.33-1.33.67-2.67,1-4,.95.08,2.24.16,2.28,1.22C389.37,8.3,387.12,8.08,386,9Z" transform="translate(99 99)"/><path class="cls-1" d="M385,5c-.89-.21-2.35.92-2.53,0-.3-1.54,1.31-2.28,2.53-3Z" transform="translate(99 99)"/><path class="cls-12" d="M-94,125c2.14-4,.66-8.4,1-12.59.25-3.79,0-7.61,0-11.41,2.64-2.1,2.47-5,1.86-7.77A9.4,9.4,0,0,1-88.65,84a10.72,10.72,0,0,0,3.16-7.63c0-4.19,2.32-5.94,6.34-5.91,2,0,4,0,6,0,63.89,0,127.78-.12,191.67.15,7.45,0,13.23-1.73,17.86-7.58a50.91,50.91,0,0,1,6.75-6.62q3.7-3.54,7.39-7.13c1.25-1.22,2.38-2.79,4.5-2.47,1.44,2.4-.46,3.76-1.78,5.09q-19.68,19.85-39.5,39.53a8.93,8.93,0,0,1-5.66,2.9,73,73,0,0,1-9,.25H-72.35c-1.67,0-3.34,0-5,0-7.39.06-7.31.08-8.54,7.23-.55,3.18-.08,6.82-3.31,9,.27,1.81-2.94-2.11-1.85,1.14.56,1.68.31,3.46.45,5.2.07,1.4,0,2.8,0,4.21.14,2.94.08,5.89,0,8.84.92,10.45-1.25,20.8-1.14,31.22A4.14,4.14,0,0,1-93.16,165a1.22,1.22,0,0,1-1.56-.7c-1.46-7.39-.39-14.85-.66-22.27-.14-4-.05-7.95,0-11.93C-95.37,128.3-95.38,126.46-94,125Z" transform="translate(99 99)"/><path class="cls-15" d="M145,56q-7.11,7.35-14.22,14.7c-1.77,1.83-4,1.28-6.13,1.28Q23.94,72-76.76,72c-6.9,0-7.06,0-7.16,6.72,0,2.73-1.43,4.37-3.21,5.87-2.85,2.4-3.72,4.9-2.44,8.74,1,2.89,2.61,7.35-3.43,7.67V76c.3-.27.59-.56.87-.86.55-2.54-.58-5.39,1.45-7.66a11,11,0,0,0,1.09-2.24c2.43-8.19,5.84-10.82,14.35-10.83q67.89,0,135.77,0,38.19,0,76.37,0C139.66,54.43,142.62,53.84,145,56Z" transform="translate(99 99)"/><path class="cls-14" d="M-91,69c0,2.31-.1,4.62-.18,6.92,0,.09-.23.24-.36.25A1.43,1.43,0,0,1-92,76a110.51,110.51,0,0,1,0-23c.29-3.33-1.44-7.29,3.56-9.07,1-.33,1.37-3.33,1.33-5.08C-87.2,34.94-85,34-81.77,34h3c92.41,0,184.81-.31,277.21.34,13.61.09,27-2.16,40.57-1.34l5,4c2.22.53,3.53,2.17,4.64,4,.67,1.07.84,2.16-.86,2.51-2.92-.39-4.5-2.71-6.36-4.54a11.13,11.13,0,0,0-9.51-3.37c-21.31,2.37-42.66,4.32-64,6.66-3.76.41-7,2.06-10.44,3.23a41.13,41.13,0,0,1-11.38,1.16q-107.46,0-214.91,0a36.25,36.25,0,0,1-5,0c-6.43-.88-10.26,1.68-12.39,7.92C-87.82,59.3-89,64.29-91,69Z" transform="translate(99 99)"/><path class="cls-45" d="M-98-16a8.91,8.91,0,0,0,1-5c.33-.11.76-.15.87.07.65,1.27,1.25,1.56,2.09.91.33,1,.67,2,1,3V11.87l-.86,0V-9.69H-95V13c-1.64,1.47-1.08,3.45-1,5.16.77,10.55-.14,21.14-.47,31.62C-96.88,64.2-96.51,78.6-97,93c1,5.11.27,10.27.42,15.41a.85.85,0,0,1-1.37.56Q-98,46.49-98-16Z" transform="translate(99 99)"/><path class="cls-46" d="M-97,109q0-8,0-16c1.63,1.46,1,3.41,1,5.15.06,9,0,17.89,0,26.84,1.41,1.72,1,3.78,1,5.72.13,10.9-.17,21.8.16,32.7A4.35,4.35,0,0,0-94,165h0c2.06,2.46,1.28,5.28,1,8-1.35,6.17-.34,12.43-.65,18.64-.2,4.08.46,8.2-.48,12.26a2.64,2.64,0,0,1-1.22,1.31,1.53,1.53,0,0,1-1.38-1c-.78-9.91.07-19.86-.45-29.78A4.32,4.32,0,0,0-98,173v-8c1-2.56.44-5.24.45-7.85.07-14.42,0-28.84.06-43.25C-97.46,112.24-97.89,110.55-97,109Z" transform="translate(99 99)"/><path class="cls-47" d="M-95,109V54.23h1V109C-94.33,109.44-94.66,109.46-95,109Z" transform="translate(99 99)"/><path class="cls-48" d="M-95,109h1v56h-1c-1.07-11.7-.21-23.43-.45-35.14,0-1.62-.42-3.31.46-4.86Z" transform="translate(99 99)"/><path class="cls-49" d="M-95,125q0,20,0,40c-1.62-1.47-.95-3.42-1-5.17-.06-11.61,0-23.22,0-34.83Z" transform="translate(99 99)"/><path class="cls-50" d="M-92,53V76h-1c0-6.12,0-12.23,0-18.35C-93,56.06-93.52,54.29-92,53Z" transform="translate(99 99)"/><path class="cls-5" d="M-94,37c1.81,2.15.72,4.55,0,6.9V37Z" transform="translate(99 99)"/><path class="cls-45" d="M381-43c.28,2.28-.63,4.6,1.76,6.68,1.78,1.55-1.79,1-1.76,2.32q-12.24,0-24.48,0a16.12,16.12,0,0,0-3.32.28c-.17,5.67-6,4.83-8.52,7.64-2.87,3.25-6.2,2.86-8.81,1s-5.13-2-7.94-2q-203.09,0-406.17-.06c-4,0-7.6.28-10.12,3.87A3.17,3.17,0,0,1-91-22c-.37-1.89-1.33-3.59-1.68-5.49a1.87,1.87,0,0,1,2.58-1.72c9.36-2.14,18.86-1.39,28.31-1.39q192-.06,384,0a46.25,46.25,0,0,0,8-.29c1.13-.2,2.6-.35,2.67-1.75.08-1.65-1.55-1.43-2.6-1.57a46,46,0,0,0-6-.13H-69.72c-2.34,0-4.67.07-7,0-6-.3-7.1-1.79-6.09-7.9,1.37-2.16,3.45-2,5.56-1.69a4.14,4.14,0,0,1,1.3.59c5,4,5,4,9.39-.31a5.53,5.53,0,0,1,1.69-.52c2.84-.25,5.67-.15,8.5-.15,73,0,145.92.16,218.88-.06q90-.27,179.9-.1c10.49,0,21-.14,31.46,0C376.35-44.59,378.92-44.83,381-43Z" transform="translate(99 99)"/><path class="cls-11" d="M-76-43h-6c-.24.26-.6.54-.82.41-1-.64-2.06-1.69-1.72.81.77,5.7.48,10.94-6.46,12.78a2.06,2.06,0,0,0-1,2,4.94,4.94,0,0,1-2,2v4c-1.79.45-1.74-.93-2-2l.06-4a2.74,2.74,0,0,0,.46-4c.19-2.13,1-4.08,1.51-6.13L-93-39c-.07-2.24,1.49-3.92,2-6a2,2,0,0,0,1-2,14,14,0,0,1,2-4.1L-82-61c.91-1.4,2.13-2.57,3-4l1-1a1.64,1.64,0,0,1,1.32-.44c2.14,2.78,4.73,2.61,7.47,1.08a13.77,13.77,0,0,1,5.09-1.93c3-.35,5.08-2,6.83-4.49,4.45-6.27,9.89-6.09,13.74.42,1,1.76,2.42,2,4.19,1.88,1.46-.13,2.81-1.21,4.36-.53v3c1.1,4.24.14,6.19-4,6.29-7.06.17-14.1,1.13-19.27.71,7.73,0,17.35-.61,27-.6q99.9.08,199.8,0a36,36,0,0,0,10.86-1.19c2.84-.87,6.29-1.73,8.07,1.56,1.63,3-.91,5.27-2.82,7.35a23.61,23.61,0,0,1-2.15,2.09,4.45,4.45,0,0,1-3.73.39c-3.63-2.12-7.62-2.07-11.64-2.06l-228.87,0c-2.3,0-4.61-.16-7.28,0,3.68,1.3,4.69,3.61,3.51,6.92A6,6,0,0,1-67-43h0A7.43,7.43,0,0,1-76-43Z" transform="translate(99 99)"/><path class="cls-9" d="M366.26-19c-5.81,0-11.62.05-17.42,0-1.31,0-3.48.71-3.45-1.57,0-1.83,2-1.36,3.19-1.37q17.91,0,35.83,0c1.22,0,3.17-.47,3.2,1.36,0,2.29-2.13,1.57-3.44,1.58C378.2-18.95,372.23-19,366.26-19Z" transform="translate(99 99)"/><path class="cls-51" d="M-96-23l2,2v1l-1.67,2.15c-.61-1,0-2.46-1.29-3.13A2,2,0,0,1-96-23Z" transform="translate(99 99)"/><path class="cls-51" d="M-94-25a3.46,3.46,0,0,1,2-2,8.21,8.21,0,0,1,1,5C-92.31-22.69-91.81-25.19-94-25Z" transform="translate(99 99)"/><path class="cls-52" d="M158.33,44.12c3.86-3.66,8.91-3.33,13.62-3.84,19.67-2.12,39.37-4,59.05-6.11,4.61-.49,8.5.35,11.77,3.88a67.74,67.74,0,0,0,6,5.15h.7c4.29,3.85,8.17,8.13,12.34,12.1l-.13-.13c1.55,1.55,3.26,3,4.22,5a1.12,1.12,0,0,0,.15.8c0,.34,0,.67,0,1,.57,5.09,1.06,10.17-.36,15.21a12.6,12.6,0,0,0-.19,4c.4,10.24-.17,20.47-.1,30.71a101.19,101.19,0,0,1-1.69,16.76,6,6,0,0,0-.19,2.46c2.19,7.69-2.75,12-7.57,16.48-8.07,7.27-15.45,15.27-23.2,22.87-4.46,4.28-8.78,8.71-13.13,13.09-3.75,3.63-7.4,7.34-11.06,11.06-5.37,5.26-10.65,10.61-15.94,15.94-3.18,3.05-6.21,6.24-9.38,9.29-1.26,1.21-2.28,2.86-4.37,2.8a19,19,0,0,0-5,4.91,186.61,186.61,0,0,0-15,15.05,193.38,193.38,0,0,0-16,16c-.71,2.76-2.67,4.53-4.85,6.14-2.82,1.74-5.73,2.9-9,1.28-2.87-1.67-5-4.24-7.49-6.36-4.94-5.09-10-10.06-15-15.06-3.15-3.24-6.2-6.59-10-9.1-8.72-8.19-16.48-17.34-25.75-24.95-7.37-6.38-13.38-14.19-21.18-20.11-3.88-3.38-7.45-7.08-11-10.81-4.61-4.87-4.49-9.53.06-14.44,3.83-4.13,8.27-7.66,11.6-12.26,1.3-1.68,2.88-3.1,4.32-4.65C69.33,133.57,84.07,118.74,98.87,104a24.19,24.19,0,0,0,3.49-4.2c2.34-2.58,4.44-5.46,7.93-6.66,15.36-15,30.49-30.24,45.09-46C155.45,45.22,156.94,44.72,158.33,44.12Z" transform="translate(99 99)"/><path class="cls-53" d="M122.12,258.67l6.91,6.48c3.48,2.54,6.29,1.17,8.86-1.53l5-5c.69,3.61,3.59,2.32,5.64,2.32q80.67.09,161.35.05c6.16,0,12.33-.15,18.48.06,3.85.13,6.22-.76,5.69-5.21-.17-1.43.19-2.68,2-2.85v9l.06.83a11.73,11.73,0,0,1-.76,6.72c-1.27,2.8-3.73,3.63-6.51,3.9-2.49.24-5,.15-7.49.15q-180.23,0-360.46-.12c-12.31,0-24.62.27-36.93.14-8.12-.08-8,0-9.72,7.9-.49,2.31.13,4.68-.66,6.91,0,4.15-1.69,8.21-.74,12.42.61,2.21-.29,4.47.21,6.69a12.54,12.54,0,0,1-.12,4.65c-.69,2-.46,4.16-.59,6.25s-.26,3.94-2.52,4.79c-1.7.14-.91-1.7-1.77-2.23V293c1.62-4.95.62-10.23,2.09-15.29.77-2.65,1.1-5.41,2.49-7.88a28.38,28.38,0,0,0,.1-4c0-4.13,2.23-6,6.18-6.3,2.33-.16,4.66-.12,7-.12H111.18A50.77,50.77,0,0,0,122.12,258.67Z" transform="translate(99 99)"/><path class="cls-54" d="M397,290v8c-.63.19-1.78.33-1.8.58-.39,3.84-4.37,6.55-4.34,9.8.05,4.74-3,4.29-5.38,4.48-2.87.24-4.72.45-4.6,4.08.1,2.77-1.94,4-4.67,4.05H-21c-2.22,1.42-4.75,1.42-7.23,1.44-11,.06-21.95,0-32.92,0-3.81,0-7-.69-7.81-5.14-.48-2.54-2.56-2.63-4.57-3-6.15-1-7.48-3.65-5.17-9.86,4-1.44,8-1.78,11.93.47,1.23,5.69,5.09,6.55,10.33,6.53,45.31-.15,90.63-.1,136-.1q114.21,0,228.41.06c3.16,0,6.73-1.08,9.29,2a.54.54,0,0,0,.76.16c9.19-4.82,19-1.44,28.54-2.11,8.79-.61,17.66-.14,26.49-.12,3.22,0,6-.48,6.95-4.19.35-1.31,1.27-2.67,2.6-2.84,7.1-.93,8.14-6.92,10.23-12C393.62,290.37,394.28,288.5,397,290Z" transform="translate(99 99)"/><path class="cls-8" d="M-79,305c.29.77,1,1.66.82,2.3-1.51,5.47,1.91,5.79,5.78,5.7,3-.08,5.67-.27,4.89,4.42-.44,2.59,1.74,3.69,4.65,3.65,14-.16,27.91-.07,41.86-.07a29.09,29.09,0,0,0,7,7c1.89,1,3.93.49,5.89.49l382.21.05c2,0,4-.48,5.9.46l1,1v3c-2.54,2.26-5.67,1.6-8.6,1.61q-46.22.08-92.44,0H4.14c-3.5,0-7,0-10.48-.18-1.3.13-2.6-.1-3.89.08-18,0-36,.12-54.07,0-1.94-.4-3.71.43-5.54.82-3-.77-2.57-4.67-5.22-5.79-4.31-4.16-4.34-3.58-7.26,1.29-3.13,5.21-1.11,11-3.45,16.09-2.83.23-2.2-2.29-3-3.72a6.93,6.93,0,0,1-.05-2.36c.17-5.44,1.54-10.73,2.07-16.14.07-.66,0-1.52.39-1.9,4.11-3.58,2.16-8.09,2-12.32,0-2-.15-4.05,1.21-5.77A3.19,3.19,0,0,1-79,305Z" transform="translate(99 99)"/><path class="cls-8" d="M380,329q-193.91,0-387.82,0c-2.06,0-4.36.84-6.18-1H66.48q153.66,0,307.34,0C375.88,328,378.18,327.2,380,329Z" transform="translate(99 99)"/><path class="cls-8" d="M397,305v8c.35,2.85-.64,4.44-3.78,4-.93-.13-2.11.31-2.63-.76s.5-1.78,1.15-2.44c1.4-1.43,2.5-2.66,1.79-5.11S394.85,305.33,397,305Z" transform="translate(99 99)"/><path class="cls-55" d="M178.87,222.65a133.35,133.35,0,0,1,13-13.06,19.93,19.93,0,0,0,9.2,1.83q62.88,0,125.77,0c3.86,0,7-.14,8.33-5,.9-3.36,4.19-3.61,8.85-1.46v8c-4.5-.22-8.61-.65-8.29,6.3.15,3.27-2.16,5.85-6.86,5.83C280.58,224.92,232.3,225,184,225,182.07,225,179.42,226,178.87,222.65Z" transform="translate(99 99)"/><path class="cls-56" d="M-35-70c-5.64,3.54-7.13,3.08-10.24-3.21C-46-74.85-47.47-75-49-75c-2.74,0-5.58.11-6.79,3-1.66,4-4.54,6.07-8.81,5.92-2.93-.1-4.09,3.11-7.12,3.15-4.14.05-4.13.41-5.23-3.11-.47-2.41,1.78-2.78,3-4l3-4c1.88-1.11,3.19-2.93,5.08-4l2-1A8.31,8.31,0,0,1-61-82L-55-86c2.84-1.37,5.77-2.6,8-5,7.61-2.59,15.15-5.4,23.06-7,.7,1.23,1.91.94,3,1a2.91,2.91,0,0,1,.71.89,4.3,4.3,0,0,0,2.3.94c2.67.85,5.12,3.29,8.22,1.1a18.61,18.61,0,0,1,7.65.19c2.3.65,4.64.42,7,.42q152.1,0,304.19,0a27.89,27.89,0,0,0,7-.37,20.47,20.47,0,0,1,7.6-.36c1.43.27,2.72,1.08,4.08,1.39,1.09.24-.53-.48,0-.77a1.23,1.23,0,0,1,.68-.9,1.56,1.56,0,0,1,.44,0c.13,0,.23.13.35.21-2.07-1.47-1.09-2.3.7-2.4,2-.12,4.13.7,6.15-.28l3,0c-.52,1.33-.51,2.42,1.33,1.73a11.32,11.32,0,0,1,4.73-.71,12.88,12.88,0,0,0,4.86,1A28.83,28.83,0,0,0,361-91c2.22,2.38,5.16,3.59,8,5,1.54,2,4.61,1.72,6,4,1.39.92,2.58,2.12,4,3l1,1c1.84,1.15,3.18,2.92,5,4l3,4c1.17,1.18,3.42,1.55,3,4-1.92.69.29,3.46-1.35,3.54A11.76,11.76,0,0,1,383-63.89a12.16,12.16,0,0,0-6.37-2.23A6.42,6.42,0,0,1,371-69.78c-1.45-3.64-4.66-3.85-7.49-4.87-1.79-.65-3-.36-3.56,2-1.23,5-5.53,6.07-9.8,3.38-5.66-3.58-11.55-6.92-18.81-4.85a17.11,17.11,0,0,1-4.48.12q-169.95,0-339.92-.19c-6.64,0-13-.24-19.27,2.18A4.19,4.19,0,0,0-35-70Z" transform="translate(99 99)"/><path class="cls-51" d="M182-51c.14-2.69,2.59-3.72,4-5.51a3.29,3.29,0,0,0,.79-3.22c-.5-1.46-1.85-1-2.94-1.29-3.65-.87-6.3,2.16-10,2.15Q55.8-59.12-62.27-59c-1.28,0-2.56-.12-4.14-.2,1.14-2.91,3.25-3.21,5.39-2.58,7.79,2.31,15.46-1.06,23.23-.38C-34.73-61.9-35-64.85-35-67c3.33-.11,6.85.93,8.92-3.42.7-1.48,3.85-.91,5.66-.38,3.3,1,6.59.79,9.9.79q167.91,0,335.82,0a41.82,41.82,0,0,0,8.9-.71c2.65-.56,6.06-1.63,7.48,2.57.4,1.16,1.92,1.22,3.1,1.13,2.41-.18,4.18.19,4.54,3.17.18,1.47,1.8,2.11,3.16,1.79,9.8-2.31,13.95,4.7,18.52,11.06a4.33,4.33,0,0,1-4.67.87c-4.7-1.62-9.54-1.25-14.35-1.25H199.1c-4.32,0-8.66-.31-12.88,1.08A4,4,0,0,1,182-51Z" transform="translate(99 99)"/><path class="cls-28" d="M182-51c19.22-4.17,38.68-1.6,58-1.87,33.48-.47,67-.15,100.47-.12,10.21,0,20.49-.8,30.52,2,2.13,2.51,4.19,4.71,8.15,4.2,2.34-.3,1.67,2.28,1.85,3.8H-67v-2c2.74-2.23,6-1.6,9.13-1.6q111.09,0,222.17,0c1.83,0,3.67-.12,5.49,0,4,.31,7.2-.71,9.21-4.4Z" transform="translate(99 99)"/><path class="cls-57" d="M391-66l-3-4c2.46.18,3.68,1.61,4,4Z" transform="translate(99 99)"/><path class="cls-58" d="M393-65c1.65.85,2.88,2,3,4C394.37-61.84,393.11-63,393-65Z" transform="translate(99 99)"/><path class="cls-59" d="M253.91,147.76c8.2-6,9.33-14.5,9.5-24,.37-20.59,1.7-41.16,2.64-61.73,1.93,2.47.52,5.34,1,8-.57,7.65-1.4,15.3-1,23,3.08,4.59,0,9.37.42,14,.09,3.89.12,7.78,0,11.67-.05,3.6.44,7.32-2.39,10.27-.92,4.8,1,6.19,5.85,6.12,19.41-.27,38.82-.1,58.23-.12,3.51,0,7.07.22,8.11-4.56.48-2.22,2.73-1.46,4.24-1.29,1.89.2,3.53,1,3.52,3.4,0,2.82,0,5.64,0,8.46l-5.42,0c-1.53,0-2.62.61-2.52,2.3.24,4.28-1.67,8.37-1.06,12.68-1.23,3.46-4.29,2.49-6.68,2.5-19.92.12-39.84.07-59.76.06-5.14,0-10.29.13-15.43-.09-1.82-.07-3.85-.13-4.81-2-1.14-2.26,1.18-3.13,2.22-4.45S253.27,149.56,253.91,147.76Z" transform="translate(99 99)"/><path class="cls-60" d="M265.05,107c-.37-4.71,1.6-9.26,1-14h68c3.21.65,1.57,3.24,2,5v2a15,15,0,0,0-1.62,3.64,6.51,6.51,0,0,1-6.74,4.86c-19.32.14-38.64.1-58,0A6.39,6.39,0,0,1,265.05,107Z" transform="translate(99 99)"/><path class="cls-61" d="M-47.06-91c-1.71,3.19-4.57,4.53-8,5C-52.79-88.29-49.88-89.56-47.06-91Z" transform="translate(99 99)"/><path class="cls-62" d="M-91-45c.24,2.3-1.1,4.06-2,6C-94.37-41.73-92.21-43.21-91-45Z" transform="translate(99 99)"/><path class="cls-63" d="M-94-37.13-95.06-30a.55.55,0,0,1-1,0l0,0A10.19,10.19,0,0,1-94-37.13Z" transform="translate(99 99)"/><path class="cls-64" d="M-65.93-78c-1.3,1.84-2.54,3.76-5.08,4C-69.78-75.91-68.51-77.78-65.93-78Z" transform="translate(99 99)"/><path class="cls-65" d="M-74-69.95l-3,4h-1C-77.7-68.34-76.48-69.77-74-69.95Z" transform="translate(99 99)"/><path class="cls-58" d="M-79-65c-.09,2-1.35,3.15-3,4C-81.9-63-80.67-64.14-79-65Z" transform="translate(99 99)"/><path class="cls-66" d="M-88-51.07A5.47,5.47,0,0,1-90-47C-90.9-49.1-89.38-50.06-88-51.07Z" transform="translate(99 99)"/><path class="cls-67" d="M-61-82a6.19,6.19,0,0,1-2.93,3C-64-81.06-62.84-81.9-61-82Z" transform="translate(99 99)"/><path class="cls-68" d="M357,389c-1.14,0-2.92-.19-3.08.9-.77,5.32-4.54,4.56-8,4.07s-5.3,4-8.93,3q-178.65,0-357.29,0c-2.62,0-5.21.7-7.56-2.22-1.64-2.05-5.37-.46-8.15-.74a1.64,1.64,0,0,1-2,.32c-1-2.85-3.44-4.42-5.54-6.3a5,5,0,0,1-.49-1.54c-.08-2.22.35-4.08,3.07-4.31A9,9,0,0,1-35.84,384c4.33,4.73,9.88,6.56,16.09,6.57q176.67,0,353.35,0c6.11,0,11.84-1.53,16.08-6.45a37.24,37.24,0,0,1,6.52-3.44,3.16,3.16,0,0,1,3.71.3c1.27,1.27.78,2.75-.06,4.06S358.35,388,357,389Z" transform="translate(99 99)"/><path class="cls-69" d="M-38,394h2l1,3c-2.65-.75-5-2.8-8-2-5.19-.72-8.49-4.34-11.92-7.76-1.7-2.26-1.52-5.44-4.32-7.36-1.67-1.15-1.28-4-.37-6.05s2.86-2,4.69-2.08a9.31,9.31,0,0,1,3.9.57c6.14,5.13,14,6.65,21,9.85,1.61.73,4.25,1,2.88,4-3.7,1.19-6.76-.59-9.87-2.15a6.71,6.71,0,0,1-4-1c-1.64-1-3.34-.39-5.24-.62.56,2.31,2.24,3.22,3.24,4.62v1A13.25,13.25,0,0,0-38,394Z" transform="translate(99 99)"/><path class="cls-14" d="M248.79,43.2c-.7-2.76-3.73-3.72-4.79-6.2,1.65-1.73,3.78-1,5.68-1,25.49-.06,51-.22,76.45.12,4.64.06,8.58-2.13,13-2.17,7.09-.08,7.82.59,7.84,7.51V45a9.69,9.69,0,0,0-6.43-2q-41.64.12-83.27,0a9.78,9.78,0,0,0-5.3,1c-1.32.69-2.09-.78-3.23-.82Z" transform="translate(99 99)"/><path class="cls-14" d="M347,45c3-.25,3.06,1.7,3,3.87a59.15,59.15,0,0,0,.42,9.5C353.31,53,353.31,53,360.28,53h12.44c7,0,7,0,10.28,5.4,0-3.18.05-6.36,0-9.53,0-2.17,0-4.12,3-3.87-1.83,3.45-.76,7.17-1,10.76-.32,5-1.57,5.93-6,3.9-2.11-1-4.26-.78-6.34-.6-7,.59-14.06-1.48-21,1.61-3,1.32-3.45-2.08-3.69-4.42C347.63,52.51,348.87,48.61,347,45Z" transform="translate(99 99)"/><path class="cls-15" d="M248.77,43.18c1.23-.31,2.2.37,3.23.82a37.46,37.46,0,0,0,8,8l1.83,3.3A88.7,88.7,0,0,1,248.77,43.18Z" transform="translate(99 99)"/><path class="cls-12" d="M265.92,60.2c-2.1-1.1-2.92-3.26-4.22-5C264.06,56.05,265.76,57.47,265.92,60.2Z" transform="translate(99 99)"/><path class="cls-70" d="M264,129c.45-3.32,1.36-6.59,1-10,2.26-1.93,5-1.54,7.64-1.55q25.73-.06,51.46,0c4.33,0,8.46.21,9.32-5.57A2.25,2.25,0,0,1,336,110v9c.7,2.31-2.13,4-.58,7,.95,1.83-2.24,3-4.59,3-6,0-12,0-17.94,0Z" transform="translate(99 99)"/><path class="cls-71" d="M389,141c0,1.66.05,3.31,0,5a7.9,7.9,0,0,1-.52,2.24c-5-.74-7.17,5.09-12,4.86-5.78-.28-11.59,0-17.38-.08-3.2,0-6.81,1-8.42-3.25a1,1,0,0,0-.79-.52c-7.24,1-5.78-4.15-5.84-8.22Z" transform="translate(99 99)"/><path class="cls-18" d="M352,130h29c-.32,1.95-1,3.4-3.41,3.33-7.12-.18-14.24-.26-21.35-.32C354.06,133,352.21,132.7,352,130Z" transform="translate(99 99)"/><path class="cls-18" d="M381,129c1.19-3.1,4.5-1.2,6.4-2.62-.11-.36-.11-.74-.3-.93-1.34-1.31-5.18.67-4.58-2,.64-2.88,4.25-.85,6.48-1.41C389.73,129,389.73,129,381,129Z" transform="translate(99 99)"/><path class="cls-18" d="M389,121c2.67-2.7,5.33-3.39,8,0Z" transform="translate(99 99)"/><path class="cls-72" d="M-92,321a2.06,2.06,0,0,1,1,2,4.11,4.11,0,0,1,1.47,3.52c-.55,7.18,1.21,14.15,1.72,21.23a13.4,13.4,0,0,0,3.2,8.08,12.56,12.56,0,0,1,1.19,1.92c.52,1.12.87,2.3,1.34,3.44,1.15,3.87,4.43,7.08,3.67,11.56A9.36,9.36,0,0,1-81,376l-2-3c-4.15-9.82-8.75-19.51-9.9-30.32A5,5,0,0,0-94,340c.45-4-2-7.76-.43-12.75l.68,5.63.39,0Q-92.67,326.94-92,321Z" transform="translate(99 99)"/><path class="cls-73" d="M-94,340c.6.54,1.65,1,1.73,1.64C-90.8,352.59-85,362.24-83,373a25.48,25.48,0,0,1-6-10c-.21-1.28-.46-2.52-1.87-3.06A5.77,5.77,0,0,1-92,356c-.29-4.4-3.52-8.35-2-13Z" transform="translate(99 99)"/><path class="cls-74" d="M-61.09,394.06c-5.64-1.15-8.59-5.27-11-10,.06-.23.11-.47.17-.7.54-.9,1.72-2,2.29-1.46,3.78,3.33,9.15,5.3,10.11,11.19C-59.77,393.9-60.16,394.42-61.09,394.06Z" transform="translate(99 99)"/><path class="cls-75" d="M-72.1,384.09c-1-.21-2.2.13-2.76-1.13-.34-2.25-2.83-2.81-3.7-4.82s-.3-2.7,1.4-3.28c5.22,1,7.28,4.56,5.2,9.1Z" transform="translate(99 99)"/><path class="cls-76" d="M-94,343c.53,4.36,2.84,8.46,2,13a28.19,28.19,0,0,1-4-13Z" transform="translate(99 99)"/><path class="cls-77" d="M-77,376c-2.25.23-.69,1.2-.59,2.16.22,2.09,3.86,2.09,2.72,4.8-2.76-1.68-4.47-4.28-6.15-6.92,0-1.45-.06-2.94,2-3a2.53,2.53,0,0,1,2.4,1.08A1.8,1.8,0,0,1-77,376Z" transform="translate(99 99)"/><path class="cls-78" d="M-61.09,394.06-60,393a.59.59,0,0,1,1,0c-.28,2.64,4.81,2.49,3.06,5.88C-58.82,398.51-60.4,396.75-61.09,394.06Z" transform="translate(99 99)"/><path class="cls-25" d="M-90.9,360c2.56-.16,3.17.86,1.87,3.06C-89.66,362-90.28,361-90.9,360Z" transform="translate(99 99)"/><path class="cls-61" d="M369-86c-3.41-.49-6.28-1.82-8-5C363.83-89.56,366.77-88.34,369-86Z" transform="translate(99 99)"/><path class="cls-79" d="M385-74c-2.51-.3-3.78-2.16-5-4C382.53-77.74,383.8-75.9,385-74Z" transform="translate(99 99)"/><path class="cls-58" d="M379-79c-2-.12-3.14-1.38-4-3C377-81.93,378.14-80.65,379-79Z" transform="translate(99 99)"/><path class="cls-80" d="M349.92-95c-2,1.51-3.35-.12-4.86-1A7.44,7.44,0,0,1,349.92-95Z" transform="translate(99 99)"/><path class="cls-81" d="M253.91,147.76c.11,3-2.66,4-4.07,5.92-.47.64-1.22,1.47-1.1,2,.23,1.08,1.4,1.24,2.43,1.25s2.32,0,3.49,0q37.34,0,74.68,0c1.9,0,4,.76,5.66-1,2.08-1,4.18-1.59,6.34-.39.17,3.21-6.83-1.06-4.34,4.39a28.21,28.21,0,0,1-.28,12.5,3,3,0,0,1-1.36,1.31c-2.05.89-4.23.79-6.38.79q-45.14,0-90.26,0a33.6,33.6,0,0,1-4.48-.21c-3.05-.4-4.1-1.81-2.33-4.64A298.45,298.45,0,0,1,253.91,147.76Z" transform="translate(99 99)"/><path class="cls-82" d="M336,172c.38-4-.91-8.13,1-12,4.77-1.58,8.23,2.36,12.27,3.49,5.65,1.58,11.06,1.32,16.58,1.45,7,.17,14.15.62,20.95-2,.3-.11.67-.05,1-.17C397.1,159,399,160.41,399,171v2h-2c-4,.23-6.86,1.54-7,6.34-.09,2.56-2.3,3.95-4.64,4.65a64.08,64.08,0,0,1-37.65,0c-2.14-.64-4.51-1.87-4.48-4.15C343.26,174.68,339.8,173.31,336,172Z" transform="translate(99 99)"/><path class="cls-34" d="M336,262a3.37,3.37,0,0,1,2,3.67c-.22,3.6.83,6.56,4.15,8.42.72.4,1.74,1,1.35,1.85-2.43,5.18,1.67,3.8,4,4,3.58.37,6.46,1.13,4.89,5.85-.68,2,.94,2.14,2.31,2.15q11.75,0,23.48,0c1.33,0,3.14-.05,2.43-2.05-1.91-5.39,1.78-5.46,5.27-5.95,2.21-.3,6.47,1.12,3.6-3.93a.94.94,0,0,1,.19-.9c5.21-2.46,5.35-7.65,5.9-12.62l1.42.38V280h0c-.76,1.27-1.9,2.41-2,3.95-.32,5.16-3.43,7.19-8.26,7.45,1.34.92,3.87.5,3.48,2.92-.29,1.82-2.35,1.39-3.6,2-7.78,4-16.16,2.43-24.32,3.15-6.47.57-11.87-2.49-17.81-3.61-1-.19-2-.83-1.82-2,.28-1.94,2.14-1.76,3.78-2.4-4.73-.4-8.09-2.12-8.39-7.17-.12-2.06-2.18-2.86-2.84-4.57-.83-2.16-.49-4.43-.65-6.66a31.64,31.64,0,0,1,.86-5.12C335.81,266,335,263.91,336,262Z" transform="translate(99 99)"/><path class="cls-83" d="M207.89,193.71a79.53,79.53,0,0,1,11-11c35.55,1.48,71.11.26,106.66.72,3.5,0,6.82-1.67,10.34-.79,1.89,2.07,1.69,4.19.14,6.33v4a17.68,17.68,0,0,1-.66,2.9c-1.18,7.54-.48,9.74-12.15,9.71-37.22-.1-74.44,0-111.65-.05-2.32,0-4.69.23-6.93-.49-2.89-.93-3.66-2.68-1.74-5.26C204.44,197.69,206.92,196.32,207.89,193.71Z" transform="translate(99 99)"/><path class="cls-19" d="M207.89,193.71c.23,2.82-2.31,3.84-3.7,5.6-.83,1.05-1.95,2.15-1.42,3.5S205,204,206.3,204c7.84,0,15.67,0,23.5,0,32.32,0,64.65-.06,97,.07,4.2,0,6.82-.63,6.31-5.66A5.41,5.41,0,0,1,336,193c1.67,3.32,5.7,1.94,8,4v8c-1.5,0-3,.09-4.49,0-2.56-.19-3.78.84-3.51,3.45.42,4-1.91,4.62-5.25,4.61-21.81-.08-43.63,0-65.45,0H197.86c-2.63,0-5.62.58-6-3.4A174.2,174.2,0,0,1,207.89,193.71Z" transform="translate(99 99)"/><path class="cls-84" d="M336,189v-6a8.69,8.69,0,0,1,0-10v-1c1.33,0,2.67.11,4,0,3-.3,4.42.85,4,3.94-.6,4.51,1.6,5.89,5.84,7.34,9.18,3.11,18.39,1.25,27.55,1.56,3.08.11,6.24-1.69,9.33-2.74,2.12-.72,2.23-2.55,2.31-4.49.24-6.23,1.52-6.93,8-4.59v9.44c0,6.55,0,6.56-6.34,6.56Z" transform="translate(99 99)"/><path class="cls-83" d="M344,197c-2.95-.76-7.8,2.27-8-4a43.75,43.75,0,0,0,11.69,1c1.46-.05,3.59-.2,3.68,1.54.12,2.29-2.17,1.23-3.43,1.4A28.75,28.75,0,0,1,344,197Z" transform="translate(99 99)"/><path class="cls-85" d="M336,110a4.77,4.77,0,0,0-1.94,4.36c.64,4.48-1.91,4.7-5.34,4.69-21.24-.1-42.47,0-63.71,0q0-6,0-12c19.9,0,39.8-.07,59.69.08,4,0,7.53.13,8.77-4.78.23-.91,1.63-1.53,2.49-2.29Z" transform="translate(99 99)"/><path class="cls-77" d="M394,373l1.95,2c-.58,1.25-1.95,1.38-2.91,2.07a2.1,2.1,0,0,0-2-1c-1.2-2,.28-2.62,1.63-3.34A1.56,1.56,0,0,1,394,373Z" transform="translate(99 99)"/><path class="cls-19" d="M50.11,189.59a289.81,289.81,0,0,1,21,20c3.21,3.36,6.7,6.45,9.82,9.9,2.31,2.56,1.81,4-1.55,4.72a31.83,31.83,0,0,1-7,.31H-76.37c-8,0-9.49.77-8.21,8.2a10.2,10.2,0,0,1-.22,3.47c-1.43,7.24-1.13,14.86-4.63,21.67-.63,1.23-.46,3.1-2.57,3.1-.27-3.67.42-7.24.91-10.85.24-1.68.74-3.68-.91-5.15-.32-7.76-1.58-15.48-.77-23.26,2-2.6,2.13,1.15,3.51,1.12.57-6-1.22-12.15,1-18.05a13.07,13.07,0,0,0,1.77-5.67c.08-4,2.3-5.6,6.06-5.65,2,0,4-.05,6-.05q58.87,0,117.74,0C46.38,193.46,49.37,193.6,50.11,189.59Z" transform="translate(99 99)"/><path class="cls-86" d="M-92,221a135.36,135.36,0,0,1,0,24c-2.14-2-.1-4.87-1.5-7.09-1.4,2.22.64,5.1-1.5,7.09-1.65.06-2-1.2-1.88-2.33,1-12.48,1-25,2.39-37.51.71-8.7.75-17.44,1.11-26.16.2-4.74-.12-9.54,1.13-14.21,3.14-3.16,3.37-7.51,4.46-11.43s3.37-5.91,7.43-5.91c1.33,0,2.66,0,4,0q61.61,0,123.2,0c2.91,0,6.06-.73,8.52,1.69a12.47,12.47,0,0,1-4,4c-4,3.9-7.91,7.94-11.91,11.86-2,2-4,4-4.06,7.09,0,1.19-.91,1.66-1.89,2-2.63.67-5.3.47-8,.47H-77.32c-7.19,0-7.1.05-8.77,6.94-1.16,4.83-2.1,9.72-3.42,14.52.25,7-1.33,13.88-1,20.88A4.85,4.85,0,0,1-92,221Z" transform="translate(99 99)"/><path class="cls-6" d="M-92,261c2.65-6.89,5.12-13.83,5-21.37A2.86,2.86,0,0,1-86,237c2.73-2.24,6-1.6,9.11-1.6q81.07-.06,162.15,0a62.6,62.6,0,0,0,11.92-.79A73.34,73.34,0,0,1,107,244a24.09,24.09,0,0,0,1.46,2c1.11,1.56,3.38,2.85,2.43,5.08-1.08,2.55-3.8,2.38-6.1,2.43-7,.15-14,.06-21,.06-34.16,0-68.31.18-102.46-.07-19-.13-38,.31-56.93.1-8.78-.1-11.24,2.61-11.48,11.6-.07,2.28,1.55,4.54.06,6.8a46.34,46.34,0,0,0-2.57,13.73c-.09,2.45-1.57,4.85-2.43,7.27Z" transform="translate(99 99)"/><path class="cls-87" d="M-94,205c-.06,11.33.53,22.68-1.86,33.91-.41,1.91-.93,4.28.86,6.09-1.77,20.06-.07,40.22-1.35,60.24-.47,7.38,2,14.84-.69,22.08A13.24,13.24,0,0,1-98,329V263c.93-1.55.51-3.26.48-4.88-.32-16.13.6-32.25.53-48.38,0-1.61-.36-3.36,1-4.73h1l.5-.38Z" transform="translate(99 99)"/><path class="cls-88" d="M-96,205c.45,18.28-1.75,36.52-1,54.8.05,1.16.1,2.36-1,3.19q0-29,0-58a1.6,1.6,0,0,1,1-.56,1.62,1.62,0,0,1,1,.57Z" transform="translate(99 99)"/><path class="cls-89" d="M-97,109q0,25.41,0,50.8c0,1.75.66,3.7-.94,5.18q0-28,0-56C-97.63,109-97.32,109-97,109Z" transform="translate(99 99)"/><path class="cls-90" d="M-97,205h-1V173h1A212.31,212.31,0,0,1-97,205Z" transform="translate(99 99)"/><path class="cls-56" d="M-19-94c-.67-.66-2.45-.22-2-2,1.11-1.15,2.88.26,4-1,0-.32.05-.63.09-.94L-11-98-3-98c1.74.91,3.6.46,5.4.46q154.57,0,309.16,0c1.8,0,3.66.45,5.4-.46l8-.08L331-98c0,.31.07.63.09.94-8.37,4.1-17.37,3.42-26.26,3.42q-145.5,0-291,0c-10.48,0-21-.26-31.41-.9A2.86,2.86,0,0,0-19-94Z" transform="translate(99 99)"/><path class="cls-91" d="M317-98c-1.5,1.61-3.45.94-5.2.94Q157-97,2.22-97C.47-97-1.48-96.36-3-98Z" transform="translate(99 99)"/><path class="cls-92" d="M-74,329c3,.87,2.45,4.14,4,6,2.89,1.12,3.76,5.82,8,4.49,40.51-.16,81-.1,121.5-.08a28.4,28.4,0,0,0,4.88.12,37.17,37.17,0,0,1,5.48-.15q149.54,0,299.07,0c4.85,0,9.64,0,14-2.4,1.56-1.22,1.75-3,2.16-4.77A4,4,0,0,1,389,329c1.56,2.86-.64,5-1.59,7.27-2,4.77-4.77,9.18-7,13.88-2,1.38-3.05,3.41-4.23,5.43-2,3.44-4.27,3.55-6.26.11-1.4-2.43-3.23-3.09-5.7-3.1l-5.5,0c-96.63,0-193.25.13-289.88-.12-16.28-.05-32.57.49-48.85.1-22.62-.54-45.24.39-67.86,0-3.52-.06-6.74-.14-8.74,4-1.43,3-4,1.65-5.41-.66-1.28-2.16-2.35-4.39-4.49-5.84-2.28-5.74-5.57-11.05-7.6-16.91C-74.57,331.82-75.14,330.37-74,329Z" transform="translate(99 99)"/><path class="cls-93" d="M60,341H-64c-2.77-2.14-3.57-4.77-2-8h56c1.76.93,2.61,2.71,3.86,4.55C-6,335.63-7.81,334.61-7,333H381c2.68.33,1.81,2.43,2,4-1.46,3.37-4.05,4.08-7.61,4.08Q219.69,340.93,64,341C62.67,339.59,61.33,340,60,341Z" transform="translate(99 99)"/><path class="cls-94" d="M381,349c-.7-6.28,5.22-9.89,6.28-15.48A25.89,25.89,0,0,1,389,329c-.1-3.57,2.36-4,5-3.93s2.63,2.17,3.07,4.21c.8,3.66,1.78,7.23,2.36,11A20.72,20.72,0,0,1,399,349a5.47,5.47,0,0,1-2,4l-.53-.51c-1.25-2.69-.58-5.55-.78-8.34-.12-1.6.38-3.56-1.53-4.39s-3.9-.16-5.54,1.17c-2,1.62-3.06,3.88-4.15,6.13-.58,1.18-1.14,2.47-2.84,2.32Z" transform="translate(99 99)"/><path class="cls-95" d="M359,399a17.08,17.08,0,0,1,6-5c.12-2.87,2.42-4.44,4.36-5.48,5.19-2.78,8.28-7.36,11.53-11.9,1.37-.83,2.76-1.49,4.35-.57.55,2.19-.28,4.08-1.24,5.95-1.92,4.16-6.16,6.06-9.27,9-3.77,3.53-8.68,5.83-13.13,8.62A1.79,1.79,0,0,1,359,399Z" transform="translate(99 99)"/><path class="cls-96" d="M384,382c-.35-2.11.67-4,1-6-.05-2.46,2-3.55,3.34-5.06a4.94,4.94,0,0,1,3.13-1.32,1.68,1.68,0,0,1,1.1.73A5.85,5.85,0,0,1,393,373c-.6,1-2.16,1.45-2,3-3.55.53-5.59,2.33-5.37,6.17C385.67,383,385.51,383,384,382Z" transform="translate(99 99)"/><path class="cls-69" d="M357,389c-.15-1.9.08-3.57,2-4.71a1.71,1.71,0,0,0,.56-2.58c-.76-1-1.76-.48-2.7-.1-1.95.77-3.37,2.84-5.82,2.39-3.05,1.72-6,3.72-9.81,2.26-1.55-2.59.71-3.06,2.21-3.88,3.66-2,7.78-2.79,11.59-4.44a42.38,42.38,0,0,0,9.94-5.58,8.92,8.92,0,0,1,3.89-.62c4.76.11,7.56,4.69,4.39,8.05-2.18,2.31-2.62,5.09-4.2,7.44-3,4.19-7.23,6.39-12,7.77h-4C355.71,393.92,358,392.54,357,389Z" transform="translate(99 99)"/><path class="cls-97" d="M-59,393h-1c-1.39-5-7.31-5.88-9.51-10.2,0,0-1.6.75-2.45,1.15.86-4.25-.9-6.85-5-8l0-2c.06-1.37-1.5-2.69-.12-4.11a3,3,0,0,1,2.67.23c3,1.85,4.63,5.25,7.81,6.9a1.66,1.66,0,0,1-.34,2,13.17,13.17,0,0,0,5.7,7.78A23.73,23.73,0,0,1-54,394h-2C-56.72,392.83-57.9,393-59,393Z" transform="translate(99 99)"/><path class="cls-98" d="M-67,379v-2a1.68,1.68,0,0,1-.21-2.07c2.74-1.33,3.72.87,5.07,2.47,2.71,3.21,4,7.58,8.14,9.6,3.13,3.4,7.1,5.66,11,8v2c-6.89-2.27-11.57-7.95-17.67-11.47C-63.31,384-63.69,380-67,379Z" transform="translate(99 99)"/><path class="cls-34" d="M393,373c-1.18-.72-1-1.9-1-3,0-3.94.55-7.54,5-9,2.53,3,0,5.29-1.25,7.56C395,370,393.8,371.19,394,373Z" transform="translate(99 99)"/><path class="cls-96" d="M397,361c-3.08,2.21-3.13,6.11-5,9h0c-1.9-5,.12-9.45,5-11v2Z" transform="translate(99 99)"/><path class="cls-32" d="M336,280c2.14,1.14,4.46,1.68,3.58,5.39-.63,2.69,2,4.23,4.68,4.57,1.31.16,2.65,0,4,.1,1,.07,2.12.31,2,1.62-.09.95-1.05,1.15-1.9,1.27-1.57.23-3.27-.34-5.14.91,15.62,6,30.84,5.8,46.44.23-1.45-1.73-3.38-.82-5-1.13-.84-.17-1.81-.33-1.9-1.28-.13-1.31,1-1.55,2-1.62,1.33-.09,2.67.06,4-.1,2.71-.34,5.31-1.88,4.68-4.57-.88-3.71,1.44-4.25,3.58-5.39v10l-2.38.5c1,4-3.22,6.24-3.43,9.52-.27,4.19-2.35,5.08-5.77,5-2.42-.08-4.55.39-4.36,3.39.28,4.46-2.42,4.66-5.77,4.64q-26.24-.11-52.48,0c-1.76,0-4.25-1.08-4.81,2-.11.65-.62,1.5-.91.24-.93-4-4-2.25-6.13-2.25Q205.48,312.93,100,313H-59.18C-67,313-67,313-67,305l.74-.67c2.88-1.23,5.91-.72,8.88-.72q191.54,0,383.08-.05c2.63,0,5.34.53,7.82-.81a3,3,0,0,0,1-2.18c0-2,.07-3.93,0-5.9a89.65,89.65,0,0,1,.39-13.21A3.26,3.26,0,0,1,336,280Z" transform="translate(99 99)"/><path class="cls-98" d="M357,395c3.9-2.34,7.87-4.6,11-8,4.1-2,5.43-6.39,8.13-9.59,1.35-1.6,2.34-3.79,5.08-2.49A1.69,1.69,0,0,1,381,377c-.17,4.75-4,7.24-6.95,9.73s-6.18,4.66-9.05,7.27c-3.3-.69-5.7,1-8,3Z" transform="translate(99 99)"/><path class="cls-99" d="M397,359c-3.66,2.76-5.11,6.53-5,11l-3,1c-1.26-1.37-.67-2.75,0-4.15,1.72-3.77,3.65-7.44,4.37-11.61A2.6,2.6,0,0,1,397,353h0Z" transform="translate(99 99)"/><path class="cls-51" d="M-96-30h1c.58,0,1.6-.78,1.65,0a2.64,2.64,0,0,1-2.54,3C-96-28-96-29-96-30Z" transform="translate(99 99)"/><path class="cls-91" d="M-19-94c3.22-1,6.22-3,9.92-1.17,1.36.65,3.28.17,4.94.17q161.12,0,322.23.15c4.61,0,8.38-3.09,13-2.17L336-97c-2,2-4.74.25-7,1.26.58,1.39,2.19.12,3,1.22-1.25,1-2.69.26-4,.48-5.37,1.07-10.86.9-16.25.9Q157-92.9,2.18-93C-2.21-93-6.61-94.53-11-93c-.54,3.18-2.47,1.18-3.68.83C-16.16-92.6-17.09-94.45-19-94Z" transform="translate(99 99)"/><path class="cls-91" d="M-17-97c.4.2,1.6.51.75.82-1.41.51-3.12.18-4.71.2v-1Z" transform="translate(99 99)"/><path class="cls-50" d="M158.33,44.12a6.5,6.5,0,0,1-3,3C151,49,149,53.66,145,56H-77.07A10.67,10.67,0,0,0-88,65c-.38,1.82-.65,3.68-3,4-.72-8.06,3.76-14.66,6.21-21.82.54-1.58,2.17-2,3.68-2.12s3-.06,4.49-.06H148A39.62,39.62,0,0,0,158.33,44.12Z" transform="translate(99 99)"/><path class="cls-85" d="M-92,130v-9c2-1.61,2.34-3.82,2.57-6.23.63-6.48,4.18-9.83,10.66-10.27,2.16-.15,4.32-.08,6.48-.08q71.85,0,143.69,0c8.29,0,16.62.54,24.79-1.37,1.08.31,2.85.87,1.68,2.1-5.49,5.77-10.35,12.24-17.34,16.43-.24.14-.64,0-1,0q-74.7.1-149.37,0c-2,0-4,0-6,0-8.24,0-8.24,0-11.12,7.32C-88.35,130.54-89.94,131.35-92,130Z" transform="translate(99 99)"/><path class="cls-60" d="M98,104c-19,4.21-38.32,1.64-57.47,1.86C1.24,106.32-38,106-77.34,106c-8,0-10.47,2.29-10.62,10.22-.05,2.88-.5,5-4,4.78v-4c1.3-1.84-.25-4.15,1-6,5-3.26,3.07-8.7,3.8-13.14.58-3.53,1.46-4.92,5.12-4.91q96.2.17,192.37.16a33.47,33.47,0,0,1-6.9,7C101.35,101.08,100.92,104.27,98,104Z" transform="translate(99 99)"/><path class="cls-48" d="M-92,130a6.71,6.71,0,0,0,4-1c2.9,2.81.4,6.7,2,9.78-.31,4.55,0,9.18-3.66,12.91-1.37,1.42-.76,3.78-.85,5.74-.13,2.59.48,5.32-1.44,7.57.67,12.47-1,24.87-1,37.32A3,3,0,0,1-94,205h0a211,211,0,0,1,0-32v-8a2.93,2.93,0,0,0,1-2.68C-93.31,151.53-91.26,140.81-92,130Z" transform="translate(99 99)"/><path class="cls-85" d="M-91,111c-.33,2,.81,4.24-1,6,0-2.23,0-4.45,0-6.68,0-.09.2-.18.3-.28Z" transform="translate(99 99)"/><path class="cls-100" d="M-94,173v32h-1c0-8.95,0-17.9,0-26.84C-95,176.41-95.63,174.47-94,173Z" transform="translate(99 99)"/><path class="cls-101" d="M-97,205V173c1.63,1.47,1,3.42,1,5.16.06,8.94,0,17.89,0,26.84Z" transform="translate(99 99)"/><path class="cls-51" d="M-91-29c7.75-3.55,4-11.8,6.72-17.68C-82.7-45.53-84.79-42.8-82-43c0,7,0,7,7,7q201.68,0,403.36.12c2.54,0,7.35-2.42,7.43,2.62s-4.61,4.24-8,4.24Q125.31-29-77.13-29c-3.56,0-7.27-.88-10.61,1.61C-89-26.45-90.73-26.82-91-29Z" transform="translate(99 99)"/><path class="cls-51" d="M-76-43h9c.24,2.82-1.58,3.72-3.88,3.94C-73.73-38.79-75.56-40-76-43Z" transform="translate(99 99)"/><path class="cls-51" d="M179-51c.8,5-1.7,6.09-6.3,6.08Q52.85-45.08-67-45c1.34-5.42,1.34-5.42-7.16-6.38.41-2.38,2.18-2.59,4-2.61,2.5,0,5,0,7.5,0H171.26C174.23-54,177.41-54.55,179-51Z" transform="translate(99 99)"/><path class="cls-102" d="M239.12,47.58a128.8,128.8,0,0,1,14,13,7.68,7.68,0,0,1,3,8.14c-1.35,6.86-.16,13.85-1,20.76a11.42,11.42,0,0,1-.9,3.8l.06-.08c-1.91,1.25-4.05,1.38-6.23,1.38q-58,0-116.07,0a18.75,18.75,0,0,1-4-.33c-2.47-.65-2.9-1.86-1-3.76,3.13-3.18,6.32-6.32,9.46-9.49,3.73-4.14,8.39-7.44,11.4-12.27a65.56,65.56,0,0,1,10-10.16c.69,7,.69,7,8.62,7h76.29c1.33,0,2.66,0,4,0s3,.3,3.62-1c.76-1.58-.67-2.79-1.6-3.9-2.34-2.81-5.17-5.17-7.59-7.91C239.94,51.26,238,50,239.12,47.58Z" transform="translate(99 99)"/><path class="cls-103" d="M-92,165c0-2.78-.09-5.57,0-8.36.13-3.06-.59-5.89,3-8.5,2-1.45,1.37-6.64,1.93-10.14-1.09-7,.13-8.53,7.52-8.55,33.29-.07,66.57,0,99.85,0,14.15,0,28.3-.15,42.44.08,5.33.08,9.82-1,13.29-5.27A8.12,8.12,0,0,1,81,121a167.38,167.38,0,0,0,17-17c2.12-.84,2.94-3.49,5.39-3.88Q83.11,121,62.83,141.87c-2.42,2.48-5,4.84-7.48,7.25q-68.29-.06-136.61-.16c-3.35,0-4.64,1.11-4.87,4.59-.22,3.15-1.5,6.24-2.38,9.34C-89,164.6-90.32,165.14-92,165Z" transform="translate(99 99)"/><path class="cls-104" d="M97.18,234.59c-1.25,3.17-4,2.39-6.42,2.39Q2.38,237-86,237c-.2-2.8.26-5.59-.6-8.41-1.08-3.55.79-5.34,4.3-5.57,1.33-.08,2.66,0,4,0Q-.9,223,76.51,223c1.68,0,4.16,1.1,4.91-1,.55-1.56-1.77-2.56-2.8-3.81-2.4-2.93-6-4.84-7.51-8.51C80.23,217.49,88.69,226.05,97.18,234.59Z" transform="translate(99 99)"/><path class="cls-85" d="M137,81,126,93c-.78,3.53-4,5.2-6,7.79-1.63,2.1-1.23,3.28,1.46,3.57a38,38,0,0,0,4,.1q59.39,0,118.78,0c3,0,6-.54,9-.13,2.87,4.33.36,8.77.28,13.17,0,1.22.2,2.54-1.21,3.26-2.21,1-4.56.82-6.88.83H109.27a22.12,22.12,0,0,1-5.46-.35c-1.9-.48-4.06-.83-4-3.59q18-19.43,37.11-37.79c.32.23.44.47.35.72S137.13,81,137,81Z" transform="translate(99 99)"/><path class="cls-7" d="M-87,272c-1.51-4.9-.88-9.77,0-14.71.64-3.72,2.23-5.42,6.25-5.36,12.64.19,25.28.07,37.92.07H103.56c1,0,2,0,3,0,3.35.12,5-.67,2.44-4.12-.85-1.16-2.1-2.22-2-3.91l15.11,14.69c-.72,3.6-3.62,2.27-5.65,2.28Q35.4,261-45.68,261H-79.1c-6.94,0-7.64.66-6.55,7.35C-85.36,270.1-85.32,271.23-87,272Z" transform="translate(99 99)"/><path class="cls-16" d="M239.12,47.58c1.88,4.06,5.76,6.34,8.56,9.58,1,1.13,2.26,2,3.12,3.23,1.2,1.69,2.9,3.75,2.13,5.64s-3.3.94-5.05.94q-43.23.06-86.44,0c-7.2,0-7.19,0-4.21-6.53a15.36,15.36,0,0,0,.63-1.88c3.9-5.84,8.95-8.93,16.34-9.49,19.25-1.46,38.44-3.66,57.64-5.74C235.59,43,237.15,45.41,239.12,47.58Z" transform="translate(99 99)"/><path class="cls-105" d="M99.85,117.68c2,2.86,4.93,2.31,7.71,2.31H253a20.72,20.72,0,0,1,.09,9.4c-.93,2.1-2.79,2.73-4.84,3a32.07,32.07,0,0,1-4.49.2q-73,0-146,0c-2.48,0-5,.24-7.32-1.09-2.55-3.47,2.26-4.25,2.47-6.71A33.66,33.66,0,0,1,99.85,117.68Z" transform="translate(99 99)"/><path class="cls-106" d="M81.71,206.11A146.48,146.48,0,0,1,65.87,191a2.42,2.42,0,0,1,2.33-.41c12.55,3.57,25.26,1.77,37.93,1.17,2.38-.63,3.57,1.06,5,2.46,7,7,16.55,7.37,24,.87,1.5-1.31,2.7-3,5-2.67q22,0,44,0c2.15,0,4.35-.13,6.34,1,.83.71,1.44,1.75.62,2.57-6,5.93-10.93,12.94-18.44,17.25-16.6.64-33.21.15-49.82.28-9,.07-18-.23-26.9.13-4.22.16-7.38-.93-10-4.18A9.12,9.12,0,0,0,81.71,206.11Z" transform="translate(99 99)"/><path class="cls-60" d="M254,105a27.48,27.48,0,0,1-6.84,1.05Q184.18,106,121.25,106c-1.68,0-4,1-4.94-1.18-1-2.32,1-3.63,2.43-5,2.37-2.32,4.84-4.54,7.26-6.8H247.85c2.16,0,4.32.14,6.48.22.24.92.49,1.84.74,2.76C253.51,98.84,255.4,102.12,254,105Z" transform="translate(99 99)"/><path class="cls-107" d="M35,173c-.12-1.86-.09-3.83,1.17-5.21,4.78-5.2,9.23-10.75,15.24-14.67-4,4.2-7.93,8.42-11.92,12.61-4.43,4.65-4.45,8.76.08,13.37,3.48,3.53,7,7,10.55,10.49-.25,1.91,3.28,2.61,1.81,4.59-1.18,1.61-3.43.79-5.2.79q-62.91.06-125.8,0c-3.7,0-6.51,0-6.09,5.07.17,2.07-.39,4.7-2.83,6-2.4-3.47-1.65-7.31-.79-10.91a33.87,33.87,0,0,0,1-8.71c.89-2.81,3-3.74,5.74-3.85,2-.08,4-.07,6-.08H29.59c1.33,0,2.66,0,4,0,2.55,0,4-.64,2.14-3.46C34.52,177.15,33.45,175.2,35,173Z" transform="translate(99 99)"/><path class="cls-108" d="M336,173v10c-4.32,2.06-8.92,2-13.58,2q-47.61-.09-95.23,0c-3,0-6,.11-8.33-2.26a107.38,107.38,0,0,1,13-13c-1,3.91,1.75,3.24,4,3.24H336Z" transform="translate(99 99)"/><path class="cls-55" d="M81.71,206.11a2.71,2.71,0,0,1,2.71.91c3.46,5.5,8.74,5.1,14.3,5.06,25.09-.19,50.18-.08,75.28-.08.25,2.4-1.9,3.23-3.15,4.55-3.13,3.34-6.44,6.52-9.69,9.76-1.28,1.28-2.52,2.66-4.65,2-4.57-1.19-9.23-.78-13.85-.76-11.42.05-22.85-.41-34.25.29-2.91.17-4.45-1.88-6.7-2.72A233.15,233.15,0,0,1,81.71,206.11Z" transform="translate(99 99)"/><path class="cls-109" d="M101.71,225.11c2.91,1.15,5.86,1,9,1,13.81-.25,27.62-.1,41.43-.12,2.22,0,4.33.14,5.89,2,.61,1.7-.9,2.34-1.74,3.18-6.73,6.81-13.6,13.49-20.24,20.37-2.27,2.35-3.86,2.35-6.06,0-1.88-2-3.5-4.45-6.32-5.41C116.11,239.36,108.61,232.54,101.71,225.11Z" transform="translate(99 99)"/><path class="cls-81" d="M47.87,170.65q18-19.41,37.09-37.78a2.12,2.12,0,0,1,.59,1.25c-2.65,5.73-8.19,8.9-12,13.58-3.63,3.59-7.31,7.13-10.72,10.94-.55.63-1.15,1.2-1.7,1.83-1.57,1.78-1.48,2.93,1.19,3.06,1.17.06,2.33,0,3.5,0,14.14,0,28.28,0,42.42,0,2.42,0,5.07-.55,7,1.63-.67,5.05-4.94,6.64-8.52,8.91-14.74,1-29.5.26-44.25.41-4.45,0-9,.61-13.35-.7C47.75,173.16,47.14,172.16,47.87,170.65Z" transform="translate(99 99)"/><path class="cls-110" d="M47.87,170.65A2.76,2.76,0,0,0,49,173c1.86,1.08,3.91,1.95,5.24,3.71,3.66,4.85,8.51,6.16,14.44,5.94,9.78-.37,19.59-.12,29.39-.09,2.15,0,4.32-.16,6.39.66,2.92,2.14,3.14,5.15,2.69,8.38-.29,2.59-2.23,2.4-4.07,2.4-9.89,0-19.8-.23-29.68.13-3.29.11-4.61-3.15-7.53-3.09q-9-8.34-18-16.69C46.42,173.06,45.49,171.86,47.87,170.65Z" transform="translate(99 99)"/><path class="cls-22" d="M123.64,246.13c3.58-.07,4.8,3.18,7,5.06,1.62,1.42,2.76,2.05,4.52.22,7.58-7.85,15.25-15.62,22.88-23.42a146.41,146.41,0,0,0,16-16,168.41,168.41,0,0,0,17-17c2.15-4.35,6.3-6.91,9.34-10.47,1.71-1.42,2.94-3.48,5.31-4a2,2,0,0,1,1.24.48q-17.53,17.7-35.08,35.39C160,228.26,148,240,136.21,252c-2.52,2.57-4.2,3.18-6.65.16A82.2,82.2,0,0,0,123.64,246.13Z" transform="translate(99 99)"/><path class="cls-109" d="M206.89,181l-.91,0c.34-4.23,4.42-5.63,6.46-8.57,5-4.75,9.62-10,14.84-14.52a3.4,3.4,0,0,1,1.35-.43,2.22,2.22,0,0,1,1.27.55C222.6,166,214.87,173.62,206.89,181Z" transform="translate(99 99)"/><path class="cls-103" d="M254.27,93.31c.37-9,.45-18.09,1.27-27.09.26-2.8-2.47-3.42-2.42-5.61,3.15,1.44,4,3.86,3.75,7.24-.53,7.07-.65,14.18-1.09,21.26C255.69,90.56,256.54,92.56,254.27,93.31Z" transform="translate(99 99)"/><path class="cls-110" d="M252.94,129c0-3,0-6,.05-9,0-1,0-2,0-3,.37-.54.73-.54,1.1,0-.07,5.07-.17,10.14-.2,15.21,0,3.51-2.74,4.94-5,6.76a.68.68,0,0,1-1.11,0C248.86,135.3,251.55,132.49,252.94,129Z" transform="translate(99 99)"/><path class="cls-111" d="M254.11,117H253q.48-6,1-12c.53-3-1-6.22,1.11-9C255.19,103,255.28,110,254.11,117Z" transform="translate(99 99)"/><path class="cls-60" d="M137,81,137,79.89A78.91,78.91,0,0,1,147.9,68.75C146,74.32,140.94,77.17,137,81Z" transform="translate(99 99)"/><path class="cls-106" d="M248,139h.95a80.53,80.53,0,0,1-11,11,.69.69,0,0,1-1.13,0,3,3,0,0,1,.83-2.59C241.12,144.62,243,139.84,248,139Z" transform="translate(99 99)"/><path class="cls-55" d="M237,150l.95,0a44,44,0,0,1-8,8c-.31,0-.62,0-.94,0A10.32,10.32,0,0,1,237,150Z" transform="translate(99 99)"/><path class="cls-112" d="M85,134,85,132.87a40.58,40.58,0,0,1,8-8.07c.34,2.47-2.21,3.32-2.92,5.2C88.93,132.07,88,134.34,85,134Z" transform="translate(99 99)"/><path class="cls-113" d="M137.89,263.62c-3,4-5.17,4.38-8.86,1.53A10.53,10.53,0,0,0,137.89,263.62Z" transform="translate(99 99)"/><path class="cls-113" d="M336,268v5a3.4,3.4,0,0,0-.48.87c-1.83,8.41-2.15,8.72-11.08,8.73q-96.42,0-192.84,0-104.13,0-208.26,0c-4,0-7.81-.16-8.43,5.28A2.44,2.44,0,0,1-88,290c0-4.85,1.54-9.55,1.21-14.46-.14-2,1.57-3.24,3.59-3.46a48.83,48.83,0,0,1,5-.08q202.29,0,404.57,0c3.61,0,7,.06,8.64-4C335.33,267.52,335.67,267.52,336,268Z" transform="translate(99 99)"/><path class="cls-114" d="M-88,290a3.19,3.19,0,0,0,2-3.67C-87,281-83.78,281-79.88,281q95.43.1,190.85.05,107,0,214.07,0c4.83,0,10.14.88,9.5-6.78,0-.37.95-.82,1.46-1.23v8a4.4,4.4,0,0,0-.64,1.35c-1.41,8-1.66,8.25-9.76,8.25q-102.93,0-205.86,0H-45.13q-3.75,0-7.48-.1c-6.55,1.52-13.26,1.28-19.82.77-7.59-.59-12.95,1.2-14.89,9.18L-88,301C-90.2,297.33-87.59,293.67-88,290Z" transform="translate(99 99)"/><path class="cls-115" d="M336,301v2c-2.06,2-4.66,1.47-7.12,1.47q-183.24,0-366.49,0c-9.8,0-19.61-.67-29.39.48H-83c-1.83.25-3.21,1.64-5,2-1.64-2,.77-4,0-6h0c2.24-1.95,5-1.59,7.63-1.62,16.15-.2,32.3,0,48.46,0q178.89-.11,357.78,0C329.29,299.4,332.93,298.58,336,301Z" transform="translate(99 99)"/><path class="cls-116" d="M-85,357c-6-4.76-3.52-11.9-4.91-17.93A53.43,53.43,0,0,1-91,323c2.28-1,1.88-3.08,2-5s-.82-4.24,1-6c2.38,3,1,6.49,1.35,9.76-.59,6.4-.86,12.83-1.35,19.24v2a18.81,18.81,0,0,0,2.9,7.65C-83.75,352.61-83.11,354.86-85,357Z" transform="translate(99 99)"/><path class="cls-117" d="M-88,322V307c1.29-1.6,2.16-4.26,5-2v6a15.7,15.7,0,0,0-2.76,7.33C-86,319.78-85.43,321.91-88,322Z" transform="translate(99 99)"/><path class="cls-22" d="M336,268h-1c.33-2-.81-4.25,1-6Z" transform="translate(99 99)"/><path class="cls-118" d="M-74,329c1.49,4.84,2.73,9.78,6.15,13.79,1.54,1.81.64,4.12.85,6.21l-.62.38c-2.19.09-2.53-1.78-3.24-3.17a16.77,16.77,0,0,0-3.28-4.87c-1.65-1.56-3.61-2.46-5.83-1.7s-1.61,3-1.72,4.67c-.18,2.61.29,5.26-.51,7.83a2.23,2.23,0,0,1-1,1.09C-85.1,351.58-87.11,350-86,347c0-2.66.42-5.41-.09-8-1-5,3.8-8.07,3.67-12.94,0-1.8,3.59-1.07,5.67-.43C-75,326.18-75.27,328.19-74,329Z" transform="translate(99 99)"/><path class="cls-119" d="M-88,322c1.73-1.59.76-3.68,1-5.54.33-2.57,1.38-4.58,4-5.46,2.24,6.53-1.93,12.06-3.16,18-.83,4,.4,8.3-1.84,12C-88.76,334.67-88.14,328.33-88,322Z" transform="translate(99 99)"/><path class="cls-93" d="M-66,333a28,28,0,0,0,2,8c-4,0-4.36-3.64-6-6C-69.24,333.18-67.71,332.91-66,333Z" transform="translate(99 99)"/><path class="cls-119" d="M-86,347a11.15,11.15,0,0,0,3,6c1.23,2,2.16,3.89-1,5l-1-1c.57-3-.83-5.35-2.31-7.74-1.19-1.93-.55-4.16-.69-6.26C-86.38,343.86-87.62,346.14-86,347Z" transform="translate(99 99)"/><path class="cls-93" d="M-7,333c.44,1.92,3.86,2.58,2.27,5.34-.22.39-.76,1-.94.94-2.28-.84-2.58-3.2-3.66-5A14.66,14.66,0,0,1-10,333Z" transform="translate(99 99)"/><path class="cls-54" d="M-68.58,325c1,.13,2.25-.16,1.78,1.49-.25.86-.13,2.22-1.48,2.09a2.59,2.59,0,0,1-2.27-2.23C-70.73,324.93-69.42,325.14-68.58,325Z" transform="translate(99 99)"/><path class="cls-120" d="M-11-93l-1.9-.19V-94H328v1a2.46,2.46,0,0,1-3,0h-8c-1.73.92-3.6.46-5.4.46q-154.61,0-309.2,0c-1.8,0-3.67.46-5.4-.46Z" transform="translate(99 99)"/><path class="cls-91" d="M-3-93H317c-1.48,1.64-3.43,1-5.18,1Q157-92,2.18-92C.43-92-1.52-91.36-3-93Z" transform="translate(99 99)"/><path class="cls-91" d="M325-93h3c.38.2,1.6.34.77.77A2.89,2.89,0,0,1,325-93Z" transform="translate(99 99)"/><path class="cls-13" d="M341,386l10-2c-3.06,7.08-9.65,7.87-15.87,7.89q-103.42.25-206.86.11c-50,0-99.94.11-149.9-.15-5.92,0-12.57-.73-15.37-7.85,3.5-.16,6.65,1.41,10,2l1,.11c3.8,1.95,7.84,2.44,12.09,2.44q170.94-.07,341.88,0c4.25,0,8.3-.44,12.09-2.44Z" transform="translate(99 99)"/><path class="cls-13" d="M-43,387a2.44,2.44,0,0,1-.48-.05c-2.45-1-5.77-3.22-4.63-5.05,1.41-2.24,4.93-1,7.11,1.1C-43.68,383.33-42.81,385.43-43,387Z" transform="translate(99 99)"/><path class="cls-13" d="M-38,394c-4.24.14-5.52-2.18-5-6C-40,388.92-36.93,389.72-38,394Z" transform="translate(99 99)"/><path class="cls-121" d="M365,373c-3.33,5.31-9.49,5.52-14.41,8-3.24,1.6-7.28,1.65-9.59,5h0a30.56,30.56,0,0,1-13.13,2.48q-170.86,0-341.74,0A30.56,30.56,0,0,1-27,386h0c-2.31-3.39-6.35-3.44-9.59-5-4.92-2.44-11.08-2.65-14.41-8-1.7-1.06-4.7-.85-4-4.19,1.32-.77,2.45-.16,3.6.47a63.44,63.44,0,0,0,6.27,3.58c8.82,5.45,18.51,7.14,28.68,6.75,2.5-.1,5-.16,7.49-.16H323.32c6.47,0,12.87.5,19.39-.55,7-1.11,13.21-3,18.07-8.37a6.7,6.7,0,0,1,5.86-2.2,3,3,0,0,1,1.58.73C369.18,372,366.55,372.07,365,373Z" transform="translate(99 99)"/><path class="cls-122" d="M-55,369c.69,2,2.8,2.53,4,4a20.34,20.34,0,0,0-2.47,0c-2.31.28-5.53-1.29-5.6,3.29-.06,3.77,1.53,5.15,5.68,4.58-1.31,2.25-2.83,4.19-.61,6.11-5.56,0-6.21-5.39-8.85-8.48C-64.11,377-64.75,375.2-67,375a4.71,4.71,0,0,1-2.65-2.35c-1.07-3.52,1.35-6.37,2-9.56.45-2.29,2.54-1.9,4-.72a17.7,17.7,0,0,0,7,3.61C-55.65,366.69-54.51,367.38-55,369Z" transform="translate(99 99)"/><path class="cls-118" d="M-84,358c1.66-1.4.75-3.32,1-5h0a2.19,2.19,0,0,1,3.52,1.34c1.46,5.07,4,9.74,5.19,14.88A2.14,2.14,0,0,1-75,371l-2-1c-2.5,0-2.15-2.32-2.89-3.67-1-1.8-1.48-3.89-3.11-5.33C-84.18,360.28-84,359.1-84,358Z" transform="translate(99 99)"/><path class="cls-54" d="M-83,361c2.76-.41,2.61,1.87,3.3,3.47.81,1.88,1.79,3.69,2.7,5.53-1.34,1.33,2.57,2.68,0,4a2,2,0,0,1-2-1C-78.92,368.53-82.73,365.36-83,361Z" transform="translate(99 99)"/><path class="cls-123" d="M-87,187c1.37,3-.06,5.7-.58,8.59-.61,3.39-.32,6.93-.42,10.41.33,5.1-.58,10.24.56,15.34.45,2-.94,3.71-2.35,5.26-2.45-1.26-.08-4.33-2.21-5.59-.67-8.38,1-16.66,1-25,1.34-2.41,2.71-4.8,2.56-7.72C-88.49,187.41-88.13,186.7-87,187Z" transform="translate(99 99)"/><path class="cls-108" d="M-87,187c-2,2.69-.08,7.15-4,9,1.51-6.9,3.85-13.64,4.06-20.8.06-2.13,1.63-2.19,3.19-2.19H35c-.16,3.37,1.94,5.5,4.11,7.63.65.64,1.81,1.34,1,2.43a3.49,3.49,0,0,1-2.18.89,37.91,37.91,0,0,1-4,.05Q-23.57,184-81,184C-83.6,184-86.09,183.83-87,187Z" transform="translate(99 99)"/><path class="cls-99" d="M-67,349c3.31.28,5,2.28,5.66,5.35.35,1.5.89,3.15,2.77,2.95s1.6-1.91,1.55-3.19c-.15-3.87,2.65-3.09,4.85-3.09,16.82,0,33.65.35,50.46-.13,14.53-.41,29,.2,43.53.18q161.43-.19,322.85-.07c3.24,0,7.15-1,6.45,4.61a1.51,1.51,0,0,0,1.44,1.72c1.58,0,2.29-1.06,2.62-2.51.72-3.14,2.21-5.55,5.82-5.82h0a3.28,3.28,0,0,1,.73,3.44,3.67,3.67,0,0,1-.77,1.27c-3.09,3-5.38,6.82-9.31,9-6.28,5.46-12.8,10-21.76,10q-156.15-.15-312.3-.08-37,0-73.94.06c-8.76,0-15.15-4.53-21.23-10-4-2-6.22-5.92-9.34-8.89a3.77,3.77,0,0,1-.81-1.27A3.34,3.34,0,0,1-67,349Z" transform="translate(99 99)"/><path class="cls-93" d="M60,341c1.33-2,2.67-3.33,4,0Z" transform="translate(99 99)"/><path class="cls-121" d="M381,353v-4c2.37-.07,2.12-2.28,2.76-3.62a17.69,17.69,0,0,1,4.72-6.29c2.18-1.78,4.81-1.4,7.11-.77s1.29,3.08,1.37,4.74c.14,3.31,0,6.63,0,9.94-1.09.67-2.84.86-2.83,2.46,0,4.82-2.53,8.63-4.58,12.67A10.6,10.6,0,0,0,389,371c-.53,2.31-2.88,3.16-4,5a6.71,6.71,0,0,1-4,1v-2c-1.06-1.41,0-2.22.87-3.06,3.27-3,5.73-6.34,5-11.19-.36-2.33,1.23-4,2.34-5.81.93-1.53,1.77-3.57.13-5-1.86-1.65-2.85.47-4,1.5S382.91,353.76,381,353Z" transform="translate(99 99)"/><path class="cls-122" d="M383,373a1.82,1.82,0,0,0-2,2c-4.43.74-4.61,5.31-7,7.92-1.76,2-2.94,4.27-6,4.08,1.68-1.87,2-3.68-.71-5.12,1.85-1.5,4.23-.22,5.2-2.2a7.33,7.33,0,0,0,.26-5.31c-.56-1.94-2.42-1.24-3.8-1.35s-2.63,0-3.95,0l3-3c2-4.69,7.32-5.13,10.66-8.13a1.73,1.73,0,0,1,2.85.79C382.27,366.06,384.85,369.23,383,373Z" transform="translate(99 99)"/><path class="cls-121" d="M-67,349v4c-2.14,1.36-3.29-.5-4.71-1.47-.93-.64-1.84-1.72-3-.88a2.59,2.59,0,0,0-.54,3.59C-71.63,360-73.45,367.55-69,373a1.82,1.82,0,0,1,2,2v2c-4.66.66-4.74-4.79-8-6-1-5.83-5-10.67-5.53-16.67-.09-1-1.43-1.26-2.47-1.33,0-3.15-.13-6.3,0-9.44.11-1.81-1.16-4.5,1.37-5.22s5.48-1,7.87,1.38a20.4,20.4,0,0,1,4.32,6.59C-68.88,347.48-68.82,349-67,349Z" transform="translate(99 99)"/><path class="cls-115" d="M-54,289H102.47q111.9,0,223.79,0c4.52,0,9.09.58,8.07-6.36-.06-.46,1.09-1.11,1.67-1.67v14a7.38,7.38,0,0,1-5.75,2.53c-1.83.09-3.66.09-5.49.09H-38.45a44,44,0,0,1-7-.25C-50,296.63-52.94,293.69-54,289Z" transform="translate(99 99)"/><path class="cls-117" d="M-54,289c3.3,5.14,7.59,7.17,14.07,7.16q183.8-.33,367.58-.13a27.3,27.3,0,0,0,8.35-1v6H-88c-.06-2.39,1.21-4.43,1.74-6.66.79-3.36,2.85-4.45,6.14-4.38,6.78.13,13.56,0,20.35.05C-57.78,290-55.79,290.11-54,289Z" transform="translate(99 99)"/><path class="cls-117" d="M-67,305c1.82-1.8,4.12-1,6.19-1q194.22-.06,388.45,0a27.06,27.06,0,0,0,8.36-1,2.07,2.07,0,0,1-2.37,2c-1.5,0-3,0-4.5,0Z" transform="translate(99 99)"/><path class="cls-105" d="M81,121c-2.61,2.77-5.29,5.49-7.81,8.34C71.34,131.42,69,131,66.7,131H-79.95c-6.76,0-6.9.15-7,7-2.53-2.76.25-6.1-1-9a4.11,4.11,0,0,0,.41-.91C-86.11,120-86.12,120-77.51,120q76.41,0,152.83,0C77.22,120,79.35,119.28,81,121Z" transform="translate(99 99)"/><path class="cls-103" d="M85,134l5-4c1.47,1.64,3.43,1,5.18,1Q170.6,131,246,131c2.57,0,5-.18,6.93-2,.19,4.24-2.33,7.12-5,10l-10,9a7.59,7.59,0,0,1-4.35.75q-55.86-.47-111.72,0c-14,.12-27.89-.57-41.84-.17-2.44.07-5,.39-7.09-1.57Z" transform="translate(99 99)"/><path class="cls-110" d="M201,185a58.41,58.41,0,0,1-10,10c-1.46-1.63-3.41-1-5.15-1-13.89-.05-27.79,0-41.68-.06-1.74,0-3.68.65-5.16-.95-.22-3.74.35-7.14,4.11-9.1,7.44-1.07,14.93-.4,22.39-.5,9.47-.12,18.94-.07,28.41,0C196.36,183.44,199,183,201,185Z" transform="translate(99 99)"/><path class="cls-124" d="M142,185l-3,8c-10.66,11.39-22.16,10.87-31.86-1.42L105,184c-1.8-4.38-.57-8,2.86-11a30.83,30.83,0,0,1,7.32-6.68c3.53-3.3,11.84-3.82,17.26-1.06a20.19,20.19,0,0,1,7.64,7C141.77,176.34,144.59,180.26,142,185Z" transform="translate(99 99)"/><path class="cls-86" d="M139.21,173c-7.71-8.56-14.06-10.32-24.07-6.67-1.44-2.08-3.63-1.28-5.52-1.29C93.81,165,78,165,62.17,165c-1.87,0-4.59,1-5.34-1.27-.58-1.74,2-2.8,3.16-4.12A27.55,27.55,0,0,1,63,157a11.84,11.84,0,0,1,6.68-1.63q76,0,152.11.06c2.29,0,5.11-.61,6.21,2.57a129.57,129.57,0,0,1-15,15c-2.19,1.44-4.66,1.63-7.19,1.62H146.37C143.87,174.61,141.35,174.64,139.21,173Z" transform="translate(99 99)"/><path class="cls-112" d="M228,158c-1.65-1.73-3.77-1-5.68-1Q142.67,157,63,157a58.06,58.06,0,0,1,10-10H99.49q65.07,0,130.16,0a27.3,27.3,0,0,1,8.35,1c-.34.65-.68,1.3-1,1.95a45.83,45.83,0,0,0-8,8A7.75,7.75,0,0,1,228,158Z" transform="translate(99 99)"/><path class="cls-108" d="M107.82,173A28.6,28.6,0,0,0,105,184c-12.57,0-25.15-.29-37.7.13-5.62.19-9.93-1.11-13.31-5.63-1.47-2-3.29-3.67-5-5.5Z" transform="translate(99 99)"/><path class="cls-111" d="M139.21,173H213l-7,7.94L201,185H142A27,27,0,0,0,139.21,173Z" transform="translate(99 99)"/><path class="cls-125" d="M-27,386q184,2.49,368,0c-2.25,3.06-5.27,4.05-9.05,4.05q-174.94-.09-349.9,0C-21.73,390.05-24.75,389.06-27,386Z" transform="translate(99 99)"/><path class="cls-126" d="M-59,361c.5,0,1.29-.16,1.46.09,2.79,4.2,8.18,4.52,11.51,7.67A7.24,7.24,0,0,0-40.4,371c6.33-.08,12.67,0,19,0H351.9c3.25,0,6,0,8.93-2.84,3.26-3.2,8.05-4.83,12.17-7.15a2.62,2.62,0,0,1,.79,1.22c.19,4.07-3.84,4.53-5.79,6.78-3.5.48-5.91,2.16-8.34,5-3.38,3.94-8.8,5.05-13.81,5.89-3.41.57-6.9.73-10.14,2-2.59,1-4.54-1-7-1-114.5.16-229,.05-343.48.3A79.76,79.76,0,0,1-41.41,377c-2.31-.8-3.9-2.43-5.59-4-1.55-1.2-2.82-2.85-5-3l-3-1a3.46,3.46,0,0,0-2-2c-.85-1.63-3.08-2.47-2.72-4.79A2.43,2.43,0,0,1-59,361Z" transform="translate(99 99)"/><path class="cls-127" d="M368,369c.85-2.92,5.35-3.22,5-7a64.52,64.52,0,0,0,8-9,9,9,0,0,0,4.79-4.11c.64-1.11,1.79-2.34,3.25-1.17,1.18.93,3.78,1.63,2.61,3.6-4,6.8-2.06,16-8.65,21.68.69-3.42-2.55-5.88-2.19-9.36.18-1.79-1.57-1.51-2.33-.5-2.7,3.56-7.58,3.68-10.48,6.86Z" transform="translate(99 99)"/><path class="cls-121" d="M-52,370c3.1-1.38,4,1,5,3C-49.13,372.78-50.52,371.3-52,370Z" transform="translate(99 99)"/><path class="cls-98" d="M-59,362l2,5a9.24,9.24,0,0,1-7.07-3.47c-1.47-1.8-3.09-1.7-2.85,1.05.27,3.13-3,5.24-2.08,8.42-3.11-3.75-6.37-7.41-5-12.93.47-1.91-1.32-2.76-2.13-4.11-1.3-2.14-1.73-4.83.24-6.78,2.35-2.31,3.73.28,5.22,1.63,1.09,1,2,2.23,3.7,2.19C-64.95,356.55-61.83,359.14-59,362Z" transform="translate(99 99)"/><path class="cls-121" d="M-59,362c-3.74-2.05-7.91-3.71-8-9,3.76,1.58,5.33,5.33,8,8Z" transform="translate(99 99)"/><path class="cls-121" d="M381,353c-.32,5.09-4.36,6.87-8,9v-1C375.67,358.33,377.24,354.58,381,353Z" transform="translate(99 99)"/><path class="cls-128" d="M110,176a3.7,3.7,0,0,1,2-3.11c9.63,2,19,4.73,27.35,10.09a2.59,2.59,0,0,1-.24,2.28c-2.18,1-4.23.08-6.23-.51-6.48-1.9-12.74-4.47-19.21-6.39A5.54,5.54,0,0,1,110,176Z" transform="translate(99 99)"/><path class="cls-129" d="M110,176l28.8,9c.84.63.81,1.3.07,2a4.53,4.53,0,0,0-.74.07,4.4,4.4,0,0,1-4.66.56c-7.33-2.88-15.06-4.59-22.34-7.59a3.44,3.44,0,0,1-2-2A2.14,2.14,0,0,1,110,176Z" transform="translate(99 99)"/><path class="cls-130" d="M129.93,196.77c-6.36,3.48-16.25.68-19.11-5.46-.5-2.05,1.12-1.77,2-1.57a77,77,0,0,1,16.56,5.74C129.89,195.7,129.91,196.27,129.93,196.77Z" transform="translate(99 99)"/><path class="cls-131" d="M138.84,183c-7.83-2.79-15.67-5.55-23.47-8.4-1.19-.43-2.67-.39-3.43-1.71A3.23,3.23,0,0,1,114,171c8.22,2.07,16,5.42,24.2,7.65a5.84,5.84,0,0,1,.76.36A3.3,3.3,0,0,1,138.84,183Z" transform="translate(99 99)"/><path class="cls-132" d="M109.08,178c9.69,3,19,7.22,29,9l-.78,2.07c-3.29,1.87-6.07-.43-9-1.15-2.08-.51-4.09-1.33-6.14-2-4.55-2.24-9.66-3.16-13.94-6Z" transform="translate(99 99)"/><path class="cls-133" d="M108.2,186c0-1,0-2-.07-3,3-1.58,5.38.41,7.87,1.33A77.57,77.57,0,0,0,128.19,188c2.82.76,5.74,1.25,8.13,3.14a5.23,5.23,0,0,1-2.36,2.81A150.63,150.63,0,0,1,108.2,186Z" transform="translate(99 99)"/><path class="cls-134" d="M129.93,196.77c-5.5-1.92-11-3.86-16.51-5.74-.85-.3-1.86-.93-2.6.28l-2.16-4.25c6.51.34,12.37,3.09,18.3,5.34,1.74.67,5.17-.81,5.25,3Z" transform="translate(99 99)"/><path class="cls-135" d="M132.21,195.38l-23.55-8.32L108.2,186A92.69,92.69,0,0,1,134,193.91Z" transform="translate(99 99)"/><path class="cls-136" d="M138.21,178.69c-1.51,1.51-3.35.52-4.55,0-6.41-2.93-13.86-3.17-19.65-7.61l1-.86c5.11,0,9.63,2.24,14.34,3.72a45.28,45.28,0,0,0,7.66,2A3.6,3.6,0,0,1,138.21,178.69Z" transform="translate(99 99)"/><path class="cls-137" d="M117,169.1c2.91-1.68,5.92-2.69,9.25-1.24a2,2,0,0,1-.32.38,1.6,1.6,0,0,1-.45.16c2.58.65,4.57,2.92,7.45,2.78,1.62.3,2.37,1.53,3,2.84.07.5,0,1.28-.44,1.22C129,174.25,122.61,172.93,117,169.1Z" transform="translate(99 99)"/><path class="cls-138" d="M117,169.1c6.32,1.64,12.11,5.36,19,4.92a1.94,1.94,0,0,1,1.05,1.91c-1,1.33-2.26,1.21-3.54.76-6.16-2.14-12.31-4.34-18.46-6.51Z" transform="translate(99 99)"/><path class="cls-139" d="M136.32,191.1,128,189c-2.75-1.93-6.93-.82-9-4.21a3,3,0,0,1,3,.21l15.34,4.12Z" transform="translate(99 99)"/><path class="cls-140" d="M119,185c2.71,2,6.63,1.26,9,4-7.08-.48-13.13-4.38-19.87-6,0-.33,0-.67,0-1C112.46,180.49,115.71,182.82,119,185Z" transform="translate(99 99)"/><path class="cls-141" d="M119,185c-3.69-.76-6.85-3.39-10.86-3,0-.67.07-1.34.11-2,5,.53,9.46,2.54,13.75,5Z" transform="translate(99 99)"/><path class="cls-142" d="M133,171.18c-3.86,1.84-5.92-2.17-9.06-3l2.38-.32C129.24,167.48,130.64,170.25,133,171.18Z" transform="translate(99 99)"/><path class="cls-143" d="M138.84,183c0-1.32.08-2.64.13-3.95a6.89,6.89,0,0,1-.11,7.93c0-.66-.05-1.32-.07-2S138.82,183.67,138.84,183Z" transform="translate(99 99)"/><path class="cls-99" d="M345.72,378c-1.45-.35-4,.64-3.83-1.69.15-2,2.65-1.3,4.17-1.3,1.33,0,3.59-.67,3.56,1.38C349.57,378.88,347.11,377.62,345.72,378Z" transform="translate(99 99)"/></svg>