<svg id="图层_1" data-name="图层 1" xmlns="http://www.w3.org/2000/svg" viewBox="0 0 518.85 517.8"><defs><style>.cls-1{fill:#1cf0c2;}.cls-2{fill:#1ef0ce;}.cls-3{fill:#20a8dd;}.cls-4{fill:#1cefc7;}.cls-5{fill:#239edd;}.cls-6{fill:#1eefca;}.cls-7{fill:#21b2e1;}.cls-8{fill:#20e1e8;}.cls-9{fill:#21abdf;}.cls-10{fill:#1fe6e7;}.cls-11{fill:#22a5de;}.cls-12{fill:#229cdc;}.cls-13{fill:#1dedd0;}.cls-14{fill:#21aedf;}.cls-15{fill:#20dde7;}.cls-16{fill:#249be0;}.cls-17{fill:#21c2e3;}.cls-18{fill:#21adde;}.cls-19{fill:#21a1dc;}.cls-20{fill:#219cdc;}.cls-21{fill:#22a4de;}.cls-22{fill:#1febe0;}.cls-23{fill:#1becbb;}.cls-24{fill:#299edc;}.cls-25{fill:#1fefbe;}.cls-26{fill:#1eefbd;}.cls-27{fill:#22a1dc;}.cls-28{fill:#1feab6;}.cls-29{fill:#21a2dd;}.cls-30{fill:#269fdb;}.cls-31{fill:#21edc7;}.cls-32{fill:#16eac1;}.cls-33{fill:#1aebc0;}.cls-34{fill:#11e7ad;}.cls-35{fill:#28efd1;}.cls-36{fill:#1becc3;}.cls-37{fill:#20a2d7;}.cls-38{fill:#1fa2d7;}.cls-39{fill:#1cecb8;}.cls-40{fill:#17e8b9;}.cls-41{fill:#1ceab8;}.cls-42{fill:#26f1c6;}.cls-43{fill:#17e8b8;}.cls-44{fill:#1bebb9;}.cls-45{fill:#21acdf;}.cls-46{fill:#1be7be;}.cls-47{fill:#1ee9c7;}.cls-48{fill:#05eeb7;}.cls-49{fill:#26f1cb;}.cls-50{fill:#28f0cc;}.cls-51{fill:#11ecb2;}.cls-52{fill:#14eab0;}.cls-53{fill:#13eab6;}.cls-54{fill:#14eebc;}.cls-55{fill:#15e5a8;}.cls-56{fill:#fefefe;}.cls-57{fill:#1eecd0;}.cls-58{fill:#1deecf;}.cls-59{fill:#20f0d7;}.cls-60{fill:#1beac2;}.cls-61{fill:#16e7b8;}.cls-62{fill:#1aecc0;}.cls-63{fill:#10e9b2;}.cls-64{fill:#19eab9;}.cls-65{fill:#18e9b8;}.cls-66{fill:#2b9ce5;}.cls-67{fill:#22b5e1;}.cls-68{fill:#26a9d7;}.cls-69{fill:#1eaace;}.cls-70{fill:#22b6e1;}.cls-71{fill:#23aee0;}.cls-72{fill:#1fe8e4;}.cls-73{fill:#20d3e7;}.cls-74{fill:#1fcde5;}.cls-75{fill:#1fdae5;}.cls-76{fill:#1fd6e5;}.cls-77{fill:#20cae3;}.cls-78{fill:#1fc4e1;}.cls-79{fill:#1fe4e8;}.cls-80{fill:#20c8e3;}.cls-81{fill:#20c7e3;}.cls-82{fill:#1fe1e7;}.cls-83{fill:#1fe7e3;}.cls-84{fill:#1fe8e3;}.cls-85{fill:#1eecd5;}.cls-86{fill:#23efd6;}.cls-87{fill:#18e3ba;}.cls-88{fill:#16e9c1;}.cls-89{fill:#21bee2;}.cls-90{fill:#20c1e3;}.cls-91{fill:#20c9e4;}.cls-92{fill:#1fcee5;}.cls-93{fill:#1fc5e2;}.cls-94{fill:#2398e0;}.cls-95{fill:#219ed8;}.cls-96{fill:#20bbe3;}.cls-97{fill:#20c1e2;}.cls-98{fill:#21b9e2;}.cls-99{fill:#1f9bd5;}.cls-100{fill:#1eebdc;}.cls-101{fill:#1decd8;}.cls-102{fill:#1ee9de;}.cls-103{fill:#1feae2;}.cls-104{fill:#1ee9e3;}.cls-105{fill:#1eeadc;}.cls-106{fill:#1eedd3;}.cls-107{fill:#1eecd8;}.cls-108{fill:#1cebd7;}.cls-109{fill:#1ee9dd;}.cls-110{fill:#1fbbe2;}.cls-111{fill:#1df0cb;}.cls-112{fill:#21cae4;}.cls-113{fill:#20c5e2;}.cls-114{fill:#21c8e4;}.cls-115{fill:#1fc5e1;}.cls-116{fill:#20ebe0;}.cls-117{fill:#21cce4;}.cls-118{fill:#20ebd7;}.cls-119{fill:#22b9e2;}</style></defs><title>蓝牙</title><path class="cls-1" d="M333-100a38.23,38.23,0,0,1,9,4.08c.65,1.09-1.71,2.3.24,3.39a1.81,1.81,0,0,1,.92-2.76,82.44,82.44,0,0,1,26.95,19.13c.22,1.69,1.7,3,1.36,4.88-.66,1.53.63,3.18-.31,4.72a4.38,4.38,0,0,1-1.32,1.06c-2.87,1.19-5.89,1.08-8.88,1.08q-98.64,0-197.3,0c-3.88,0-7.63-.24-10.93-2.68a4.8,4.8,0,0,0-6,.11c-3,2.17-6.42,2.55-10,2.55q-98.65,0-197.3,0c-3,0-6,0-8.69-1.71-1.55-1.15-1.21-2.64-.74-4.14-.13-1.77-2.29-1.44-2.87-2.73,1.21-2.54,3.89-3.54,5.73-5.41,1.16.45,1.39,1.89,2.55,2.31,1.54.23,2.21-.53,2.29-2a10.85,10.85,0,0,0-.74-3c.81-2.54,3.41-3.18,5.09-4.8l.33.24-.17-.37A97.77,97.77,0,0,1-32-100h.67c.87-.94,2.84,1.85,3.19-.94,1.76-.94,3.75-1.17,5.6-1.81s3.18-1.06,3.48,2c.17,1.81,2.87,0,3.75.66a1.56,1.56,0,0,1-1.61-1.44c0-.9.93-1.3,1.74-1.43,3.33-.55,6.79-2.21,10.22,2.59-.74-3.54-1-5.5.86-6.94C-1.48-108.38,1.27-108,4-108q146.52.09,293,0l1,.07c3.21.67,6.66.41,8.75,4.07.93,1.63,3.62,1.24,5.61,1.26,1.63.06,3.2-.48,4.81-.56,1.44-.06,2.88-.27,4.32-.27A107.66,107.66,0,0,0,333-100Z" transform="translate(108.97 108.84)"/><path class="cls-2" d="M-101.33-28.17a37.15,37.15,0,0,1,6.18-14.17c2,1.69.26,4.39,1.7,6.23a3.89,3.89,0,0,1,.09,1.36,52.63,52.63,0,0,0-2.33,4.9c1.12-2.78,2.31-5.5,5.91-5.57a83.51,83.51,0,0,1,8.51-.21H384.05a48.88,48.88,0,0,1,9,.36c2.42.34,2.94,2.69,4.31,4.14a9.13,9.13,0,0,1,1,2.57,10.32,10.32,0,0,0,5.3,3.68c.81,1.87,1.67,3.73,1.44,5.86-1.07,1.78-.47,4.22-2.24,5.73-2.19,2-4.89,1.78-7.56,1.78q-107.92,0-215.86,0c-2.32,0-4.67-.28-7,.32-3.71,1.8-5.86-1.2-8.34-2.87-8.89-6-18.45-5.85-26.78.44a20.22,20.22,0,0,0-6.18,8.26c-1,2.16-2,4.28-4.69,4.66a54.75,54.75,0,0,1-8.49.3q-104.35,0-208.73,0c-3.15,0-6.34.37-9.4-.74-3.17-1.8-3.16-4.9-3.24-7.95-.07-3.54.52-7.08.16-10.63a3.32,3.32,0,0,1,.66-3.32C-102-24.71-100.76-26.21-101.33-28.17Z" transform="translate(108.97 108.84)"/><path class="cls-3" d="M404.05,323.1A74.65,74.65,0,0,1,395.87,343c-.62.4-1.71.44-1.74-.05-.31-4.78-3.79-3.32-6.43-3.32q-57.21,0-114.42,0c-4.43,0-8.89-.51-9.37,5.88-.13,1.84-2,2.54-3.7,2.85a31.41,31.41,0,0,1-5.48.28H-12.1c-2.48,0-5,.22-7.37-.86A2.77,2.77,0,0,1-21,345.35c.12-5.74-3.46-6-7.91-5.94-19.09.16-38.17,0-57.26.09-2.8,0-6.12-.88-6.9,3.45-.11.6-1.11.45-1.7,0a42.85,42.85,0,0,1-6.32-14.63c-1.21-7.34-1.21-7.34,6.45-7,2.17.09,4.33,0,6.5,0H138.13q126.63,0,253.28,0c3,0,6,.42,8.83-1a9.17,9.17,0,0,1,1.6-.71,1.8,1.8,0,0,1,1.55.43C404,321,404.51,321.94,404.05,323.1Z" transform="translate(108.97 108.84)"/><path class="cls-4" d="M-70-68c2.2,1.8,4.79,2,7.49,2L138.3-66c2.87,0,5.39,0,7.71-2.87a5.16,5.16,0,0,1,7.81.34c1.75,2.2,3.68,2.54,6.05,2.54Q262-66,364.18-66A48.45,48.45,0,0,0,371-67c1.71-.77,3.26-2.24,5.37-1.16a4.83,4.83,0,0,0,3.89,2A53.71,53.71,0,0,1,390.88-52c-.89,2.58,1.59,3.81,2.3,5.75-4.44,3-4.86-.33-5.41-3.4-.12-.24-.11-.67-.29-.8s-.41,0-.17.35a6,6,0,0,1,.8,2.6c.05,2.28,4.47,2.79,2.75,5.16s-4.23,0-6.33-.66a15.54,15.54,0,0,0-4.94-.46q-227.07.15-454.13,0c-2.81,0-5.68.25-8.35-1-1.57-.78-2.17-2.38-3.07-3.72a3.49,3.49,0,0,1-.46-1.25c0-.68.32-1.46-.46-2a7.65,7.65,0,0,0-2.08-.1,1.27,1.27,0,0,1-.89-.58,48.09,48.09,0,0,1,8.76-12c.49.12.62.83,1.23.74A4.3,4.3,0,0,1-81-64.08l1.79-2c2.31.21,2.05-2.24,3.27-3.16,1.86-1,3,1.56,4.85.88A1.26,1.26,0,0,1-70-68Z" transform="translate(108.97 108.84)"/><path class="cls-5" d="M370.78,376A71.94,71.94,0,0,1,352,390.11c-3.22.19-6.81,2.05-8.76-2.64-.58-1.39-2.68-1-4.15-1-22.57,0-45.15.19-67.71-.16-5.69-.08-6.64,3.7-8.55,7.19-2.14,1.25-4.51,1-6.82,1q-134.13,0-268.26.05c-4.85,0-8.91-.36-10-6.41-.44-2.56-3.27-2.49-5.42-2.56-6.14-.21-12.3.18-19.62-.56,3.92,1.07,4.42,2.53,2.16,4.46-1.87,1.6-4.08,1-6.21.61C-59.28,385.4-66.75,380-73,373a.81.81,0,0,1-.35-.75c0-.28.09-.43.16-.43a4.43,4.43,0,0,1,2.42-.95A6.36,6.36,0,0,0-68,369.67a2.83,2.83,0,0,1,1.26-.07,10.38,10.38,0,0,0,3.79.59c.47,0,.93,0,1.4.05,1.54.09,3-.48,4.51-.6,11.69-.21,23.37-.5,35.06.13a4,4,0,0,1,2.94,2.33c1.62,6.21,1.62,6.27,7.94,6.28q132.54,0,265.07,0c6.51,0,6.51-.06,8-6.12a3.94,3.94,0,0,1,2.87-2.45,28.61,28.61,0,0,1,6.47-.37c31,0,62,0,93,0C370.73,369.4,371.84,370.56,370.78,376Z" transform="translate(108.97 108.84)"/><path class="cls-6" d="M-89-52l2-1c.46,1,1.6,1.68,1,3v1a2.5,2.5,0,0,1,.81,2.11c-.07.67-.46,1.25-.52,1.92.4-.63.65-1.5,1.71-1,1.8,1.12,3.8,1,5.81,1q228.8,0,457.59-.16c4.09,0,7.32,1.5,10.94,3C389.06-44.95,386-46.62,387-50c-.29-1,.06-1.27,1-1,1.74,1.24-.34,7.23,5,4a.66.66,0,0,1-.2-.74c.09-.22.18-.34.27-.34A5.44,5.44,0,0,1,394.92-45c-.82,1.79-.09,3.51.57,5.06.83,2,1-.78,1.68-.4,2.29,1.74,1.59,4.76,3,6.89a18.63,18.63,0,0,1,.59,2.34c1,3.83.61,4.17-3.72,3.09v-3c-1.34-.55.21-3-2-3H-92c-.54-.58-1.56-.19-2-1v-1c-2-3,1.83-6,.07-9A5.35,5.35,0,0,1-92-48.09C-88.87-47.7-90.48-51-89-52Z" transform="translate(108.97 108.84)"/><path class="cls-7" d="M-106.1,310.17c-1.92-5.16-2.05-10.54-2-15.95a38.59,38.59,0,0,1,.07-12.46c5.27-2.42,10.74-1.33,16.15-.85,1.39.12,2.2,1.29,3,2.4,2.86,3.83,7,4.27,10.43.84a9.08,9.08,0,0,1,6.7-2.71c1.5-.05,3-.05,4.5-.05H117.59c10.72,0,10.79.11,10.84,10.87,0,2.65-.34,5.34.64,7.91.49,2.15,1.69,4.35-.34,6.36-2.14,1.23-4.51,1-6.82,1q-93.82,0-187.64-.06c-6.92,0-13.64-2.67-20.68-2.24-1.71.1-3-1-4.22-2.34-4.3-4.75-6.38-4.5-9.22,1.09-1.47,2.89-2.38,2.3-3.11-.36-.1-1-.64-2-.47-2.94-.39,1.24.68,2.54.37,3.9a5.45,5.45,0,0,1-.23,1.33,26.83,26.83,0,0,1-1.21,3.12A2.32,2.32,0,0,1-106.1,310.17Z" transform="translate(108.97 108.84)"/><path class="cls-7" d="M409.09,294.19c.08,5.43-.09,10.82-2,16a5.25,5.25,0,0,1-2.2-2.52c-1.36-2.72-1.28-5.65-1.27-8.58A16.79,16.79,0,0,0,404,296c0,1.73-1.47,3-3.9,3.36a30.81,30.81,0,0,1-6,.24c-13.84-.65-27.61,1.3-41.44,1-2.46-.05-4.65.34-5.4,3.26-.71,2.73-2.82,3.48-5.37,3.51-1.34,0-2.67,0-4,0q-75,0-150,0c-2.47,0-5,.39-7.37-.76a2.22,2.22,0,0,1,0-3.8c9.13-7.35,17.82-15.3,28.19-21a3.06,3.06,0,0,1,1-.17,81.83,81.83,0,0,1,9-.3c46.31,0,92.63.2,138.93-.11,14.64-.09,29.28-1.17,43.93-.87,2.47.05,5-.31,7.26,1.25C410,285.81,409.6,290,409.09,294.19Z" transform="translate(108.97 108.84)"/><path class="cls-8" d="M409.6,102c.08,22.07.22,44.13.23,66.2,0,17.92-.14,35.84-.22,53.76a1,1,0,0,1-1.26-.61,12,12,0,0,1-.66-4.64c-.07-1.33,0-2.67-.05-4-.13-1.67.06-3.34-.09-5,0-2.33,0-4.66,0-7-.15-4.23-.13-8.45,0-12.67-.1-4-.13-7.9,0-11.86-.08-2.73-.11-5.47,0-8.2-.09-2.47-.17-4.94,0-7.41-.54-6.92-.56-7.13-7.83-7-62.71,1.5-125.43.84-188.15,1-4,0-8,0-12-.07a5.44,5.44,0,0,1-2.94-.15c-1.78-.64-3.44-1.58-3.7-3.62s1.27-3,2.63-3.92c6.3-4.32,12.92-8.15,19.19-12.52,2.3-1.6,4.59-3.41,7.73-2.82,44.49-.16,89,.21,133.45-.21,15.3-.15,30.61-.83,45.93-.88,2.9,0,5.39-.48,5.62-4.1,0-3.65-.12-7.29.07-10.94.16-4.14-.58-8.33.63-12.41A1.55,1.55,0,0,1,409.6,102Z" transform="translate(108.97 108.84)"/><path class="cls-9" d="M402,320c-.56,1.66-.73,3.71-3.42,3a8.25,8.25,0,0,0-2,0H-94c-2.59,0-5.25.48-8-2,.19,3.07,2.08,5.11.78,7.36a24.08,24.08,0,0,1-2.94-9.34c1.7-2.39.16-6.41,2.52-7.72,2-1.13,5,1.19,7.7,1.1,2-.06,4,0,6,0H124.33a58.27,58.27,0,0,1,8.46.29c2.21.27,4,1.51,5.76,2.7,6.68,4.49,13.76,5.07,21.19,2.16,1.83-.72,3.62-1.62,5.7-1.35,15.5.35,31,.13,46.46.14q89.18,0,178.35,0a41.68,41.68,0,0,1,7,.22C399.31,317,401.69,317.08,402,320Z" transform="translate(108.97 108.84)"/><path class="cls-10" d="M-108.58,134a191.87,191.87,0,0,1,0-22,2.69,2.69,0,0,1,1.6.31c3.22,1.89,6.78,1,10.2,1.27,2.58.17,5.37-.52,7.48,1.71,3.12,5,6.52,5.61,10.75,1.57,2.79-2.66,6.06-2.41,9.34-2.41q58.17-.06,116.32,0c2.5,0,5,.06,7.48.21C57,114.64,59,115.82,61,117c6.39,3.84,12.54,8.06,18.64,12.33,1.45,1,4.36,2.29,1.07,4.66-2.78.83-5.63.55-8.44.56H-69.07c-3.46,0-6.73-.31-9.33,3.19-2,2.64-9.23,2.79-11,.12-3.67-5.5-8.83-4.21-13.84-4.23-1.16,0-2.31.29-3.47.34A9.63,9.63,0,0,1-108.58,134Z" transform="translate(108.97 108.84)"/><path class="cls-11" d="M-20,347q138.35,0,276.7.08c4.33,0,7.13-.37,6.36-5.74-.59-4.14,2.7-3.32,5-3.32q36.21,0,72.43,0,24.72,0,49.44,0c2.09,0,4.35.57,5.71-1.73,2,2.49-4.1,4.54.19,6.73a28.54,28.54,0,0,1-4.7,8.39c-1-.54-1.16-1.47-1.27-2.88-1.26,2.57-1.36,5.09-2.07,7.42l-.64,1.17c-1.5.44-2.33-.39-3-1.56-.89-6-.89-6-7.19-6q-52.35,0-104.7,0c-3.37,0-6.67,0-9.37,2.47-2.56,1.52-5.39,1.63-8.24,1.63q-133,0-266,0c-2.5,0-5,0-7.36-1.05a7.13,7.13,0,0,1-1.57-1.15A3.4,3.4,0,0,1-20,347Z" transform="translate(108.97 108.84)"/><path class="cls-12" d="M-51.27,390.14c2-1.72,5.55.51,6.93-2.86-.73-1.14-1.35.32-1.84.15-1.82-.63-5.12.08-5.1-2.23s3-1.1,4.6-1.13c6.83-.16,13.66,0,20.49-.11,4.07-.09,6.5,1.27,6.18,5.7-.2,2.71,1.16,3.54,3.62,3.35,1.32-.09,2.66,0,4,0H263c2.06,2.8,4.89,3.49,8.26,3.47,14.1-.09,28.2-.11,42.3,0,2.48,0,5.47-.7,6.79,2.61-.73,2.24-2.72,2.2-4.5,2.38a65.32,65.32,0,0,1-7,.13q-161.73,0-323.46.23c-6.66,0-12.53-2.12-18.85-2.69A60.16,60.16,0,0,1-51.27,390.14Z" transform="translate(108.97 108.84)"/><path class="cls-13" d="M403-15c.94-1.21.63-3.06,2.06-4,2,7,4.11,14,4.06,21.35,0,1.14,0,2.29,0,3.43a2.07,2.07,0,0,1,.05,1.83c-1.1,6.05-6.67,6-10.83,7.78-1.32.56-3,.17-4.47.21-58.47,1.68-116.95.78-175.42,1-3.67,0-7.33,0-11,.21-6.82-.72-10.77-5.85-15.27-10.07-.95-.89-.48-2.16.57-3,2.74-1.7,5.8-1.27,8.76-1.27,38.41,0,76.83.63,115.22-.24,26.93-.61,53.85-.39,80.77-.93,2.34-.05,4.76-.37,6,2.29a10.27,10.27,0,0,0,1.08.87c.53-.45.49,2.57,1.36.2.43-.52-.15.12.35-.31a8.16,8.16,0,0,0,1.34-2c-.6.33-.93,1.28-1.87.79-1-1.09-1.06-2.53-1.52-3.82A8.85,8.85,0,0,1,404-2.1c-.19-1.61.46-3.13.54-4.71.05-2-1.89-3-2.27-4.75A6.06,6.06,0,0,1,403-15Z" transform="translate(108.97 108.84)"/><path class="cls-14" d="M134.19,313.94Q19.53,314-95.12,314c-2.38,0-4.58-.28-6.55-2.21,1.24,2.44-.65,4.72.19,7.14.21.61-1.68-.19-2.59.07-1.58-2.74-1.88-5.78-2-8.85L-105,309c1.25-.7-.06-2.24,1-3h0c1.13-1.13-.09-2.86,1-4,1.25.57.61,2.12,1.56,3,1.18-2.07-.73-5,1.27-6.37s4.85-.43,7.31-.6c1.8-.13,2.85.63,2.86,2.56,0,2.23,1.18,3.69,3.38,3.35,9.09-1.4,17.68,2.25,26.72,2.21,63-.27,126-.15,189-.16C132.63,307.44,133.42,310.68,134.19,313.94Z" transform="translate(108.97 108.84)"/><path class="cls-15" d="M-108.58,134h.51c2.67,3.18,1.43,7,1.63,10.55.31,5.22.62,5.66,5.78,5.84,2.16.07,4.33,0,6.49.07,2.77.09,5,.76,6.74,3.39,1.91,3,5.43,3.51,7.48.93,2.75-3.45,6.25-3.36,9.9-3.36q55.14,0,110.27,0,27.95,0,55.88,0c2.49,0,5-.19,7.44.5,1.17.46,2.43,1.44,1.16,2.44-4.81,3.76-8.93,8.9-15.9,8.81a37.77,37.77,0,0,0-8.94-.61q-73.17,0-146.32,0c-4.38,0-8.4.19-12.06,3.43-3.21,2.82-8.73,2.07-11.79-1.33-4-4.41-8.8-3.19-13.46-2.61-3.18.39-2.3,3.54-2.77,5.68.08,2.77.12,5.53,0,8.3q.18,6,0,12,.21,6.48,0,13c.12,5.26.15,10.51,0,15.76.08,2.75.12,5.49,0,8.24.13,4.49.06,9,0,13.46.11,1.72,0,3.44,0,5.16-.11,2.21.21,4.46-.66,6.59a1.25,1.25,0,0,1-1.32.78c-.09-16.93-.25-33.85-.24-50.77C-108.82,178.13-108.67,156.06-108.58,134Z" transform="translate(108.97 108.84)"/><path class="cls-16" d="M-33.46,399.15c4.06-1.41,7.54-.45,11.21,1.77,1.53.93,3.92-2,6.43-1,.85.36,2,.06,3,.06q163.34,0,326.67,0c2.06,0,4.36.84,6.18-1,2.33,0,3.19,2.42,5.14,3.05-4.28,3.63-9.8,2.81-14.73,4.08-4.09.39-8.16,1.06-12.25,1.36-.82-1.31-1.71-1.24-3.27-.95-2.88.54-5.82-.42-8.72-1a52.5,52.5,0,0,0-6-.15H20.68a41.13,41.13,0,0,0-6,.2C9.55,407.46,4,405.39-1.2,407.4a4.7,4.7,0,0,1-3-.33A81.7,81.7,0,0,1-33.46,399.15Z" transform="translate(108.97 108.84)"/><path class="cls-17" d="M409.07,222a4.87,4.87,0,0,0,.54,0q.06,34.92.11,69.86a9.51,9.51,0,0,1-.63,2.36q-.07-6.09-.16-12.18c-2.29-3.35-1.21-7.12-1.36-10.73-.06-2.11-.1-4.22,0-6.33-.11-2.72-.1-5.43,0-8.15-.22-4.31,0-8.62-.09-12.93-.59-6.49-1.28-7.19-8-7.27-16-.2-31.93,1-47.91,1q-37,0-74,0c-2.49,0-5,.23-7.43-.62-.7-.4-1.73-.93-1.25-1.75,2.23-3.82,3.52-8.42,8.13-10.41,4.14-.64,8.31-.34,12.46-.34,20.48,0,40.95.11,61.42-.06,17.13-.15,34.24-1.29,51.38-1A21.33,21.33,0,0,0,409.07,222Z" transform="translate(108.97 108.84)"/><path class="cls-18" d="M405,300a20.49,20.49,0,0,0,1,8,13.28,13.28,0,0,1,.08,7.29A5.85,5.85,0,0,0,405,319c-.89.45-.06,2.6-2,2v-1c-.53-4.3-2.83-5.66-7-4.51-1.56.43-3.31.1-5,.1q-106.14,0-212.29,0c-3.13,0-6.36.56-9.3-1.12-.16-4.05,2.93-6.95,8.84-8.31a15.6,15.6,0,0,0,5.87.88c52.82,0,105.65.27,158.46-.19,16.31-.14,32.63-.23,48.95-.38,4.74-.05,9-.46,11.38-5.34A2,2,0,0,1,405,300Z" transform="translate(108.97 108.84)"/><path class="cls-19" d="M370.78,376c-1.52-5-1.52-5-8.5-5H265c-1-.67-2.56-.57-3-2.1-1.24-7.76,0-9.45,7.67-9.47q50.4-.09,100.8,0c4.05,0,7.67.59,9.46,4.87.08.32.16.64.23,1C378.6,370.15,374.38,372.8,370.78,376Z" transform="translate(108.97 108.84)"/><path class="cls-20" d="M325.14,402.05c-3,1.21-3.41-2.06-5.14-3.05-1.47-1.64-3.43-1-5.18-1-15.63,0-31.27-.17-46.9.06-4.05.06-5.5-1.24-4.92-5.09,0-7.61.4-8,7.79-8q35.34,0,70.68,0c2.32,0,4.31-.13,4,3.07-.16,1.66,1,1.24,2,1.63,1.6.6,3.31-1.63,4.55.45L348.81,392a10.85,10.85,0,0,0-5.75,3.21A50.9,50.9,0,0,1,325.14,402.05Z" transform="translate(108.97 108.84)"/><path class="cls-21" d="M-20,347v4c-2.2,2.06-5,1.53-7.57,1.53-16.74.05-33.48.09-50.22,0-2.5,0-4.68,0-5.3,3.06-.73,1.12-1.6,2-3.1,1.52A50.42,50.42,0,0,1-94.81,343c5-2.14-1.83-3.14-.41-5h68.8c6.41,0,6.41,0,6.42,6.51Z" transform="translate(108.97 108.84)"/><path class="cls-22" d="M408.9,7.05c.08-.43.15-.86.22-1.29,1.06,1.49.7,3.22.7,4.85q0,44.21,0,88.42c0,1-.16,2-.24,3h-.53a3,3,0,0,1-1-1.38,18.32,18.32,0,0,1-.45-5.17c-.16-3-.09-5.94-.06-8.92-.42-7.92-.42-8.07-8.34-7.93-38.09.68-76.18,1.32-114.27,1-2.81,0-5.67.32-8.4-.77-2.15-2.34-4.47-4.64-2.07-8.15,3.13-.68,6.29-.18,9.44-.19,24.79,0,49.58.4,74.35-.18,14.62-.34,29.24-.76,43.86-.83,3.79,0,5.48-1.51,5.33-5.34a81.53,81.53,0,0,1,.08-9q-.22-7.14,0-14.28C407.71,29.57,406.25,18.23,408.9,7.05Z" transform="translate(108.97 108.84)"/><path class="cls-23" d="M297-108.06c-1.44,1.71-3.41,1-5.15,1Q150.51-107,9.14-107c-1.75,0-3.71.67-5.16-1,2-1.11,4.24-.75,6.37-.75q140.15,0,280.3,0C292.78-108.79,295-109.14,297-108.06Z" transform="translate(108.97 108.84)"/><path class="cls-24" d="M296.28,408.13c-3,1.22-6.24.73-9.36.73q-136.35.08-272.7,0c-3.12,0-6.32.46-9.37-.7l.64-.68a23,23,0,0,1,7.43-.91c75.28-.16,150.55,0,225.82-.07,16.65,0,33.3-.07,49.95,0C291.29,406.73,294,406.4,296.28,408.13Z" transform="translate(108.97 108.84)"/><path class="cls-22" d="M-108.07,112h-.53q-.12-33.17-.24-66.33c0-10.64-.08-21.29,0-31.93,0-2.61-.53-5.32.66-7.85l.67.57a6.58,6.58,0,0,1,.86,3.39c0,4.46.24,8.91.1,13.37.15,5.82.16,11.63,0,17.45.09,2.73.07,5.47,0,8.2.15,2.1.07,4.21,0,6.31.2,3.32.08,6.65.09,10,0,2.89,1.28,4.27,4.2,4.28,2.66,0,5.33-.1,8,.12,5.06.43,6,2,4.65,7.27-3,2.51-6.54,1.5-9.88,1.6-6.76.18-6.76.09-7,6.81.15,4.28.14,8.56,0,12.85C-107,102.74-105,107.65-108.07,112Z" transform="translate(108.97 108.84)"/><path class="cls-25" d="M-4.09-107.3c-1,1.78-.41,3.52.18,5.23.36,1.07.4,1.92-.85,2.41-.64.25-1.56.6-1.76,0-2-6.47-6.5-.48-10.19-3.31,1.31,2.63,3.27,2,3.81,3.88-3.19-.19-6.29,1.26-9.33-.19-.19-2,2.45-1,2.52-3A19.74,19.74,0,0,0-28-100a4.05,4.05,0,0,1-3.71.18L-32-100C-23.14-104.14-13.75-106.22-4.09-107.3Z" transform="translate(108.97 108.84)"/><path class="cls-26" d="M313-102c-3.77.81-7.54,1.73-9.11-3.43-.94-3-4.51-.36-5.89-2.56a56.83,56.83,0,0,1,19,3C317-102.22,314.32-103,313-102Z" transform="translate(108.97 108.84)"/><path class="cls-27" d="M-68,370a1.82,1.82,0,0,1-2,2,1.76,1.76,0,0,0-3,0c0,.34,0,.68,0,1a18.27,18.27,0,0,1-5.33-5.87c.14-1.51-1-3.81,2.14-3.47a15.56,15.56,0,0,0,6,2.23C-68,366.31-66.53,367.42-68,370Z" transform="translate(108.97 108.84)"/><path class="cls-17" d="M-108.59,251l.5,0c1.86,1.72,1.45,4,1.53,6.15.2,4.62,0,9.25,0,13.87-.19,3.71.92,7.58-1.42,11q-.09,6.11-.17,12.21c-1.46-5.22-.64-10.56-.69-15.83C-108.88,269.25-108.67,260.11-108.59,251Z" transform="translate(108.97 108.84)"/><path class="cls-21" d="M-77,364c-1.7.52.35,2.63-1.34,3.15a17.2,17.2,0,0,1-4.5-5.18c.72-1.61-2.44-2.62-.79-4.16,1.25-1.17,2.65-.43,3.77.65.35.56,0-.2.31.36.65,1,1,3.13,2.62.71a1.9,1.9,0,0,1,1.52,1.17,3,3,0,0,1,0,2C-75.74,363.41-76.42,363.64-77,364Z" transform="translate(108.97 108.84)"/><path class="cls-28" d="M376-68c-1.8-.35-3,2.51-5,1,0-.34,0-.67,0-1a4.23,4.23,0,0,0,.63-.93,1.81,1.81,0,0,0-.43-1.54L371-71c0-1.77-3-3-.92-5.15a16.87,16.87,0,0,1,7.11,7.06A1.41,1.41,0,0,1,376-68Z" transform="translate(108.97 108.84)"/><path class="cls-29" d="M387.83,355.92c-2.27-3.55,1.44-6.27.86-9.75,3,1.1,2,3.46,2.48,5.21C390.2,353,389.69,355,387.83,355.92Z" transform="translate(108.97 108.84)"/><path class="cls-30" d="M296.28,408.13,289,408c-.7-1.44-.28-2.28,1.35-2,2.22.39,4.53.2,6.67,1,4.46-.47,8.88-1.53,13.41-.86C305.85,407.84,301.07,408,296.28,408.13Z" transform="translate(108.97 108.84)"/><path class="cls-31" d="M397-28c5.63.84,2.51-3.38,3.13-5.43a24.14,24.14,0,0,1,3.49,8.55C400.31-23.58,398.78-26.06,397-28Z" transform="translate(108.97 108.84)"/><path class="cls-32" d="M-103-20c2,.2,1.49,1.35,1.29,2.77A67.18,67.18,0,0,0-102-10a3.22,3.22,0,0,1-4,.33,1,1,0,0,1-.14-1.51l.26-1.79c1.12.25,1-.25,1.12-1.21A11.29,11.29,0,0,1-103-20Z" transform="translate(108.97 108.84)"/><path class="cls-33" d="M397.17-40.32c-.26,1.22.06,2.66-1.64,3.87-.49-3-4.19-5.35-.61-8.53A10.5,10.5,0,0,1,397.17-40.32Z" transform="translate(108.97 108.84)"/><path class="cls-34" d="M-65-75c-2.28-.13-1.84-2-2.14-3.39l1-.86C-64.77-79.27-64-80.4-63-81l-.07,0c2,.12,2.16,1.48,2.07,3C-61.84-76.35-63.46-75.73-65-75Z" transform="translate(108.97 108.84)"/><path class="cls-35" d="M-103-20a63.89,63.89,0,0,1-1.06,7.21c-.53,2.12-1.15-.19-1.78-.16.94-4.47,1.58-9,3.81-13.11a2.48,2.48,0,0,1,0,3Z" transform="translate(108.97 108.84)"/><path class="cls-36" d="M-93.93-45c2,1.05,2.25,2.53,1.21,4.42A7.72,7.72,0,0,0-94-36c-3.54-1.54-.16-4.33-1.15-6.34C-94.74-43.22-94.33-44.1-93.93-45Z" transform="translate(108.97 108.84)"/><path class="cls-37" d="M-80,359c-5.4-3.28-1.23,2.61-2.84,3-1.31-1.5-2.73-2.92-3.35-4.88L-84,356a2.5,2.5,0,0,1,2-.73c1.61.42,2.63,1.3,2.43,3.13Z" transform="translate(108.97 108.84)"/><path class="cls-26" d="M333-100c-4.4.62-8-2-12-3l-.26-.52L321-104A41.24,41.24,0,0,1,333-100Z" transform="translate(108.97 108.84)"/><path class="cls-38" d="M385.09,360c-.61,2.69-3.22,3.5-4.89,5.2l-.26-.31a23.14,23.14,0,0,1-2-3.84c-.58-1.86.13-2.77,2-2.78a3.43,3.43,0,0,1,1.23.48C382.2,360.17,383.88,359.4,385.09,360Z" transform="translate(108.97 108.84)"/><path class="cls-4" d="M-72.91-73c1.31,1.47,4.39-1.42,4.91,2-1.39.67-2.24,2.16-3.84,2.53-2.35-.59-2-2.08-1.23-3.71A1.79,1.79,0,0,1-72.91-73Z" transform="translate(108.97 108.84)"/><path class="cls-1" d="M-73.07-72.18C-73-70.74-73.14-69.13-71-69c.31.22.42.44.32.67s-.2.34-.31.34c-.26,1.84-1.12,2.23-2.42.85-.75-.79-1.21-1.87-2.53-1.85-.33-.19-.44-.39-.35-.61s.2-.32.31-.32Z" transform="translate(108.97 108.84)"/><path class="cls-38" d="M385,356l2.19,1.09a2.27,2.27,0,0,1-1.26,1.88c-1.64.15-3.28.81-4.93,0C380.88,355.09,381.82,354.38,385,356Z" transform="translate(108.97 108.84)"/><path class="cls-39" d="M343.13-95.28a2.51,2.51,0,0,1-.39.91c-1.88,1.8,3.91.23,1.06,2.4-1.5,1.14-2.62-.06-3.43-.93-2.11-2.27,1.68-1.65,1.6-3Z" transform="translate(108.97 108.84)"/><path class="cls-40" d="M-89-52a26.07,26.07,0,0,0,.25,3.32c.19,1,0,1.44-1,1.72-1.18.34-2.22.64-2.3-1.14.74-1.3,1.47-2.61,2.2-3.91Z" transform="translate(108.97 108.84)"/><path class="cls-35" d="M-106.1-11.16l.23,1.11c1.21,1.54,1.2,3.32,1,5.14a16.09,16.09,0,0,1-1,3.53,4.73,4.73,0,0,1-.72,1.23,1,1,0,0,1-1.26.14C-108-3.85-107.11-7.51-106.1-11.16Z" transform="translate(108.97 108.84)"/><path class="cls-41" d="M376-68l1.19-1.09a4.55,4.55,0,0,1,3.07,3C377.37-63.41,376.53-65.35,376-68Z" transform="translate(108.97 108.84)"/><path class="cls-29" d="M381,359a4.05,4.05,0,0,1,4.93,0l-.84,1C383.59,360.23,381.11,364.38,381,359Z" transform="translate(108.97 108.84)"/><path class="cls-42" d="M313-102l4-3c1.37.15,2.84-.08,4,.93l-.15.25c-1.1,1-2.81.69-3.87,1.79C315.66-102.48,314.33-101,313-102Z" transform="translate(108.97 108.84)"/><path class="cls-43" d="M393.05-48.09c0,.36-.05.72-.07,1.08-4.2-.17-3.24-2.53-2.1-5C391.6-50.67,392.33-49.38,393.05-48.09Z" transform="translate(108.97 108.84)"/><path class="cls-5" d="M343.06,395.21c.94-2.84,2.73-4.13,5.75-3.21A9.25,9.25,0,0,1,343.06,395.21Z" transform="translate(108.97 108.84)"/><path class="cls-44" d="M-76-69.92c0,.31,0,.62,0,.93-1.64.33,1.68,6.41-3.31,2.86C-78.33-67.53-77.73-69.22-76-69.92Z" transform="translate(108.97 108.84)"/><path class="cls-24" d="M-4.2,407.07l3.24-.14c1.83-.6,3.64-1.42,5.59-.41a1,1,0,0,1,.46,1.38l-.24.27C1.8,408-1.29,408.34-4.2,407.07Z" transform="translate(108.97 108.84)"/><path class="cls-45" d="M406.09,315.29c0-2.43,0-4.86-.08-7.29a2.46,2.46,0,0,1,1.08,2.18A9.62,9.62,0,0,1,406.09,315.29Z" transform="translate(108.97 108.84)"/><path class="cls-46" d="M-102-23c0-1,0-2,0-3,.23-.7.47-1.4.7-2.11C-99.25-26.16-101-24.64-102-23Z" transform="translate(108.97 108.84)"/><path class="cls-47" d="M-107.81,0h.81c1.44,2.29,2.28,4.48-.93,6l-.25-.13C-108.06,3.93-107.93,2-107.81,0Z" transform="translate(108.97 108.84)"/><path class="cls-48" d="M-63-81c-.81,1-1,3.07-3.13,1.75A3.15,3.15,0,0,1-63-81Z" transform="translate(108.97 108.84)"/><path class="cls-45" d="M403,321l2-2a6.07,6.07,0,0,1-.95,4.1Z" transform="translate(108.97 108.84)"/><path class="cls-26" d="M313.15-99.9h14.23c-5.48,2.37-9.75.41-14,.78A4.66,4.66,0,0,1,313.15-99.9Z" transform="translate(108.97 108.84)"/><path class="cls-49" d="M366.66-73.69l-5-3.37C364.51-77.37,365.91-76.8,366.66-73.69Z" transform="translate(108.97 108.84)"/><path class="cls-50" d="M-65-75c.79-1.74,2.57-2.16,4-3C-60.86-75-62.42-74.34-65-75Z" transform="translate(108.97 108.84)"/><path class="cls-51" d="M317-102c.76-1.73,2.14-2.15,3.87-1.79a3,3,0,0,1,.14.79C319.94-101.55,318.37-102.15,317-102Z" transform="translate(108.97 108.84)"/><path class="cls-52" d="M-31.71-99.83-28-100c.38.21,1.64.46.71.79C-28.61-98.75-30.42-98.38-31.71-99.83Z" transform="translate(108.97 108.84)"/><path class="cls-53" d="M372-68h-1c-.17-1-3.82-2,0-3h0C372.07-70.25,373.15-69.49,372-68Z" transform="translate(108.97 108.84)"/><path class="cls-54" d="M-71-68c0-.34,0-.68,0-1a3.05,3.05,0,0,1,3-2l-2,3Z" transform="translate(108.97 108.84)"/><path class="cls-55" d="M-57.83-86c.84.07,1.66.21,2,1.07a.83.83,0,0,1-.34.73c-1.28.23-1.74-.55-1.86-1.67Z" transform="translate(108.97 108.84)"/><path class="cls-56" d="M274.05,71c.69,2.33,1.39,4.67,2.09,7,2,2.83,1.14,6,1.21,9.09a18.9,18.9,0,0,1-4.33,10c-1.47,1.61-3,3.14-4.64,4.64-7,5.12-14.57,9.32-21.67,14.27-5.44,3.5-10.76,7.18-16.16,10.75-3.25,1.63-5.67,4.79-9.57,5.22l-28.17,18.19a12.63,12.63,0,0,0,5.23,3.73c5.73,1.12,9.44,5.73,14.34,8.29,3.38,2.35,6.84,4.59,10.28,6.85,3.61,2.44,7.22,4.88,10.89,7.25,6.57,4.38,13.08,8.86,19.76,13.08,5.81,4,12.22,7.13,17.37,12.08a22.94,22.94,0,0,1,6.18,9.87,14.15,14.15,0,0,1,.45,3.1c.12,1.38.06,2.75.08,4.13,0,2.57.53,5.27-1.49,7.44A42.45,42.45,0,0,1,269.09,236c-2.43,3.76-6.38,5.83-9.63,8.67-5.32,4-10.46,8.19-15.84,12.07-3.84,3.21-7.91,6.14-11.9,9.17-2.85,2.21-5.65,4.49-8.5,6.72-5,3.48-9.27,8-15,10.41q-14.55,10.37-28.26,21.83c-.22,1.66-2,1.31-2.82,2.15l-8.05,6.17c-.91,2.29-2.81,3.28-5,3.8-10.65,5.82-20.61,4.95-29.83-3.07l-5.12-8c-.39-1.67-.79-3.34-1.18-5,0-9.62-1.41-19.18-1.35-28.81.32-9-.37-18.06,0-27.08.17-14.62,0-29.24,0-43.87,0-1.42.57-3.32-1.11-4-1.27-.53-2.43.79-3.52,1.51-8.32,5.5-16.59,11.07-24.9,16.57-6,3.64-11.8,7.74-17.68,11.63-6.32,4.25-12.81,8.25-19.25,12.31a22.34,22.34,0,0,1-7.87,3c-2.92.28-5.86.15-8.79.16A14.91,14.91,0,0,1,33.38,238c-4.19-4.44-8.41-8.86-9.27-15.32a18.64,18.64,0,0,1-.41-4.59A24.41,24.41,0,0,1,30,202.72c5.36-5.59,12.31-9,18.49-13.5,6.55-4.46,13.35-8.53,19.94-12.94,3.69-2.33,7.24-4.86,10.89-7.25,3.64-1.87,6.4-5.3,10.68-6a116.35,116.35,0,0,0,15.07-10c1.6-2.51.24-3.81-1.83-5.15-5.6-3.59-11.09-7.34-16.6-11.06-1.63-1.09-3.57-1.89-4.36-3.92a304.36,304.36,0,0,0-25.82-17c-6.07-1.58-10.24-6.53-15.85-8.9-3.72-2.26-7.59-4.3-10.37-7.81A36,36,0,0,1,24,86.39a21,21,0,0,1,0-7.87c.67-2.25,1.4-4.48,2.21-6.68,8.22-13.69,22.69-17.29,36-8.86l12.66,8c3.42,2.59,7.05,4.87,10.63,7.24,4.72,3.16,9.39,6.4,14.25,9.35,7.53,5.14,15.13,10.16,22.74,15.17,3.56,2.33,4.12,2,4.17-2.18.09-6,.09-11.93-.06-17.9-.2-8.89.08-17.77,0-26.64,0-5.69-.13-11.38-.1-17.07q0-19.2.28-38.39a4.56,4.56,0,0,1,1.39-2.51c3.29-9.38,9.11-15.94,19.46-17.53,6.78-1,12.71.88,18.09,5,1.71,1.29,3.48,2.5,5.22,3.76a2.79,2.79,0,0,1,1.82.44,25.09,25.09,0,0,1,4.2,3c4.89,4.18,10.79,7.17,14.74,12.46a120.51,120.51,0,0,0,14.14,10.92c5.38,2.09,9.39,6.18,13.87,9.55,6.9,5.19,13.52,10.74,20.58,15.71,5.77,5,12.09,9.32,18.07,14,3.72,3,7.57,5.76,11.08,8.95C271.42,66.17,273.89,67.83,274.05,71Z" transform="translate(108.97 108.84)"/><path class="cls-57" d="M128.15-1.95l-.26,2c-1.32,5.07.68,10.37-1.1,15.41C124,17.11,121,16.57,118,16.57q-92.65,0-185.31,0c-3.93,0-7.67-.31-10.84,3.42-2.59,3.05-9.84,1.86-12.62-1.38C-92,17.21-93,15.7-95.11,15.71c-4.82,0-8.4-2.62-11.88-5.47a3.08,3.08,0,0,1-.46-1.62c4.69-1.76,5.5-5.79,5.88-10.08L-101-2Z" transform="translate(108.97 108.84)"/><path class="cls-58" d="M191.68,5.17a142.56,142.56,0,0,1-15.75-12,2,2,0,0,1,1.84-2.48,12.93,12.93,0,0,1,3-.13c71.31.11,142.63-.23,213.94.15.05,0,.1-.25.15-.39.65-.13-.3-1,.09-.48.13.18,0,.24-.34.37-1.6.63-3.26.3-4.88.3Q286-9.5,182.26-9.58c-3.42,0-6.95,1.36-10.31-.4l-1-.79c.19-1.3.79-2.18,2.23-2.2s3,0,4.49,0H396.23c2.44,0,5.06.54,6.77-2v4a34.53,34.53,0,0,1,1,16,2.76,2.76,0,0,1-.07.49,3.66,3.66,0,0,1-.18.46C402.48.8,398.54,3,395.49,3c-20.3,0-40.63-.69-60.9.12C288.88,5,243.16,3.4,197.45,4A10.93,10.93,0,0,0,191.68,5.17Z" transform="translate(108.97 108.84)"/><path class="cls-59" d="M-106-4q.06-3,.13-6.05L-102-10a20.53,20.53,0,0,0,1,8h0c-1,1.69-.3,3.55-.51,5.32-.15,1.22.43,3-1.59,3-1.64,0-1.94-1.6-2.1-2.92C-105.52.92-105.45-1.58-106-4Z" transform="translate(108.97 108.84)"/><path class="cls-60" d="M-94-35a2,2,0,0,1,2,1c-3.18,1.5-1.35,5.67-3.93,7.53C-97.73-29-97.73-29-94-35Z" transform="translate(108.97 108.84)"/><path class="cls-61" d="M395-34l2.65-1.51L397-31C393.25-30,395.7-33,395-34Z" transform="translate(108.97 108.84)"/><path class="cls-45" d="M164,317l5-3.8c1.59,1.36,3.51.76,5.28.76q110.52,0,221.06,0c2.55,0,5.35.72,6.92-2.18,2.67,2.72.66,5.51.67,8.19h-1c-2.14-2.58-5.11-2-7.89-2l-223.28,0C168.52,318,166.14,318.34,164,317Z" transform="translate(108.97 108.84)"/><path class="cls-62" d="M-84-46c-1.69,1.28-2.19,4.28-6.06,3.61,2.48-2,4.87-3.49,4.06-6.61C-84-48.91-84-47.45-84-46Z" transform="translate(108.97 108.84)"/><path class="cls-63" d="M-81-64.08c1.91,1.08,1.91,1.08,1.77,3.71C-80-61.88-80.56-63-81.09-64Z" transform="translate(108.97 108.84)"/><path class="cls-64" d="M-86-50l-1-3C-86.34-52.11-83.22-52-86-50Z" transform="translate(108.97 108.84)"/><path class="cls-65" d="M388-51l-1,1c-.58-.11-1.52,0-1.24-.92a2.22,2.22,0,0,1,1.31-1.32C388-52.53,387.88-51.59,388-51Z" transform="translate(108.97 108.84)"/><path class="cls-19" d="M263,372a21.29,21.29,0,0,0,0,3c.54,3.88-.94,5.1-5,5.1q-136.56-.18-273.12,0c-7.37,0-4.27-4.84-4.94-8.11,1.76-1.73,4-1.39,6.14-1.39q135.36,0,270.71,0C259,370.6,261.23,370.3,263,372Z" transform="translate(108.97 108.84)"/><path class="cls-27" d="M263,372H-20a2.06,2.06,0,0,0-2-1c0-1.82,1.5-1.94,2.75-2.31a38.06,38.06,0,0,1,7.47-.32q132.57,0,265.16,0c3.26,0,6.72-.73,9.62,1.61a2.06,2.06,0,0,1,2,1A2.06,2.06,0,0,0,263,372Z" transform="translate(108.97 108.84)"/><path class="cls-19" d="M-20,370a2.06,2.06,0,0,0-2,1H-59c-1-.8-2,.23-3,0h-1c-1.24-.7-2.82,0-4-1h-1c.26-2.86-1.58-3.33-3.71-3-2.74.48-4.15-1-5.29-3l1-1a6.45,6.45,0,0,1,4.66-1.39q23.46-.06,46.91,0a7.43,7.43,0,0,1,4.32.93C-18.12,365-18.21,367.49-20,370Z" transform="translate(108.97 108.84)"/><path class="cls-66" d="M-73,372c.13-.8.23-1.68,1.26-1.81,1.34-.17,1.6.79,1.74,1.81Z" transform="translate(108.97 108.84)"/><path class="cls-27" d="M-62,371q1.5-1.92,3,0C-60,371.26-61,372.59-62,371Z" transform="translate(108.97 108.84)"/><path class="cls-27" d="M-67,370c1.38.14,3-.46,4,1A2.83,2.83,0,0,1-67,370Z" transform="translate(108.97 108.84)"/><path class="cls-67" d="M127.81,272q0,14.49.08,29c-2-4.47-.67-9.16-.79-13.74-.08-3.25-1.06-4.29-4.33-4.29q-97.71.12-195.43.05c-2.24,0-4.43-.2-4.45,3.1,0,1.82-1.61,2.18-2.9,1.85-3.72-1-9.95,3.41-10.43-4.87-.09-1.47-2.23-1-3.5-1.05-4.66,0-9.33,0-14,0V271c.34-.57.74-1.39,1.3-1.39,5.76,0,11.66-1.32,17.17,1.56,3.15,5.06,6.23,5.65,10.73,1.73a9.94,9.94,0,0,1,6.86-2.42q97.56-.1,195.12,0a9.57,9.57,0,0,1,3,.46A4.48,4.48,0,0,1,127.81,272Z" transform="translate(108.97 108.84)"/><path class="cls-68" d="M-103,302c-.15,1.38.46,2.95-1,4v-7.08C-102.38,299.76-103.28,301-103,302Z" transform="translate(108.97 108.84)"/><path class="cls-69" d="M-104,306c0,1.26.34,2.73-.19,3.71s-.61-.33-.82-.71C-105,307.9-105.18,306.72-104,306Z" transform="translate(108.97 108.84)"/><path class="cls-70" d="M208.2,283.06a128.4,128.4,0,0,1,14.49-11.17c3.09-1.59,6.42-1.53,9.76-1.53,42,0,84,.24,125.93-.12,14.31-.13,28.61-1.08,42.93-.85,2.63,0,5.39-.38,7.62,1.61v11C342,283.54,275.11,282.77,208.2,283.06Z" transform="translate(108.97 108.84)"/><path class="cls-71" d="M177.12,307l2.82-2.15c1.41,1.75,3.38,1.08,5.13,1.08q77.71.06,155.43.06c3.2,0,6.12.24,5.58-4.49-.31-2.76,2-2.57,3.82-2.53,15.63.38,31.22-1.91,46.85-.92,5.07.32,7.17-1.18,6.28-6.3a11.57,11.57,0,0,1,.33-2.64c5.09,3.4.29,7.61,1.64,10.85-1.87,7.2-6.91,8.15-13.61,8.13q-103.2-.31-206.41-.1A26.67,26.67,0,0,1,177.12,307Z" transform="translate(108.97 108.84)"/><path class="cls-10" d="M229.94,125.89,246,115.11a57.49,57.49,0,0,1,11.42-.72c33,0,66,.3,98.95-.13,15-.19,29.93-.9,44.91-.84,2.63,0,5.39-.4,7.63,1.58v11c-2.9,2.44-6.46,2.48-9.93,2.56-52.71,1.34-105.43,1.16-158.15.94C237.06,129.49,232.38,130.63,229.94,125.89Z" transform="translate(108.97 108.84)"/><path class="cls-72" d="M408.94,115c-12.29,0-24.62-.52-36.88.1-40.26,2-80.53.29-120.79.87-1.76,0-3.7.64-5.24-.86l21.87-14.32c6.79.93,13.63.58,20.44.6,15,0,30-.18,44.94,0,23.46.37,46.88-1.63,70.34-1.12,1.8,0,3.67-.53,5.32.68,0,.33.08.67.13,1Q409,108.5,408.94,115Z" transform="translate(108.97 108.84)"/><path class="cls-73" d="M252.91,190.18A216.17,216.17,0,0,1,233,177c2.54-2.26,5.67-1.58,8.59-1.58,38.12,0,76.23.22,114.34-.16,15.12-.16,30.25-.92,45.38-.85,2.62,0,5.38-.39,7.62,1.59v12c-1.76,1.62-4,1.51-6.13,1.57-48.14,1.38-96.28.94-144.43,1C256.54,190.63,254.74,190.26,252.91,190.18Z" transform="translate(108.97 108.84)"/><path class="cls-74" d="M252.91,190.18c1.54-1.93,3.7-1.14,5.59-1.15,25.27-.05,50.55.1,75.83-.07,24.87-.16,49.74-.62,74.61-1v13c-1.75,1.64-4,1.54-6.11,1.6-41.71,1-83.42,1.18-125.14,1-2.68,0-5.34,0-7.68-1.61Z" transform="translate(108.97 108.84)"/><path class="cls-15" d="M212,163.05A106.46,106.46,0,0,1,198,153.87c1.72-1.54,3.82-.84,5.75-.84,51.15,0,102.31.18,153.46-.17,14.25-.09,28.51-1,42.78-.83,10,.1,9-1.94,8.91,9-6.91,1.42-13.9.43-20.86.69-24.42.93-48.87,1-73.31.95-33.28,0-66.55-.27-99.82.13A20.89,20.89,0,0,0,212,163.05Z" transform="translate(108.97 108.84)"/><path class="cls-75" d="M212,163.05c1.33-2.82,3.92-2,6.14-2,47.6,0,95.2.28,142.79-.21,14.06-.14,28.15-.72,42.23-.81,2,0,4-.16,5.8,1v7c-1.76,1.63-4,1.54-6.13,1.59-57.94,1.37-115.89,1-173.83,1a58.92,58.92,0,0,1-6.92-.86A54.78,54.78,0,0,1,212,163.05Z" transform="translate(108.97 108.84)"/><path class="cls-76" d="M222.06,169.77c1.78-1.39,3.86-.74,5.79-.74,38.46,0,76.92.08,115.38-.07,21.9-.09,43.8-.63,65.71-1v8c-58.64,1.28-117.29,1-175.93,1A70.54,70.54,0,0,1,222.06,169.77Z" transform="translate(108.97 108.84)"/><path class="cls-77" d="M270,202c46.32.37,92.62-.35,138.93-1,0,2.34,0,4.68,0,7a4.82,4.82,0,0,1-4.11,2.41c-1.15.13-2.32.15-3.48.17q-60,1.29-120,1a18.35,18.35,0,0,1-5.43-.51A46.74,46.74,0,0,0,270,202Z" transform="translate(108.97 108.84)"/><path class="cls-78" d="M275.9,226l.24-8c2.38-2.13,5.33-1.57,8.1-1.58,22.27,0,44.54.06,66.81,0,16.77-.09,33.51-1.28,50.29-1,2.62.05,5.37-.38,7.6,1.59l.12,5c.15,2.92-1.73,3-3.94,3-8.47-.05-17-.42-25.4,0-25.27,1.42-50.56.78-75.84.92C294.55,226,285.22,226,275.9,226Z" transform="translate(108.97 108.84)"/><path class="cls-79" d="M229.94,125.89a20.82,20.82,0,0,0,10,2.11c40.45,0,80.91.44,121.35-.25,13.09-.23,26.22-.38,39.32-.79,2.8-.09,5.58-.63,8.36-1,1,4.89-1.06,6.31-5.87,6.1-8.44-.36-16.92-.4-25.36,0-50.35,2.08-100.72.41-151.08.91-1.9,0-4,.78-5.65-1Z" transform="translate(108.97 108.84)"/><path class="cls-80" d="M275.93,211.12c1.4-1.75,3.37-1.08,5.12-1.09,10.31-.06,20.62-.22,30.93,0,30.73.66,61.43-1.38,92.16-1a8.87,8.87,0,0,0,4.81-1c0,1.66,0,3.32,0,5a6.11,6.11,0,0,1-4.62,1.51c-8-.27-15.94,1-23.9.24-6-.58-11.92.81-17.9.82q-39.63.06-79.28,0c-2.45,0-5,.35-7.1-1.56Z" transform="translate(108.97 108.84)"/><path class="cls-81" d="M276.14,214c44.27.35,88.54-.31,132.8-1,0,1.33,0,2.67,0,4q-66.4,1.38-132.81,1Z" transform="translate(108.97 108.84)"/><path class="cls-82" d="M82.28,132.89,109,150.1a7.32,7.32,0,0,1-3.91,2.92q-88.93,0-177.86,0c-2.74,0-4.65-.11-5.72,3.63-.87,3-5,.93-7.65,1.34-2.18.33-2.94-1.07-2.84-3,.13-2.6-1.48-2.94-3.56-2.91-4,0-8-.09-12,0-2.61.08-3.53-1-3.48-3.54.1-4.83,0-9.66,0-14.49.43-2.37,2.29-2,3.91-2,3,0,6,0,9,0,2.7,0,5.46-.48,5.41,3.73,0,1.78,1.69,2.44,3.3,2.23,2.8-.37,6.88,1.7,8.09-1.79,1.27-3.71,3.55-3.15,6.06-3.15H77.79C79.29,133,80.78,132.93,82.28,132.89Z" transform="translate(108.97 108.84)"/><path class="cls-83" d="M41,106c5.78,2.28,10.55,6.16,15.46,9.82-42,0-83.92,0-125.88.23-3.17,0-7.39-2.23-8.92,4-.56,2.26-6.14,1.13-9.33.69S-89.75,117.16-90,115c-1.62-3.53,1-4.21,3.33-4.33A17,17,0,0,0-76.58,107c2-1.59,4.69-1.57,7.2-1.58q52-.06,103.94-.05C36.75,105.38,38.81,106.17,41,106Z" transform="translate(108.97 108.84)"/><path class="cls-84" d="M41,106c-1.67,1.67-3.79.92-5.69.93q-52.41.06-104.8,0c-3.6,0-6.8.16-9.11,3.72-1.58,2.46-4.62,1.06-7,1.27-2.12.18-4.62-.46-4.38,3-4.74,0-9.48-.06-14.22,0-2.21,0-4-.21-3.85-3l.12-14c7.33-.56,14.8-2.55,20.93,4,2.2,2.37,5.39,1.44,7.73-.47a14.56,14.56,0,0,1,9.71-3.13c32.23,0,64.46.06,96.69,0a14.91,14.91,0,0,1,3.94.47Z" transform="translate(108.97 108.84)"/><path class="cls-29" d="M-20,370v-7c-1.73-1.42-3.81-1-5.77-1-14.82,0-29.64,0-44.46,0-2,0-4,.42-5.77-1l-1-1a2.63,2.63,0,0,1-.85-1.73C-78.4,356-79.53,354.78-82,356h-2c-.56-3.81.84-5.14,4.88-5.09,19.71.2,39.41.09,59.12.09,1.39,7.25,6.46,7.51,12.59,7.5q128.91-.24,257.82,0c6.13,0,11.2-.25,12.59-7.5.21-2.71,2.08-3,4.26-3,38.73.11,77.46.17,116.19.39,1.13,0,2-1.06,3.53-.22-2.45,2.21-2,5.07-2,7.84-3-1.19-3.52.86-4,3-1.59,0-3.08,0-1.86,2.27a5.81,5.81,0,0,1,.8,3.64c-2.9-3.92-7-4-11.4-4-32.21.13-64.43.07-96.64.07-8.9,0-8.9,0-8.9,9Z" transform="translate(108.97 108.84)"/><path class="cls-21" d="M263,351c0,9,0,9-8.82,9H-11.18C-20,360-20,360-20,351a27.26,27.26,0,0,0,7.85,1q133.65-.06,267.3,0A27.26,27.26,0,0,0,263,351Z" transform="translate(108.97 108.84)"/><path class="cls-85" d="M239.57,42.14q-17.31-12.45-33.75-26c2.11-1.34,4.47-1.09,6.79-1.09,49,0,97.93.26,146.89-.17,12.91-.12,25.83-.78,38.76-.83,1.69,0,3.37.16,3.93-2.08.25-1,1.27-2.1,2.15-1.71,3.46,1.54,3.49-1.48,4.57-3.16q0,17,0,34c-1.76,1.63-4,1.54-6.12,1.6-51.82,1.29-103.66,1-155.49,1A20,20,0,0,1,239.57,42.14Z" transform="translate(108.97 108.84)"/><path class="cls-86" d="M404,5c-.73-5.31-1.43-10.62-1-16,1.6.88,2.92,2,3,4-1.05,1.53-2.28,3-1,5v1c.65,2,1,4,0,6Z" transform="translate(108.97 108.84)"/><path class="cls-85" d="M406,3,407.64.89C407,2.23,410.19,5.14,406,5A1.35,1.35,0,0,1,406,3Z" transform="translate(108.97 108.84)"/><path class="cls-87" d="M406,3c0,.67,0,1.33,0,2-.18.43-.35.87-.53,1.3L405,5l0-6C406.48.06,405.84,1.63,406,3Z" transform="translate(108.97 108.84)"/><path class="cls-88" d="M405-2c-1.83-2.1-1.15-3.7,1-5C405.67-5.33,405.33-3.66,405-2Z" transform="translate(108.97 108.84)"/><path class="cls-89" d="M127.81,272H127c-1.65-1.84-1.44-4.11-1.45-6.33-.54-7-.54-7.07-7.74-7.07q-92.68,0-185.36,0c-3.77,0-7.08.63-10.24,3-3.58,2.71-8.42,2.79-11-.16-3.54-4-7.78-3.91-12.32-3.78-2.27.06-4.65,1-6.78-.62l-.15-6,.15-7c7.09-.5,14.41-2.92,20.37,3.7,2.27,2.52,5.75,2.27,8.18.13,3.62-3.18,7.72-3.43,12.12-3.43q91.89,0,183.79,0a44,44,0,0,0,9.45-.62,2.5,2.5,0,0,1,1.84.2Z" transform="translate(108.97 108.84)"/><path class="cls-90" d="M127,244c-.81,3.28-3.5,1.94-5.36,1.94q-68.16.12-136.31.06c-18.8,0-37.61,0-56.42,0-2.79,0-4.86.35-6.73,3-2.66,3.77-10.05,2.84-12-1.39C-91,245.24-92.52,245-94.61,245c-4.46-.1-9,.61-13.33-1,0-1.67,0-3.34,0-5,3.62-4.51,14-5.07,18.92-1s5.23,4.22,10.7.44c2.84-2,5.93-1.95,9.08-1.95,30.59,0,61.19-.06,91.78.07,3.73,0,7.59-1.7,11.24.47A16.82,16.82,0,0,0,43,241.08a24.12,24.12,0,0,0,9.94,0c9.73-3.2,17-10.56,26-15.14a23.56,23.56,0,0,1,9.26-1.61c10.66.06,21.32,0,32,0,2.31,0,4.7-.24,6.74,1.26A65.51,65.51,0,0,1,127,244Z" transform="translate(108.97 108.84)"/><path class="cls-91" d="M30.93,202.88A28.59,28.59,0,0,0,24.87,218c-2.4,2.11-5.36,1.55-8.13,1.55q-42,.07-84,0c-3.88,0-7.35.3-10.62,3.15-3.88,3.37-10,2.39-13.27-1.71-1.75-2.19-3.83-2.26-6.17-2.44-3.58-.26-7.39.93-10.64-1.56V201c5.37-2.82,11-1.58,16.53-.92,1.19.15,1.85,1.28,2.58,2.2,2.92,3.7,6.91,4.31,10.07,1.12a10,10,0,0,1,7.61-3q48.14-.09,96.26.05C27.2,200.5,30,199.75,30.93,202.88Z" transform="translate(108.97 108.84)"/><path class="cls-73" d="M68.9,177a225.41,225.41,0,0,1-19.84,13.13,116,116,0,0,1-13.44.49q-51.4,0-102.82,0c-4,0-7.62-.08-10.88,3.43-3,3.29-10.7,1.91-13.22-1.87-1.6-2.41-3.69-2.4-6-2.58-3.57-.28-7.38.92-10.62-1.58V176c5.37-2.86,11-1.55,16.58-1,1.56.16,2.39,1.59,3.31,2.82,2.35,3.12,5.74,3.57,8.34.66,2.29-2.58,5-3.07,8-3.07q67.21,0,134.44,0C64.92,175.44,67.17,175.26,68.9,177Z" transform="translate(108.97 108.84)"/><path class="cls-92" d="M-107.94,188c3.83,0,7.65,0,11.48,0,3.15,0,6.94-1.11,6.74,4.46-.08,2,2.32,1.71,3.64,1.46,2.68-.52,6.51,2,7.87-1.83,1.1-3,2.95-3.11,5.35-3.11l117.79,0c1.45,0,3-.38,4.13,1.1L30.93,202.88c-1.37-1.41-3.13-.86-4.73-.86q-48.88,0-97.76,0c-2.62,0-4.6-.16-6.08,3.3s-6,1.25-9.12,1.62a2.69,2.69,0,0,1-3.19-3c0-3-1.89-3-4-3-4.66,0-9.31,0-14,0Z" transform="translate(108.97 108.84)"/><path class="cls-17" d="M33.77,237c-29.36,2.22-58.76.42-88.13,1-4.49.08-9,0-13.47,0-4.18,0-8.24-.6-11.68,3.44-2.16,2.53-6,2.58-8.91-.34-1.55-1.54-2.06-4.46-5.12-4.09-4.82.58-10-1.64-14.41,2q0-7,0-14c5.37-2.79,11-1.56,16.52-.89,1.19.14,1.83,1.28,2.53,2.23,2.53,3.43,7,4.43,9.67,1.51,3-3.32,6.59-3.41,10.43-3.41q42.12,0,84.23,0c3.35,0,6.63-.13,9.68-1.72C26.6,228.34,29.84,232.88,33.77,237Z" transform="translate(108.97 108.84)"/><path class="cls-75" d="M90,163a59.94,59.94,0,0,1-10.07,6.77,45.81,45.81,0,0,1-9.92.84q-69,0-138,0c-3.63,0-7.06-.19-9.91,3.28-2.36,2.88-9.69,2.44-11.82-.56-2.43-3.42-5.49-3.77-9.11-3.77-3.1,0-6.4.71-9.14-1.55-.14-8-.14-8,7.73-8,2.16,0,4.33,0,6.49,0a3.76,3.76,0,0,1,3.43,1.58c4.2,5.94,7.9,6.19,12.82,1,1.38-1.45,3.2-1.57,5.07-1.57H85.32C87.19,161,89.05,160.9,90,163Z" transform="translate(108.97 108.84)"/><path class="cls-76" d="M-107.94,168c4,0,8,.16,12-.05,3.42-.17,5.83.17,7.08,4.22,1.14,3.66,4.91,1.28,7.46,1.77,1.74.34,3.38-.06,3.42-2.44,0-2.78,2.1-2.49,3.93-2.5h21.45q63.39,0,126.76,0c1.93,0,4-.65,5.79.74L68.9,177q-70.37,0-140.75,0c-2.77,0-5.32-.81-6.75,3.6-1,3.15-5.94,1-9.1,1.3-2.57.24-1.58-1.65-1.52-3.08C-89.1,176.26-91,176-93,176c-5,0-10,0-15,0Z" transform="translate(108.97 108.84)"/><path class="cls-93" d="M25.12,222.73c.11,4.06-2.87,3.26-5.24,3.26q-45.13,0-90.28,0c-3,0-5.59-.66-7.46,3.54-1.47,3.3-6.37,1.06-9.73,1.37-2.44.22-2.4-1.77-2.43-3.45,0-2.4-1.69-2.48-3.46-2.47q-7.23,0-14.46,0v-8c4.16,0,8.32,0,12.49,0,2.87,0,5.4-.42,5.83,3.95.29,2.94,10.1,3.35,11.62.17,1.69-3.52,4.18-3.11,6.94-3.11H24.87C25,219.58,25,221.15,25.12,222.73Z" transform="translate(108.97 108.84)"/><path class="cls-94" d="M5,407l-6-.06c4.15-4.29,9.44-.36,14-1.94,1.73-.92,3.6-.46,5.39-.46q132.11,0,264.22,0c1.79,0,3.66-.46,5.39.46,3-.79,5.85,1.46,9.31-.31,1.84-.93-.18,1.42-.31,2.3-2.63.66-5.58-1.29-8,1H12C9.89,406.08,7.16,408.63,5,407Z" transform="translate(108.97 108.84)"/><path class="cls-95" d="M288,405H13c1.47-1.64,3.43-1,5.18-1q132.32,0,264.64,0C284.57,404,286.53,403.36,288,405Z" transform="translate(108.97 108.84)"/><path class="cls-30" d="M306.09,404.21h4.67l.06.43h-4.57Z" transform="translate(108.97 108.84)"/><path class="cls-89" d="M243.2,256.05l15.73-12.26a53.58,53.58,0,0,0,8.95.62c31.43,0,62.88.41,94.31-.19,13.78-.26,27.57-.61,41.36-.82,1.81,0,3.67-.3,5.38.62q0,6.49,0,13a4.07,4.07,0,0,1-2.83.78c-21.12-1.11-42.2,1-63.31.88-29.77-.18-59.54,0-89.31-.08C249.9,258.57,246.07,259.16,243.2,256.05Z" transform="translate(108.97 108.84)"/><path class="cls-96" d="M243.2,256.05c4.55,1.25,9.2.94,13.83.95,34.1,0,68.2.38,102.28-.18,13.93-.24,27.86-.74,41.79-.85a24.94,24.94,0,0,1,7.84,1q0,4,0,8c-1.9,1.77-4.3,1.56-6.61,1.62-54.57,1.39-109.14,1-163.72,1-2.61,0-5.77.94-7.5-2.3C234.74,261.69,239,258.92,243.2,256.05Z" transform="translate(108.97 108.84)"/><path class="cls-97" d="M408.93,244c-1.79,1.14-3.8,1-5.8,1-9.78,0-19.59-.46-29.34.08-36.71,2.06-73.43.32-110.13.89-1.81,0-4.24.88-4.73-2.18L269.09,236c28.79,0,57.57-.08,86.36,0,7.31,0,14.56-.67,21.84-1,7.56-.32,15.15-.07,22.72-.07C408.59,235,409.1,235.52,408.93,244Z" transform="translate(108.97 108.84)"/><path class="cls-98" d="M231.1,265.27c1.62,1.27,3.53.7,5.3.7,42.92,0,85.84.47,128.75-.21q21.87-.35,43.78-.77v6c-11.49,0-23-.42-34.47.07-48.92,2.11-97.85.3-146.77.92-1.67,0-3.33-.06-5-.1Z" transform="translate(108.97 108.84)"/><path class="cls-99" d="M331.16,397.94c-4.25.48-8.1,2.8-10-3.65C324.06,397.17,328,394.69,331.16,397.94Z" transform="translate(108.97 108.84)"/><path class="cls-100" d="M274.05,71c-4.19-6.35-11.08-9.72-16.35-14.88,2.29-2.32,5.27-1.7,8-1.7,30.09-.06,60.19.27,90.28-.16,15.11-.22,30.22-.91,45.33-.85,2.62,0,5.38-.39,7.61,1.59,0,4-.1,8,.1,12,.15,3-.93,4.12-4,4.06-8.94-.15-17.91-.46-26.82,0-32.62,1.77-65.25.54-97.87.92C278.2,72,276,72.27,274.05,71Z" transform="translate(108.97 108.84)"/><path class="cls-101" d="M408.94,55c-9,0-17.95-.34-26.9.06-41.44,1.85-82.9.41-124.34,1.06a187.09,187.09,0,0,1-18.12-14c34.91,0,69.82,0,104.74-.18,21.54-.12,43.08-.63,64.63-1Q409,48,408.94,55Z" transform="translate(108.97 108.84)"/><path class="cls-102" d="M276.14,88V78c26.09,0,52.19.31,78.28-.12,15.88-.26,31.76-.95,47.66-.88C409,77,409,77,409,84c0,1,0,2-.05,3-1.6,1.5-3.62,1.53-5.62,1.57-40.35.84-80.71,1.34-121.08,1C280.1,89.56,277.87,89.69,276.14,88Z" transform="translate(108.97 108.84)"/><path class="cls-103" d="M276.14,88c44.27.18,88.54-.06,132.8-1q0,4.5,0,9c-1.91,1.76-4.31,1.55-6.63,1.61-40.78,1.12-81.58,1.12-122.38,1-2.76,0-5.73.58-8.08-1.64C273.61,94.13,275.42,91.32,276.14,88Z" transform="translate(108.97 108.84)"/><path class="cls-104" d="M271.86,97c30.94,0,61.89.64,92.8-.23,14.77-.41,29.53-.32,44.29-.73,0,1.67,0,3.33,0,5a42.31,42.31,0,0,1-5.84,1c-43.05,1.31-86.1,1-129.15,1-2.24,0-4.82.69-6.05-2.19Z" transform="translate(108.97 108.84)"/><path class="cls-16" d="M5,407a14.37,14.37,0,0,0,5.65-.72c1.71-.72,1.93.27,1.37,1.67l-6.93-.05A6.86,6.86,0,0,1,5,407Z" transform="translate(108.97 108.84)"/><path class="cls-85" d="M127,15c.51-5-1-10.07.9-15q0,19.5-.08,39c-.12,3.09-1.89,4.35-4.82,4.46-2.16.08-4.32.09-6.48.09q-92.08,0-184.17,0c-3.29,0-6.7-.46-9.64,1.67-3.44,1.65-7.07,1-10.67.89-2.59-.44-3.59-3.1-5.76-4.12-3.73-1.3-7.49-.82-11.25-.23a3.53,3.53,0,0,1-3-.84V23c5-2.69,10.33-1.64,15.57-.93,1,.13,1.67,1,2.33,1.78C-86,28.62-81,29-76.75,24.62a7.15,7.15,0,0,1,4.9-2.09c2.16-.17,4.33-.11,6.49-.11h180c1.67,0,3.34-.08,5,0,3.43.16,5.91-.76,6.1-4.77A4.66,4.66,0,0,1,127,15Z" transform="translate(108.97 108.84)"/><path class="cls-105" d="M74.61,72.13c-3.65-2.27-7.35-4.47-10.93-6.84-14.22-9.4-26.83-7.07-36.41,6.81-2.48,1.81-5.37,1.49-8.17,1.49q-43.11,0-86.21,0c-3.63,0-6.77.2-9.88,3.25s-8.06,2.09-12.3.82L-90,77c.79-4.66-1-6.25-5.83-6.12C-108,71.21-108,71-108,59c0-1.32,0-2.64.06-4,5.37-2.82,11-1.61,16.55-.9,1.21.15,1.82,1.3,2.53,2.25,2.7,3.59,6.34,4.21,9.65,1.12,2.72-2.54,5.75-3.06,9.16-3.06q95.42,0,190.85,0a12.92,12.92,0,0,1,5.4.74,2.43,2.43,0,0,1,1.23,1.47c.12,4-.17,8,.11,12,.26,3.58-1.48,4.77-4.64,4.9-4,.18-8,.09-12,.1-9,0-18,0-27,0A25,25,0,0,1,74.61,72.13Z" transform="translate(108.97 108.84)"/><path class="cls-106" d="M127,15c0,9,0,9-8.95,9Q24.3,24-69.44,24c-3.11,0-7.16-1.25-6.7,4.37a1.05,1.05,0,0,1-1.3,1.14c-3.78-1-7.63-.3-11.43-.55-1.42-.1-2.18-.76-1.89-2.26.68-3.58-1.61-3.75-4.18-3.73-4.34,0-8.67,0-13,0l0-14c.3-.45.61-.45.91,0,4.31,2.22,8,6.1,13.55,5,2.12-.4,3.45.43,3.52,2.93.08,3.09,2.54,3.4,4.69,2.94,2.49-.53,6.46,2.35,7.22-2.62.37-2.44,2-2.28,3.66-2.28,5.33,0,10.66,0,16,0Z" transform="translate(108.97 108.84)"/><path class="cls-103" d="M31.05,98.89c-1.58,1.86-3.73,1.07-5.63,1.08q-48,.06-96,0c-3.1,0-5.58.31-7.81,3.15-2.68,3.42-8.75,2.69-11-1-1.54-2.51-3.62-3-6.28-3.17-4.1-.21-8.33,1-12.31-.93q0-6.51,0-13c5.53-1.62,11.14-.24,16.71-.48,1.27,0,1.85,1.22,2.55,2.16,2.89,3.83,5.19,4.52,8.69,1.8,3.14-2.44,6.49-3,10.24-3q43.89,0,87.77,0c2.48,0,5-.22,7.18,1.45C26.44,91.27,29.05,94.93,31.05,98.89Z" transform="translate(108.97 108.84)"/><path class="cls-107" d="M-107.95,41h3a30.3,30.3,0,0,1,12,0c2.16.51,2.87,2.46,4,4a13.13,13.13,0,0,0,11,0c0-1.66.29-3,2.4-3,1.33,0,2.66,0,4,0h193c2.58,0,5.47.62,6.44-2.94V56q-.39.66-.81,0h0c-1.53-4.88-5.17-5.5-9.74-5.49q-92.13.16-184.26.07c-3.85,0-7.4.06-10.48,3.3-2.64,2.78-10.16,2.61-12.48-.34-3.24-4.12-7.3-4-11.66-3.94-2.12,0-4.33.79-6.32-.59Z" transform="translate(108.97 108.84)"/><path class="cls-108" d="M-107.94,49c4.52-1.63,9.21-.85,13.84-1a4.25,4.25,0,0,1,3.64,2.27c3.43,5.12,9.75,5.33,13.32.43,1.39-1.91,3.42-1.74,5.43-1.74H120.06C127,49,127,49,127,56Q27.91,56-71.17,56c-3,0-5.35,0-7.21,3.58-1.7,3.24-6.05,1-9.2,1.35C-90,61.17-90,59.18-90,57.48c0-2.4-1.68-2.49-3.45-2.48q-7.23,0-14.47,0Z" transform="translate(108.97 108.84)"/><path class="cls-109" d="M25.2,86.93-71.5,87c-2.82,0-5.15,0-7.32,2.87-3.12,4-9.86,2.35-11.06-2.56-.5-2.06-1.66-1.93-2.8-1.72A40.2,40.2,0,0,1-107.94,85c-.18-9.62-.43-7.84,7.63-8,3.44-.06,6.87,0,10.31,0h0c5.15,5.59,5.74,5.67,12.26,1.14a11,11,0,0,1,6.64-1.69q45.1-.06,90.21,0c2.12,0,4.37-.2,6.07,1.58Q25.18,82.5,25.2,86.93Z" transform="translate(108.97 108.84)"/><path class="cls-85" d="M-107,9h-.91c0-1,0-2,0-3,1.68-1.8.64-4,.93-6,0-.32,0-.64,0-1,2.74,2.75,2.73,5.59,0,9Z" transform="translate(108.97 108.84)"/><path class="cls-110" d="M-107.94,257a38.94,38.94,0,0,1,12.35-1c2.9.16,5.69.08,7,4,1,3,8.3,3.17,10.56.05s4.72-3.06,7.76-3.06q94.14,0,188.28,0c9,0,9,0,8.93,9-2.73,2.25-6,1.59-9.12,1.59q-90.86.06-181.72,0c-5.22,0-10.24-.47-14.88,3.74-2.78,2.52-7.56,2-11.27-.37l-17.93,0Q-107.93,264-107.94,257Z" transform="translate(108.97 108.84)"/><path class="cls-27" d="M-76,361c17.06,0,34.11,0,51.16.05,1.75,0,4.21-1.09,4.84,1.95H-76Z" transform="translate(108.97 108.84)"/><path class="cls-37" d="M-77,358v2c-1.73,1.85-2.81,1.76-3-1h0C-79.16,358.18-78.34,357.33-77,358Z" transform="translate(108.97 108.84)"/><path class="cls-111" d="M372-68l-1-3c.92.13,2.17-.35,2.56.85S372.85-68.48,372-68Z" transform="translate(108.97 108.84)"/><path class="cls-21" d="M-77,358l-3,1a3,3,0,0,0-2-3c.18-1.75,1.41-2.45,2.72-1.72S-75.52,355.44-77,358Z" transform="translate(108.97 108.84)"/><path class="cls-47" d="M-107,8c1.25-3,1.74-6,0-9l1-3c3.23,2.41,1.17,6.44,2.72,9.81C-100.68,3.4-103.37,0-101-2a25.1,25.1,0,0,0,0,3.88C-100.2,6.71-101.95,8.94-107,8Z" transform="translate(108.97 108.84)"/><path class="cls-22" d="M25.18,78q-48.9,0-97.8-.05c-2.56,0-4.37.13-5.7,3.32-1.47,3.54-5.63,1.66-8.48,1.5C-90,82.64-89.64,79.37-90,77c3,0,6,0,9,0,2.13,0,3.89,0,4.13-2.93.26-3.11,3-2,4.74-2q30.47-.11,60.94,0c12.83,0,25.65.07,38.47.1Q26.22,75.07,25.18,78Z" transform="translate(108.97 108.84)"/><path class="cls-17" d="M210,226l-36.9,29V226c1.44-1.36,3.25-1.54,5.08-1.56q13.38-.13,26.76,0C206.7,224.47,208.55,224.53,210,226Z" transform="translate(108.97 108.84)"/><path class="cls-103" d="M207.85,87.94l-34.8,23.45V87c.6-.29-.25-.15.39-.29,10.88-2.34,21.82-1.56,32.75-.47C207,86.32,207.51,87.16,207.85,87.94Z" transform="translate(108.97 108.84)"/><path class="cls-112" d="M127,244V226a5.25,5.25,0,0,1-1-1.7c-2-6.74-2-6.74-9.24-6.76-5.32,0-10.64.17-15.94-.1-1.92-.1-4.58.55-4.93-2.69l31.94-21.63V244H127Z" transform="translate(108.97 108.84)"/><path class="cls-113" d="M95.87,214.75c1.31,1.86,3.28,1.21,5,1.22,6.77.07,13.55.35,20.29-.07,4.94-.31,6.55,1.51,5.86,6.14a29,29,0,0,0,0,4l-48.06,0A147.85,147.85,0,0,1,95.87,214.75Z" transform="translate(108.97 108.84)"/><path class="cls-114" d="M173.05,218V206c6.65-3,13.61-1.1,20.44-1.28a11.49,11.49,0,0,1,2.44.31,177.49,177.49,0,0,1,19.36,12.85c-1.47,1.71-3.52,1.68-5.48,1.7-10.4.1-20.79.08-31.19,0C176.63,219.58,174.63,219.49,173.05,218Z" transform="translate(108.97 108.84)"/><path class="cls-102" d="M207.85,87.94c-3-1.66-6.2-.86-9.32-.9-8.49-.11-17,0-25.48,0V78c1.75-1.63,4-1.59,6.12-1.6,9.15-.06,18.3,0,27.45,0a18.62,18.62,0,0,1,6.77,1.49c1.73.65,3,1.85,4.67,3.7Z" transform="translate(108.97 108.84)"/><path class="cls-105" d="M185.08,56c6.89,4.72,13.44,9.88,19.84,15.24-.34,2-2,2.11-3.43,2.17-8.44.34-16.88.37-25.32,0A4.82,4.82,0,0,1,173.05,72V56C177.05,53.42,181.06,54.32,185.08,56Z" transform="translate(108.97 108.84)"/><path class="cls-102" d="M98.7,88.11l-13.79-9c.38-2.87,2.77-2.6,4.59-2.64,11-.24,22-.28,33,0,4.78.12,5,.74,5,7.45.19,2.61.12,5.31-3.36,5.36C115.63,89.45,107.06,90.87,98.7,88.11Z" transform="translate(108.97 108.84)"/><path class="cls-115" d="M173.05,218l42.24-.12c2.14.76,3.87,1.61.92,3.66-2.1,1.46-4.17,3-6.26,4.45h-36.9Z" transform="translate(108.97 108.84)"/><path class="cls-22" d="M127,84c.79-4.66-1-6.29-5.84-6.11-10.39.37-20.79.08-31.19.14-1.72,0-3.69-.65-5.06,1.12l-10.3-7c15.81,0,31.63-.22,47.44,0,4,0,5.33-1.19,5-5.1-.29-3.64-.06-7.32-.06-11h.81V84Q127.41,84.68,127,84Z" transform="translate(108.97 108.84)"/><path class="cls-103" d="M127,84h.81v23.48C117.58,101.08,108,94.87,98.7,88.11c8.13,0,16.27-.19,24.4,0C126.21,88.11,127.37,87,127,84Z" transform="translate(108.97 108.84)"/><path class="cls-2" d="M172-10H396.78c-2.53,1.39-4.25,1-5.86,1Q286.73-9,182.54-9c-2.35,0-5.16-1-6.61,2.1Z" transform="translate(108.97 108.84)"/><path class="cls-116" d="M173.05,72c9,0,18.1,0,27.14,0,1.59,0,3.32.51,4.73-.77a42.92,42.92,0,0,1,8.47,6.65L173.05,78Z" transform="translate(108.97 108.84)"/><path class="cls-117" d="M195.93,205c-7.55,2.1-15.26.43-22.88,1V189.44Z" transform="translate(108.97 108.84)"/><path class="cls-118" d="M185.08,56l-12,0V46.66A89,89,0,0,1,185.08,56Z" transform="translate(108.97 108.84)"/><path class="cls-17" d="M53,241.11a11.83,11.83,0,0,1-9.94,0Z" transform="translate(108.97 108.84)"/><path class="cls-119" d="M-90,271c2.49,0,5,0,7.48,0,2.21,0,4.27.24,4.83-2.85.29-1.58,2.12-2,3.64-2.1s3-.06,4.49-.06H127q0,3,0,6-98.67,0-197.34,0c-3.27,0-6.48-1-8.4,3.9-1.06,2.67-6.17,1.25-9.3.86C-91.43,276.36-89.48,273-90,271Z" transform="translate(108.97 108.84)"/><path class="cls-108" d="M-78,45c-2.71,2.89-8.29,2.89-11,0Z" transform="translate(108.97 108.84)"/><path class="cls-108" d="M-93,41h-12A15.69,15.69,0,0,1-93,41Z" transform="translate(108.97 108.84)"/><path class="cls-85" d="M-104.72,14.07c-.41.18-.83.54-1.23.52a.6.6,0,0,1-.45-1,2.21,2.21,0,0,1,1.31-.38C-105,13.19-104.88,13.69-104.72,14.07Z" transform="translate(108.97 108.84)"/></svg>