<svg id="图层_1" data-name="图层 1" xmlns="http://www.w3.org/2000/svg" viewBox="0 0 250.2 512"><defs><style>.cls-1{fill:#3b3b3b;}.cls-2{fill:#131313;}.cls-3{fill:#fefefe;}.cls-4{fill:#292929;}</style></defs><title>蓝牙</title><path d="M149-105c5.13,1.56,9,4.85,12.87,8.47q54.18,51,108.5,101.77c7.29,6.84,7.91,15.91.93,23.25C258.8,41.63,245.84,54.36,233,67.19q-40.61,40.65-81.31,81.19c-1.94,1.93-2.27,3-.14,5.12Q208,209.74,264.32,266.12c2.47,2.47,5,4.92,7.24,7.58,6.35,7.46,6,16.35-1,23Q216.29,347.58,162,398.41A79,79,0,0,1,151,407h-8c-9.32-3.92-12.57-10.86-12.51-21,.34-54.57.16-109.14.17-163.71,0-1.66.13-3.32.2-5-.71-4.81-.18-9.61-.35-13.72-.48,3.27.61,7.39-.5,11.34-2-1.08-.94-3-.95-4.41-.1-12.76-.06-25.53-1.13-38.94-9.37,9.55-18.69,19.14-28.13,28.63q-29.2,29.38-58.53,58.66c-3,3-6.33,5.75-10.94,3.27-5.44-2.93-5.8-8.19-.82-13.22Q48.86,229.42,68.35,210c18.61-18.63,37.16-37.31,55.91-55.79,2.68-2.64,2.66-3.84,0-6.48q-47.16-46.86-94.05-94c-2.7-2.7-5.58-5.49-3.46-9.95,2.79-5.89,8.39-6.6,13.8-1.41C46.91,48.5,53,54.89,59.22,61.13Q93.6,95.6,128,130c1.79-1,1-2.47,1-3.61.06-15.33,0-30.66.1-46,0-1.46-1.07-3.33.94-4.43,1.08,8.88.19,17.8.48,26.69,0,4.89,0,9.79.17,14.69.32.64,1.23-.14.61.11-.27.11-.42,0-.46-.2-.67-4.91-.09-9.85-.28-14.77q0-92.86,0-185.71c0-2-.42-4,.4-5.92-.47-8.7,5.58-12.46,12.06-15.9Z" transform="translate(-26 105)"/><path class="cls-1" d="M130.94-89.1c.09,2,.27,4,.27,6q0,76.35,0,152.68c0,11.14-.19,22.28-.3,33.42-.27.49-.55.49-.82,0L130,76c.14-2.32.4-4.63.4-7q0-76.4,0-152.79C130.44-85.52,129.94-87.39,130.94-89.1Z" transform="translate(-26 105)"/><path class="cls-2" d="M130,215V202.25l.85,0v15.12C130.58,216.55,130.29,215.76,130,215Z" transform="translate(-26 105)"/><path class="cls-3" d="M146.71,130.3V-88.92c4.34,2.4,7.69,6.5,11.41,10,33.06,30.79,65.91,61.8,99,92.6,3.23,3,3.34,4.49.12,7.69Q204.73,73.4,152.59,125.81c-1.6,1.6-3.06,3.34-4.59,5Z" transform="translate(-26 105)"/><path class="cls-3" d="M147.41,170.73c15.08,15.17,29.57,29.8,44.12,44.38,22,22,44,44.12,66.13,66,3,3,2.44,4.42-.31,7Q215.62,327,174.09,366.15c-8.94,8.38-18,16.64-28.1,26C146.18,317.9,145.28,244.89,147.41,170.73Z" transform="translate(-26 105)"/><path class="cls-4" d="M130.09,103a3.84,3.84,0,0,0,.83,0q0,7.44,0,14.87l-.82,0Z" transform="translate(-26 105)"/></svg>