<svg id="图层_1" data-name="图层 1" xmlns="http://www.w3.org/2000/svg" viewBox="0 0 518.97 517.83"><defs><style>.cls-1{fill:#1ed2fd;}.cls-2{fill:#236dea;}.cls-3{fill:#1cdefd;}.cls-4{fill:#1cd7fc;}.cls-5{fill:#2367e9;}.cls-6{fill:#1cdafe;}.cls-7{fill:#226feb;}.cls-8{fill:#1ec9f9;}.cls-9{fill:#2563e9;}.cls-10{fill:#2366e8;}.cls-11{fill:#2277ed;}.cls-12{fill:#255fea;}.cls-13{fill:#1ce1fe;}.cls-14{fill:#1dcdfb;}.cls-15{fill:#21a4f5;}.cls-16{fill:#2462e8;}.cls-17{fill:#1bdbfc;}.cls-18{fill:#219ff3;}.cls-19{fill:#2371ea;}.cls-20{fill:#236ae9;}.cls-21{fill:#2361e7;}.cls-22{fill:#2469ea;}.cls-23{fill:#1cdff9;}.cls-24{fill:#2464e9;}.cls-25{fill:#2b65e7;}.cls-26{fill:#1ed0f8;}.cls-27{fill:#2162e5;}.cls-28{fill:#1ad7f8;}.cls-29{fill:#25cefc;}.cls-30{fill:#1bd6f9;}.cls-31{fill:#1dd5f8;}.cls-32{fill:#17d9f8;}.cls-33{fill:#16d9f8;}.cls-34{fill:#2168e2;}.cls-35{fill:#236ae0;}.cls-36{fill:#1ddafe;}.cls-37{fill:#1cdef6;}.cls-38{fill:#2676ed;}.cls-39{fill:#1bdef7;}.cls-40{fill:#2c60f1;}.cls-41{fill:#1a66e1;}.cls-42{fill:#25e1ee;}.cls-43{fill:#1ecffd;}.cls-44{fill:#27d9fe;}.cls-45{fill:#28d9fc;}.cls-46{fill:#0adff7;}.cls-47{fill:#0be2f3;}.cls-48{fill:#12e0f5;}.cls-49{fill:#fefefe;}.cls-50{fill:#2372eb;}.cls-51{fill:#1f73d9;}.cls-52{fill:#1fc4f9;}.cls-53{fill:#1ebbf8;}.cls-54{fill:#1fadf4;}.cls-55{fill:#1fb3f7;}.cls-56{fill:#1fa9f4;}.cls-57{fill:#1ec0f9;}.cls-58{fill:#1fa1f3;}.cls-59{fill:#20b7f8;}.cls-60{fill:#1cbff7;}.cls-61{fill:#1eb0f6;}.cls-62{fill:#1eb6f7;}.cls-63{fill:#1fa7f5;}.cls-64{fill:#18ceef;}.cls-65{fill:#14d3f1;}.cls-66{fill:#2960e2;}.cls-67{fill:#2d5ff2;}.cls-68{fill:#2378ec;}.cls-69{fill:#2672e1;}.cls-70{fill:#255cec;}.cls-71{fill:#2366e4;}.cls-72{fill:#226add;}.cls-73{fill:#2186ef;}.cls-74{fill:#237aed;}.cls-75{fill:#217fee;}.cls-76{fill:#2091f1;}.cls-77{fill:#2196f3;}.cls-78{fill:#2377ec;}.cls-79{fill:#209cf1;}.cls-80{fill:#218cef;}.cls-81{fill:#208aed;}.cls-82{fill:#2283ed;}.cls-83{fill:#2281ee;}.cls-84{fill:#227dee;}.cls-85{fill:#2099f1;}.cls-86{fill:#218fef;}.cls-87{fill:#2185ef;}.cls-88{fill:#218df0;}.cls-89{fill:#2095f3;}.cls-90{fill:#2387ef;}.cls-91{fill:#209bf1;}.cls-92{fill:#217eee;}.cls-93{fill:#227cee;}.cls-94{fill:#20b8f8;}.cls-95{fill:#2474ec;}.cls-96{fill:#1f75f1;}.cls-97{fill:#2677de;}.cls-98{fill:#1ec5f9;}.cls-99{fill:#1dc2f8;}.cls-100{fill:#1cbef7;}.cls-101{fill:#1dc3f9;}.cls-102{fill:#20a4f5;}.cls-103{fill:#1dccfb;}.cls-104{fill:#2092f1;}.cls-105{fill:#2199f1;}.cls-106{fill:#1fa9f3;}.cls-107{fill:#1dc2f9;}.cls-108{fill:#1ebaf7;}.cls-109{fill:#1fb3f6;}.cls-110{fill:#1fc5f9;}.cls-111{fill:#1fa2f3;}.cls-112{fill:#1dbff8;}.cls-113{fill:#1eb6f6;}.cls-114{fill:#21b7f7;}.cls-115{fill:#fdfefe;}.cls-116{fill:#fcfefe;}</style></defs><title>语音、麦克风</title><path class="cls-1" d="M-102.18-26.08c2-5.59,3.55-11.33,7-16.25.84-.22.53,4.2,2.3.54.5-1,1.81-1.31,3-1.54a18.35,18.35,0,0,1,10.28-.48,27.7,27.7,0,0,0,6,.19q224.08,0,448.18,0c5.74,0,11.53-1.83,17.22.3,3.49.92,4.17,3.52,4,6.63,1.29,1.58.85,3.23-.18,5.67,1.23-2.34,1.78-3.89.26-5.39.26-1.38-.18-3,1.31-3.94,1.73,1.74,2.36,4,2.9,6.28-.36,3.58,3.37,6.29,2.13,10.05a.06.06,0,0,1,0,0c.15.08.3,0,.33-.33.06-.64,0-1.32.54-1.81A11.55,11.55,0,0,1,404.94-20c-.57,1.11-.63,2.59-2.17,3-3.26,1-6.61.61-9.93.61q-241.3,0-482.61,0c-3.66,0-7.34-.16-11,.56-3.08.5-3.12-1.31-2.87-3.6S-101.59-23.64-102.18-26.08Z" transform="translate(109.04 108.86)"/><path class="cls-2" d="M-95.22,342.06a37.83,37.83,0,0,1-5.9-13.7c-1.38-8-1.38-8,6.94-8q243.44,0,486.86,0a40.61,40.61,0,0,0,7.47-.49c1.88-.36,3.27.05,3.77,2.11-.77,7.39-4.24,13.75-7.65,20.14-3.56-3-7.82-2.58-12-2.58q-54.08,0-108.15,0h-4c-6.64,0-6.64,0-8.15,6.49a3.66,3.66,0,0,1-1.2,1.52c-2.31,1.26-4.85,1-7.33,1q-133.87,0-267.76,0c-2.32,0-4.67.13-6.89-.77a3.82,3.82,0,0,1-2-3.73c0-4.21-2.47-4.72-5.89-4.71-20.08.09-40.17,0-60.25.1-2.13,0-4.7-1.09-4.55,3.44C-91.88,345.38-94.08,342.61-95.22,342.06Z" transform="translate(109.04 108.86)"/><path class="cls-3" d="M-67.65-77.94a95.26,95.26,0,0,1,34.2-21.2c5.41-2.28,11.12-1.18,16.7-1.53,3-.19,6.73-2.94,8.56-1.46,3.44,2.75,6.76,1.48,10,1.48q144.44.15,288.87.07c12.15,0,24.29-.21,36.44.07,2.57.05,4.86,1,7.31,1.37,9,2.89,16.94,7.72,24.49,13.29-.08,1.68,1.55,1.14,2.3,1.75a35.82,35.82,0,0,1,7.62,6.15,1.79,1.79,0,0,1-1.2,1.49,4.65,4.65,0,0,1-3.18-.58,6.93,6.93,0,0,1-1-.62c-.64-.41-.85-.08-.88.57,0,1.23.13,2.44-.83,3.41-2.25,1.49-4.79,1.25-7.27,1.25q-78.31,0-156.65,0c-5.3,0-10.61-.11-15.92-.12-10.33,0-20.56.16-30.44,3.68a8.89,8.89,0,0,1-2.91.14c-13.4-4.29-27.22-3.71-41-3.7q-78.66.09-157.32,0c-3.47,0-7,.44-10.26-1.34-1.49-.63-1.63-2.78-3.44-3-1.24.15-2.47.83-3.71.06A2,2,0,0,1-67.65-77.94Z" transform="translate(109.04 108.86)"/><path class="cls-4" d="M393-42H-92a1.21,1.21,0,0,1,0-1.28c1.4-1.3,3.2-2.19,4-4.19.45-1.17-.2-1.29-1-1.53a2.35,2.35,0,0,1,0-3.11c1.54-5.87,6-9.7,9.78-14,1.83-.49,2.4,1,3.22,2.06a2.87,2.87,0,0,1-.1,3.36c-1.17,1.39-3.12,1.81-4.72,4.13H382.48l.23-1.1c-1.85-.93-3.89-1.79-3.19-4.34.38-1.42,1.4-1.72,2.71-1.07a21.41,21.41,0,0,1,7.83,10.91c.69,1.36,1.22,2.73.07,4.09,0,.82-1.78-.62-1.19.77.78,1.86,2.69,2.76,4.14,4A1.08,1.08,0,0,1,393-42Z" transform="translate(109.04 108.86)"/><path class="cls-5" d="M387.8,355.91l-.6,1.19c-2,.63-4.81-1.4-6.06,1.71,0,0,0,0,0,0,.4-.53-.14.2.29-.36,1.77-1.8,3.26-1.63,4.51.53-2,2.37-2.89,5.6-5.92,7.08-4.72-3.48-10.14-3.49-15.7-3.48-30.48.09-61,0-91.45.05-6.65,0-6.71,0-8.64,6.43a5.59,5.59,0,0,1-4.94,4.28,41.24,41.24,0,0,1-6.48.28H-10.56a27.37,27.37,0,0,1-7.45-.53,4.51,4.51,0,0,1-2.22-1.48c-1.1-1.56-1.13-3.4-1.13-5.19,0-2.6-1.11-4-3.81-4q-19.65-.06-39.26,0c-3.43.06-6.88.28-10.29-.41-2.26-.57-2.43-2.82-3.38-4.4-1.25-2.08-2.65-2.57-4.65-1.12a2,2,0,0,1-2-1.09,4.71,4.71,0,0,1-.07-3.5c1.35-2.53,3.82-2.45,6.11-2.46q25.72-.15,51.45,0c2.88,0,5.7.33,7.6,2.94a7,7,0,0,1,1,2.72c.38,2.21,1.92,2.94,3.92,3.13,1.49.14,3,.14,4.49.14q131.67,0,263.34-.06c3,0,7,1.39,8.42-3.19a6.88,6.88,0,0,1,1-2.73c1.63-2.24,4-2.91,6.58-2.92,37.76-.05,75.52-.37,113.28.16.67,0-.17,0,.48.07C384.93,351.46,390.6,350.35,387.8,355.91Z" transform="translate(109.04 108.86)"/><path class="cls-6" d="M382.23-63.09c-1.29.16-2.42.62-2,2.16.29,1.08,1.12,2.64,2.28,2.1,2.14-1,2.31.19,2.41,1.62.11,1.8-1.1,2.22-2.61,2.2-1.17,0-2.33,0-3.5,0H-76.57A18.43,18.43,0,0,1-81-55.24c-1-.25-2.54.35-2.88-1.31-.47-2.36,1.67-1.28,2.49-1.92,1.71-1.35,3.25-2.91,5.43-3.53,2.7-2.36,6-1.57,9.08-1.58q97.55-.08,195.09-.05c4.12,0,8.33.44,12.15-1.72C142.54-68.16,145.83-69,149-70h2c7.3,3.1,15,2.43,22.63,2.43q92.67,0,185.34,0c5.36,0,10.66-.24,15.78-1.94,1.15-.17,2.38-.2,2.66,1.26.31,1.7,1.66,1.73,2.84,2.11A4.11,4.11,0,0,1,382.23-63.09Z" transform="translate(109.04 108.86)"/><path class="cls-7" d="M403.92,322c-.49-.43-1.14-1.32-1.46-1.21-7.79,2.62-15.8,1.13-23.67,1.14q-230,.16-459.92.08h-20.48a16.67,16.67,0,0,1,.49,6.36,41.68,41.68,0,0,1-4-13,7.52,7.52,0,0,1-.13-4.43c.57-.82,1.21-1.43,2.3-.88a7.18,7.18,0,0,0,5.6,2.61c50.2-.46,100.4-.13,150.61-.21a130.53,130.53,0,0,0,14.93-.65,124.37,124.37,0,0,0,14.44.61c49.73,0,99.45-.1,149.18,0q79.77,0,159.55,0a50.54,50.54,0,0,1,9.43.59c3.3.62,5.11,2.15,4.19,5.76C404,319.63,404.14,320.86,403.92,322Z" transform="translate(109.04 108.86)"/><path class="cls-8" d="M409.07,5c1,2,.76,4.24.76,6.39q0,63.71,0,127.42c0,1-.14,2-.22,3-3.55-2.64-1.5-6.44-2-9.71-.08-1.48,0-2.95,0-4.43-.11-3.59-.14-7.18-.06-10.78,0-4.86-.17-9.73,0-14.6-.06-2.11-.11-4.22,0-6.34-.09-4.2-.12-8.39,0-12.59,0-1.49-.15-3,0-4.48.09-2.7-.12-5.39,0-8.08-.13-5.17-.15-10.33,0-15.5-.05-1.83-.12-3.66,0-5.5-.1-3.71-.2-7.43,0-11.14-.19-3.49-.15-7-.15-10.48,0-3.12-1.48-4.54-4.56-4.53-11,0-22-.49-32.91.3-4.32.31-8.62.65-12.94.65q-66.11,0-132.21,0c-1.66,0-3.33,0-5,0-5.51.16-6,.64-6.16,6-.08,2.66.12,5.32-.14,8,.08,3.72.14,7.44,0,11.16.08,2.14.1,4.28,0,6.42.12,5.16.15,10.32,0,15.48,0,2.1.11,4.2,0,6.29.09,2.09.06,4.18,0,6.27q.18,6.32,0,12.63c.09,2.11.08,4.23,0,6.35q.19,6.84,0,13.69c.08,3.93.13,7.85,0,11.78,0,1.5.08,3,0,4.49.1,3.29.09,6.58,0,9.87.08,3.35.14,6.7-.05,10.06-.56,1.48.55,4.24-2.76,3.64-1.68-2.56-1.19-5.47-1.2-8.25q0-58.44,0-116.87c0-7.12-.81-13.93-4-20.35-.81-1.63-1.56-3.36-.72-5.26,2.58-2.15,5.7-1.5,8.63-1.51,34.65,0,69.3.61,103.92-.24,26.81-.65,53.6-.56,80.4-.79,2.55,0,5.57-.75,6.5,2.85a10.62,10.62,0,0,0,1.28-6.34c0-.43-1,.11-.37,0,.25,0,.4.09.37.32-.11,1,.59,2.34-1,2.9-2.93-2.4-1.45-5.16-.65-7.87.91-1.6.77-3.58,1.8-5.14a1,1,0,0,1,1.42-.14C408.19-5,408.18.07,409.07,5Z" transform="translate(109.04 108.86)"/><path class="cls-9" d="M371,375.94a82.57,82.57,0,0,1-19,14.17c-3.51,1.3-6.83,2.36-8.58-2.61-.44-1.27-2.34-1-3.66-1q-34.95,0-69.89,0c-3,0-5.21.78-5.61,4.21a3.94,3.94,0,0,1-1.68,3c-2.34,1.19-4.87,1-7.35,1q-133.57,0-267.13,0h-1.5c-7.58-.19-9-2-7.52-9.59a2.59,2.59,0,0,1,1.42-1.32c6.28.87,12.61.68,18.93.68H249.22c2.33,0,4.66,0,7-.1,3.32-.19,5.36-1.62,5.26-5.23.07-8,1.49-9.6,9.11-9.62q43.86-.09,87.72,0a37.45,37.45,0,0,1,9.9.86c1.71.83,2.25,2.55,3,4.07A1.71,1.71,0,0,1,371,375.94Z" transform="translate(109.04 108.86)"/><path class="cls-10" d="M369,372c-3.64-.34-7.29-1-10.94-1-29.1-.08-58.19,0-87.28,0-7.77,0-7.77,0-7.78,8-1.12,2-3.06,2.4-5.11,2.54-1.83.12-3.67.09-5.5.09q-130.95,0-261.9,0c-3.44,0-7,.65-10.2-1.5a4.54,4.54,0,0,1-1.15-1.59c-.36-2.45-1.58-5.15,1.86-6.51H255.7c7,0,7.15,0,7.23-7,0-3,1-4,4-4q53.19.12,106.39,0c3.84,0,4.78,3,6.65,5.11a10.71,10.71,0,0,1-3.88,4c-1.7,1.38-3.85,1.65-5.82,2.37A1.74,1.74,0,0,1,369,372Z" transform="translate(109.04 108.86)"/><path class="cls-11" d="M-107.83,300l-.06-2.07c.67-1.28.34-2.75.71-4.09.14-1.8-1.13-3.74,1.27-5.22,5-3.08,10.09-5.15,15.33-1,6.12,4.86,6.89,5.07,13.66.42,2.7-1.85,5.71-1.6,8.68-1.6q57.21,0,114.42,0c5.66,0,11.32-.09,17,.06,2.49.06,5.12,0,6.33,2.95-2.4,5.44-.88,11.73-3.73,17.07-2.16,1.2-4.53,1-6.84,1q-62.2,0-124.41,0c-7.12,0-14-2.69-21.22-2.31-1.91.1-3.41-1.29-4.34-3-1.24-2.25-3.16-2.72-5.5-2.41s-2.59,2.22-3,4c-.32,1.25-.4,2.7-2,3.18-1.59-.72-1.39-2.35-1.81-3.71-.19.64.25,1.16.2,1.75a5.77,5.77,0,0,1-.2,1.32,10.07,10.07,0,0,1-1.5,3.81,1,1,0,0,1-1.23-.09h.05A89.88,89.88,0,0,0-107.83,300Z" transform="translate(109.04 108.86)"/><path class="cls-12" d="M-4.21,407.08a83.34,83.34,0,0,1-29.18-7.88c2.4-3.09,5.25-3.14,8.26-1.08,1.6,1.08,2.63,1.86,3.16-1,.2-1.09,2-.9,3.14-.93,3.52.16,7,.15,10.51.15H253.5c2.83,0,5.66-.12,8.48.11,16.92.14,33.85,0,50.78.06a30.89,30.89,0,0,0,6.44-.53c1.13-.24,2.68-.71,3.27.34,1.53,2.73,3.4,1.47,5.48,1.1,3.43-.61,3.82,1,2.05,3.58-8.07,2.89-16.23,5.46-24.8,6.36-3,.31-5.94.47-8.91.7-1.6.7-3.29.37-4.93.37q-140.78,0-281.54,0c-1.64,0-3.33.33-4.93-.38l0,.05a1.06,1.06,0,0,1,.57-1.54c88.32-2.46,246.39-2.41,289.22,0-2.3-.38-4.81.44-6.92-1.08a9.7,9.7,0,0,0-4.43-.53q-133.7,0-267.41,0c-.5,0-1,.05-1.48.09-2.94,1.76-6.22,1.32-9.42,1.43a12.06,12.06,0,0,0-5.21.84C-1.53,407.45-2.9,407.75-4.21,407.08Z" transform="translate(109.04 108.86)"/><path class="cls-13" d="M334.45-99.14H-8.84c-.35-1.23,2-.83,1-2.61-8.09,4.74-17,1.91-25.65,2.61C-21.65-105-9.07-107.51,4-108q146.52,0,293,0a56.81,56.81,0,0,1,19,2.93c2.48,5.06,7.06,2.86,10.92,3.16A13,13,0,0,1,334.45-99.14Z" transform="translate(109.04 108.86)"/><path class="cls-14" d="M405-5c-.35,2.67-2.29,5.33,0,8a4,4,0,0,1,0,4c.55,1.21,1.38,2.49-.26,3.46a2.15,2.15,0,0,1-1.84.16c-1.38-.82-.56-2-.23-3.07.64-2,.36-2.73-2.26-2.7-17,.21-34-.31-51,.23-48.26,1.56-96.53.53-144.79,1-4.5-3-9-6.06-9.71-12.14,2.77-2.2,6.06-1.53,9.16-1.53q91.72-.06,183.47,0c1.83,0,3.67-.09,5.5,0,4.55.25,7.89-1,8.42-6.22A6.49,6.49,0,0,1,404-18a2.09,2.09,0,0,1,.94-2l1.14,7.8A1.66,1.66,0,0,1,406-10h0C404.77-8.51,406.18-6.5,405-5Z" transform="translate(109.04 108.86)"/><path class="cls-15" d="M212.09,143V133c2.56-2.19,5.68-1.58,8.61-1.58,44.92,0,89.85.19,134.77-.15,15.28-.11,30.56-.93,45.86-.86,2.62,0,5.38-.38,7.62,1.59.45,3.26-.66,6.62.67,9.82q.12,34.22.22,68.45.06,38,0,76c0,2.63.47,5.33-.68,7.88a3.11,3.11,0,0,1-1.11-1.4c-.74-3.25-.5-6.55-.47-9.83-.09-3.88-.15-7.75,0-11.62-.05-2.08-.1-4.15,0-6.23-.08-2.66-.06-5.32,0-8,.19-2.66-.15-5.33,0-8-.11-2.1-.06-4.2,0-6.3-.14-5.77-.16-11.55,0-17.32,0-1.8-.13-3.61,0-5.41.21-2.4-.17-4.8,0-7.2.17-3.95-.24-7.89,0-11.84-.14-4.29-.1-8.57-.05-12.86.07-4-.16-7.93.06-11.89-.07-2.72-.11-5.43,0-8.15-.08-2.72-.11-5.45,0-8.17-.12-2.79-.12-5.58,0-8.37-.57-7.87-.58-8.08-8.57-7.89-59.25,1.41-118.51.9-177.76.94C218.12,144.58,214.82,145.28,212.09,143Z" transform="translate(109.04 108.86)"/><path class="cls-16" d="M263,398H-13.69c-2.47,0-5,.43-7.31-1-4.39.26-9-.94-13,2a68.7,68.7,0,0,1-20.11-10.71c-.33-3.26,1.49-5.21,4.38-5.43a186,186,0,0,1,27.63,0A3.21,3.21,0,0,1-20,384c0,9,0,9,8.93,9H263C264.51,394.67,264.25,396.33,263,398Z" transform="translate(109.04 108.86)"/><path class="cls-17" d="M377-69c-4.36,2.92-9.35,3-14.29,3q-100.47,0-200.93.09c-4.3,0-7.81-1-10.77-4.07a67.36,67.36,0,0,1,23.17-4.14c60.65.26,121.31.16,182,.07,2,0,4.87,1.55,5.87-1.93,1.49-1.32,2.92.38,4.39.06a3.53,3.53,0,0,0,1.6-1l.87-1c2.23,3.16,6.09,4.69,8.11,8.06.33.19.44.38.34.58S377.1-69,377-69Z" transform="translate(109.04 108.86)"/><path class="cls-17" d="M149-70c-1.86,2.17-4.5,3-7,4-1.93,1.7-4.31,1.57-6.63,1.58q-98.31,0-196.61,0c-3.17,0-6.3-.53-9.45-.77A6.52,6.52,0,0,1-76-68.36a1.88,1.88,0,0,1,0-1.85l3-2c.66.16.89,1.43,1.88.73-.51-.58-1.25-.91-1.72-1.54.85-2.62,3.63-3.17,5.27-4.94l.67,1a3.54,3.54,0,0,0,1.87,1.13c1.38,0,2.69-1.48,4.11-.16,2,2.41,4.75,2,7.39,2,57.27,0,114.55.16,171.82-.14A113.75,113.75,0,0,1,149-70Z" transform="translate(109.04 108.86)"/><path class="cls-18" d="M-108.17,294.17c-1-1.87-.66-3.92-.66-5.89q0-64.74,0-129.48c0-1,.15-2,.22-3,.44-1.64-.64-3.82,1.71-4.78,4.27-1.1,8.61-.58,12.93-.51a6.15,6.15,0,0,1,5.36,3c2,3.09,6.27,4,8.41,1.41,2.91-3.53,6.49-3.58,10.34-3.58H82.06a24.25,24.25,0,0,1,6.47.45,4.59,4.59,0,0,1,1.73.92,6.6,6.6,0,0,1-.09,7.49c-2.7,1.81-5.78,1.27-8.73,1.27q-73.35.06-146.7,0c-4.71,0-9.09.22-13.13,3.44-3.52,2.79-9.11,2-12.36-1.27a10.26,10.26,0,0,0-8-3.12c-6,.06-7,1-7.76,7.09.07,2.77.13,5.55,0,8.33.17,4.29.06,8.58,0,12.87.09,4,.1,7.91,0,11.86.06,2.1.09,4.21,0,6.32.15,3.6,0,7.2,0,10.79.12,2.4,0,4.79,0,7.18.13,3.58,0,7.16,0,10.74.1,2.36,0,4.71,0,7.07,0,2,.08,4.06,0,6.1.11,2.58,0,5.17,0,7.75,0,1.43,0,2.86.05,4.29s0,2.89,0,4.34c.15,2.66.07,5.33,0,8a99.62,99.62,0,0,1-.57,17.44C-107.07,292-107,293.29-108.17,294.17Z" transform="translate(109.04 108.86)"/><path class="cls-19" d="M408.83,293l.33,1.1A69.29,69.29,0,0,1,405,318.75c-.62-5.14-4.73-4.67-8.12-4.69-18.13-.12-36.26-.05-54.38-.06l-110.77-.13c0-2.55,1.78-4.15,3.12-6,2-2.67,5-2.24,7.81-2.25q26-.06,51.93,0c32.62.1,65.25-.29,97.87-.2,3.33,0,6.7.18,9.53-2,.95-.51,1.91-1,2.67.28.53-3.7,0-7.64,2.86-10.67A1.28,1.28,0,0,1,408.83,293Z" transform="translate(109.04 108.86)"/><path class="cls-20" d="M387.8,355.91c1-2.76-1.7-3.37-2.8-4.91-2.24-3.5-5.77-3.4-9.3-3.4q-52.05,0-104.1,0c-2.93,0-6,.57-8.6-1.58a15.9,15.9,0,0,0,0-2.49c-.68-4.33,1-5.63,5.44-5.61,41.7.16,83.4.21,125.1-.13,5.12,0-.21,4.31,2.75,4.36A62,62,0,0,1,387.8,355.91Z" transform="translate(109.04 108.86)"/><path class="cls-21" d="M263,398v-5c0-8,0-8,7.78-8q35.14,0,70.3,0c2.61,0,4.92-.26,4.71,3.59-.13,2.33,1.59,2.62,3.39,1.64,1-.54,1.83-1.68,2.85-.1-6.61,5.13-14.21,8.26-22,10.93.31-1.89.9-4.08-2.37-2.34l-6.37,3.44c1.78-4,2.76-6.9-3-4.36-2.37,1.05-5.58.22-8.4.22Z" transform="translate(109.04 108.86)"/><path class="cls-22" d="M-20,353a9.56,9.56,0,0,0-5.92-2.06c-17.91.11-35.82,0-53.73.09-1.66,0-3.87-.8-4.35,2-.85.5-1,1.4-1.25,2.23a2,2,0,0,1-.91.91c-2.33-.4-2.6-2.59-3.59-4.15.46-.52,1.18-.88,1.13-1.74-.25.88-.73,1.34-1.68.87a29.76,29.76,0,0,1-4.92-9.06l2.81,1.37c.27-2.57-3.09-3-3-5.43h66.46c8.94,0,8.94,0,8.94,9C-18.52,349-18.27,351-20,353Z" transform="translate(109.04 108.86)"/><path class="cls-23" d="M297-108c-1.45,1.7-3.42,1-5.16,1q-141.35,0-282.7,0c-1.75,0-3.71.67-5.17-1,2.18-1.18,4.57-.78,6.87-.78q139.64,0,279.28,0C292.44-108.8,294.82-109.18,297-108Z" transform="translate(109.04 108.86)"/><path class="cls-10" d="M-76,361h11c8.22,1.14,16.48.4,24.72.45,5.42,0,10.89.71,16.28-.45,2.77-.31,4.32.56,4,3.71-.18,2.08,0,4.19,0,6.29-1.28,1.29-2.95,1.44-4.61,1.45-13.26.06-26.52.2-39.78-.27a26.63,26.63,0,0,1-4.87-.9,40.52,40.52,0,0,1-4.8-.16L-76,369.71c-.94-.58-.59-2.39-2.2-2.31l-2.1-2.27A6.35,6.35,0,0,1-76,361Z" transform="translate(109.04 108.86)"/><path class="cls-24" d="M-70,370c16.64,1.75,33.33.7,50,1l1,1c-1.81,1.75-.68,4-1,6-3.88,1.48-7.86.11-11.79.33-4.81.27-9.64.14-14.47.05-3.16-.06-5.1,1.06-5.46,4.34-2.49,1.77-3.16-1.73-4.76-1.51-.78-.67-.74.54-.48-.07.05-.13.17,0,.45.17,1.12.73,2.64,1.71,1.73,3-1.62,2.32-3.44-.49-5.24-.29-5.13-3.38-10-7-13.74-12C-72.86,370.67-70.9,371.34-70,370Z" transform="translate(109.04 108.86)"/><path class="cls-25" d="M4.89,408.09Q45.63,408,86.36,408q102.46,0,204.93,0c1.66,0,3.33.07,5,.11-3.37,1.22-6.89.77-10.35.77q-135.35.06-270.71,0C11.78,408.86,8.25,409.37,4.89,408.09Z" transform="translate(109.04 108.86)"/><path class="cls-9" d="M-53,383c.19-6,.23-6.17,7.43-5.95,8.52.26,17.11-1.11,25.57.95v1c1,1.67,1.57,3.33,0,5-8.75,0-17.51.21-26.25-.1-3.79-.13-6.35.89-7.87,4.35L-56,387A19.86,19.86,0,0,1-53,383Z" transform="translate(109.04 108.86)"/><path class="cls-26" d="M-102.18-26.08c2,1.37.69,2.83.09,4.25-.82,2-1.74,3.91.09,5.83,1.56,1.62,1.37,3.49.75,5.4-.85,1.14-2.56,1.85-1.33,3.89a4.09,4.09,0,0,1,0,4.29,2,2,0,0,1-1.22.63c-1.55.05-1.78,1.06-1.86,2.35-.41,7-1.49,14.06-.88,21.16,0,4,.1,7.93,0,11.89.06,1.44,0,2.88,0,4.32.09,1.72,0,3.45,0,5.18.13,2.6,0,5.19,0,7.8.14,1.46,0,2.91,0,4.37q.18,7.49,0,15c-.07,2,.13,4-.67,5.94a1.33,1.33,0,0,1-1.36.8c-.15-26.54-1.27-53.1.86-79.6A76.52,76.52,0,0,1-102.18-26.08Z" transform="translate(109.04 108.86)"/><path class="cls-8" d="M-108.61,77h.52a3.35,3.35,0,0,1,1.26,2.2,25.21,25.21,0,0,1,.23,4.34c.13,4.12.12,8.25,0,12.37.11,2.1.08,4.21,0,6.31.21,4.61,0,9.21,0,13.81.08,5.27.13,10.53,0,15.8.16,3.7,0,7.4,0,11.11-.07,3.08.67,6.29-1.42,9.05-.22,1.28.29,2.68-.66,3.83Q-109.21,116.4-108.61,77Z" transform="translate(109.04 108.86)"/><path class="cls-24" d="M-76,361a10,10,0,0,1-4.3,4.13,7.8,7.8,0,0,1-3.21-4,5.48,5.48,0,0,1,2.24-2.38,2.25,2.25,0,0,1,1.28-.12c.42.18.68.61,1.14.76a3.26,3.26,0,0,0-1.5-1.46A2.86,2.86,0,0,1-82,356c.08-3.89,2.83-2,3.54-1.1C-77.15,356.58-75.32,358.39-76,361Z" transform="translate(109.04 108.86)"/><path class="cls-27" d="M-34,399c-1.15-3.72,2-1.16,2.9-1.69A9.94,9.94,0,0,1-21,397c-2.38,1.42.52,2.74.12,4.56-4.11-1.62-7.74-5.65-12.51-2.36h-.36Z" transform="translate(109.04 108.86)"/><path class="cls-16" d="M-53,383c-.08,2.05-1.42,3.14-3,4l-4-3c1.53-1.27,3,.83,4.58.07.08-2.11-1.82-1.82-3-2.4a1.5,1.5,0,0,1-.62-2.42c.76-1.25,1.56-.94,2.18.1C-55.91,381-53.64,381.12-53,383Z" transform="translate(109.04 108.86)"/><path class="cls-3" d="M327-102c-3.82,1.88-7.53,2.87-10.89-1-.75-.86-.21-1.45,0-2.17l1,.2c2.07,1.63,4.74,1.06,7,1.9C325.14-103,326.25-103,327-102Z" transform="translate(109.04 108.86)"/><path class="cls-1" d="M393-43c-3.79-.09-4.83-2.71-5.31-5.81-.09-.58.39-.88.82-.51s.34.87.49,1.32c1.36.75,2.7.27,4-.08a5.38,5.38,0,0,1,1.88,3.1A2.61,2.61,0,0,1,393-43Z" transform="translate(109.04 108.86)"/><path class="cls-1" d="M-88-49c.4-.51,1.33-1,1.27-.17C-86.95-45.94-88-43.11-92-43a2.62,2.62,0,0,1-1.91-2A5.19,5.19,0,0,1-92-48.08,4,4,0,0,0-88-49Z" transform="translate(109.04 108.86)"/><path class="cls-28" d="M393-43l1.91-2a9.94,9.94,0,0,1,2.23,4.68L396-36h0l-3-6Z" transform="translate(109.04 108.86)"/><path class="cls-29" d="M406-10l.08-2.19c3.51,5.3,2.68,11.35,3,17.21-1.89-3.57-1-7.64-2-11.39C406.71-7.58,407.25-9,406-10Z" transform="translate(109.04 108.86)"/><path class="cls-5" d="M370,372c1.62-2,3.83-2.12,6.13-2-.81,2.75-3,4.33-5.15,5.89,0-.31,0-.62,0-.94A4.82,4.82,0,0,1,370,372Z" transform="translate(109.04 108.86)"/><path class="cls-30" d="M-93.91-45-92-43v1l-2.58,5.48c-2.51-1.82.56-4-.57-5.81Z" transform="translate(109.04 108.86)"/><path class="cls-31" d="M403-26.07l-.15,1.92c-1-3.3-4.22-5.94-2.84-9.87C401.24-31.44,402.82-29,403-26.07Z" transform="translate(109.04 108.86)"/><path class="cls-32" d="M-88-49c-.08,1.35-.55,2.48-2,2.8s-1.9-.67-2-1.88c.81-1.48.91-3.49,3-4C-89-51-89.19-49.75-88-49Z" transform="translate(109.04 108.86)"/><path class="cls-33" d="M393-48.08c-1.27,3.37-2.64,2.15-4,.08,1.48-1.11.83-2.76,1.06-4.18C392.09-51.56,392.21-49.57,393-48.08Z" transform="translate(109.04 108.86)"/><path class="cls-34" d="M381,359c.79-4.78,3.47-3.43,6.2-1.9-.43.62-.85,1.25-1.27,1.87A4,4,0,0,0,381,359Z" transform="translate(109.04 108.86)"/><path class="cls-35" d="M-80,359h-1c-1.32.26-2.63.62-3.94,0a2.42,2.42,0,0,1-1.23-2.83l.25-.23A1.32,1.32,0,0,1-84,356h2l2,1A1.34,1.34,0,0,1-80,359Z" transform="translate(109.04 108.86)"/><path class="cls-36" d="M-72.92-73l4.53.66c-1.59.52-3.22,6.27-4.69.15A1.73,1.73,0,0,1-72.92-73Z" transform="translate(109.04 108.86)"/><path class="cls-37" d="M377-69c0-.3,0-.59,0-.89a9.07,9.07,0,0,1,3.28,3.77c-1.14.39-2.24,1.54-3.49.21C375.71-67,376.64-68,377-69Z" transform="translate(109.04 108.86)"/><path class="cls-38" d="M-107.83,300c2.15,3.08,1.92,6.57,1.76,10A25.6,25.6,0,0,1-107.83,300Z" transform="translate(109.04 108.86)"/><path class="cls-22" d="M-84.93,359c1.31-.53,2.63-1.76,3.94,0-.1,1.59-1.16,2.05-2.52,2.17Z" transform="translate(109.04 108.86)"/><path class="cls-39" d="M-76.08-70.21-76-69c.88,1.92,1,3.68-1,5l-2.26-2.13Z" transform="translate(109.04 108.86)"/><path class="cls-13" d="M324.05-103c-2.43-.32-5.33,1.13-7-1.9C319.47-104.67,321.92-104.42,324.05-103Z" transform="translate(109.04 108.86)"/><path class="cls-25" d="M5,407l-.09,1.14c-3.07-.07-6.18.16-9.12-1.06L0,407A4.19,4.19,0,0,1,5,407Z" transform="translate(109.04 108.86)"/><path class="cls-40" d="M-70,370c-.25,2.56-2.23,1.84-3.76,2a1.53,1.53,0,0,1-.3-.88C-73,369.54-71.42,370.13-70,370Z" transform="translate(109.04 108.86)"/><path class="cls-41" d="M-90.3,351.12c1.84-.53.37-2.37,1.63-3.22.37,1.51,1.74,3.18-1.08,4.09Z" transform="translate(109.04 108.86)"/><path class="cls-38" d="M-108.17,294.17l.27-3.13c2.49.82,1.31,2.48.91,4-.05,1.07.18,2.22-.9,3C-108,296.71-108.08,295.44-108.17,294.17Z" transform="translate(109.04 108.86)"/><path class="cls-24" d="M-78.2,367.4c1.87-.76,1.91-.71,2.2,2.31A3.61,3.61,0,0,1-78.2,367.4Z" transform="translate(109.04 108.86)"/><path class="cls-38" d="M-106.12,310.08-105,310c.28.22.38.44.29.66s-.18.33-.28.33c0,1.45-.08,2.9-.11,4.34A10,10,0,0,1-106.12,310.08Z" transform="translate(109.04 108.86)"/><path class="cls-42" d="M361.24-84.1l-3.3-.23,1-1.52Z" transform="translate(109.04 108.86)"/><path class="cls-43" d="M-102-10v-6a2.07,2.07,0,0,1,2.37-2c1.5,0,3,0,4.5,0H404c-.16.64-.29,1.29-.47,1.93C400.76-6,400.76-6,390.31-6q-94.87,0-189.76.06c-1.88,0-4.49-1.36-5.54,1.72-2.06.9-3.49-.54-5-1.42a42.68,42.68,0,0,0-22.39-5.95c-11,.12-22,.14-33,0a44.12,44.12,0,0,0-23.39,6c-1.85,1.08-3.68,2.36-6,2.12A73,73,0,0,0,91.78-4.4c-63.32.08-126.65-.09-190,.1a10.08,10.08,0,0,1-3.46-.36A3.89,3.89,0,0,1-102-10Z" transform="translate(109.04 108.86)"/><path class="cls-31" d="M396-36c2.78,2.52,2.55,3.7-1.61,7.47-.59-2.87,1.52-5,1.61-7.47Z" transform="translate(109.04 108.86)"/><path class="cls-31" d="M399-27.7c-.31.5-.47,1.1-.77,1.18-.8.2-1.11-.44-1-1.09a1.26,1.26,0,0,1,.8-.86C398.27-28.5,398.62-28,399-27.7Z" transform="translate(109.04 108.86)"/><path class="cls-20" d="M-20,353v-6H263c1.85,2,1.15,4,0,6v2c-2.73,2.25-6,1.61-9.12,1.61q-89.17.06-178.34,0-43.46,0-86.92,0c-2.94,0-6,.54-8.62-1.62Z" transform="translate(109.04 108.86)"/><path class="cls-22" d="M263,353v-7c38.87,0,77.73.05,116.6-.07,3.87,0,6.16.64,5.4,5.07q-57.28,0-114.58,0C267.71,351,265.11,351,263,353Z" transform="translate(109.04 108.86)"/><path class="cls-44" d="M367-75c-2.16,2.15-3.12-1.73-5-1-1-.67-1-1.34,0-2a1.35,1.35,0,0,1,2,0h0C365.06-77.07,366.58-76.58,367-75Z" transform="translate(109.04 108.86)"/><path class="cls-45" d="M-61-76c-1.88-.73-2.84,3.14-5,1,.42-1.59,2-2.07,3-3C-60.82-78.84-61.36-77-61-76Z" transform="translate(109.04 108.86)"/><path class="cls-46" d="M367-75a6.35,6.35,0,0,1-3-3l4,1A2,2,0,0,1,367-75Z" transform="translate(109.04 108.86)"/><path class="cls-47" d="M-63-78a6.27,6.27,0,0,1-3,3,2,2,0,0,1-1-2Z" transform="translate(109.04 108.86)"/><path class="cls-48" d="M364-78l-2,0-.6-2.15C363-80.31,363.34-79,364-78Z" transform="translate(109.04 108.86)"/><path class="cls-36" d="M-77-64c.34-1.67.69-3.33,1-5C-71.53-65.7-66.29-66-61.27-66q101.64.1,203.27,0c-.08,1.76-1.12,2.51-2.7,3.11a20.37,20.37,0,0,1-7.38.89H-76Z" transform="translate(109.04 108.86)"/><path class="cls-22" d="M-20,355H263c.58,3.85-.89,5.09-4.92,5.09q-136.57-.18-273.16,0C-19.11,360.09-20.58,358.85-20,355Z" transform="translate(109.04 108.86)"/><path class="cls-24" d="M-24,361a171.45,171.45,0,0,1-41,0Z" transform="translate(109.04 108.86)"/><path class="cls-34" d="M381,359.87c-.06.72-.05,1.49-.83,1.6-1.06.16-1.31-.76-1.41-1.52-.13-.95.71-.82,1.3-.94C380.86,358.84,381.23,359.09,381,359.87Z" transform="translate(109.04 108.86)"/><path class="cls-24" d="M-84,356l-1.91-.08c.49-1.07-1.6-3.83,1.91-2.91Z" transform="translate(109.04 108.86)"/><path class="cls-4" d="M151.45-59c-1.56-.48-3.95,1.09-5.15-1.23-.6-1.16.68-2,1.37-3,1.68-2.21,3.67-1.74,5.77-.83.76.33,1.55.58,2.29.93,1.08.5,2.18,1.13,2,2.51-.21,2-1.86,1.48-3.09,1.56C153.68-58.95,152.68-59,151.45-59Z" transform="translate(109.04 108.86)"/><path class="cls-49" d="M235,310l-3.26,3.87q-79.35,0-158.69.12a10.42,10.42,0,0,1-4.78-1.09c-3.13-1.51-4-3.76-2.32-6.9,1-5.33-1.63-11.35,3.09-16,2.22-3.08,5.58-2.58,8.66-2.6,16.8-.07,33.59,0,50.39,0,2.32,0,4.67.22,6.89-.62,1.66-1.07,1.65-2.75,1.64-4.44-.06-13.31,0-26.62,0-39.93,0-4.13-1.29-6.24-5.74-6-3.33.21-6.6-.76-9.9-1.11a118.25,118.25,0,0,1-29.86-8.85c-4.87-2.62-9.35-5.91-14.28-8.45-4.24-2.71-7.5-6.45-10.67-10.27-1.63-2.28-3.36-4.48-5.07-6.7-2.32-4.35-4.76-8.66-6.28-13.39-.6-3.63-1.21-7.24-1.9-10.85-.26-2.51-.47-5,1-7.3,6.57-8,13.6-7.88,18.85.22.73,2.23.72,4.61,1.31,6.87a24.48,24.48,0,0,0,3.71,11.64c3.17,6.14,8.14,10.56,13.75,14.37,14.78,9.59,31.21,13.13,48.55,12.92,11.81-.14,23.63.79,35.43-.8,12.24-1.66,23.69-5.37,34.11-12.05a36.94,36.94,0,0,0,13.75-14.15,29.41,29.41,0,0,0,3.93-10.06c.95-3.25-.31-6.94,2-9.91,7.27-7.22,13.85-6.32,18.6,2.54a17.93,17.93,0,0,1,.52,5.7c-.05,3.74-1.3,7.25-2.11,10.85A54.75,54.75,0,0,1,240,201.15c-1.93,2.93-4.43,5.44-6.41,8.35-3,3.4-6.61,6-10.16,8.69-4.61,3.91-10,6.46-15.34,9.25-12.08,5.62-24.94,8-38.09,8.92-4,.27-5.59,1.48-5.61,5.59,0,13.78,0,27.55,0,41.33,0,1.55.12,3,1.68,3.86,2,.76,4,.43,6,.44,18.64.07,37.29-.08,55.94.08,3.05.13,5.17,1.84,7,4.1,2.41,4.51,1.47,9.3,1.18,14C235.35,307.09,235.82,308.72,235,310Z" transform="translate(109.04 108.86)"/><path class="cls-50" d="M65.93,306a12.57,12.57,0,0,0,2.32,6.9A27.47,27.47,0,0,1,59.41,314Q-16.82,314-93,314c-1.33,0-3-.49-4,.09-5,2.94-5.86-.73-7-4.09a4,4,0,0,1,0-4h0c.55-.57.87-1.58,2-1,0,.16,0,.37.1.48a3.54,3.54,0,0,0,.63.44,9.09,9.09,0,0,0,.27-1.34c.44-6.75,1.51-7.55,8.37-6.6,1.52.21,2.61.58,2.6,2.3,0,3.63,2.44,3.55,5.11,3.76C-34.68,308.15,15.65,305,65.93,306Z" transform="translate(109.04 108.86)"/><path class="cls-51" d="M-104,306v4l-1,1c0-.33,0-.66,0-1C-104.85,308.63-105.47,307.05-104,306Z" transform="translate(109.04 108.86)"/><path class="cls-49" d="M105.94-4.21c10.56-7.4,22.35-9.52,35.05-8.85,9.14.49,18.32.24,27.49.06C178.41-13.2,187-9.67,195-4.22l9.65,10.33c5.32,8.87,6.73,18.48,6.67,28.74-.21,40.65,0,81.31,0,122a4.21,4.21,0,0,1,.8,3c-.46,3.54-1.95,6.78-3,10.15a38.1,38.1,0,0,1-4.19,7.74,88.59,88.59,0,0,1-11.59,11.73,42,42,0,0,1-23.82,7.78c-14.4.27-28.85,1.17-43.23-.74a38.86,38.86,0,0,1-17.93-6.86,50,50,0,0,1-12.19-12.06c-1.72-2.66-3-5.54-4.5-8.35-.62-3.05-3.84-5.63-1.67-9.18-.1-2.34-.21-4.67-.32-7a6.59,6.59,0,0,1-1.12-4.24c-.08-25.51,0-51-.09-76.52.34-16.22-.32-32.44.18-48.65C90.19,17.85,91.48,12,94.83,7c2-3,4.46-5.66,6.67-8.51C102.6-2.95,103.88-4.29,105.94-4.21Z" transform="translate(109.04 108.86)"/><path class="cls-52" d="M212.09,39c0-4,.07-8-.13-12-.15-3,.87-4.18,4-4.08,6,.18,12,.05,18,.05,40.44,0,80.89.23,121.33-.11,16.27-.14,32.53-1,48.81-1,4,0,5.32,1.19,5,5.11S409,35,409,39c-6.92,1.43-13.92.5-20.88.69-22.8.63-45.6,1.12-68.41,1-33.15-.2-66.3,0-99.44-.08C217.44,40.58,214.49,41.1,212.09,39Z" transform="translate(109.04 108.86)"/><path class="cls-53" d="M212.09,72V56c2.56-2.2,5.68-1.58,8.61-1.58,44.92,0,89.84.19,134.76-.15,15.28-.11,30.56-.93,45.85-.86,2.63,0,5.38-.38,7.62,1.59V71c-1.75,1.64-4,1.55-6.12,1.6-61.36,1.45-122.74,1-184.12,1C216.4,73.59,214,73.78,212.09,72Z" transform="translate(109.04 108.86)"/><path class="cls-54" d="M408.94,102v15a7,7,0,0,1-3.39.68c-62.45,1.17-124.9,1-187.35.93-2.15,0-4.37.07-6.12-1.59q0-7,0-14c2.55-2.2,5.67-1.59,8.6-1.59,44.26,0,88.51.25,132.76-.18,16-.16,31.9-1,47.87-.83C404,100.41,406.71,100,408.94,102Z" transform="translate(109.04 108.86)"/><path class="cls-55" d="M408.94,83V96c-1.9,1.76-4.3,1.56-6.61,1.61-60.87,1.41-121.75,1-182.63,1-2.62,0-5.38.4-7.61-1.6V84c2.55-2.2,5.67-1.59,8.6-1.59,44.92,0,89.85.19,134.77-.15,15.28-.11,30.56-.93,45.86-.86C404,81.42,406.71,81,408.94,83Z" transform="translate(109.04 108.86)"/><path class="cls-56" d="M212.09,117c48.59,0,97.18.32,145.75-.19,14.93-.16,29.86-.77,44.8-.81,2.15,0,4.35-.26,6.31,1v11c-2.85,1.78-6.08,1.52-9.21,1.59-60,1.45-120,1-180,1-2.62,0-5.38.4-7.61-1.6Z" transform="translate(109.04 108.86)"/><path class="cls-57" d="M212.09,39c40.12,0,80.24.11,120.35,0,23.4-.1,46.8-.63,70.2-1,2.16,0,4.35-.27,6.31,1,0,3.67,0,7.34,0,11a4.22,4.22,0,0,1-2.83.79c-15.49-.33-31,.49-46.43.66-46.32.49-92.64.19-139,.15-2.93,0-6.06.61-8.62-1.59Z" transform="translate(109.04 108.86)"/><path class="cls-58" d="M212.09,143c37.11,0,74.23-.28,111.34.09,25.27.25,50.5-1.42,75.77-1.1,10.22.13,10-1.62,9.73,10-1.75,1.64-4,1.54-6.12,1.59-61.36,1.45-122.74,1-184.11,1-2.31,0-4.71.18-6.61-1.6Z" transform="translate(109.04 108.86)"/><path class="cls-18" d="M212.09,153c65.61.06,131.23.27,196.84-1v8a4.22,4.22,0,0,1-2.83.79c-15.16-.35-30.3.51-45.43.66-47,.47-94,.19-141,.15-2.93,0-6.06.61-8.62-1.6l.27-3.18C212.39,155.7,211.8,154.26,212.09,153Z" transform="translate(109.04 108.86)"/><path class="cls-59" d="M212.09,72c65.62.05,131.24.28,196.85-1,0,2.67,0,5.33,0,8-6.64-.1-13.26-.5-19.91-.3-56.77,1.67-113.55.65-170.32.89-2.31,0-4.71.2-6.62-1.57C212.1,76,212.09,74,212.09,72Z" transform="translate(109.04 108.86)"/><path class="cls-60" d="M212.1,50c43.41,0,86.83-.14,130.25.05,19.6.09,39.15-1.79,58.75-1.1a29.05,29.05,0,0,1,7.84,1v5c-65.61,1.28-131.23,1-196.84,1Z" transform="translate(109.04 108.86)"/><path class="cls-61" d="M212.09,97c65.62-.12,131.24.41,196.86-1q0,3,0,6c-65.61,1.3-131.23,1-196.84,1C212.1,101,212.1,99,212.09,97Z" transform="translate(109.04 108.86)"/><path class="cls-62" d="M212.1,78c49.73,0,99.47.28,149.2-.19,13.73-.13,27.47-.67,41.21-.87A9.23,9.23,0,0,1,409,79c0,1.33,0,2.67,0,4-65.61,1.29-131.23,1-196.84,1Z" transform="translate(109.04 108.86)"/><path class="cls-63" d="M212.09,129c49.23,0,98.47.48,147.69-.28,15.39-.24,30.84.11,46.23-1.13a13.67,13.67,0,0,1,2.94.4v4c-65.62,1.27-131.24,1-196.86,1Z" transform="translate(109.04 108.86)"/><path class="cls-64" d="M405,7V3c.06-1.39.12-2.79.19-4.18l1.53.1C405.34,1.56,407,4.38,405,7Z" transform="translate(109.04 108.86)"/><path class="cls-65" d="M405-5c.25-1.68-.68-3.6,1-5C405.77-8.31,406.67-6.4,405-5Z" transform="translate(109.04 108.86)"/><path class="cls-24" d="M-20,384v-5c1.8,1.12,3.81,1,5.81,1H257.19c2,0,4,.11,5.81-1-.14,6.34-.75,7-6.83,7q-134.61,0-269.23.05C-15.65,386-18,385.78-20,384Z" transform="translate(109.04 108.86)"/><path class="cls-66" d="M360.17,380.63c-1.73,1.39-3.84,2.16-5.49,3.64C355.59,381.86,356.68,379.68,360.17,380.63Z" transform="translate(109.04 108.86)"/><path class="cls-67" d="M370,372c1.18.71,1,1.9,1,3a3,3,0,0,1-2-3Z" transform="translate(109.04 108.86)"/><path class="cls-68" d="M137,288.72q-30.34.13-60.68.26A20,20,0,0,0,69,290c-1-2.36-3.17-2-5.16-2H-71.56c-2.4,0-4.35.1-5.88,2.65-2.31,3.86-10.52,3.35-13-.52-1.67-2.61-9.37-4.38-12-2.81-2.42,1.47,1,4.38-2,5.92-1.34-.65.21-3.16-1.62-3.86-.6,1.9,1,4.09-.94,5.63-.15-1.36.44-2.88-.91-4q0-9,0-18c6.48-4.08,14.18-3.52,19.59,1.47,3,2.74,6.22,2.36,9.09.33,3.76-2.67,7.81-3.41,12.24-3.41q98.58,0,197.14,0c2.31,0,4.7-.24,6.75,1.22A49.3,49.3,0,0,1,137,288.72Z" transform="translate(109.04 108.86)"/><path class="cls-69" d="M-102,305l-2,1v-6.2C-103,302.36-102.51,303.68-102,305Z" transform="translate(109.04 108.86)"/><path class="cls-70" d="M5,407l-5,0c1-2.07,2.48-1.93,4.47-1.39A11.28,11.28,0,0,0,13,405c1.73-.92,3.6-.46,5.4-.46q132.09,0,264.2,0c1.8,0,3.67-.46,5.4.46,3.44,2.21,7.41.07,10.43.9C201,406.62,103,404.77,5,407Z" transform="translate(109.04 108.86)"/><path class="cls-71" d="M288,405H13c1.47-1.64,3.43-1,5.18-1q132.32,0,264.64,0C284.57,404,286.53,403.36,288,405Z" transform="translate(109.04 108.86)"/><path class="cls-72" d="M309.16,404.51c-1,.71-2.06.62-3.42,0A2.91,2.91,0,0,1,309.16,404.51Z" transform="translate(109.04 108.86)"/><path class="cls-3" d="M-23.92-101.23c2.12-.55,4.71-3.13,6.31.9C-19.95-99.61-21.67-102-23.92-101.23Z" transform="translate(109.04 108.86)"/><path class="cls-73" d="M164,288.66c-1.43-1.18-.73-2.79-.74-4.18,0-15,.07-29.9-.1-44.85,0-3.5.58-4.93,4.56-4.89,14.3.12,27.88-3.52,41.06-8.82a37.31,37.31,0,0,1,11.8-1.57c45.12,0,90.23.25,135.34-.09,15.12-.12,30.25-.92,45.39-.86,2.62,0,5.38-.39,7.61,1.6v18c-6,3.07-12.39,1.38-18.6,1.35-8.45,0-16.89-.67-25.29.87a48.77,48.77,0,0,1-9,.37q-91.12,0-182.26.06c-3.18,0-7.42-1.43-8.3,3.87-.06,2.13.08,4.27-.08,6.4.08,3.29.11,6.58,0,9.87,0,2,.1,4.11,0,6.16.07,3.44.07,6.89,0,10.33a19.25,19.25,0,0,1-.45,5A3.17,3.17,0,0,1,164,288.66Z" transform="translate(109.04 108.86)"/><path class="cls-74" d="M164.11,283V272c2.72-2.31,6-1.6,9.1-1.6,61.74,0,123.48.07,185.22-.11,14.29,0,28.57-1.36,42.89-.91,2.62.08,5.38-.37,7.61,1.62v12a4.21,4.21,0,0,1-2.83.79c-14.32-.43-28.63.61-42.93.69-63.31.35-126.63.16-189.94.12C170.14,284.59,166.84,285.31,164.11,283Z" transform="translate(109.04 108.86)"/><path class="cls-75" d="M164.11,266V256c2.71-2.32,6-1.61,9.11-1.61,61.81,0,123.63.14,185.45-.16,14.3-.07,28.61-1.1,42.93-.84,2.94.06,6.23-.34,7.34,3.58q0,4,0,8c-1.9,1.76-4.3,1.56-6.61,1.62-77,1.79-154.07.75-231.11,1C168.75,267.62,166.16,267.91,164.11,266Z" transform="translate(109.04 108.86)"/><path class="cls-76" d="M239,200.92q3.08-6.46,6.14-12.92c2.56-2.2,5.68-1.58,8.61-1.58,34.77,0,69.53.23,104.29-.15,14.45-.16,28.9-.91,43.35-.84,2.75,0,5.8-.47,7.59,2.56v13c-1.74,1.64-4,1.54-6.11,1.59-52.24,1.29-104.49,1.07-156.74.94C243.57,203.53,240.23,204.72,239,200.92Z" transform="translate(109.04 108.86)"/><path class="cls-77" d="M408.93,188c-6.34-2.13-12.86-.78-19.29-.9-9.23-.18-18.46.67-27.67.76-39,.36-77.92.15-116.88.15q1-5.5,2-11c2.56-2.18,5.68-1.58,8.61-1.59,33.77,0,67.54.22,101.3-.13,14.78-.16,29.55-.95,44.34-.87,2.62,0,5.39-.4,7.62,1.59Z" transform="translate(109.04 108.86)"/><path class="cls-78" d="M164.11,283c59.07,0,118.14-.18,177.21.09,19.94.09,39.83-1.7,59.77-1.14a27.91,27.91,0,0,1,7.84,1c0,3.33-.06,6.67-.1,10H408c-1-.71-1.86-1.86-3.36-1.62a25.86,25.86,0,0,0-3.17.13C347.63,293,293.79,292.57,240,292.62a17.55,17.55,0,0,1-5.9-.77l-5.1-3c-7.3-.82-14.63-.27-22-.34-12.66-.1-25.33,0-38-.05-1.63,0-3.34.44-4.89-.47C164.12,286.33,164.12,284.67,164.11,283Z" transform="translate(109.04 108.86)"/><path class="cls-79" d="M211.09,160c49.74,0,99.48.28,149.21-.18,13.58-.13,27.19-.75,40.79-.85a24.94,24.94,0,0,1,7.84,1v8c-2.07,1.87-4.65,1.52-7.11,1.59-48,1.31-96,1-144.06,1a65.5,65.5,0,0,0-10.93.76c-5-7.75-10-8.45-16.8-2.34-7.2,2.65-14.55,1.6-21.89,1Q209.61,165,211.09,160Z" transform="translate(109.04 108.86)"/><path class="cls-80" d="M223,217.11l9.68-8.22c2.91-1.6,6.09-1.48,9.26-1.48,38,0,76,.25,114-.12,14.3-.14,28.62-.78,42.94-.95,5.13-.06,8.83,1.19,10,6.64q0,3.5,0,7c-59.36-.8-118.72-.1-178.08-.42C228.15,219.54,224.72,220.83,223,217.11Z" transform="translate(109.04 108.86)"/><path class="cls-81" d="M223,217.11c1.72,1.57,3.82.86,5.74.86q86.7.06,173.39,0c2.44,0,5.08-.61,6.78,2,0,1.68,0,3.35,0,5-12.13,0-24.27-.42-36.38.07-52.42,2.12-104.85.3-157.26.92-2.17,0-4.33,0-6.5-.07Z" transform="translate(109.04 108.86)"/><path class="cls-82" d="M164.11,250c-1.07-4.91,1-6.11,5.82-6.1q93.12.22,186.24,0c9.14,0,18.31-1.93,27.42-1.62,8.44.28,16.89.67,25.34.71q0,3,0,6c-1.9,1.77-4.3,1.56-6.61,1.62-77,1.76-154.06.77-231.1,1C168.75,251.62,166.16,251.91,164.11,250Z" transform="translate(109.04 108.86)"/><path class="cls-83" d="M164.11,250c81.6-.16,163.21.59,244.81-1q0,4,0,8c-1.7-2.58-4.34-2-6.77-2-79.35,1.75-158.71.71-238.07,1Q164.12,253,164.11,250Z" transform="translate(109.04 108.86)"/><path class="cls-84" d="M164.11,266c81.61-.18,163.22.63,244.82-1v6c-81.6,1.62-163.21.82-244.82,1Z" transform="translate(109.04 108.86)"/><path class="cls-85" d="M246.83,171.35c.75-3.55,3.62-2.3,5.67-2.3,35.92-.07,71.85.4,107.75-.25,16.22-.3,32.45-.63,48.68-.8v8c-53.95,1.33-107.91.94-161.87,1C247,175.12,246.91,173.23,246.83,171.35Z" transform="translate(109.04 108.86)"/><path class="cls-86" d="M408.93,213c-2.8-6.53-8.6-5.08-13.7-4.94-51.84,1.43-103.69.87-155.53,1-2.33,0-4.66-.06-7-.1l6.24-8c1.43,1.72,3.4,1.05,5.14,1.05,39.56,0,79.13.53,118.67-.22,15.38-.3,30.78-.33,46.17-.75Z" transform="translate(109.04 108.86)"/><path class="cls-87" d="M137,288.72,136.94,273c-1.65-2-1.37-4.45-1.35-6.81s-.08-4.65,0-7c0-1.17,0-2.34,0-3.51-.17-2.1,0-4.2-.1-6.29-.32-2.6-1.87-3.72-4.41-3.77-1.66,0-3.33-.07-5-.07H-66.37c-4.27,0-8.4-.4-11.83,3.6C-80.57,252-87.75,251-90,248.06s-5-3.45-8.28-3.51-6.73.81-9.63-1.55v-7c4-4.47,13.6-5.27,18.59-1,3.77,3.21,6.91,4.17,10.85.45,2.63-2.48,6.24-2,9.55-2q44.75,0,89.5,0c26.16,0,52.33.08,78.49-.06,7,0,14,.72,21,.66,5,.27,9.95.64,14.93.79,2.06.06,3,.65,3,2.86-.07,16.65,0,33.3-.1,50C137.79,288,137.27,288.35,137,288.72Z" transform="translate(109.04 108.86)"/><path class="cls-76" d="M56,188q3.11,6.36,6.2,12.73c0,2.41-1.91,2.38-3.46,2.65a38.87,38.87,0,0,1-6.48.21H-66.63c-4.31,0-8.41-.18-12,3.46-2.67,2.72-8.45,2.06-10.91-.94-2.59-3.16-5.67-3.57-9.28-3.57-3.1,0-6.39.73-9.12-1.54V189c4.3-3.79,15.08-3.63,18.71.27,3.19,3.43,5.74,4.14,9.44,1.44,4-2.89,8.16-3.29,12.73-3.29,37.25,0,74.5,0,111.75.1C48.43,187.51,52.29,186,56,188Z" transform="translate(109.04 108.86)"/><path class="cls-88" d="M66.75,207c3.34,3.42,6.41,7.1,10.26,10-.26,2.31-2.17,2.21-3.73,2.44a45.28,45.28,0,0,1-6.49.17H-67.15c-4,0-7.73-.16-10.89,3.46-2.38,2.72-10,2.22-11.94-.69-2.52-3.71-5.82-3.8-9.56-3.81-2.79,0-5.67.64-8.39-.57V207c6-4.15,14.5-3.58,19.49,1.37,2.91,2.89,6.16,2.55,9,.41,3.57-2.68,7.44-3.38,11.71-3.38q63.41,0,126.81,0C61.74,205.43,64.45,205.27,66.75,207Z" transform="translate(109.04 108.86)"/><path class="cls-58" d="M-107.95,152v-9c4.25-3.73,14.91-3.67,18.83.11,4.28,4.11,6.08,4.36,10.57.78,3.17-2.54,6.78-2.46,10.43-2.46q56.4,0,112.82,0c12.31,0,24.63,0,36.94,0,2.46,0,5-.34,7.25,1.2A21,21,0,0,1,89,153q-80.61,0-161.23,0c-2.67,0-5-.63-6.3,3.52-1,3.17-5.59,1-8.55,1.43-2.14.29-3-.94-2.92-3,.14-2.53-1.33-3-3.47-3C-98.3,152.05-103.12,152-107.95,152Z" transform="translate(109.04 108.86)"/><path class="cls-89" d="M56,188c-4.71,1.29-9.54,1-14.34,1q-56.19,0-112.37,0c-2.92,0-5.39.17-7.42,2.92-1.66,2.25-4.68,2-7.36,2.16-3.27.21-4.4-1.46-4.81-4.34a2.14,2.14,0,0,0-2.29-1.61c-5.1.22-10.29-1.06-15.29.88V176c5.2-2.84,10.68-1.51,16.09-1.06,1.39.11,2.18,1.32,3,2.43,2.61,3.53,6.57,4.22,9.69,1.2,2.69-2.6,5.68-3.16,9.1-3.16q58.76,0,117.5,0c2.33,0,4.7-.07,6.65,1.58Z" transform="translate(109.04 108.86)"/><path class="cls-90" d="M120,234c-1.84,1.77-4.13.94-6.2.94q-92.22.07-184.43,0c-3.56,0-6.52.05-9.06,3.62-2,2.73-5.7,2.15-8.4-.23-5.85-5.16-12.5-6-19.84-2.38V225c5.38-2.82,11-1.62,16.54-.89,1.4.19,2,1.6,2.79,2.68,2.3,3.14,6.15,3.65,8.84.73,2.31-2.52,5-3.09,8-3.09q77.88-.06,155.76,0c2.36,0,4.58.9,6.93.76A142.82,142.82,0,0,0,120,234Z" transform="translate(109.04 108.86)"/><path class="cls-91" d="M90.06,160c-.08,3.3,2.46,5.81,2.72,9-2.53,2.24-5.64,1.47-8.52,1.47-4.1,0-8.24.53-12.32-.36-5.9-6.9-10.51-7-17-.36a33.25,33.25,0,0,1-9.38.83H-67.7c-3.86,0-7.37.18-10.52,3.23-3,2.87-8.71,2.43-11.31-.74s-5.68-3.53-9.28-3.53c-3.09,0-6.38.73-9.12-1.53.16-3.29-1.39-7.21,3.47-8.7,5.25-1.61,12.1-.06,14.59,3.46,1.85,2.6,9.37,3.62,11.17,1,2.54-3.69,5.87-3.77,9.6-3.77Q10.49,160,90.06,160Z" transform="translate(109.04 108.86)"/><path class="cls-92" d="M136.94,259v7c-2.73,2.27-6,1.58-9.12,1.58q-95.86.06-191.75,0c-5.09,0-10-.4-14.44,3.66-3.43,3.14-10.33,1.48-13.22-2.38-1.72-2.3-4-2.08-6.22-2.28-3.41-.31-7,.83-10.12-1.63v-4c.42-4.12,2.85-5.49,6.79-5.41,5,.09,9.94-.51,13,5.13,1.46,2.73,7.31,2.79,9.76.29,2.86-2.91,6.19-3.5,10-3.49q99.38,0,198.76,0C132.62,257.52,135,257.22,136.94,259Z" transform="translate(109.04 108.86)"/><path class="cls-93" d="M-107.93,265c3.84,0,7.67,0,11.5,0,3.19,0,6.4-.57,6.68,4.38.12,2.16,10.44,2.69,11.44.36,1.65-3.86,4.55-3.75,7.79-3.75q103.74,0,207.46,0v7q-102.37,0-204.75,0c-4,0-7.65.19-10.73,3.75-2.68,3.12-9.59,1.53-11.52-2.12-1.22-2.32-3.44-2.3-5.52-2.58-4.17-.56-8.23.63-12.34,1C-107.92,270.33-107.93,267.66-107.93,265Z" transform="translate(109.04 108.86)"/><path class="cls-81" d="M91,225.14c-1.74,1.52-3.83.83-5.76.83Q6.52,226-72.17,226c-2.63,0-5.06-.77-6.33,3.46-1,3.26-5.58,1.05-8.54,1.48-2.11.3-3.07-.87-3-2.94.18-3-1.77-3.06-3.94-3-4.66,0-9.32,0-14,0v-7c5.17-2,10.54-.59,15.81-.92a1.74,1.74,0,0,1,2,1.76c0,2.84,1.26,4.7,4.22,4.1,2.8-.57,6.86,2.46,8.18-2.92.69-2.83,3.52-2,5.57-2q41-.06,82,0,31,0,62,0c1.75,0,3.71.67,5.18-1Z" transform="translate(109.04 108.86)"/><path class="cls-83" d="M136.94,250v6c-2.41,2.12-5.37,1.45-8.13,1.46q-98.7,0-197.39,0c-3.6,0-6.9-.32-9.76,3.28-2.69,3.38-9.08,2.06-11.55-1.82-1.31-2.07-2.79-3.09-5.24-3-4.28.21-8.63-.52-12.81,1l0-8a18.8,18.8,0,0,1,20.46,2.76c2.32,2.08,5.3,2.31,7.21.33,3.62-3.74,7.92-3.71,12.44-3.71H88.4c13.64,0,27.29,0,40.93,0C132,248.42,134.71,248,136.94,250Z" transform="translate(109.04 108.86)"/><path class="cls-82" d="M136.94,250Q33.13,250-70.7,250c-3.13,0-6.62-1.1-7.8,3.87-.57,2.39-9.86,1.43-10.58-1.16-1-3.6-3.31-3.9-6.36-3.77-4.16.17-8.32,0-12.48,0v-6c3.49,0,7,.08,10.49,0,3.77-.12,7.12-.29,8.67,4.53.92,2.86,9.55,2.08,10.71-.9.86-2.19,2.24-2.66,4.22-2.61.83,0,1.66,0,2.5,0q101.19,0,202.39-.1C135.85,243.89,137.94,245.11,136.94,250Z" transform="translate(109.04 108.86)"/><path class="cls-85" d="M-107.93,168c3.66,0,7.32.06,11,0,3.47-.06,6.62-.44,8.24,4.11,1.11,3.15,9.08,2.87,10.48-.3,1.16-2.62,2.88-2.8,5.13-2.8H51.62c1.16,0,2.35-.16,3.3.75-1.76,2.24-.24,4.87-.82,7.25H-71.16c-2.8,0-5.06-.22-6.8,3.26-1.87,3.73-6.32,1.25-9.61,1.66-2.42.3-2.42-1.72-2.45-3.42,0-2.39-1.65-2.5-3.44-2.49-4.82,0-9.64,0-14.47,0Z" transform="translate(109.04 108.86)"/><path class="cls-94" d="M89,153c0-3.33,0-6.65,0-10-2.3-3.09-1.31-6.65-1.44-10.05-.14-5.59-.16-11.19,0-16.78-.1-4.3-.14-8.61,0-12.91-.09-2.15-.1-4.29,0-6.44-.17-4.3-.11-8.61,0-12.92-.12-3.15-1.91-4.35-4.88-4.3-1.49,0-3,0-4.49,0H-66c-4.31,0-8.43-.22-11.93,3.52-2.39,2.56-9.62,2.24-11.56-.44-3.38-4.67-7.87-4.16-12.52-4-2,.07-3.89,1-5.91.33,0-.66-.09-1.33-.14-2l.15-6c7.35-1.82,14.71-4.34,20.88,3a4.38,4.38,0,0,0,6.71.11c3.15-3.9,7.18-3.65,11.32-3.65q62.9,0,125.78,0c10.46,0,21-.63,31.4.46A3.94,3.94,0,0,1,89.73,72q0,40.5,0,81H89Z" transform="translate(109.04 108.86)"/><path class="cls-86" d="M66.75,207q-67.92,0-135.84,0c-3.74,0-7,.16-9.62,3.76-2.27,3.09-9.58,1.39-11.38-2.26-1-2-2.62-2.41-4.49-2.45-4.48-.1-9-.24-13.35,1q0-3,0-6c3.66,0,7.31.06,11,0,3.48-.07,6.69-.46,8.23,4.12,1,2.87,9.29,3,10.29.15C-77,201.37-74.32,202-71.6,202q63.85,0,127.71,0c2,0,4.38.9,6-1.23Z" transform="translate(109.04 108.86)"/><path class="cls-75" d="M-107.94,257c2.88-3.52,6.82-1.56,10.28-1.92,3.67-.37,7.1-.44,9,4.15,1.19,2.91,9.25,2.81,10.31-.07,1.32-3.59,3.81-3.12,6.42-3.12H136.94v3Q33.86,259-69.21,259c-3.75,0-6.66.55-8.91,4-1.83,2.83-9.81,1.24-11.91-2.07-3.62-5.7-14.68-5.66-17.91.07Z" transform="translate(109.04 108.86)"/><path class="cls-95" d="M403,290h3c2.31,3.65-.91,7-.55,10.55A3.68,3.68,0,0,1,404,303c-1.47,3.85-4.6,4.05-8.13,4q-77.21-.09-154.4-.07c-2.71,0-5.35-.21-6.48,3,.08-1.34.17-2.67.25-4,2.38-2.17,5.34-1.56,8.1-1.56q46.25-.07,92.47,0c3.95,0,8.06.7,9.69-4.69.69-2.31,3.55-2.26,5.69-2.22,13.67.27,27.28-1.87,40.94-1C397.51,296.83,401.6,295.93,403,290Z" transform="translate(109.04 108.86)"/><path class="cls-96" d="M405,301q.5-5.5,1-11c2,.09,2,1.55,2,3-1.91,4.11-2,8.52-2.19,12.92,0,.09-.22.23-.35.23A1.38,1.38,0,0,1,405,306,5.81,5.81,0,0,1,405,301Z" transform="translate(109.04 108.86)"/><path class="cls-97" d="M405,301v5c-1.18-.72-1-1.9-1-3A2.06,2.06,0,0,1,405,301Z" transform="translate(109.04 108.86)"/><path class="cls-8" d="M96,7a85.91,85.91,0,0,0-5.85,15.05C87.72,24,84.81,23.56,82,23.56q-73.88,0-147.76,0c-4.81,0-9.46-.28-13.58,3.45a6.43,6.43,0,0,1-9.13-.6c-3.22-3.51-7-4-11.27-3.89-2.82.07-5.68,0-8.22-1.56-.78-7.4,1-14.7,1-22.08,0-.86-.49-2,1.07-2.28,1.15-.17,2,0,1.91,1.38,0,.22-.08.44-.11.66-.11,2.23-.38,4.5,1,6.41.2-.71.41-1.52,1-1.75,3.86-1.57,11.82,1,14.44,4.6,2.14,2.95,5.69,3.41,7.87.45,2.43-3.28,5.5-3.91,9.14-3.91q79.82,0,159.63,0C91.55,4.51,94.46,4,96,7Z" transform="translate(109.04 108.86)"/><path class="cls-53" d="M89,72Q8.8,72-71.41,72c-2.84,0-6-1.28-7.17,3.71-.65,2.77-5,.78-7.7,1.23a2.37,2.37,0,0,1-3-2.55c0-3.46-2.19-3.49-4.72-3.44-4.66.08-9.33,0-14,0V55c5.37-2.83,11-1.61,16.54-.91,1.21.16,1.83,1.3,2.54,2.25,2.73,3.63,6.2,4.16,9.58,1a11.23,11.23,0,0,1,8.19-2.93q77.15-.08,154.3,0c2,0,4-.06,5.74,1.27A53.92,53.92,0,0,1,89,72Z" transform="translate(109.04 108.86)"/><path class="cls-98" d="M89,72l0-16a7,7,0,0,1-1.38-5c-.1-2.34-.07-4.67,0-7-.14-2,0-4.11-.18-6.16-1.18-3-3.89-2.13-6-2.17-9-.17-18-.07-27-.07H-66.94c-4.28,0-8.37-.23-11.92,3.4-2.58,2.63-8.1,2.11-10.47-.88-2.74-3.45-6.12-3.38-9.79-3.56-2.94-.14-6,1.08-8.82-.53q0-6.51,0-13c5.11,0,10.23.08,15.33,0,2.13,0,2.69,1.49,3.6,2.88,2.78,4.23,7.68,4.64,10.62.6,1.53-2.12,3.21-2.49,5.47-2.49q81.56.07,163.12.09Q90,47,89.73,72Z" transform="translate(109.04 108.86)"/><path class="cls-57" d="M89,44v7c-2.42,2-5.35,1.55-8.14,1.55q-73.15,0-146.32,0c-4.84,0-9.43,0-13.53,3.64a6.89,6.89,0,0,1-9.27-.38c-4-4-8.68-4.43-13.78-4.26-2,.07-4,.4-5.89-.58V43c6.51-3.13,15.26-2.09,20.16,2.35,2.62,2.36,5.59,2.51,8.12.24,3-2.68,6.41-3.2,10.17-3.2q75.66,0,151.34,0C84.32,42.43,86.89,42.16,89,44Z" transform="translate(109.04 108.86)"/><path class="cls-99" d="M89,44H-71.15c-2.83,0-5.16-.06-7.16,3-2.54,3.86-9.81,2.73-11.52-1.6-.82-2.06-1.86-2.4-3.65-2.39-4.82,0-9.64,0-14.46,0V38c5.22-4,14.11-3.62,18.67.81C-86,42-82.18,42.32-78.7,39.4a12.75,12.75,0,0,1,8.72-3q76.41,0,152.83,0c2.16,0,4.36,0,6.13,1.56Z" transform="translate(109.04 108.86)"/><path class="cls-100" d="M-107.95,51c6.83-.74,14-3.92,19.52,3.44,2,2.63,7.76,2.34,9.77-.21S-74,50.94-70.83,51Q9.08,51.06,89,51v5H-71.84c-2.79,0-5-.21-6.62,3.49-1.46,3.37-6,1-9.1,1.43-2,.27-2.5-1.26-2.43-2.93.14-3-1.82-3-4-3-4.66,0-9.32,0-14,0C-107.94,53.66-107.94,52.32-107.95,51Z" transform="translate(109.04 108.86)"/><path class="cls-101" d="M89,38Q9.06,38-70.87,38c-3.11,0-5.75,0-7.36,3.62-1.14,2.52-10.53,2.12-11.42-.47-1.36-4-4.08-4.28-7.45-4.15-3.64.13-7.32-.32-10.84,1V34c4.69-1.66,9.56-.78,14.35-1,1.94-.08,2.9,1,3.9,2.53,3.26,4.9,8.3,5,11.9.14C-76.56,34-75.07,34-73.4,34Q5.84,34,85.07,34C88.17,33.94,89.4,35,89,38Z" transform="translate(109.04 108.86)"/><path class="cls-8" d="M-102-10v5c1,1.13,1,2.17-.27,3.11L-103-2a11.49,11.49,0,0,0-1-5.61C-104.83-9.75-103.78-10.15-102-10Z" transform="translate(109.04 108.86)"/><path class="cls-8" d="M-104-2h1c1.82,3,1.56,5.71-1,8.14-.46-2.72-1.27-5.43,0-8.14Z" transform="translate(109.04 108.86)"/><path class="cls-56" d="M89,116v17c-2.57,2.15-5.69,1.58-8.63,1.58q-73.42.06-146.85,0c-4.26,0-8.35-.39-11.8,3.57-2.5,2.87-10,1.82-12.22-1.37-2-2.8-4.39-3.11-7.3-3.24-3.42-.15-7.05.86-10.12-1.58V116c4.37-3.83,15-3.65,19.3.31,4.14,3.83,5.58,4,10.13.31,2.74-2.19,5.85-2.17,9-2.17q36-.06,71.94,0,39.21,0,78.43,0C83.63,114.44,86.57,114,89,116Z" transform="translate(109.04 108.86)"/><path class="cls-54" d="M89,116H-71c-3.07,0-6.08-.65-7.67,3.59-1,2.76-9,2-10.17-1-1.27-3.08-3.36-3.9-6.28-3.63-4.27.38-8.67-1-12.82,1q0-7,0-14a19.05,19.05,0,0,1,20.47,2.76,5.48,5.48,0,0,0,7.73,0c3.13-2.82,6.72-3.36,10.64-3.36q75.46,0,150.94,0c2.47,0,5-.26,7.14,1.58Z" transform="translate(109.04 108.86)"/><path class="cls-55" d="M89,84V97c-2.58,2.15-5.7,1.57-8.64,1.57q-73.47.06-146.94,0c-4.31,0-8.42-.21-12,3.44-2.66,2.72-8.41,2.06-10.9-.94s-5.69-3.56-9.31-3.55c-3.1,0-6.39.71-9.13-1.55V83a18.11,18.11,0,0,1,20,2.82,6.28,6.28,0,0,0,8.67-.1c3.17-2.77,6.72-3.33,10.66-3.33q75.23,0,150.46,0C84.31,82.42,86.89,82.16,89,84Z" transform="translate(109.04 108.86)"/><path class="cls-102" d="M-107.94,132c4.16,0,8.32,0,12.48,0,2.87,0,5.57-.46,5.8,4,.13,2.58,3,2.22,4.93,2,2.24-.29,5.88,1.6,6.44-1.67.75-4.36,3.55-3.22,5.93-3.22Q8.31,133,89,133v10H-70.82c-3.09,0-6.19-.51-7.61,3.77-.83,2.5-9.62,1.69-10.63-.95-1.26-3.26-3.41-4.19-6.6-3.84-4.09.44-8.32-.92-12.3,1C-107.95,139.32-107.95,135.66-107.94,132Z" transform="translate(109.04 108.86)"/><path class="cls-61" d="M-107.94,96c3.82,0,7.65.11,11.47,0,3.43-.13,6.27-.13,7.74,4.11,1,2.86,9.29,3,10.29.19,1.37-3.85,4.07-3.26,6.81-3.26H89v6H-70.42c-3.31,0-6.33-.27-8.34,3.71-1.53,3-10,1.63-10.93-1.8-.82-3-2.55-2.93-4.76-2.92-4.5,0-9,0-13.49,0Z" transform="translate(109.04 108.86)"/><path class="cls-62" d="M89,84H-69.74c-3.48,0-6.7-.4-8.72,3.89-1.39,3-10.49,1.22-11.48-2.07-.77-2.59-2.41-2.82-4.53-2.81-4.49,0-9,0-13.47,0,0-1.34,0-2.67,0-4,5-3.66,10.57-1.55,15.9-1.74.58,0,1.36.89,1.78,1.54,3.68,5.64,8.63,6,13.2.84,1.71-1.95,3.86-1.62,6-1.62H38.67c14.8,0,29.61.19,44.4-.11C87.91,77.79,89.86,79.2,89,84Z" transform="translate(109.04 108.86)"/><path class="cls-22" d="M-80,359v-2c1.93,1,2.48,2.49,1.44,4.67C-79.9,361.16-79.3,359.7-80,359Z" transform="translate(109.04 108.86)"/><path class="cls-103" d="M-104,6c2-2.46.56-5.35,1-8,1.18-.72,1-1.9,1-3,1.8-1.12,3.8-1,5.8-1Q1.07-6,98.35-6a13.47,13.47,0,0,1,7.59,1.81L96,7c-1.8-1.11-3.8-1-5.8-1H-72c-2.85,0-5.58-.4-6.25,3.79C-78.78,13-81.94,11.84-84.1,12c-2,.11-4.57.37-4.75-2.34-.31-4.79-3.27-4.87-6.82-4.67-1.94.12-4,.49-5.69-1.06-1.74,1.58.8,4.67-1.83,5.58-1.16.41-1.71-1.24-1.81-2.48C-104.62,6.71-104.61,6.06-104,6Z" transform="translate(109.04 108.86)"/><path class="cls-11" d="M403,290a15.9,15.9,0,0,0,0,2.49c.68,4.34-.95,5.86-5.45,5.59-15.93-.95-31.81,1.28-47.74.93-1.87-.05-4.08-.13-3.76,2.6.56,4.78-2.48,4.42-5.62,4.41q-41.64-.06-83.28,0H235.23c-.78-4.69.76-9.56-1.17-14.15,1.57-1.45,3.5-.82,5.26-.82,25.14,0,50.28-.31,75.41,0C344.17,291.48,373.57,289.89,403,290Z" transform="translate(109.04 108.86)"/><path class="cls-88" d="M211,203c-10.83,8.16-23.28,12.16-36.57,13.06-18.59,1.25-37.26,2.08-55.75-1.12-10.39-1.8-20.22-5.39-28.64-12.09,1-3.11,3.72-2.37,5.84-2.42,7.82-.21,15.65-.09,23.48-.09,28,0,56-.05,83.93.08C206,200.46,209.5,199.1,211,203Z" transform="translate(109.04 108.86)"/><path class="cls-104" d="M211,203c-1.29-1.55-3.07-1-4.66-1q-55.79,0-111.58,0c-1.59,0-3.35-.55-4.72.86A34,34,0,0,1,77,189c-.09-1.58,1.13-2.13,2.23-2.16,9.58-.23,19.24-1.9,28.68,1.18,9.27,6,19.48,8,30.42,7.64,9-.32,18-.3,27,0a48.54,48.54,0,0,0,28.37-7.78c9.24-2.83,18.66-1.33,28-1.08,1.21,0,2.7.57,2.46,2.44A33.56,33.56,0,0,1,211,203Z" transform="translate(109.04 108.86)"/><path class="cls-77" d="M107.9,188c-8.76,0-17.51,0-26.27,0-1.58,0-3.35-.54-4.64,1a19.65,19.65,0,0,1-4-12c1.38-1.5,3.26-1.64,5-1.52,6.34.41,12.88-1.5,19,1.51A85.25,85.25,0,0,0,107.9,188Z" transform="translate(109.04 108.86)"/><path class="cls-77" d="M224.13,189.24c-1.33-1.86-3.31-1.19-5-1.21-8.48-.1-17-.11-25.43-.15A93.48,93.48,0,0,0,204.2,177c7.18-3,14.6-1.49,21.93-1,1.49.09,2.88,1.09,1.9,3.11A17.5,17.5,0,0,1,224.13,189.24Z" transform="translate(109.04 108.86)"/><path class="cls-105" d="M228,179.07c-.45-2.77-2.64-2-4.33-2-6.5-.07-13,0-19.5,0q2-3.51,3.94-7c7.22-2.07,14.6-.48,21.89-1C227.94,172.08,229.81,175.94,228,179.07Z" transform="translate(109.04 108.86)"/><path class="cls-105" d="M97,177H73c-1.09-2.19-.56-4.61-1-6.89,4-2.39,8.31-.66,12.46-1.06,2.77-.26,5.59-.05,8.38-.05Z" transform="translate(109.04 108.86)"/><path class="cls-84" d="M164.13,288q29.79,0,59.6,0c1.76,0,3.67-.62,5.23.82-21.66.13-43.31.52-65-.19A3.05,3.05,0,0,1,164.13,288Z" transform="translate(109.04 108.86)"/><path class="cls-106" d="M193.06,117q0,8,0,16c-1.92,1.68-4.29,1.61-6.6,1.61q-35.56,0-71.12,0c-2.14,0-4.35.13-6.22-1.26a53.73,53.73,0,0,1-.13-16.6c2-1.59,4.39-1.36,6.69-1.36q35.13-.06,70.27,0C188.42,115.39,191,115.2,193.06,117Z" transform="translate(109.04 108.86)"/><path class="cls-107" d="M108.26,56c.1-10.67-1.21-21.38.77-32,4.68-2.18,9.24-2.69,13.48,1a4.75,4.75,0,0,1,.69,2.35c-.14,4.24,1.91,6.43,6.12,6.69,18.55.78,37.1.12,55.64.36,2.77,0,5.68-.42,8.09,1.58V48c-2.27,1.91-5,1.54-7.65,1.55-16.16,0-32.32.1-48.48,0-4.29,0-6.69,1.31-6.61,5.85a3.51,3.51,0,0,1-1.72,2.82c-2.08-.72-1.72-2.6-1.87-4.16a44.11,44.11,0,0,1,.12-6c.09-2.24,0-4.77-2.89-4.86s-3.13,2.41-3.54,4.61c-.63,3.46,1.3,7.36-1.78,10.39-2.56-2.71-5.48-3.85-9.06-2A1.55,1.55,0,0,1,108.26,56Z" transform="translate(109.04 108.86)"/><path class="cls-54" d="M193.06,117H109a40.18,40.18,0,0,1,.07-14.34c2-1.5,4.42-1.27,6.71-1.27q35.08,0,70.15,0c2.47,0,5-.18,7.1,1.61Z" transform="translate(109.04 108.86)"/><path class="cls-91" d="M191.06,162.09c-3.35,9-10.13,14.12-19.33,14.95a243,243,0,0,1-41.79.05c-9.86-.82-16.85-6.38-20.1-16.05,1.84-1.88,4.25-1.64,6.54-1.64,22.7-.05,45.4-.08,68.1,0C186.87,159.45,189.94,158.58,191.06,162.09Z" transform="translate(109.04 108.86)"/><path class="cls-8" d="M122.15,26.32c-1.41-3.27-4.34-2.16-6.79-2.3-2.11-.11-4.22,0-6.33,0A23.94,23.94,0,0,1,131.77,5.12q19-.25,38,0a23.6,23.6,0,0,1,21.55,15.79c-1.2,1.42-2.88,1.59-4.53,1.59-15.54,0-31.09.42-46.61-.19-1.94-.27-3.18-1.52-4.29-3-2.07-2.81-4.13-2.36-6.68-.34C126.47,21.1,125.47,24.81,122.15,26.32Z" transform="translate(109.04 108.86)"/><path class="cls-108" d="M128.2,58l.81-2c1.92-1.72,4.3-1.6,6.61-1.61q25.41-.06,50.82,0c2.32,0,4.69-.07,6.62,1.61q0,8,0,16c-1.92,1.68-4.29,1.6-6.6,1.61q-26.13,0-52.25,0c-2.14,0-4.33.08-6.24-1.22C125.78,67.55,125.37,62.75,128.2,58Z" transform="translate(109.04 108.86)"/><path class="cls-109" d="M193.05,84V96c-1.93,1.68-4.3,1.61-6.62,1.61q-35.64,0-71.28,0c-2,0-4,0-5.8-1-1.78-4.75-.65-9.67-.7-14.5,0-2,2.13-2.24,3.76-2.39A8.27,8.27,0,0,1,118.51,81c2.79,4.72,6.5,4.1,10.51,1.77a17.16,17.16,0,0,1,1.73-.25c18.74-.25,37.47-.08,56.19-.1C189.1,82.42,191.28,82.45,193.05,84Z" transform="translate(109.04 108.86)"/><path class="cls-110" d="M137.57,20.87l53.72.05c2.54,4.8,2.06,10,1.76,15.08H134.21c-2.16,0-4.34.18-6.29-1C129.77,29.33,132.13,24.05,137.57,20.87Z" transform="translate(109.04 108.86)"/><path class="cls-111" d="M193.05,143v10c-1.93,1.68-4.31,1.61-6.64,1.61q-35.49,0-71,0c-2.15,0-4.36.13-6.26-1.22-1.14-3.55-.83-7.11-.13-10.67,2-1.56,4.4-1.33,6.7-1.33q35.1-.06,70.21,0C188.42,141.39,191,141.21,193.05,143Z" transform="translate(109.04 108.86)"/><path class="cls-102" d="M193.05,143H109a20.51,20.51,0,0,1,0-10h84Z" transform="translate(109.04 108.86)"/><path class="cls-18" d="M109,153h84c.13,3.21-.13,6.33-2,9.09-1.25-1.6-3-1.07-4.62-1.07q-38.31,0-76.6,0a3.08,3.08,0,0,1-.9-3A6.27,6.27,0,0,1,109,153Z" transform="translate(109.04 108.86)"/><path class="cls-61" d="M109,96h84c0,2.33,0,4.67,0,7H109A10.57,10.57,0,0,1,109,96Z" transform="translate(109.04 108.86)"/><path class="cls-112" d="M193.06,56H129a13.21,13.21,0,0,0,0-2c-.77-4.71,1-6.19,5.9-6.12,19.38.27,38.77.11,58.16.11C193.05,50.67,193.05,53.33,193.06,56Z" transform="translate(109.04 108.86)"/><path class="cls-94" d="M129,84l-.92,0c-2.37-4-2.47-8,0-12h64.94v6c-2.26,1.9-5,1.56-7.63,1.56-15.95,0-31.91.1-47.86,0C133.69,79.48,130.73,80.36,129,84Z" transform="translate(109.04 108.86)"/><path class="cls-113" d="M129,84c-.8-4.71,1-6.18,5.89-6.11,19.38.27,38.77.11,58.16.11v6Z" transform="translate(109.04 108.86)"/><path class="cls-114" d="M109,96v47q0,5,0,10c0,1.7,0,3.4-.07,5.09a4.8,4.8,0,0,1-.85-3.3q.07-49.4.17-98.78H109c2.13,2.34,1.55,5.27,1.4,7.94-.24,4.27.78,7.06,5.72,6.87a4.16,4.16,0,0,1,2.28.83c2.84,3.68,2.94,7.47.48,11.36-2.33-3.15-5.75-2.43-8.53-1.59-2.51.76-1.17,3.73-1.29,5.71C108.87,90.07,109,93,109,96Z" transform="translate(109.04 108.86)"/><path class="cls-26" d="M-104,6l-1,1c-.12-2.1.29-4.22-.6-6.27-.66-1.51-.16-2.54,1.6-2.73Z" transform="translate(109.04 108.86)"/><path class="cls-115" d="M118.87,83c-.08-3.68.37-7.4-.85-11-2.23-4.61-2.54-9.21.07-13.79,1.18-3.7.66-7.55.92-11.33.25-3.45,1.72-6.06,5.45-5.63,3.38.39,4.31,3,4,6.3s-.19,7-.26,10.45a73.57,73.57,0,0,0-.09,14l0,12C124.61,87.32,121.49,87.48,118.87,83Z" transform="translate(109.04 108.86)"/><path class="cls-116" d="M137.57,20.87,127.92,35c-5.89-.46-6.61-1.54-5.77-8.65,1.76-2.93,3.37-5.95,6-8.29C132.66,14,135.86,14.9,137.57,20.87Z" transform="translate(109.04 108.86)"/><path class="cls-53" d="M118.09,58.21q0,6.9-.07,13.79c-9,0-9,0-9-9.13,0-2.29,0-4.58,0-6.87,1.66-3.64,4.84-1.85,7.32-1.78S117.74,56.74,118.09,58.21Z" transform="translate(109.04 108.86)"/></svg>