<svg id="图层_1" data-name="图层 1" xmlns="http://www.w3.org/2000/svg" viewBox="0 0 659 659.54"><defs><style>.cls-1{fill:#24d896;}.cls-2{fill:#21c883;}.cls-3{fill:#23d390;}.cls-4{fill:#23d594;}.cls-5{fill:#22cf8a;}.cls-6{fill:#23d694;}.cls-7{fill:#21cf8a;}.cls-8{fill:#22d18e;}.cls-9{fill:#22cc87;}.cls-10{fill:#22ca85;}.cls-11{fill:#23cd89;}.cls-12{fill:#23d592;}.cls-13{fill:#22d592;}.cls-14{fill:#37d197;}.cls-15{fill:#31d296;}.cls-16{fill:#2bc483;}.cls-17{fill:#2eb87f;}.cls-18{fill:#30bb83;}.cls-19{fill:#38d099;}.cls-20{fill:#3ad596;}.cls-21{fill:#3fde9c;}.cls-22{fill:#56eeb5;}.cls-23{fill:#56f0b6;}.cls-24{fill:#53e1a6;}.cls-25{fill:#3dd395;}.cls-26{fill:#80fed3;}.cls-27{fill:#24d692;}.cls-28{fill:#fe0000;}.cls-29{fill:#fe0095;}.cls-30{fill:#1fdc96;}.cls-31{fill:#29d697;}.cls-32{fill:#1ddb95;}.cls-33{fill:#fe005e;}.cls-34{fill:#20da96;}.cls-35{fill:#1ed993;}.cls-36{fill:#1eda96;}.cls-37{fill:#20da95;}.cls-38{fill:#29d493;}.cls-39{fill:#fe000f;}.cls-40{fill:#2ad696;}.cls-41{fill:#2ad695;}.cls-42{fill:#fe004f;}.cls-43{fill:#2ad595;}.cls-44{fill:#fe001a;}.cls-45{fill:#fe0036;}.cls-46{fill:#fe002c;}.cls-47{fill:#fe0042;}.cls-48{fill:#fe0023;}.cls-49{fill:#2bd697;}.cls-50{fill:#20d898;}.cls-51{fill:#18df96;}.cls-52{fill:#1cdb96;}.cls-53{fill:#1fd992;}.cls-54{fill:#1ddd96;}.cls-55{fill:#1ddc97;}.cls-56{fill:#2ad394;}.cls-57{fill:#2cd395;}.cls-58{fill:#1cdc97;}.cls-59{fill:#1adf94;}.cls-60{fill:#1ddc95;}.cls-61{fill:#1bda95;}.cls-62{fill:#30d398;}.cls-63{fill:#19dc96;}.cls-64{fill:#1ddd97;}.cls-65{fill:#1cdb98;}.cls-66{fill:#21da96;}.cls-67{fill:#32d095;}.cls-68{fill:#2cd494;}.cls-69{fill:#2fd496;}.cls-70{fill:#2dd395;}.cls-71{fill:#18de95;}.cls-72{fill:#16e194;}.cls-73{fill:#16e096;}.cls-74{fill:#36ce96;}.cls-75{fill:#24d693;}.cls-76{fill:#1cde97;}.cls-77{fill:#2fd294;}.cls-78{fill:#30d195;}.cls-79{fill:#14de96;}.cls-80{fill:#13de97;}.cls-81{fill:#31d193;}.cls-82{fill:#21c984;}.cls-83{fill:#1fca81;}.cls-84{fill:#1dca83;}.cls-85{fill:#1dca82;}.cls-86{fill:#25c784;}.cls-87{fill:#25c684;}.cls-88{fill:#1dcb82;}.cls-89{fill:#1acd83;}.cls-90{fill:#1ec983;}.cls-91{fill:#1fca85;}.cls-92{fill:#1acc83;}.cls-93{fill:#26c683;}.cls-94{fill:#1fc886;}.cls-95{fill:#29c480;}.cls-96{fill:#1cca82;}.cls-97{fill:#28c485;}.cls-98{fill:#28c581;}.cls-99{fill:#31c082;}.cls-100{fill:#3cbf89;}.cls-101{fill:#2cc585;}.cls-102{fill:#2dc382;}.cls-103{fill:#2dc283;}.cls-104{fill:#15ce84;}.cls-105{fill:#12d188;}.cls-106{fill:#2cc384;}.cls-107{fill:#0ecf82;}.cls-108{fill:#30c086;}.cls-109{fill:#11d085;}.cls-110{fill:#2ec283;}.cls-111{fill:#30c283;}.cls-112{fill:#2fc287;}.cls-113{fill:#34bf88;}.cls-114{fill:#2ec183;}.cls-115{fill:#fefefe;}.cls-116{fill:#fe00ce;}.cls-117{fill:#1b00fe;}.cls-118{fill:#3500fe;}.cls-119{fill:#0900fe;}.cls-120{fill:#0101fe;}.cls-121{fill:#fc00fd;}.cls-122{fill:#6600fe;}.cls-123{fill:#ea00fe;}.cls-124{fill:#5300fe;}.cls-125{fill:#7800fe;}.cls-126{fill:#000afe;}.cls-127{fill:#4400fe;}.cls-128{fill:#f500fe;}.cls-129{fill:#0028fe;}.cls-130{fill:#0037fe;}.cls-131{fill:#8700fe;}.cls-132{fill:#df00fe;}.cls-133{fill:#fe00e4;}.cls-134{fill:#9e00fe;}.cls-135{fill:#fe00ee;}.cls-136{fill:#fe00da;}.cls-137{fill:#0014fe;}.cls-138{fill:#0043fe;}.cls-139{fill:#001dfe;}.cls-140{fill:#c500fe;}.cls-141{fill:#fe00f6;}.cls-142{fill:#ce00fe;}.cls-143{fill:#bb00fe;}.cls-144{fill:#9300fe;}.cls-145{fill:#aa00fe;}.cls-146{fill:#d600fe;}.cls-147{fill:#004efe;}.cls-148{fill:#b200fe;}.cls-149{fill:#29d497;}.cls-150{fill:#1dda95;}.cls-151{fill:#37cc94;}.cls-152{fill:#20d893;}.cls-153{fill:#14d891;}.cls-154{fill:#23d28f;}.cls-155{fill:#00fe9b;}.cls-156{fill:#00fe4c;}.cls-157{fill:#00fe22;}.cls-158{fill:#00fed2;}.cls-159{fill:#01fe02;}.cls-160{fill:#00fe0d;}.cls-161{fill:#00fdfd;}.cls-162{fill:#00fef5;}.cls-163{fill:#00fee9;}.cls-164{fill:#08fe00;}.cls-165{fill:#50fe00;}.cls-166{fill:#12fe00;}.cls-167{fill:#61fe00;}.cls-168{fill:#00fedd;}.cls-169{fill:#70fe00;}.cls-170{fill:#00e5fe;}.cls-171{fill:#00f5fe;}.cls-172{fill:#30fe00;}.cls-173{fill:#1cfe00;}.cls-174{fill:#25fe00;}.cls-175{fill:#43fe00;}.cls-176{fill:#00eefe;}.cls-177{fill:#3afe00;}.cls-178{fill:#2dd496;}.cls-179{fill:#21db98;}.cls-180{fill:#32d297;}.cls-181{fill:#34d49b;}.cls-182{fill:#3acd99;}.cls-183{fill:#23db98;}.cls-184{fill:#1ce79e;}.cls-185{fill:#1cca84;}.cls-186{fill:#2cc484;}.cls-187{fill:#29c685;}.cls-188{fill:#21c986;}.cls-189{fill:#1fc884;}.cls-190{fill:#14cc82;}.cls-191{fill:#1bcb83;}.cls-192{fill:#15cc83;}.cls-193{fill:#10cf86;}.cls-194{fill:#1acd84;}.cls-195{fill:#1dcd86;}.cls-196{fill:#17cf85;}.cls-197{fill:#13d183;}.cls-198{fill:#00d1fe;}.cls-199{fill:#00b0fe;}.cls-200{fill:#0065fe;}.cls-201{fill:#00a2fe;}.cls-202{fill:#007dfe;}.cls-203{fill:#0089fe;}.cls-204{fill:#0097fe;}.cls-205{fill:#00bdfe;}.cls-206{fill:#005afe;}.cls-207{fill:#00dcfe;}.cls-208{fill:#0071fe;}.cls-209{fill:#00c6fe;}.cls-210{fill:#23d593;}.cls-211{fill:#34d196;}.cls-212{fill:#34cf95;}.cls-213{fill:#37ce95;}.cls-214{fill:#14df95;}.cls-215{fill:#3bce95;}.cls-216{fill:#28c684;}.cls-217{fill:#18cf83;}.cls-218{fill:#14cf85;}.cls-219{fill:#2dc486;}.cls-220{fill:#10d287;}.cls-221{fill:#2dc386;}.cls-222{fill:#2fc585;}.cls-223{fill:#11cb81;}.cls-224{fill:#13ce84;}.cls-225{fill:#22d08d;}.cls-226{fill:#21ce89;}.cls-227{fill:#23d18e;}.cls-228{fill:#23d490;}.cls-229{fill:#24d28f;}.cls-230{fill:#23d491;}.cls-231{fill:#a8fe00;}.cls-232{fill:#95fe00;}.cls-233{fill:#b7fe00;}.cls-234{fill:#87fe00;}.cls-235{fill:#c3fe00;}.cls-236{fill:#7dfe00;}.cls-237{fill:#15cd85;}.cls-238{fill:#1fc883;}.cls-239{fill:#fdfa00;}.cls-240{fill:#fee200;}.cls-241{fill:#f3fe00;}.cls-242{fill:#ebfe00;}.cls-243{fill:#d8fe00;}.cls-244{fill:#fed600;}.cls-245{fill:#feca00;}.cls-246{fill:#cdfe00;}.cls-247{fill:#e1fe00;}.cls-248{fill:#febd00;}.cls-249{fill:#fea600;}.cls-250{fill:#fe9900;}.cls-251{fill:#feb100;}.cls-252{fill:#fe8900;}.cls-253{fill:#fe7100;}.cls-254{fill:#fe7f00;}.cls-255{fill:#fe6400;}</style></defs><title>数据修改</title><path class="cls-1" d="M-54.47-174h377c1.53,1.24,3.51,1.92,4.59,3.72.65,2.75,3.51,2.16,5.17,3.38a3,3,0,0,1,.86,1.13,2.53,2.53,0,0,1-.27,2c-.3,1.12-2.95.81-1.71,2.86,3.4,2.38,6.7,1.73,10-.19,1.84-1.33,4.63,1.08,6.12-1.6a3.09,3.09,0,0,1,1.21-1.65c2.75.3,5.49.62,7.56,2.76,2.08,3.14,5.28,1.78,8.08,2,1.1-.23,2.2-.47,3.31-.62,2.49.8,3.95-.79,5.43-2.35,7.56,1.4,14.76,3.45,18.81,10.9a5,5,0,0,1-.17,1.33A6.65,6.65,0,0,0,391-148c.08.74.45,1.41.55,2.12.81,1.18.66-.26.73-.37.35-.55,0,.24.25-.38a3.06,3.06,0,0,1,1.11-.85c2.64-.47,4,1.3,5.34,3.06,1.7,3.21,3.26-.57,4.91-.12,5.26,1.9,10.05,4.28,10.91,10.68-3,2.5-5.16-.55-8-.85,8.07,1.66,12.65,6.8,14.69,14.48.06-1.5-1-2.42-1.26-3.71-.25-1.5-.6-3,1.4-3.67,6,1.33,8.47,5.89,10.21,11.12-2.09,5.61,3.43,4.8,5.7,6.72a37.2,37.2,0,0,1,9.1,15,6.73,6.73,0,0,1-.14,2.79c-.31,1.43.68.63,1.14.76,3,1.42,3.69,4,3.64,7a64.43,64.43,0,0,0-3,6.6c-.28,1.09-.19,2.21-.41,3.3a4.42,4.42,0,0,1-.5,1.23c-1.8,2.29-1.66,4.31.84,6a3.21,3.21,0,0,1,.79,3.65c-.86,1.23-1.72,2.46-3.27,2.92a9.79,9.79,0,0,1-4.4.71q-29.19.13-58.37,0a10.87,10.87,0,0,1-3.93-.49c-2.78-1.31-2.22-3.62-1.89-6,.53-3.8.87-7.61-.87-11.27-4.81-10.1-16.81-12.43-25.56-4.92-2.91,2.49-5.26,5.57-8.39,7.81-.74.79-1.58,1.47-2.36,2.22-.39.43-.83.83-1.25,1.23s-.79.77-1.2,1.15-.77.74-1.15,1.13-.75.79-1.14,1.18-.8.85-1.24,1.24a16.12,16.12,0,0,0-1.71,1.89,18.63,18.63,0,0,1-3.84,3.47,6.19,6.19,0,0,1-3.39.75,60.44,60.44,0,0,1-10,.7H-169.42c-2,0-4,0-6-.1a24.09,24.09,0,0,0-3.58-.5c-1.36,0-2.74.26-4-.53-1.65-1.17-1.62-2.85-1-4.45a3.91,3.91,0,0,0-.52-3.73,3.22,3.22,0,0,0-2.16-1.84,3.12,3.12,0,0,1-1.44-1.27c.38-3.79.4-7.72,4.08-10.16,3.08-1.29,2-3.67,1.53-5.9.87-6.07,3.43-11.12,8.81-14.44a3.14,3.14,0,0,1,2.9,1.61c.14-.12-.09.72.31,0,1-2.54,3.93-4,3.8-7.14.78-2.68,3.72-4.76,2.17-8.06.05-3.06,1.11-5.38,4.43-6,2,.72,2.07,2.88,3.16,4.28,1.28,2-2.2,3-.94,5,1.11.89,2.37,0,3.53.27,4.43-.2,5.25-1.49,3.86-6.06.6-6.13,4-9.5,10.07-10.23,3.24,1.25,5.83,1.34,5.71-3.28.1-1.85,1.66-3.67.07-5.55a6.64,6.64,0,0,1-.31-2,8.93,8.93,0,0,0-1.05-4.47c.59-4.05,3.63-5,7-5.56,3.38-.18,3.25,5,6.88,4.48a5,5,0,0,1,1.26.42c1.79,1.23,3,.79,3.62-1.29a6.91,6.91,0,0,0,0-1.87c-.26-1.63-1.54-1.7-2.79-1.8a4.42,4.42,0,0,1-3-1.93,3,3,0,0,1-.23-1.51c3-5.1,7.84-6.85,13.32-7.52,3.15,2.14,4.86.5,6.1-2.36,1.9-2.16,4-2.28,6.36-.73,7.11,6.67,15.22,4.68,23.3,2.63,4.28-1.08,8.55-.79,12.84-.31,2.39.74,4.59,4,7.31.56a6.86,6.86,0,0,0,.82-2.94c0-1.27-.52-2.46-.65-3.71.22-1.65-1-2.58-1.87-3.68a2.27,2.27,0,0,1-.25-1.28C-55.69-173.41-55-173.57-54.47-174Z" transform="translate(196 174.25)"/><path class="cls-2" d="M319.53,484h-374a4.12,4.12,0,0,0-1.32-.82c-4-.38-7.9-.09-11.84-.18-3.38-.16-6.92.6-9.88-1.8-.71-1.82.8-2.17,1.87-2.87,1.7-1.12.87-1.76-.5-2.24a2.22,2.22,0,0,1-1.7-1.8c.28-2.13,2.93-2.87,3-5.14a3.16,3.16,0,0,1,1-1.66c.62.13-.28-.19.39-.25.33,0,.19-.25-.31-.1-3.65,1.05-7.72-.72-11.16,1.66a4.71,4.71,0,0,1-1.37.32,4.54,4.54,0,0,1-1.37-.19c-1.93-1.1-3.86-2.11-5.47.5a3.2,3.2,0,0,1-3,1.21,4.12,4.12,0,0,1-1.64-.93,2.64,2.64,0,0,0-1.65-.44,6.09,6.09,0,0,1-1.28,0c-3.52-1.59-6.62-.15-9.71,1.35a3.79,3.79,0,0,1-3.51-1.9c-1.24-2.22-4.18-3.42-3.92-6.53,1.22-1.37.58-3.1.86-4.66a14.85,14.85,0,0,0-.2-3.26c-.31-3.17-2.7-2.7-4.81-2.74h-4.81c-2.69.68-5.19-1.8-7.93-.49a3.68,3.68,0,0,1-2.76-.32c-2.22-4.15-4-8.71-9.43-9.75-.78-4.17-2.82-7-7.41-7.56-.69-.08-1-1.64-1.2-2.61-.89-3.64-2.87-4.06-5.71-1.91a3.72,3.72,0,0,1-1.52.13,4.4,4.4,0,0,1-3.66-4.48c2.32-3.51-2.46-5.34-2-8.41a5.08,5.08,0,0,1,1.22-2.68c2-.92,2.24-3.41,4.09-4.46a5.85,5.85,0,0,1,1.75-.39c10-.15,20-.06,30-.06q217.65,0,435.31,0a72.54,72.54,0,0,0,14.42-1c10.31.6,20.64.22,31,.25,23.48.07,47,0,70.44,0a42.37,42.37,0,0,1,8,.4,25,25,0,0,0,2.87.2c3.64-.28,7.21-.45,7.39,4.69a6.53,6.53,0,0,1-.35,2.52c-.86,1.85-3,1.83-4.36,2.88-1.68.53-3.54,0-5.17.86-2.08.25-4.17.11-6.26.19-1.91.07-3,.83-2.89,2.92a4.24,4.24,0,0,1-2.67,3.91c-2-.17-1.28.89-.82,1.86a3.68,3.68,0,0,1-.13,2.13,10.16,10.16,0,0,1-6.51,6.53,2.92,2.92,0,0,1-2.66-.36c-.47-.44.14.17-.34-.29,0,.24.2.4.27.65-2.5,3.92-5,7.79-5.17,12.66a2.09,2.09,0,0,1-2.1,1.73c-2.44-1.69-.65-4.23-1.28-6-.17,1.47.42,3.33-.53,5a3.72,3.72,0,0,1-2.52,1.24,7.43,7.43,0,0,0-4.62,1.07,4,4,0,0,1-1.33.07c-1.19-.3-2.2-1.23-3.54-1a3.3,3.3,0,0,0-2,1,2.28,2.28,0,0,0,.18,2.6,4.57,4.57,0,0,1,.3,1.21,15,15,0,0,1-.38,2.93c.18.83.85,1.08,1.53,1.34a4.26,4.26,0,0,1,1.07.69c2,2,1.43,3.67-.71,5.1a5.49,5.49,0,0,1-1.25.39c-1.51-.05-2,1.21-2.76,2.16a6.92,6.92,0,0,1-5.35,2.33,3.64,3.64,0,0,1-2-.85c-1-4.13-3.48-2.66-5.86-1.6a2.72,2.72,0,0,0-1.23,2c-.13,1.32.13,2.68-.43,3.95a4.59,4.59,0,0,1-4.91,2.34c-1.79-.34-2.08-2-2.83-3.25-1.2-1.81-.53-3.59,0-5.33-1.41-.33-.93,1-1.37,1.5-1.2,4.13-4.71,3.27-7.67,3.58-2.11-.56-3.95.28-5.8,1.11a4.09,4.09,0,0,1-3.89-1.72c-.75-1.8-1.73-3.36-3.95-3.45a4.42,4.42,0,0,0-1,.43,3.34,3.34,0,0,0-.55,2.35,10.84,10.84,0,0,1,.13,3.36c0,2.37,2.09,2.07,3.41,2.73,2.32,1.16,2.86,2.51.55,4.25a19,19,0,0,1-3.84.21c-4.53.1-9.06-.2-13.58.17A4.47,4.47,0,0,0,319.53,484Z" transform="translate(196 174.25)"/><path class="cls-3" d="M-195,122.52v-89c1.51-1.89,3.63-2.13,5.84-2.14,12.3-.07,24.59-.11,36.88,0,1.83,0,3.86-.12,5.27,1.12,3.48,3.06,7.61,2.82,11.76,2.82,13,0,25.92,0,38.88,0,4.87,0,8.45,1.38,9.6,6.62.57,2.56,2.58,3.22,4.91,3.36s4.69.11,6.54,1.89c1.6,1.78,1.46,4,1.47,6.14q.15,38.78,0,77.57c0,2,.09,4-1.27,5.7-7,4.27-13.62,2.65-16.87-4.5-1.43-3.16-3.8-3.35-6.51-3.36-12.66-.06-25.32,0-38,0-4.69,0-9.3,0-13.36-3-1.79-1.34-4.17-1-6.32-1-10.66-.06-21.32,0-32,0C-190.63,124.66-193.2,124.79-195,122.52Z" transform="translate(196 174.25)"/><path class="cls-4" d="M378.17-62H447c2.71,1.19.29,4.56,2.54,5.9,2.16-1.52-.28-5,2.72-6.15a1.72,1.72,0,0,1,1.31.35c1.57,1.72.36,4.48,2.28,6,2.1-1.88-1.46-4.88,1.35-6.55a2.47,2.47,0,0,1,1.52,0c3.89,3.54,2.28,8.5,3.22,12.8.41,1.86-.25,3.93,1.06,5.65V18c-1.51,1.91-3.64,2.13-5.85,2.14q-25.74.12-51.46,0c-3.42,0-6.45-.55-6.62-4.73.93,6.86-.16,8.63-6.4,8.68-31,.2-61.94.15-92.91,0a8.42,8.42,0,0,1-3.44-.5,4.1,4.1,0,0,1-1.38-1,2.6,2.6,0,0,1-.34-2.34c.42-1.2,1.49-1.91,2.19-2.91a12.33,12.33,0,0,1,1.38-1.42A14.09,14.09,0,0,0,300,14.15c.42-.45.85-.9,1.31-1.32A13.94,13.94,0,0,0,303,11.06a29.2,29.2,0,0,0,2.2-2.25c.75-1.06,1.89-1.72,2.71-2.71a24.9,24.9,0,0,1,3.17-3.16c.91-.87,1.8-1.77,2.72-2.63A12,12,0,0,0,316-1.87a13.19,13.19,0,0,1,1.29-1.3c.63-.51,1.12-1.17,1.71-1.71.75-.66,1.39-1.42,2.11-2.11a12.56,12.56,0,0,0,1.67-1.59c.37-.42.78-.81,1.18-1.2s.77-.77,1.16-1.15.76-.75,1.14-1.13.74-.77,1.14-1.12a12,12,0,0,0,1.51-1.51c.35-.4.74-.76,1.12-1.14s.77-.74,1.14-1.13.74-.78,1.13-1.15.77-.81,1.18-1.18c.57-.5,1-1.13,1.58-1.63.74-.63,1.35-1.39,2.05-2.06s1.36-1.42,2.08-2.08a12.54,12.54,0,0,0,1.69-1.65c.39-.46.82-.87,1.23-1.31s.85-.86,1.32-1.26A15,15,0,0,0,345.11-31a24.51,24.51,0,0,1,3.12-3.16,46.26,46.26,0,0,1,4.57-4.61c1.15-.92,2-2.18,3.16-3.08a16.87,16.87,0,0,0,1.74-1.64,12.7,12.7,0,0,1,1.19-1.24c.4-.4.82-.76,1.21-1.16s.78-.8,1.18-1.19.79-.83,1.23-1.21a15.81,15.81,0,0,0,1.64-1.73,23.71,23.71,0,0,0,2.18-2.3C370.2-55.67,372.51-60.89,378.17-62Z" transform="translate(196 174.25)"/><path class="cls-5" d="M-195,249.52v-70c1.52-1.89,3.63-2.12,5.85-2.13,12-.06,23.93-.12,35.89,0,1.66,0,3.52-.11,4.82.94,4.15,3.31,9,3,13.79,3,12.46,0,24.93,0,37.39,0,4.62,0,8.12,1.29,9.79,6,.94,2.64,3,3.86,5.73,4,2.31.12,4.69.16,6.5,2,1.65,2,1.39,4.37,1.4,6.65q.14,28.56,0,57.11c0,2.28.25,4.68-1.36,6.66-3.66,3-7.86,2.08-11.91,1.44a4.65,4.65,0,0,1-3.77-4.22c-.49-4.35-3.2-5.24-7-5.23q-19.69.08-39.38,0c-4.47,0-8.93.33-12.72-3-1.65-1.46-4.15-.93-6.29-.94-10.64-.06-21.27,0-31.91-.06C-190.65,251.67-193.21,251.79-195,249.52Z" transform="translate(196 174.25)"/><path class="cls-6" d="M-195.56-40.66l.6-4.85c.69-.7,1.25-1.58,2.35-1.74a2.79,2.79,0,0,1,2.07.66c1.92,3.76,1.24,7.68.42,11.51-.36,1.67-.35,2.55,1.49,2.74a15.4,15.4,0,0,1,3.46.12A4.19,4.19,0,0,0-182-33.55c2.51-2.26,1.19-5.24,1.5-7.9.26-2.2-.54-4.72,2.09-6.11A17.86,17.86,0,0,1-173-48q56.31,0,112.63,0a15.25,15.25,0,0,1,5.42.46c2.86,2.81.18,4.44-1.48,6A58.16,58.16,0,0,0-70.23-22.16,41.35,41.35,0,0,0-73.86-5.74c0,10.32,0,20.64,0,31,0,2.64.21,5.41-2.28,7.31-3.13,1.72-6.49,1.17-9.78.92a4.91,4.91,0,0,1-4.85-4.31c-.54-4.67-3.38-5.46-7.33-5.44-13.33.06-26.65,0-40,0-4.16,0-8.27.12-11.77-3-1.66-1.47-4.14-1-6.29-1-10.66-.06-21.32,0-32-.06-2.5,0-5.06.12-6.86-2.16v-51A8.06,8.06,0,0,0-195.56-40.66Z" transform="translate(196 174.25)"/><path class="cls-7" d="M463,181.52v68c-1.95,2.44-4.72,2.16-7.36,2.17-15.66.08-31.31,0-47,0-3.68,0-7.28-.07-10.34,2.64-1.7,1.5-4.08,1.29-6.24,1.31-14,.11-28,.08-42,0-2.35,0-4.69-.08-6.64-1.69-1.58-1.57-1.6-3.61-1.61-5.6q-.19-29,0-58c0-1.83.07-3.69,1.39-5.19,2.12-2.08,4.86-1.88,7.49-1.9,12.46-.09,24.91,0,37.36,0,3.38,0,6.61-.38,9.58-2.15a14.52,14.52,0,0,1,7.65-1.81q25.65-.12,51.31,0C459,179.38,461.35,179.44,463,181.52Z" transform="translate(196 174.25)"/><path class="cls-3" d="M463,59.52v63c-1.95,2.43-4.72,2.16-7.36,2.17-15.65.08-31.29,0-46.94,0-3.7,0-7.28.13-10.46,2.48-1.79,1.33-4,1.43-6.22,1.45-14.15.15-28.3.1-42.45,0-2.19,0-4.33-.2-6.12-1.7-1.57-1.58-1.56-3.62-1.58-5.61q-.21-26.22,0-52.44c0-2,0-4,1.42-5.68,2.13-2.1,4.88-1.86,7.51-1.88,12.8-.09,25.59,0,38.39,0,3.37,0,6.61-.2,9.41-2.49,1.61-1.32,3.7-1.39,5.71-1.41,17.62-.18,35.23-.12,52.85,0C459.36,57.39,461.48,57.63,463,59.52Z" transform="translate(196 174.25)"/><path class="cls-8" d="M344.17,126.52q23.25,0,46.5,0c3.06,0,6-.08,8.22-2.68,1.53-1.8,3.66-1.32,5.61-1.32q29.25,0,58.5,0v59H406.63c-2.15,0-4.51-.43-6.31.92-4.65,3.49-9.94,3.11-15.25,3.09-13.63,0-27.27,0-40.9,0-2.31-1.25-2.27-3.51-2.29-5.64q-.22-23.87,0-47.71C341.9,130,341.86,127.78,344.17,126.52Z" transform="translate(196 174.25)"/><path class="cls-8" d="M-76.17,193.52c-2.21,0-4.43-.14-6.63,0a6.14,6.14,0,0,1-6.64-4.87c-.75-4.08-3-5.31-7.08-5.25-14.61.22-29.23.06-43.85.11-2.89,0-5.6-.06-7.71-2.51-1.6-1.86-3.92-1.51-6.06-1.51H-195v-57c13.66,0,27.32,0,41,0,2.69,0,5.16,0,7.25,2.32,1.79,2,4.56,1.7,7.07,1.7,14.83,0,29.65,0,44.48,0,3.29,0,5.45.44,5.33,4.51-.11,3.62,2.17,5.41,5.73,5.5,2.66.06,5.33,0,8,0,2.31,1.26,2.27,3.51,2.29,5.65q.22,22.86,0,45.71C-73.9,190-73.86,192.27-76.17,193.52Z" transform="translate(196 174.25)"/><path class="cls-3" d="M463,60q-28.89,0-57.78,0c-2.53,0-4.87,0-6.72,2.31-1.63,2-4.19,1.7-6.51,1.7H344.17c-2.27-.4-3.09-2.31-4.18-4-4.48-6.83-10.71-9.52-17.83-7.73-6.64,1.67-11.68,8.29-12,16.06-.24,6.15,0,12.31-.11,18.46-.05,2.54-.2,5.05-2.83,6.49-2.18,1.11-4.54.86-6.83.86q-33.3.08-66.59,0c-2.45,0-5,.37-7.24-1.11a3.78,3.78,0,0,1-1.11-1.37,3.65,3.65,0,0,1,.91-3.75,12.74,12.74,0,0,1,1.36-1.58c.43-.44.9-.85,1.33-1.3s.83-.83,1.27-1.22a11,11,0,0,0,1.49-1.49A14.93,14.93,0,0,1,233,81.11c.49-.45.94-.93,1.44-1.36A16.07,16.07,0,0,0,236.07,78a23.74,23.74,0,0,0,2.15-2.22c.73-1.08,1.91-1.7,2.71-2.71a18.16,18.16,0,0,1,2.32-2.32A60.32,60.32,0,0,1,248,66c2.18-2.56,4.68-4.78,7.09-7.11a72.83,72.83,0,0,1,6.68-6.7c1.49-1.19,2.57-2.82,4.08-4A15.8,15.8,0,0,0,268,46.15a15.42,15.42,0,0,0,2.05-2.07A25.15,25.15,0,0,1,272.11,42c.78-.66,1.4-1.49,2.17-2.17.93-.71,1.61-1.68,2.57-2.38a4.2,4.2,0,0,1,2.25-.87c.61-.06,1.2-.1,1.8-.14a50.69,50.69,0,0,1,9.45-.66q48.16,0,96.32,0c4,0,7.94.07,11.3-2.8,1.57-1.34,3.78-1.13,5.77-1.15,17.64-.12,35.27-.08,52.91,0,2.35,0,4.7.07,6.35,2.16Z" transform="translate(196 174.25)"/><path class="cls-9" d="M463,275.52v40c-1.95,2.43-4.72,2.15-7.36,2.17-15.47.07-30.95,0-46.43,0-4.35,0-8.63,0-12.41,2.74-1.82,1.33-4.12,1.18-6.28,1.2-13.48.13-27,.09-40.44,0-2.34,0-4.69-.07-6.62-1.71-1.43-1.42-1.54-3.26-1.57-5.11-.17-10.15-.15-20.3,0-30.46,0-1.83.09-3.68,1.42-5.18,2.14-2.05,4.88-1.84,7.52-1.86,12.79-.09,25.59,0,38.38,0,3.53,0,6.93-.21,9.87-2.63,1.75-1.43,4.08-1.29,6.24-1.3,17.11-.12,34.23-.09,51.34,0C459,273.37,461.35,273.44,463,275.52Z" transform="translate(196 174.25)"/><path class="cls-9" d="M-195,315.52v-40c1.52-1.9,3.64-2.12,5.86-2.13,11.78-.06,23.55-.12,35.33,0a13.27,13.27,0,0,1,6,1.73c5.29,3.46,11.6,1.54,17.44,2.5a78.68,78.68,0,0,0,25.89.33c7.81-1.33,13.59-1.11,16.48,5a7.25,7.25,0,0,0,7.18,4.4,7.33,7.33,0,0,1,5.53,1.87A6.73,6.73,0,0,1-73.9,294q.25,15.49,0,31c0,1.67-.12,3.34-1.27,4.72-6.85,4.06-12.91,2.49-15.88-4.48-1.36-3.21-3.73-3.42-6.45-3.43-12.83-.06-25.65,0-38.48,0-4.52,0-8.94-.05-12.88-2.92-2-1.42-4.49-1.05-6.81-1.07-10.83-.06-21.65,0-32.48-.05C-190.63,317.66-193.2,317.79-195,315.52Z" transform="translate(196 174.25)"/><path class="cls-10" d="M461.09,352.85a.55.55,0,0,1-.13.69,6.54,6.54,0,0,1-1.56,1.26c-1.56.24-2.86,1.34-4.49,1.35a8.33,8.33,0,0,1-4.39-1.6c-.86-.85-.85-2-1.17-3.18-1,1.59-1.25,3.82-3.81,3.6-.33-.12-.8-.22-.87-.47-1.89-6.76-7.31-5.83-12.41-5.82-9.63,0-19.26.18-28.89-.11-3-.09-6.19-.48-5.48-4.93,1.64-2.08,3.93-2.14,6.33-2.13,13.42,0,26.84,0,40.26,0-13.49,0-27,.05-40.45,0-2.65,0-4.95.35-6.63,2.6-1.68,1.82-3.93,1.58-6,1.59q-20.6.15-41.19,0c-2.33,0-4.65-.08-6.61-1.64-2.3-2.52-1.67-5.63-1.71-8.57-.05-3.54-.11-7.08,0-10.61.08-2.11.17-4.22,2.28-5.35,15.15,0,30.3,0,45.45,0,3.08,0,6-.19,8.35-2.49,1.89-1.87,4.29-1.53,6.59-1.53H463v25a5.33,5.33,0,0,0-.89,2.16C461.54,346.05,462.88,349.61,461.09,352.85Z" transform="translate(196 174.25)"/><path class="cls-11" d="M-76.17,289.52c-1.83,0-3.67-.14-5.48,0-4,.39-6.78-.79-8-4.92s-3.95-5.31-8.27-5.22c-14.29.3-28.59.09-42.89.13-3.07,0-6-.18-8.17-2.76-1.52-1.77-3.68-1.23-5.62-1.24q-20.21,0-40.4,0v-26q20.94,0,41.89,0c2.57,0,5.23-.57,6.68,2.82.82,1.93,3.27,1.14,5,1.15,15.45,0,30.92.14,46.37-.05,4.32-.06,6.75.86,6.06,5.74-.45,3.21,1.11,4.54,4.33,4.36,2.82-.16,5.65,0,8.47,0C-72.76,267.68-72.76,285.38-76.17,289.52Z" transform="translate(196 174.25)"/><path class="cls-11" d="M463,275.52q-28.5,0-57,0c-2.7,0-5.16,0-7.25,2.34-1.8,2-4.57,1.68-7.08,1.68h-47.5c-3.41-4.14-3.41-21.84,0-26q24.16,0,48.33,0c2.26,0,4.59.47,5.84-2.49,1-2.33,3.48-1.46,5.36-1.46,19.77-.06,39.53,0,59.3,0Z" transform="translate(196 174.25)"/><path class="cls-10" d="M-190.68,370.47l-.39-4.38a58.65,58.65,0,0,1-.92-7.34c-.2-1.75.54-3.7-1.12-5.12l-1.89-1.11-1-4.08a8.26,8.26,0,0,0,1-7.92v-25c13.83,0,27.67,0,41.5,0,2.72,0,5.24.12,7.4,2.2,1.92,1.85,4.52,1.84,7.06,1.84,14.67,0,29.33.06,44-.07,3.83,0,6.59.29,6.12,5.22-.3,3.17,2.08,4.41,4.76,4.69s5.33.11,8,.14c4.08,5.58,2.74,11.42.88,17.29-4.45,3-9.25,2.46-13.75.62a22.11,22.11,0,0,0-8.64-1.7c-13.76,0-27.52,0-41.27-.05-2.43,0-5,.48-7.15-1.3-1.59-1.77-3.29-3-6-2.91-9.8.38-19.62-.53-26.94.37,7-.92,16.55,0,26-.33,2.44-.07,4.67.2,6.26,2.32.5,4.11-2.45,4.53-5.3,4.72-4.92.33-9.85.07-14.78.15-2.29,0-4.63-.1-6.64,1.33-2.29,1.39-6-.17-7.2,3.55-.65.33-1.5.33-1.77-.25-1.12-2.42-1.46-.47-2,.3a2.51,2.51,0,0,1-2,.59,2.88,2.88,0,0,1-1.24-.69c-1-1.13-.81-2.48-.77-3.81-.07,1.58,0,3.16,0,4.75.69,3.35,1.37,6.71,1.86,10.07C-186.21,367.4-186,370.8-190.68,370.47Z" transform="translate(196 174.25)"/><path class="cls-12" d="M463,33.52q-29.24,0-58.46,0c-2.7,0-5.64-.78-7.15,2.88-.7,1.73-3,1.08-4.58,1.08q-57,0-113.91,0a1.78,1.78,0,0,1-.41-1.17,5.84,5.84,0,0,1,1.18-2.19,12.33,12.33,0,0,1,1.19-1.31c.39-.41.81-.78,1.2-1.19s.76-.78,1.15-1.15.76-.77,1.16-1.13a13.37,13.37,0,0,0,1.51-1.5c.35-.41.74-.77,1.12-1.15s.75-.75,1.13-1.12l1.13-1.13a14.61,14.61,0,0,1,1.19-1.17c.61-.47,1.11-1.07,1.68-1.58A3.43,3.43,0,0,1,293.8,21a1.59,1.59,0,0,1,1.08.48c32.62,0,65.24,0,97.86.12,4.55,0,6-1.68,5.49-5.9a36.13,36.13,0,0,1,.4-11.56c1.91,3.49,1.45,6,1.3,8.25-.25,3.9,1.2,5.23,5.15,5.2,19.31-.15,38.61-.07,57.92-.07Z" transform="translate(196 174.25)"/><path class="cls-13" d="M-195,17.52q20.94,0,41.89,0c2.57,0,5.23-.57,6.68,2.82.82,1.93,3.27,1.14,5,1.15,15.45,0,30.92.14,46.37-.05,4.32-.06,6.75.86,6.06,5.74-.45,3.21,1.11,4.54,4.33,4.36,2.82-.16,5.65,0,8.47,0,3.31,4,3.31,12,0,16-1.66,0-3.33-.09-5,0-4.6.3-8.62.39-8.11-6.34.28-3.57-3-3.7-5.79-3.7q-22.94.06-45.87,0c-2.59,0-5.22.51-6.67-2.85-.82-1.9-3.28-1.11-5-1.12-14.13,0-28.25,0-42.38,0Z" transform="translate(196 174.25)"/><path class="cls-14" d="M-67-171.9a1.71,1.71,0,0,0,1-2.1h6c1.41,1.14,3.28-.05,4.75.82L-55-172c-1.67,2.31-4.27,3.24-6.78,3.65S-67.54-167.41-67-171.9Z" transform="translate(196 174.25)"/><path class="cls-15" d="M326.53-170c-2.83.16-3.14-2.2-4-4h4c1.7,1.87,4.34.24,6.18,1.64a2.4,2.4,0,0,1,.34,2.24,2.88,2.88,0,0,1-1.13,1.19A4.29,4.29,0,0,1,326.53-170Z" transform="translate(196 174.25)"/><path class="cls-16" d="M334.65,482.05,333.53,484l-8.53.5c-1.51-2.05-3.79-.18-5.45-1.47C324.46,480.87,329.62,482.45,334.65,482.05Z" transform="translate(196 174.25)"/><path class="cls-17" d="M-67.47,484.05c0-.67-.1-1.34-.16-2,4.38.34,8.89-1.09,13.12,1-2.26,1.41-5.15-1.1-7.11,2.23Z" transform="translate(196 174.25)"/><path class="cls-18" d="M461.09,352.85c.2-3.78-1-7.66.9-11.31,1.23,1.48-.21,3.5,1,5v6Z" transform="translate(196 174.25)"/><path class="cls-19" d="M332.68-171.85c-2.06-.6-4.88,1-6.1-2l.71-.4c.74.87,1.49.93,2.24.25h4c-.19,1,.66,1.38,1.14,2A1.47,1.47,0,0,1,332.68-171.85Z" transform="translate(196 174.25)"/><path class="cls-20" d="M463,346.52c-1.47-1.43-.86-3.28-1-5l1-1Z" transform="translate(196 174.25)"/><path class="cls-21" d="M-195,340.52a4.74,4.74,0,0,1,0,6Z" transform="translate(196 174.25)"/><path class="cls-22" d="M-195-39.48c1.66,2,1.28,4,0,6Z" transform="translate(196 174.25)"/><path class="cls-23" d="M-55.49-173c-1.69-.17-3.56.53-5-1h6Z" transform="translate(196 174.25)"/><path class="cls-24" d="M-60.47,484c1.75-1.78,4-.66,6-.94,0,.31,0,.63,0,.94Z" transform="translate(196 174.25)"/><path class="cls-25" d="M319.55,483c1.7.11,3.53-.46,5,1h-5C319.53,483.68,319.54,483.35,319.55,483Z" transform="translate(196 174.25)"/><path class="cls-26" d="M329.53-174c-.67,1.07-1.34.91-2,0Z" transform="translate(196 174.25)"/><path class="cls-27" d="M-176.47-62.48H319.65c2.33,0,4.66,0,7,0,.78,2.22-.71,3.49-2,4.84a43.3,43.3,0,0,1-3.74,3.68c-.42.47-.87.91-1.32,1.35s-.88.86-1.34,1.27a14.31,14.31,0,0,0-1.73,1.75c-.45.47-.87,1-1.32,1.44a12.28,12.28,0,0,1-2.09,1.92c-1.09.78-2.08,1.74-3.55,1.79a13.37,13.37,0,0,1-1.77-.22c-22,.71-44.08.25-66.11.24a39.52,39.52,0,0,1-5.39-.86c-.57-.35,0,.3-.45-.19-6.85-8-16-8-25.52-8q-115.91.26-231.8,0c-9,0-17.54,1.29-25.51,5.65-1.74,1-3.58,1.83-5.7,1.46a15,15,0,0,0-5.54-1.47,37.68,37.68,0,0,0-7-.26q-53.28,0-106.57,0c-2.47,0-5,.37-7.4-.56-1.58-.95-1.7-2.52-1.77-4.11a41.71,41.71,0,0,1,.08-4.33A10.42,10.42,0,0,1-176.47-62.48Z" transform="translate(196 174.25)"/><path class="cls-28" d="M377.69-62.48,366.63-51.42c-1.44.66-2.57.09-3.55-.94-6.69-7.09-14.56-13-21.15-20.15a4.35,4.35,0,0,1-1.51-3c3.51-3.92,6.88-8,11.32-11,8.23-5.4,16.62-3.92,22.06,1.22C380-79.37,381.72-72.24,377.69-62.48Z" transform="translate(196 174.25)"/><path class="cls-29" d="M323.47-58.58q1.59-1.92,3.17-3.86l1.83-1.14c4,.39,6.19,3.73,8.92,6,5.11,4.24,9.57,9.21,14.22,14,1.38,1.41,2.85,2.92,2,5.24l-5,5a5.33,5.33,0,0,1-4-1.8c-6-6.26-13-11.37-18.85-17.78C324.34-54.53,322.53-56,323.47-58.58Z" transform="translate(196 174.25)"/><path class="cls-30" d="M-98.08-163.61a1.39,1.39,0,0,1,.25-.82c3.29-1.63,5.93,1.05,8.93,1.34,2.28.9,4.25-.56,6.38-.82a144.63,144.63,0,0,1,24.64-2.47c2.65-.05,5.27-.41,7.14,2.24L-52.09-160a9.45,9.45,0,0,1-7.9-.48c-8.31-1.46-16.15,2.22-24.4,2.17C-89.92-158.33-94.37-159.63-98.08-163.61Z" transform="translate(196 174.25)"/><path class="cls-31" d="M335.49-172.37c6.2.54,12.4,1.15,18.14,3.85,3.92,3.74,8.64,4.84,13.89,4.18l3.12,1.82c-.12,2-2.1,2-3.11,3a3.63,3.63,0,0,1-3,1c-3-2.37-7,.38-10-2-.83-3.09-4.86-1.38-6-4A4.47,4.47,0,0,1,344-163.1c-3.85-1.06-8-1.3-11.51-3.38h0a2.88,2.88,0,0,1,0-4h0C333.27-171.48,334.68-171.45,335.49-172.37Z" transform="translate(196 174.25)"/><path class="cls-32" d="M-156.61-125.74c3-2.9,5.17-6.71,9-8.79,1.65-.85,3.09-1.11,3.68,1.19a.63.63,0,0,0,.15.82,1.58,1.58,0,0,1,.51-.88c.85-.61,1.92-.53,2.8-1,1.19-.9,2.55-1.54,3.7-2.49a4.4,4.4,0,0,1,1-.8,6.84,6.84,0,0,1,2.33-.79c4.39,2-.05,4,0,6a2.7,2.7,0,0,1-.72,1.07,17.37,17.37,0,0,0-1.82,1.82c-1,.78-1.92,1.94-3.45,1.12-1.49.65-2.94,1.69-4.48,1.86-2.43.26-3.4,1.23-3.67,3.66-.16,1.54-1.21,3-1.86,4.48-.08,3.32-1.24,5.74-5,6-1.68,1.34-3.35,3.64-5,0,.33-2.69,3.16-3.9,3.81-6.4a6.46,6.46,0,0,1,.83-1.06,8.31,8.31,0,0,0,1.52-3.24c-.06,0-.41-.24-.46-.21C-155.12-123.72-157-123.34-156.61-125.74Z" transform="translate(196 174.25)"/><path class="cls-33" d="M353.59-38.39a180.9,180.9,0,0,0-19.67-19.48,24.43,24.43,0,0,1-5.45-5.71l2.95-3c2-.85,3.11.55,4.25,1.68q9.65,9.58,19.22,19.22c1.14,1.14,2.53,2.28,1.69,4.25Z" transform="translate(196 174.25)"/><path class="cls-34" d="M-67.48-172.38c1.61,3.07,4.27,2.18,6.36,1.17a12,12,0,0,1,5.63-1.28c2.91-.1,4.84.55,3,4-1.5,2.75-4.39,2.14-6.63,2.28-8.45.55-16.82,1.75-25.22,2.63a2.2,2.2,0,0,1-1.79-1.38,3.27,3.27,0,0,1,0-1.46c.55-1.31,2-1.85,2.63-3.13C-78.18-170.6-73-172.74-67.48-172.38Z" transform="translate(196 174.25)"/><path class="cls-35" d="M-189.57-65.17a12,12,0,0,1,2-6.57l1.92-.38c1.37,1.09,1.25,2.69,1.54,4.16-.06,11.31-2.9,22.35-3.36,33.63a5.87,5.87,0,0,1-2,4.33c-3.21.07-4.92-.93-3.07-4.38,2-3.74.69-7.76,1.07-11.63,0-.23,0-.45,0-.68-.17-3.12-.05-6.23.06-9.35.13-2-.84-4.18.7-6C-189.07-62.66-190.16-64.22-189.57-65.17Z" transform="translate(196 174.25)"/><path class="cls-36" d="M450.69-84.47c.49,2.34,2.62,4.1,2.42,6.69.88,2.75,1.15,5.62,2.27,8.35s.94,5.51-2.4,7c-1.21,1.34-1,3-1,4.59,0,2.1-.68,3.44-3,3.41a11.5,11.5,0,0,1,0-10,2.17,2.17,0,0,0-2-2,7.85,7.85,0,0,1,0-8h0a2.55,2.55,0,0,0,0-4C447.68-80.81,448.1-83.3,450.69-84.47Z" transform="translate(196 174.25)"/><path class="cls-37" d="M414.65-134.52a32,32,0,0,1,7.11,6.93c-1.05,2.9,1.12,4.53,2.59,6.4.94,1.18,2.32,2.28.83,3.8s-2.59-.39-3.81-.92a4.87,4.87,0,0,1-2.76-3.86c-1.38-6.12-4.77-9.46-11-10.24-2.7-.34-3.64-1.92-4.43-4a1.45,1.45,0,0,1,.9-2c2.25-1.08,3.71.23,5.25,1.62S412.45-134.26,414.65-134.52Z" transform="translate(196 174.25)"/><path class="cls-38" d="M-185.92-29.69l-3.41-2.11c.66-8.94.91-17.94,3.7-26.57,1-3.25-2-6.47.18-9.63.75-.58.92-1.74,2-2,3.06,2.67,1.5,5.34,0,8a5.33,5.33,0,0,1,1.59,5.9c-3,6.41-.55,13.25-1.53,19.83C-183.77-33.85-183.35-31.33-185.92-29.69Z" transform="translate(196 174.25)"/><path class="cls-39" d="M340.42-75.52Q351.48-65.24,362.53-55c1.33,1.22,2.73,2.37,4.1,3.56-.67.66-1.33,1.33-2,2a2.57,2.57,0,0,1-3.15-.69c-6.87-7.12-15.05-12.86-21.57-20.36a5.47,5.47,0,0,1-1.49-3C339.08-74.19,339.75-74.85,340.42-75.52Z" transform="translate(196 174.25)"/><path class="cls-40" d="M-85.47-164.48c8.8-2.83,18.27-.62,27.08-3.65,1.8-.62,3.93-.26,5.91-.35,1.17,1.12,1,2.59,1,4a44,44,0,0,1-6,0c-9.17-1.24-18,2.18-27,2C-86.22-162.44-86-163.38-85.47-164.48Z" transform="translate(196 174.25)"/><path class="cls-41" d="M329.53-160.48l-3.53-3c2.14-1.62,4.45-.68,6.53-1,3-1.42,6-1.73,8.89.32,2.13,1.5,5.05-.2,7.11,1.7,0,1.56,1.9,1.71,2.3,3.42-3.35.58-6.09-2.46-9.31-1.43A16.23,16.23,0,0,1,329.53-160.48Z" transform="translate(196 174.25)"/><path class="cls-42" d="M356.58-41.38a328,328,0,0,0-25.16-25.15c.69-.68,1.37-1.37,2.05-2,.61.27,0-.31.48.1,9.22,7.37,17.8,15.37,24.69,25.05Z" transform="translate(196 174.25)"/><path class="cls-43" d="M-143.47-132.47a6,6,0,0,1-2,4,2.84,2.84,0,0,1,0-3.95c1.28-2.71-1.13-1.68-2.11-2.09.76-2,2.66-2.72,4.17-3.88l.36.26-.34-.3a15.62,15.62,0,0,1,5-3.84c1.43,1.24,3.84-.22,5,1.8v2c-.34.66-.68,1.32-1,2a.59.59,0,0,0-1,0c-.48,2.19-3,2.36-4,4A2.55,2.55,0,0,0-143.47-132.47Z" transform="translate(196 174.25)"/><path class="cls-44" d="M338.42-73.52Q349.48-63.24,360.53-53c1.33,1.23,2.73,2.37,4.1,3.56l-2.06,2.05a3.43,3.43,0,0,1-1.85-.61c-7.84-7.28-15.45-14.8-22.68-22.69a3.53,3.53,0,0,1-.63-1.85Z" transform="translate(196 174.25)"/><path class="cls-45" d="M360.57-45.37c-.33.33-.66.67-1,1-8.54-5.84-15-14-22.36-21-1.16-1.11-3.3-1.86-2.73-4.2l1-1c5.16,1.9,7.84,6.84,12.08,9.94s7.84,7.52,11.65,11.41C360.25-48.19,361.35-47.09,360.57-45.37Z" transform="translate(196 174.25)"/><path class="cls-46" d="M360.57-45.37a145.63,145.63,0,0,0-18-17.65c-2.62-2.23-4.75-5-7.1-7.57l1-1c2.35.67,3.88,2.46,5.52,4.09,5.75,5.74,11.52,11.45,17.2,17.26,1,1.06,3,1.73,2.37,3.87Z" transform="translate(196 174.25)"/><path class="cls-47" d="M334.48-69.59a193.37,193.37,0,0,0,20.33,20.25,20.07,20.07,0,0,1,4.76,5l-.93.94a321.12,321.12,0,0,1-25.17-25.15Z" transform="translate(196 174.25)"/><path class="cls-48" d="M361.57-46.37c-7.8-9-16.5-17-25.09-25.22l.93-.93a317.58,317.58,0,0,1,25.16,25.15Z" transform="translate(196 174.25)"/><path class="cls-49" d="M-122.48-152.48l3,1c2.39-.42,2.89,1.7,4,3v2a5.83,5.83,0,0,1-1.48,1.12c-1.2.32-2.22,1.1-3.44,1.38a1.48,1.48,0,0,1-1.07-.53h0c-2.1-1.43-4.91-2.29-4.49-5.71C-125.09-151.39-123.7-151.8-122.48-152.48Z" transform="translate(196 174.25)"/><path class="cls-50" d="M-168.32-109.48c.11-3.3,2.43-5.15,4.64-7.07,4.58,3.85-.35,5.57-1.8,8.07a1.73,1.73,0,0,1-1.77.56A2,2,0,0,1-168.32-109.48Z" transform="translate(196 174.25)"/><path class="cls-43" d="M-154.46-112.47l5-6c4,2.18,1.33,4.29-.25,6.1C-151.12-110.76-153-109.07-154.46-112.47Z" transform="translate(196 174.25)"/><path class="cls-51" d="M348.53-162.46c-5.55,1-10.45-3-16-2v-2c5.58-1.32,10.48,2.74,16,2C348.52-163.8,348.52-163.13,348.53-162.46Z" transform="translate(196 174.25)"/><path class="cls-52" d="M-167.31-108.25l1.85.3c.92,3.78-2.48,5.4-4,8a1.35,1.35,0,0,1-2,0l-2.12-2.06c.07-1.71,1.21-2.8,2.3-3.91S-168.2-106.67-167.31-108.25Z" transform="translate(196 174.25)"/><path class="cls-53" d="M430.66-116.78c2.59,1.89,4.13,4.64,5.91,7.2-2.24,1-4.71-.45-6.24-1C427.72-111.51,429.15-114.68,430.66-116.78Z" transform="translate(196 174.25)"/><path class="cls-6" d="M-183-56v-4.58l3.92-1.52c1.43,1.7,1.13,3.4.08,5.1v4a1.79,1.79,0,0,1-1.92.48C-182.42-53.2-181.77-55.16-183-56Z" transform="translate(196 174.25)"/><path class="cls-54" d="M332.52-170.49c0,1.34,0,2.68,0,4-1.16,0-2.32-.08-3.47,0-3.51.31-4.6-.84-2.53-4Z" transform="translate(196 174.25)"/><path class="cls-55" d="M-125.47-150.51c.42,2.62,3.55,3.44,4,6-4.26,0-4.26,0-7.1-5.19l3.06-1.93a.68.68,0,0,1,.27.72C-125.31-150.63-125.39-150.51-125.47-150.51Z" transform="translate(196 174.25)"/><path class="cls-56" d="M448.53-64.48v10c-.13.77.13,1.83-.86,2.07-.74.18-1-.59-1.05-1.26-.05-2.94-.07-5.87-.09-8.81A2.16,2.16,0,0,1,448.53-64.48Z" transform="translate(196 174.25)"/><path class="cls-57" d="M-139.46-128.47c.94-.75,1.6-1.91,3-2a22.2,22.2,0,0,1,2-2h1c3.25,2.69-.65,3.85-1.53,5C-136.25-125.8-138.47-125.86-139.46-128.47Z" transform="translate(196 174.25)"/><path class="cls-58" d="M-109.47-160.34c1.94-.76,3.53-2.44,5.85-2.2.75.25,1.79.28,2.18.8s-.37,1.12-1,1.24C-104.78-160-107-156.16-109.47-160.34Z" transform="translate(196 174.25)"/><path class="cls-59" d="M329.53-160.48h12A9.41,9.41,0,0,1,329.53-160.48Z" transform="translate(196 174.25)"/><path class="cls-60" d="M430.52-106.48c2.32.33,2.65,2.65,4,4,2.8,2.9,1.69,4.11-1.94,4C431.36-101,427.91-103,430.52-106.48Z" transform="translate(196 174.25)"/><path class="cls-61" d="M367.53-159.48c-.45-2.53,1.57-2.55,3.11-3l1.88.21c-.21,1.18,2.2,2.17.48,3.3S369.3-158.63,367.53-159.48Z" transform="translate(196 174.25)"/><path class="cls-62" d="M390.6-151.64c2.68.25,5.2.87,7,3.12-1,1.86-2.81.29-4.06,1.05,0,.33,0,.66,0,1a2.14,2.14,0,0,1-3,0l-1-2a3.11,3.11,0,0,1,1-2Z" transform="translate(196 174.25)"/><path class="cls-63" d="M-183.53-82.63q1.09-2.91,2.2-5.82c1.58.47,2.26,1.7,1.39,3-1.35,1.93-1.52,4.17-1.91,6.6C-183.47-80-183.14-81.48-183.53-82.63Z" transform="translate(196 174.25)"/><path class="cls-64" d="M354.53-160.48c3.31.79,7.31-1.89,10,2C361.22-159.26,357.22-156.59,354.53-160.48Z" transform="translate(196 174.25)"/><path class="cls-65" d="M-133.47-140.49c-1.8-.23-4.05.81-5-1.8,1.57,0,1.62-1.86,2.87-2.22C-131.65-144.87-131.94-143-133.47-140.49Z" transform="translate(196 174.25)"/><path class="cls-66" d="M403.47-144.2c-1.35,2.51-5,2.13-5.49,5.81-2.48-3.15.53-4.27.54-6.09.18-.18.35-.37.52-.56a4.45,4.45,0,0,1,4.28.64Z" transform="translate(196 174.25)"/><path class="cls-67" d="M-154.47-118.48c-1.3,2.31-2.31,4.86-5,6-2.9-3.19,1.79-3.84,2-6l.35-.5a2.73,2.73,0,0,1,1.14-.4A1.78,1.78,0,0,1-154.47-118.48Z" transform="translate(196 174.25)"/><path class="cls-68" d="M430.52-106.48c-.62,3,2.62,5,2,8C427.77-101.47,427.37-103.08,430.52-106.48Z" transform="translate(196 174.25)"/><path class="cls-69" d="M-60.47-160h9Q-56-155.24-60.47-160Z" transform="translate(196 174.25)"/><path class="cls-70" d="M446.53-74.48c0,2.67,0,5.33,0,8C443.51-69.15,443.5-71.81,446.53-74.48Z" transform="translate(196 174.25)"/><path class="cls-71" d="M390.53-146.48h3c-1.45,3.61-1.45,3.61-5.09,3.49C388.06-144.8,390.74-144.81,390.53-146.48Z" transform="translate(196 174.25)"/><path class="cls-72" d="M-117.47-146.48l2,0c-1.91,4.77-2.76,5.05-6,2l1,0C-119.69-145.51-118.22-145.45-117.47-146.48Z" transform="translate(196 174.25)"/><path class="cls-73" d="M-115.48-148.49c-1.84-.31-2.76-1.87-4-3C-115.81-153.62-115.5-151.24-115.48-148.49Z" transform="translate(196 174.25)"/><path class="cls-74" d="M-183.46-70.48a2.17,2.17,0,0,1-2,2c0-1.33,0-2.66,0-4,.2-.61.43-1.54,1.19-1.15C-183-73-183.65-71.57-183.46-70.48Z" transform="translate(196 174.25)"/><path class="cls-66" d="M393.52-147.47c.9-2.13,2.75-.53,4.06-1.05l0,0c.5,1.3,2.36,2.27,1,4h0Z" transform="translate(196 174.25)"/><path class="cls-15" d="M-171.47-100h2c0,.48.06,1,.06,1.43,0,1,.94,2.64-.61,2.81-1.91.22-1.24-1.71-1.44-2.81A8.52,8.52,0,0,1-171.47-100Z" transform="translate(196 174.25)"/><path class="cls-75" d="M-179-57v-5h3C-177-60.34-176.89-58-179-57Z" transform="translate(196 174.25)"/><path class="cls-76" d="M-157.46-118.46c-3.55.12-2.29-2.2-2-4l0,0c4-.32,3.08,1.81,2,4Z" transform="translate(196 174.25)"/><path class="cls-51" d="M390.54-150.5c.45,1.07.47,1.92-1,2-.81-.26-2.45.23-2.05-1.22C387.82-150.91,389.46-150.33,390.54-150.5Z" transform="translate(196 174.25)"/><path class="cls-77" d="M-166.33-97.22a1.15,1.15,0,0,1-.93-1.5c.09-.35.56-.89.82-.87.79.07.89.79.77,1.4C-165.74-97.82-166.12-97.51-166.33-97.22Z" transform="translate(196 174.25)"/><path class="cls-78" d="M447-78.47c2.84,1.33,2.77,2.66,0,4Z" transform="translate(196 174.25)"/><path class="cls-79" d="M445.54-94.46c1.41.52.87,1.8,1.07,2.79C444.29-91.85,444.56-93,445.54-94.46Z" transform="translate(196 174.25)"/><path class="cls-80" d="M-125.47-150.51l0-1.09,3-2c0,.37,0,.74,0,1.11A3.29,3.29,0,0,1-125.47-150.51Z" transform="translate(196 174.25)"/><path class="cls-81" d="M435-96.21c.28.16.7.28.78.5.19.6-.23.93-.78.93s-1-.34-.77-.93C434.32-95.94,434.75-96,435-96.21Z" transform="translate(196 174.25)"/><path class="cls-82" d="M-147.49,344q24.9,0,49.79,0c3.41,0,6.55-.09,9.83,2.22,3,2.14,7.43.51,11.22.77,2.16,1.1,2.09,3.18,2.31,5.17,2.88,26.46,24.11,45.65,50.59,45.66q157.73,0,315.43,0c26.4,0,48.44-21.21,49.73-47.65.11-2.27-.26-4.78,2.3-6.17h53.83c.54,3.22,3,3,5.36,3,12.23,0,24.45.05,36.68,0,3.21,0,6.14-.21,5,4.54-.35,1.47,0,3,1.93,3.49l.69.36c1.26,1.32,1.69,3.47,3.92,3.8,3.88,1.93,2.89,6.89,5.85,9.4a18.53,18.53,0,0,1,1.36,1.45c-1.4,5.93-2.77,11.87-5.61,17.34a5.09,5.09,0,0,0-3.54.78,3.66,3.66,0,0,0-1.77,2.39c-.31.72-.43,1.5-.7,2.23a17.48,17.48,0,0,1,1.11-3c1.4-.91,2.5-3.64,4.52-.74-2.39,5.51-3.87,11.46-7.7,16.3-.9,0-1.35.85-2.12,1.09-2,.43-2.6-2.16-4.45-2.06-2.76.76-3.74,4.17-6.76,4.52a3.45,3.45,0,0,0-2.79,1.17h-110c-1.73-.94-3.6-.48-5.4-.48q-235.62,0-471.23,0c-1.8,0-3.67-.45-5.4.48h0a2.38,2.38,0,0,1-1.83.73,15.61,15.61,0,0,0-2.88.48c-3.36.49-4.5-.84-3.6-4.2.35-1.31,1.88-2.69-.66-3.38-1.19-.22-2.45-.18-3.43-1.07-2.6-3.17-1.53-6.92-1.56-10.46,0-2.73-.45-4.89-3.67-5.27-3-4.62-2.51-10.23-4.33-15.18a4.34,4.34,0,0,1,.79-2.2c1.79-1.67,1.45-4.13,2.24-6.17.66-1,1.41-2,1.27-3.21-.58-4.78,1.75-7.85,5.66-10.07,0-2.88,2-3,4.12-3,6.32,0,12.65,0,19,0C-150.14,347-147.95,346.92-147.49,344Z" transform="translate(196 174.25)"/><path class="cls-82" d="M-163.47,410c1.73-1.46,3.81-1,5.76-1q235.25,0,470.47,0c2,0,4-.48,5.77,1Z" transform="translate(196 174.25)"/><path class="cls-83" d="M-77.76,479.69c-11.71-.88-22-6.1-32.71-10.32,3-4.71,6.78-4.53,11-1.84,1.38.1,2.1,1.17,3,2a2.17,2.17,0,0,0,2-2,6.29,6.29,0,0,1,7,0h1c2.48,1.12,5.07.3,7.61.48,1.92.14,3.91-.1,5.4,1.52-.38,2.3-1.25,4.1-4,4a4.85,4.85,0,0,1-1,.93c1,.29,2,1,3,.06,2.17-.15,3.79,2.38,3.59,2.91C-72.85,480-75.57,479.42-77.76,479.69Z" transform="translate(196 174.25)"/><path class="cls-84" d="M-138.53,451.68a103.15,103.15,0,0,1-19-17.91c-.93-2.32-3.06-3.9-3.92-6.27,1.29-1.3,1.69-4.4,4.16-3.38,3.44,1.43,4,5,4.12,9.23,3.13-3.33,5.55-2.76,7.78.13.45.58,1.79.9.77,1.72-5.51,4.42-.43,3.78,2.08,4.72,4.4,1.64,5.68,5.17,5.09,9.58A1.89,1.89,0,0,1-138.53,451.68Z" transform="translate(196 174.25)"/><path class="cls-82" d="M-180.48,385.52c3.78-1.56,4.78.84,4.93,3.76.21,4.08.07,8.17.08,12.25,1.33,1.61,2.66,1.26,4,0,2.47-.06,4.4.09,2.82,3.53-.65,1.43-3.64,2.93-1.58,4.35,2.41,1.67,2.14-2.49,3.84-3.07,1.29.87.76,2.12.93,3.18,1.14,1.71.27,2.9-1,4l-1,2c-1.85.23.73,3.53-2.12,3.06a107.94,107.94,0,0,1-13.68-25.06c1.81-1.36,1.71-3.37,1.79-5.3C-181.15,387.32-181.16,386.29-180.48,385.52Z" transform="translate(196 174.25)"/><path class="cls-85" d="M356,477.36c-2.42.38-4.41,2.28-7,2-4.17-.92-8.59.14-12.69-1.77a11.75,11.75,0,0,1-3.29-2.07l0-4c2.67-2.68,5.34-2.36,8,0,.94.75,1.62,1.91,3,2,1.29-1.62,3.94.18,5-2,2.8-.52,7.22,1.81,7-4,1.67-1.42,3.33-1.16,5,0,.62.13,1.48.05,1.83.43,1,1-.11,1.45-.85,1.47-3.36.11-2.32,2.25-2,4.1C358.83,475,356.77,475.5,356,477.36Z" transform="translate(196 174.25)"/><path class="cls-86" d="M433.13,423.64a6.44,6.44,0,0,1-3,4c-4.21-1-7.86-1-9.42,4.2a2.93,2.93,0,0,1-3.86,2.19c-1.9-1.11-2.37-2.81-1.73-5l-.15-1.58c-.64-1.14-.64-2,1-2a6.13,6.13,0,0,0,2-4c1.38-2.58,3.82-2.84,6.36-3,1.58-.11,3.38.66,4.64-1,1.34-3.33,2.67-.23,4,0a3.53,3.53,0,0,1,3.57-.73,1.51,1.51,0,0,1,.7,1c-.27,2.75-2.69,4-4.16,5.86a4,4,0,0,1-1.2-1.67A4,4,0,0,0,433.13,423.64Z" transform="translate(196 174.25)"/><path class="cls-87" d="M416.79,442.09a58.41,58.41,0,0,1-14.14,12l-.18,0a23.15,23.15,0,0,0-2.79-.78,3.25,3.25,0,0,1-1.13-.68l-.31-.56a1.38,1.38,0,0,1,.29-1.12,6.92,6.92,0,0,0,.9-2.22c.06-5.23,1.34-9.82,6.1-12.78h3c3.21-1,3.67,1,3.79,3.39-1,2.76-4.18,3.14-6.17,5.8,2.25-.86,3.36-2.43,4.91-3.28C413,440.84,415,439.75,416.79,442.09Z" transform="translate(196 174.25)"/><path class="cls-82" d="M-113.46,467.45c-6.87-3.2-13.75-6.37-19.26-11.78-.22-3.1,1-5,4.31-5.09a4.31,4.31,0,0,1,1.47.28c2.57,1.79,5.49,3.24,6.4,6.64a2.81,2.81,0,0,1-.48,1.94c.26.39-1.84.46-.24.81,1.34.29,2.91-.4,3.79,1.27,1.66,1.36,2.21,4,4.79,4.32Z" transform="translate(196 174.25)"/><path class="cls-88" d="M388.53,451.52h1a2.55,2.55,0,0,1,1.07,1.74c-.71,2.28,1.88,3.61,1.69,5.75a5.06,5.06,0,0,1-2.23,3,6.58,6.58,0,0,1-5.53-.49h0c-1-1.37-3-.63-4-2l2-4c-.31-2.94,2-3.64,4-4.69A2.39,2.39,0,0,1,388.53,451.52Z" transform="translate(196 174.25)"/><path class="cls-89" d="M430.55,407.53c3.2-1.29,4.05-5.68,8-6,1.3,3.88,5.39,7.65.45,11.77a1.52,1.52,0,0,1-2.45.23c.4-4.94-3.2-3.87-6-4A1.36,1.36,0,0,1,430.55,407.53Z" transform="translate(196 174.25)"/><path class="cls-90" d="M371.52,471.55a8.46,8.46,0,0,1-5.9,2c-1.25-1.11-1.06-2.61-1.09-4.05.57-.77,1.74-.94,2-2,2.94-2.7,6.2-2.31,10.1-1l-3.11,3C373,470.29,372,470.7,371.52,471.55Z" transform="translate(196 174.25)"/><path class="cls-16" d="M332.53,475.52c5.46.71,10.9,1.51,16,3.84l-9.95,2c.5-2.41-1.38-1.82-2.48-1.78C333.12,479.67,332.34,478.06,332.53,475.52Z" transform="translate(196 174.25)"/><path class="cls-91" d="M-127.47,451.52c-3.15-.38-3.41,2.89-5.25,4.15-2.09-.32-3.18-2.12-4.75-3.19-.63-2.64,2.54-1.44,3-3,.77-1.58.63-6,3.45-1.05.77,1.36,2.29,1,3.55,1.06A1.4,1.4,0,0,1-127.47,451.52Z" transform="translate(196 174.25)"/><path class="cls-82" d="M-147.58,421.83c-.18.69.3,3.21-1,2.64a14.56,14.56,0,0,1-6.44-5.27c-.77-1.25,1.89-1.56,3.33-1.67C-149,417.33-147.15,418.15-147.58,421.83Z" transform="translate(196 174.25)"/><path class="cls-82" d="M-139.14,434.29c6.71-1.41,8.9.22,7.59,5.06-.57,2.11-1.61,2.44-3,.73S-137.42,436.49-139.14,434.29Z" transform="translate(196 174.25)"/><path class="cls-87" d="M391.53,459c-1.83-1.2-5.65-1.61-2-5a9.49,9.49,0,0,1,4-4h3c1.06.28,1.23,1.44,2,2,1.38,2.2-.27,3.14-1.82,3.65a4.59,4.59,0,0,0-3.21,2.77A1.66,1.66,0,0,1,391.53,459Z" transform="translate(196 174.25)"/><path class="cls-83" d="M-85.47,467.52c1-2.86,3.48-1.87,5.45-2,2.94-.13,5.89-.06,8.84,0,1.28,0,2.74-.18,3.33,1.4a1.55,1.55,0,0,1-.15,1.36c-1.23,1.17-2-.62-3-.62-.82,0-1.63-.1-2.45-.16A16.14,16.14,0,0,1-85.47,467.52Z" transform="translate(196 174.25)"/><path class="cls-92" d="M428.53,417.52c.43.6.46,1.63-.15,1.6-3.86-.16-7.12,2.16-10.85,2.41-1.83-2.78-.56-3.88,2.24-4S425.61,417.53,428.53,417.52Z" transform="translate(196 174.25)"/><path class="cls-82" d="M411.53,439.52c-.35-1.82-.82-3.55-3-4l6-6a6.17,6.17,0,0,1,2,4C416,436.45,415.26,439.24,411.53,439.52Z" transform="translate(196 174.25)"/><path class="cls-82" d="M399,451.52a2.15,2.15,0,0,1-2-2c0-2.95,0-5.9,0-8.85,0-1.09-.08-2.65,1.49-2.58s1.47,1.6,1.14,2.67c-1,3.21-.55,6.5-.67,9.76Z" transform="translate(196 174.25)"/><path class="cls-93" d="M341,472h-6.57l-1.6-3.85A2.19,2.19,0,0,1,336,468C339,467.7,340.65,469,341,472Z" transform="translate(196 174.25)"/><path class="cls-94" d="M-169.59,418.58c.9-.89,0-3.05,2.12-3.06.2,1.67,1.79,2.21,2.67,3.32,1.57,2,2.08,3.79-1,4.81Z" transform="translate(196 174.25)"/><path class="cls-82" d="M-121.48,449.53c2.81.12,6.41-.95,6,4-1.59,1.2-.88,4.88-4.36,4.06a5.53,5.53,0,0,1-1.44-3.33C-121.48,452.69-123.06,451.17-121.48,449.53Z" transform="translate(196 174.25)"/><path class="cls-95" d="M-85,468h12v2c-3,0-6,0-9,0-1.66,0-3.43.17-4-2Z" transform="translate(196 174.25)"/><path class="cls-96" d="M-117.47,461.52c-3.19.26-6.13-.09-8.15-3.26,1.82-.52,2.82.91,4.16,1.25,2-.77,3.35-3.25,6-2C-116.08,458.89-115.18,461-117.47,461.52Z" transform="translate(196 174.25)"/><path class="cls-82" d="M355.52,477.84,353.11,474h6.41c2-.15.32,1.57,1.07,2.05C359.07,477.13,357.5,478.05,355.52,477.84Z" transform="translate(196 174.25)"/><path class="cls-97" d="M-120.52,450l1.24,4.18c-3.24,1.92-5-1.88-7.72-2.18h0v-2Z" transform="translate(196 174.25)"/><path class="cls-98" d="M-115.47,457.53c-2.15.21-3.65,2.35-6,2,0-.66,0-1.32,0-2a1.38,1.38,0,0,1,2,0c1.54-1.11,1.61-3.71,4-4C-115.48,454.87-115.48,456.2-115.47,457.53Z" transform="translate(196 174.25)"/><path class="cls-99" d="M-75.47,474.52c-2.58,1.79-5.29.76-9.12.87,2.75-2.6,5.08-1.57,7.11-1.86Z" transform="translate(196 174.25)"/><path class="cls-82" d="M386.53,451.53c-.47,2.21-3,2.37-4,4h0c-1.26-1.48-1.16-3.22-1-5l3-1C385.08,450.31,386.27,450.47,386.53,451.53Z" transform="translate(196 174.25)"/><path class="cls-82" d="M415.53,425.52l-1,2c-.44-.21-1-.32-1.27-.67a4.15,4.15,0,0,1-.38-4.15,1.07,1.07,0,0,1,1.55-.7C415.77,422.81,414.7,424.48,415.53,425.52Z" transform="translate(196 174.25)"/><path class="cls-100" d="M-161.47,427.5c2.92,1.08,3.4,3.69,3.92,6.27a18.45,18.45,0,0,1-5.26-6.09Z" transform="translate(196 174.25)"/><path class="cls-101" d="M384.52,461.52l6-.13a.7.7,0,0,1,1,.13,22.39,22.39,0,0,1-7,3.89C385.62,464.11,386.25,462.81,384.52,461.52Z" transform="translate(196 174.25)"/><path class="cls-102" d="M-87.48,468h-7C-92.14,464.91-89.81,464.9-87.48,468Z" transform="translate(196 174.25)"/><path class="cls-93" d="M344.53,467.52c-.78-.12-1.82.13-2.09-.82-.22-.75.56-1.06,1.22-1.08,1.62-.07,3.25-.07,4.87-.1a1.62,1.62,0,0,1-.11,2.29A3,3,0,0,1,344.53,467.52Z" transform="translate(196 174.25)"/><path class="cls-93" d="M348.53,471.52c-.16,4.45-3,2.12-5,2C344.35,470.74,346.69,471.76,348.53,471.52Z" transform="translate(196 174.25)"/><path class="cls-82" d="M394,449.52a5.62,5.62,0,0,1-2.41,3.29l-1.63-1.1C390.43,449.23,392.33,449.6,394,449.52Z" transform="translate(196 174.25)"/><path class="cls-103" d="M360.53,467.52h-5C356.57,464.8,358,464.8,360.53,467.52Z" transform="translate(196 174.25)"/><path class="cls-104" d="M-166.46,410h3c.07,2.18-.11,4.16-3.17,4Z" transform="translate(196 174.25)"/><path class="cls-82" d="M383.6,465.7a4.49,4.49,0,0,1-3.07,1.72c.17-1.22-.43-2.83,1.19-3.39C383,463.58,383.29,464.77,383.6,465.7Z" transform="translate(196 174.25)"/><path class="cls-82" d="M405.53,435.53c-1.39-.11-2.87.28-4.94-1.2C403.11,433.42,404.6,433,405.53,435.53Z" transform="translate(196 174.25)"/><path class="cls-105" d="M-134.47,449.51c.68,2.69-2.48,1.5-3,3l-1.06-.8c.35-.72.71-1.45,1.06-2.18Z" transform="translate(196 174.25)"/><path class="cls-82" d="M436.53,413.52l2-1c1-.25,1.37.14,1.05,1.13a10.15,10.15,0,0,1-2.78,4.14l-.39-.4a1.27,1.27,0,0,1,.11-1.85C436.52,414.87,436.53,414.19,436.53,413.52Z" transform="translate(196 174.25)"/><path class="cls-106" d="M381.52,450.53a9,9,0,0,1,1,5C379.67,454.37,380.27,452.51,381.52,450.53Z" transform="translate(196 174.25)"/><path class="cls-107" d="M436.52,415.54c0,.62-.07,1.23-.11,1.85-1.29,0-2.56.89-3.88.13C433.05,415.24,434.88,415.58,436.52,415.54Z" transform="translate(196 174.25)"/><path class="cls-108" d="M386.53,451.53a2.15,2.15,0,0,1-2-2c1.63.07,3.47-.29,4,2Z" transform="translate(196 174.25)"/><path class="cls-101" d="M380.53,459.53c1.63.07,3.47-.28,4,2C382.9,461.45,381.06,461.8,380.53,459.53Z" transform="translate(196 174.25)"/><path class="cls-109" d="M348.53,467.52v-2c1.63.07,3.46-.27,4,2a2.87,2.87,0,0,1-3.48.57Z" transform="translate(196 174.25)"/><path class="cls-82" d="M344.53,468h4a1.36,1.36,0,0,1,0,2C346.9,469.93,345.06,470.28,344.53,468Z" transform="translate(196 174.25)"/><path class="cls-110" d="M348.54,469.52c0-.67,0-1.33,0-2h4C352,469.79,350.17,469.46,348.54,469.52Z" transform="translate(196 174.25)"/><path class="cls-111" d="M366.53,467.5c.61.2,1.53.44,1.14,1.2-.65,1.27-2.06.65-3.14.82A2.17,2.17,0,0,1,366.53,467.5Z" transform="translate(196 174.25)"/><path class="cls-112" d="M430.55,408c0,.66,0,1.33,0,2h-2c.17-1.09-.47-2.5.82-3.15C430.11,406.47,430.35,407.4,430.55,408Z" transform="translate(196 174.25)"/><path class="cls-113" d="M371.52,471.55c-.77-2.07.72-2,2-2.08l2.29.14A6.05,6.05,0,0,1,371.52,471.55Z" transform="translate(196 174.25)"/><path class="cls-82" d="M335.53,468h-3Q334,464.29,335.53,468Z" transform="translate(196 174.25)"/><path class="cls-114" d="M-95.58,467.93l-.75,1.59c-1.3,0-2.4-.39-2.66-2h0Q-97.29,466.12-95.58,467.93Z" transform="translate(196 174.25)"/><path class="cls-83" d="M-96.48,468h-3C-98.47,465.51-97.47,465.52-96.48,468Z" transform="translate(196 174.25)"/><path class="cls-115" d="M344,343.51a51,51,0,0,1-7.26,30.19c-9.58,15.72-23.48,25.68-42.1,25.74q-160.95.48-321.91.05c-18.31,0-31.84-9.62-41.81-24.59A47.75,47.75,0,0,1-77,346.51c0-5.67,0-17,1-17v-40l-1-26v-70l1-57V31.62c.06-11.77.19-23.55.15-35.32-.05-17.49,7.59-31,21.23-41.42a5.75,5.75,0,0,0,.89-1.16c-.05-.71.55-.77,1-1,6.59-2.25,12.36-6.54,19.54-7.49a47,47,0,0,1,6.35-.52Q96-55.34,218.89-55.42c8,0,14,2.33,18.2,9.1,5.12,4,5.45,14.5.54,20.64a21.23,21.23,0,0,1-17.25,8.49c-18.64.08-37.27,0-55.9,0q-89.35,0-178.69,0c-2.33,0-4.66,0-7,0-10.93.22-16.22,5.47-16.46,16.3-.15,7.31.3,14.64-.31,22,0,1.55.07,3.1,0,4.65a66.55,66.55,0,0,1,0,12.06,168.66,168.66,0,0,1,0,20.85c.43,10.6.45,21.19,0,31.78.37,11.17.54,22.34-.06,33.5,0,.64,0,1.27,0,1.9a198.93,198.93,0,0,1,.06,23.8q.69,17.91,0,35.81c.41,13.26.47,26.52,0,39.77A254.63,254.63,0,0,1-38,252.73c0,.62,0,1.23,0,1.85a122.27,122.27,0,0,1,0,20.07q-.08.92-.09,1.83c.1,1.24,0,2.48.14,3.71.58,13.37.48,26.74.06,40.11.52,8,.16,16,.28,24,.18,11.71,5.14,16.83,16.83,16.85,43.12.1,86.25,0,129.37.09,10.64,0,21.27,1,31.93.65,49.1-1.44,98.21-.35,147.31-.71,13-.09,17.77-4.87,17.89-17.83.07-7.65-.25-15.32.27-23-.42-13.46-.48-26.91,0-40.37,0-1.57-.06-3.13,0-4.7a141.59,141.59,0,0,1,0-20.39c0-.62,0-1.24,0-1.86a216.23,216.23,0,0,1,0-26.21q0-.94,0-1.89c-.55-13.14-.46-26.29-.05-39.43-.42-11.91-.47-23.83,0-35.74a199,199,0,0,1,.06-23.68c0-.62,0-1.25,0-1.88a192.42,192.42,0,0,1,0-23.53c0-3.14-1.06-6.49,1.73-9.1.05-7.81,0-15.63.19-23.45.24-10.69,7-18.28,18.25-19.39,7.14-.7,14.42,5.69,17.86,14.86V343.51Z" transform="translate(196 174.25)"/><path class="cls-116" d="M323.47-58.58c5.34,7,12.55,12.15,18.73,18.31,2.21,2.21,4.26,4.59,6.39,6.89l-3,3a2.28,2.28,0,0,1-2.76-.38c-7.25-7.42-15.93-13.35-22.53-21.46a4.57,4.57,0,0,1-.93-2.25Z" transform="translate(196 174.25)"/><path class="cls-117" d="M311.58,3.63c-1,1-2,2-2.95,3a3.4,3.4,0,0,1-4-1C297.65-1.67,290-8.19,283-15.32a4.24,4.24,0,0,1-1.06-2.21c.13-2.79,1.64-4.28,4.37-4.63,1.81.13,2.93,1.39,4.11,2.56,5.85,5.85,11.78,11.63,18,17.1C310.16-1,312.65.49,311.58,3.63Z" transform="translate(196 174.25)"/><path class="cls-118" d="M311.58,3.63c-6.72-6.57-13.46-13.11-20.13-19.72-1.76-1.73-3.32-3.66-5-5.5-.31-1.59.62-2.28,1.95-2.68a2.75,2.75,0,0,1,2.33.63c7.43,7.55,15.9,14,23,22a3.61,3.61,0,0,1,.9,2.26Z" transform="translate(196 174.25)"/><path class="cls-119" d="M282.41-17.52C289.16-12,295.5-6,301.7.17c2.23,2.22,4.61,4.28,6.93,6.41l-3,3a2.23,2.23,0,0,1-2.75-.45c-6.64-7.81-15-13.85-21.83-21.5a4.16,4.16,0,0,1-1.31-3.1C280.09-16.86,280.79-17.81,282.41-17.52Z" transform="translate(196 174.25)"/><path class="cls-120" d="M280.49-15.6c5.06,4.94,10.17,9.82,15.18,14.81,3.39,3.38,6.65,6.91,10,10.36l-2,2c-1.72.76-2.92-.23-3.94-1.34C294.06,4.11,287.54-1.08,281.6-6.89c-1.89-1.85-3.7-3.83-3.9-6.71C278.13-15,278.87-15.89,280.49-15.6Z" transform="translate(196 174.25)"/><path class="cls-121" d="M312.48-47.59l1.94-1.94c2.15-.82,3.42.65,4.69,1.89,6.35,6.26,12.57,12.64,18.79,19,1.12,1.15,2.54,2.28,1.67,4.25-.66.67-1.33,1.34-2,2-4.5-.72-6.48-4.85-9.58-7.39-5-4.09-9.26-9-13.82-13.56C313-44.47,311.6-45.6,312.48-47.59Z" transform="translate(196 174.25)"/><path class="cls-122" d="M319.58-4.38c-.67.67-1.33,1.34-2,2a3.91,3.91,0,0,1-2.27-.94c-7.79-7.49-15.47-15.09-22.93-22.93a2.36,2.36,0,0,1-.43-1.41,2.89,2.89,0,0,1,2.37-2.61c1.93-.24,3,1.13,4.2,2.27,6.54,6.38,12.93,12.91,19.41,19.34C319.11-7.49,320.45-6.35,319.58-4.38Z" transform="translate(196 174.25)"/><path class="cls-123" d="M309.57-45.37l.91-.22c1.93-.25,3,1.08,4.18,2.25,6.45,6.44,12.86,12.91,19.5,19.16,1.15,1.08,2.18,2.07,1.41,3.81-.67.66-1.33,1.33-2,2A3.27,3.27,0,0,1,331.7-19c-7.91-8-16.55-15.4-23.66-24.24A1.87,1.87,0,0,1,309.57-45.37Z" transform="translate(196 174.25)"/><path class="cls-124" d="M292.41-27.52A321,321,0,0,1,317.58-2.38l-.95,1a3.32,3.32,0,0,1-4-1c-7.11-7.44-15-14.07-22-21.6a2.7,2.7,0,0,1-.58-1.35C290.15-26.83,290.77-27.76,292.41-27.52Z" transform="translate(196 174.25)"/><path class="cls-125" d="M319.58-4.38a321,321,0,0,0-25.17-25.14c-.25-1.61.65-2.26,2.07-2.49,9.42,6.34,16.84,14.84,24.7,22.86a2.33,2.33,0,0,1,.4,2.78Z" transform="translate(196 174.25)"/><path class="cls-126" d="M278.48-13.6c6.6,10.17,17,16.58,25.15,25.18l-2.06,2.05a5.62,5.62,0,0,1-4.41-1.79c-6.67-6.61-13.2-13.35-19.81-20-.93-.94-1.8-2-1.61-3.45C276.15-13,276.88-13.89,278.48-13.6Z" transform="translate(196 174.25)"/><path class="cls-127" d="M290.41-25.52c7.19,5.9,13.24,13,19.91,19.37,1.92,1.84,3.77,3.73,6.31,4.73l-2,2Q303.58-9.7,292.52-20c-1.32-1.23-2.73-2.37-4.1-3.55C288.22-25,288.88-25.72,290.41-25.52Z" transform="translate(196 174.25)"/><path class="cls-128" d="M335.57-20.37c-7.86-8.91-16.41-17.12-25.09-25.22l2-2c7,8.16,15,15.33,22.84,22.61a29.45,29.45,0,0,1,2.25,2.61Z" transform="translate(196 174.25)"/><path class="cls-129" d="M298.57,16.62l-.94,1c-1.48.69-2.57-.07-3.55-1-7.24-7.09-14.24-14.42-22-21A3.24,3.24,0,0,1,271-6.61a2.84,2.84,0,0,1,2.31-2.66c2.13-.28,3.35,1.24,4.65,2.47,6.5,6.19,12.52,12.86,18.93,19.15C298,13.48,299.43,14.63,298.57,16.62Z" transform="translate(196 174.25)"/><path class="cls-130" d="M271.42-6.51c7.94,6.23,15,13.36,22.12,20.52,1.27,1.29,2.72,2.39,4.09,3.57l-2.06,2A191.39,191.39,0,0,1,270.05-3.9c-.3-.34-.22-.94-.18-1.44C270.11-6.1,270.51-6.64,271.42-6.51Z" transform="translate(196 174.25)"/><path class="cls-131" d="M321.58-6.37a174.14,174.14,0,0,0-19.67-19.5,23.25,23.25,0,0,1-5.43-5.72c-.11-.9.43-1.3,1.19-1.53,3.64.61,5.86,3.55,8.37,5.69,5.73,4.91,10.84,10.54,16.1,16a5,5,0,0,1,1.5,3Z" transform="translate(196 174.25)"/><path class="cls-132" d="M308.41-43.52a312.6,312.6,0,0,1,25.16,25.15c-.33.33-.66.67-1,1A11.76,11.76,0,0,1,327-20.43c-6.18-5.92-12.21-12-18.23-18.08-1-1-2.12-2.12-1.93-3.82C307.1-43.08,307.5-43.63,308.41-43.52Z" transform="translate(196 174.25)"/><path class="cls-133" d="M317.48-52.58l1-1c9.25,6.81,17,15.18,25,23.35a1.63,1.63,0,0,1,.07,1.87l-.95.94c-2.14.83-3.43-.63-4.69-1.89-6.27-6.32-12.44-12.75-18.78-19C318-49.46,316.62-50.61,317.48-52.58Z" transform="translate(196 174.25)"/><path class="cls-134" d="M325.57-10.37l-.94.94c-1.21.66-1.83-.34-2.47-1-7.23-7-14.17-14.39-21.68-21.15-.85-.77-1.73-1.59-1.57-2.93a1.83,1.83,0,0,1,1.5-1.43c8.67,4.9,14.77,12.7,21.8,19.44C323.89-14.87,326.49-13.51,325.57-10.37Z" transform="translate(196 174.25)"/><path class="cls-135" d="M317.48-52.58a322.6,322.6,0,0,0,25.15,25.15l-1,1a2.16,2.16,0,0,1-2.67-.66c-7.87-7.78-16.31-15-23.55-23.43Z" transform="translate(196 174.25)"/><path class="cls-136" d="M343.58-28.37a250.62,250.62,0,0,0-22-22c-1.12-1-2.37-1.79-3.06-3.17l.93-.93Q330.46-44.26,341.53-34c1.32,1.23,2.73,2.38,4.1,3.56Z" transform="translate(196 174.25)"/><path class="cls-137" d="M276.48-11.6c7.84,8.93,16.42,17.13,25.09,25.23l-.93.95c-1.34.65-2.22-.16-3-1C290,5.7,281.51-1.35,274.18-9.54,274.24-11,274.9-11.82,276.48-11.6Z" transform="translate(196 174.25)"/><path class="cls-138" d="M270.48-5.6c4.94,7,12.45,11.3,18,17.6,2.3,2.59,4.7,5.09,7.05,7.62l-.94,1c-1.67.72-2.89-.19-3.94-1.24-6.9-6.84-13.86-13.61-20.51-20.69a3.59,3.59,0,0,1-1.3-3.06C269.14-5.18,269.58-5.7,270.48-5.6Z" transform="translate(196 174.25)"/><path class="cls-139" d="M274.42-9.51Q285.48.75,296.53,11c1.33,1.23,2.74,2.38,4.11,3.56l-2.07,2A317.33,317.33,0,0,0,273.41-8.51C273.3-9.3,273.62-9.65,274.42-9.51Z" transform="translate(196 174.25)"/><path class="cls-140" d="M330.64-15.43l-1,1c-3.36,1-4.7-2.09-6.54-3.62-7.37-6.1-14.44-12.55-20-20.44a1.89,1.89,0,0,1,1.31-1.62c4.63.42,6.62,4.66,9.75,7.12,5.58,4.37,10.19,9.91,15.3,14.88A4.41,4.41,0,0,1,330.64-15.43Z" transform="translate(196 174.25)"/><path class="cls-141" d="M315.41-50.52c7.76,6.43,14.11,14.37,22.1,20.55,1.43,1.11,2.75,2.36,4.12,3.54l-2.06,2.06a322.72,322.72,0,0,0-25.15-25.16Z" transform="translate(196 174.25)"/><path class="cls-142" d="M330.64-15.43c-7.8-6.39-14.05-14.44-22.1-20.56-1.44-1.09-2.75-2.35-4.12-3.53a1.46,1.46,0,0,1,1-1.68c1.8-.47,2.69.91,3.73,1.91,7.24,7,14,14.45,21.56,21.13a3.11,3.11,0,0,1,.89,1.73Z" transform="translate(196 174.25)"/><path class="cls-143" d="M303.41-38.52c4,2.76,7,6.5,10.4,9.89a163.84,163.84,0,0,0,15.82,14.21l-2.06,2a3.91,3.91,0,0,1-2.26-.94c-7.53-7.29-14.84-14.8-22.32-22.15a3.14,3.14,0,0,1-.87-1.76C302.18-38,302.48-38.59,303.41-38.52Z" transform="translate(196 174.25)"/><path class="cls-144" d="M299.48-34.59A321,321,0,0,0,324.63-9.43l-1,1c-5.27-4-9.41-9.26-14.3-13.7-3.9-3.54-7.94-6.93-11.92-10.39C297.23-34.08,297.93-34.76,299.48-34.59Z" transform="translate(196 174.25)"/><path class="cls-145" d="M325.57-10.37a194.34,194.34,0,0,0-20.33-20.25,20.07,20.07,0,0,1-4.76-5c-.1-.91.44-1.26,1.22-1.4,9,7.34,16.68,16.08,24.86,24.29a1,1,0,0,1,0,1.32Z" transform="translate(196 174.25)"/><path class="cls-146" d="M331.64-16.43c-7.55-6.27-13.94-13.73-21-20.46-1.54-1.46-2.78-3.39-5.18-3.63-.19-1.56.51-2.24,2.06-2.08a245.49,245.49,0,0,0,22,22.07c1.11,1,2.36,1.79,3.05,3.16Z" transform="translate(196 174.25)"/><path class="cls-147" d="M269.48-4.6a323,323,0,0,0,25.15,25.18c-.07.3-.14.6-.22.9l-.79.1c-1.67.7-2.88-.22-4-1.25-7.4-6.87-13.89-14.7-21.8-21A2.77,2.77,0,0,1,267-2.49C267.2-3.93,267.86-4.83,269.48-4.6Z" transform="translate(196 174.25)"/><path class="cls-148" d="M326.57-11.38a319.15,319.15,0,0,0-25.16-25.14c-.11-.78.21-1.12,1-1a319.15,319.15,0,0,1,25.16,25.14C327.24-12,326.91-11.71,326.57-11.38Z" transform="translate(196 174.25)"/><path class="cls-149" d="M452.51-62.48c.51-1.4,1.09-2.77,1.51-4.19a7.12,7.12,0,0,0,.22-2.31c-7.93-1.63.92-6.27-1.61-8.8a50.61,50.61,0,0,1,4.9,15.3h-1a3.19,3.19,0,0,1-2,1,3.19,3.19,0,0,1-2-1Z" transform="translate(196 174.25)"/><path class="cls-150" d="M454.6-62.12l2,.35a18.93,18.93,0,0,1,.82,8.05c-.17,1.13-.41,2.77-1.59,2.75-1.95,0-1-2-1.31-3.08C453.49-56.74,452.81-59.43,454.6-62.12Z" transform="translate(196 174.25)"/><path class="cls-56" d="M452.28-48.71c0,1.14-.45,1.92-1.65,2a1.61,1.61,0,0,1-1.84-1.76,1.56,1.56,0,0,1,1.4-1.7A1.66,1.66,0,0,1,452.28-48.71Z" transform="translate(196 174.25)"/><path class="cls-151" d="M454.52-62c0,2.65,0,5.3,0,8-2.47-2.2-1.92-5.15-2-8Z" transform="translate(196 174.25)"/><path class="cls-75" d="M-53.37-47.43l-1,1-125.11,0c-.53-1-.63-1.85.57-2.42,39.52-.18,79,0,118.54-.07a4.54,4.54,0,0,1,2.89.49Z" transform="translate(196 174.25)"/><path class="cls-152" d="M-183.47-56c1.72.3,2,1.56,2,3a55.53,55.53,0,0,1,0,23l-4-.28c-.48-6.6,1.36-13.19,0-19.79C-185.94-52.43-184.11-54-183.47-56Z" transform="translate(196 174.25)"/><path class="cls-56" d="M-181.48-30.48c0-7.66,0-15.33,0-22.52H-180v3.52c1.2.34,1.2.67,1,1v2a106.39,106.39,0,0,0-.48,12C-179.49-32.86-179.31-31.08-181.48-30.48Z" transform="translate(196 174.25)"/><path class="cls-153" d="M-193.29-46.5v-3.9c2.61.39,3,1.79,1.8,3.92h0Z" transform="translate(196 174.25)"/><path class="cls-154" d="M302.25,91.52l5.1,8.46c-1.45,2.53-3.8,2.68-6.17,2.69q-39.85.14-79.72,0c-1.65,0-3.34,0-4.76-1.09a3.82,3.82,0,0,1-1.12-1.43,3.43,3.43,0,0,1,.1-2.5A14.38,14.38,0,0,1,218,94.74a19.2,19.2,0,0,0,1.89-1.83,15,15,0,0,1,1.31-1.34,9.21,9.21,0,0,1,1.5-1.13,2.35,2.35,0,0,1,2.39,0c1.83,1.68,4.09,1.1,6.19,1.1Q266.77,91.55,302.25,91.52Z" transform="translate(196 174.25)"/><path class="cls-155" d="M262.55,52.58a34.92,34.92,0,0,1-7,7c-1.83.77-3.24-.16-4.45-1.29-6.82-6.42-13.21-13.3-20.37-19.37a5.62,5.62,0,0,1-1.91-3.39,10.45,10.45,0,0,1,8.56-8.67c4.12,1.28,6.74,4.66,9.83,7.3,4.65,4,8.79,8.49,13,12.88C261.73,48.52,263.49,50,262.55,52.58Z" transform="translate(196 174.25)"/><path class="cls-156" d="M229.52,35.44c9.41,7.26,17.12,16.34,26,24.11a39.41,39.41,0,0,1-6.95,7c-1.84.81-3.27-.12-4.47-1.27-6.81-6.51-13.54-13.12-20-20a5.74,5.74,0,0,1-1.62-3.56c-.09-2.3,1.81-3.47,2.89-5.12C226.62,35.55,227.84,34.68,229.52,35.44Z" transform="translate(196 174.25)"/><path class="cls-157" d="M223.52,41.43a314.9,314.9,0,0,0,25.1,25.13l-5,5.07a4.08,4.08,0,0,1-2.77-.91c-7.32-7.39-15-14.47-22.06-22.07a4,4,0,0,1-.93-2.27C218.38,43.18,219.79,41,223.52,41.43Z" transform="translate(196 174.25)"/><path class="cls-158" d="M262.55,52.58a178.11,178.11,0,0,0-19.61-19.43,26,26,0,0,1-5.46-5.66,1.64,1.64,0,0,1-.39-1.41,4.85,4.85,0,0,1,4.54-3.51,5.13,5.13,0,0,1,3.34,1.9q10,9.91,19.9,19.88c1.13,1.14,2.53,2.27,1.69,4.24Z" transform="translate(196 174.25)"/><path class="cls-159" d="M241.63,73.56l-3,3c-1.46.66-2.56,0-3.56-1-6.85-7-14-13.64-20.8-20.73-.94-1-1.75-2-1.57-3.51a3.26,3.26,0,0,1,2.49-2.62c2.8-.28,4.8,1.41,6.49,3.15,5.86,6.09,12.09,11.8,18,17.82A5.26,5.26,0,0,1,241.63,73.56Z" transform="translate(196 174.25)"/><path class="cls-160" d="M241.63,73.56A254.74,254.74,0,0,1,222,54.77c-1.88-2-4.35-3.54-6.55-5.29-.27-2.28.72-3.29,3-3A271.9,271.9,0,0,1,243.6,71.63Z" transform="translate(196 174.25)"/><path class="cls-161" d="M274.59,40.62l-2,2a5.71,5.71,0,0,1-4.4-1.89c-6.63-6.66-13.34-13.25-19.93-20a4.11,4.11,0,0,1-1.54-3.48,3.24,3.24,0,0,1,2.52-2.59c2.13-.3,3.38,1.18,4.63,2.47C260,23.51,266.28,29.72,272.5,36,273.74,37.23,275.46,38.37,274.59,40.62Z" transform="translate(196 174.25)"/><path class="cls-162" d="M247.49,17.41c7.79,9,16.49,17,25.08,25.22l-2,1.95c-1.46.65-2.59,0-3.56-1-7.16-7.12-14.36-14.21-21.41-21.44a3.26,3.26,0,0,1-.91-2.74C245.14,18,245.87,17.11,247.49,17.41Z" transform="translate(196 174.25)"/><path class="cls-163" d="M245.48,19.42a333.26,333.26,0,0,0,25.13,25.16l-2,2a4.09,4.09,0,0,1-3.49-1.52C258.06,38,251,31,244,24a3.2,3.2,0,0,1-1.23-2.59C243.16,20,243.89,19.11,245.48,19.42Z" transform="translate(196 174.25)"/><path class="cls-164" d="M213.49,51.4a311.1,311.1,0,0,0,25.14,25.18c-.67.67-1.34,1.33-2,2a2,2,0,0,1-2.33-.25c-7-7.43-15-13.89-21.93-21.46-.89-1-1.81-2-1.64-3.47C211.14,52,211.87,51.11,213.49,51.4Z" transform="translate(196 174.25)"/><path class="cls-165" d="M228.58,86.62l-1,1c-1.64.82-3.1,0-4.11-1-7.82-7.4-16-14.49-22.52-23.13A2.53,2.53,0,0,1,203.36,61,207.07,207.07,0,0,1,227.94,83.4,2.79,2.79,0,0,1,228.58,86.62Z" transform="translate(196 174.25)"/><path class="cls-166" d="M211.49,53.4a122,122,0,0,0,16,16.22c3.28,2.81,6,6,9.14,9l-2,2a5.41,5.41,0,0,1-3.43-1.84C224,71.59,216.83,64.5,209.82,57.22a3.08,3.08,0,0,1-.83-1.77C209.23,54,209.89,53.14,211.49,53.4Z" transform="translate(196 174.25)"/><path class="cls-167" d="M201.41,63.48c6.47,5.19,11.85,11.49,17.77,17.25a45.06,45.06,0,0,0,8.43,6.85l-2,2c-1.48.72-2.57-.07-3.54-1C215,81.58,208,74.48,201,67.37a3.16,3.16,0,0,1-1.08-2.67C200.1,63.93,200.5,63.38,201.41,63.48Z" transform="translate(196 174.25)"/><path class="cls-168" d="M243.49,21.42c7.85,8.9,16.39,17.12,25.08,25.19l-2,2a324.82,324.82,0,0,0-25.12-25.08c-.51-1,0-1.7.79-2.27A1.35,1.35,0,0,1,243.49,21.42Z" transform="translate(196 174.25)"/><path class="cls-169" d="M200.49,64.42a322.34,322.34,0,0,0,25.13,25.15c-.05.28-.1.56-.14.83l-1.89,1.23a2.81,2.81,0,0,1-1.43-.38C213.65,83.43,205,75.72,198,66.45,198.23,65.05,198.88,64.14,200.49,64.42Z" transform="translate(196 174.25)"/><path class="cls-170" d="M278.59,36.62c0,.29-.1.58-.16.86l-.81.1c-1.66.68-2.9-.18-4-1.24-6.9-6.86-13.88-13.62-20.52-20.73a3.59,3.59,0,0,1-1.27-3.08,2,2,0,0,1,1.5-1.46,5.48,5.48,0,0,1,3.57,1.53c7.29,6.66,14.23,13.68,21.05,20.83A2.73,2.73,0,0,1,278.59,36.62Z" transform="translate(196 174.25)"/><path class="cls-171" d="M274.59,40.62a321,321,0,0,0-25.18-25.13c-.13-.88.37-1.32,1.12-1.57,1.57-.19,2.34,1,3.3,1.89a322.08,322.08,0,0,1,22.8,22.76Z" transform="translate(196 174.25)"/><path class="cls-172" d="M232.63,82.57l-2,2.06a2.72,2.72,0,0,1-1.42-.41C221,76.5,212.67,68.93,205.3,60.41a1.56,1.56,0,0,1-.22-.95,1.89,1.89,0,0,1,1.35-1.57c2.91,0,4.88,2,6.75,3.72,6.37,5.79,12.24,12.1,18.19,18.32A4.55,4.55,0,0,1,232.63,82.57Z" transform="translate(196 174.25)"/><path class="cls-173" d="M209.41,55.48a321,321,0,0,1,25.17,25.14l-1,1c-7.26-5.24-13.26-11.84-19.49-18.16-2.13-2.17-5.5-3.29-6.17-6.79C208.12,55.91,208.51,55.37,209.41,55.48Z" transform="translate(196 174.25)"/><path class="cls-174" d="M208.49,56.41A161.13,161.13,0,0,0,226.4,74.13a35,35,0,0,1,7.18,7.5l-1,.94C226.9,78.05,222.15,72.51,217,67.41a75.69,75.69,0,0,0-10.57-8.93C206.24,56.92,206.93,56.23,208.49,56.41Z" transform="translate(196 174.25)"/><path class="cls-175" d="M228.58,86.62C222.69,79,214.84,73.34,208.1,66.56c-1.63-1.63-3.08-3.43-4.61-5.15-.11-.91.42-1.27,1.2-1.4,9.08,7.51,17,16.16,25.07,24.72.2.21.05.59-.17.89Z" transform="translate(196 174.25)"/><path class="cls-176" d="M276.63,38.57c-5.23-5-10.53-10-15.65-15.15a72.45,72.45,0,0,0-10.56-8.93c-.18-1.57.5-2.27,2.08-2.07a325.86,325.86,0,0,0,25.12,25.16Z" transform="translate(196 174.25)"/><path class="cls-177" d="M229.59,85.62a324.6,324.6,0,0,0-25.18-25.14.92.92,0,0,1,0-1.07.83.83,0,0,1,1,.07,321.12,321.12,0,0,1,25.17,25.15Z" transform="translate(196 174.25)"/><path class="cls-1" d="M-157.46-118.46c-.08-1.64.25-3.48-2-4l2.85-3.25c1.81,2.17,2.9.26,4.15-.72.76,1,2.21,1,3,2-1.13,2.14-3.34,3.55-4,6-1-1.27-2-.82-3,0Z" transform="translate(196 174.25)"/><path class="cls-178" d="M-191.48-46.48a6.48,6.48,0,0,0-1.8-3.92c.6-2.05.58-4.29,1.9-6.11l1.2-.86C-191.46-53.84-187.77-49.72-191.48-46.48Z" transform="translate(196 174.25)"/><path class="cls-179" d="M-94.46-166.32c2.52-1.2,5.06-2.36,8-2.2,1,.37,1.57.92,1,2h0c-1.42,1.24-2.46,3-4.61,3.22C-91.75-164-95.19-162.18-94.46-166.32Z" transform="translate(196 174.25)"/><path class="cls-180" d="M-94.46-166.32c.91,2.65,3.19,1.59,5,1.85a2,2,0,0,1,0,3l-8.81-2.94C-97.46-165.95-95.84-165.88-94.46-166.32Z" transform="translate(196 174.25)"/><path class="cls-181" d="M-167.47-108.48c.42,3.87-1.46,3.4-3.82,2,.12-1.87,2.2-1.81,3-3Z" transform="translate(196 174.25)"/><path class="cls-1" d="M-85.47-166.48l-1-2c.74-1.1,2-.83,3-1C-82.58-167.5-83.56-166.69-85.47-166.48Z" transform="translate(196 174.25)"/><path class="cls-182" d="M-189.57-65.64c.61,1.38,1.34,2.8-1.11,3.08C-190.36-63.6-190.77-64.91-189.57-65.64Z" transform="translate(196 174.25)"/><path class="cls-183" d="M367.52-164.34c-1.68,3.24-4.7,2-7,1.59s-4.54-1.45-6.94-2c-2.95-.68-2.65-2.51,0-3.77C358.55-168.1,363-166.24,367.52-164.34Z" transform="translate(196 174.25)"/><path class="cls-1" d="M398.53-144.48c-.32-1.34-.64-2.68-1-4l5.76,4.1Z" transform="translate(196 174.25)"/><path class="cls-184" d="M335.49-172.37c-.3,1.71-1.58,1.89-3,1.89.05-.62.1-1.24.16-1.85l2-.17A1.36,1.36,0,0,1,335.49-172.37Z" transform="translate(196 174.25)"/><path class="cls-185" d="M411.53,439.52c2-1.72,1.84-5.25,5-6,2-.34,1.83-2.08,2.35-3.42,2.52-6.52,5.17-7.12,10.78-2.46h0c-4.25,2.3-6.35,6.5-9,10.18-.76,1.8-2.29,2.82-3.84,3.81-4.54-.64-6.35,3.54-9.47,5.41-.88.53-1.3,2.29-2.71,1.18a3,3,0,0,1-.91-3.2C404.82,441.13,407.75,439.69,411.53,439.52Z" transform="translate(196 174.25)"/><path class="cls-186" d="M458.34,369.53h-1.82c-.9-4.63-4.64-8.86-2-14,.52-2.28,2.36-1.94,4-2,1.85,1.61.27,4.27,1.81,6Z" transform="translate(196 174.25)"/><path class="cls-187" d="M439.58,413.65l-1.05-1.13c2.26-3.1,2.31-3.15-.27-6-1.68-1.85.49-3.32.27-5,2.37.29,2.44,2.89,4,4a1.25,1.25,0,0,1,1.88,0A22.26,22.26,0,0,1,439.58,413.65Z" transform="translate(196 174.25)"/><path class="cls-86" d="M420.63,437.8c.4-4.43,4.81-9.41,9-10.18A41.39,41.39,0,0,1,420.63,437.8Z" transform="translate(196 174.25)"/><path class="cls-82" d="M392.53,457.52c0-2.17.7-3.77,3.16-4,1.37-.11,2.51-.49,2.84-2h1a2.53,2.53,0,0,1,0,4l-2.25,2C395.69,458.3,394.11,459,392.53,457.52Z" transform="translate(196 174.25)"/><path class="cls-188" d="M398.16,456.16c-1.13,3.79-4.65,4.15-7,6.15l-.63-.44c.34-1,.69-1.92,1-2.87l4.23-4.21Z" transform="translate(196 174.25)"/><path class="cls-189" d="M452.35,388.5c-1.62-1-2.42,1.14-3.82,1L448,389a2.93,2.93,0,0,1,.54-3.48c1.27.88,3.21-.36,4.23,1.34Z" transform="translate(196 174.25)"/><path class="cls-190" d="M460.32,359.52c-2.91-1.3-1.39-3.94-1.81-6h2C460.43,355.53,460.38,357.52,460.32,359.52Z" transform="translate(196 174.25)"/><path class="cls-104" d="M444.42,405.49l-1.88,0c.27-1.08-.63-2.84,1.13-3,1-.1.76,1.45,1,2.3A.63.63,0,0,1,444.42,405.49Z" transform="translate(196 174.25)"/><path class="cls-87" d="M399.52,455.55c0-.69,0-1.37,0-2.05a2.06,2.06,0,0,1,2.8-.15l.31.3C401.92,454.8,401.08,455.77,399.52,455.55Z" transform="translate(196 174.25)"/><path class="cls-86" d="M-180.48,385.52c.25.67.71,1.34,0,2-1,1.54-1.76,3.55-4.23,2.08-.86-.44-.86-1.23-.84-2a2.86,2.86,0,0,0,1.06-2.4,3,3,0,0,1-1,2.45c-1.95-3.11-2.58-6.69-3.65-10.11.87-1.08,2-2.2-.39-2.83l-1.59-4.22c2.89-1.28,2.9-3.61,2.42-6.24-.66-3.55-1.16-7.13-1.73-10.7a2.12,2.12,0,0,1,3,0h0c2.37,1.84.8,5.25,2.89,7.21a4,4,0,0,1,.49,1.42c.12,2.81.37,5.62-.38,8.38C-181.71,375.15-181.9,380.55-180.48,385.52Z" transform="translate(196 174.25)"/><path class="cls-191" d="M-184.71,389.61c1.71-.09,2.85-1.33,4.23-2.08.4,2.61,2.79,6.16-2.79,6Z" transform="translate(196 174.25)"/><path class="cls-192" d="M-189.57,374.69c1.24-1.12,2.66-1.7,3.64.05a3.71,3.71,0,0,1,.13,3.24c-1.08,1.57-2.16-.73-3.38-.46Z" transform="translate(196 174.25)"/><path class="cls-86" d="M-191.47,357.52c0,2.86-.05,5.71-.07,8.57a17.27,17.27,0,0,1-1.81-8.59A1.24,1.24,0,0,1-191.47,357.52Z" transform="translate(196 174.25)"/><path class="cls-193" d="M-191.47,357.52l-1.88,0c-.08-1.29-.16-2.58-.23-3.87C-191.14,354-191.58,355.9-191.47,357.52Z" transform="translate(196 174.25)"/><path class="cls-82" d="M423.92,343.52c-8,0-15.94.05-23.9-.07-.75,0-2.42,1.25-2.45-.92,0-1.46.46-2.65,2.1-2.88a17.24,17.24,0,0,1,2.49-.12c15.27,0,30.54,0,45.81,0,1.49,0,3.93-.73,4,1.64.09,2.54-2.39,2.28-4.16,2.29C439.85,343.54,431.89,343.52,423.92,343.52Z" transform="translate(196 174.25)"/><path class="cls-194" d="M454.52,355.53c1.26,4.58,2.73,9.13,2,14-4.1-2.07-3.08-7.22-6-10-1.28-1.34-1.7-2.8-.64-4.48l.65-.51C452.05,354.11,453.45,354.15,454.52,355.53Z" transform="translate(196 174.25)"/><path class="cls-82" d="M446.53,354.52c.18-1.44,0-3.06.65-4.27.8-1.53,2.32-3.7,4-3,2.72,1.11-.6,2.46-.51,3.86a30.33,30.33,0,0,1-.16,3.42h0a2.86,2.86,0,0,1-4,0Z" transform="translate(196 174.25)"/><path class="cls-82" d="M-166.92,343.52c-5.64,0-11.29,0-16.94,0-1.32,0-2.84.1-3.3-1.56s.48-2.91,1.83-3.73c1.56-1,2.42-.09,3.05,1.34.46,1.05,1.22,1.16,2.42.91,9.69-2,19.5-.48,29.24-.9,2-.09,3.27.89,3.08,3s-2,.91-2.93.94C-155.95,343.59-161.43,343.52-166.92,343.52Z" transform="translate(196 174.25)"/><path class="cls-86" d="M-181,363.52c-.42,2.08,1.16,4.82-2,6-2.25-2.27.18-5.72-2-8h0a7.83,7.83,0,0,1,0-8v-7.12c4.42,1.18,1.91,5.32,4,7.12A11.48,11.48,0,0,1-181,363.52Z" transform="translate(196 174.25)"/><path class="cls-195" d="M-181.47,363.52q0-5,0-10c.26-2.33-.58-4.78.95-7.61,1.19,2.28,2.39,4.23,5.06,3.6C-178.77,353.63-178.73,359.17-181.47,363.52Z" transform="translate(196 174.25)"/><path class="cls-196" d="M-187.48,354h-3c0-4.54,0-4.54,2.41-7.25C-187,349.27-187.66,351.69-187.48,354Z" transform="translate(196 174.25)"/><path class="cls-197" d="M-185.48,353.53c0,2.67,0,5.33,0,8-3.64-1.93-1.32-5.35-2-8Z" transform="translate(196 174.25)"/><path class="cls-198" d="M281.63,33.58l-1,1c-1.73.71-2.86-.36-3.89-1.41-7.54-7.57-15.25-15-22.63-22.7A2.36,2.36,0,0,1,256.32,8c1.86.12,2.89,1.54,4.05,2.69,6.16,6.09,12.25,12.25,18.36,18.39C280,30.34,281.46,31.56,281.63,33.58Z" transform="translate(196 174.25)"/><path class="cls-199" d="M284.58,30.61l-1,1c-3.79-.9-5.86-4.23-8.58-6.48-5.72-4.73-10.69-10.33-15.92-15.63a3.41,3.41,0,0,1-1.22-3.1,2.31,2.31,0,0,1,1.48-1.53C261.5,4.48,262.7,6,264,7.25c6.43,6.23,12.45,12.85,18.87,19.09C284,27.47,285.41,28.62,284.58,30.61Z" transform="translate(196 174.25)"/><path class="cls-200" d="M292.63,22.58l-2.06,2c-.33,0-.74,0-1-.21-8.83-7.65-17.5-15.47-24.53-24.9A1.69,1.69,0,0,1,266.43-2c5.2,3,9.23,7.35,13.45,11.45C284.25,13.71,288.83,17.78,292.63,22.58Z" transform="translate(196 174.25)"/><path class="cls-201" d="M284.58,30.61A324.09,324.09,0,0,0,259.42,5.49c-.14-.89.37-1.33,1.12-1.6a2.61,2.61,0,0,1,2.3.64c7.28,7.16,15.55,13.28,22.31,21a5.39,5.39,0,0,1,1.48,3.06Z" transform="translate(196 174.25)"/><path class="cls-202" d="M289.57,25.61l-1,1C283,24.16,279.88,18.69,275,15.3c-3.64-2.53-6.62-6-9.68-9.24-1.21-1.3-2.77-2.47-2.47-4.61A2,2,0,0,1,264.35,0c1.87.13,2.78,1.66,3.92,2.79,6.34,6.27,12.66,12.56,18.9,18.94C288.21,22.8,290.14,23.48,289.57,25.61Z" transform="translate(196 174.25)"/><path class="cls-203" d="M263.48,1.41c5.26,6.63,11.75,12,18,17.63,2.56,2.31,4.75,5,7.1,7.58l-.95,1c-.94.56-1.57-.09-2.12-.65-7.23-7.49-15.06-14.34-22.33-21.79a3.1,3.1,0,0,1-1.25-2.57C262.16,1.8,262.59,1.29,263.48,1.41Z" transform="translate(196 174.25)"/><path class="cls-204" d="M262.48,2.41a328,328,0,0,0,25.14,25.17l-1,1Q275.59,18.31,264.54,8c-1.33-1.23-2.74-2.37-4.11-3.55C260.22,2.92,260.93,2.25,262.48,2.41Z" transform="translate(196 174.25)"/><path class="cls-205" d="M258.49,6.42a160,160,0,0,0,18.19,18.16,35.67,35.67,0,0,1,6.9,7l-1,1c-1.21.63-1.84-.36-2.49-1-7.44-7.38-14.89-14.76-22.23-22.24A3.12,3.12,0,0,1,257,7.58C257.19,6.8,257.59,6.29,258.49,6.42Z" transform="translate(196 174.25)"/><path class="cls-206" d="M292.63,22.58C284.9,16.13,278.54,8.2,270.55,2c-1.43-1.1-2.75-2.35-4.13-3.53-.12-.79.2-1.14,1-1,8.33,5.56,14.52,13.42,21.75,20.17,1.44,1.35,3,2.62,4.44,3.92Z" transform="translate(196 174.25)"/><path class="cls-207" d="M254.42,10.49c7.18,5.89,13.23,13,19.9,19.36,1.92,1.84,3.77,3.72,6.3,4.73l-2,2c-7.83-8.94-16.51-17-25.09-25.2C253.34,10.64,253.65,10.33,254.42,10.49Z" transform="translate(196 174.25)"/><path class="cls-208" d="M289.57,25.61A320.61,320.61,0,0,0,264.41.49c-.11-.79.2-1.14,1-1A322.08,322.08,0,0,1,290.57,24.6Z" transform="translate(196 174.25)"/><path class="cls-209" d="M257.49,7.42a327.77,327.77,0,0,0,25.13,25.16l-1,1A324.35,324.35,0,0,1,256.49,8.42C256.35,7.62,256.7,7.3,257.49,7.42Z" transform="translate(196 174.25)"/><path class="cls-210" d="M257.49,7.42c-.34.33-.67.67-1,1l-2.06,2.07-.93.93c-.34.33-.67.67-1,1l-2.08,2.07-1,1-1.92,1.92-2,2c-.67.67-1.34,1.33-2,2-.3,0-.59.1-.89.13a15.87,15.87,0,0,1-8.61,2q-133.47-.07-266.93,0c-2.6,0-5.44.61-7.37-2,0-8.65-.27-17.3-.12-25.95.15-8.34,7.51-15,16.26-15q68.64,0,137.3,0,53.16,0,106.34,0c14,0,23.64-12.45,17.22-27q33.35,0,66.69,0c2.1,0,4.36-.58,6.19,1.08-.38.62-.77,1.24-1.16,1.85l-.93.92-2.06,2.08-1,1-1,1-1,1-1,1-.93.93c-.33.33-.67.66-1,1l-2.06,2.07-.94.93-2.07,2.07-2,2-2,2-2,2-1.94,1.93-4.07,4.07-1.92,1.92-2,2-2,2c-.69.7-1.38,1.39-2.06,2.09l-1,1-2,2-.94.91-1,1-2.05,2.09-1,1-1,1-1,1-.93.92c-.33.33-.67.66-1,1-.69.69-1.37,1.39-2.05,2.08l-1,1-.93.93C258.15,6.75,257.82,7.08,257.49,7.42Z" transform="translate(196 174.25)"/><path class="cls-27" d="M-179-48v-1q57.87,0,115.75,0c2.11,0,4.36-.56,6.25,1Z" transform="translate(196 174.25)"/><path class="cls-1" d="M-89.15-162.76c-.07-4.14,2.19-3.63,4.15-3.71v2l1,2c-.91,2.58-2.43,2.06-4,1.41Z" transform="translate(196 174.25)"/><path class="cls-211" d="M-156.46-118c1-1,.07-2.87,1.54-3.72,1.51.57,1.42,1.7,1.4,2.79l-.95.93Z" transform="translate(196 174.25)"/><path class="cls-211" d="M-143.47-132.47c1.31-2.78,2.64-2.82,4,0Z" transform="translate(196 174.25)"/><path class="cls-212" d="M-145.5-132.44c0,1.32,0,2.64,0,3.95C-148.29-129.79-148.28-131.11-145.5-132.44Z" transform="translate(196 174.25)"/><path class="cls-213" d="M-149.48-124.49c-1.44,0-2.7-.24-3-2C-151-126.47-149.75-126.24-149.48-124.49Z" transform="translate(196 174.25)"/><path class="cls-213" d="M-135.46-136.46l-1.33-1c.18-.22.33-.6.53-.63,1.26-.23,1.52.71,1.78,1.62Z" transform="translate(196 174.25)"/><path class="cls-1" d="M-134.47-132.47a2.16,2.16,0,0,1-2,2C-137.23-132.59-135.75-132.42-134.47-132.47Z" transform="translate(196 174.25)"/><path class="cls-214" d="M-143.42-138.45c1,.16,2.32-.4,3,.75.35.53-.19.87-.68,1-1.39.31-2.06-.47-2.39-1.69Z" transform="translate(196 174.25)"/><path class="cls-215" d="M-117.47-146.48c-.26,1.77-1.54,2-3,2C-120.17-146.24-118.88-146.45-117.47-146.48Z" transform="translate(196 174.25)"/><path class="cls-189" d="M448.53,389.52a2.77,2.77,0,0,1,0,.5c-.37,1.78,1,4.09-1.58,5.23-.83.36-1.65.67-2-.39-.79-2.15.14-3.86,1.64-5.35a1.33,1.33,0,0,1,2,0Z" transform="translate(196 174.25)"/><path class="cls-216" d="M446.53,355h4l.45,4.93C446.57,360.64,446.33,358,446.53,355Z" transform="translate(196 174.25)"/><path class="cls-217" d="M-185.48,361.52c3.64,1.92,1.31,5.34,2,8-.35.33-.69.67-1,1C-186,367.66-185.31,364.54-185.48,361.52Z" transform="translate(196 174.25)"/><path class="cls-218" d="M-171.48,401.53c-.94,1.81-1.87,3.62-2.84,5.47-2.63-1.64-.81-3.73-1.15-5.47Z" transform="translate(196 174.25)"/><path class="cls-219" d="M445.45,376c1.39,1.81,1.31,3.19.14,5.06C444.21,379.26,444.34,377.88,445.45,376Z" transform="translate(196 174.25)"/><path class="cls-220" d="M446.51,373.52c-2.76-1.34-2.79-2.68,0-4A2.86,2.86,0,0,1,446.51,373.52Z" transform="translate(196 174.25)"/><path class="cls-221" d="M446.51,373.52c0-1.33,0-2.66,0-4C449.33,370.87,449.31,372.2,446.51,373.52Z" transform="translate(196 174.25)"/><path class="cls-222" d="M448.52,389.51h-2c.05-1.62-.33-3.45,2-4C448.51,386.86,448.51,388.19,448.52,389.51Z" transform="translate(196 174.25)"/><path class="cls-223" d="M432.66,423.64c-1.67-.47-2.43-1.43-1.61-3.48,1.58.78,1.06,2.42,1.59,3.49Z" transform="translate(196 174.25)"/><path class="cls-224" d="M402.34,453.35l-2.8.15c0-.66,0-1.32,0-2C400.82,451.58,402.17,451.56,402.34,453.35Z" transform="translate(196 174.25)"/><path class="cls-96" d="M-119,457.52h-2c-1.66-2.34-4.64-3.36-6-6,3-.85,5.19,1.9,8,2Z" transform="translate(196 174.25)"/><path class="cls-10" d="M307.36,320.52c.05,9.33.27,18.66.12,28-.14,8.5-7.34,15-16.27,15q-38.49,0-77,0c-79,0-157.93-.12-236.89.16-10.15,0-18.68-7.67-17.93-18.18.59-8.29.22-16.65.27-25,1.22-1.62,2.93-2,4.85-2.11s4-.1,6-.1q163,0,326,.06C300.19,318.37,304.29,317.1,307.36,320.52Z" transform="translate(196 174.25)"/><path class="cls-9" d="M308,321H-40V280a4.23,4.23,0,0,1,3.55-1.49c.83,0,1.67,0,2.5,0,111.53.16,223.05-.88,334.58-.49,2.61,0,5.44-.6,7.37,2Z" transform="translate(196 174.25)"/><path class="cls-225" d="M308,149.51v36a5.78,5.78,0,0,1-4.84,2.12c-2,.06-4,.08-6,.09-94.8.41-189.59.27-284.38.29-15.15,0-30.29-.47-45.44-.34-2.61,0-5.43.38-7.34-2.16v-36a5.78,5.78,0,0,1,4.85-2.12q3-.09,6-.09,163.16,0,326.3,0C300.82,147.36,304.93,146.08,308,149.51Z" transform="translate(196 174.25)"/><path class="cls-226" d="M-40,253.54v-28c1.34-1.81,3.28-2.14,5.33-2.12,12.13.08,24.27-.64,36.38.43,2.63.23,4.87-.87,7.31-1.26,14,1.43,28,.68,41.93.7q80,.15,160,.05a89.23,89.23,0,0,0,11-.49c7.86,2.82,16,2.17,24.16,2.18,18.45,0,36.9,0,55.36,0,2.27,0,4.72-.52,6.57,1.48v27c-2.2,2.21-5,1.46-7.6,1.46q-72.57.08-145.13,0-93.84,0-187.67,0C-35,255-37.8,255.75-40,253.54Z" transform="translate(196 174.25)"/><path class="cls-227" d="M308,150H-40V126c2.2-2.21,5-1.47,7.6-1.47q72.82-.06,145.63,0,93.59,0,187.17,0c2.58,0,5.4-.74,7.6,1.47Z" transform="translate(196 174.25)"/><path class="cls-11" d="M-40,275.53v-21c1.73-.94,3.6-.47,5.4-.47q168.6,0,337.2,0c1.8,0,3.67-.47,5.4.47v21c-1.93,2.6-4.77,2-7.37,2q-52.28,0-104.54,0-43.28,0-86.53,0a38.08,38.08,0,0,0-7.47.47c-44.82-2.16-89.66-.38-134.49-1C-35,277-37.81,277.75-40,275.53Z" transform="translate(196 174.25)"/><path class="cls-228" d="M204.93,59.57c-.06.31-.14.61-.21.91l-.92.93-2.08,2.07-.92.94-2.07,2a3.44,3.44,0,0,1-.22,1.82,5.74,5.74,0,0,1-1.11,1.48c-.59.58-1.07,1.25-1.68,1.8A12.23,12.23,0,0,0,194,73.29a12,12,0,0,1-1.28,1.29A12.13,12.13,0,0,0,191,76.23c-.38.44-.81.84-1.21,1.27s-.82.83-1.26,1.21a11.7,11.7,0,0,0-1.65,1.65c-.41.44-.82.87-1.24,1.3a18.77,18.77,0,0,0-2.15,2.22,28.42,28.42,0,0,1-3.73,3.71c-1,1-2,2-3,3A9.45,9.45,0,0,1,174.82,92a3.64,3.64,0,0,1-2.5.4c-13.89.51-27.78.3-41.68.07-8.73-7.44-19.24-6.91-29.75-6.85q-35.64.21-71.29,0c-11.46,0-23-.94-32.81,6.89-10,.2-20,.22-29.95.12-2.48,0-5.08.23-6.84-2.15v-32a5.75,5.75,0,0,1,4.85-2.11q2.74-.09,5.49-.09H193.8c2.17,0,4.34,0,6.5.16S204.22,57.3,204.93,59.57Z" transform="translate(196 174.25)"/><path class="cls-229" d="M-40,90.51q15.2,0,30.4,0c2.15,0,4.34-.21,6.3,1,1.1,1.4.44,2.82.11,4.28C-6,108.18-.91,116,11.35,118a27.35,27.35,0,0,0,4.52.34q47.12,0,94.23,0c1.34,0,2.67,0,4-.07,14.24-1,20-9,16.82-23-.3-1.32-.72-2.59.24-3.8a9.73,9.73,0,0,1,5.27-1q16.09,0,32.17,0a9.6,9.6,0,0,1,5.27,1,1.22,1.22,0,0,1,.67.89,3.39,3.39,0,0,1-.35,1.69,9.59,9.59,0,0,0-.94,2,6.27,6.27,0,0,0-.63,2.15,21.36,21.36,0,0,0,0,2.4c0,.63,0,1.26,0,1.89s0,1.28,0,1.92a10.27,10.27,0,0,0,1,3.75,14.51,14.51,0,0,0,8.74,8.83,7.11,7.11,0,0,0,3.59,1c1,0,1.91.5,2.9.58a5.83,5.83,0,0,0,2.18-.46c.74-.16,1.49-.13,2.22-.3.52-.19,1-.46,1.52-.67a10.14,10.14,0,0,0,2-1,5.86,5.86,0,0,0,1.43-.88c.45-.36.87-.76,1.32-1.12a11.73,11.73,0,0,0,1.67-1.71,17,17,0,0,1,2.2-2.21c1.33-1.65,3-2.92,4.51-4.45a11.85,11.85,0,0,1,1.3-1.35,14.06,14.06,0,0,0,1.75-1.7,16.08,16.08,0,0,1,1.28-1.33c.46-.43.9-.87,1.4-1.26A6.08,6.08,0,0,1,215.83,99a2,2,0,0,1,1.21.41c1.83,1.67,4.09,1.09,6.2,1.09q42.38.06,84.76,0v24c-1.73.94-3.6.48-5.4.48q-168.6,0-337.2,0c-1.8,0-3.67.46-5.4-.48Z" transform="translate(196 174.25)"/><path class="cls-230" d="M204.93,59.57c-2.46-1.38-5.17-1-7.81-1H-40v-21a5.76,5.76,0,0,1,4.84-2.11c1.83-.06,3.66-.1,5.5-.1q123.18,0,246.36.07c3.48,0,7.44-1.28,10.26,2.18l-3.13,3.87-5.11,5-3,3-1.92,1.92c-.66.67-1.33,1.34-2,2l-2.07,2.08-.93.93-2.07,2.07-1,1Z" transform="translate(196 174.25)"/><path class="cls-5" d="M8.88,224.71c-1.79,1.22-3.83.81-5.78.82q-21.55,0-43.1,0v-40c116,2,232,.74,348,0v40c-1.38.87-2.93.48-4.39.48q-35.49,0-71,0c-1.77,0-3.7.54-5.24-.93-1.37-2.6.84-3.71,2.34-4.64,6.77-4.23,8.31-12.94,6.47-18.49-2.51-7.6-8.44-10.44-15.83-11.19a23.16,23.16,0,0,0-2.36-.1H18.43c-3.84,0-7.68,0-11.38,1.22-5.81,2-9.95,5.6-10.79,11.89-.94,6.95.86,12.91,7.32,16.75C5.53,221.67,8.1,222.06,8.88,224.71Z" transform="translate(196 174.25)"/><path class="cls-13" d="M227,37.56l-267,0v-12c1.63-2.23,4-2,6.36-2H-1.17q115.91,0,231.81.06c2.69,0,6.27-1.29,7.29,3.06a6.27,6.27,0,0,1-.14.85A46.36,46.36,0,0,0,229,36.54Z" transform="translate(196 174.25)"/><path class="cls-11" d="M102,277c2.48-1.37,5.2-1,7.85-1q99.09,0,198.18,0v4H-39.13l-1-2.93c1.41-.95,3-.55,4.49-.55q66.6,0,133.2,0C99.05,276.52,100.58,276.14,102,277Z" transform="translate(196 174.25)"/><path class="cls-230" d="M241.68,23.62l-5.53,2.05c-1.58-.46-3.31-.12-4.94-.12q-135.6,0-271.21,0v-4l282.91,0Z" transform="translate(196 174.25)"/><path class="cls-154" d="M-40,125H308v1H-40Z" transform="translate(196 174.25)"/><path class="cls-11" d="M308,255H-40v-1H308Z" transform="translate(196 174.25)"/><path class="cls-11" d="M101.83,277H-40v-1q67.8,0,135.59,0C97.7,276,100,275.46,101.83,277Z" transform="translate(196 174.25)"/><path class="cls-7" d="M226.05,224.48c2.3,1.27,4.82,1,7.3,1H307v1q-37.33,0-74.67,0a30.26,30.26,0,0,1-11.16-1.85C222.72,222.88,224.35,222.89,226.05,224.48Z" transform="translate(196 174.25)"/><path class="cls-231" d="M192.42,72.47c.68-.69,1.37-1.37,2.06-2,3.46.51,4.84,3.77,7.31,5.59,6.28,4.62,11.23,10.67,16.78,16.09,1,1,1.7,2.05,1,3.53-.67.67-1.34,1.33-2,2a4.9,4.9,0,0,1-3-1.57Q204.27,85.79,194,75.46A4.91,4.91,0,0,1,192.42,72.47Z" transform="translate(196 174.25)"/><path class="cls-232" d="M219.59,95.63A162.21,162.21,0,0,0,201,77.17a30.39,30.39,0,0,1-6.5-6.75l2-2c.61.28,0-.31.48.1a140,140,0,0,1,24.68,25C221,94.25,220.27,94.94,219.59,95.63Z" transform="translate(196 174.25)"/><path class="cls-233" d="M192.42,72.47a328.3,328.3,0,0,1,25.17,25.16l-1,.94c-2.15.85-3.41-.65-4.68-1.88-6.38-6.22-12.52-12.68-18.78-19-1.14-1.15-2.54-2.28-1.69-4.25Z" transform="translate(196 174.25)"/><path class="cls-234" d="M221.64,93.57a322.72,322.72,0,0,1-25.16-25.15l1-1c8.43,5.94,15,13.88,22.35,21,1.16,1.13,3.28,1.88,2.76,4.21Z" transform="translate(196 174.25)"/><path class="cls-235" d="M191.48,73.43a326,326,0,0,0,25.15,25.14q-.09.42-.15.84c-.28.06-.57.12-.86.16-1.47.7-2.6,0-3.52-1-6.38-6.93-13.89-12.65-20.52-19.31a6.14,6.14,0,0,1-2.17-3.78Z" transform="translate(196 174.25)"/><path class="cls-236" d="M222.59,92.63a175.07,175.07,0,0,0-19.68-19.5,23.39,23.39,0,0,1-5.43-5.71l.94-1a328.3,328.3,0,0,1,25.17,25.16C223.25,92,222.92,92.3,222.59,92.63Z" transform="translate(196 174.25)"/><path class="cls-237" d="M-185.53,387.63c.32-1.7-.48-3.56,1.43-6,.61,2.81,1.49,4.68-1.45,5.93Z" transform="translate(196 174.25)"/><path class="cls-238" d="M111.07,355.78c1.71-1.85,3.48-1.21,5-1.22,11.15-.07,22.3-.11,33.46,0,1.86,0,5.33-1.37,5.23,1.65-.07,2.12-2.85,4.64-5.65,4.76-8.78.36-17.57.37-26.35.51a4.7,4.7,0,0,1-3.73-1.12A14.3,14.3,0,0,0,111.07,355.78Z" transform="translate(196 174.25)"/><path class="cls-115" d="M226.41,224.48l-4.88.21c-1.83,1-3.82.84-5.8.84q-99.48,0-198.95.09c-2.86,0-5.44-1.29-8.25-.93-11.17-2.29-15.79-8.92-15-21.51.45-7.26,8.93-14.2,17.88-14.65.83,0,1.67,0,2.5,0q102.2,0,204.37,0c12.15,0,21.68,7.71,20.24,20.87C237.69,216.93,233.11,221.57,226.41,224.48Z" transform="translate(196 174.25)"/><path class="cls-115" d="M130.69,91.52c4.3,6.15,4.56,12.57,1.19,19.16-3.64,7.11-10.18,9.71-17.49,9.75-33.91.2-67.83.43-101.73-.07C-1.22,120.16-8,111.5-6.47,97.11c.24-2.25,2.05-3.65,2.83-5.59,4.22-5.81,10.4-7.89,17.08-7.92q50.1-.25,100.2,0C120.41,83.59,126.48,85.72,130.69,91.52Z" transform="translate(196 174.25)"/><path class="cls-239" d="M208.63,106.57l-5,5.06c-1.86.06-3-1.11-4.25-2.28-6-5.72-11.87-11.58-18-17.13-1.65-1.48-3.88-2.91-2.82-5.81l3.94-3.94a2.85,2.85,0,0,1,3.54.93C193,91,201.11,97.56,208.17,105.17A2.62,2.62,0,0,1,208.63,106.57Z" transform="translate(196 174.25)"/><path class="cls-240" d="M178.48,86.41c6.24,6.1,12.51,12.16,18.7,18.31,2.23,2.2,4.27,4.6,6.4,6.91l-2,2a2.59,2.59,0,0,1-3.15-.69c-7-7.19-15.28-13.08-21.81-20.78a4.92,4.92,0,0,1-1.25-2.64Z" transform="translate(196 174.25)"/><path class="cls-241" d="M208.63,106.57c-5.08-3.42-9.11-8-13.63-12.1-4.31-3.87-7.89-8.52-12.58-12l2-2c1.91-.76,3.15.41,4.3,1.6,6.29,6.54,12.81,12.85,19.18,19.31,1.13,1.15,2.53,2.28,1.68,4.25Z" transform="translate(196 174.25)"/><path class="cls-242" d="M209.58,105.63a324.6,324.6,0,0,0-25.16-25.16l1-1c2-.81,3.7.3,5,1.47A276.5,276.5,0,0,1,211,101.71a3.65,3.65,0,0,1,.65,1.85Z" transform="translate(196 174.25)"/><path class="cls-243" d="M213.58,101.63l-1,1c-5.3-2.72-8.68-7.61-12.93-11.51-3.78-3.48-7.09-7.46-11.09-10.73-.94-.76-1.71-1.62-1.08-3l.94-1c1.21-.63,1.84.34,2.48,1,6.91,6.9,14.27,13.34,21,20.44C212.85,98.93,214.36,99.78,213.58,101.63Z" transform="translate(196 174.25)"/><path class="cls-244" d="M175.42,89.47Q186.48,99.74,197.53,110c1.33,1.23,2.73,2.38,4.1,3.57l-2,2c-1.82-.16-2.88-1.49-4.07-2.62-5.38-5.09-10.3-10.64-16.25-15.16-2.31-1.76-5.27-3.64-4.78-7.43Z" transform="translate(196 174.25)"/><path class="cls-245" d="M174.48,90.42c5.72,7.34,13.8,12.28,19.8,19.34,1.7,2,3.53,3.92,5.3,5.87l-1,1c-1.7.62-2.89-.41-3.92-1.42-6.88-6.71-13.7-13.48-20.34-20.43a4.11,4.11,0,0,1-1-2.25,1.28,1.28,0,0,0,0-1Z" transform="translate(196 174.25)"/><path class="cls-246" d="M213.58,101.63a324.6,324.6,0,0,0-25.16-25.16l1-1c7.52,6.69,15.14,13.26,22.12,20.53,1.25,1.3,2.73,2.38,4.09,3.57Z" transform="translate(196 174.25)"/><path class="cls-247" d="M187.48,77.42A242.53,242.53,0,0,0,209.9,99.77a38.22,38.22,0,0,1,2.68,2.86l-1,.93c-6.46-5.19-11.85-11.5-17.77-17.25a43.61,43.61,0,0,0-8.44-6.84Z" transform="translate(196 174.25)"/><path class="cls-248" d="M173.41,92.48c7.32,6.06,13.51,13.29,20.39,19.8,1.56,1.48,3.22,2.87,4.83,4.3-.33,1-1.21.91-2,1-2.29.58-3.69-.93-5.07-2.29-5.63-5.57-11.2-11.19-16.8-16.78-1.38-1.37-2.85-2.79-2.29-5.08Z" transform="translate(196 174.25)"/><path class="cls-249" d="M170.69,97.54c-.17-.83-.34-1.67.73-2.07,1.2-.58,1.84.34,2.51,1q9.87,9.77,19.65,19.65c.66.66,1.58,1.31,1,2.51-.16.55-.45.89-1.09.73a18.76,18.76,0,0,1-8.83-6C180.1,108,173.91,104.08,170.69,97.54Z" transform="translate(196 174.25)"/><path class="cls-250" d="M172.5,99l21.3,20.39-2.91.27c-7.3-5.84-15.52-10.72-20.07-19.43Z" transform="translate(196 174.25)"/><path class="cls-251" d="M194.58,118.63a278.1,278.1,0,0,0-23.16-23.16c.17-.78,0-1.74,1.05-2a300.84,300.84,0,0,0,24.16,24.15C196.32,118.65,195.36,118.46,194.58,118.63Z" transform="translate(196 174.25)"/><path class="cls-252" d="M171.6,101.15c6.31,6.28,13.8,11.33,19.28,18.48-.4,1.07-1.24.9-2.07.73-7.46-4.76-13.93-10.51-18.17-18.48Z" transform="translate(196 174.25)"/><path class="cls-253" d="M185.5,119.36c-1.37,0-2.91.89-4-.71-3.66-3-7.35-6-9.8-10.11-.89-1.19-1.52-2.44-1-4A47.34,47.34,0,0,1,185.5,119.36Z" transform="translate(196 174.25)"/><path class="cls-254" d="M185.81,119.36A173.81,173.81,0,0,0,171,104.56v-2q9.33,8.47,17.81,17.82C187.5,120.94,186.78,119.78,185.81,119.36Z" transform="translate(196 174.25)"/><path class="cls-255" d="M171.69,108.54c3.53,3.12,7.11,6.18,9.8,10.11C176.74,116.72,173,113.82,171.69,108.54Z" transform="translate(196 174.25)"/></svg>