<svg id="图层_1" data-name="图层 1" xmlns="http://www.w3.org/2000/svg" viewBox="0 0 500 500"><defs><style>.cls-1{fill:#c2c2cc;}.cls-2{fill:#f2f2f4;}.cls-3{fill:#e7e6eb;}.cls-4{fill:#eeedf3;}.cls-5{fill:#cbcbd5;}.cls-6{fill:#f9f9fb;}.cls-7{fill:#f0f0f2;}.cls-8{fill:#b1b1bd;}.cls-9{fill:#eae9ee;}.cls-10{fill:#ecebf0;}.cls-11{fill:#e5e4e9;}.cls-12{fill:#e3e2e7;}.cls-13{fill:#e8e7ec;}.cls-14{fill:#d1d1db;}.cls-15{fill:#dfdee4;}.cls-16{fill:#dadbe0;}.cls-17{fill:#c9c9d3;}.cls-18{fill:#d4d4de;}.cls-19{fill:#e0dfe5;}.cls-20{fill:#cdcdd7;}.cls-21{fill:#cfcfd9;}.cls-22{fill:#f3f3f5;}.cls-23{fill:#d2d2d4;}.cls-24{fill:#efeff1;}.cls-25{fill:#e2e2e2;}.cls-26{fill:#d6d7dd;}.cls-27{fill:#f6f6f8;}.cls-28{fill:#cacad0;}.cls-29{fill:#c5c5d1;}.cls-30{fill:#b3b2be;}.cls-31{fill:#bcbcc7;}.cls-32{fill:#ebeaef;}.cls-33{fill:#cecdd5;}.cls-34{fill:#b6b5c1;}.cls-35{fill:#bbbac6;}.cls-36{fill:#c8c8ce;}.cls-37{fill:#c2c1cc;}.cls-38{fill:#c5c3ce;}.cls-39{fill:#c7c7d1;}.cls-40{fill:#d9d9da;}.cls-41{fill:#e1e1e1;}.cls-42{fill:#e0e0e0;}.cls-43{fill:#d5d5d5;}.cls-44{fill:#c5c5ce;}.cls-45{fill:#c0c0cc;}.cls-46{fill:#bfbfca;}.cls-47{fill:#bfbfc9;}.cls-48{fill:#c9c9d2;}.cls-49{fill:#f4f4f6;}.cls-50{fill:#404040;}.cls-51{fill:#efeef3;}.cls-52{fill:#fbfbfb;}.cls-53{fill:#d9d9db;}.cls-54{fill:#dcddde;}.cls-55{fill:#d8d8d9;}.cls-56{fill:#dadadb;}.cls-57{fill:#dedee0;}.cls-58{fill:#d6d6d7;}.cls-59{fill:#dadada;}.cls-60{fill:#dcdcdc;}.cls-61{fill:#cacad4;}.cls-62{fill:#ccccd6;}.cls-63{fill:#f7f7f9;}.cls-64{fill:#dddedf;}.cls-65{fill:#ededf1;}.cls-66{fill:#f5f5f7;}.cls-67{fill:#afafbb;}.cls-68{fill:#b3b3bf;}.cls-69{fill:#e3e2ea;}.cls-70{fill:#d1d0da;}.cls-71{fill:#cacbd0;}.cls-72{fill:#cbcad3;}.cls-73{fill:#d4d3d9;}.cls-74{fill:#ceced3;}.cls-75{fill:#d3d4d8;}.cls-76{fill:#cfd0d4;}.cls-77{fill:#d7d6dc;}.cls-78{fill:#dcdbe3;}.cls-79{fill:#dddee3;}.cls-80{fill:#e0dfe7;}.cls-81{fill:#d7d8dd;}.cls-82{fill:#d9d8e0;}.cls-83{fill:#dcdcdd;}.cls-84{fill:#d9d9d9;}.cls-85{fill:#d2d2dc;}.cls-86{fill:#d5d6db;}.cls-87{fill:#e1e0e8;}.cls-88{fill:#cfcdd8;}.cls-89{fill:#dedfe3;}.cls-90{fill:#f3f2f5;}.cls-91{fill:#e6e6e8;}.cls-92{fill:#e3e3e7;}.cls-93{fill:#ececee;}.cls-94{fill:#e8e8ec;}.cls-95{fill:#fefefe;}.cls-96{fill:#dad9e1;}.cls-97{fill:#d0d0d8;}.cls-98{fill:#d1d1d7;}.cls-99{fill:#bfbfc8;}.cls-100{fill:#c2c2cb;}.cls-101{fill:#c0c0c8;}.cls-102{fill:#b8b8c4;}.cls-103{fill:#bfbfcb;}.cls-104{fill:#c7c7d3;}.cls-105{fill:#bbbbc7;}.cls-106{fill:#c4c4ce;}.cls-107{fill:#dddce4;}.cls-108{fill:#d4d3de;}.cls-109{fill:#c6c6d2;}.cls-110{fill:#d7d5e0;}.cls-111{fill:#dfdee6;}.cls-112{fill:#e6e5ea;}.cls-113{fill:#c9c9d5;}.cls-114{fill:#c8c8d4;}.cls-115{fill:#d0d0da;}.cls-116{fill:#d3d3dd;}.cls-117{fill:#dedde5;}.cls-118{fill:#e3e2e9;}.cls-119{fill:#d6d4df;}.cls-120{fill:#f9f9f9;}.cls-121{fill:#e0dfe4;}.cls-122{fill:#e8e7eb;}.cls-123{fill:#ebebed;}.cls-124{fill:#b5b5c1;}.cls-125{fill:#dbdbe0;}.cls-126{fill:#dfdfe3;}.cls-127{fill:#d6d6dd;}.cls-128{fill:#bdbdc9;}.cls-129{fill:#b9b8c5;}.cls-130{fill:#b2b2be;}.cls-131{fill:#e2e1e9;}.cls-132{fill:#d4d3dd;}.cls-133{fill:#dbdae2;}</style></defs><title>摄像头</title><path class="cls-1" d="M401,315v34a1.51,1.51,0,0,1-2.26-.17c.17-7.68-2.31-15-3.3-22.48-1.83-4.34-5.73-2-8.74-2.77,2.8,1,3.69,2.78,1.8,5-2,2.38-2.88,5.15-3.89,8-1.36,3.8-4.08,6-8.3,6-2,0-4,.05-6,.05H-56.53c-1.83,0-3.67-.08-5.5,0-4.49.13-7.45-2.19-8.56-6.23A30.72,30.72,0,0,0-75,327.56c.15-2.2-1.4-2.17-2.91-2.17-1.83,0-2.89.82-3.74,2.59a29.4,29.4,0,0,0-.42,25.33c0,1.91.47,4.18-2.7,3.9-2.24-3.59-4.1-7.34-4.56-11.63,0-5.77-.21-11.55.12-17.32a8.71,8.71,0,0,1,.33-1.69c1.15-5.71,1.39-11.48,4.08-17,2.86-5.91,3.93-7.11,10.62-4.68,1.79,2.6,3.57,5.18,6.73,6.34a2.64,2.64,0,0,1,1.56,1.2c2.56,6.35,8.05,5.05,13,5.05H369.8a12.16,12.16,0,0,0,9.62-3.92c5.15-5,10.67-9.14,13.23-16.15a3.39,3.39,0,0,1,3.8-1.84c2.82,2,1.9,5,1.93,7.67C398.44,307.36,398.41,311.45,401,315Z" transform="translate(99 99)"/><path class="cls-2" d="M401-21v4a19.27,19.27,0,0,1-12.22,3.53c-2.62,0-4.9.28-5.13,3.9-.19,2.8-2.71,3.72-5.12,3.87a188,188,0,0,1-24,0c-2.6-.16-5.09-1.17-5.28-4.3s-2.26-3-4.45-3.5c-14.76-3.18-29.72-2-44.61-2q-183.48-.1-367,0c-8.17,0-16.62-1.46-24,3.7-1.21-1-1.14-2.29-.61-3.62,3.74-5.76,9-7.15,15.78-7.14q199.92.27,399.84.13c3.33,0,6.66.06,10-.11a4.23,4.23,0,0,1,1.77.17c2.63,2.69,5.1,3.24,7.92,0,1.73-2,4.45-2,7-2q15.66-.06,31.32,0a7.24,7.24,0,0,1,2,.12c4.94,1.55,9.49,5.54,15.19,2.26C399.76-22.23,400.48-21.41,401-21Z" transform="translate(99 99)"/><path class="cls-3" d="M401,61V71c-.9.85-3.05,0-2.81,2.53.32,3.33-1.88,4.82-5,4.84-3.28,0-4.72,1.82-5.36,4.78-1.33,6.17-5.69,8.79-11.54,9.12a154.58,154.58,0,0,1-20,0c-5.64-.4-9.89-3-11.15-8.94-.68-3.23-2.32-5-5.75-5-3.22,0-4.54-2.16-5-5a1.93,1.93,0,0,0-1.58,2c-.46,6.89-2.82,7.09-8.91,7.09q-13.73,0-27.46,0c-2.49,0-5,.14-7.33-1.09-4.92-5-7-11.71-10.3-17.68a2,2,0,0,1,.73-2.62c2-1.46,4.37-1.5,6.69-1.51,16.64,0,33.27,0,49.9,0,4.63,0,8,1.24,9.57,6.14.93,3,3.45,5.17,4.34,8.3.54,1.9,2.55,1.83,4.25,1.77,8.15-.31,16.3-.34,24.45,0,2.75.12,4.26-.87,5-3.63,1-3.53,3.51-6.31,5.14-9.55C390.72,59,395.85,58.64,401,61Z" transform="translate(99 99)"/><path class="cls-4" d="M401,13V23c-2.71.48-3.64-1.8-5.11-3.27-2.84-2.86-6-2.52-7.51,1.09-1,2.45-2.9,4.61-3.24,7.24-.55,4.36-3.3,5.34-7,5.35q-11.72,0-23.45,0c-3.76,0-6.31-1.13-6.86-5.47-.34-2.76-2.31-5.1-3.4-7.7-1.16-2.77-4.38-3.09-6.66-1a7.62,7.62,0,0,0-2.47,3.7c-1.37,5.79-5.39,6.65-10.57,6.61-20-.17-39.91-.06-59.87-.08a103.66,103.66,0,0,0-12,.52c-2.17-.08-3.62-1.51-5.18-2.75C242.91,23.34,238,19.59,233,16c-1.36-1-4.1-2.45-.35-4.16a22.47,22.47,0,0,1,6-.47q49.58,0,99.14,0a25.73,25.73,0,0,1,5.94.42c3.74,1.5,6.43,4,7.27,8.09.54,2.6,2.12,3.61,4.54,3.65,7.44.12,14.88.2,22.32,0,2.19-.07,3.76-1,4.17-3.41.68-3.93,3.29-6.34,6.69-8.08C392.85,11.51,397.06,10.52,401,13Z" transform="translate(99 99)"/><path class="cls-5" d="M401,252v21a1.81,1.81,0,0,1-2.28-1.42c-.86-7-4.6-13.81-2.7-19.69-1.53,4.18-5,9.36-6,15.5-.18,1-.79,2.11-1.78,2.23-4.79.6-8.73,4.05-13.78,3.82a88.78,88.78,0,0,0-13.45.06c-5.83.65-10.47-2.86-15.82-3.73a2.86,2.86,0,0,1-2.15-2.52c-1-5.79-4.22-10.74-6.32-16.13a3.86,3.86,0,0,1-.24,2.42c-3.15,9-3.15,9-13.25,9-5.44-.06-10.91.51-16.32-.46-3.52-2.27-6.54-4.81-5.34-9.68,7.89-1.76,15.89-.68,23.83-.72,4.52,0,7.38-1.17,7.79-6,2-2.59,1.39-5.66,1.56-8.59a5.07,5.07,0,0,1,1-3.1c4.31-1,4.74,2.25,5.42,5,.45,1.85,0,4,2.33,5a13.34,13.34,0,0,0,6.72,1.57c10.79,0,21.58.09,32.37,0,5.72-.06,6.89-1.15,8.05-6.65a18.21,18.21,0,0,1,.4-1.95c.74-2.29,1.69-4.57,4.57-4.46,2.65.1,2.81,2.59,3.26,4.41C400.06,241.82,400.07,247,401,252Z" transform="translate(99 99)"/><path class="cls-2" d="M-91-12c4-4.6,9.1-5.1,14.87-5.09q200.73.18,401.47-.14c8.17,0,15.69,3.56,23.86,2.4,2-.29,3.62,1.37,2,3.61-2.53,3.43.59,4,2.37,4q13,.38,26,0c1.78-.06,4.87-.64,2.29-4.08-1.66-2.2,0-3.73,2.06-3.59,5.88.39,11.48-1,17.13-2.14v3a14.9,14.9,0,0,1-7.66,3.39c-5,.41-7.87,3.45-9.69,7.54a7.11,7.11,0,0,1-7,4.57c-6.66.15-13.33.12-20,0-3.42-.06-5.79-1.25-7.35-4.77-1.68-3.8-4.74-6.05-9.17-7.52-6.57-2.18-13-1.79-19.6-1.8q-63.74-.07-127.49,0-127.47,0-255,.05c-9.39,0-18.92-1.32-28.1,2A1.3,1.3,0,0,1-91-12Z" transform="translate(99 99)"/><path class="cls-6" d="M401-55v23c-3.14.2-4.09-2.1-4.14-4.39-.11-4.52-2.51-5.4-6.39-5.23-3.08.13-6.27.59-9.22-.9-1.22-.8-1.68-2.71-3.32-2.74-4.19-.09-6.33-2.94-8.49-5.87A20.51,20.51,0,0,1,366.62-54c-3.07-4.64-7.05-6.85-12.89-6.72-5.18.11-8.3-5-13-6.76-2.2-.81-4.15-2-6.58-1.55-4.62.76-9.29.6-14,.6H-9a68.68,68.68,0,0,1-17.33-1.76,2.4,2.4,0,0,1-1.38-2.29A2.8,2.8,0,0,1-25.39-75a13.09,13.09,0,0,1,6.31.25,8.43,8.43,0,0,1,1.68.82c2.1.78,4.29.52,6.44.52q167.81,0,335.61,0c2.14,0,4.34.3,6.39-.6,2.81-2.51,6-2.65,9.27-1.15,3.75,1.7,7.9,2.33,11.38,4.85,2.17,1.57,4.85,1.4,6.46-1.31,1.07-1.8,1.33-4.38,4.2-4.22,3,.18,6.5.62,8.07,3.2,3.61,6,10.36,5.32,15.39,8.17,1.7,1,3.14-.32,4.24-1.69a2.92,2.92,0,0,1,1.38-.38,3.16,3.16,0,0,1,1.83,1,24.44,24.44,0,0,0,3.37,4.09C398.56-59.63,399.66-57.23,401-55Z" transform="translate(99 99)"/><path class="cls-7" d="M-91-11c6.14-3.95,13-3,19.76-3H169.68c52,0,103.92.18,155.87-.24,6.33,0,12.05,1.76,18,2.59,3.71.51,5.85,4.8,7.18,8.24,1,2.53,2,3.45,4.54,3.43,7.5-.06,15,0,22.49,0,2.23,0,3.28-.77,4.35-3,2.21-4.64,4.44-9.86,11.33-9,2.68.32,4.6-2.86,7.52-1.95v3c-2.72,2.47-5.58,4.47-9.54,4.59C389-6.33,387-5,387.33-2a6.17,6.17,0,0,1-1.46,4.11c-.39.55-1.59,1.22-.39,1.93,3.89,2.34,1.65,4.17-.39,6.07a5.29,5.29,0,0,1-3.85.59c-9.86-2-19.7-2.52-29.51.26-1.9.54-3.24-.35-4.34-1.7A3.69,3.69,0,0,1,347,4.74C348.78,1.43,345.34-6,341.7-6.33a17,17,0,0,1-9-3.8c-2-.72-4-.44-6-.44q-202.41,0-404.83,0a32.18,32.18,0,0,0-5.47.21c-3,1.16-3.55,3.32-2.11,6a4.71,4.71,0,0,1-.9,6.25c-.92.92-1.86,1.88-1.11,3.46,1.38,2.88.57,5.84.13,8.78-.07,5.35-4.29,9.87-3.06,15.49-.35,5.29.32,10.76-2.61,15.62-3.87-3.38-2.65-8.19-3-12.34-.61-6.55-.15-13.18-.19-19.78.33-8-.67-16.13.67-24l2.2.1c.08,7.14,0,14.29.06,21.43,0-6.47-.05-12.92,0-19.38,0-2.45-2.18-5.21.84-7.33,2.19,1.14.6,3.16,1.09,4.68,0,5,.1,10,0,15,.22-4.62-.09-9.24.1-13.86Z" transform="translate(99 99)"/><path class="cls-8" d="M334,401H-25c-3.65-1.11-7.34-2.13-10.63-4.18-.79-1.45-1.18-2.82.73-3.75,2.29-.82,4.83-1.1,6.82.07,4.49,2.63,9.29,2.23,14.09,2.23q170.21,0,340.4,0c3.15,0,6.34-.36,9.43.61C340,399.42,335.47,399.65,334,401Z" transform="translate(99 99)"/><path class="cls-9" d="M401,37V53c-.28.19-.6.54-.85.48-9.19-2.1-11.34,4.26-13.43,11-1.73,5.51-2.49,5.76-8.3,5.38a149.46,149.46,0,0,0-24.4.1c-4.14.41-6.78-.59-7.65-5-.58-2.93-2.58-5.38-3-8.41s-2.82-2.93-5-3c-5.65-.13-11.3-.05-17-.05-12.13,0-24.27,0-36.4,0a48.39,48.39,0,0,1-12.35-1.36c-2.82-.94-4.4-3.27-5.91-5.55-1-1.42-2.07-3.18.32-4.52,2.08-.8,4.25-.67,6.4-.67q32.12,0,64.21,0c3.3,0,6.71-.27,9.37,2.35,2.91,2.77,2.23,6.42,2.33,9.86.16,5.6.16,5.22,5.52,4.5a78.49,78.49,0,0,1,23.85.15c4.43.77,4.71.82,4.87-3.8.12-3.31-.24-6.67.84-9.91a26.93,26.93,0,0,0,.18-3c0-3.89.81-7.32,5.18-8.57C394.38,31.7,398.09,33,401,37Z" transform="translate(99 99)"/><path class="cls-10" d="M252,29a27,27,0,0,1,8.35-1c22.31.05,44.63,0,66.94.07,3.36,0,5.28-.36,6-4.57,1.12-6.41,5.7-8.91,10.22-6.66,1.73.87,3.85,1.7,2.92,4.4-.49,1.42.53,2.13,1.28,3s1.93,1.61,1.83,2.25c-1.19,7.74,4.5,5.39,8.16,5.49,7.15.2,14.32.09,21.48,0,2.52,0,4.54.34,4.33-3.94-.17-3.35,2.54-7,4.4-10,2.18-3.54,7-2.54,9.27,1.14A10.32,10.32,0,0,0,401,23V33c-3.2,1.4-6.37-.45-9.62-.08-4.53.51-6.11,1.8-6.38,6.36-.12,2.09.4,4.33-1.5,6a4.58,4.58,0,0,1-1.57.8,202,202,0,0,1-31.21-.1,4.54,4.54,0,0,1-1.57-1c-1.62-1.76-1.5-4-1.57-6.12-.11-3.71-2.06-5.24-5.68-5.47-4.37-.28-8.58,1-12.88,1-23,.16-45.92.05-68.88.07a15.62,15.62,0,0,1-3-.33C254.69,33.2,251.93,32.51,252,29Z" transform="translate(99 99)"/><path class="cls-11" d="M289,80a9.37,9.37,0,0,0,4.81,1c11,0,21.95-.12,32.92,0,3.21,0,4.75-.9,4.28-4.23-.51-3.55,1.77-5.36,4.18-7.19,1.34,1.08.85,2.34.77,3.36-.24,3,.91,4.42,4,4,4-.55,5.85.71,6.45,5.18.85,6.31,4.4,8.67,11.22,8.8,5.82.1,11.64.08,17.46,0,7.64-.1,10.5-2.43,11.85-9.93.39-2.17.67-3.73,3.32-4.07,6.5-.85,6.49-1,7.11-7.17L401,71V99c-2.62-.22-2.15-2.59-2.71-4.12-.93-2.54-2.11-4.42-5.24-4.4s-3.19,2-3.42,4.29c-.26,2.66-2.49,3.43-4.75,3.49-12.3.27-24.61.3-36.91,0-2.29-.06-4.09-1-4.71-3.62-1.13-4.73-3.51-5.47-7.49-2.45a10.19,10.19,0,0,1-2.41,1.75,264.24,264.24,0,0,1-38.27.17C290.61,90.46,288.28,85.89,289,80Z" transform="translate(99 99)"/><path class="cls-12" d="M334,93a7.54,7.54,0,0,1,10.45-3.23c1.13.7,1.88,1.45,1,2.77-2.77,4,0,4.42,3,4.44,9.63,0,19.26,0,28.89,0,2.83,0,5.66.1,8.47,0,2.33-.14,4.22-1.2,2.37-3.74-2.18-3,.16-3.48,1.95-4,5.53-1.63,9.19.89,9.92,6.64.14,1.14-.12,2.36,1,3.16v18c-3.86-3.17-3.23-8.26-5.23-12.23a11.2,11.2,0,0,1-.41-2.45c-.26-1.2-.65-2.26-2.15-2.32-1.71-.06-2.33,1-2.52,2.49a69.58,69.58,0,0,0-.21,9.47c0,4-1.64,5.81-5.7,6.69a84.55,84.55,0,0,1-37.52-.19c-3.19-.73-4.53-2.39-4.66-5.44a41.39,41.39,0,0,1,0-6.49c.54-4.62-1.15-7.31-5.94-7.73C334.55,97.41,334.43,95.13,334,93Z" transform="translate(99 99)"/><path class="cls-13" d="M272,51c22.36,2.12,44.77.58,67.16.92,4.14.06,6,1,6,5.55,0,3.48,3.48,6.11,3.42,10,0,1.57,2.19,1.49,3.76,1.28a106.43,106.43,0,0,1,28.19,0c1.55.2,3.78.42,3.84-1.12.14-3.84,3.48-6.58,3.45-10,0-4.93,2.09-6,6.36-5.7A39.84,39.84,0,0,1,401,53v8c-2.16,0-4.33,0-6.49,0-3.36-.1-5.45,1.18-5.51,4.82,0,1.34.07,2.73-1.65,3.21-2.28.65-2.46,2.48-2.34,4.38.26,3.87-2.12,4.31-5.11,4.06a157,157,0,0,0-26.82,0c-3,.26-5.35-.24-5.09-4.08.12-1.91-.08-3.73-2.36-4.37-1.42-.4-1.65-1.5-1.62-2.72.12-4.22-2.28-5.34-6.05-5.32q-26.44.11-52.89,0a24.16,24.16,0,0,0-5.83,1C275.64,59.11,272.35,56,272,51Z" transform="translate(99 99)"/><path class="cls-14" d="M401,195v30c-3.19-.49-2.81-3.29-3.29-5.36-.62-2.63-1.21-5.23-3.16-7.18s-3.21-1.4-3.91,1.1c-.18.65-.15-.12-.06.49,1.4,8.93-5.31,11.07-11.37,11.68-10.29,1-20.74,2.19-31-1.61-4.2-1.56-6-3.7-5.65-8,.08-1.15,0-2.32,0-3.49,0-2.65-.44-5.36,1.22-7.74,2.13-1.74,4.7-1.39,7.16-1.4,10-.06,19.94-.09,29.91,0,3.91,0,7.11-.34,6.64-5.48a2.55,2.55,0,0,1,2.08-3,18,18,0,0,0,7.36-3.52C399.51,189.64,399.73,193.63,401,195Z" transform="translate(99 99)"/><path class="cls-15" d="M401,129v20c-2.28.36-2.76-1.43-3.29-2.94a32.58,32.58,0,0,1-2.07-8.66c-.12-1.66-.24-3.49-2.46-3.71s-2.6,1.54-2.86,3.23c-.24,1.47-.42,3-1.78,4a12.72,12.72,0,0,1-6.73,1.63c-10.15.12-20.31.1-30.47,0a12,12,0,0,1-7.14-1.83c-2-2.1-1.51-4.76-1.63-7.28,0-1.63.25-3.44-2-3.81-2.62-.44-3.17,1.77-4.13,3.43a8.13,8.13,0,0,1-6.36,3.33c-8.38.33-16.77.29-25.15,0a5.52,5.52,0,0,1-2.8-.87,11.12,11.12,0,0,1-1.63-11.09c.34-.33,1-.82,1.21-.39,2.47,4.25,6.53,3.65,10.47,3.61,5.29-.06,10.59-.07,15.88,0,3.38,0,5.91-.54,5.74-4.8a6.14,6.14,0,0,1,1.82-4c5.95-3.26,10.34,1.61,15.27,3.2,1.69.55.69,2.85-.78,3.87,3,2.33,6.34,2.88,9.94,2.77,5-.15,10-.07,14.93,0a10.38,10.38,0,0,0,6.54-1.93c.36-.28,1.93.1.93-1.34-2.49-3.57.25-4.17,2.83-4.73a17.59,17.59,0,0,0,4.08-1.76c5.4-2.69,9.75-.44,10.31,5.5C399.82,126.09,400,127.63,401,129Z" transform="translate(99 99)"/><path class="cls-16" d="M389,140c0-1.49.11-3,0-4.46-.26-3,1.27-3.58,3.88-3.6,2.8,0,4.3.58,4.2,3.82-.14,4.78.73,9.4,3.94,13.24v24a1.69,1.69,0,0,1-2.32,0c-1.58-2.44-1.08-5.46-2.31-8.06-1.32-2.79-2.79-3.45-5.84-2.36-16.28,5.82-32.6,6.05-48.83-.37-1.24-.49-2.54-.76-3.79-1.17s-2.59-1.58-2.14-2.22c1.88-2.63-1.51-2.61-1.76-4.07-.84-3,0-5.85.39-8.74.87-6.36,2.8-7.46,9.35-5.43,1.24.84,1.47,2.18,1.61,3.5.22,2.1,1.7,2.7,3.28,3.81,8.63,6,18.34,3.86,27.5,3.33C382.18,150.84,387.78,147.25,389,140Z" transform="translate(99 99)"/><path class="cls-17" d="M336,253v-5.48c2.64,5,6.09,9.22,7,14,1.08,5.4,2.84,7.57,8.41,8.59,2.28.42,4.9,1.89,7.65,1.93,3.65.05,7.44-.62,10.93.15,6.43,1.4,11.41-3.38,17.41-3.35a1.83,1.83,0,0,0,1.31-1.22c.28-7.4,5-13,8.14-19.44-1.55,7.1,2.33,13.55,2.14,20.49a5.25,5.25,0,0,0,2,4.38v16c-2.62.37-2.85-1.66-3.12-3.35a19,19,0,0,0-1.47-5.1,6.6,6.6,0,0,1-.45-1.43,44.91,44.91,0,0,1,0-10.83,7.86,7.86,0,0,1-2.33,5.09c-.88,1-1.95,1.93-2,3.37-.06,3.56-2.39,4.36-5.31,4.59-2.76.21-4.89,1.05-4.69,4.47.15,2.72-1.82,3.35-4,3.41-7.48.22-15,.21-22.45,0-2.45-.07-4.17-1-4-3.91s-1.76-3.76-4.14-3.92c-3.34-.22-4.48-2-6.23-4.95-2.84-4.85-3.91-10.07-5.85-15.09C335.18,258.55,334.31,255.63,336,253Z" transform="translate(99 99)"/><path class="cls-18" d="M399,173h2v22c-1.62-.47-1.8-2.32-3.47-3.52-.13,4.21-2.59,5.12-6,4.52-2.76-.47-2.93,1-2.54,3.19.79,4.39-.77,6.06-5.57,5.93-13.12-.35-26.26-.12-39.39-.12l-.59-.62a8.63,8.63,0,0,1,.12-7.33,5.54,5.54,0,0,1,5.32-.79c-1.37-.76-3.53-.25-5.63-.09-2.53.19-5,.06-7.11-1.5a3.43,3.43,0,0,1-.95-1.42c-.42-1.86-.5-3.64,1.27-4.93,2.35-1.12,4.88-.86,7.36-.87,14.95,0,29.91,0,44.86,0,6.37,0,6.64-.38,6.8-6.81.05-2.47-.28-5,1-7.31A1.7,1.7,0,0,1,399,173Z" transform="translate(99 99)"/><path class="cls-19" d="M401,129c-1.92-.85-2.85-1.68-2.64-4.41.23-2.91-1.23-6.25-5.58-5.57-3.47.54-5.92,4.07-9.85,3.38-.15,0-.62.75-.64,1.16,0,.73.51,1.14,1.23,1.32,1.25.32,2.68-.26,3.8.73-6.13,4.67-13.23,4.66-20.44,4.42s-14.75,1.17-20.8-4.56c-.29.45-.14-.06.2-.26,1.4-.81,4.39.89,4.29-1.87-.08-2.21-2.88-.69-4.14-1.42C343.17,120,340,118.22,336,119c-2.14-2.32-1.06-5.23-1.46-7.87-.08-3.28,0-6.57.13-9.86A4.2,4.2,0,0,1,336,98a15.9,15.9,0,0,0,2.49,0c4.33-.68,6.28,1,5.53,5.45a10.36,10.36,0,0,0,0,2.49c.24,3.44-1.57,8.28.79,10,3.11,2.27,7.92,2.68,12.06,3,6.45.45,12.95.08,19.43.14,3.83,0,7-2.8,11-2.23,1.68.24,1.67-1.71,1.68-3,0-4,.17-8,0-12-.17-3.26,1.39-3.87,4.21-3.85,2.67,0,4,.71,3.87,3.65-.32,5.54,3.43,10.07,4,15.41Z" transform="translate(99 99)"/><path class="cls-20" d="M401,252l-3.87-16.14c-.25-1.07,0-2.54-1.63-2.65s-2.3,1.17-2.75,2.44A13.66,13.66,0,0,0,392,239c-.55,6.47-2.14,8-8.69,8-10.94,0-21.87-.06-32.81.06A15,15,0,0,1,342,245c-1.51-2.05-.59-4.48-1.07-6.67-.54-2.5-.65-5.92-4.93-4.33v3a1.74,1.74,0,0,1-1.59.37,1.7,1.7,0,0,1-.93-1.34,13.68,13.68,0,0,1,.28-4.47c.89-4,3.73-5.21,6.87-2.43a9.94,9.94,0,0,0,7.24,2.52c12.47,0,24.95,0,37.42,0,2.16,0,4.18-.08,6.09-1.6,4.9-3.91,6.93-3.05,8.08,3.18a21.87,21.87,0,0,0,.63,2.41A5.14,5.14,0,0,0,401,237Z" transform="translate(99 99)"/><path class="cls-21" d="M401,237h-1a11.2,11.2,0,0,1-1-5.81,6.65,6.65,0,0,0-2.14-4.88c-1.81-1.95-3.57-2.09-4,1.07-.6,4.25-3.17,5.2-7,5.16q-19.17-.21-38.35,0c-4,.05-6.77-.76-7.36-5.33s-4.53-.76-6.42-2.29c-1.16-3.79.39-7.35,1.82-10.47,1.67-3.66,5.19-3.5,8.47-1.45,0,8.17,2.2,11.38,10.81,11.76,10.81.48,21.86,1.8,32.37-2.77,2.52-1.1,1.65-2.93,1.79-4.57.29-3.3-1.19-8.44,3.42-8.47,3.69,0,5.62,4.81,6.45,8.59.56,2.56.32,5.29,2.16,7.46Z" transform="translate(99 99)"/><path class="cls-22" d="M401-21c-1.82.08-3.54-.8-5.21,1.43-1.82,2.43-4.58,2.65-6.38-.61C388.21-22.35,386.3-23,384-23q-17.43,0-34.85,0a6.19,6.19,0,0,0-5.24,2.23c-3.49,4.23-5.54,3.87-7.92-1.23,1.67-2.28,5.79,0,6.73-3.62,5.68-5.22,10.51-11.87,19.7-10.87,6,.66,12.3-1.18,18.14,1.66,2.14,4.9,8.3,4.77,11.2,9,.87,1.25,3.1,0,4.57-.77,1.72-.89,3.39-1.61,4.66.65Z" transform="translate(99 99)"/><path class="cls-23" d="M-99,330V-16a1.17,1.17,0,0,1,1.62.53c1.64,5.69.49,11.52.75,17.28.17,3.8,0,7.62,0,11.43q0,47.82,0,95.63,0,27.85,0,55.69a69.51,69.51,0,0,1,0,8.66c-.07,10.62,0,21.24,0,31.86q-.06,28.9,0,57.82c0,19.47,0,38.93,0,58.4a30.06,30.06,0,0,1-.34,7C-97.32,329.21-97.74,330.11-99,330Z" transform="translate(99 99)"/><path class="cls-24" d="M385,9c4.11-4.53-.06-3.78-3.13-4,2.46-2.91,5.56-5.25,4-9.45-.18-.47,1-2,1.73-2.17A78.9,78.9,0,0,0,401-11V13H388a3.4,3.4,0,0,1-3.9.37C382.52,11.53,384.3,10.38,385,9Z" transform="translate(99 99)"/><path class="cls-25" d="M-11-99H325a1.12,1.12,0,0,1-.46,1.57c-2.68,1.33-5.55.78-8.36.85q-159.17,0-318.31,0c-2.82-.09-5.71.5-8.4-.84A1.14,1.14,0,0,1-11-99Z" transform="translate(99 99)"/><path class="cls-26" d="M-99,330l1-1c2-8.5.42-17.13.83-25.7.62-12.93.24-25.91.13-38.87a188.84,188.84,0,0,1,.89-18.89c.72-2,.67-4.16,1-6.24.14-.93.43-2.09,1.55-2.16s1.49,1.08,1.7,2c.41,1.91.26,3.89.64,5.81-.39,5.59,1.11,11.11.72,16.71.37,10.41-.1,20.82,0,31.23-.52,5.35,1.34,10.9-1.31,16.07-2.3.16-1.64-1.63-1.64-2.73,0-14.17,0-28.35,0-42.53,0,20.11-.39,40.22,1.08,60.29a4.74,4.74,0,0,1,0,1.76c-2.66,6.58.19,13.05.48,19.57.12,2.75,1.9,5.41.48,8.26a1,1,0,0,1-1.44.41c-3-5.77-3.94-12.1-5.1-18.37-.18-1,0-2-1-2.63Z" transform="translate(99 99)"/><path class="cls-27" d="M401-26c-1.65-1.11-2.77-.24-4.32.62-2.84,1.57-6.33,3.72-7.92-1.72A2.72,2.72,0,0,0,385.65-29c-3.77.32-5-1.59-4.65-5,1-2.91-2.57-5.55-.51-8.52L381-43c3.81,0,7.63.25,11.41-.07,4.19-.35,6.36.76,5.61,5.38A5,5,0,0,0,401-32Z" transform="translate(99 99)"/><path class="cls-28" d="M393,377c-5.62,7.92-12,15-20.79,19.56-1.64.85-3.92,1.92-4.24,4.41H357c-1-1.61-.07-2.24,1.32-2.64,6.64-.15,11-4.88,15.75-8.4a73.56,73.56,0,0,0,9.12-8.15c1.69,0,1.4-1.45,1.76-2.42,1.12-3,3.35-4.31,6.49-4.26C392.36,375.43,393.37,375.67,393,377Z" transform="translate(99 99)"/><path class="cls-29" d="M401,315c-3.37-1.44-4.34-4-4.07-7.57.3-3.79.07-7.62.07-11.43-1.75-2.18-1.53-4.6-.85-7.06,2.62-2.83,3,.1,3.72,1.57s-.23,3.23,1.13,4.49Z" transform="translate(99 99)"/><path class="cls-30" d="M334,401c.43-1.76,3.09-1.85,3-4,3.33-2.54,6.77-4.63,11.27-4.1,2,.23,3.34-1,4.39-2.67,1.2-1.91,2.79-2.86,4.87-1,1.51,3.61-.24,5.46-3.49,6.51-3.67,1.76-7.76,2.66-11,5.26Z" transform="translate(99 99)"/><path class="cls-31" d="M-37,401h-6c-3.69-2.44-7.72-4.26-11.56-6.43A88,88,0,0,0-62.85,387c-2.42-1.92-5.29-4.09-4.3-8a2.62,2.62,0,0,1,3.16.87c2.79,3.87,7.47,5.74,10.34,9,3.4,3.86,7.81,4.56,11.65,6.85C-38.74,395.94-36,396.74-37,401Z" transform="translate(99 99)"/><path class="cls-32" d="M383,45c1.34-2.12.94-4.49,1-6.79.12-4,2.19-6.11,6.18-6.19,3.64-.07,7.3-.3,10.82,1v4c-1.82-1.06-3.37-2.57-5.58-3-7.37-1.27-9.42,1.1-9.42,11A2.17,2.17,0,0,1,383,45Z" transform="translate(99 99)"/><path class="cls-33" d="M401,367a15.08,15.08,0,0,0-5.07,8c-1.65.42-1.95-.94-2.54-1.92-.75-2.19.62-3.76,1.55-5.5,1.05-2,2.6-3.91,1.26-6.38a5,5,0,0,1,.28-1.38c1.48-1.61,1.57-4.55,4.52-4.78Z" transform="translate(99 99)"/><path class="cls-34" d="M-37,401c-.71-3.26-2.66-4.68-6-4a1.7,1.7,0,0,1,0-2.29c3.47-2,5.81-.06,8,2.29,4.24-.92,6.77,2.4,10,4Z" transform="translate(99 99)"/><path class="cls-34" d="M343,401c1.7-4.72,6.6-4.11,10-6,1.25-.82,2.59-.47,3.91-.31a2,2,0,0,1,.48,2.13A54.2,54.2,0,0,1,350,401Z" transform="translate(99 99)"/><path class="cls-35" d="M350,401c1.84-2.2,3.28-5.09,7-4,1.65-3.19,3.86-5.16,7.71-3.45,0,3.77-3.09,4.39-5.71,5.46a1.83,1.83,0,0,0-2,2Z" transform="translate(99 99)"/><path class="cls-36" d="M-53,401c.06-2.16-1.59-1.93-3-2.11-.48-2.31-5.14-2.87-2.71-6.42a2.64,2.64,0,0,1,3.19.81,29,29,0,0,0,8.91,5.79c.88.38,2,.54,1.56,1.93Z" transform="translate(99 99)"/><path class="cls-37" d="M-45,401a32,32,0,0,1-11-7,1.35,1.35,0,0,1,2,0c4.09.23,6.41,4.42,10.5,4.75.22,0,.33,1.47.5,2.25Z" transform="translate(99 99)"/><path class="cls-38" d="M401,355c-1.86,1.25-1.67,4.13-4,5a2.72,2.72,0,0,1-.89-1.25,10.4,10.4,0,0,1,.06-5.37c.65-1.65,1.2-3.36,2.83-4.38h2Z" transform="translate(99 99)"/><path class="cls-39" d="M401,295c-1.46-.07-1.66-.78-1.63-2.2,0-1.85-.25-3.86-2.37-4.8a6.19,6.19,0,0,1,0-8,5.67,5.67,0,0,1,2,4.86c-.05,1.74.16,3.33,2,4.14Z" transform="translate(99 99)"/><path class="cls-40" d="M-98-16h-1v-3c2-3.38.3-7.79,3-11l.5.5a5.92,5.92,0,0,1,.63,2.77,12.83,12.83,0,0,1-.35,3.54,15.49,15.49,0,0,0-.53,2.81C-96-18.64-95.95-16.78-98-16Z" transform="translate(99 99)"/><path class="cls-41" d="M334-99c1.17,1.92,3.84.06,5,2a7,7,0,0,1-2.88,1.19,9.44,9.44,0,0,1-4.59-.5,1.52,1.52,0,0,1-.84-1.18c.24-1.3,1.71-.74,2.31-1.51Z" transform="translate(99 99)"/><path class="cls-42" d="M-24-98c1.38-.15,2.95.46,4-1h1c.6.76,2,.23,2.31,1.42a1.39,1.39,0,0,1-.76,1.21,7.48,7.48,0,0,1-3.82.56C-22.5-96.14-24.11-96-24-98Z" transform="translate(99 99)"/><path class="cls-43" d="M-16.94-98A2.25,2.25,0,0,1-19-99h8l0,1C-13-96.28-14.95-96.49-16.94-98Z" transform="translate(99 99)"/><path class="cls-43" d="M333-99A2.24,2.24,0,0,1,331-98c-2,1.47-4,1.68-5.92-.09l0-1Z" transform="translate(99 99)"/><path class="cls-44" d="M397,280v16c-2.48.74-4.79,1.6-4.14,5,.3,1.55-1.09,2.29-1.67,3.42a16.64,16.64,0,0,1-9.71,8.68c-2.78.94-4.23,2.73.12,5.56H-66a5.57,5.57,0,0,0-4.25-7.43c-2.66-.46-5.58.1-3.45-4.15.19-.38-.82-1.35-1.27-2.05,1.4-1.48,3.28-1.56,5.1-1.56,23.47,0,47-.38,70.42.2a4.56,4.56,0,0,1,2,.33c11.35,6.07,23.67,5.64,36,5.55,20.26-.16,40.53-.07,60.8,0,7.46,0,14.94-.4,21,.5a31,31,0,0,1-7.73-1.18c-1.47-.46-3.94-.35-3.45-3.17,2.27-2.11,5.13-2.18,7.94-2.19q33.81-.12,67.6,0c2.82,0,5.67.09,8,2,.9,2.84-1.63,2.78-3.05,3.29-3.49,1.26-7.19,1.27-10.32,1.29-1.2.15-.52,1.14-.68.5-.06-.25,0-.4.26-.4,4.66-.08,9.29-.72,14-.71,24.33.06,48.66-.16,73,.11,12.42.13,24.67.18,35.9-6.2,9.12.25,18.25-.05,27.37.16,4.2.1,5.64-1.72,5.39-5.68-.2-3.14,0-6.3.06-9.46.18-2.53-.32-5.13.74-7.56,3.1-2.23,5-.21,5.32,2.37.58,4.34,3,5.51,6.78,5.66,1.52.06,3.2.5,3.57,2.2.39,1.87-1.1,2.49-2.41,2.87,14.59,4.19,23.37,3.93,35.8.19-1.14-.83-2.95-1.26-2.27-3.22a3.28,3.28,0,0,1,3.21-2c3.64-.21,6.36-.89,6.49-5.63C391.87,281,394.11,279.27,397,280Z" transform="translate(99 99)"/><path class="cls-45" d="M-75,326c2.31,2.92,5,5.38,5.57,9.6.5,3.51,3.11,5.51,7.54,5.51q218.79-.19,437.59,0c3.71,0,6.21-1.1,7.36-4.41s1.77-7,4.95-9.38c1.26-1,.65-2.14-1-2.24a15.41,15.41,0,0,1-5.06-.72c3.44-3.79,8.11-2.06,12.24-2.18,3.11-.1,2.76,2.69,2.8,4.84-5.73.6-7.93,4.53-9.76,9.44s-4.79,9.23-7,13.94c-1.89,1.24-2.8,3.19-3.89,5.06-2,3.48-4.35,3.72-6.29.37-1.53-2.63-3.55-3.23-6.17-3.2-1.17,0-2.34,0-3.5,0H-46.22c-4.07,0-8.18-.71-10.63,4.31-1.26,2.6-3.88,1.2-5.13-.89s-2.3-4.42-4.46-5.85c-3.24-6.89-6.51-13.78-9.06-21A2.88,2.88,0,0,1-75,326Z" transform="translate(99 99)"/><path class="cls-29" d="M1.41,304.81-75,305c-1.64,0-3.29-.05-4.92,0a6,6,0,0,0-2.25.51c.15,4.47-3.36,7.61-4.17,11.63-.66,3.24-.18,6.7-1.66,9.83-1.94-1.25-2.17-3.14-1.78-5.15.64-3.23.35-6.47.35-9.71-.26-4,.67-8,.4-12,1.69-8.46,4.2-10.62,12.76-10.65,19.07-.05,38.14,0,57.21,0,2.64,0,5.33.21,7.75-1.19,1.13-.62,2.49-.85,2.91.57C-6.55,295.06-1.48,299.26,1.41,304.81Z" transform="translate(99 99)"/><path class="cls-46" d="M-75,326c2.28,5.32,2.87,11.38,6.62,16,1.81,2.24,1.17,4.61,1.38,7l-.6.38c-2.48,0-2.66-2.16-3.47-3.66a14.78,14.78,0,0,0-3.87-5.11,5.34,5.34,0,0,0-5.62-.87c-1.93.9-1.26,2.83-1.28,4.43,0,2.79.58,5.64-.63,8.34L-83,353c-4-7.67-3.79-14.89-.7-23.31,1.83-5,3.22-6.21,7.69-5.72C-74.32,324.15-74.71,325-75,326Z" transform="translate(99 99)"/><path class="cls-47" d="M381,349c-.26-3.12.32-5.94,2.69-8.23s3-5.28,3.75-8c1.44-5.38,4.53-6.9,9.56-5.73,0,4.93,2.54,9.36,2.71,14.3.09,2.65.64,5.23-.71,7.7a5.49,5.49,0,0,1-2,4l-.53-.51c-1.25-2.69-.58-5.55-.78-8.34-.12-1.6.38-3.56-1.53-4.39s-3.9-.16-5.54,1.17c-2,1.62-3.06,3.88-4.15,6.13-.58,1.18-1.14,2.47-2.84,2.32Z" transform="translate(99 99)"/><path class="cls-48" d="M-88,312c.74,5-1.35,10,0,15h0a71.1,71.1,0,0,0,0,19c-.34,4,4.22,6.73,3,11l-.36.72a2.38,2.38,0,0,1-2.16.76c-4.5-2.89-2.74-8.1-4.33-12.1-1.71-4.3-.83-9.16-1.2-13.77.48-6.38,2.5-12.51,3.1-18.89C-89.86,312.77-89.34,311.79-88,312Z" transform="translate(99 99)"/><path class="cls-46" d="M-85,357c2.68-.33,1.81-2.43,2-4h0a2,2,0,0,1,3.24.89c1.52,5.61,5,10.6,5.32,16.59-.67,1.24-1.65.83-2.62.5-2.08-1.13-2.4-3.4-3.31-5.27s-1.33-3.74-3.48-4.47c-1.36-1.15-2.34-2.4-1.16-4.24Z" transform="translate(99 99)"/><path class="cls-29" d="M-88,346a38,38,0,0,1,0-19Z" transform="translate(99 99)"/><path class="cls-49" d="M344-24c-2,3.41-5.3,1.48-8,2-3.64-.31-7.29,0-10.93,0q-200.31,0-400.61-.18c-6.78,0-11.91,1.28-15.46,7.16v4h0c-.33.46-.67.44-1,0v-5a2.77,2.77,0,0,1-1.73-2.89c0-1.92.31-3.63,2.39-4.42a8.2,8.2,0,0,0,1.55-.82c2.9-3.54,6.68-4.34,11.12-4.34q203.54.11,407.08,0C334.14-28.47,339-26.24,344-24Z" transform="translate(99 99)"/><path class="cls-22" d="M-91-15c2.1-5.35,5.2-8.17,11.78-8.16q202.68.32,405.37.14c2.64,0,5.32.45,7.93-.5,1.32-.48,1.76.4,1.92,1.52-2.29,1.42-4.84,1-7.31,1Q130.9-21-66.89-21C-75.39-21-84.46-23-91-15Z" transform="translate(99 99)"/><path class="cls-22" d="M366.64-19c3.67,0,7.33,0,11,0,1.24,0,3-.41,3.09,1.56S379.2-15,377.59-15c-7.49,0-15,0-22.47,0-1.43,0-2.77-.53-2.84-2.18-.08-2,1.62-1.74,2.88-1.76C359-19,362.81-19,366.64-19Z" transform="translate(99 99)"/><path class="cls-50" d="M301.12,124c-.3,3.71.39,7.34.92,11,2.75,5.28,1.26,10.86,1.12,16.34-1.11,7-1,14.16-3.06,21-.8,2.79-1.46,5.61-2.17,8.42-1.3,3.28-1.82,6.8-3.05,10.1-1.85,4-3.23,8.12-5,12.12-1.49,2.68-2.82,5.45-4.13,8.22-2.45,4.81-5.18,9.45-8.08,14-3.12,4-5.77,8.37-9.05,12.26-4.81,5-9,10.65-14.26,15.26C245.5,260.3,236.43,267.61,226,273a130,130,0,0,1-33.31,14.37,140.86,140.86,0,0,1-24.73,5,21.2,21.2,0,0,0-7.52.72,87.61,87.61,0,0,1-17.81,0,20.19,20.19,0,0,0-7.58-.7c-7,.11-13.75-1.76-20.55-3.17-8.39-2.41-16.32-6.14-24.64-8.8-11.82-4.74-21.93-12.3-32.18-19.63-8.92-6.14-15.22-15.07-23.45-21.95-3.76-4.26-6.42-9.32-10-13.73C17.93,214.91,12.16,204.4,8.15,193c-1.07-3.33-2.11-6.67-3.5-9.88-1.4-3.77-1.56-7.83-2.78-11.64-2.43-7.75-1.93-15.86-3-23.79-1.45-7.42.87-14.73.69-22.11-.24-2.87,1.08-5.53,1.09-8.36.59-3.41,1.45-6.76,1.92-10.19.55-4.94,3-9.33,4.17-14.08,2.73-7.19,5.16-14.52,9-21.26a182.6,182.6,0,0,1,12.5-19.87,114.53,114.53,0,0,1,15-17.3c2.17-2.05,4.26-4.16,6.32-6.32a130.43,130.43,0,0,1,21.34-16C78.06,8.15,85.35,4.4,92.77.88A38.21,38.21,0,0,1,105-3.42c8.13-2.36,16.26-4.68,24.74-5.46a12.85,12.85,0,0,1,2.38-.39c2.4-.12,4.84.11,7.17-.74,31.25-2,60.68,4.16,88,19.71,1.43.82,2.88,1.67,3.5,3.37A260.11,260.11,0,0,1,252,29l4.32,4a25.22,25.22,0,0,1,4.19,3.38c1.71,2.27,4.67,3.57,5.28,6.71A37.37,37.37,0,0,0,272,51c1.75,4.09,4.92,7.25,7.22,11L289,80a82,82,0,0,0,5.11,13c3.25,4.07,3.43,9.25,5,13.92,1,4.38,1.85,8.8,2.8,13.21C302.11,121.52,302.23,122.9,301.12,124Z" transform="translate(99 99)"/><path class="cls-24" d="M230.82,13.07C214.74,3.8,197.76-3.11,179.44-6.42c-13.28-2.4-26.7-2.84-40.16-2.5-2.33,1-4.93-.26-7.26.84l-1.81.15c-5.61.8-11.27.49-16.89.49q-93,.12-185.93.06A24.81,24.81,0,0,0-78.38-7c2.26.64,4.54.42,6.8.42l167.94,0c2.49,0,5-.28,7.45.45,2.13.64,4.19,1.61,1.22,4L93,2a59.15,59.15,0,0,1-9.86.59H-75.63c-1,0-2,0-3,0-5.66.15-5.7.18-5.19,5.87a6.74,6.74,0,0,1-.72,4.34C-86,14.22-87.47,14.1-89,13c.87-1.48,1.62-3.34.89-4.74-1.88-3.64-1.3-6.32,2-8.73,1.37-1,0-2-.54-2.95-1.7-2.7-1.88-5.26.68-7.58,1.73-.92,3.6-.46,5.4-.46q205.09,0,410.2,0c1.8,0,3.67-.46,5.4.46,1.14,2.21,2.72,3.11,5.43,3.13,3.77,0,7.86.27,6.8,6.3-.47,2.63,3.26,3.49,4,5.92-.91,1.57-5.42-.56-3.72,3.34,1.15,2.66,3.22,3.53,5.86,1.19,1.44-1.27,3.48-1,5.28-.86,7.84.66,15.9-1.7,23.55,1.78.67.3,1.84-.51,2.77-.8-.33,1.33-.67,2.67-1,4-1.55,1.6-3.59,1.56-5.56,1.57-9.1.09-18.19,0-27.29,0A11.15,11.15,0,0,1,345,13Z" transform="translate(99 99)"/><path class="cls-51" d="M345,13h43c-1.51,3.16-6.21,4.56-4.68,9.6.39,1.28-2.84,2.36-4.9,2.37-7.95,0-15.9.17-23.84-.06-3-.08-5.87-.52-4.88-5.3C350.3,16.72,346.09,15.61,345,13Z" transform="translate(99 99)"/><path class="cls-52" d="M-24-98c.7,1.23,1.91.94,3,1a2.91,2.91,0,0,1,.71.89,4.3,4.3,0,0,0,2.3.94c2.67.85,5.12,3.29,8.22,1.1a18.61,18.61,0,0,1,7.65.19c2.3.65,4.64.42,7,.42q152.1,0,304.19,0a27.89,27.89,0,0,0,7-.37,20.47,20.47,0,0,1,7.6-.36c1.43.27,2.72,1.08,4.08,1.39,1.09.24-.53-.48,0-.77a1.23,1.23,0,0,1,.68-.9,1.56,1.56,0,0,1,.44,0c.13,0,.23.13.35.21-2.07-1.47-1.09-2.3.7-2.4,2-.12,4.13.7,6.15-.28l3,0c-.52,1.33-.51,2.42,1.33,1.73a11.32,11.32,0,0,1,4.73-.71,12.88,12.88,0,0,0,4.86,1A28.83,28.83,0,0,0,361-91c2.22,2.38,5.16,3.59,8,5,1.54,2,4.61,1.72,6,4,1.39.92,2.58,2.12,4,3l1,1c1.84,1.15,3.18,2.92,5,4l3,4c1.17,1.18,3.42,1.55,3,4-1.89.71.27,3.46-1.33,3.54a11.89,11.89,0,0,1-6.6-1.39,12.52,12.52,0,0,0-6.3-2.28,7.12,7.12,0,0,1-6.23-4.35c-.94-2.26-2.63-2.75-4.45-3.37-3-1-5.82-2.68-6.44,2.9-.41,3.67-5.9,3.47-10,1.31C344.56-72.3,339.54-76.47,333-74c-1.75,1.38-3.82,1-5.78,1Q157-73-13.22-73c-2,0-4,.4-5.78-1a7.62,7.62,0,0,0-6,0,2.06,2.06,0,0,0-2,1c-3.2,2.71-7.27,3.84-10.91,5.68-3.05,1.54-6.39.79-8.27-3.13s-5.76-4.46-8.11-.8c-4.51,7-12.15,7.39-18.88,9.66-3.11,1.05-4.82-.34-4.07-3.85-.29-2.48,1.71-3.32,3.22-4.51l3-4c1.88-1.11,3.19-2.93,5.08-4l2-1A8.31,8.31,0,0,1-61-82L-55-86c2.84-1.37,5.77-2.6,8-5C-39.45-93.55-31.91-96.36-24-98Z" transform="translate(99 99)"/><path class="cls-6" d="M-77-66c1.91.7-.28,3.46,1.34,3.54A11.92,11.92,0,0,0-69-63.87a13.28,13.28,0,0,1,6.34-2.27A7.36,7.36,0,0,0-56.22-71c1.4-3.93,4.42-3.93,7.64-4s3,2.44,3.83,4.65c1.43,4,5.59,3.17,7.44,1.57,3.14-2.74,6.7-3.29,10.31-4.22v2c1.05,1.48.92,3.39-.53,3.91-5.44,2-9.1,7.69-16,6.71-5.65-.81-11.45,1.08-17.19,0,5.79,1.05,11.57-.16,17.36-.17,70.62-.15,141.24,0,211.86-.05,3.67,0,7.29,0,10.86-1.2,2.7-.88,6-1.6,7.82,1.15,2.11,3.18-.62,5.55-2.61,7.77a21.22,21.22,0,0,1-2.15,2.09,4.42,4.42,0,0,1-3.72.37c-3.16-1.75-6.57-2.07-10.13-2.07q-118.35,0-236.71,0c-.12,0-.24.13-.48.26,3,1.07,4,3.13,3.28,6.11a12.64,12.64,0,0,1-.85,2.61,3.06,3.06,0,0,1-1.27,1.2c-2.73,1-5.58.57-8.38.66a49.71,49.71,0,0,1-5.46-.14,3.8,3.8,0,0,1-3.44-2.68c.77,6.53,1.3,12.33-5,15.67a11.28,11.28,0,0,0-1.6,2,7.43,7.43,0,0,0-1.5,3.42,16.43,16.43,0,0,1-1,2.52c-1.68.26-1.95-.9-2.14-2.14l.06-4a2.74,2.74,0,0,0,.46-4c.19-2.13,1-4.08,1.51-6.13L-93-39c-.07-2.24,1.49-3.92,2-6a2,2,0,0,0,1-2,14,14,0,0,1,2-4.1L-82-61c.91-1.4,2.13-2.57,3-4l1-1C-77.66-66.49-77.32-66.46-77-66Z" transform="translate(99 99)"/><path class="cls-53" d="M-47.06-91c-1.71,3.19-4.57,4.53-8,5C-52.79-88.29-49.88-89.56-47.06-91Z" transform="translate(99 99)"/><path class="cls-54" d="M-65.93-78c-1.3,1.84-2.54,3.76-5.08,4C-69.78-75.91-68.51-77.78-65.93-78Z" transform="translate(99 99)"/><path class="cls-55" d="M-94-37.13-95.06-30a.55.55,0,0,1-1,0l0,0A10.19,10.19,0,0,1-94-37.13Z" transform="translate(99 99)"/><path class="cls-56" d="M-91-45c.24,2.3-1.1,4.06-2,6C-94.37-41.73-92.21-43.21-91-45Z" transform="translate(99 99)"/><path class="cls-57" d="M-77-66h-1c.3-2.35,1.52-3.78,4-4Z" transform="translate(99 99)"/><path class="cls-58" d="M-88-51.07A5.47,5.47,0,0,1-90-47C-90.9-49.1-89.38-50.06-88-51.07Z" transform="translate(99 99)"/><path class="cls-59" d="M-79-65c-.09,2-1.35,3.15-3,4C-81.9-63-80.67-64.14-79-65Z" transform="translate(99 99)"/><path class="cls-60" d="M-61-82a6.19,6.19,0,0,1-2.93,3C-64-81.06-62.84-81.9-61-82Z" transform="translate(99 99)"/><path class="cls-50" d="M302,304.14c-7.38,5-15.47,7-24.43,6.91-32.93-.21-65.85-.07-98.78-.06a31.42,31.42,0,0,1-5-.27c6.36-2.09,13.26-1.84,19.43-4.61.79-1.23,2.12-1.55,3.37-1.86,7.86-1.92,15.25-5.19,22.79-8a109,109,0,0,0,15.23-7.84c7.59-3.73,14.3-8.8,21-13.93,8.47-6.18,15.64-13.75,22.86-21.26,3.28-4.19,6.87-8.11,9.95-12.45s4.48-4.33,7.4.39c.7,1.13,1.29,2.32,1.93,3.49,1.17,2.79,3.87,4.94,3.59,8.36l4.87,8c3.86,3.23,4.31,8.13,6.09,12.39,1.36,4.51,1.23,9.12,1,13.74a9.17,9.17,0,0,1-.28,1.55,28.3,28.3,0,0,1-6.48,12.74C305.3,302.81,304.18,304.32,302,304.14Z" transform="translate(99 99)"/><path class="cls-61" d="M311.1,273q-2.46-6-4.91-12c7.26,0,14.52-.13,21.77.05,3.83.1,6.66-.4,6.06-5.23-.17-1.43.22-2.65,2-2.82v9a2.08,2.08,0,0,1,.43,1.47,23.61,23.61,0,0,1-.69,5.61c-.89,2.35-2.51,4-5,4.13C324.17,273.47,317.62,274,311.1,273Z" transform="translate(99 99)"/><path class="cls-62" d="M301.32,253q-2.2-4-4.43-8c4-1.36,8.16-.42,12.23-.47,8.05-.11,16.1-.2,24.15-.12l.73.57c0,8,0,8-7.77,8Z" transform="translate(99 99)"/><path class="cls-62" d="M336,234c.3-2,.67-3.32,3.07-1.49,4.5,3.43,2.46,8.22,2.93,12.49-2.34-1-1.89-3.16-2-5.1C339.79,237.21,339.43,234.55,336,234Z" transform="translate(99 99)"/><path class="cls-62" d="M335,237h1c-.85,2.62,2,6.17-2,8C332.17,242.06,331.84,239.31,335,237Z" transform="translate(99 99)"/><path class="cls-63" d="M182-51c.14-2.69,2.59-3.73,4-5.52a3.25,3.25,0,0,0,.78-3.22c-.5-1.46-1.86-1-2.94-1.28-3.52-.91-6,2.14-9.46,2.13q-119-.21-237.9-.12c-.82,0-1.64-.07-2.91-.13,1.41-3.26,3.71-3.1,6.19-2.47,7.63,1.94,15.23-.44,22.73-1,2.61-.21,5.81-4.76,9.88-5.62.39-.08.44-1.79.65-2.75,117.59,2.3,235.19.36,352.78,1a40.55,40.55,0,0,0,8.41-.71c2.65-.53,6.06-1.64,7.49,2.56.39,1.16,1.91,1.23,3.09,1.14,2.4-.18,4.19.17,4.55,3.16.17,1.48,1.8,2.12,3.16,1.8,9.8-2.32,13.95,4.7,18.52,11.06a4.33,4.33,0,0,1-4.67.87c-4.7-1.62-9.54-1.25-14.35-1.25H199.1c-4.32,0-8.66-.31-12.88,1.08A4,4,0,0,1,182-51Z" transform="translate(99 99)"/><path class="cls-27" d="M182-51c19.22-4.17,38.68-1.6,58-1.87,33.48-.47,67-.15,100.47-.12,10.21,0,20.49-.8,30.52,2,2.13,2.51,4.19,4.71,8.15,4.2,2.34-.3,1.67,2.28,1.85,3.8h0c-2.08,1.84-4.65,1.61-7.13,1.61q-15.74.06-31.48,0Q142.74-41.4-56.9-41.41c-3.4,0-7.05.93-10.1-1.59v-2c2.74-2.23,6-1.6,9.13-1.6q111.09,0,222.17,0c1.83,0,3.67-.12,5.49,0,4,.31,7.2-.71,9.21-4.4Z" transform="translate(99 99)"/><path class="cls-6" d="M-19-74H333c-.18,1.08-.65,1.89-1.88,1.94s-2.66.06-4,.06Q157-72-13.13-72.07C-15.12-72.07-18-70.51-19-74Z" transform="translate(99 99)"/><path class="cls-64" d="M391-66l-3-4c2.46.18,3.68,1.61,4,4Z" transform="translate(99 99)"/><path class="cls-59" d="M393-65c1.65.85,2.88,2,3,4C394.37-61.84,393.11-63,393-65Z" transform="translate(99 99)"/><path class="cls-6" d="M-25-74a4.52,4.52,0,0,1,6,0Z" transform="translate(99 99)"/><path class="cls-4" d="M-89,13h4c1.92-1.72,4.3-1.62,6.62-1.62q71.63,0,143.25,0c2.28,0,4.72-.26,6.5,1.76-7.72,4.45-14.25,10.47-21.25,15.89a8.53,8.53,0,0,1-4.31,1c-40.71-1-81.44-.17-122.15-.44-3.7,0-7.33.18-10.62,2.11S-91.43,32-92,29c.17-3.54-.78-7.2,2.36-10.23C-88.2,17.38-89.16,15-89,13Z" transform="translate(99 99)"/><path class="cls-10" d="M-92,29c1.15,1.76,1.91,3.88,4.54,1.16C-85.59,28.24-82.74,28-80,28q60.89,0,121.78.06a67.67,67.67,0,0,1,8.35,1L43.9,35c-2.63,1.92-5.69,1.6-8.67,1.6H-74.19c-1.83,0-3.67.05-5.5,0-3.26-.06-5.37,1.1-5.87,4.66-.42,3-1.9,5.32-5.12,6.06-1.69.14-2.18-.92-2.32-2.32Z" transform="translate(99 99)"/><path class="cls-7" d="M335-11H-86c1.48-1.64,3.43-1,5.18-1q205.32,0,410.64,0C331.57-12,333.52-12.64,335-11Z" transform="translate(99 99)"/><path class="cls-65" d="M-93,45a2.06,2.06,0,0,1,1,2,4.71,4.71,0,0,1,1.2,4.56c-1,5.86-.44,11.77-.75,17.66,0,10.57.29,21.14,0,31.72.23,6.6-.15,13.2-.15,19.81,0,1.71.19,3.78-2.22,4.4-1.35-5.38-.23-10.84-.59-16.25q0-27.09,0-54.17,0,27,0,53.9c-.09,5.36.19,10.74-.14,16.1a1.1,1.1,0,0,1-1.65.09c-1.44-5.52-.38-11.14-.67-16.7-.27-5.1.43-10.23-.42-15.31.07-14.14,0-28.29.19-42.43.12-10.29.6-20.6.24-30.9-.07-2-.29-4,.4-6A1.1,1.1,0,0,1-95,13c0,9.79-.4,19.58,1,29.32C-93.87,43.32-93.92,44.32-93,45Z" transform="translate(99 99)"/><path class="cls-66" d="M-95,13h-1c-1.09-8.25-.19-16.47-.09-24.7.66-.62.44.68,0,.15-.25-.32-.4-.25-.41.21-.1,6.77.06,13.55-.11,20.32,0,1.33,1.29,3.44-1.37,4q0-14.49,0-29a8.91,8.91,0,0,0,1-5c1.17-.79,1.45,2,2.76.69A2.07,2.07,0,0,1-93-19c.33,1,.67,2,1,3-2,2.69-.85,5.78-.94,8.66C-93.13-.91-93,5.53-93.9,12V-9.73H-95Z" transform="translate(99 99)"/><path class="cls-2" d="M-92-11h1V4.73l-1,0Z" transform="translate(99 99)"/><path class="cls-67" d="M357,389c-1.14,0-2.92-.19-3.08.9-.77,5.32-4.54,4.56-8,4.07s-5.3,4-8.93,3q-178.65,0-357.29,0c-2.62,0-5.21.7-7.56-2.22-1.64-2.05-5.37-.46-8.15-.74a1.64,1.64,0,0,1-2,.32c-1-2.85-3.44-4.42-5.54-6.3a5,5,0,0,1-.49-1.54c-.08-2.22.35-4.08,3.07-4.31A9,9,0,0,1-35.84,384c4.33,4.73,9.88,6.56,16.09,6.57q176.67,0,353.35,0c6.11,0,11.84-1.53,16.08-6.45a37.24,37.24,0,0,1,6.52-3.44,3.16,3.16,0,0,1,3.71.3c1.27,1.27.78,2.75-.06,4.06S358.35,388,357,389Z" transform="translate(99 99)"/><path class="cls-68" d="M-43,387v1a13.25,13.25,0,0,0,5,6h2l1,3c-2.65-.75-5-2.8-8-2-5.19-.72-8.49-4.34-11.92-7.76-1.7-2.26-1.52-5.44-4.32-7.36-1.67-1.15-1.28-4-.37-6.05s2.86-2,4.69-2.08a9.31,9.31,0,0,1,3.9.57c6.14,5.13,14,6.65,21,9.85,1.61.73,4.25,1,2.88,4-3.7,1.19-6.76-.59-9.87-2.15a6.71,6.71,0,0,1-4-1c-1.64-1-3.34-.39-5.24-.62C-45.68,384.69-44,385.6-43,387Z" transform="translate(99 99)"/><path class="cls-9" d="M265.77,43.08C263.3,41.57,262,39,260,37c1.6-3,4.48-2.44,7.06-2.45,19.43,0,38.87-.19,58.3.09,4.89.07,9.4-1.7,14.2-1.65,7.42.07,8.63,1.27,8.39,8.82a7.79,7.79,0,0,1-.37,2.45L347,45a9.48,9.48,0,0,0-5.93-2C316,43.06,290.87,43.05,265.77,43.08Z" transform="translate(99 99)"/><path class="cls-9" d="M383,45h3c-1.83,3.45-.76,7.17-1,10.76-.32,5-1.56,5.93-6,3.9-2.27-1-4.59-.78-6.84-.6-6.81.56-13.72-1.42-20.51,1.61-3,1.32-3.45-2.08-3.7-4.42-.38-3.74.86-7.64-1-11.25a2.19,2.19,0,0,1,3,0c2.24,2.76,1.05,6,1.36,9.1,4.61-3.63,25.67-3.63,30.28,0C382,51,380.76,47.76,383,45Z" transform="translate(99 99)"/><path class="cls-32" d="M383,45c-.28,4.37.65,8.83-1.12,13.47-.39-5.52-3.83-5.72-7.89-5.53-5.32.25-10.66.21-16,0-3.83-.14-6.86.25-6.58,5.59-2.25-4.6-1.05-9.16-1.43-13.54Z" transform="translate(99 99)"/><path class="cls-32" d="M350,45h-3V42.51c0-8.25-4.51-11.23-12.1-7.66A13.68,13.68,0,0,1,328.68,36q-31.17,0-62.35,0c-2.15,0-4.34-.25-6.3,1-1.91-.71-2.69-2.48-3.73-4q35.61,0,71.22,0c4.8,0,9.46-1.42,14.32-1.07,5.26.37,7.06,1.92,7.15,7.27C349,41.2,348.88,43.21,350,45Z" transform="translate(99 99)"/><path class="cls-69" d="M298.09,107l-4-14H334c3.21.65,1.57,3.24,2,5v3c-1.48,8.09-7.08,9.09-14,8.6-5.93-.42-11.9,0-17.85-.13C301.85,109.43,299.41,109.55,298.09,107Z" transform="translate(99 99)"/><path class="cls-70" d="M276.85,224.73q4-7,8-13.95c15.06,1.43,30.16.42,45.24.6,2.19,0,3.53-1,4.49-3.13,2.22-5,4.2-5.53,9.37-3.25v8c-4.88-.49-8.93-.16-8.19,6.59.2,1.79-2.28,3.22-1.81,5.41-1.27,2.58-3.74,2.53-6,2.55-15.24.12-30.48.15-45.71,0C280.23,227.48,277.37,228.13,276.85,224.73Z" transform="translate(99 99)"/><path class="cls-71" d="M-61.09,394.06c-5.64-1.15-8.59-5.27-11-10,.06-.23.11-.47.17-.7.54-.9,1.72-2,2.29-1.46,3.78,3.33,9.15,5.3,10.11,11.19C-59.77,393.9-60.16,394.42-61.09,394.06Z" transform="translate(99 99)"/><path class="cls-72" d="M-85,357a5.61,5.61,0,0,0,2,4c2.42,3.53,4.47,7.21,4.63,11.64A8.79,8.79,0,0,1-81,376l-2-3c-1.81-4.48-4.27-8.74-4.74-13.69A2.86,2.86,0,0,1-87,358Z" transform="translate(99 99)"/><path class="cls-73" d="M-87,359c1.12,4.74,4,9,4,14a37.81,37.81,0,0,1-8-14,1.8,1.8,0,0,1,1.08-.45A6.22,6.22,0,0,1-87,359Z" transform="translate(99 99)"/><path class="cls-74" d="M-72.1,384.09c-1-.21-2.2.13-2.76-1.13-.34-2.25-2.83-2.81-3.7-4.82s-.3-2.7,1.4-3.28c5.22,1,7.28,4.56,5.2,9.1Z" transform="translate(99 99)"/><path class="cls-75" d="M-77,376c-2.25.23-.69,1.2-.59,2.16.22,2.09,3.86,2.09,2.72,4.8-2.76-1.68-4.47-4.28-6.15-6.92,0-1.45-.06-2.94,2-3a2.53,2.53,0,0,1,2.4,1.08A1.8,1.8,0,0,1-77,376Z" transform="translate(99 99)"/><path class="cls-76" d="M-61.09,394.06-60,393a.59.59,0,0,1,1,0c-.28,2.64,4.81,2.49,3.06,5.88C-58.82,398.51-60.4,396.75-61.09,394.06Z" transform="translate(99 99)"/><path class="cls-77" d="M-90,359h-1c-1.35-1.39-1.67-3.18-1.92-5h.9C-87.51,354.15-89.94,357-90,359Z" transform="translate(99 99)"/><path class="cls-78" d="M301.89,151.61,302,135c8.95,0,17.9,0,26.85,0,3.18,0,5.88-.65,7.11-4,2.93-1.74,5.69-2.21,8,1v8a.59.59,0,0,1,.26.67c-.09.22-.17.33-.26.33l-5.42,0c-1.53,0-2.62.61-2.52,2.3.24,4.28-1.67,8.37-1.06,12.68-.66,3-3.23,2.47-5.19,2.53-7.45.22-14.9.21-22.35,0C301.63,158.43,301.16,157.72,301.89,151.61Z" transform="translate(99 99)"/><path class="cls-79" d="M344,141v-1a211.54,211.54,0,0,0,45,0c0,1.82-.1,3.65,0,5.46.16,2.49-.74,3.78-3.39,3.56-.81-.07-2.11-.21-2.4.21-4.41,6.65-11.1,2.9-16.74,3.7-2.92.41-5.95.07-8.93.07-2.62,0-5.43.5-6.64-2.85-.14-.4-.75-1-1.07-.92C342.6,150.22,344.06,145.08,344,141Z" transform="translate(99 99)"/><path class="cls-80" d="M301.12,124l-.33-4c2-2.45,4.94-2.43,7.71-2.5,6.1-.17,12.2-.12,18.29,0,3.6,0,6.62-.36,7.2-4.79a1.79,1.79,0,0,1,2-1.73v8c.15,2.43-1.79,4.52-.57,7.37.57,1.33-2,2.63-4,2.63-8.76,0-17.53-.21-26.28.08C300.91,129.22,302.8,125.4,301.12,124Z" transform="translate(99 99)"/><path class="cls-79" d="M344,132c-2.52-1.54-5.31-.85-8-1,.62-2.77,2.73-3.15,5-2.8C343,128.51,344.28,129.71,344,132Z" transform="translate(99 99)"/><path class="cls-81" d="M399,173h-2c-4,.23-6.86,1.56-7,6.36-.1,2.55-2.32,3.94-4.66,4.64a64.18,64.18,0,0,1-37.68,0c-2-.59-4.3-1.69-4.28-3.71,0-5.55-3.8-6.94-7.85-8.38-.8-4.13-3.05-8.44,1.5-11.89,4.77-1.58,8.23,2.36,12.27,3.49,5.65,1.58,11.06,1.32,16.58,1.45,7,.17,14.15.62,20.95-2,.3-.11.67-.05,1-.17C397.1,159,399,160.41,399,171Z" transform="translate(99 99)"/><path class="cls-82" d="M337,160c-2.09,3.85-.49,8-1,12a1.19,1.19,0,0,1-.55,1.64c-3,1.42-6.17.9-9.28.93q-10.41.1-20.81,0c-2.28,0-4.69.28-6.53-1.61l3.06-21.35c-.54,4.3,1.19,5.72,5.61,5.5,7.59-.39,15.23-.08,22.84-.13,1.59,0,3.36.54,4.66-1,2.08-.95,4.15-1.79,6.18-.05C340.74,158.53,334.66,154.69,337,160Z" transform="translate(99 99)"/><path class="cls-53" d="M369-86c-3.41-.49-6.28-1.82-8-5C363.83-89.56,366.77-88.34,369-86Z" transform="translate(99 99)"/><path class="cls-83" d="M385-74c-2.51-.3-3.78-2.16-5-4C382.53-77.74,383.8-75.9,385-74Z" transform="translate(99 99)"/><path class="cls-84" d="M349.92-95c-2,1.51-3.35-.12-4.86-1A7.44,7.44,0,0,1,349.92-95Z" transform="translate(99 99)"/><path class="cls-59" d="M379-79c-2-.12-3.14-1.38-4-3C377-81.93,378.14-80.65,379-79Z" transform="translate(99 99)"/><path class="cls-39" d="M336,263v-1a3.37,3.37,0,0,1,2,3.67c-.22,3.6.83,6.56,4.15,8.42.72.4,1.74,1,1.35,1.85-2.43,5.18,1.67,3.8,4,4,3.58.37,6.46,1.13,4.89,5.85-.68,2,.94,2.14,2.31,2.15q11.75,0,23.48,0c1.33,0,3.14-.05,2.43-2.05-1.91-5.39,1.78-5.46,5.27-5.95,2.21-.3,6.47,1.12,3.6-3.93a.94.94,0,0,1,.19-.9c5.21-2.46,5.35-7.65,5.9-12.62l1.42.38V280c-2.3,1.41-5.86,1.81-3.61,6.26.64,1.26-1.81,2.92-3.55,3.58a14.15,14.15,0,0,1-2.47.18c-1.64.26-4.54-.87-4.47,1.56.07,2.25,3,1.11,4.65,1.44.62.13,1.24.3,2.74.66-16.07,6.16-31.3,6-46.9.45,1.39-1.8,3.34-.85,4.91-1.17.84-.16,1.81-.3,1.92-1.26.16-1.33-1-1.56-2-1.63-1.32-.11-2.67.05-4-.11-2.72-.33-5.33-1.88-4.7-4.56.87-3.71-1.44-4.26-3.58-5.4-.2-.22-.4-.43-.61-.64-1.51-3.77-.73-7.51.11-11.25C335.73,266.41,335.05,264.62,336,263Z" transform="translate(99 99)"/><path class="cls-85" d="M289,202.88a59.23,59.23,0,0,1,4.85-12.2c11.08,1.65,22.23.6,33.35.84,2.76.06,4.81-.76,5.45-3.89.34-1.69,1.42-3,3.53-2.73A3.12,3.12,0,0,1,336,189v5a25.88,25.88,0,0,0-.48,3.93c-.25,7.15-1.54,8.54-8.46,8.61-10.93.11-21.87.19-32.8-.09C292.12,206.39,288.33,207.56,289,202.88Z" transform="translate(99 99)"/><path class="cls-86" d="M336,189v-4c-1.28-1.13-1.28-2.67-1.38-4.19-.05-2.69-.53-5.46,1.38-7.81v-1c1.33,0,2.67.11,4,0,3-.3,4.42.85,4,3.94-.6,4.51,1.6,5.89,5.84,7.34,9.18,3.11,18.39,1.25,27.55,1.56,3.08.11,6.24-1.69,9.33-2.74,2.12-.72,2.23-2.55,2.31-4.49.24-6.23,1.52-6.93,8-4.59v9.44c0,6.55,0,6.56-6.34,6.56Z" transform="translate(99 99)"/><path class="cls-14" d="M289,202.88c.31,2.4,2.13,2.11,3.77,2.12,12.23,0,24.47-.07,36.7,0,3.47,0,4.57-1.38,4.7-4.72.08-2.12-1.8-5.17,1.88-6.32,1.75,3.45,5.78.82,8,3v8c-4.09,0-8.66-1-8.26,5.75.13,2-2.05,2.25-3.79,2.25q-21.92,0-43.82,0c-1.64,0-3-.27-3.23-2.23A22.06,22.06,0,0,1,289,202.88Z" transform="translate(99 99)"/><path class="cls-85" d="M344,197c-2.58-1.22-7.14,2.83-8-3,4.85,2,10.31.08,15.23,1.62l-.08,1.38Z" transform="translate(99 99)"/><path class="cls-87" d="M336,111c-.12.11-.31.21-.35.35-2.2,7.65-2.2,7.54-10.58,7.68-8.1.15-16.25-.85-24.28,1l-2.7-13c3.28,1.81,6.83.86,10.26.95,6.13.15,12.27-.06,18.41.08,3.4.08,6.33,0,6.61-4.5A2.63,2.63,0,0,1,336,101Z" transform="translate(99 99)"/><path class="cls-88" d="M276.85,224.73c1.15,1.73,2.94,1.25,4.54,1.25,15.94,0,31.88,0,47.81,0a9.24,9.24,0,0,0,4.8-1c1.36-.57,2.28-1.89,3.94-2,2.89-.22,4.84.6,3.88,3.83-1.24,4.2,1.07,5.14,4.33,5.15q20.49.09,41,0c2.77,0,5-.8,4.22-4.45-.38-1.7-1.23-3.85,1.51-4.41,2.45-.5,4.67,0,5.88,2.59,1.71,3.62,1.21,7.49,1.26,11.3-1.71-1.41-2.08-3.31-2-5.38a2.58,2.58,0,0,0-1.58-2.82,2.54,2.54,0,0,0-3.37,1.3c-1.57,2.81-4.08,2.94-6.86,2.93q-20-.1-39.95,0c-2.47,0-4.63-.25-6-2.59-.82-1.36-1.91-2.33-3.69-1.6-1.56.64-1.56,2-1.5,3.35a8.38,8.38,0,0,1-1,4.81c-1.73,1.67-3.95,1.59-6.1,1.6-9.82.07-19.67.61-29.43-.16-8-.62-15.79.93-23.69.2-2.44-.23-5,.33-7-1.72Z" transform="translate(99 99)"/><path class="cls-20" d="M267.74,236.92,334,237h1c-1.54,2.52-.85,5.31-1,8-11.21,2-22.53.59-33.79.94a11.88,11.88,0,0,1-3.32-.92c-1.48-2.31-3-4.61-4.66-7.24-4.61,5.58-8.15,11.58-13.35,16.18-7.68,1.53-15.38.55-23.06.08-1.12-.07-2.26-.73-2-2.31Z" transform="translate(99 99)"/><path class="cls-66" d="M-67-43H381c.28,2.28-.63,4.6,1.76,6.68,1.78,1.55-1.79,1-1.76,2.32-7.64-1.74-15.41-.89-23.11-.92-2.64,0-5.84,0-6,4.14-.07,1.83-1.69,1.6-3,1.83-2.75.49-5.19,1.4-4.92,4.95-3.29,0-6.6.47-9.29-2.4-1.15-1.24-3.19-.59-4.83-.59Q124.71-27-80.45-27c-3,0-5.49.36-7.21,3.14A3.83,3.83,0,0,1-91-22a4.65,4.65,0,0,1-1-5,2.06,2.06,0,0,1,1-2c13.83-2.93,27.85-1.55,41.77-1.56q185.43-.17,370.85-.07a62.34,62.34,0,0,0,7.49-.16c1.43-.17,3.57-.08,3.62-1.85.06-2-2.14-1.53-3.48-1.66-2-.19-4-.07-6-.07H-69.58c-2.5,0-5,.1-7.5-.07-6.08-.42-7.44-2.83-4.92-8.55h6c3,3,6,3.69,9,0Z" transform="translate(99 99)"/><path class="cls-75" d="M394,373l1.95,2c-.58,1.25-1.95,1.38-2.91,2.07a2.1,2.1,0,0,0-2-1c-1.2-2,.28-2.62,1.63-3.34A1.56,1.56,0,0,1,394,373Z" transform="translate(99 99)"/><path class="cls-89" d="M-95,245c-1.77,20.06-.12,40.2-1.32,60.23-.44,7.21,1.67,14.5-.69,21.58A23.48,23.48,0,0,1-98,329V263c1-1.71.49-3.58.48-5.37-.12-17.26.32-34.51.83-51.76a2.37,2.37,0,0,1,1.37-1.21,2.1,2.1,0,0,1,1.68.64c2,8,.93,16.05.6,24.1C-93.25,234.64-95.77,239.61-95,245Z" transform="translate(99 99)"/><path class="cls-90" d="M-97.95,13c2.09-4.28.59-8.81.9-13.21.26-3.8,0-7.62,1-11.45V13q-.5,40-1,80c1,5.12.28,10.28.42,15.42A.87.87,0,0,1-98,109Z" transform="translate(99 99)"/><path class="cls-91" d="M-97,109V93c1.63,1.47,1,3.41,1,5.15.06,9,0,17.89,0,26.84,1.74,1.93,1.33,4.32,1.39,6.59.26,10.53-.49,21.08.41,31.59l.43.8a6.62,6.62,0,0,1,.73,1.63,20.12,20.12,0,0,1-.07,8.07c-1.07,8.23-.19,16.49-.5,24.73-.09,2.27.45,4.68-1.39,6.59h-1l-.58-.66c-1-9.93,0-19.9-.56-29.84A4.45,4.45,0,0,0-98,173v-8c1-2.56.44-5.24.45-7.85.07-14.42,0-28.84.06-43.25C-97.46,112.24-97.89,110.55-97,109Z" transform="translate(99 99)"/><path class="cls-92" d="M-96,205c.45,18.28-1.75,36.52-1,54.8.05,1.16.1,2.36-1,3.19q0-29,0-58a1.6,1.6,0,0,1,1-.56,1.62,1.62,0,0,1,1,.57Z" transform="translate(99 99)"/><path class="cls-93" d="M-97,109c0,16.93,0,33.86,0,50.8,0,1.74.66,3.69-.94,5.17q0-28,0-56Z" transform="translate(99 99)"/><path class="cls-94" d="M-97,205h-1V173h1A212.31,212.31,0,0,1-97,205Z" transform="translate(99 99)"/><path class="cls-52" d="M-19-94c-.67-.66-2.45-.22-2-2,1.11-1.15,2.88.26,4-1,0-.32.05-.63.09-.94L-11-98-3-98c1.74.91,3.6.46,5.4.46q154.57,0,309.16,0c1.8,0,3.66.45,5.4-.46l8-.08L331-98c0,.31.07.63.09.94-8.37,4.1-17.37,3.42-26.26,3.42q-145.5,0-291,0c-10.48,0-21-.26-31.41-.9A2.86,2.86,0,0,0-19-94Z" transform="translate(99 99)"/><path class="cls-95" d="M317-98c-1.5,1.61-3.45.94-5.2.94Q157-97,2.22-97C.47-97-1.48-96.36-3-98Z" transform="translate(99 99)"/><path class="cls-14" d="M9.09,192.83a256.41,256.41,0,0,0,16.19,32.09c-2.33,2.26-5.3,1.64-8,1.64q-46.12.08-92.25,0c-1.83,0-3.65,0-5.48.1-2.38.12-3.77,1.24-3.79,3.67,0,4.67-1.5,9.17-1.51,13.84-1.07,4.27-.28,8.83-1.84,13-.72,1.95-1,4.76-4.35,3.78,1.1-5.33-2.49-10.67,0-16a165.65,165.65,0,0,1-.71-23.25c2-2.67,2,1.32,3.46,1.05.55-6-1.26-12.16,1-18.06a14.55,14.55,0,0,0,1.59-4.21c1.56-6.83,1.73-7.07,8.82-7.09q36.48-.08,72.95,0A132.69,132.69,0,0,0,9.09,192.83Z" transform="translate(99 99)"/><path class="cls-96" d="M-92,221a135.36,135.36,0,0,1,0,24c-2.15-2-.1-4.87-1.5-7.09-1.4,2.22.64,5.1-1.5,7.09-2.85-4.47-.34-9.08.24-13.38,1.19-8.9.36-17.76.76-26.62v-.92c-.19-12.18.83-24.33,1-36.51a5.37,5.37,0,0,1,.61-2.86c3.42-3,3.49-7.45,4.6-11.34,1.15-4,3.36-5.87,7.43-5.89,26.16-.1,52.32,0,78.48,0a12.34,12.34,0,0,1,2,.35Q1.58,159.87,3,171.93c-1.13,3.56-4.23,2.54-6.61,2.56-17,.13-33.92.06-50.89.07-8.48,0-17,.06-25.44,0-3.61,0-5.31,1.31-5.91,5.05-.87,5.55-2.3,11-3.7,16.48.25,7-1.34,13.86-1,20.85A4.83,4.83,0,0,1-92,221Z" transform="translate(99 99)"/><path class="cls-62" d="M-92,261c4.3-1.84,3.07-6.07,3.95-9.35.58-2.16-.83-4.66,1-6.65a6.4,6.4,0,0,0,1-3.29c.24-3.48,2.39-5.09,5.6-5.12,28.44-.26,56.87-.32,85.31,0a5.88,5.88,0,0,1,3.28,1c.64.55,1.44,1.32,1.08,2.08-2.83,6.05-4.79,12.72-11.08,16.45-15.29.7-30.58.17-45.87.3-9.31.08-18.62,0-27.94,0-6.85.05-9.9,3.27-9.7,10.21.23,7.51-1.25,14.79-3.33,21.92-.47,1.61-.66,4.17-3.37,4.36Q-92,277-92,261Z" transform="translate(99 99)"/><path class="cls-61" d="M-92,293a55,55,0,0,0,5-26.85C-87.37,259-83.76,255-76.84,255l76.25.14c.69,1.77-.22,3.2-1,4.6-2.83,4.94-4.13,10.65-7.71,15.22-1.38.81-2.89.6-4.38.59-20.78-.17-41.56-.05-62.33-.07-7.16,0-8.47,1.11-8.93,8.18a59.49,59.49,0,0,1-2.76,13.12c-.42,1.42-1.31,2.74-.27,4.22,1.37,3.67-.78,7.33,0,11-.79,4.48-1.71,8.95-2.31,13.45-.34,2.59-2.36,4.77-1.69,7.55-4.11-1.79-1.57-4.54-1-7v-1c.49-5.32-1-10.77,1-16Z" transform="translate(99 99)"/><path class="cls-97" d="M-92,309c-.42,5.33,1.12,10.78-1,16-1.26-1-1-2.38-1-3.68q0-28.71,0-57.43A2.14,2.14,0,0,1-93,262c0,13.27-.06,26.53,0,39.79C-92.93,304.21-93.91,306.83-92,309Z" transform="translate(99 99)"/><path class="cls-98" d="M-93,326c.93,2.25-2,5.05,1,7,.33,4.27.08,8.69,1.16,12.75s.67,8.78,3.84,12.25v1c-1,.27-2,1.59-3,0-.42-1.77,1.2-4.34-2-5-.88-6.44-1.91-12.86-2.56-19.33C-94.84,331.74-96.92,328.26-93,326Z" transform="translate(99 99)"/><path class="cls-99" d="M359,399a17.08,17.08,0,0,1,6-5c.12-2.87,2.42-4.44,4.36-5.48,5.19-2.78,8.28-7.36,11.53-11.9,1.37-.83,2.76-1.49,4.35-.57.55,2.19-.28,4.08-1.24,5.95-1.92,4.16-6.16,6.06-9.27,9-3.77,3.53-8.68,5.83-13.13,8.62A1.79,1.79,0,0,1,359,399Z" transform="translate(99 99)"/><path class="cls-100" d="M384,382c-.35-2.11.67-4,1-6-.05-2.46,2-3.55,3.34-5.06a4.94,4.94,0,0,1,3.13-1.32,1.68,1.68,0,0,1,1.1.73A5.85,5.85,0,0,1,393,373c-.6,1-2.16,1.45-2,3-3.55.53-5.59,2.33-5.37,6.17C385.67,383,385.51,383,384,382Z" transform="translate(99 99)"/><path class="cls-68" d="M357,389c-.15-1.9.08-3.57,2-4.71a1.71,1.71,0,0,0,.56-2.58c-.76-1-1.76-.48-2.7-.1-1.95.77-3.37,2.84-5.82,2.39-3.05,1.72-6,3.72-9.81,2.26-1.55-2.59.71-3.06,2.21-3.88,3.66-2,7.78-2.79,11.59-4.44a42.38,42.38,0,0,0,9.94-5.58,8.92,8.92,0,0,1,3.89-.62c4.76.11,7.56,4.69,4.39,8.05-2.18,2.31-2.62,5.09-4.2,7.44-3,4.19-7.23,6.39-12,7.77h-4C355.71,393.92,358,392.54,357,389Z" transform="translate(99 99)"/><path class="cls-101" d="M-59,393h-1c-1.39-5-7.31-5.88-9.51-10.2,0,0-1.6.75-2.45,1.15.86-4.25-.9-6.85-5-8l0-2c.1-1.33-1.58-2.67,0-4l2,1c4.1.15,5,4.76,8.32,6a1.68,1.68,0,0,1-.32,2,13.17,13.17,0,0,0,5.7,7.78A23.73,23.73,0,0,1-54,394h-2C-56.72,392.83-57.9,393-59,393Z" transform="translate(99 99)"/><path class="cls-102" d="M-67,379v-2a1.68,1.68,0,0,1-.21-2.07c2.74-1.33,3.72.87,5.07,2.47,2.71,3.21,4,7.58,8.14,9.6,3.13,3.4,7.1,5.66,11,8v2c-6.89-2.27-11.57-7.95-17.67-11.47C-63.31,384-63.69,380-67,379Z" transform="translate(99 99)"/><path class="cls-39" d="M393,373c-1.18-.72-1-1.9-1-3,0-3.94.55-7.54,5-9,2.53,3,0,5.29-1.25,7.56C395,370,393.8,371.19,394,373Z" transform="translate(99 99)"/><path class="cls-100" d="M397,361c-3.08,2.21-3.13,6.11-5,9h0c-1.9-5,.12-9.45,5-11v2Z" transform="translate(99 99)"/><path class="cls-102" d="M357,395c3.9-2.34,7.87-4.6,11-8,4.1-2,5.43-6.39,8.13-9.59,1.35-1.6,2.34-3.79,5.08-2.49A1.69,1.69,0,0,1,381,377c-.17,4.75-4,7.24-6.95,9.73s-6.18,4.66-9.05,7.27c-3.3-.69-5.7,1-8,3Z" transform="translate(99 99)"/><path class="cls-103" d="M397,359c-3.66,2.76-5.11,6.53-5,11l-3,1c-1.26-1.37-.67-2.75,0-4.15,1.72-3.77,3.65-7.44,4.37-11.61A2.6,2.6,0,0,1,397,353h0Z" transform="translate(99 99)"/><path class="cls-63" d="M-94-20l-1.66,2.15c-.61-1,0-2.46-1.29-3.13A2,2,0,0,1-96-23l2,2a.59.59,0,0,1,.24.67C-93.84-20.11-93.92-20-94-20Z" transform="translate(99 99)"/><path class="cls-63" d="M-96-30h1c.58,0,1.6-.78,1.65,0a2.64,2.64,0,0,1-2.54,3C-96-28-96-29-96-30Z" transform="translate(99 99)"/><path class="cls-95" d="M-19-94c3.22-1,6.22-3,9.92-1.17,1.36.65,3.28.17,4.94.17q161.12,0,322.23.15c4.61,0,8.38-3.09,13-2.17L336-97c-2,2-4.74.25-7,1.26.58,1.39,2.19.12,3,1.22-1.25,1-2.69.26-4,.48-5.37,1.07-10.86.9-16.25.9Q157-92.9,2.18-93C-2.21-93-6.61-94.53-11-93c-.54,3.18-2.47,1.18-3.68.83C-16.16-92.6-17.09-94.45-19-94Z" transform="translate(99 99)"/><path class="cls-95" d="M-17-97c.4.2,1.6.51.75.82-1.41.51-3.12.18-4.71.2v-1Z" transform="translate(99 99)"/><path class="cls-50" d="M-9.14,274c2.07-6.64,5.24-12.79,8.55-18.88Q4.09,247.06,8.76,239c1.37-2.73,2.64-1,3.93.08a147,147,0,0,0,18.93,22.36,151.08,151.08,0,0,0,24.67,20c3.81,3.1,8.16,5.33,12.34,7.84,5,2.27,9.49,5.49,14.79,7.08,6.93,2.81,13.82,5.72,21.11,7.49,1.6.38,3.28.7,4.29,2.26,5.52,2.65,11.87,2.17,17.47,4.9H122c-31.28,0-62.56-.15-93.85.07-9.54.07-18.49-1.35-26.76-6.24-5.84-4.33-9.22-10.29-11.27-17.11C-12.82,283-11.68,278.46-9.14,274Z" transform="translate(99 99)"/><path class="cls-29" d="M108.82,306.08a105,105,0,0,1-26.13-8.9c1.65-3.18,4.73-2.72,7.47-2.76,10.31-.12,20.63-.05,31-.05q45.17,0,90.35.05c3,0,6.48-.85,8.55,2.58a106.42,106.42,0,0,1-26.76,9.11c-4.69-1.37-9.51-1.11-14.31-1.11H123.63C118.67,305,113.68,304.72,108.82,306.08Z" transform="translate(99 99)"/><path class="cls-29" d="M302,304.14c4.95-4,7.85-9.38,9.9-15.28,8.07,1.22,16.11,1.4,24.06-.86,0,4.48,0,8.95,0,13.43,0,2-.26,3.6-2.88,3.58-9.94-.08-19.89-.08-29.83-.15C302.88,304.86,302.46,304.39,302,304.14Z" transform="translate(99 99)"/><path class="cls-39" d="M336,288c-2.69,3.05-6.22,3.19-9.93,3-3.46-.15-6.93,0-10.39,0-1.65,0-3.44.22-3.74-2.14a.81.81,0,0,1,.11-.86c3.6-2.53,7.69-1.28,11.57-1.4,4.33-.13,8.82.57,10-5.4A1.86,1.86,0,0,1,336,280Z" transform="translate(99 99)"/><path class="cls-103" d="M-67,349c3.31.28,5,2.29,5.66,5.35.35,1.5.89,3.15,2.77,2.95s1.6-1.91,1.55-3.19c-.11-2.44,1.09-3.26,3.35-3.12,1.33.08,2.67,0,4,0q206.42,0,412.84,0c3.6,0,8.56-1.77,8.09,5.06a1.34,1.34,0,0,0,1.8,1.21,2.83,2.83,0,0,0,2.12-2.48c.73-3.13,2.21-5.55,5.82-5.82h0a3.26,3.26,0,0,1,.5,3.76c-3,3.49-5.51,7.37-9.58,9.76-6.74,5.72-13.67,10.19-23.26,10.18q-191.67-.26-383.33,0c-9.58,0-16.52-4.44-23.21-10.19-4.14-2.3-6.62-6.27-9.61-9.72A3.28,3.28,0,0,1-67,349Z" transform="translate(99 99)"/><path class="cls-104" d="M-9.14,274a57.53,57.53,0,0,0-.72,13.68c.13,3.52-2.28,3.32-4.71,3.32q-31.12,0-62.24,0c-7.68,0-9.77,1.88-11.19,10-2.19-1.73-.46-3.75-.24-5.53.67-5.65,1.58-11.28,2.55-16.89.53-3.11,2.09-4.71,5.76-4.67,23.28.3,46.56.33,69.85.44A3,3,0,0,0-9.14,274Z" transform="translate(99 99)"/><path class="cls-105" d="M-67,349v4l-.57.41c-2.14.39-3.24-1.32-4.68-2.34-1.9-1.32-4.16-.29-3.16,1.33,3.37,5.44.72,12.6,5.46,17.46a13.39,13.39,0,0,0,2.09,2.1c.93.83,1.92,1.65.86,3v2c-4.66.66-4.74-4.79-8-6-1-5.83-5-10.67-5.53-16.67-.09-1-1.43-1.26-2.47-1.33,0-3,.1-6-.06-9-.12-2.12-1.13-4.87,1.37-5.68s5.51-1,7.93,1.34a19,19,0,0,1,4.67,7.56A2.22,2.22,0,0,0-67,349Z" transform="translate(99 99)"/><path class="cls-105" d="M381,353v-4c2.37-.07,2.12-2.28,2.76-3.62a17.69,17.69,0,0,1,4.72-6.29c2.18-1.78,4.81-1.4,7.11-.77s1.29,3.08,1.37,4.74c.14,3.31,0,6.63,0,9.94-1.09.67-2.84.86-2.83,2.46,0,4.82-2.53,8.63-4.58,12.67A10.6,10.6,0,0,0,389,371c-.53,2.31-2.88,3.16-4,5a6.71,6.71,0,0,1-4,1v-2c-1.06-1.4-.05-2.21.87-3,3.27-3,5.83-6.35,5-11.27-.35-2.11,1-3.72,2.12-5.42s2.08-3.86.15-5.42-2.86.72-4,1.75a5.12,5.12,0,0,1-3.51,1.68Z" transform="translate(99 99)"/><path class="cls-106" d="M-77,370c-1.34,1.33,2.57,2.68,0,4a2,2,0,0,1-2-1c.09-4.48-3.72-7.65-4-12,2.76-.41,2.61,1.87,3.3,3.47C-78.89,366.35-77.91,368.16-77,370Z" transform="translate(99 99)"/><path class="cls-2" d="M-94-20c0-.34,0-.67,0-1v-3c.45-.68,1.13-1.46,1.85-.92,1,.75.82,1.9.15,2.92-1.71.54.22,2.3-1,3Z" transform="translate(99 99)"/><path class="cls-63" d="M-92-22c-.08-1.25.45-3.12-2-2a3,3,0,0,1,2-3,8.21,8.21,0,0,1,1,5Z" transform="translate(99 99)"/><path class="cls-9" d="M-93,69a143.2,143.2,0,0,1,1-22c2.84-1.27,5.37-2.68,5-6.51-.39-4.35,1.81-5.58,6-5.57C-39.31,35,2.29,35,43.9,35Q36.52,43.51,29.12,52c-2.25,3.06-5.6,2.51-8.7,2.51q-47.41.06-94.84,0c-1.83,0-3.66,0-5.49.07-2.43.09-3.74,1.17-4.68,3.58a109,109,0,0,0-5,15.61c-.29,1.27-.44,2.69-2.21,3.2C-93.5,74.56-91.57,71.49-93,69Z" transform="translate(99 99)"/><path class="cls-3" d="M-93,69c2.16,2,.06,4.88,2.21,8.06-1.43-5.65,1.65-9.41,2.15-13.84.31-2.71,2.66-5.39,3.23-8.64C-85,52.23-82.07,53-80.17,53q51.24,0,102.46,0c2.33,0,4.68.22,6.83-1Q23,62,16.86,72c-2.47,1.85-5.37,1.54-8.18,1.54q-41.7,0-83.41,0c-6.65,0-5.78.39-8.22,6.2-2.61,6.22-5.75,11.93-5.24,19C-88,101-90.34,102.51-93,101Z" transform="translate(99 99)"/><path class="cls-11" d="M-93,101c5.74,0,4.51-4.63,3.74-7.21-1.38-4.63-.15-7.71,3.36-10.4,2-1.53,2.17-3.71,1.87-5.88-.62-4.38,1-5.64,5.48-5.61,31.8.19,63.6.1,95.41.1l-9,21c-2.4,2.11-5.34,1.53-8.11,1.53q-37.42.07-74.84,0c-1.83,0-3.66,0-5.49.06-3,0-4.63,1.33-4.87,4.41-.18,2.32-.66,4.61-1,6.91-.31,2-.88,3.91-2.81,5,.2,1.59-2.83-2.06-1.73,1.08.59,1.68.32,3.47.46,5.22.07,1.4,0,2.8,0,4.21.16,3,.09,6,0,8.93,1,10.35-1.27,20.56-1.16,30.87,0,1.54,0,3.44-2.29,3.74h0a163.22,163.22,0,0,1,0-40c2.13-4.06.66-8.4,1-12.59C-92.8,108.62-93,104.8-93,101Z" transform="translate(99 99)"/><path class="cls-24" d="M71.37,13.16Q32.16,13.09-7.06,13-46,13-85,13c-.12-2.44.18-4.81-1.33-7.18s-.6-4.54,2.66-4.79c1.32-.1,2.66,0,4,0Q2.5,1,84.68,1A27.27,27.27,0,0,1,93,2Z" transform="translate(99 99)"/><path class="cls-9" d="M189,35c11.41,2.79,20.58,9.72,30,16.21.63,3.65-2.35,3-4.12,3.13-4.92.38-9.86.1-14.78.16a36.21,36.21,0,0,0-8.32.59,12.89,12.89,0,0,1-5.33-1.07c-28.81-11-56.61-8.18-83.56,6.14-1.76.93-3.48,2-5.57,2-6-.79-12.12-.54-18.17-.77-2-.08-4.87.7-5.29-2.75C85,47.62,98.16,40,113,35.18a27.3,27.3,0,0,0,9.32,1.25c19.14,0,38.29.08,57.43,0C182.86,36.39,186.09,36.64,189,35Z" transform="translate(99 99)"/><path class="cls-107" d="M.12,147.81C-1.42,149.73-3.57,149-5.47,149q-36.9.08-73.79,0c-4,0-7,0-7,5.6,0,2.6-1.73,5.44-2.27,8.33-.33,1.73-1.78,2.25-3.46,2.11-.37-6.26-1.88-12.51,1.89-18.54,1.59-2.53,1.06-6.1,1.65-9.17.79-6.73,1.9-7.82,8.88-7.84q33.18-.12,66.36,0c5.29,0,10.45.35,14.11-4.45Q.5,136.42.12,147.81Z" transform="translate(99 99)"/><path class="cls-88" d="M12.15,240c-1.06-.59-1.49-3.18-3.39-1.05C6.82,237.61,4.6,238,2.47,238c-26.76,0-53.52.06-80.27-.08-4.12,0-7.29.28-7.54,5.37,0,.59-1.08,1.14-1.66,1.7.34-5.62.83-11.24,1-16.86.07-3.36,2.15-3.15,4.38-3.15q20,0,40,0l67-.08L35,238.13a2.46,2.46,0,0,1-2.26,2.81C25.83,241.56,18.88,242.78,12.15,240Z" transform="translate(99 99)"/><path class="cls-20" d="M207.23,238.12c-13.87,9.18-29.35,13.88-45.69,15.44-22.56,2.16-43.89-2.61-63.87-13.3a25.88,25.88,0,0,1-2.81-2c.44-3.55,3.4-2.66,5.4-2.7q14.24-.29,28.47,0c1.94,0,4,.62,5.66-1.09a2.9,2.9,0,0,1,1.42-.43,184.22,184.22,0,0,0,27.59,1c5.44,1.33,10.93.26,16.39.39,7,.17,14,0,20.94.1C203.17,235.53,205.84,235.32,207.23,238.12Z" transform="translate(99 99)"/><path class="cls-87" d="M-92,130v-9c1.8-1.49,2.32-3.47,2.55-5.72.73-7,4.16-10.32,11.28-10.73,5.31-.3,10.63-.1,16-.1q28.39,0,56.81,0c3.3,0,6.73-.25,9.3,2.53l-2,10c-.24,4.56-3.59,4.47-6.79,4.48-16.76.06-33.51,0-50.27,0q-10.2,0-20.4,0c-8.43,0-8.43,0-11.43,7.45C-88.43,130.57-90,131.34-92,130Z" transform="translate(99 99)"/><path class="cls-69" d="M3.89,107c-4.54-1.29-9.19-1-13.82-1q-33.42,0-66.83,0c-8.55,0-10.86,2.14-11.19,10.74-.11,2.85-1,4.47-4,4.26v-4c1.3-1.84-.25-4.15,1-6,5.07-2.8,3.34-8.13,3.69-12.13.45-5,2.24-6,6.72-6,29.47.15,58.94.08,88.4.08Q5.86,100,3.89,107Z" transform="translate(99 99)"/><path class="cls-108" d="M9.09,192.83C7.83,195.68,5.26,195,3,195c-27.39,0-54.77.07-82.15,0-3.75,0-6.46.07-6,5.09.17,2.06-.39,4.69-2.83,6-2.36-3.16-1.69-6.78-1-10.09a50.87,50.87,0,0,0,1.32-9.79c1.32-3.57,4.39-3.67,7.44-3.69,10.48-.08,21,0,31.44,0,17-.07,33.94.21,50.91-.16A6.41,6.41,0,0,1,6,183Z" transform="translate(99 99)"/><path class="cls-109" d="M220,297c-1.8-1.12-3.81-1-5.81-1H89c-2.17,0-4.33-.05-6.26,1.19-5.43-1.24-9.92-4.36-14.55-7.22,2.37-2.71,5.64-2.5,8.73-2.48,12.37.08,24.75-.55,37.1.65,4.71-.75,8.93,1.7,13.48,2.25,2.5.3,5.18-.45,7.58.73,2.36,1,5-.19,7.32.79h18.3c2.36-1,5,.26,7.33-.81l25-5c3.4,1.25,6.88.24,10.31.32,8.13.2,16.28,0,24.42.11,2.78.05,5.75-.13,7.62,2.67A66.12,66.12,0,0,1,220,297Z" transform="translate(99 99)"/><path class="cls-110" d="M6,183a26.39,26.39,0,0,1-7.82,1C-28.24,184-54.63,184-81,184c-2.59,0-5.06-.12-6,3-1.13,1.78.55,3.81-.58,5.65-.88,1.42-.83,3.69-3.42,3.35,1.5-6.89,3.77-13.62,4.09-20.77.15-3.16,2.85-2.18,4.62-2.19,17.76-.07,35.53,0,53.3,0,9,0,17.93,0,26.9,0,1.74,0,3.7.66,5.13-1C4.9,175.39,4.5,179.44,6,183Z" transform="translate(99 99)"/><path class="cls-111" d="M-88,129a4.11,4.11,0,0,0,.41-.91C-86.11,120-86.12,120-77.51,120c24.48,0,49,0,73.43,0,2.65,0,4.93-.1,6-3l-1,8c-.27,6.15-4.28,6.1-9,6.07C-32.09,130.9-56,131-79.95,131c-6.76,0-6.9.15-7,7C-91.09,135.42-88.87,132.13-88,129Z" transform="translate(99 99)"/><path class="cls-24" d="M105-2.19c.63-1.29,1.26-2.61-1-2.77-1.32-.09-2.66,0-4,0Q11.35-5-77.31-5.07c-2.15,0-6,1.49-6-2.11,0-3,3.77-1.76,5.88-1.77Q20-9,117.36-8.95c4.28,0,8.57.66,12.85,1A228.18,228.18,0,0,0,105-2.19Z" transform="translate(99 99)"/><path class="cls-112" d="M73.85,58.69c1.26,1.9,3.22,1.24,4.93,1.29,6.51.21,13.08-.61,19.5,1.15.06,1.79-1.31,2.56-2.48,3.44A96.26,96.26,0,0,0,72,89.66c-1.34,2.1-2.7,4.25-5.53,4.62a72.43,72.43,0,0,1-12.32.12c-1.73-.11-4.19.32-4.3-2.67A90.47,90.47,0,0,1,73.85,58.69Z" transform="translate(99 99)"/><path class="cls-113" d="M55.86,282.3c-9.39-5.44-17.48-12.49-25-20.23.85-2,2.66-2.43,4.49-2.45,7.56-.11,15.14-.61,22.69.32C68.4,266.79,78.28,274.46,90,279.09c-.41,3.6-3.31,3.34-5.66,3.36C74.83,282.54,65.34,282.83,55.86,282.3Z" transform="translate(99 99)"/><path class="cls-61" d="M253.86,251.73c1.28,1.87,3.25,1.19,5,1.25,6.69.23,13.43-.58,20.05,1a118.46,118.46,0,0,1-22.69,21.42c-7.91.33-15.83.25-23.73.06-2.61-.06-5.85.3-6.53-3.58C236,266.19,245,259.08,253.86,251.73Z" transform="translate(99 99)"/><path class="cls-114" d="M225.93,271.86c1.61,2.16,3.94,2.16,6.3,2.15,6.33,0,12.65-.05,19,0,1.74,0,3.75-.62,5,1.36a97.2,97.2,0,0,1-20.84,13.78c-5.45-2-11.11-1-16.68-1.12-7.09-.15-14.19,0-21.29-.07-1.64,0-3.84.83-4.38-1.91A186.24,186.24,0,0,0,225.93,271.86Z" transform="translate(99 99)"/><path class="cls-62" d="M58,259.94c-2.12,2-4.72.81-7.09,1-6.68.61-13.49-1.15-20.09,1.1A114.75,114.75,0,0,1,12.15,240H29.81c1.93,0,4,.36,5.16-1.87C42.92,245.11,49.65,253.4,58,259.94Z" transform="translate(99 99)"/><path class="cls-115" d="M242.74,206a85.42,85.42,0,0,1-21,21.94c-7.19,1.06-14.42.5-21.63.29a5.44,5.44,0,0,1-3.93-1.81c-1.19-2.38.74-3.44,2.16-4.33,7.8-4.89,15.2-10.22,21.49-17a4.71,4.71,0,0,1,4-1.63c4.08.17,8.15,0,12.22.18C238.52,203.73,241,203.79,242.74,206Z" transform="translate(99 99)"/><path class="cls-32" d="M189,35c-1.09,3-3.82,2.9-6.19,2.91q-31.76.12-63.5,0c-2.4,0-5,0-6.31-2.78,18.88-7,38.29-8.2,58-4.93C177.09,31.26,183,33.41,189,35Z" transform="translate(99 99)"/><path class="cls-85" d="M64.11,213a90.88,90.88,0,0,1-16.44-25.84c2.51-2.39,5.66-1.43,8.56-1.56s5.66-.11,8.48-.32a4.25,4.25,0,0,1,4.15,2.19,149.91,149.91,0,0,0,15.61,21.05,2.48,2.48,0,0,1,.62,2.74,4.19,4.19,0,0,1-3.74,2C75.6,213.37,69.84,214,64.11,213Z" transform="translate(99 99)"/><path class="cls-11" d="M236.92,68.34a75.22,75.22,0,0,1,15.2,23.43c-.17,3-2.61,2.52-4.36,2.63a81.6,81.6,0,0,1-12.31-.08,6.6,6.6,0,0,1-4.75-3.27,100.4,100.4,0,0,0-13.79-17c-1.24-1.21-3.43-2.65-1.18-4.9C222.71,66.67,229.81,67.24,236.92,68.34Z" transform="translate(99 99)"/><path class="cls-13" d="M236.92,68.34c-2.82,1.37-5.83.68-8.71.58-4.46-.15-8.8.64-13.18,1.07-8.54-4.39-16.27-10-24.14-15.5-.06,0,0-.31.07-.47,7.77-2.05,15.69-.54,23.53-1.05,1.62-.1,3.8.91,4.5-1.72A68.92,68.92,0,0,1,236.92,68.34Z" transform="translate(99 99)"/><path class="cls-88" d="M134,235.12c2.53,2.67-.21,1.85-1.3,1.86-9.94,0-19.89-.08-29.84.09-2.66,0-5.66-1.24-8,1.21a57.41,57.41,0,0,1-16.12-11.15c1.54-3,4.45-2.41,7-2.59,5.78-.39,11.64.73,17.36-.83a2.87,2.87,0,0,1,1.95-.12C114.5,228,124.58,230.7,134,235.12Z" transform="translate(99 99)"/><path class="cls-116" d="M242.74,206c-4.86-1.35-9.85-.9-14.8-1-1.74,0-3.73.67-5-1.23-.42-1.63.41-2.89,1.36-4A115.06,115.06,0,0,0,234,185.46c.8-1.32,1.37-3.18,3.63-2.53,3.57,2.29,7.59,1.58,11.49,1.72,1.93.07,3.92-.56,5.81.36A84.4,84.4,0,0,1,242.74,206Z" transform="translate(99 99)"/><path class="cls-18" d="M336,181v4c-1.19.64-2.73,1.45-2.39,2.83,1.27,5.11-2.13,5.12-5.39,5.14-9.58.07-19.17,0-28.75,0-2.23,0-4.28-.33-5.67-2.33a40.17,40.17,0,0,1,3.05-10,163.79,163.79,0,0,0,36.3-.07A3.48,3.48,0,0,1,336,181Z" transform="translate(99 99)"/><path class="cls-88" d="M196,225.2c2,2,4.5,1.69,7,1.84,6.25.37,12.58-1.09,18.74.89a47.63,47.63,0,0,1-14.51,10.19c-1.94-1.22-4.09-1.13-6.25-1.13-10.93,0-21.86,0-32.78,0-1.75,0-3.68.62-5.2-.89C173.86,232,184.81,228.24,196,225.2Z" transform="translate(99 99)"/><path class="cls-110" d="M336,181c-3.7,2.44-7.88,2-12,2H301c-1.81,0-3.82.32-4.19-2.32a23,23,0,0,1,2-7.72L336,173Z" transform="translate(99 99)"/><path class="cls-104" d="M55.86,282.3c1.28-1.92,3.27-1.26,5-1.27,8-.06,15.92,0,23.89,0,1.95,0,4.08.39,5.21-1.91l24,9c-1.38,1.37-3.13.84-4.73.85q-14.4.06-28.81,0c-4.13,0-8.25-.07-12.29,1C63.8,287.81,59.42,285.71,55.86,282.3Z" transform="translate(99 99)"/><path class="cls-115" d="M104,224.2c-1.37,2.35-3.68,1.65-5.75,1.81-6.5.52-13.12-1.22-19.51,1.12C73,223.31,68.39,218.28,64.11,213c5.1-1.94,10.4-.55,15.59-.93,1.94-.14,4,.33,5.29-1.75a1.22,1.22,0,0,1,1.77-.12C92.37,215,99.1,218.48,104,224.2Z" transform="translate(99 99)"/><path class="cls-107" d="M263.11,154.34a.41.41,0,0,1-.05.66c-5.35,2.68-10.87,1.6-16.39.79a2.19,2.19,0,0,1-1.15-1.34c0-3.51.27-7,0-10.54.44-4.53-2.25-9.07,0-13.6,3.48-.15,6.62,1.85,10.26,1.4,2.63-.33,5.16-.44,7.37-2.06,1.22,4.41,1.12,8.88.74,13.37C262.79,146.73,264.15,150.62,263.11,154.34Z" transform="translate(99 99)"/><path class="cls-78" d="M39.09,155a65.28,65.28,0,0,1-.21-23.28c.4.3.9.65.91,1.13.19,5.52,3.68,6,8.14,5.79,3.16-.15,5.46-.69,6.22-4.19.22-1,.9-2.41,2.43-1,1.94,6.76.65,13.66.9,20.49,0,4-2.35,5.54-6.08,5.55-2.33,0-4.65,0-7,0C41.29,159.55,39.41,158.24,39.09,155Z" transform="translate(99 99)"/><path class="cls-82" d="M246,155h17.08A42.14,42.14,0,0,1,260,171c-.61,1.13-.83,2.77-2.39,2.93-5.36.54-10.81,1.89-15.93-1.11A27.62,27.62,0,0,1,246,155Z" transform="translate(99 99)"/><path class="cls-117" d="M55.89,133c-.46,5.14-2.23,7.8-8.42,7.2-8.19-.8-8.25-.2-8.59-8.46a50.39,50.39,0,0,1,2-14.08,10.91,10.91,0,0,0,8.46,3c2.71-.1,5.58-.57,8,1.27C59,125.87,59.07,129.65,55.89,133Z" transform="translate(99 99)"/><path class="cls-69" d="M49.86,91.73c3.38,2.59,7.27.81,10.9,1.22a69.94,69.94,0,0,0,7.39.1c-.44,6.78-3.56,12.25-8.27,17-4.08.89-8.2.65-12.3.34-2-.15-4.7-.18-3.69-3.65A40.89,40.89,0,0,1,49.86,91.73Z" transform="translate(99 99)"/><path class="cls-118" d="M233.8,93.06c4.61,0,9.21,0,13.81-.08,1.59,0,3.36.48,4.51-1.21,3.48,4.11,3.71,9.56,5.89,14.2,1.38,3.26-.73,4.15-3.22,4.35a48.71,48.71,0,0,1-12.65-.23A25.61,25.61,0,0,1,233.8,93.06Z" transform="translate(99 99)"/><path class="cls-82" d="M39.09,155c1,1.94,2.24,3.36,4.88,3a37.83,37.83,0,0,1,7.89,0c3.31.3,4.51-1.16,4.23-4.26.48.12,1.14.15,1.25.65,1.32,6,4.06,11.77,3.15,18.16-5.12,3.47-10.68,1.8-16.11,1.31-1.51-.14-1.77-1.75-2.34-2.9C40,165.88,39.45,160.46,39.09,155Z" transform="translate(99 99)"/><path class="cls-119" d="M42,171c5.9,3.48,12,2.46,18.08.73,4.06,3.85,5.16,9,6.14,14.18-6.08,2.31-12.42.43-18.59,1.18A62.41,62.41,0,0,1,42,171Z" transform="translate(99 99)"/><path class="cls-119" d="M241.83,171.66c6.13,1.89,12.22,2.8,18.15-.66a55.3,55.3,0,0,1-5.08,14c-4.91,1.92-10,.87-15,.72a2.9,2.9,0,0,1-2.93-2.79A12.26,12.26,0,0,1,241.83,171.66Z" transform="translate(99 99)"/><path class="cls-87" d="M43.89,106.71c.34,2.66,2.37,2.28,4.15,2.28,4.29,0,8.58,0,12.87,0a13.59,13.59,0,0,1-3.66,13.07c-3.79,0-7.59-.19-11.38,0-3.24.15-5.09-.91-5-4.38A30.36,30.36,0,0,1,43.89,106.71Z" transform="translate(99 99)"/><path class="cls-87" d="M241.06,109c4.57,0,9.13-.07,13.69,0,2.24,0,3.43-.71,3.26-3.06a29.21,29.21,0,0,1,3.11,10.65c1.34,4.13-.52,5.83-4.51,5.88-3.6,0-7.21.34-10.78-.33C241.23,118.88,240.37,114.22,241.06,109Z" transform="translate(99 99)"/><path class="cls-117" d="M244.59,121.14c4,0,7.95-.32,11.9-.07,3.46.22,4.93-1,4.63-4.45a45,45,0,0,1,2.05,13c-.18.81-.09,1.87-.57,2.38-2.35,2.46-14.53.89-16.53-2C243.06,127.47,243.17,124.42,244.59,121.14Z" transform="translate(99 99)"/><path class="cls-82" d="M263.11,154.34c.2-3.78-1-7.66.8-11.32C264,146.82,264.39,150.64,263.11,154.34Z" transform="translate(99 99)"/><path class="cls-29" d="M168,291.09c-2.28,1.76-4.87.61-7.32.81C163,290.79,165.51,291.09,168,291.09Z" transform="translate(99 99)"/><path class="cls-24" d="M132-8.08c2.25-1.77,4.83-.61,7.26-.84A17.7,17.7,0,0,1,132-8.08Z" transform="translate(99 99)"/><path class="cls-29" d="M142.35,291.9c-2.45-.19-5,.93-7.32-.79C137.5,291.08,140,290.81,142.35,291.9Z" transform="translate(99 99)"/><path class="cls-120" d="M-11-93l-1.9-.19V-94H328v1a2.46,2.46,0,0,1-3,0h-8c-1.73.92-3.6.46-5.4.46q-154.61,0-309.2,0c-1.8,0-3.67.46-5.4-.46Z" transform="translate(99 99)"/><path class="cls-95" d="M-3-93H317c-1.48,1.64-3.43,1-5.18,1Q157-92,2.18-92C.43-92-1.52-91.36-3-93Z" transform="translate(99 99)"/><path class="cls-95" d="M325-93h3c.38.2,1.6.34.77.77A2.89,2.89,0,0,1,325-93Z" transform="translate(99 99)"/><path class="cls-63" d="M-82-43c0,7,0,7,7,7q201.68,0,403.36.12c2.54,0,7.35-2.42,7.43,2.62s-4.61,4.24-8,4.24Q125.31-29-77.13-29c-3.56,0-7.27-.88-10.61,1.61-1.22.9-3,.53-3.26-1.65,7.81-3.52,3.92-11.82,6.77-17.64C-82.7-45.53-84.79-42.8-82-43Z" transform="translate(99 99)"/><path class="cls-63" d="M179-51c.8,5-1.7,6.09-6.3,6.08Q52.85-45.08-67-45c1.34-5.42,1.34-5.42-7.16-6.38.41-2.38,2.18-2.59,4-2.61,2.5,0,5,0,7.5,0H171.26C174.23-54,177.41-54.55,179-51Z" transform="translate(99 99)"/><path class="cls-63" d="M-67-43c.24,2.82-1.58,3.72-3.88,3.94-2.85.27-4.68-1-5.12-3.94Z" transform="translate(99 99)"/><path class="cls-114" d="M336,280c-.95.45-1.95,1.18-1.84,2.17.66,6.24-3.41,6-7.63,5.86-4.83-.13-9.66,0-14.49,0-.21-5,.25-10.07-.94-15,5.75-2,11.71-.77,17.56-.87,3.28-.06,5.34-1,6.34-4.11.33-.45.67-.45,1,0Z" transform="translate(99 99)"/><path class="cls-17" d="M336,268h-1c.24-1.68-.67-3.6,1-5Z" transform="translate(99 99)"/><path class="cls-121" d="M-94,125v40h-1c-1.07-11.7-.21-23.43-.45-35.14,0-1.62-.42-3.31.45-4.86l0-16c.33-.45.65-.48,1,0Z" transform="translate(99 99)"/><path class="cls-122" d="M-94,109h-1V54.23h1Z" transform="translate(99 99)"/><path class="cls-123" d="M-95,125v40c-1.62-1.47-.95-3.42-1-5.17-.06-11.61,0-23.22,0-34.83Z" transform="translate(99 99)"/><path class="cls-8" d="M341,386l10-2c-3.06,7.08-9.65,7.87-15.87,7.89q-103.42.25-206.86.11c-50,0-99.94.11-149.9-.15-5.92,0-12.57-.73-15.37-7.85,3.5-.16,6.65,1.41,10,2l1,.11c3.8,1.95,7.84,2.44,12.09,2.44q170.94-.07,341.88,0c4.25,0,8.3-.44,12.09-2.44Z" transform="translate(99 99)"/><path class="cls-8" d="M-43,387a2.44,2.44,0,0,1-.48-.05c-2.45-1-5.77-3.22-4.63-5.05,1.41-2.24,4.93-1,7.11,1.1C-43.68,383.33-42.81,385.43-43,387Z" transform="translate(99 99)"/><path class="cls-8" d="M-38,394c-4.24.14-5.52-2.18-5-6C-40,388.92-36.93,389.72-38,394Z" transform="translate(99 99)"/><path class="cls-105" d="M365,373c-3.33,5.31-9.49,5.52-14.41,8-3.24,1.6-7.28,1.65-9.59,5h0a30.56,30.56,0,0,1-13.13,2.48q-170.86,0-341.74,0A30.56,30.56,0,0,1-27,386h0c-2.31-3.39-6.35-3.44-9.59-5-4.92-2.44-11.08-2.65-14.41-8-1.7-1.06-4.7-.85-4-4.19,1.32-.77,2.45-.16,3.6.47a63.44,63.44,0,0,0,6.27,3.58c8.82,5.45,18.51,7.14,28.68,6.75,2.5-.1,5-.16,7.49-.16H323.33c6.46,0,12.87.5,19.39-.55,7-1.11,13.2-3,18.07-8.37a6.69,6.69,0,0,1,5.85-2.2,3,3,0,0,1,1.58.73C369.18,372,366.55,372.07,365,373Z" transform="translate(99 99)"/><path class="cls-124" d="M-55,369c.69,2,2.8,2.53,4,4a20.34,20.34,0,0,0-2.47,0c-2.31.28-5.53-1.29-5.6,3.29-.06,3.77,1.53,5.15,5.68,4.58-1.31,2.25-2.83,4.19-.61,6.11-5.56,0-6.21-5.39-8.85-8.48-1.26-1.47-1.9-3.32-4.15-3.52a1.82,1.82,0,0,0-2-2c-1.85-3.79.59-7,1.56-10.36.55-1.88,2.52-1.26,3.72-.27A17.5,17.5,0,0,0-56.77,366C-55.67,366.67-54.52,367.37-55,369Z" transform="translate(99 99)"/><path class="cls-125" d="M-95,205c0-8.95,0-17.9,0-26.84,0-1.75-.66-3.69,1-5.16,1.89,2.9,1.09,6.18.9,9.21-.47,7.59.06,15.22-.9,22.79h-1Z" transform="translate(99 99)"/><path class="cls-121" d="M-94,205V165a2.93,2.93,0,0,0,1-2.68c-.3-10.79,1.75-21.51,1-32.32a6.71,6.71,0,0,0,4-1c1.25,2.9-1.53,6.24,1,9-.1,2.77-1.47,5.38-1,8.22.08.47.09,1.25-.17,1.42-7,4.55-2.53,11.59-3.8,17.36.67,12.47-1,24.87-1,37.32A3,3,0,0,1-94,205Z" transform="translate(99 99)"/><path class="cls-126" d="M-97,205V173c1.63,1.47,1,3.42,1,5.16.06,8.94,0,17.89,0,26.84Z" transform="translate(99 99)"/><path class="cls-127" d="M-91,196c3.92-1.85,2-6.31,4-9,1.37,3-.06,5.7-.58,8.59-.61,3.39-.32,6.93-.42,10.41.33,5.1-.58,10.24.56,15.34.45,2-.94,3.71-2.35,5.26-2.45-1.26-.08-4.33-2.21-5.59C-92.67,212.63-91,204.35-91,196Z" transform="translate(99 99)"/><path class="cls-124" d="M365,373l3-3c2-4.69,7.32-5.13,10.66-8.13a1.73,1.73,0,0,1,2.85.79c.76,3.4,3.34,6.57,1.49,10.34a1.82,1.82,0,0,0-2,2c-4.43.74-4.61,5.31-7,7.92-1.76,2-2.94,4.27-6,4.08,1.68-1.87,2-3.68-.71-5.12,1.85-1.5,4.23-.22,5.2-2.2a7.33,7.33,0,0,0,.26-5.31c-.56-1.94-2.42-1.24-3.8-1.35S366.32,373,365,373Z" transform="translate(99 99)"/><path class="cls-128" d="M-55,369a3.46,3.46,0,0,0-2-2c-.85-1.63-3.08-2.47-2.72-4.79A2.43,2.43,0,0,1-59,361c.5,0,1.29-.16,1.45.09,2.81,4.19,8.18,4.52,11.52,7.67A7.38,7.38,0,0,0-40.41,371q197.42,0,394.82,0A8.52,8.52,0,0,0,360,368.8c4-3.06,8.6-5.25,13-7.8a2.62,2.62,0,0,1,.79,1.22c.19,4.07-3.84,4.53-5.79,6.78-3.5.48-5.91,2.16-8.34,5-3.38,3.94-8.8,5.05-13.81,5.89-3.41.57-6.9.73-10.14,2-2.59,1-4.54-1-7-1-114.5.16-229,.05-343.48.3A79.76,79.76,0,0,1-41.41,377c-2.31-.8-3.9-2.43-5.59-4-1.55-1.2-2.82-2.85-5-3Z" transform="translate(99 99)"/><path class="cls-105" d="M-59,361v1c-5.37.06-9.26-4.32-8-9h0C-63.24,354.58-61.67,358.33-59,361Z" transform="translate(99 99)"/><path class="cls-105" d="M373,362v-1c2.67-2.67,4.24-6.42,8-8h0C382.2,357.51,378.16,362.05,373,362Z" transform="translate(99 99)"/><path class="cls-102" d="M-67,353c.09,5.29,4.26,6.95,8,9l2,5a9.24,9.24,0,0,1-7.07-3.47c-1.47-1.8-3.09-1.7-2.85,1.05.27,3.13-3,5.24-2.08,8.42-3.11-3.75-6.37-7.41-5-12.93.47-1.91-1.32-2.76-2.13-4.11-1.3-2.14-1.73-4.83.24-6.78,2.34-2.31,3.73.28,5.22,1.63C-69.61,351.8-68.69,353-67,353Z" transform="translate(99 99)"/><path class="cls-129" d="M373,362c3.64-2.13,7.68-3.91,8-9a9,9,0,0,0,4.79-4.11c.64-1.11,1.79-2.34,3.25-1.17,1.18.93,3.78,1.63,2.61,3.6-4,6.8-2.06,16-8.65,21.68.69-3.42-2.55-5.88-2.19-9.36.18-1.79-1.57-1.51-2.33-.5-2.7,3.56-7.58,3.68-10.48,6.86v-1C368.85,366.08,373.35,365.78,373,362Z" transform="translate(99 99)"/><path class="cls-87" d="M-91,111c-.33,2,.81,4.24-1,6,0-2.23,0-4.45,0-6.68,0-.09.2-.18.3-.28Z" transform="translate(99 99)"/><path class="cls-50" d="M244.59,121.14l1.48,8.86.82,13.63c-1.1,3.38.29,7-.82,10.36l-.09,1q-2.07,8.33-4.15,16.66L237,182.94a187.42,187.42,0,0,1-14.08,20.8A133.52,133.52,0,0,1,196,225.2a124.36,124.36,0,0,1-33,10.88,116.36,116.36,0,0,1-29-1c-9.88-1.61-18.81-5.86-27.75-10.05-.73-.34-1.5-.58-2.25-.87-7-3.81-12.57-9.43-19-13.93-7.72-7-13.07-15.79-18.73-24.35q-3.08-7.09-6.14-14.18-2-9-4-18Q56,143.4,55.89,133q.68-5.46,1.36-10.93L60.91,109q3.62-8,7.24-16A109.2,109.2,0,0,1,98.28,61.13C116,50.7,135,45.3,155.7,46.12c12.23.49,23.88,3.59,35.26,7.9A134.63,134.63,0,0,1,215,70,148,148,0,0,1,233.8,93.06L241.06,109Z" transform="translate(99 99)"/><path class="cls-82" d="M246.07,154c.06-3.47-.2-7,.82-10.36C246.65,147.08,248,150.66,246.07,154Z" transform="translate(99 99)"/><path class="cls-130" d="M-27,386q184,2.49,368,0c-2.25,3.06-5.27,4.05-9.05,4.05q-174.94-.09-349.9,0C-21.73,390.05-24.75,389.06-27,386Z" transform="translate(99 99)"/><path class="cls-105" d="M-52,370c3.1-1.38,4,1,5,3C-49.13,372.78-50.52,371.3-52,370Z" transform="translate(99 99)"/><path class="cls-103" d="M346,375c1.29.31,3.56-.64,3.58,1.42,0,2.48-2.44,1.5-3.85,1.55s-4,.7-3.88-1.55C342,374.34,344.51,375.24,346,375Z" transform="translate(99 99)"/><path class="cls-112" d="M88.61,92.87c12.06-16,28.2-25.57,47.63-29.23,30-5.64,54.85,4.18,75.25,26.34a22.3,22.3,0,0,1,1.92,2.89c-2.12,2.22-4.91,1.71-7.49,1.72-14.09.06-28.18.11-42.27-.13-5.6.52-11.09-1.66-16.72-.71a24,24,0,0,1-7.9.85c-14.3,0-28.6.05-42.9,0C93.54,94.57,90.74,95.1,88.61,92.87Z" transform="translate(99 99)"/><path class="cls-85" d="M120.91,214.22A65.43,65.43,0,0,1,92,194c2-2,4.63-1.58,7.07-1.59,13.12-.06,26.24.26,39.34-.09,21.72-.57,43.43.75,65.14.21,2.28-.05,4.71-.43,6.57,1.5A65.71,65.71,0,0,1,182,214C161.64,213.45,141.27,213,120.91,214.22Z" transform="translate(99 99)"/><path class="cls-131" d="M162.72,93.13l50.69-.26a58.69,58.69,0,0,1,12.62,23c1.43,4.27-1.74,4.47-4.36,4.52-8.32.15-16.65.51-25-.2-2.34-.44-3.62-2.21-4.74-4.06-6-9.93-14.88-16.17-25.52-20.24C165,95.37,163.11,95.2,162.72,93.13Z" transform="translate(99 99)"/><path class="cls-69" d="M88.61,92.87c18,0,35.92.11,53.88.09a30.7,30.7,0,0,0,4.89-.78,15,15,0,0,1,4,11.2c.25,4.56-2.26,6.18-6.44,6.19-19.57.05-39.15.12-58.72,0-2.48,0-5-.22-6.64-2.64A43.68,43.68,0,0,1,88.61,92.87Z" transform="translate(99 99)"/><path class="cls-87" d="M79.57,106.88A30,30,0,0,0,88.9,108c18.3-.06,36.61-.25,54.91.11,5.17.1,7-1.47,6.3-6.38,2.09.52,2.26,2.34,2.25,3.91,0,5.31,1.22,11-3.7,15.12a13,13,0,0,1-5.38.81q-30.16,0-60.32,0a13.79,13.79,0,0,1-4.44-.5c-2.1-.73-3.52-1.95-2.65-4.47C76.4,113.11,78.07,110,79.57,106.88Z" transform="translate(99 99)"/><path class="cls-111" d="M75.87,116.63c.31,3.62,3,3.38,5.52,3.38q33.71,0,67.41,0c.08,6.24-4.54,12.15-10.22,13.08-18.89-1.11-37.79-.19-56.68-.51-2.8-.05-5.66.4-8.32-.94l-.67-.68A32.82,32.82,0,0,1,75.87,116.63Z" transform="translate(99 99)"/><path class="cls-96" d="M229.91,145c-.2,9.84-2,19.28-6.67,28.07a6.22,6.22,0,0,1-3.17,1.28c-9.21.3-18.41.48-27.62-.11a4.38,4.38,0,0,1-2.25-.92c-1.53-1.68-.94-3.43.08-5a57.64,57.64,0,0,0,7.48-17.15,4.08,4.08,0,0,1,2.73-3.24c5.73-.91,11.5-.37,17.25-.41C222,147.52,226.23,147.7,229.91,145Z" transform="translate(99 99)"/><path class="cls-132" d="M210.11,194,92,194c-3.27-3.23-6.25-6.66-8-11,4.57-1.25,9.22-.27,13.83-.49,8.42-.4,16.89.67,25.29-.64,2.28-.85,4.11.37,6,1.33,5.87,3,11.86,5.53,18.56,5.86a9.66,9.66,0,0,0,6.64,0c1.91-.39,3.81-1,5.74-.09s4.25.58,6.39.57c12.6-.12,25.21-.07,37.82,0,2.76,0,5.74-.27,7.67,2.49A3.15,3.15,0,0,1,210.11,194Z" transform="translate(99 99)"/><path class="cls-133" d="M75.12,163c-3-10.53-4.25-21.18-2.21-32.06l.21.15c2.17,3,1.28,6.42,1.31,9.67s1.23,4.87,4.7,4.78c5-.13,10-.09,15,0,3.32.05,5.41-1,5.54-4.7,0-1.58.09-3.44,2.2-4,.27.21.68.42.7.68.84,8.21,3.19,16.14,4.3,24.31-.73,2.08-2.53,2.54-4.37,2.61-7.91.31-15.82.27-23.74,0A5.28,5.28,0,0,1,75.12,163Z" transform="translate(99 99)"/><path class="cls-107" d="M229.91,145c-.95,2.93-2.53,4.27-6,4.1-8-.38-16-.13-23.95-.14-2.45-6.13-1.63-12.47-1.26-18.79,6.88-.3,13.73.65,20.62.37a60.1,60.1,0,0,0,9.85-.86C230.67,134.74,230.22,139.88,229.91,145Z" transform="translate(99 99)"/><path class="cls-110" d="M189.8,171.59c1.23,2,3.23,1.37,5,1.39,9.49.07,19,.08,28.46.11a23,23,0,0,1-5.16,9.93,5.85,5.85,0,0,1-5.19,2.45c-10,.12-20,.16-30,0a6.16,6.16,0,0,1-4.58-1.62,2.08,2.08,0,0,1,.09-3.09C182.17,177.63,185,173.42,189.8,171.59Z" transform="translate(99 99)"/><path class="cls-110" d="M124,182.11c-.21,1.41-1.11,1.89-2.44,1.88-11.6,0-23.19,0-34.78-.07A9.88,9.88,0,0,1,84,183a22.35,22.35,0,0,1-5.12-10c1.84-1.88,4.25-1.55,6.5-1.56,8.71,0,17.42-.08,26.12,0C117.13,173.26,120.74,177.48,124,182.11Z" transform="translate(99 99)"/><path class="cls-111" d="M229.14,129.7c-.25,1.88-1.48,2.32-3.17,2.31-7.27,0-14.54,0-21.8,0-1.91,0-3.41-1.16-5-2-2.74-3.16-4.8-6.56-4-11,8.83,0,17.67,0,26.5,0,2.22,0,4.56.27,4.34-3.1A31.67,31.67,0,0,1,229.14,129.7Z" transform="translate(99 99)"/><path class="cls-115" d="M120.91,214.22c2-2.05,4.65-2.22,7.32-2.22,15.23,0,30.46,0,45.69,0a19.94,19.94,0,0,1,8.09,2Q151.5,226.51,120.91,214.22Z" transform="translate(99 99)"/><path class="cls-108" d="M178,182.19c.86,1.48,2.21,1.83,3.82,1.82,10.81,0,21.62,0,32.43-.06a16.5,16.5,0,0,0,3.82-.93c-1.11,3.64-3.78,6.2-6.17,9a25.54,25.54,0,0,0-7.79-1q-20.09.1-40.15,0c-1.75,0-4.17,1.13-5-1.78C165.44,187.11,171.3,183.5,178,182.19Z" transform="translate(99 99)"/><path class="cls-82" d="M113,172.23c-4.49,1.71-9.14.56-13.72.71-6.78.23-13.58.09-20.37.1a28.06,28.06,0,0,1-3.74-10c8.88,0,17.77,0,26.65,0,1.68,0,3.83.67,4.26-2C109.67,163.88,112.53,167.31,113,172.23Z" transform="translate(99 99)"/><path class="cls-50" d="M113,172.23q-3.47-5.65-6.92-11.3c-2.71-7.73-4.93-15.52-3.8-23.85,1.25-1.09,2.54-.49,3.73,0,10.89,4.67,21.08,3,30.76-3.31a18.7,18.7,0,0,1,3.61-1.66c4.43-2.92,6.65-7.39,8.47-12.14a25.9,25.9,0,0,0,1.31-18.23c.34-3.55-2.6-6.16-2.73-9.58l15.34.95C176.86,97.59,188,105.86,195.19,119l4,11c1.29,6.28,1.07,12.63.77,19a67,67,0,0,1-10.13,22.61A99.56,99.56,0,0,1,178,182.19c-6,3.17-11.9,6.77-19,7l-5,.93a9.93,9.93,0,0,1-6,0c-9,.34-16.39-4.2-24-8C119.85,179.33,116.6,175.55,113,172.23Z" transform="translate(99 99)"/><path class="cls-107" d="M140.33,132.13c-7.79,8.46-22.19,11.38-33.5,6.78-1.53-.62-3.06-1.22-4.6-1.83-1.71.91-1.36,2.59-1.18,4,.64,5-1.75,6.28-6.33,6-5.76-.31-11.56-.26-17.33,0-3.57.15-4.66-1.21-4.44-4.59.25-3.78.13-7.59.17-11.39,20.46,0,40.92-.09,61.38,0A32.44,32.44,0,0,1,140.33,132.13Z" transform="translate(99 99)"/><path class="cls-85" d="M148,190.09h6A4.81,4.81,0,0,1,148,190.09Z" transform="translate(99 99)"/></svg>