<svg id="图层_1" data-name="图层 1" xmlns="http://www.w3.org/2000/svg" viewBox="0 0 512 386.33"><title>wifi</title><path d="M-334,35c8-18.37,24.26-29,38.93-40.84,34.56-27.86,73.5-47.73,116-60.55A347.11,347.11,0,0,1-59.75-80.77,348,348,0,0,1,84.86-41.2a338.43,338.43,0,0,1,84.75,62.59c3.64,3.7,5.63,9,8.39,13.61V46a10.86,10.86,0,0,0-1.63,2.26c-7.75,20.69-30.18,25.88-46.08,10.2A294.85,294.85,0,0,0,21.34-10,291.5,291.5,0,0,0-46.08-25.19a296.08,296.08,0,0,0-124.52,13C-214.09,2-252.39,24.9-284.61,57.21c-18.08,18.13-43.56,9.31-48.21-9.84-.13-.52-.78-.92-1.18-1.37Z" transform="translate(334 81.27)"/><path d="M-70.43,25c59,1.23,116.52,24.23,164.19,70.9,11.17,10.93,11.49,27.37,1,38.53-10.15,10.82-25.92,11.49-37.66,1C44.2,124,31.05,112.84,15.85,104.26A187.06,187.06,0,0,0-46.79,82.17a189.72,189.72,0,0,0-81.11,4.06,188.75,188.75,0,0,0-79.79,44.47c-4.65,4.33-10.08,8.56-15.93,10.7-11.67,4.27-24.39-1.11-30.67-11.48a26.79,26.79,0,0,1,4-33.46q49.62-49.51,118-65.24C-114.4,27.07-96.23,25.11-70.43,25Z" transform="translate(334 81.27)"/><path d="M-80.94,129.75c41,1,73.67,13.95,100.64,40.58C30,180.52,31,195.4,22.49,206.55A26.21,26.21,0,0,1-12.4,213c-6.42-4-11.9-9.51-18-14.06-26.09-19.44-69.1-19.47-95.11-.08-4.92,3.66-9.58,7.66-14.34,11.53-11.92,9.71-28,8.47-38-2.93-9.41-10.78-8.32-27.73,2.39-37.89,20.15-19.11,43.7-31.81,71-37.09C-95.69,130.78-86.66,130.39-80.94,129.75Z" transform="translate(334 81.27)"/><path d="M-41.91,269.1a36,36,0,0,1-36.22,36,36,36,0,0,1-36-36.22,36.09,36.09,0,0,1,36.22-35.92A36.08,36.08,0,0,1-41.91,269.1Z" transform="translate(334 81.27)"/></svg>