<svg id="图层_1" data-name="图层 1" xmlns="http://www.w3.org/2000/svg" viewBox="0 0 694 526.5"><defs><style>.cls-1{fill:#f2c81b;}.cls-2{fill:#fad231;}.cls-3{fill:#f4cc28;}.cls-4{fill:#f7cf2d;}.cls-5{fill:#efc525;}.cls-6{fill:#f0d12d;}.cls-7{fill:#c2a431;}.cls-8{fill:#cca724;}.cls-9{fill:#f1c725;}.cls-10{fill:#f7d73e;}.cls-11{fill:#fcf6b8;}.cls-12{fill:#d6ad18;}.cls-13{fill:#deb71b;}.cls-14{fill:#fbf0af;}.cls-15{fill:#d3b956;}.cls-16{fill:#fbf6bd;}.cls-17{fill:#ebe2aa;}.cls-18{fill:#eae1a8;}.cls-19{fill:#cda70d;}.cls-20{fill:#ead080;}.cls-21{fill:#d5b446;}.cls-22{fill:#fcd32e;}.cls-23{fill:#f7a82b;}.cls-24{fill:#fba617;}.cls-25{fill:#e1ac36;}.cls-26{fill:#f4e036;}.cls-27{fill:#fad23f;}.cls-28{fill:#f5d758;}.cls-29{fill:#f0d966;}.cls-30{fill:#f3d53a;}.cls-31{fill:#f6d733;}.cls-32{fill:#e5a738;}.cls-33{fill:#f6a836;}.cls-34{fill:#f7a71b;}.cls-35{fill:#f3d75e;}.cls-36{fill:#f5aa38;}.cls-37{fill:#edb45d;}.cls-38{fill:#f6d543;}.cls-39{fill:#ecb25d;}.cls-40{fill:#f5e586;}.cls-41{fill:#facf4b;}.cls-42{fill:#f4d964;}.cls-43{fill:#e4b563;}.cls-44{fill:#c8aa28;}.cls-45{fill:#caa81a;}.cls-46{fill:#cbaa2b;}.cls-47{fill:#c8a924;}.cls-48{fill:#c4ab52;}.cls-49{fill:#c8ac3f;}.cls-50{fill:#c5b144;}.cls-51{fill:#c7ac3d;}.cls-52{fill:#c3ad23;}.cls-53{fill:#c9a914;}.cls-54{fill:#daca7d;}.cls-55{fill:#f2c81d;}.cls-56{fill:#f4c618;}.cls-57{fill:#f4c51f;}.cls-58{fill:#f0c727;}.cls-59{fill:#f0c914;}.cls-60{fill:#eec722;}.cls-61{fill:#f3c622;}.cls-62{fill:#efc521;}.cls-63{fill:#efc31e;}.cls-64{fill:#d1ac1f;}.cls-65{fill:#f4ca1f;}.cls-66{fill:#d3a229;}.cls-67{fill:#d0ab1a;}.cls-68{fill:#f2c528;}.cls-69{fill:#d8b507;}.cls-70{fill:#e6d007;}.cls-71{fill:#fbd12a;}.cls-72{fill:#facf29;}.cls-73{fill:#f9cf26;}.cls-74{fill:#fbd22d;}.cls-75{fill:#f9ce28;}.cls-76{fill:#fbd22c;}.cls-77{fill:#f9cf27;}.cls-78{fill:#fad426;}.cls-79{fill:#f6cd23;}.cls-80{fill:#f8ce25;}.cls-81{fill:#f7ce24;}.cls-82{fill:#d3b206;}.cls-83{fill:#fbcc27;}.cls-84{fill:#f9d114;}.cls-85{fill:#cdaa2e;}.cls-86{fill:#fddb1b;}.cls-87{fill:#efd83e;}.cls-88{fill:#fcd32a;}.cls-89{fill:#fdd036;}.cls-90{fill:#fdd226;}.cls-91{fill:#f8d525;}.cls-92{fill:#fcd42d;}.cls-93{fill:#f8d435;}.cls-94{fill:#fbd629;}.cls-95{fill:#fed038;}.cls-96{fill:#f8d820;}.cls-97{fill:#fdca2f;}.cls-98{fill:#fdd525;}.cls-99{fill:#fad337;}.cls-100{fill:#fcd626;}.cls-101{fill:#f9d23b;}.cls-102{fill:#fcd71a;}.cls-103{fill:#fdd037;}.cls-104{fill:#f9db15;}.cls-105{fill:#fcd715;}.cls-106{fill:#fbd51a;}.cls-107{fill:#e8c116;}.cls-108{fill:#f4de0d;}.cls-109{fill:#fec848;}.cls-110{fill:#f6d61b;}.cls-111{fill:#f5a52a;}.cls-112{fill:#f0ab23;}.cls-113{fill:#eea92f;}.cls-114{fill:#fea215;}.cls-115{fill:#e8aa38;}.cls-116{fill:#f1a227;}.cls-117{fill:#e49721;}.cls-118{fill:#da8a14;}.cls-119{fill:#f4a02a;}.cls-120{fill:#f4a523;}.cls-121{fill:#d68d08;}.cls-122{fill:#fcd51b;}.cls-123{fill:#f8de05;}.cls-124{fill:#fed60b;}.cls-125{fill:#f5da21;}.cls-126{fill:#fbd51d;}.cls-127{fill:#faa522;}.cls-128{fill:#fbac06;}.cls-129{fill:#fe9e0c;}.cls-130{fill:#f3a329;}.cls-131{fill:#f89e3f;}.cls-132{fill:#c7a623;}.cls-133{fill:#bba823;}.cls-134{fill:#c6ad0a;}.cls-135{fill:#d4a22d;}.cls-136{fill:#ccac0f;}.cls-137{fill:#c9a52e;}.cls-138{fill:#c9a722;}.cls-139{fill:#cbac04;}.cls-140{fill:#c0ac12;}.cls-141{fill:#c0b520;}.cls-142{fill:#caa71b;}.cls-143{fill:#cea808;}.cls-144{fill:#cdaa0d;}.cls-145{fill:#bcad19;}.cls-146{fill:#f2c81a;}.cls-147{fill:#d6a039;}.cls-148{fill:#fad025;}.cls-149{fill:#fccc32;}.cls-150{fill:#fcc82f;}.cls-151{fill:#f7d327;}.cls-152{fill:#f3d420;}.cls-153{fill:#ddb10c;}.cls-154{fill:#e29c13;}.cls-155{fill:#f7cf29;}.cls-156{fill:#fbc82c;}.cls-157{fill:#fcca32;}.cls-158{fill:#e8981e;}.cls-159{fill:#d89d08;}.cls-160{fill:#fbc52b;}.cls-161{fill:#fbcd29;}.cls-162{fill:#f3c229;}.cls-163{fill:#fac62c;}.cls-164{fill:#f6cd30;}.cls-165{fill:#f6d01f;}.cls-166{fill:#f3d421;}.cls-167{fill:#fdc933;}.cls-168{fill:#fcce1a;}.cls-169{fill:#e09f1b;}.cls-170{fill:#fcc93b;}.cls-171{fill:#fec941;}.cls-172{fill:#fbd23c;}.cls-173{fill:#f4da05;}.cls-174{fill:#f3a526;}.cls-175{fill:#f6a12f;}.cls-176{fill:#fea31e;}.cls-177{fill:#eda819;}.cls-178{fill:#e4a93a;}.cls-179{fill:#eda322;}.cls-180{fill:#f1a127;}.cls-181{fill:#ef9f33;}.cls-182{fill:#ed951d;}.cls-183{fill:#f39a20;}.cls-184{fill:#e49222;}.cls-185{fill:#e89016;}.cls-186{fill:#db9e0c;}.cls-187{fill:#ec9c2a;}.cls-188{fill:#c6a819;}.cls-189{fill:#caa729;}.cls-190{fill:#c7a319;}.cls-191{fill:#c4a625;}.cls-192{fill:#c5a910;}.cls-193{fill:#cba529;}.cls-194{fill:#d49d31;}.cls-195{fill:#c6a43a;}.cls-196{fill:#efa025;}.cls-197{fill:#eba41f;}.cls-198{fill:#ee9e24;}.cls-199{fill:#ea9f1e;}.cls-200{fill:#e09d13;}.cls-201{fill:#e8a41a;}.cls-202{fill:#e69a1b;}.cls-203{fill:#e7961c;}.cls-204{fill:#e59519;}.cls-205{fill:#db970e;}.cls-206{fill:#e9931e;}.cls-207{fill:#dd9913;}.cls-208{fill:#fdca31;}.cls-209{fill:#e3971a;}.cls-210{fill:#cda401;}.cls-211{fill:#f0a025;}.cls-212{fill:#e8a41f;}.cls-213{fill:#eca521;}.cls-214{fill:#f39e1c;}.cls-215{fill:#f69a2c;}.cls-216{fill:#e49e1b;}.cls-217{fill:#eaa41d;}.cls-218{fill:#df9a11;}.cls-219{fill:#e69e17;}.cls-220{fill:#ea921a;}.cls-221{fill:#ef9d23;}.cls-222{fill:#ea9a20;}.cls-223{fill:#ec9c22;}.cls-224{fill:#ec9623;}.cls-225{fill:#ed9122;}.cls-226{fill:#e19715;}.cls-227{fill:#eb9412;}.cls-228{fill:#f09626;}.cls-229{fill:#eb9025;}</style></defs><title>文件夹</title><path class="cls-1" d="M-773.39,420.47v-8a6.9,6.9,0,0,1,1.7-1.05c6.61-.11,13.22-.53,19.83-.53q329.1-.09,658.21,0c2.81,0,5.67-.28,8.41.71,2.5,1.42,2.12,3.83,2,6.11-.06,1.78-1,3.51-.31,5.33,1,3.72-.16,7.55.61,11.28,0,4.29-1.56,7.7-5.57,9.65-3.08,1.5-3.08,4.82-4.32,7.35-.93,1.89-1.32,4.08-2.42,6a2.85,2.85,0,0,1-2.87,1.8c-1.91-.69-3.89-1.21-5.7-2a.48.48,0,0,1-.4-.55c-.2.49.44.59.49,1-.34,5-3.72,7.36-7.85,9a6.52,6.52,0,0,1-4.59-.56c-1.13-5.46-8.81-6.93-14.74-2.35-2.81.62-5.66.34-8.48.34q-289.87,0-579.75.06c-2.37,0-5-1-7.08,1.05-.84,1.93-.61,4.19-1.82,6-5.82-1.46-12.29-1.27-16.54-6.71a4.45,4.45,0,0,0-4.38-1.76c-1.69.28-2.28-.93-3-2.06-.46-.6-.89-1.27-1.84-.94a4.66,4.66,0,0,1-1.17.29,5,5,0,0,1-2.85-1.17,7.78,7.78,0,0,1-.82-1c-1-1.69-2.41-3.22-2.31-5.39a4.88,4.88,0,0,1,1.46-3.08c3.57-.12,3.58,3.19,5,5.16,1.17.67,1.75.17,2-1-.74.19-.81,2-2.1.86-2-3.76-.43-7.83-1-11.74-.41-2.94,0-5.88-2.91-8-1.67-1.24-.81-3.8-2-5.89-2.33,1.77-1.37,6.66-5.72,6.21a6.76,6.76,0,0,1-2.12-4.39c-.46-2.64-.57-5.29-3.66-6.48C-773.44,423.38-772.4,421.43-773.39,420.47Z" transform="translate(773.39 36.66)"/><path class="cls-2" d="M-79.39,18.47v148a1.1,1.1,0,0,1-1.54-.4c-1.82-5.52-.62-11.2-.89-16.8,0-.88,0-1.75,0-2.63,0-.58,0-1.16,0-1.74q-.08-5.25,0-10.5c0-.61,0-1.22-.07-1.83-.13-11.71-.18-23.41,0-35.11-.17-12.79-.22-25.59,0-38.37,0-1.25-.06-2.5,0-3.74-.13-6-.11-12,0-18,.13-1.58,0-3.16,0-4.73,0-.15,0-.39-.1-.45-4.19-2.94-3.24-5.76.17-8.54.23-1.34.2-2.71.5-4a3.46,3.46,0,0,1,.67-1.22A1,1,0,0,1-79.39,18.47Z" transform="translate(773.39 36.66)"/><path class="cls-3" d="M-79.39,285.47v129a1.05,1.05,0,0,1-1.49-.31,5.37,5.37,0,0,1-.82-2.46c-.25-4.09-.15-8.19-.12-12.28-.15-1.54,0-3.07,0-4.61-.15-35.6-.43-71.2.12-106.8a6.05,6.05,0,0,1,.69-1.8A1.64,1.64,0,0,1-79.39,285.47Z" transform="translate(773.39 36.66)"/><path class="cls-3" d="M-772.39,412.47h-1v-127a1.61,1.61,0,0,1,1.62.74,6.91,6.91,0,0,1,.69,1.8c.59,6.31.29,12.64.27,19-.05,29.29.23,58.58-.12,87.87,0,1.58.11,3.17,0,4.76C-771.21,403.91-769.73,408.42-772.39,412.47Z" transform="translate(773.39 36.66)"/><path class="cls-4" d="M-79.39,285.47h-1l-.61-.66c-1.11-2.28-.72-4.72-.84-7.12q-.25-15.88,0-31.77c0-.63,0-1.26,0-1.89q-.28-15.78,0-31.54-.27-20,0-40a28.44,28.44,0,0,1,.25-3.68,3.63,3.63,0,0,1,1.24-2.36h1Z" transform="translate(773.39 36.66)"/><path class="cls-4" d="M-772.4,285.47h-1v-95a1.29,1.29,0,0,1,1.63.21c2,4.14.46,8.5.79,12.76a93.66,93.66,0,0,1,0,9.48q.3,15.51,0,31c0,.62,0,1.25,0,1.88q.24,15.92,0,31.83c-.12,2.41.28,4.88-.84,7.17Z" transform="translate(773.39 36.66)"/><path class="cls-5" d="M-773.39,420.47c.51.81.88,2.2,1.55,2.36,6.83,1.61,3.81,7.7,5.44,11.63a9.6,9.6,0,0,1-3.17,3.32,1.59,1.59,0,0,1-1.25-.45,6.64,6.64,0,0,1-1-2.62c-1.16-2.62.3-5.75-1.57-8.24Z" transform="translate(773.39 36.66)"/><path class="cls-6" d="M-772.36,190.5l-1,0v-3c1.59-2.47.25-5.95,2.8-8.08l.68-5.9a2.61,2.61,0,0,1,1.85-1.39,1.55,1.55,0,0,1,1.29.8c.92,2,.65,4.11.72,6.19.76,4.63-2.64,7.77-4.17,11.58A1.82,1.82,0,0,1-772.36,190.5Z" transform="translate(773.39 36.66)"/><path class="cls-7" d="M-770.44,434.49l.13,3c2.68,3.21,2.77,7.33,3.94,11.08.64,2.64,2,5.26.25,8a1.21,1.21,0,0,1-1.52.06c-1.78-2.75-1.91-6-2.94-9a5.65,5.65,0,0,1-1.78-4.09c-.06-2.7.08-5.43-1-8v-1A2.1,2.1,0,0,1-770.44,434.49Z" transform="translate(773.39 36.66)"/><path class="cls-8" d="M-82.28,448.52q-1.59,4-3.2,8c-1.63,1.73-3.44,2.67-5.77,1.34-.08-.15-.24-.4-.21-.43,6.15-5,5.8-12.68,8-19.29a28.93,28.93,0,0,0,.57-2.89,1.82,1.82,0,0,1,.75-1.21,2.33,2.33,0,0,1,2.72.48v2c-1.36,1.57-.92,3.48-1,5.29,0,1.2,0,2.4-.09,3.6S-81.54,447.55-82.28,448.52Z" transform="translate(773.39 36.66)"/><path class="cls-9" d="M-80.39,414.47h1v9c-2,2.35-.5,5.23-1.18,7.78a6.7,6.7,0,0,1-1.8,3.23l-.08,0c-.3.51-.62.49-1,0-2.34-3.49-.34-7.36-1-11C-84.12,420-81.59,417.53-80.39,414.47Z" transform="translate(773.39 36.66)"/><path class="cls-10" d="M-79.39,18.47h-1c-3.84,0-5.07-1.95-4.21-5.51A6.12,6.12,0,0,0-84,9.25,3.21,3.21,0,0,1-83.59,8a2,2,0,0,1,1.77-.81c2.32,1.06.6,4,2.43,5.27Z" transform="translate(773.39 36.66)"/><path class="cls-11" d="M-770.59,179.39c-.65,2.79-.38,5.9-2.8,8.08v-8Z" transform="translate(773.39 36.66)"/><path class="cls-12" d="M-770.44,434.49l-2.95,0v-8C-769.83,428.19-772.48,432.21-770.44,434.49Z" transform="translate(773.39 36.66)"/><path class="cls-13" d="M-81.41,431.45c.88-2.61-2-6.16,2-8v8A1.4,1.4,0,0,1-81.41,431.45Z" transform="translate(773.39 36.66)"/><path class="cls-14" d="M-79.39,12.47c-3.18-.4-1.12-3.86-3-5.06a3.32,3.32,0,0,1-.06-4.93,5.45,5.45,0,0,1,1,.11c1.8,2,.79,4.75,2,6.88Z" transform="translate(773.39 36.66)"/><path class="cls-15" d="M-773.39,435.47c1.92,2.37,2.15,5.15,1.93,8a1.3,1.3,0,0,1-1.93,0Z" transform="translate(773.39 36.66)"/><path class="cls-16" d="M-79.39,9.47a10.2,10.2,0,0,1-2-6.88l2-.12Z" transform="translate(773.39 36.66)"/><path class="cls-17" d="M-82.28,448.52l.86-3.12c1.32-.53-.56-3.28,2-2.93v5Z" transform="translate(773.39 36.66)"/><path class="cls-18" d="M-773.39,443.47l1.93,0c.29,1.35.59,2.7.88,4.05l-2.81-.09Z" transform="translate(773.39 36.66)"/><path class="cls-19" d="M-81.41,431.45l2,0v3h-3C-82.37,433.37-82.56,432.2-81.41,431.45Z" transform="translate(773.39 36.66)"/><path class="cls-20" d="M-79.39,442.47c-.68,1-1.35,2-2,2.93,0-1.3.06-2.6.08-3.91.83-.51,0-2.61,2-2Z" transform="translate(773.39 36.66)"/><path class="cls-21" d="M-79.39,439.47l-2,2c-.11-2-.36-4,2-5Z" transform="translate(773.39 36.66)"/><path class="cls-22" d="M-83.4,8.47l0,1c-.67,1,.23,2,.05,3-2.19,3.59,1,4.47,3,6h0c-4.11,2.72-4.11,2.72,0,5,0,.48.1,1.06-.12,1.42-.75,1.23-.74,5.59.11,6.58a4.8,4.8,0,0,1-2.71,1.16c-5-.46-10-.55-15-.55q-143.08,0-286.17,0c-2.33,0-4.66,0-7-.11-2.69-.17-4.88-1.06-5.74-3.9-1.11-3.08-.43-6.1.34-9.12a6.66,6.66,0,0,1,.5-1.42,28.71,28.71,0,0,0,2.22-4.35,7.84,7.84,0,0,1,2.63-3.08c2.64.38,3.65-2.41,5.8-3,3,.75,6.13-2,9,.45a1.27,1.27,0,0,0,1.56-.17c.64-1.38.79-3.06,2.45-3.77,2.55-.9,5.2-.63,7.8-.61,3.26,0,4.78-1.38,4.82-4.69s-.35-6.55.54-9.77c1-2.08,2.73-2.36,4.73-2,1.56.21.56,3.63,3.18,2.54.5.1,1,.4,1.51.23-.79-.23-1.59-.45-1.72-1.46.8-1.6,2.36-1.57,3.8-1.8,3.69-1.62,7.28-3.6,11.56-3,2.29.31,2.45-1.66,3.07-3.1,1-1.67,2.77-3.48-.85-4.23-2.15-.1-4.31.22-6.42-.42a3.06,3.06,0,0,1-1.15-.87c.74-2.78,3.79-1.4,5.24-2.9a15.53,15.53,0,0,1,8.83-3.18c7-1.24,13.47-5,20.88-3.9q87.87,0,175.72,0a5.91,5.91,0,0,1,3.16.56c.4,3,2.31.62,3.46,1a2,2,0,0,1,1.23.55,3,3,0,0,1,.28,2c-1.12,3.81,1.17,5.49,4.2,6.68,2.07.82,4.16,1.58,3,4.52-1,1.63-4.89-.08-4.13,2.74.61,2.25,3.54,1.63,5.65,1.34.66-.1-.19-.06.85-.18-.63-1.52-3-2.17-2.22-4.19a3.39,3.39,0,0,1,2.71-.92c2,.18,4.13-.69,5.81,1.07,1,1.89,1,4,1.21,6-.13,2.44-1.92,2.86-3.82,3.06-2.16.23-4.33.07-6.81.2,2.93.56,5.82-.42,8.21,1,3,1.77,1.56,5.1,2.21,7.58,1-2.4-1.46-6.35,3.16-7.34,1.77,2.4.45,5.08.61,7.63.33,5.38,1.51,6.11,6.3,3.5,1.91-.91,3.15.14,4.26,1.48s2.25,2.87,4.15,3.47c1.6-.83.46-3.35,2.4-4C-82.42,3.78-83.61,6.31-83.4,8.47Z" transform="translate(773.39 36.66)"/><path class="cls-23" d="M-391.38,10.49a3,3,0,0,1-2,3c-1.6.86-.89,2.9-2,4v0c-.94,1.53-.81,3.88-3.24,4.28-5-.82-6.14,3.4-7.08,6.39-1.36,4.28-3.82,7.53-6.61,10.76-1.13,1.3-2.14,2.62-4.15,1.7a7.45,7.45,0,0,1-3-6.08c-.06-3.3-2-4.24-4.86-4.37-1.67-.08-3.33-.09-5-.09H-718.23c-3.17,0-6.32.2-9.48.29-2.79-.12-4.75-2.76-7.67-2.52-1.55,0-3.1,0-4.65-.15a5.06,5.06,0,0,1-2.18-.68c-1.45-1.31-1.52-3.08-1.62-4.84a1.73,1.73,0,0,1,.76-1.18,2.32,2.32,0,0,1,2.66.46c1.33.93,2.77.6,4.7.64-1.86-1.43-3.66.61-5-.9a2.44,2.44,0,0,1-.08-2.75,4,4,0,0,1,1.93-.92,8,8,0,0,1,2.87-.22c2.94.43,4.51-.72,4.6-3.74,4.28-2.82,9-3.53,14-3,1.76.77,3.62.39,5.43.39q155.05,0,310.11,0c1.8,0,3.66.44,5.4-.45l2-.19A2.84,2.84,0,0,1-391.38,10.49Z" transform="translate(773.39 36.66)"/><path class="cls-24" d="M-396.41,10.51c-1.5,1.6-3.45.93-5.2.93q-155.25,0-310.5,0c-1.76,0-3.7.64-5.24-.87,4.16-.08,8.32-.24,12.48-.24H-400.4C-399.07,10.33-397.74,10.45-396.41,10.51Z" transform="translate(773.39 36.66)"/><path class="cls-25" d="M-768.41,172.5l-1.5,1c-.1-7.92-.28-15.84-.28-23.75,0-25.59-.24-51.19.18-76.77.15-9-.24-18.26,4.56-26.53l.62-.38a1.73,1.73,0,0,1,1,.91c.5,1.47-.06,2.88-.25,4.31-.18,2-.37,4-1.62,5.67A5.79,5.79,0,0,0-767,61.42q0,30.84,0,61.66c0,13.11-.13,26.22-.06,39.33a11.1,11.1,0,0,1-.3,2.5C-768.36,167.34-767.84,170-768.41,172.5Z" transform="translate(773.39 36.66)"/><path class="cls-26" d="M-306.39-36.49q38.49-.07,77-.16,46,0,92,0c2.66,0,5.31.24,8,.36.13.8-.21,1.2-1,1.21q-87.58,0-175.18,0C-306.44-35.26-306.69-35.73-306.39-36.49Z" transform="translate(773.39 36.66)"/><path class="cls-27" d="M-376.5-4.71A193.6,193.6,0,0,1-352-21.88a11.46,11.46,0,0,1,3.33-.83,1.31,1.31,0,0,1,1.3,0c.48,2-1.41,2.05-2.34,2.89-.56.39-1.11.78-1.65,1.19-3.59,2.43-7.47,4.46-10.58,7.56A6.51,6.51,0,0,0-364-9.87c-1.11,5.68-3.89,8.45-9,9-1.28-.78-2.27-2-3.68-2.58A1.22,1.22,0,0,1-376.5-4.71Z" transform="translate(773.39 36.66)"/><path class="cls-28" d="M-129.5-35.55c0-.25,0-.49.06-.73a39.76,39.76,0,0,1,25,10.75c-.87,1-2,1-3.21.89a7.45,7.45,0,0,1-1.32-.31c-3.25-.42-5.33-2.93-8-4.45a35.06,35.06,0,0,0-3.56-1.54c-1.25-.56-2-1.69-3-2.57l-1,0a2.54,2.54,0,0,1-3,0,2.12,2.12,0,0,0-2-1c-.33-.2-.46-.42-.38-.66S-129.6-35.55-129.5-35.55Z" transform="translate(773.39 36.66)"/><path class="cls-29" d="M-306.39-36.49c0,.32-.05.64-.05,1a2.63,2.63,0,0,1-1,1c-4.08.13-8.08-.23-11.86,2.44-2.2,1.56-5.47.56-8.26.47C-321-35.71-313.88-36.78-306.39-36.49Z" transform="translate(773.39 36.66)"/><path class="cls-30" d="M-96.21-17.69c3,1.08,3.77,4.21,5.84,6.14,1.24,3.55,3.59,6.55,5,10a1,1,0,0,1,.24.73,1.82,1.82,0,0,1-1.07,1c-5.55.62-5.5-3.75-6.45-7.22a5.34,5.34,0,0,0-1.19-2.3,11.9,11.9,0,0,1-1.44-2.9c-.41-1.67-1.53-3.15-1.37-5Z" transform="translate(773.39 36.66)"/><path class="cls-31" d="M-108.37-25.55l4,0c2.66,2.69,6.74,3.89,8.19,7.84l-.28.24c-3.09,1.05-4.78-2.31-7.51-2.37-1-.49-1.82-1.37-2.88-1.84a4.38,4.38,0,0,1-2-1.93A1.88,1.88,0,0,1-108.37-25.55Z" transform="translate(773.39 36.66)"/><path class="cls-32" d="M-759.49,35.43c1.93-4,4.45-7.51,8.32-9.87,1-.24,1,.46,1.06,1.1A12.12,12.12,0,0,1-751.46,31a5.52,5.52,0,0,1-.76,1.08,33,33,0,0,0-2.88,2.79C-756.44,36.06-757.82,36.93-759.49,35.43Z" transform="translate(773.39 36.66)"/><path class="cls-33" d="M-750.4,26.46l-.77-.9.75-1.13c2.53-.54,3.89-3.84,7-2.95a8,8,0,0,1,1,5,3.45,3.45,0,0,1-.86,3.13c-1.61.44-2-1.34-3.21-1.71a19.44,19.44,0,0,0-2.39-.48,4,4,0,0,1-1.15-.46Z" transform="translate(773.39 36.66)"/><path class="cls-34" d="M-759.49,35.43c1.79.19,3.32-.16,4.16-2a3,3,0,0,1,3,.74,2,2,0,0,1,.24,1.26,6.19,6.19,0,0,1-.59,1.18c-.78,1.33-.5,3.1-1.75,4.25a3.63,3.63,0,0,1-2.67.45c-1.88-.5-2.32-2-2.63-3.66a6.48,6.48,0,0,0-.5-1.23C-760.41,35.8-760,35.54-759.49,35.43Z" transform="translate(773.39 36.66)"/><path class="cls-35" d="M-85.38-1.53c-3.57-2.39-4.85-5.93-5-10C-87.82-8.65-84.4-6.19-85.38-1.53Z" transform="translate(773.39 36.66)"/><path class="cls-36" d="M-731.37,13.55c2.08,4,.71,5.48-3.57,4.94a26.9,26.9,0,0,0-3.48,0c.49-3.52,4.08-3.17,6-4.86Z" transform="translate(773.39 36.66)"/><path class="cls-37" d="M-732.38,13.59c-1,2.83-4.52,2.63-6,4.86l-2,.09c-.59.58-1,1.43-2,1.46a1.74,1.74,0,0,1-1.1-.55C-740.22,16.63-736.81,14.15-732.38,13.59Z" transform="translate(773.39 36.66)"/><path class="cls-30" d="M-83.4,8.47c-1.53-1.71-.21-4.37-2-6a2.06,2.06,0,0,1-.1-2.89l.35-.37c1.59.53,2,2,2.74,3.28l.06,4.93C-82.69,7.77-83,8.12-83.4,8.47Z" transform="translate(773.39 36.66)"/><path class="cls-38" d="M-391.38,10.49l-3-.16c4.13-.62,7-3.31,10-5.94.15.16.29.33.45.49a2,2,0,0,1-1.39,2.6C-386.86,9.53-388.62,11-391.38,10.49Z" transform="translate(773.39 36.66)"/><path class="cls-32" d="M-760.2,36.44l.83,0a7.27,7.27,0,0,1-1,7.18c-1.12,1.22-1.68,3.26-4,2.83l0-.06c-1-2.56,1.28-4,2-6Z" transform="translate(773.39 36.66)"/><path class="cls-39" d="M-743.44,19.45l1.09,0c.53,1.11-.47,1.42-1,2l0,0c-2.45.72-4,3.65-7,2.95C-748.74,21.86-746.09,20.66-743.44,19.45Z" transform="translate(773.39 36.66)"/><path class="cls-40" d="M-336.35-28.45c-.91,2.41-3.74,1.33-5.16,2.83a1.43,1.43,0,0,1-1,.58,1.4,1.4,0,0,1-1-.6C-341.91-28.52-339.18-28.6-336.35-28.45Z" transform="translate(773.39 36.66)"/><path class="cls-41" d="M-384.45,4.39a6.65,6.65,0,0,1,5-5l.44.42a2,2,0,0,1-.08,1.75,7.36,7.36,0,0,1-1.31,1.18l-.85.8c-.84.79-1.54,1.94-3,1.13Z" transform="translate(773.39 36.66)"/><path class="cls-42" d="M-343.55-25.64l1.12.08c.25,4.11-2.13,4-5,3.06l-1.25-.21A11.15,11.15,0,0,1-343.55-25.64Z" transform="translate(773.39 36.66)"/><path class="cls-43" d="M-762.42,40.41l-2,6h-1C-765.23,44-764.55,41.86-762.42,40.41Z" transform="translate(773.39 36.66)"/><path class="cls-41" d="M-376.5-4.71l.16,1.24A1.9,1.9,0,0,1-376-1.39c-.81,1.11-1.77,1.81-3.19,1l-.24-.24C-378.24-1.8-378.13-3.8-376.5-4.71Z" transform="translate(773.39 36.66)"/><path class="cls-44" d="M-129.39,489.23c-3.49.12-7,.35-10.47.35q-282.12,0-564.23.07c-5.62,0-11.2.44-16.86,0a41.14,41.14,0,0,1-13.38-3.3,5.5,5.5,0,0,1-2.61-1.89c-.93-1.2-4.06-.32-3.11-3.29a3.86,3.86,0,0,1,3.54-.31c1.63.76,2.79,2.17,4.3,3.1,4.47,2.27,9.46,1.86,14.21,2.76a22.17,22.17,0,0,0,6,.36h575.08c1.67,0,3.34,0,5-.08a5.51,5.51,0,0,1,1.9,0C-128.85,487.44-128.86,488.26-129.39,489.23Z" transform="translate(773.39 36.66)"/><path class="cls-45" d="M-82.4,437.43c-1,5.15-2.1,10.29-3,15.45-.62,3.39-4.23,2.72-5.94,4.59,2.67,1.93,2.69,4.23,1,6.79-3.17.95-2.06,5.8-5.73,6.3-2.34,1.18-3.3,4.79-6.83,3.93a4.38,4.38,0,0,1-1.44-.57,5.48,5.48,0,0,1-1.8-3.38,13.63,13.63,0,0,1,1-5.2,4,4,0,0,1,3.51-2.41c2.49.23.64,2.34,1.41,3.37,3.18-1.32,2.47-3.56,1.49-5.87a1.83,1.83,0,0,1,.46-1.24c3.39-.08,4.29-2.59,5.06-5.21C-90,448.22-87.07,442.27-82.4,437.43Z" transform="translate(773.39 36.66)"/><path class="cls-46" d="M-748.43,478.59c-5.28-2.32-8.05-7.31-11.9-11.15l.53-.52a5,5,0,0,1,1.4-.49,8.11,8.11,0,0,1,1.48-.07,4.35,4.35,0,0,1,2.69,1,5.91,5.91,0,0,1,1.08,3.16c.12,1.24.88,1.63,2,1.51a7.77,7.77,0,0,1,5.14,1.18c1.24.85,2.49,2,1.84,3.6-.72,1.84-2,.74-3.21.28-.57-.22-.44.66-.67,1C-748.16,478.3-748.29,478.45-748.43,478.59Z" transform="translate(773.39 36.66)"/><path class="cls-47" d="M-105,478.66l-3.44,2.84a6,6,0,0,1-3.22.7,4.18,4.18,0,0,1-1.28-.51,20.58,20.58,0,0,1-1.69-1.26,5.2,5.2,0,0,0-.9-.41c-1.93-.68-5.47.37-5.52-2,0-2.58,3.47-2.35,5.64-2.89a12,12,0,0,1,6.88.27,6.49,6.49,0,0,1,1.31.61A6.09,6.09,0,0,1-105,478.66Z" transform="translate(773.39 36.66)"/><path class="cls-48" d="M-112.37,481.48l3.89,0c-6.64,3.48-13.11,7.4-20.91,7.73l0-1.74a3.49,3.49,0,0,1,2.43-1.18,16.94,16.94,0,0,0,2.6-.62,19.26,19.26,0,0,0,4.86-2.06C-117.31,482.25-115.1,481-112.37,481.48Z" transform="translate(773.39 36.66)"/><path class="cls-49" d="M-90.43,464.26c.94-2.44-.27-4.58-1-6.79,2.08.33,4-.62,5.91-1C-86.22,459.64-88.4,461.9-90.43,464.26Z" transform="translate(773.39 36.66)"/><path class="cls-50" d="M-740.4,481.51l4,3a.81.81,0,0,1-1.17.14c-4.3-.8-7.57-3.43-10.87-6l.11-.33c1.57-1,3.08-.26,4.6.14a17.78,17.78,0,0,1,3,2.53Z" transform="translate(773.39 36.66)"/><path class="cls-51" d="M-767.64,456.58l1.27-.13a1.06,1.06,0,0,1,1.24-.13c1.38,1.24,2.14,2.92,3.22,4.37a13.21,13.21,0,0,1,1.06,1.68,11,11,0,0,1,.68,1.84c.26,1,.71,2.08,0,3.12l-.17.11A56.77,56.77,0,0,1-767.64,456.58Z" transform="translate(773.39 36.66)"/><path class="cls-52" d="M-103.39,473.47c3.42,1.54,4-3.91,7.23-2.91-.76,2.24-2.47,3.63-4.34,4.88-1,.51-1.82,1.79-3,.7C-104.37,475.36-104.07,474.34-103.39,473.47Z" transform="translate(773.39 36.66)"/><path class="cls-47" d="M-103.39,473.47c-.45,2.73,1.17,2.42,2.89,2-1,1.33-1.94,2.85-3.89,3-.78-1-2.23-1-3-2a.82.82,0,0,1-.34-.7c0-.28.06-.41.12-.41a9,9,0,0,1,3.23-1.9Z" transform="translate(773.39 36.66)"/><path class="cls-53" d="M-107.39,476.47c1.44,0,2.89-.06,3,2a.59.59,0,0,1-.65.23C-106.33,478.47-107.35,478-107.39,476.47Z" transform="translate(773.39 36.66)"/><path class="cls-54" d="M-737.56,484.61l1.17-.14,2.06,1.84C-735.88,486.63-737.13,486.4-737.56,484.61Z" transform="translate(773.39 36.66)"/><path class="cls-55" d="M-772.39,412.47v-13c2.74-2.25,6-1.61,9.13-1.61q94-.06,187.93,0,242.4,0,484.81,0c3.42,0,7-.82,10.13,1.61v13a2.91,2.91,0,0,1-4,0q-335.14,0-670.29,0c-2.73,0-5.73-.89-8,1.68-.4.46-1.09.93-1.61.07C-766.37,410.81-769.72,413.2-772.39,412.47Z" transform="translate(773.39 36.66)"/><path class="cls-56" d="M-728.39,471.47c0-2.06-.2-4.15,1-6,2.21-2.14,5-1.47,7.61-1.47q108.45,0,216.92,0,182.94,0,365.87,0c2.59,0,5.4.72,7.6-1.48-.12-2,.6-3.21,2.77-3,3.22.32,6.53.34,9.61,1.2,2.88.81,1.27,3.05.62,4.78-.14,4.18-1.89,5.58-8,6.4-5.52,2-11.06.08-16.59.08q-284.79,0-569.59,0c-5.67,0-11.32,2.5-17,.14Z" transform="translate(773.39 36.66)"/><path class="cls-57" d="M-129.39,462.47c-.15,2-1.3,3-3.27,3-1.5,0-3,0-4.5,0H-727.39c-1.78-1.14-2.86-2.33.24-2.94a23.89,23.89,0,0,1,4.48-.06Z" transform="translate(773.39 36.66)"/><path class="cls-58" d="M-123.39,470.47c3.24-.39,6-1.45,7-5h5c2.3,1.62.64,2.77-.58,3.74a63.4,63.4,0,0,1-6.57,4.16A43.37,43.37,0,0,1-137,477c-3.66-.14-7.33,0-11,0H-707.69a55,55,0,0,1-9-.26c-1.71-.58-3.55-.69-5.23-1.33-.9-.34-2.54-.75-1-2.29,18.41-2.23,36.9-1,55.34-1q260.17-.17,520.36,0c4.78,0,9.56-.33,14.4.7C-129.73,473.36-126.71,470.58-123.39,470.47Z" transform="translate(773.39 36.66)"/><path class="cls-59" d="M-769.38,437.45a2.8,2.8,0,0,1,3-3c2.36-.67,3.34-2.18,3.34-4.68,0-1.59.47-3.67,2.52-3.6s2.2,2.06,2.15,3.79c-.07,2.18-.28,4.29,2.82,4.86,1.62.3,1.15,2.17,1.16,3.43,0,5.4,0,10.8,0,16.21h0c-2.3-1-2.48-4.19-5-5-2.75-3.61-.23-8.11-2-12.2-1.59,2.41-1.92,5.17-3.74,7.14C-768.92,443.56-768.91,440.36-769.38,437.45Z" transform="translate(773.39 36.66)"/><path class="cls-60" d="M-723.39,473.47c1.52,2.11,4.48-.11,6,2-2.49,2.1-5.32,1.37-8,.79a61.93,61.93,0,0,1-25.8-11.83c-.94-.8-1.89-1.61-2.87-2.37-.72-.79-1.2-1.6-.32-2.58v0a2.13,2.13,0,0,1,3,0c1.14.05.37,3.08,3,1.46,1.95-1.19,3.75,1.37,5.16,2.92,2.68,2.94,5.75,5.12,9.91,4.58,2.69-.35,3.8,1.22,5,3.06h0C-727.15,473.19-724.62,471.69-723.39,473.47Z" transform="translate(773.39 36.66)"/><path class="cls-61" d="M-765.41,444.49c-.46-3.25,2.63-5.54,2.33-8.8-.08-.87,1-1.15,1.91-1.06,1.53.14,1.75,1.26,1.76,2.49q0,6.17,0,12.35c0,1.09.18,2.28-1,3-3,.46-3.53-2.19-4.93-3.78C-766.08,447.31-766.68,445.92-765.41,444.49Z" transform="translate(773.39 36.66)"/><path class="cls-62" d="M-117.39,471.46c1.54-2.46,6.26-1.73,6-6,3.77-1.88,6.38-4.67,7-9,2.16.19,4.71-.78,6,2,.36.21.49.42.38.65s-.22.35-.34.35c0,.33,0,.66,0,1-.29,1.71-1.64,2.36-3,3l-3,2a14.64,14.64,0,0,1-4.93,4.12C-112,470.33-114,473.68-117.39,471.46Z" transform="translate(773.39 36.66)"/><path class="cls-63" d="M-82.4,437.43l-10,17.05c-1.11,1.1-1.59,3.45-4,2,1.54-1.84,1.23-4.92,2.46-6.16,2.48-2.5.41-8.16,6.51-8.4,1.88-.07,3.48-4.45,4-7.47l1,0C-82.43,435.45-82.42,436.44-82.4,437.43Z" transform="translate(773.39 36.66)"/><path class="cls-64" d="M-764.36,448.45c1.43,1.24,2,3.32,4,4q1.5,2.49,3,5c-3,2-5.5.72-8-1l-1,0c.46-2.75-1-5.27-1-8A2.21,2.21,0,0,1-764.36,448.45Z" transform="translate(773.39 36.66)"/><path class="cls-65" d="M-84.39,412.47h4v2c1.17,4.11-2,6.32-4,9C-86.47,419.8-83.23,416.13-84.39,412.47Z" transform="translate(773.39 36.66)"/><path class="cls-66" d="M-765.4,456.48l8,1a8,8,0,0,1,0,1,.87.87,0,0,1,.33.74c0,.27-.08.41-.14.41a3.49,3.49,0,0,1-1.7.86c-1.2.2-2.28.84-3.5,1C-763.7,460-765.15,458.59-765.4,456.48Z" transform="translate(773.39 36.66)"/><path class="cls-67" d="M-757.4,459.46c0-.34,0-.67,0-1l3,1a2.15,2.15,0,0,0,1,2c.82,1.92.23,3.72-.46,5.52l-.52.49-3,0C-758.84,464.78-756.58,462.12-757.4,459.46Z" transform="translate(773.39 36.66)"/><path class="cls-68" d="M-754.39,454.47c1.93-1.36.15-3.91,1.92-5.61,1.92,1.74,1.34,4.11.87,5.85-.68,2.48-2,2.2-2.79-.24Z" transform="translate(773.39 36.66)"/><path class="cls-69" d="M-96.38,456.5c1.72.09,2.6-1.46,4-2-.36,3.6-1.92,5.76-5.95,5,0-.33,0-.67,0-1A1.86,1.86,0,0,0-96.38,456.5Z" transform="translate(773.39 36.66)"/><path class="cls-62" d="M-107.06,455.27c.2-.78.61-1.3,1.35-1.15.93.2,1.16,1,1.27,1.86.14,1-.64.41-.93.43C-106.21,456.47-107,456.25-107.06,455.27Z" transform="translate(773.39 36.66)"/><path class="cls-70" d="M-751.42,459.45h-3c.13-1,.4-2,1.73-1.8C-751.61,457.78-751.53,458.64-751.42,459.45Z" transform="translate(773.39 36.66)"/><path class="cls-71" d="M-80.4,58.47v39C-83,99.63-86.08,99.08-89,99.08q-54,.06-108,0-116,0-231.95,0a71.24,71.24,0,0,1-9.47-.27c-1.28-.18-2.52-.65-3.8-.84s-1.87.37-2.08,1.56a5.79,5.79,0,0,1-.67,1.85,2.49,2.49,0,0,1-1.18.76,2.24,2.24,0,0,1-2.54-1c.36-4,1.46-7.58,5.09-10.1,2.83-2,1.86-5.8,3.41-8.48a13.61,13.61,0,0,1,2.6-3.52c1.72-.76,3.33-1.82,5.28-1.94,2.53,1,5.59,2.15,7.11-.75,1.82-3.46,8.75-4.36,5.29-11-.93,3.38-3.44,5-5.3,7.24-1.15,1.36-2.54,2.12-4.32,1-1.19-2.29.39-3.81,1.65-5.28a56.88,56.88,0,0,0,9.37-15.09c1.38-3.26,4.51-1.23,6.36-2.72a10.86,10.86,0,0,0,5.72-2.7c3.17-2.8,4.64-2.11,5.54,2.18a1.77,1.77,0,0,1,.09.49c-.94,4.91,1.91,6.22,6,6.32a48.34,48.34,0,0,0,5.51.1q150.36,0,300.73,0C-85.76,57-82.81,56.34-80.4,58.47Z" transform="translate(773.39 36.66)"/><path class="cls-72" d="M-440.39,97.47h360q0,18,0,36c-2.62,2.13-5.74,1.38-8.67,1.38q-127.93.06-255.86,0H-474.34c-2.67,0-5.33.11-8-.15a3.88,3.88,0,0,1-3.12-2c-1.26-2.68-3.46-3-6-2.73-1.44-.48-1.28-1.74-1.38-2.88a3.37,3.37,0,0,1,1.4-2.29,11,11,0,0,1,3.18-1.4c1.36-.34,2.71-.74,4.09-1,3.3-.16,6.56-.11,8.95-3.22a3.31,3.31,0,0,1,4.88-.77c1.2,1-1.08,3.6,1.8,3.85,1.8.15,3.78.77,4.9-1.25,2.45-4.41,7.18-5,11.2-6.54,2.32-.89,3.59-1.71,3.89-4.27a21.45,21.45,0,0,1,3.14-8.76h0C-443.6,100.3-441.68,99.28-440.39,97.47Z" transform="translate(773.39 36.66)"/><path class="cls-73" d="M-80.39,166.47c0,.66,0,1.33,0,2-2.24,2-5,1.47-7.63,1.47q-85.93,0-171.88,0-229.09,0-458.18,0c-3,0-6,.46-8.89-.7-1-.53-2.16-1.31-2.15-2.48.08-8-6.19-10.22-11.81-13-1.44-.71-2-1.63-1.25-3.11.7-1.32.81-2.84,1.47-4.17a2.91,2.91,0,0,1,1.22-.75,3.48,3.48,0,0,1,2.11.25c2,1.41,3.68,3.25,6.08,5.07.86-3.8,5.16-5.16,5.25-9.23a3.74,3.74,0,0,1,4-.42c5.81,4.14,12.45,3.62,19.07,3.61q77.5-.09,155-.08c2.21,0,4.74.94,6.52-1.33a5.71,5.71,0,0,1,6.08-2c1.21,3.89,3.7,4.09,6.87,2.35a5.1,5.1,0,0,1,1.56,0c7.3.39,14.56,1.44,21.89,1.06,2.48.1,5-.15,7.4.63,3.25,1.83,6.81,1.35,10.28,1.35q198.93,0,397.87.05c3.08,0,6.38-.83,9.17,1.38Z" transform="translate(773.39 36.66)"/><path class="cls-74" d="M-396.39,57.47a44.53,44.53,0,0,1-4.48-.1c-1.18-.14-2.61-.69-1.55-2.22,2-2.88-.6-5.27,0-8.84-3.64,2.36-5.47,6.69-9.93,5.16-1.58-1.93-.24-3.41.88-4.78A12.86,12.86,0,0,0-408.6,38a6.64,6.64,0,0,1,.54-2.2,2.79,2.79,0,0,1,1-1.1c2.65-1,4-3,5.15-5.54,1-2.24,2.31-4.62,5.52-2.72.81,4,3.7,4.05,7.05,4.05q146.05-.09,292.1-.05c5,0,10-.26,14.85,1-.76,2.23.45,3.68,2,5v19c-2.41,2.12-5.36,1.47-8.13,1.47q-145.71,0-291.4,0A133,133,0,0,0-396.39,57.47Z" transform="translate(773.39 36.66)"/><path class="cls-75" d="M-737.39,146.47h-2c2.24-5.62,7.77-5.68,12.38-7.31,62.78-.23,125.56,0,188.34-.13,2.79,0,5.69.57,8.33-.91a23.62,23.62,0,0,1,9.48-2,5.93,5.93,0,0,1,3.08.75c-.2,4.43-.2,4.34,4.75,4.35a15.55,15.55,0,0,0,6.61-1.78,35.07,35.07,0,0,1,10-.41c5.14.31,9.86,0,12.81-5.07q199.18,0,398.36,0c1.63,0,3.34-.42,4.9.47v11c-2.62,2.13-5.74,1.38-8.67,1.38q-121.36.06-242.74,0H-486.13a70.58,70.58,0,0,0-8.48.22,6.26,6.26,0,0,1-3.78-.64h-7c-.15-2.16,1.69-1.53,2.46-2-8.29,1.06-16.87-.05-25.46,0h0c-1.51-2.16-3.92-1.58-6-2-2.06,0-4.15-.19-6,1-1.77,1.64-4,1.49-6.13,1.49q-82.08,0-164.15.07c-4.71,0-8.39-2.74-12.72-3.56l-3,1C-729.78,144.57-732.76,147.78-737.39,146.47Z" transform="translate(773.39 36.66)"/><path class="cls-76" d="M-396.39,57.47c2.65-2.2,5.83-2,9-2h307v3q-154.9,0-309.81,0C-392.27,58.43-394.57,59.27-396.39,57.47Z" transform="translate(773.39 36.66)"/><path class="cls-73" d="M-498.39,146.47h3c1.73-.92,3.6-.46,5.39-.46q161.14,0,322.28,0,41,0,81.93,0c1.8,0,3.67-.46,5.4.46v2H-490.51C-493.28,148.46-496.25,149-498.39,146.47Z" transform="translate(773.39 36.66)"/><path class="cls-77" d="M-80.39,146.47h-415c1.82-1.8,4.12-1,6.18-1q204.4-.07,408.82,0Z" transform="translate(773.39 36.66)"/><path class="cls-72" d="M-80.39,134.47h-404a.78.78,0,0,1,0-1h404Z" transform="translate(773.39 36.66)"/><path class="cls-78" d="M-80.39,23.47c-1.82-.41-4.93,2.05-5-2.25,0-3.95,3-2.39,5-2.75C-80.4,20.14-80.39,21.8-80.39,23.47Z" transform="translate(773.39 36.66)"/><path class="cls-76" d="M-80.4,36.47c-1.83-.29-3.85-.72-4.49-2.55s2.08-1.15,2.5-2.45h2Z" transform="translate(773.39 36.66)"/><path class="cls-65" d="M-772.39,395.47v-109c1.33-1.23,3-1.36,4.67-1.39s3.33,0,5,0q336.33,0,672.66,0c3.24,0,6.71-.9,9.66,1.38v109c-1.45,1.34-3.27,1.52-5.12,1.59s-3.67.05-5.5.05q-335.37,0-670.75,0C-765.35,397.07-769.15,398-772.39,395.47Z" transform="translate(773.39 36.66)"/><ellipse class="cls-55" cx="347" cy="434.13" rx="489.32" ry="2.83"/><path class="cls-79" d="M-80.4,286.47h-692c0-.33,0-.67,0-1h0c1.46-1.34,3.28-1.52,5.13-1.59s3.66-.05,5.49-.05q335.39,0,670.75,0c3.58,0,7.39-.89,10.63,1.61h0C-80.39,285.8-80.39,286.14-80.4,286.47Z" transform="translate(773.39 36.66)"/><path class="cls-80" d="M-772.36,190.5l2,0c1.17-1.15,2.67-1.23,4.18-1.27a20.57,20.57,0,0,0,3.5-.28,5.63,5.63,0,0,1,1.36,0,16,16,0,0,0,3.9.34c.42-.07.84-.11,1.26-.18,2-.7.72-2.17.71-3.28,0-4-.78-8.06.57-12a1.47,1.47,0,0,1,1.27-.56,2.32,2.32,0,0,1,1,1,32,32,0,0,1,.14,7.32c.27-2.59.07-5.2.1-7.81,1.63-6.1-1.12-12.41.9-18.5,4.76-.77,7.29,2.77,9.68,5.66,3,3.7,5.83,7.11,11.21,6.64,1-.09,1.79.75,2.56,1.41,2.43,1.66,5.18,1,7.79,1q227.16,0,454.31,0,89,0,177.93,0c2.61,0,5.39-.54,7.63,1.48v41c-1.45,1.34-3.27,1.52-5.12,1.59s-3.67.05-5.5.05q-335.37,0-670.75,0c-3.57,0-7.38.9-10.62-1.6Z" transform="translate(773.39 36.66)"/><path class="cls-79" d="M-772.39,278.47v-33c1.33-1.23,3-1.36,4.67-1.39s3.33,0,5,0q336.33,0,672.66,0c3.24,0,6.71-.9,9.67,1.38v33c-1.46,1.34-3.28,1.52-5.13,1.59s-3.67.05-5.5.05q-335.37,0-670.75,0C-765.35,280.07-769.15,281-772.39,278.47Z" transform="translate(773.39 36.66)"/><path class="cls-81" d="M-772.39,212.47h692q0,16,0,32c-1.74.92-3.61.46-5.4.46q-340.6,0-681.2,0c-1.8,0-3.67.46-5.4-.46Z" transform="translate(773.39 36.66)"/><ellipse class="cls-79" cx="347" cy="318.63" rx="489.32" ry="4.95"/><path class="cls-80" d="M-80.4,171.47H-245.28q-238.05,0-476.09-.05c-2.89,0-6.59,1.36-8-2.95a1.19,1.19,0,0,1,1-1c2.29,1.42,4.84,1,7.31,1H-80.4Z" transform="translate(773.39 36.66)"/><ellipse class="cls-79" cx="347" cy="281.63" rx="489.31" ry="0.71"/><path class="cls-82" d="M-764.36,448.45l-3,0a54.52,54.52,0,0,1-2.92-11h.94l4,7A6.52,6.52,0,0,0-764.36,448.45Z" transform="translate(773.39 36.66)"/><path class="cls-83" d="M-767.38,179.47l0-7a2,2,0,0,1-.58-1.78,6.76,6.76,0,0,1,.38-1.31c.62-1.3,1.12-2.79,3.1-2.07a3.05,3.05,0,0,1,1.06,2c.23,4.74.65,9.47.41,14.22-.1,1.88.37,4-1.94,5.12C-768.1,186.2-765.17,182.17-767.38,179.47Z" transform="translate(773.39 36.66)"/><path class="cls-84" d="M-767.38,179.47c2.89,2.51,1.74,5.91,2,9a1.33,1.33,0,0,1,0,2h-5c.28-2.18-1-4.87,2.5-6C-767.24,184.26-767.52,181.2-767.38,179.47Z" transform="translate(773.39 36.66)"/><path class="cls-85" d="M-767.43,170.5v1.95l-1,.05a6.17,6.17,0,0,1-.06-7.05C-766.76,166.85-767.6,168.78-767.43,170.5Z" transform="translate(773.39 36.66)"/><path class="cls-86" d="M-83.38,12.49c-1.26-1-1.35-2-.05-3C-83.08,10.51-81.85,11.48-83.38,12.49Z" transform="translate(773.39 36.66)"/><path class="cls-87" d="M-307.4-34.54c.32-.33.64-.67,1-1H-129.5c0,.34.07.68.1,1Z" transform="translate(773.39 36.66)"/><path class="cls-88" d="M-379.21-.35l2.84-1.18a2.07,2.07,0,0,1,2.93,0c5.48-1,7.6-3.65,8.11-9.93a5.75,5.75,0,0,0,5.7-.34,1.23,1.23,0,0,1,1.24.28c0,3.95-.08,7.91,0,11.87.06,2.93-1.21,4.22-4.15,4.15-3.62-.09-7.25,0-10.88,0l-.5-.47c-.61-1.78-1.31-3.38-3.65-2a2,2,0,0,1-1.88-.6Z" transform="translate(773.39 36.66)"/><path class="cls-89" d="M-106.4-22.53a1.85,1.85,0,0,1,2,2,24.73,24.73,0,0,0,10,8l1,3c-.89.53-1.67.06-2.47-.23s-1.92-1-2,.8c.06,3.67,3.93,6.45,2.43,10.46-.34,3.38-2.84,3.09-5.14,2.93-2.7-.2-3-2.2-2.84-4.29.19-3.22-.74-6.57,1-9.64-1.8-1.29-2.68-3.32-4-5-1.82-1.75-.68-4-1-6A2.2,2.2,0,0,1-106.4-22.53Z" transform="translate(773.39 36.66)"/><path class="cls-90" d="M-95.39,1.47c-.23-3.87-4.32-6.7-3-11a1.67,1.67,0,0,1,1.92-.31c1,1,.74,2.55,1.69,3.77,1.59-.07,1.16-3.25,3.36-2.45.41,3.84,0,8.3,5.93,8.09,0,1,.07,1.93.1,2.89-.19,2.09.43,4.25-.45,6.29C-90.41,8.06-91.39,2.8-95.39,1.47Z" transform="translate(773.39 36.66)"/><path class="cls-91" d="M-106.39-14.53c2.5.73,3.42,2.73,4,5-3.68,1.62-1.38,4.88-2,7.35-.32,1.37.44,3.72-1.37,3.76-2.39.06-1.61-2.43-1.62-3.91-.08-7.71,1-7.18-7.26-7.2-.83,0-1.66,0-2.49,0-1.13-.09-2.61,0-2.5-1.65.08-1.15,1.36-1.29,2.37-1.31,2.49,0,5,0,7.48,0C-108.23-12.53-106.65-12.41-106.39-14.53Z" transform="translate(773.39 36.66)"/><path class="cls-92" d="M-108.37-25.55c0,.67,0,1.34,0,2-1.12,1.29-3.19,1.31-4,3h-3a4.85,4.85,0,0,0-3.9-3.16c-4.75-1.07-6.24-4.38-4.09-7.85a2.25,2.25,0,0,1,3,0,6.85,6.85,0,0,1,4,1,9.13,9.13,0,0,0,8,5Z" transform="translate(773.39 36.66)"/><path class="cls-93" d="M-347.4-22.5c1.81-.77,4.44-.21,5-3.06.3,0,.62-.05.92-.06l.2.15a3.07,3.07,0,0,1,.63,1.13c.15,1.28-.28,2.57,0,3.85,2.26,3.5,3.91,1,5.65-.57a2.27,2.27,0,0,1,2.61.53c.53,3.69-.77,6-4.75,4.92-4.22-1.12-6.75,2.37-10.24,3.07-.91-1.44-3.17-1.53-3.55-3.51,0-2.16,1.7-2.33,3.23-2.67.89-.21,1.16-.43,0-.63-.31,0-.62-.08-.95-.14a2.77,2.77,0,0,1-1.75-1.06Z" transform="translate(773.39 36.66)"/><path class="cls-94" d="M-348.43-20.5a8,8,0,0,1,1.47,0c1.15.2,3-.66,3,1.37,0,1.26-1.48,1.52-2.69,1.6-1.54.11-3.48-.47-3.78,2-.45,1.54-.77,3.22-3,3-1.69.24-3.6-.67-5,1h-1a2.11,2.11,0,0,1-3,0c2.79-3.86,6.83-6,11-8C-350.45-19.92-348.89-18.48-348.43-20.5Z" transform="translate(773.39 36.66)"/><path class="cls-95" d="M-115.39-20.53c1,2.42,3.29,2.93,6.24,3.65-3.15,2-5.84,2.63-8.74,2.24-2.33-.31-4.26-1.68-4.2-4.08.08-2.87,2.69-1.49,4.24-1.79a13.45,13.45,0,0,1,2.46,0Z" transform="translate(773.39 36.66)"/><path class="cls-96" d="M-379.43,1.43l2.05,0c2.26-.26,2.51,2.18,4,3v0c-.23,1.69.68,3.6-1,5-.66-1-1.32-1-2,0-1.91-2-3.83-3-6.35-.7-1.44,1.32-2.38.45-2.66-1.27.39-.93.78-1.86,1.16-2.79,1.42-.16,1.79-1.59,2.78-2.26-.06-.08.75.83,0,0A2.18,2.18,0,0,1-379.43,1.43Z" transform="translate(773.39 36.66)"/><path class="cls-97" d="M-396.39,26.47c-3.27-.36-4.29,1.91-4.95,4.39-.84,3.18-2.78,4.71-6.05,4.61,1.05-5.92,5-9.95,9-14l3-4Z" transform="translate(773.39 36.66)"/><path class="cls-98" d="M-341.39-20.54c-1-1.33,0-2.66,0-4,2.64-.48,5.5.89,8-1,3.4-.58,2.45,2.7,3.35,4.15.47.74-1.45.67-2.34.84h-3A4.26,4.26,0,0,1-341.39-20.54Z" transform="translate(773.39 36.66)"/><path class="cls-99" d="M-129.43-27.77c.35-1.29-.57-3.77,1.67-3.33s2.1,3,2.31,5c.13,1.23-.19,2.49-1.75,2.46C-130.21-23.75-129.09-26.18-129.43-27.77Z" transform="translate(773.39 36.66)"/><path class="cls-100" d="M-127.09-14.8c-1.94-.36-2.21-1.6-2.28-3-.09-1.88.72-2.78,2.65-2.7,1.37.07,2.25.56,2.24,2.05C-124.48-16.52-125.75-15.56-127.09-14.8Z" transform="translate(773.39 36.66)"/><path class="cls-101" d="M-353.39-12.53l3-3c.69,1.31,4.24-.24,3,3-1.38.15-2.95-.46-4,1,.25.22.34.45.25.67s-.18.32-.27.32c-1.66.87-3.32,1.58-5.27.13C-356.35-12.33-353.81-10.94-353.39-12.53Z" transform="translate(773.39 36.66)"/><path class="cls-102" d="M-112.39-20.53c-1.73-5.07,2.54-2.17,4-3l2,1a2.1,2.1,0,0,1-1,2Z" transform="translate(773.39 36.66)"/><path class="cls-103" d="M-105.89,7.08c1.48.44,1.85,1.82,2.11,3,.3,1.36-.66,2.15-2,2.18-1.65,0-1.6-1.3-1.61-2.44S-107.31,7.52-105.89,7.08Z" transform="translate(773.39 36.66)"/><path class="cls-104" d="M-333.41-25.52c-2.28,3.34-5.13,2.1-8,1a5.06,5.06,0,0,1,.06-.95Z" transform="translate(773.39 36.66)"/><path class="cls-105" d="M-313.6-33.27c2.25-.3,4.31-.6,6.48.16C-309.44-31.75-309.44-31.75-313.6-33.27Z" transform="translate(773.39 36.66)"/><path class="cls-106" d="M-351.41-10.54c0-.33,0-.66,0-1,1.72.18,3.51-.44,5.53.63C-347.8-9.2-349.51-8.92-351.41-10.54Z" transform="translate(773.39 36.66)"/><path class="cls-107" d="M-395.4,17.46c1.68-.82-3.62-5.2,2-4C-393.31,15.17-393.56,16.72-395.4,17.46Z" transform="translate(773.39 36.66)"/><path class="cls-38" d="M-382,10.82c-.94,2-2.25,1.53-3.89,1.52C-385,10.21-383.72,10.41-382,10.82Z" transform="translate(773.39 36.66)"/><path class="cls-108" d="M-376.38,9.45c.23-1.16-.6-2.63,1-3.47,1.57.85.75,2.32,1,3.49Z" transform="translate(773.39 36.66)"/><path class="cls-109" d="M-374,11.31c.06,1-.68,1-1.3,1.07s-1.41,0-1.57-.78c-.21-.95.65-1,1.27-1.06A1.37,1.37,0,0,1-374,11.31Z" transform="translate(773.39 36.66)"/><path class="cls-87" d="M-120.38-31.55h-3l0-2A3.05,3.05,0,0,1-120.38-31.55Z" transform="translate(773.39 36.66)"/><path class="cls-110" d="M-127.4-33.53l3,0a2.92,2.92,0,0,1-3.76.74C-129-33.19-127.79-33.34-127.4-33.53Z" transform="translate(773.39 36.66)"/><path class="cls-111" d="M-757.39,40.47h3c.31-.3.62-.61.92-.92,1-1.21.89-2.91,1.78-4.17.66-1.12,2.38-.45,2.88-1.74-.59-.08-1.14-.09-1.7-.16a4.91,4.91,0,0,1-1.25-.39c-.56-.41-1-.86-.63-1.63h0c2.14-1.5,5.74-1.22,6-5,2.19-.19,1.68,2.31,3,3,4.66,1.41,9.33.36,14,0a27.82,27.82,0,0,1,7.35-1q148.63.06,297.27,0c6.62,0,6.55.1,6.69,6.84a5.55,5.55,0,0,0,3.69,5.16c.31,2.43-1.24,3.24-3.21,3.7-5-.13-9.23-2.25-13-5.36-5.28-4.39-6.39-4.21-9.5,2a3.61,3.61,0,0,1-1,1.07c-2.45,1.43-5.15,1.23-7.8,1.22-99.35-.05-198.7.18-298.05-.1-1.31,0-2.68-.33-3.86.52a8.69,8.69,0,0,0-1.8,1.73,2,2,0,0,1-1.39.61,8,8,0,0,1-3.86-3.36A1.81,1.81,0,0,1-757.39,40.47Z" transform="translate(773.39 36.66)"/><path class="cls-112" d="M-417.39,43.47a6.25,6.25,0,0,0,3-3c5.6-5.7,6.44-14.33,12.29-19.88.78-.74,1-2.32,2.5-1.93s-.33,2.31,1.18,2.8l-9,14h0c-1.18.91-.91,2.43-1.52,3.58-3.13,6.6-8.22,11.89-12,18-.82,1.31-1.45,3.19-3.7,2.36-1.7-3.67,2.45-5.64,2.52-8.8C-420.35,48.38-419.57,45.46-417.39,43.47Z" transform="translate(773.39 36.66)"/><path class="cls-113" d="M-729.39,29.47c-3.67,2.87-11.28,2.87-14,0,0-1.1-.18-2.28,1-3h2c1.66,2.86,3.33,2,5,0C-732.76,26.19-730.6,26.87-729.39,29.47Z" transform="translate(773.39 36.66)"/><path class="cls-114" d="M-740.4,21.46c.3-.14.59-.3.9-.42,1.86-.71,3.72-2.82,5.64-.17.51.7.51,2-.34,2.1-2.19.33-4.92,2.09-6.2-1.51Z" transform="translate(773.39 36.66)"/><path class="cls-115" d="M-735.39,26.47c.75,1.47.53,2.69-1.24,2.87s-3.69.77-5-1c-.15-.21.79-1.24,1.23-1.89Z" transform="translate(773.39 36.66)"/><path class="cls-33" d="M-743.38,21.45l1-2,2-.94,0,2.92h-3Z" transform="translate(773.39 36.66)"/><path class="cls-116" d="M-754.39,45.47h1a1.73,1.73,0,0,1,.82,1.65c.36-.4.12-.91.25-1.35.37-1.25.05-3.61,2.55-1.65,2,5.9,2,5.8,8.7,5.77,21.64-.11,43.28,0,64.92,0h225.22a46.58,46.58,0,0,1,7.47.25c3.24.53,4.86,2.11,3.33,5.54-3,2.13-6.42,1.43-9.68,1.43q-107.63.06-215.24,0c-28,0-55.93-.29-83.87.21-1.78.05-3.76.44-4.92-1.43-1.26-2-2.83-1-4.37-.67-2.89-1-4.79,2.56-7.66,1.71l-.51-.47c1.2-1.85,1-3.95,1-6,1.82-.72,3.7-.16,5.56-.25.63,0,1.28,0,1.91,0,.94-.07,1.94-.06,2.18-1.32S-755.52,46.35-754.39,45.47Z" transform="translate(773.39 36.66)"/><path class="cls-117" d="M-768.37,123.48l.07-63.9c4.18,2.22,1.46,6.18,2.33,9.24,0,11.44.14,22.88,0,34.32-.53,6.51,1.07,13.11-.8,19.57A1.64,1.64,0,0,1-768.37,123.48Z" transform="translate(773.39 36.66)"/><path class="cls-118" d="M-768.37,123.48h1l.55.51c1.66,7.31.31,14.72.83,22.07.27,3.75-1.08,7.66,1,11.22.89-.58,1.68-1.42,2.88-.84.95,1.44.54,2.84-.1,4.24a5.75,5.75,0,0,1-1.92,2.26c-1.33.63-2.67,1.28-4.19.54Z" transform="translate(773.39 36.66)"/><path class="cls-119" d="M-767.39,68.47c-.45-3,1-6.09-.91-8.89a2.86,2.86,0,0,1,1.9-3.11h0c2.65,1.42,2.25,4,2.38,6.36.09,1.77.15,3.53.33,5.28-.56,2.33.5,4.61.27,6.91-.18,1.81-.45,3.66-2.34,4.65-2.26-1.61-.73-3.94-1.1-5.9C-767.19,72-766.37,70.16-767.39,68.47Z" transform="translate(773.39 36.66)"/><path class="cls-120" d="M-759.39,51.47c-2.05,0-4.13.21-6-1a7.21,7.21,0,0,0,1-4l3-3c4.24-.64,2.81,2.71,3.31,4.71A5,5,0,0,1-759.39,51.47Z" transform="translate(773.39 36.66)"/><path class="cls-121" d="M-768.37,163.47a6.53,6.53,0,0,1,4-1c1.31,3.49-3.55,4.69-3,7.92l-.07.11c-1.59-1.43-.72-3.36-1-5.05C-768.43,164.79-768.4,164.13-768.37,163.47Z" transform="translate(773.39 36.66)"/><path class="cls-122" d="M-362.42-11.56l3,0c-1.94,4.09-4,.46-5.93.06Z" transform="translate(773.39 36.66)"/><path class="cls-123" d="M-348.43-20.5c.17.69,1.7,1.3.89,1.72a3,3,0,0,1-3.89-.77l1-1Z" transform="translate(773.39 36.66)"/><path class="cls-124" d="M-373.44-1.54h-2.93l0-1.94C-374.16-4.66-373.53-3.51-373.44-1.54Z" transform="translate(773.39 36.66)"/><path class="cls-31" d="M-108.38-25.55c-3.82.19-7.36-.06-8-5Z" transform="translate(773.39 36.66)"/><path class="cls-125" d="M-94.4-12.53c-5.12-.15-8.54-2.88-10-8,3.49-1.2,5.2,2.2,7.89,3.07C-95.63-15.88-94.52-14.42-94.4-12.53Z" transform="translate(773.39 36.66)"/><path class="cls-126" d="M-91.42-8.52a4.11,4.11,0,0,1-.74.65c-1.66.91.26,4.46-2.17,4C-97-4.38-97.08-7.12-96.4-9.55c-.23-.89,0-1.34,1-1l2,1A2,2,0,0,1-91.42-8.52Z" transform="translate(773.39 36.66)"/><path class="cls-127" d="M-746.39,26.47c1,4.73.65,5-6,5,.44-1.75.7-3.58,2-5l0,.08c.46.35.42,1.06,1,1.35.17-.47-.46-.93,0-1.4Z" transform="translate(773.39 36.66)"/><path class="cls-128" d="M-752.4,31.45l1,1c.57,1.11.82,2.07-1,2l-3-1Z" transform="translate(773.39 36.66)"/><path class="cls-129" d="M-749.41,26.49l1.16,1.76c-.42.19-.88.6-1.25.54-1.42-.25-.68-1.46-.88-2.25A6.37,6.37,0,0,1-749.41,26.49Z" transform="translate(773.39 36.66)"/><path class="cls-130" d="M-759.38,48.47c-.44-1.76,1.19-4.36-2-5,1.16-2.18,2.37-4.36,2-7,1.6.86.36,3.13,2,4v2C-757,44.81-756.11,47.33-759.38,48.47Z" transform="translate(773.39 36.66)"/><path class="cls-113" d="M-752.37,34.49a2.09,2.09,0,0,0,1-2h1a1.75,1.75,0,0,0,3,0c2.59.59,2.06,1.84.3,2.62-1.24.54-2.84.28-4.28.38a.64.64,0,0,1-1,0C-752.41,35.11-752.39,34.8-752.37,34.49Z" transform="translate(773.39 36.66)"/><path class="cls-131" d="M-752.42,35.42l1,0c-.44,1.75,1.19,4.34-2,5a5.91,5.91,0,0,1,0-5Z" transform="translate(773.39 36.66)"/><path class="cls-130" d="M-753.42,35.47c0,1.66,0,3.33,0,5h-1C-754.15,38.78-755,36.88-753.42,35.47Z" transform="translate(773.39 36.66)"/><path class="cls-132" d="M-126.39,487.35l-3,.14-1,0c-2.75.5-5.52,1.3-8.17-.4.34-1.7,2.13-.47,3.11-1.5-4.25,1.41-8.38,1.32-12.5,1.32H-696.08a72.9,72.9,0,0,0-9,.22c-.89.27-1.8.49-2.68.79-3.88-.16-7.8.62-11.65-.43-4.87-.05-9.76,0-14-3,1-1.17,2.83-1.59,3-3.48a3.07,3.07,0,0,1,1.33-1.73,2.46,2.46,0,0,1,1.54.12c5.31,1.51,10.73.39,16.08.73,1.74,0,3.49,0,5.09.85.79.46,1.39,1.18,2.21,1.62,2.44.81,5,.47,7.45.47h560.26a18.87,18.87,0,0,1,6.22.49C-128.65,484.51-126.7,485.11-126.39,487.35Z" transform="translate(773.39 36.66)"/><path class="cls-133" d="M-719.4,487.47h12c1.8-1.12,3.83-1,5.82-1q280.22,0,560.42,0a4.17,4.17,0,0,1,2.76,1h8c-1.48,1.63-3.43,1-5.18,1q-289.32,0-578.64,0C-716,488.44-717.92,489.1-719.4,487.47Z" transform="translate(773.39 36.66)"/><path class="cls-67" d="M-729.39,481.47c.31,3.2-1.86,3.07-4,3a6.45,6.45,0,0,1-3-3,3.78,3.78,0,0,0,.61-2.37c.74-1.38,1.64-.81,2.55-.21a6.24,6.24,0,0,0,1.86,1.36A4.33,4.33,0,0,1-729.39,481.47Z" transform="translate(773.39 36.66)"/><path class="cls-134" d="M-735.4,479.47c.54,1.11.73,2-1,2l-4,0v0a2.43,2.43,0,0,1-.6-2.15c.57-1.49,1.75-1.77,3.16-1.59A4.09,4.09,0,0,1-735.4,479.47Z" transform="translate(773.39 36.66)"/><path class="cls-135" d="M-101.38,463.47a6.23,6.23,0,0,1,3-3c1.13,1.59,4.53,2.65.87,5.26-1.45,1-2.29,2.94-4.48,1.67C-105.17,465.58-99.34,465.14-101.38,463.47Z" transform="translate(773.39 36.66)"/><path class="cls-136" d="M-109.39,468.47c1.85-.69,2.66-3.12,5-3-.34,1.67-.67,3.34-1,5a3.48,3.48,0,0,1-1.6,1.09,3.84,3.84,0,0,1-2.61.13C-111.09,470.51-110.88,469.45-109.39,468.47Z" transform="translate(773.39 36.66)"/><path class="cls-137" d="M-107.38,470.48h2l1,3c-.1,2-1.55,2-3,2C-110.61,473.8-108,472.14-107.38,470.48Z" transform="translate(773.39 36.66)"/><path class="cls-67" d="M-109.39,468.47a2.67,2.67,0,0,0,0,3c-6.79,4.59-14.65,5.93-22.48,7.33-8.24,1.46-16.58,1.08-24.9,1.08q-272.72,0-545.42,0c-12.37,0-24.51-1.11-36.29-5a8.47,8.47,0,0,1-7.68-2.46c-1.37-1.34-2.82-2.36-4.81-1.19-1.11.38-2.21.86-3.37.19,0-1.33,0-2.65,0-4h0c1.51-1,1.62-3,3.09-4,8,4.57,15.8,9.45,25.06,11.32a56.53,56.53,0,0,0,8.86.68l583.68,0c5.8,0,11-2,16.32-4C-114.14,472-112.3,468.83-109.39,468.47Z" transform="translate(773.39 36.66)"/><path class="cls-138" d="M-751.38,470.47c1.42-1.45,2.61-3,4.54-.26a12.38,12.38,0,0,0,6.45,4.26c2,.62,4.13,1.07,3,4-1.1,0-2.28-.17-3,1-1,.81-2,0-3,0-1.5-1-3.23-1-4.91-1.2.24-1.39-2.57-2.16-1.26-3.24,2.11-1.75,2.63,1.79,5.46,2.12-2-3.46-4.06-4.57-7.29-3.69A2.13,2.13,0,0,1-751.38,470.47Z" transform="translate(773.39 36.66)"/><path class="cls-139" d="M-757.4,459.46c4,2.65-.4,5.32,0,8h-1a20.4,20.4,0,0,0-3-3.06l-.05-1.93c-.08-1.48.91-2.26,2-3Z" transform="translate(773.39 36.66)"/><path class="cls-140" d="M-751.38,470.47l0,3c-1.45,0-2.9.05-3-2Z" transform="translate(773.39 36.66)"/><path class="cls-141" d="M-761.31,464.39a3,3,0,0,1,3,3.06l-1.81-.12Z" transform="translate(773.39 36.66)"/><path class="cls-142" d="M-737.39,478.47c.1-2.15-2.57-2.24-3-4,2-3.23,4.24-.69,6,0a61.64,61.64,0,0,0,21.76,3.82q285.22.36,570.44.09a70.32,70.32,0,0,0,28.89-6.29,14.77,14.77,0,0,1,3.87-.61l2-1c0,1.66-1.28,3.32,0,5v1c-4.41-.54-8.79-.81-13,1.4,2,1.91,5.86-1.4,7,2.59-.91.45-1.83-.09-2.75,0a11.86,11.86,0,0,1,3.66,1l.11.05-7,3A3.75,3.75,0,0,1-122,485a3.85,3.85,0,0,1-1.11-.74c-2.15-1.5-4.19-.22-6.27.22h-6c-2.07-1-4.27-.49-6.39-.49q-279.1,0-558.22-.05c-2.12,0-4.32.51-6.39-.46v-2c2.41-1.72,5.16-1,7.75-1q194.91-.06,389.83,0h170.43c2.48,0,5-.25,7.44.43,1.91-.2,3.92,0,5.54-1.34-1.64,1.31-3.68,1-5.6,1.29-2.64-.67-5.32-.38-8-.38q-287.22,0-574.45,0c-3.88.15-7.77-.37-11.63.4a2.86,2.86,0,0,1-3.32-1.4h-1l-.66.08a11,11,0,0,1-3.34-.08c-.67-.09-1.34-1.11-2,0A2.06,2.06,0,0,1-737.39,478.47Z" transform="translate(773.39 36.66)"/><path class="cls-143" d="M-112.48,481.43c-2.74-.18-5.55.55-9.34-.88a8.82,8.82,0,0,1,8.43-.09C-113.08,480.78-112.78,481.1-112.48,481.43Z" transform="translate(773.39 36.66)"/><path class="cls-144" d="M-129.4,484.47c1.94-3.1,4.35-2.94,7-1,.16,1.3-3-.24-1.71,2a.9.9,0,0,1-.24,1,2,2,0,0,1-2,.82C-127.2,486.19-129.56,486.64-129.4,484.47Z" transform="translate(773.39 36.66)"/><path class="cls-132" d="M-124.34,486.53l-.06-1.06c-.08-1.83.85-1.63,2-1h3A6.18,6.18,0,0,1-124.34,486.53Z" transform="translate(773.39 36.66)"/><path class="cls-145" d="M-743.41,479.46c1-1.56,2-.28,3,0v2A3,3,0,0,1-743.41,479.46Z" transform="translate(773.39 36.66)"/><path class="cls-67" d="M-759.39,459.48l-2,3-1-1A3,3,0,0,1-759.39,459.48Z" transform="translate(773.39 36.66)"/><path class="cls-146" d="M-723.39,473.47c-1.76-.43-4.35,1.21-5-2,5.59-.34,11.19-1,16.79-1q285.6-.08,571.21,0c5.67,0,11.33,1.43,17,0a34.32,34.32,0,0,1-14.19,3.08Q-430.48,473.4-723.39,473.47Z" transform="translate(773.39 36.66)"/><path class="cls-147" d="M-751.31,463.46c-.05,2.09.14,4.37-3.09,4,0-2.06-.18-4.15,1-6A2,2,0,0,1-751.31,463.46Z" transform="translate(773.39 36.66)"/><path class="cls-148" d="M-445.39,101.47c.55,4.35-2.87,8-2.19,12.42a1.37,1.37,0,0,1-1.64,1.45c-4.26-1.26-6.63,3.44-10.53,3.26a2,2,0,0,0-1.54,1c-1.81,8-7.41,2.84-11.46,3.72-.12-2.36,2.81-2.75,2.36-4.85l.42-.54c2.6-1.66,7-1.33,6.66-6.2a3.7,3.7,0,0,1,2.89-2.48,9,9,0,0,0,5.78-5.11c1.28-2.55,3-4.52,6.25-2.67Z" transform="translate(773.39 36.66)"/><path class="cls-149" d="M-424.38,59.49c5.84-6.4,9.79-14.16,15-21,.56-.54.86-1.61,2-1a12.07,12.07,0,0,1-3.6,10.6,4.12,4.12,0,0,0-1.39,3.41c-5.33,1-6.34,5.69-8.42,9.55-2.39,4.46-6.75,7.59-8.58,12.45a5.05,5.05,0,0,1-3,4,4.93,4.93,0,0,1-5,2,1.45,1.45,0,0,1-.29-1.25,7,7,0,0,1,1-1.73c2.28-3.38,4.3-6.92,6.6-10.29C-427.95,64.12-426.85,61.23-424.38,59.49Z" transform="translate(773.39 36.66)"/><path class="cls-150" d="M-448.39,101.47c-2.66,0-4.41.74-5.3,3.85a6.71,6.71,0,0,1-6.43,5.16c-1.36,0-2.16.58-2.27,2-1.56,2.87-3.75,4.6-7.23,4-.92-1.84.38-3.1,1.16-4.51a9.17,9.17,0,0,1,1.87-2.11,96.26,96.26,0,0,0,9.67-8.71,21.53,21.53,0,0,0,3.1-2.53c3.64-3.95,7.42-7.78,9.66-12.78a4.47,4.47,0,0,1,.83-1,35.29,35.29,0,0,0,2.78-2.55,1.17,1.17,0,0,1,1.16.21c-.93,4.29-.54,8.91-5.68,11.58C-446.95,95.06-447.33,98.92-448.39,101.47Z" transform="translate(773.39 36.66)"/><path class="cls-151" d="M-432.39,77.47c.83-1.46,1.19-3.27,3-4,4.17-.6,5.4-4.41,7.44-7.17.79-1.07.68-3.27,2.34-3.31,1.81,0,1.17,2.08,1.55,3.21,1.06,3.22,1.38,6.09-2.93,7.55-1.41.48-2.24,2.65-3.35,4C-426.36,80.29-429.83,80.16-432.39,77.47Z" transform="translate(773.39 36.66)"/><path class="cls-152" d="M-440.39,97.47c.64,4.22-2.13,4.18-5,4v-2c.82-.9,1-2.22,2-3C-442.29,96.5-441.11,96.29-440.39,97.47Z" transform="translate(773.39 36.66)"/><path class="cls-153" d="M-439.39,82.51h-.5l-.49,0c-1.08-1.18-.85-2.32.11-3.44a2.57,2.57,0,0,1,2.84-.59c0,.33,0,.65.07,1A3.28,3.28,0,0,1-439.39,82.51Z" transform="translate(773.39 36.66)"/><path class="cls-148" d="M-443.39,96.47a3,3,0,0,1-2,3C-445.41,98-445.42,96.56-443.39,96.47Z" transform="translate(773.39 36.66)"/><path class="cls-154" d="M-491.38,125.49l-1.05,2c-3.68,2.73-8.13,3.66-12.29,5.29-.74.24-1.47.53-2.23.74-4.26,1-8.38,2.58-12.79,3-62.51,3.27-125.06.54-187.58,1.46-11,.16-21.94.39-31.77,6.33a5.24,5.24,0,0,1-3.87.58c-1.65-4.06-.69-7.45,3.07-8.06,4.86-.79,9.62-1.45,14.21-3.46,2-.89,4.58-.27,6.88.21a17.16,17.16,0,0,0,4.94.56q90.65,0,181.28,0a18.45,18.45,0,0,0,2.48-.16c.53-.17,1.09-.31,1.64-.44,2.46-.57,5.19.39,7.48-1.25a5.48,5.48,0,0,1,1.37-.63c5.92.12,11.26-2.48,16.89-3.7,2.75-.6,3.66-3.77,6.11-4.92a3.26,3.26,0,0,1,2.92.09C-494.72,125.54-491.91,124.44-491.38,125.49Z" transform="translate(773.39 36.66)"/><path class="cls-155" d="M-506.4,132.45l1-.9c3,1.19,5.84-.09,8.75-.27,1.32-.05,2.64,0,4,.09.33,0,1,.63,1-.2,0-.23-.73-.58-.95-1,.05-.22.11-.43.16-.65,4.15-1.64,7.34-1.34,8,4v1c.34,4.37-1.34,6.37-6.05,6.08-5.63-.35-11.3-.08-16.95-.08-.73-1.72-.79-3.73-2.25-5.12C-509.57,133.25-507.18,133.75-506.4,132.45Z" transform="translate(773.39 36.66)"/><path class="cls-156" d="M-467.42,112.4c-.48,1.44-2.13,2.32-2,4.07a2.38,2.38,0,0,1-1,2h0c-1.55-.12-3.14.11-3.93,1.49-2.4,4.23-6.36,3.52-10.14,3.48a1.47,1.47,0,0,1-.08-1.38c4.31-3.65,9.28-6.31,13.93-9.45C-469.66,112-468.55,111.47-467.42,112.4Z" transform="translate(773.39 36.66)"/><path class="cls-157" d="M-496.39,132.47c-3,.05-6.29,2.43-9-.92,4.46-.88,8.25-3.87,12.92-4.1,1.15.65.13,1.34,0,2h0C-492.52,132.07-494.85,131.75-496.39,132.47Z" transform="translate(773.39 36.66)"/><path class="cls-158" d="M-484.41,122.39c0,.35,0,.7,0,1a5.71,5.71,0,0,1-3.93,1,2.16,2.16,0,0,1-1.55-1.48c.23-2.92,2-3.89,4.69-3.72C-484.1,120-483.35,121-484.41,122.39Z" transform="translate(773.39 36.66)"/><path class="cls-159" d="M-489.39,123.46l1,.94-3,1.09c-1-.29-2.28.58-3.05-.55-.12-.17.67-1,1-1.47C-492.06,122.24-490.73,122.47-489.39,123.46Z" transform="translate(773.39 36.66)"/><path class="cls-80" d="M-723.39,141.47c61,4.55,122,.75,183,2,.21,2.51-1.19,3.06-3.39,3-5-.08-10,0-15,0-50.7,0-101.39-.08-152.09.11C-716,146.6-719.65,144.26-723.39,141.47Z" transform="translate(773.39 36.66)"/><path class="cls-160" d="M-743.38,144.41c13.57-6.79,28-8.1,43-8,53.89.28,107.77.06,161.66.17,6.82,0,13.56-.57,20.33-1.11.57,1.9-1.52,1.16-2,2l-9,1c-2.25,1.62-4.84,1-7.28,1q-90.18,0-180.38,0a45.5,45.5,0,0,0-11.34,1c-3.8,1.76-7.93,2.91-11,6h-1A3.89,3.89,0,0,1-745,147C-746.35,144.94-744.65,144.81-743.38,144.41Z" transform="translate(773.39 36.66)"/><path class="cls-75" d="M-745.41,146.45l5,0c.77,2.24.94,4.34-2.09,5.73,6.33-.92,8,5.21,12.49,6.65,3.16,1,1.16,5.63,1.6,8.62l-1,1c-5.31.62-9.6,0-12.52-5.69a14.9,14.9,0,0,0-9.48-7.31c-.94.64-1.61,0-2.32-.49a3.57,3.57,0,0,1-1-1.62,3.33,3.33,0,0,1,.89-2.33,22.4,22.4,0,0,1,3.12-3,22.13,22.13,0,0,1,2.66-1.35,9.73,9.73,0,0,1,1.64-.67A1.05,1.05,0,0,1-745.41,146.45Z" transform="translate(773.39 36.66)"/><path class="cls-161" d="M-528.39,144.47c10.41-2.21,20.85-.36,31.32-.55-2.29,2.92-6,.13-8.32,2.55C-513.12,146.48-520.86,146.71-528.39,144.47Z" transform="translate(773.39 36.66)"/><path class="cls-80" d="M-737.39,146.47c4-.4,6.81-4.1,11-4,1.53,1.15,4.58,2.23.27,3.76-1.13.41-2.38.77-2.58,2-1.33,8.12-4.16,2.88-6.71.83C-736.31,148.36-737.42,147.86-737.39,146.47Z" transform="translate(773.39 36.66)"/><path class="cls-80" d="M-534.39,142.47c4.68-1.8,5.73-1.45,6,2-1.23,1.37-2.59,2.36-4.59,2-1-.19-2.39.36-3-.91C-536.86,143.89-534.88,143.54-534.39,142.47Z" transform="translate(773.39 36.66)"/><path class="cls-162" d="M-407.4,37.46l-2,1c0-1.44,0-2.9,2-3Z" transform="translate(773.39 36.66)"/><path class="cls-163" d="M-728.39,140.47c3.49-1.72,7.22-2,11-2h188c-.81,3.28-3.5,1.93-5.37,1.94q-68.61.1-137.24.06Z" transform="translate(773.39 36.66)"/><path class="cls-80" d="M-509.39,135.47c4.81,0,2,3.07,2,5-1.93,2-11.07,3.09-12.56,1.25-2.8-3.46,1.93-2.68,2.56-4.25a2.76,2.76,0,0,1,1.74-1c1.73-.23,3.53-.18,5-1.27A1.2,1.2,0,0,1-509.39,135.47Z" transform="translate(773.39 36.66)"/><path class="cls-163" d="M-509.39,135.47h-1a3.74,3.74,0,0,1-4.07.81c-1.94-.64-.26,1.12-.94,1.19h-5c.66-.68,1.33-1.35,2-2,3.94-1.23,7.79-2.8,12-3C-506.19,134.65-508.7,134.16-509.39,135.47Z" transform="translate(773.39 36.66)"/><path class="cls-83" d="M-761.39,189.47h-1c-1.5-1.52-1-3.46-1-5.21.24-4.82-.54-9.59-.59-14.38a26.82,26.82,0,0,0,.11-6.14c0-1.62,1.28-2.63,2-3.91,1.5-1.29,1.86-4.59,5.06-2.86.79,3.28,2,6.52,1.18,10-1.09,1.83-2.16,3.62-1.31,6a3.72,3.72,0,0,1-.75,4.13c-2.33,1.38-2.28,3.68-2.4,6S-759.56,187.61-761.39,189.47Z" transform="translate(773.39 36.66)"/><path class="cls-164" d="M-757.39,176.47a21.37,21.37,0,0,0-1.1-4.67c-1.23-2.54.07-3.54,2.1-4.33a1.69,1.69,0,0,1,2.4.13,4.81,4.81,0,0,1-.4,5.87c.57,4.87-1,9.82,1,14.69,1.14,2.74-1.6,2-3,2.31-2.51-4.21-1-8.76-1.17-13.18C-757.51,177-757.45,176.74-757.39,176.47Z" transform="translate(773.39 36.66)"/><path class="cls-165" d="M-761.39,189.47c0-3.09.16-6.18-.05-9.25s1.25-4.07,4.05-3.75h0a41.39,41.39,0,0,1,0,14C-758.77,190.33-760.34,190.93-761.39,189.47Z" transform="translate(773.39 36.66)"/><path class="cls-166" d="M-753.39,154.47l2,1c.79,3.52-1.3,7.64,2.32,10.6.54.44-.06,1.17-.66,1.54-2.3,1.45-1.51,3.79-1.66,5.86a1.35,1.35,0,0,1-2,0h0c-.74-5.49-1.85-10.95-1.25-16.53A3.69,3.69,0,0,1-753.39,154.47Z" transform="translate(773.39 36.66)"/><path class="cls-167" d="M-763.39,168.47a140.36,140.36,0,0,1,1,21c-.72,1.17-1.9,1-3,1,0-.67,0-1.33,0-2,2.13-4.83.87-9.9.71-14.82a29.79,29.79,0,0,1,.29-5.19A.66.66,0,0,1-763.39,168.47Z" transform="translate(773.39 36.66)"/><path class="cls-168" d="M-753.39,173.47h2c-.33,3.34.76,6.81-2,10.12Z" transform="translate(773.39 36.66)"/><path class="cls-75" d="M-753.4,156.47v17h-1v-6C-755,163.72-758.12,159.74-753.4,156.47Z" transform="translate(773.39 36.66)"/><path class="cls-79" d="M-757.39,190.47v-14c2.11,4.54.49,9.34,1,14Z" transform="translate(773.39 36.66)"/><path class="cls-169" d="M-761.44,160.47l-1.89,3a3.37,3.37,0,0,1-2,4l-2,2.91c-.75-3.29,2-5.27,3-7.92l1-2A1.28,1.28,0,0,1-761.44,160.47Z" transform="translate(773.39 36.66)"/><path class="cls-170" d="M-765.37,167.48l2-4a3.41,3.41,0,0,1-.06,5h-1Z" transform="translate(773.39 36.66)"/><path class="cls-41" d="M-373.4,4.45c-2.59.68-2.82-1.77-4-3,.67-1.24,1.6-2.5,3.07-1.6C-372.61.92-373.66,2.9-373.4,4.45Z" transform="translate(773.39 36.66)"/><path class="cls-171" d="M-95.41-10.55l-1,1-2,0c-1.28-.28-2.56-.79-.57-1.81A2.77,2.77,0,0,1-95.41-10.55Z" transform="translate(773.39 36.66)"/><path class="cls-172" d="M-341.39-20.54h6c1.3,3.47-1.36,3-3.14,2.93S-342.94-17.16-341.39-20.54Z" transform="translate(773.39 36.66)"/><path class="cls-173" d="M-381.43,2.41l2.27.47c-.2.37-.31,1-.61,1.08-1.44.55-1.45-.64-1.68-1.53Z" transform="translate(773.39 36.66)"/><path class="cls-130" d="M-440.39,55.47c.38-3-.81-4.24-3.92-4-3.49.21-7,0-10.49,0H-736.92c-.67,0-1.34,0-2,0-3.33-.2-6.9,1.32-9.79.6-4-1,.09-6.19-2.68-8.59a1.35,1.35,0,0,1-2,0c1.9-2.12,4-3.16,7-2.11,1.34.47,3,.11,4.47.11H-447.7c2.47,0,5,.43,7.31-1,1.36,2.8,2.85,5.34,6.05,6.64,1.88.76,2.73,2.76,2.81,4.9C-433.7,58.09-437,59.36-440.39,55.47Z" transform="translate(773.39 36.66)"/><path class="cls-174" d="M-432.39,51.47c-.88-1.54-1.24-3.7-3.4-3.94-4.53-.5-5-3.43-4.6-7.06.43-2-1.25-4.82,1.49-5.7,2.24-.71,5.24-1.26,7.06.92,3.83,4.58,9,6.3,14.45,7.78-.7,2.7-1,5.61-4,7-1.13.73-2.14-.59-3.29-.23-.72,1.52,1.9,3.1,0,4.42s-3,0-4.18-1.26C-429.71,52.19-431.24,52.17-432.39,51.47Z" transform="translate(773.39 36.66)"/><path class="cls-175" d="M-759.38,48.47c1.79-1.63.44-4.29,2-6,1.28.72,3,1,3,3v5c-1,.45-2.27-.14-3,1h-2C-759.39,50.47-759.39,49.47-759.38,48.47Z" transform="translate(773.39 36.66)"/><path class="cls-176" d="M-735.07,33.29c-2.58,1.57-5.12,1.25-7.66.31C-740.21,31.93-737.64,32.61-735.07,33.29Z" transform="translate(773.39 36.66)"/><path class="cls-177" d="M-753.39,43.47h2v7.41c-2.58-1.62-1.76-3.62-2-5.41C-753.4,44.8-753.4,44.13-753.39,43.47Z" transform="translate(773.39 36.66)"/><path class="cls-178" d="M-747.4,32.47c-.14,1-.4,2-1.73,1.81-1-.13-1.13-1-1.26-1.81Z" transform="translate(773.39 36.66)"/><path class="cls-179" d="M-428.39,52.47C-427.31,53-427,54.92-425,54c.63-1.85-4.19-2.89-1.19-5.27,2.58-2.06,3,1.62,4.76,1.72,1.24,3.75-3.62,5.48-3,9a12.4,12.4,0,0,1-5,7,1.87,1.87,0,0,1-1.43-1.35c-.44-3.17,3.52-6,.63-9.39C-430.21,54.33-430.81,52.58-428.39,52.47Z" transform="translate(773.39 36.66)"/><path class="cls-180" d="M-428.39,52.47c-1.47,1.05-.86,2.62-1,4-2.84,3.88-4,9.6-10.39,9.64a2,2,0,0,1-1.13-1A3.3,3.3,0,0,1-441,63a2.67,2.67,0,0,1,.87-1.1c.77-.68,2.22-.69,2.2-2.51-1.79.43-2.75,2.32-4.57,2.36-3,.27-6,.16-9,.16H-738.22c-3.49,0-7,0-10.48.1a2.85,2.85,0,0,1-3-1.64,3.89,3.89,0,0,1-.5-2.45,3.64,3.64,0,0,1,.78-1.43c2.28-1.42,4.83-1,7.3-1h303.7c4.65,2.64,6.73.13,8-4C-430.72,50.45-429.28,50.33-428.39,52.47Z" transform="translate(773.39 36.66)"/><path class="cls-180" d="M-751.39,56.47v1c-1.63,2.8-.45,5.8-.54,8.69-.21,6.42-.07,12.86-.05,19.29-.58,3.42,1.4,7.33-1.93,10.22-2.44-1.32-1.83-3.71-1.82-5.74,0-8.44-.48-16.88.67-26.46-.71,2.9.51,5.18-2,6.2-2.14-1.49-1.48-3.77-1.64-5.8s.18-3.92-.76-5.75c-.56-1.49.09-2.62,1.1-3.65C-754.73,50.48-753.44,54.79-751.39,56.47Z" transform="translate(773.39 36.66)"/><path class="cls-181" d="M-758.39,54.47l-1,3c-.11.2-.22.4-.32.6-2.48,2.37-.8,5.73-2,8.41-.61,1-1,2.34-2.67,2-2.27-3.73.26-8.26-2-12C-763.45,56.88-761.75,52.4-758.39,54.47Z" transform="translate(773.39 36.66)"/><path class="cls-130" d="M-757.39,51.47c.23-2.61,1.7-1.55,3-1C-755.11,51.65-756.29,51.43-757.39,51.47Z" transform="translate(773.39 36.66)"/><path class="cls-182" d="M-767.4,123.47v-20c3.06.84.54,3.55,1.52,4.82.27-2.8-.65-5.74-.47-8.75.09-1.44-.27-3.48,2.41-2.74,1.76,3.86.59,8,1,11.92,0,9.45,0,18.89,0,28.33,0,2.13.33,4.34-1,6.27-2.44,1.29-2.86-.15-2.87-2.13,0-4.29,0-8.59,0-12.88,0-1.62.46-3.31-.5-4.84Z" transform="translate(773.39 36.66)"/><path class="cls-183" d="M-764.4,96.47c-2.35,4.45,0,9.37-1.39,14.1-1.54-2.26.55-5.17-1.6-7.1v-35c2.64,3.31-.65,7.69,2,11a1.54,1.54,0,0,1,1.8,1.28C-763,86-761.88,91.35-764.4,96.47Z" transform="translate(773.39 36.66)"/><path class="cls-184" d="M-764.4,143.47q0-17.5,0-35c3.24.62,1.94,3.76,3.07,5.55.54,3.56.19,7.16.37,10.73q.09,10.14,0,20.27c-.06,3,0,6-.21,9.06a3.57,3.57,0,0,1-1.26,2.37l-2,2C-767.26,155.38-767.26,147.49-764.4,143.47Z" transform="translate(773.39 36.66)"/><path class="cls-185" d="M-764.4,143.47c-1.1,5-2,10,0,15-.59.92-.69,2.26-3,2.72V123.47c2.25,5.09.41,10.44,1,15.63C-766.19,140.76-767.18,143-764.4,143.47Z" transform="translate(773.39 36.66)"/><path class="cls-186" d="M-762.41,156.45l0-2c.95-1.73-.25-5.5,3.95-4.18a6.21,6.21,0,0,1,1.39.49c1.91,1.32,1.24,3,.64,4.66a3.11,3.11,0,0,1-1,1.1c-2.08.56-2,3.36-4.06,3.94h-1.94A6.66,6.66,0,0,0-762.41,156.45Z" transform="translate(773.39 36.66)"/><path class="cls-187" d="M-762.4,113.47c-1.89-1.18-.09-3.83-2-5q0-6,0-12c-.54-5.66,1.18-11.44-1-17,1.76-3.54-.87-7.48,1-11,.66-.67,1.33-1.34,2-2,1.76,1.71,1.45,3.94,1.47,6.06.09,7.28-.16,14.56,0,21.83q.13,7-.06,14C-761.06,110.15-760.86,112.05-762.4,113.47Z" transform="translate(773.39 36.66)"/><path class="cls-188" d="M-129.39,481.47h-582c-.57-1.31-3.29.62-3-2q288.32,0,576.63,0a23.08,23.08,0,0,1,8.34,1,.59.59,0,0,1,.28.65C-129.22,481.35-129.3,481.47-129.39,481.47Z" transform="translate(773.39 36.66)"/><path class="cls-189" d="M-138.39,487.47h-2c-2.07-1-4.27-.49-6.39-.49q-276.61,0-553.21-.05c-2.13,0-4.33.51-6.4-.46,1.48-1.64,3.43-1,5.18-1q282.71,0,565.42,0h5C-133.53,487.44-136.46,485.3-138.39,487.47Z" transform="translate(773.39 36.66)"/><path class="cls-190" d="M-706.39,483.47q282.4,0,564.81,0c2.06,0,4.36-.84,6.19,1q-282.66,0-565.32,0C-702.61,484.43-704.74,485.2-706.39,483.47Z" transform="translate(773.39 36.66)"/><path class="cls-191" d="M-706.39,486.47q279.9,0,559.81,0c2.07,0,4.36-.85,6.19,1h-567Z" transform="translate(773.39 36.66)"/><path class="cls-192" d="M-714.39,479.47l3,2c-4.41,0-8.81,0-13.22,0-1.57,0-3.44.43-3.77-2C-723.73,480.78-719.06,478.72-714.39,479.47Z" transform="translate(773.39 36.66)"/><path class="cls-193" d="M-708.54,482.48c-6,1.57-12-.11-17.66,2.37-.78.35-1.78.5-1.9-.66-.17-1.71,1.22-1.69,2.37-1.7C-720,482.47-714.27,482.48-708.54,482.48Z" transform="translate(773.39 36.66)"/><path class="cls-194" d="M-729.39,481.47h-3c-.82-3.39,1.22-2.5,3-2h0Z" transform="translate(773.39 36.66)"/><path class="cls-138" d="M-729.4,479.47c-1.45,0-2.91,0-3,2a2.06,2.06,0,0,1-1-2C-732.06,478.07-730.73,478.06-729.4,479.47Z" transform="translate(773.39 36.66)"/><path class="cls-195" d="M-129.39,481.47c0-.34,0-.67,0-1,1.31-1.39,2.74-1.31,4.35-.44C-126.07,482.1-127.9,481.26-129.39,481.47Z" transform="translate(773.39 36.66)"/><path class="cls-67" d="M-122.4,484.46a2.1,2.1,0,0,0-2,1c-.73-.11-2.23-.06-2-.48.78-1.54,2.48-1.52,4-1.52C-122.39,483.8-122.39,484.13-122.4,484.46Z" transform="translate(773.39 36.66)"/><path class="cls-72" d="M-470.39,118.47a2,2,0,0,1,1-2c2.49-1.06,5-2.07,7-4C-461.8,118.82-466.95,117.5-470.39,118.47Z" transform="translate(773.39 36.66)"/><path class="cls-196" d="M-440.39,64.47v1c.83,1.26.92,2.45-.3,3.53-3.13,1.64-6.53,1.06-9.82,1.06q-143.67,0-287.34,0c-2.5,0-5-.09-7.86.14a4.69,4.69,0,0,0,3.19.6q147.16.08,294.33,0a40.7,40.7,0,0,0,6-.45,11.34,11.34,0,0,1,1.65-.4c1.59,0,2.11,1.28,2.88,2.29a5.86,5.86,0,0,1,.79,1.17c.54,1.28.21,2.68.51,4l-1,1-2,1c-3.46-2.57-7.49-2.36-11.49-2.36q-144.74,0-289.46,0c-3.15,0-6.34.37-9.41-.74a4.52,4.52,0,0,1-2.41-3c.08-4.64-1.23-9.36.78-13.9a2.07,2.07,0,0,1,1,2c.53.35,1.07.67,1.63,1,2.75,1,5.61.59,8.42.6q145.65,0,291.28.05C-446.13,63.09-443,62.33-440.39,64.47Z" transform="translate(773.39 36.66)"/><path class="cls-197" d="M-436.4,77.47c-2.93-.69-.14-2.8-1-4-.61-1,0-1.69.45-2.45a23.26,23.26,0,0,0,2.06-3.43c1.24-1.24,2.07-3.37,4.49-2.12l1,1A38.71,38.71,0,0,1-436.4,77.47Z" transform="translate(773.39 36.66)"/><path class="cls-198" d="M-750.39,75.47q152.17,0,304.34,0c3.19,0,6.05,0,6.65,4-1.18.75-1,1.94-1,3.06a2.94,2.94,0,0,1-2,2.94c-1-.87-2.38.23-3.33-.75-1.8-2.11-.4-3.13,1.28-4-4.55-.36-9.05-.08-12.76,3.29-2.08-1.24-4-3.42-6.59-.71-2.25.92-4.6.69-6.92.69q-135.88,0-271.77,0c-1,0-2,0-3,0C-751.5,83.66-752.92,81.21-750.39,75.47Z" transform="translate(773.39 36.66)"/><path class="cls-199" d="M-462.39,81.47c2.61-2.91,2.71-2.87,5,2,1.5,1.89,2.9,3.4,5.52,1.26,2.37-2,3.29.54,4.46,2A2.82,2.82,0,0,1-447,88c-1.71,4-5.1,7.15-6.37,11.44a3,3,0,0,1-2.95,2,7.24,7.24,0,0,1-4.82,1.4,2.86,2.86,0,0,1-1.65-1.4,19.28,19.28,0,0,1-.67-7.17c1.49-3.39-.74-6.77-.07-10.16A7.06,7.06,0,0,1-462.39,81.47Z" transform="translate(773.39 36.66)"/><path class="cls-200" d="M-484.41,122.39c-.33-1-.66-2-1-2.92-.63-1.84.72-2.6,1.89-3.46,6.14-1.38,10.06-6.53,15.48-9.14,1.3-.41,2.83-.59,3.48.69.77,1.53-.9,2.11-1.86,2.87l-1,2C-473.57,114.89-478.17,120-484.41,122.39Z" transform="translate(773.39 36.66)"/><path class="cls-201" d="M-453.39,99.46c-.47-5.23,3.59-8.2,6-12,.88-1.61,1.83-3.09,4.05-2C-444.73,91.56-449.18,95.42-453.39,99.46Z" transform="translate(773.39 36.66)"/><path class="cls-202" d="M-466.4,110.43c.41-.84,1.37-2,1.11-2.45-.64-1-2-.35-3.1-.51l-.17-.65c1.91-2.24,4.06-4.08,7.17-4.35a8.06,8.06,0,0,1,5-1C-459.14,105.09-462,108.63-466.4,110.43Z" transform="translate(773.39 36.66)"/><path class="cls-199" d="M-443.34,85.49l-4.05,2h0c-1-2.09-.24-3,2-3,1.09,0,2.26-.17,3,1Z" transform="translate(773.39 36.66)"/><path class="cls-203" d="M-483.39,116.46l-2,3c-1.7,1-4,1.36-4,4h-7a10.39,10.39,0,0,1-3.93,1.56c-1.12.17-2.25-.32-3.44,0,1.23.62,2.93.17,3.67,1.72-4.82,3.39-11.29,3.18-14.83-.71-1.53-1.68-3.31-1.17-5.05-1.25a33.29,33.29,0,0,0-5.62.1c.68.94,2.22.75,2.41,2-1.64,2.51-4.5,1.82-6.78,2.65a50.76,50.76,0,0,1-9,.39H-695.26c-4.47,0-8.73.12-13.08,2.14s-9.53.62-14.33.79c-2.65.09-5.35-.31-7.28,2.19a3,3,0,0,1-2.22,1c-1.89.06-4.27,2.37-5.55-.77a5.26,5.26,0,0,1,2.92-7.2c1.06-.39,2.27-.44,3.23-1.71-2.65-2.2-5.29-1.49-7.89-.54a26,26,0,0,0-3.4,2.08c-5.55,3.15-8.33,1.75-9-4.5a10.27,10.27,0,0,0-.45-2.45,7.13,7.13,0,0,1-.15-2.8,2.6,2.6,0,0,1,1.55-2.22c3.31-.56,6.65-.12,10-.12q116.68,0,233.36,0a47,47,0,0,0,10.45-.74c2.78-.62,4.82-.09,4.21,3.75,3.14-.86,4.83-3.13,7.17-4.27.85-.39,1.71-.74,2.49.13A1.64,1.64,0,0,1-483.39,116.46Z" transform="translate(773.39 36.66)"/><path class="cls-204" d="M-751.39,120.47c1.1.82.89,2,1,3.17.18,1.56-.82,3.61,1.13,4.49a5,5,0,0,0,5.92-1.49c3-3.86,7-3.1,10.94-3.18,1.94,0,3.43.59,3.36,2.7-.07,1.94-.83,3.51-3.36,3.35-1.41-.08-3-.47-4.58.74-.2,1.63,6.55,3.74-1.51,5.41,4,1.38,6.63-.28,7.57-1.45,2.69-3.35,6-2.69,9.33-2.73,2.83,0,5.66,0,8.49,0,2.44,0,4.83.37,6.74-2.12,1.3-1.7,3.76-.85,5.71-.85q85.62,0,171.24,0a3.1,3.1,0,0,1-.21,4.49c-2.49,1.38-5.21.9-7.84.9q-80.67,0-161.35,0c-2.8,0-5.68-.44-8.38.77-4.08.32-8.16.7-12.22-.2-3.73.4-7.86-1.32-11,2.53-.63.78-2.83.62-4.24.42-5.49-.78-8.44,1.42-8.77,7l-2,2-1,0c-5.43.07-6.19-.52-6.33-5.59-.14-5.26-.07-10.52,0-15.78C-752.74,123.4-752.77,121.71-751.39,120.47Z" transform="translate(773.39 36.66)"/><path class="cls-205" d="M-719.39,134.47h12c1.41-1.18,3.13-1,4.78-1q85.74,0,171.48,0c.33,0,.66.05,1,.08a3.15,3.15,0,0,1,1.75.88c-1.48,1.63-3.44,1-5.18,1q-90.33,0-180.64,0C-716,135.44-717.91,136.1-719.39,134.47Z" transform="translate(773.39 36.66)"/><path class="cls-204" d="M-500.39,124.47c1.05-1.47,2.62-.86,4-1-5.91,8.57-15.13,8.32-24,9-.3-1.05.43-1.42,1.16-1.82.53-.29,1.33-.27,1.36-1.15-1.44-1.74-4-1.4-5.52-3-1.91-.5-5.4,1.24-5.45-1.44,0-2.93,3.43-1.26,5.32-1.49a35.09,35.09,0,0,1,6.95,0c1.72.13,4.63-.67,3.27,3-.21.57.07,1,.61.94,4.08-.52,8.47,2.73,12.29-1A1.32,1.32,0,0,1-500.39,124.47Z" transform="translate(773.39 36.66)"/><path class="cls-206" d="M-523.39,126.47c.33,0,.67,0,1,0,3-.37,6.72,1.36,7.12,3,.77,3.17-3.92.82-5.12,3h0c-2,2-5.06,0-7,2h-2a1.33,1.33,0,0,1,0-2v-4C-527.87,126.36-524.91,128.58-523.39,126.47Z" transform="translate(773.39 36.66)"/><path class="cls-204" d="M-527.39,134.47c1.46-3.73,4.68-1.28,7-2C-521.88,136.12-525.06,133.81-527.39,134.47Z" transform="translate(773.39 36.66)"/><path class="cls-72" d="M-496.39,132.47l4-3c.84,2.07,4.93-.17,4.33,2.4-.71,3-3.57,0-5.44.55A10,10,0,0,1-496.39,132.47Z" transform="translate(773.39 36.66)"/><path class="cls-207" d="M-751.39,120.47c0,6.13.29,12.29-.1,18.4-.27,4.16.54,6.93,5.07,7.54l-1,1a2.19,2.19,0,0,0-3,1.1,6.17,6.17,0,0,1-3,3A3.49,3.49,0,0,1-755,148.7a13.88,13.88,0,0,1,.12-1.7c.2-8.13,0-16.26.1-24.38,0-1.82-.18-3.66.6-5.4,2.17-2.36,2,.59,2.78,1.25Z" transform="translate(773.39 36.66)"/><path class="cls-208" d="M-757.38,156.53v-1c.9-.83,1.09-2.73,3-2l1,1c0,.67,0,1.33,0,2-2.13,3.5-.47,7.35-1,11h-2C-756,163.76-758,160.26-757.38,156.53Z" transform="translate(773.39 36.66)"/><path class="cls-209" d="M-754.34,153.47l-3,2c-.39-1.35,1.77-2.7,0-4-.07-2.26,1.57-2,3-2a2,2,0,0,1,1,2Z" transform="translate(773.39 36.66)"/><path class="cls-210" d="M-750.38,148.5c-.55-.41-1-1.11-.4-1.54a2.3,2.3,0,0,1,3.36.44Z" transform="translate(773.39 36.66)"/><path class="cls-155" d="M-515.4,137.47c.11-.67-2.57-1.62.15-2a37.49,37.49,0,0,1,4.86,0C-511,138.68-513.63,137-515.4,137.47Z" transform="translate(773.39 36.66)"/><path class="cls-130" d="M-430.39,65.47c-1.93.2-2.73,1.92-4,3-1.48,1.13-3.65.54-5,2h-1a1.38,1.38,0,0,1,0-2v-3c3.17-1,6.9-1.47,7-6,.07-2.73,3.14-1.33,4-3,2.82.63,2.12,2.35,1.27,4.12C-428.89,62.21-429.64,63.84-430.39,65.47Z" transform="translate(773.39 36.66)"/><path class="cls-211" d="M-440.39,64.47H-689.66c-18.62,0-37.24,0-55.86,0-1.76,0-4.23,1.11-4.87-2,1.95-1.3,4.17-1,6.31-1q149,0,297.94,0c1.94,0,4-.54,5.75,1Z" transform="translate(773.39 36.66)"/><path class="cls-180" d="M-440.39,62.47h-310v-1c2.28-1.42,4.84-1,7.3-1h302.7a1.39,1.39,0,0,1,0,2Z" transform="translate(773.39 36.66)"/><path class="cls-212" d="M-751.39,59.47v14c1.19,3-.09,6.23.77,9.27a4,4,0,0,1-.2,3.29c-1.2,1.4-1.87.32-2.57-.56,0-7.9,0-15.8,0-23.7,0-1.64-.79-3.84,2-4.3Z" transform="translate(773.39 36.66)"/><path class="cls-213" d="M-440.39,62.47v-2c-.13-2,.58-3.2,2.82-3,1.08.11,1.93.34,1.7,1.76C-436.28,61.91-437.85,62.85-440.39,62.47Z" transform="translate(773.39 36.66)"/><path class="cls-214" d="M-759.39,57.47c3,.58,1.85,3,2,4.71.16,2.42,0,4.86,0,7.29,2.19,2.43,1.26,5.41,1.43,8.2,0,7.38-.06,14.76,0,22.14,0,2.12.24,4.29-1,6.24-1.44,1.41-2.25.17-3.14-.75-1.87-6.27-.29-12.69-.8-19-.1-7.57-.08-15.15-.07-22.73,0-2.14-.12-4.32,1.49-6.07Z" transform="translate(773.39 36.66)"/><path class="cls-215" d="M-757.38,77.47q0-4,0-8c2.41-3.48-.19-7.76,1.6-11.34h1.4V95.47a.88.88,0,0,1-.59,1.36c-2.74-.16-1.77-2.28-1.87-3.7C-757.21,87.92-756.29,82.66-757.38,77.47Z" transform="translate(773.39 36.66)"/><path class="cls-216" d="M-754.39,96.47v-1c2-3.17.54-6.68,1-10l2,1c2.09,2.38,1.34,5.28,1.48,8-.14,3.68.19,7.37,0,11.06-.48,3.64,1.17,7.57-1.49,10.92v2c-.67-.67-1.34-1.33-2-2-2.26-2.42-.8-5.76-2.1-8.42C-755.72,104.13-756.85,100.13-754.39,96.47Z" transform="translate(773.39 36.66)"/><path class="cls-217" d="M-759.39,57.47v29c-1-.13-1.09.11-1.19,1.28-.2,2.28,2,5.37-1.8,6.72v-28c0-2.1.07-4.19,0-6.28S-761.31,57.36-759.39,57.47Z" transform="translate(773.39 36.66)"/><path class="cls-218" d="M-762.39,145.47v-21c1.45-5.93-.4-12.1,1.25-19.21,3.53,5,1.15,10,2.78,14.14a236.67,236.67,0,0,1,.16,25.27,4.35,4.35,0,0,1-.69,1.61C-760.42,147.59-761.48,146.85-762.39,145.47Z" transform="translate(773.39 36.66)"/><path class="cls-219" d="M-759.4,119.47c-2.4-3.75.1-8.12-1.52-12.14-1.58,5.73,1,11.65-1.47,17.14q0-5.5,0-11,0-9.51,0-19c2.16-3.08.26-6.65,1.27-10.09l1.72,2.09q0,9.5,0,19C-757.44,110.14-757.08,114.8-759.4,119.47Z" transform="translate(773.39 36.66)"/><path class="cls-209" d="M-762.39,145.47l3,1a4.48,4.48,0,0,1,1,5c-3.29-1.58-2.63,2.05-4,3Z" transform="translate(773.39 36.66)"/><path class="cls-220" d="M-758.4,151.45a8.25,8.25,0,0,1-1-5h0c1.34-1.55,1-3.45,1-5.23,0-8.78,0-17.56,0-26.33,0-1.79-.4-3.66.74-5.31,2.65-.36,2.3,1.78,2.5,3.21a50.21,50.21,0,0,1,.15,6.38c.16,9.47-.46,19,.35,28.43l.24.85v1l-3,2Z" transform="translate(773.39 36.66)"/><path class="cls-211" d="M-440.39,68.47v2c-.82,3.29-3.51,1.93-5.37,1.94-25.66.09-51.32.06-77,.06H-744.07c-1,0-2,0-3,0-1.49-.06-3.24.14-3.15-2.13.08-1.91,1.6-1.82,2.94-1.85s2.66,0,4,0Z" transform="translate(773.39 36.66)"/><path class="cls-198" d="M-751.39,83.47v-10a2.07,2.07,0,0,1,1,2c0,7,0,7,6.94,7H-469.2c2.31,0,4.68.34,6.81-1v3A7.39,7.39,0,0,1-468.14,87c-1.67.08-3.33.09-5,.09q-134.21,0-268.41-.06C-745.1,87-749.53,88.52-751.39,83.47Z" transform="translate(773.39 36.66)"/><path class="cls-211" d="M-439.4,70.47c.33-4,3-2.29,5-2a3,3,0,0,1-2,3c-1.24.09-1.32,1.35-2,2C-439.57,72.75-439.36,71.57-439.4,70.47Z" transform="translate(773.39 36.66)"/><path class="cls-130" d="M-438.39,73.47c.31-1-.7-3.37,2-2-.33.67-.67,1.33-1,2Z" transform="translate(773.39 36.66)"/><path class="cls-221" d="M-445.39,84.46a3,3,0,0,0-2,3c-1.76-.34-2.73-3.62-5.57-.38-1.66,1.88-4.94.19-4.43-3.62a12.29,12.29,0,0,1,15.77-2.31C-442.72,82.48-447.19,80.18-445.39,84.46Z" transform="translate(773.39 36.66)"/><path class="cls-222" d="M-751.39,105.47v-11c4.44-.94,8.94-.6,13.42-.6q135.35-.08,270.69-.06c1.66,0,3.34-.17,4.89.66-.5,2.33,1,4.66,0,7-1.78,2.22-6,2-6,6h0c-4.26,4.23-8.38,8.7-15,9v-1c.54-1.48,1.79-2.25,3-3.09,1-.71,2.63-1.28,1.93-2.91s-2.35-1.59-3.82-1.32-2.76,1-4.3.72a52.5,52.5,0,0,0-10.46-.78q-120.69,0-241.36,0c-2.84,0-5.67.06-8.49.33C-749.19,108.63-750.74,107.76-751.39,105.47Z" transform="translate(773.39 36.66)"/><path class="cls-223" d="M-462.39,94.47c-2.13,1.33-4.5,1-6.82,1q-136.71,0-273.42-.12c-2.85,0-6.17,2.36-8.76-.87v-11c1.35,1.74,3.15,2,5.28,2q138.93-.08,277.86-.08a36.15,36.15,0,0,0,5.86-1C-463.25,87.8-460.23,91.13-462.39,94.47Z" transform="translate(773.39 36.66)"/><path class="cls-223" d="M-468.4,107.47a5.21,5.21,0,0,1-1.8.59c-1-.08-.88-.86-.34-1.33,2.45-2.16,4-5.72,8.15-5.26l1,1Z" transform="translate(773.39 36.66)"/><path class="cls-158" d="M-751.39,105.47c1.07.62,1.53,2.26,3.27,1.78,5.89-1.64,11.92-.73,17.87-.73q118.39-.12,236.79-.09c3.23,0,6.3.21,9.06,2a4.26,4.26,0,0,1,0,6c-1.63,3.74-5.78,4.68-8.38,7.41-1.42,1.48-2.8-.06-2.47-2a18.63,18.63,0,0,1,1.69-3.89c-12,2.82-23.91,1.34-35.72,1.37q-107.65.24-215.31.07c-2.31,0-4.69.34-6.81-1Z" transform="translate(773.39 36.66)"/><path class="cls-224" d="M-484.39,114.47q0-3,0-6c1-3.34,3.28-1.91,5.24-1.37,1.22.34,2.5.58,2.77,2.37.39,2.61-1.65,2.88-3.14,3.74-1.29.74-2.57,1.5-3.86,2.25Z" transform="translate(773.39 36.66)"/><path class="cls-225" d="M-500.39,124.47c0,.66,0,1.33,0,2a5.35,5.35,0,0,1-1,0c-1.82-.35-3.94.88-5.45-1-.15-.19.14-1,.44-1.23C-504.36,122.79-502.36,123.5-500.39,124.47Z" transform="translate(773.39 36.66)"/><path class="cls-226" d="M-529.39,132.47v2h-178c.81-3.29,3.5-1.94,5.36-1.94q78.09-.12,156.17-.06Z" transform="translate(773.39 36.66)"/><path class="cls-209" d="M-754.38,108.47c2,2.46.55,5.35,1,8,0,9,0,17.9,0,26.84,0,1.74.65,3.69-1,5.16h0c-1.47-1.91-1-4.15-1-6.27-.06-7.49,0-15,0-22.48C-755,116-756.37,112.07-754.38,108.47Z" transform="translate(773.39 36.66)"/><path class="cls-227" d="M-757.39,109.47c0,10.89,0,21.79,0,32.68,0,1.65.79,3.85-2,4.32q0-13.5,0-27,0-7,0-14l2,1A2.09,2.09,0,0,1-757.39,109.47Z" transform="translate(773.39 36.66)"/><path class="cls-228" d="M-757.39,109.47v-3q0-14.5,0-29c2.11,4.76.44,9.78,1,14.64.19,1.66-.78,3.88,2,4.36q0,6,0,12c0,3.66,0,7.33,0,11a1.35,1.35,0,0,1-2,0C-756.85,116.15-755.36,112.63-757.39,109.47Z" transform="translate(773.39 36.66)"/><path class="cls-229" d="M-756.39,119.47h2q0,14.49,0,29c-2.76-.47-2-2.66-2-4.31C-756.43,135.92-756.39,127.7-756.39,119.47Z" transform="translate(773.39 36.66)"/></svg>