<svg id="图层_1" data-name="图层 1" xmlns="http://www.w3.org/2000/svg" viewBox="0 0 500 500"><defs><style>.cls-1{fill:#c2c2cc;}.cls-2{fill:#f3f3f5;}.cls-3{fill:#cbcbd5;}.cls-4{fill:#e5e4e9;}.cls-5{fill:#efeff1;}.cls-6{fill:#f1f1f3;}.cls-7{fill:#cdcdd7;}.cls-8{fill:#cfcfd9;}.cls-9{fill:#e7e6eb;}.cls-10{fill:#eae9ee;}.cls-11{fill:#e8e7ec;}.cls-12{fill:#f9f9fb;}.cls-13{fill:#b1b1bd;}.cls-14{fill:#eeedf3;}.cls-15{fill:#ecebf0;}.cls-16{fill:#e3e2e7;}.cls-17{fill:#d1d1db;}.cls-18{fill:#dadbe0;}.cls-19{fill:#dfdee4;}.cls-20{fill:#c9c9d3;}.cls-21{fill:#d4d4de;}.cls-22{fill:#e0dfe5;}.cls-23{fill:#ebeaef;}.cls-24{fill:#f4f4f6;}.cls-25{fill:#d2d2d4;}.cls-26{fill:#e2e2e2;}.cls-27{fill:#d6d7dd;}.cls-28{fill:#f6f6f8;}.cls-29{fill:#cacad0;}.cls-30{fill:#c5c5d1;}.cls-31{fill:#b3b2be;}.cls-32{fill:#bcbcc7;}.cls-33{fill:#cecdd5;}.cls-34{fill:#b6b5c1;}.cls-35{fill:#bbbac6;}.cls-36{fill:#c8c8ce;}.cls-37{fill:#c2c1cc;}.cls-38{fill:#c5c3ce;}.cls-39{fill:#c7c7d1;}.cls-40{fill:#d9d9da;}.cls-41{fill:#e1e1e1;}.cls-42{fill:#e0e0e0;}.cls-43{fill:#d5d5d5;}.cls-44{fill:#5c5c60;}.cls-45{fill:#c0c0cc;}.cls-46{fill:#c5c5cf;}.cls-47{fill:#c6c6d2;}.cls-48{fill:#bfbfca;}.cls-49{fill:#bfbfc9;}.cls-50{fill:#c9c9d2;}.cls-51{fill:#b6b6c0;}.cls-52{fill:#bebec8;}.cls-53{fill:#b9b9c3;}.cls-54{fill:#f5f5f7;}.cls-55{fill:#f0f0f2;}.cls-56{fill:#f7f7f9;}.cls-57{fill:#cacad4;}.cls-58{fill:#e3e2ea;}.cls-59{fill:#efeef3;}.cls-60{fill:#d0d0da;}.cls-61{fill:#565658;}.cls-62{fill:#fbfbfb;}.cls-63{fill:#d9d9db;}.cls-64{fill:#dcddde;}.cls-65{fill:#d8d8d9;}.cls-66{fill:#dadadb;}.cls-67{fill:#dedee0;}.cls-68{fill:#d6d6d7;}.cls-69{fill:#dadada;}.cls-70{fill:#dcdcdc;}.cls-71{fill:#dddedf;}.cls-72{fill:#afafbb;}.cls-73{fill:#b3b3bf;}.cls-74{fill:#cacbd0;}.cls-75{fill:#cbcad3;}.cls-76{fill:#d4d3d9;}.cls-77{fill:#ceced3;}.cls-78{fill:#d3d4d8;}.cls-79{fill:#cfd0d4;}.cls-80{fill:#d7d6dc;}.cls-81{fill:#dad9e1;}.cls-82{fill:#d7d8dd;}.cls-83{fill:#dcdbe3;}.cls-84{fill:#dddee3;}.cls-85{fill:#dcdcdd;}.cls-86{fill:#d9d9d9;}.cls-87{fill:#e0dfe7;}.cls-88{fill:#d3d3dd;}.cls-89{fill:#d5d6db;}.cls-90{fill:#e1e0e8;}.cls-91{fill:#dedfe3;}.cls-92{fill:#e3e3e7;}.cls-93{fill:#edecf1;}.cls-94{fill:#e8e8ec;}.cls-95{fill:#fefefe;}.cls-96{fill:#ccccd6;}.cls-97{fill:#d0d0d8;}.cls-98{fill:#d1d1d7;}.cls-99{fill:#cfcfd7;}.cls-100{fill:#bfbfc8;}.cls-101{fill:#c2c2cb;}.cls-102{fill:#c0c0c8;}.cls-103{fill:#b8b8c4;}.cls-104{fill:#bfbfcb;}.cls-105{fill:#c8c8d4;}.cls-106{fill:#dfdee6;}.cls-107{fill:#e2e1e9;}.cls-108{fill:#d7d5e0;}.cls-109{fill:#d4d3de;}.cls-110{fill:#e6e5ea;}.cls-111{fill:#d2d2dc;}.cls-112{fill:#d0ced9;}.cls-113{fill:#dddce4;}.cls-114{fill:#cfcdd8;}.cls-115{fill:#dbdae2;}.cls-116{fill:#d3d2dd;}.cls-117{fill:#d9d8e0;}.cls-118{fill:#c7c7d3;}.cls-119{fill:#dedde6;}.cls-120{fill:#59595c;}.cls-121{fill:#575759;}.cls-122{fill:#565657;}.cls-123{fill:#bbbbc5;}.cls-124{fill:#bbbbc7;}.cls-125{fill:#c4c4ce;}.cls-126{fill:#521ffe;}.cls-127{fill:#5b1dfe;}.cls-128{fill:#4a23fd;}.cls-129{fill:#621afe;}.cls-130{fill:#6a17fe;}.cls-131{fill:#4125fe;}.cls-132{fill:#7613fe;}.cls-133{fill:#8010fe;}.cls-134{fill:#7015fe;}.cls-135{fill:#880efd;}.cls-136{fill:#3b28fe;}.cls-137{fill:#7c11fe;}.cls-138{fill:#8e0dfc;}.cls-139{fill:#362afd;}.cls-140{fill:#312cfc;}.cls-141{fill:#5d5f55;}.cls-142{fill:#f9f9f9;}.cls-143{fill:#b5b5c1;}.cls-144{fill:#e8e7eb;}.cls-145{fill:#dfdfe3;}.cls-146{fill:#dbdbe0;}.cls-147{fill:#d6d6dd;}.cls-148{fill:#bdbdc9;}.cls-149{fill:#b9b8c5;}.cls-150{fill:#b2b2be;}</style></defs><title>运动</title><path class="cls-1" d="M401,315v34a1.51,1.51,0,0,1-2.26-.17c.17-7.68-2.31-15-3.3-22.48-1.83-4.34-5.73-2-8.74-2.77,2.8,1,3.69,2.78,1.8,5-2,2.38-2.88,5.15-3.89,8-1.36,3.8-4.08,6-8.3,6-2,0-4,.05-6,.05H-56.53c-1.83,0-3.67-.08-5.5,0-4.49.13-7.45-2.19-8.56-6.23A30.72,30.72,0,0,0-75,327.56c.15-2.2-1.4-2.17-2.91-2.17-1.83,0-2.89.82-3.74,2.59a29.34,29.34,0,0,0-.42,25.32c0,1.91.47,4.16-2.68,3.93-2.23-3.57-4.07-7.29-4.57-11.54,0-9.25-.13-18.49,1.09-27.71.62-4.62,2.92-8.5,4.94-12.32,1.77-3.35,5.74-2.3,8.94-1,2,2.65,3.8,5.44,7.14,6.64a2.52,2.52,0,0,1,1.53,1.23c2.21,6.17,7.42,4.86,12,4.86,69.76,0,139.52.1,209.26-.06,6.61,1.23,13.24,1.94,19.91.39a5.18,5.18,0,0,1,3.22-1.18c1.12.25,1.94,1.07,3,1.53a37.67,37.67,0,0,0,10.64-.74c6.78.35,13.56.14,20.33.18,1,0,2.3.33,2.92-.23,5.19-4.77,10.45-.78,15.68-.32A98.65,98.65,0,0,0,255,317c38.92,1.11,77.85.2,116.77.52,3.07,0,6,.29,6.91-3.72.29-1.21,1.71-2.05,2.9-2.63,5.23-2.58,8-7.08,10.05-12.27.94-2.39,2.4-4,5.29-3.28,2.33,2.5,1.51,5.62,1.51,8.5C398.37,308,398.67,311.73,401,315Z" transform="translate(99 99)"/><path class="cls-2" d="M401-23v4c-2.73,2.92-6.26,3.64-10,3.56a17.3,17.3,0,0,0-10,2.43,12.66,12.66,0,0,1-6.74,1.56c-5,.08-10,0-15,0a16.22,16.22,0,0,1-8.14-2c-1.15-.66-2.31-1.59-3.65-1.53-7.69.31-14.92-2.62-22.69-2.55-38.31.34-76.62-.07-114.94,0-95.63.24-191.26,0-286.89.1-5.26,0-10,.69-12.29,6.34-.83,2.74,1.12,6.3-2.38,8.27-3-3.53-1-7.79-1.65-11.65-.14-1.89-1.07-3.55-1.52-5.35a7.73,7.73,0,0,1-.24-1.59,5.21,5.21,0,0,1,1-3.76c1.92-1.3,3.24,1.6,5.11.71,3.28-3.39,7.32-4,11.86-4q201.87.11,403.74,0c3.52,0,7,.13,10.2,1.83,2.15,1.13,4.54.78,6.86.5,13.75-.89,27.52-.3,41.28-.34a6.29,6.29,0,0,1,3.84.86A7.83,7.83,0,0,0,397-24.44C398.59-25.08,399.91-24.14,401-23Z" transform="translate(99 99)"/><path class="cls-3" d="M401,252v21a2.07,2.07,0,0,1-2.52-1.85c-.32-7.16-4.84-14-2.29-20.1-1.24,4.93-5.3,10.26-6.38,16.75a2.1,2.1,0,0,1-1.57,1.8c-4.36.42-7.87,3.65-12.29,3.75q-9.46.22-18.95,0c-4.41-.1-7.9-3.38-12.28-3.75a1.72,1.72,0,0,1-1.35-1.36c-1.25-6.69-5.34-12.34-6.94-18.89,0-.68-1,.21-.42-.09.12-.07.17.05.26.3a5.45,5.45,0,0,1,.05,4.32,9.63,9.63,0,0,0-1.07,3.82c-.48,2.87-2.31,4.28-5.08,4.68a40.27,40.27,0,0,1-5.49.22q-52.69,0-105.39,0c-3,0-6.43.82-8.83-2.11-.64-6.57,3.26-11.57,6-17a1.25,1.25,0,0,1,2.1-.16c1.46,2,3.55,2.2,5.8,2.19,33.8,0,67.6,0,101.4,0,5.72,0,6.53-.94,8-6.78.6-2.41.32-6,3.91-6s4.19,3.19,4.8,6.07c1.19,5.59,2.32,6.61,8.08,6.69q16,.21,32,0c5.71-.07,6.81-1.1,8.1-6.71a11.6,11.6,0,0,1,1.26-3.76c.95-1.49,2.23-2.55,4.08-2.36s2.24,1.78,2.66,3.22C400.1,241.12,399.92,246.65,401,252Z" transform="translate(99 99)"/><path class="cls-4" d="M401,70V99c-2.63-.23-2.15-2.59-2.71-4.13-.94-2.55-2.14-4.41-5.27-4.38s-3.14,2-3.39,4.33c-.3,2.66-2.55,3.39-4.81,3.44-12.16.28-24.32.26-36.48,0-2.47,0-4.48-.91-5.1-3.81-.94-4.41-3.49-5.25-7.22-2.51a11.62,11.62,0,0,1-2.83,2,18.54,18.54,0,0,1-5.92.6q-41.83,0-83.65,0a17.74,17.74,0,0,1-6.86-.89,7,7,0,0,1-3.68-3.82c-2.12-5.19-4.91-10.07-6.85-15.33-.64-1.76-1.85-3.72.42-5.32,1.9-.84,3.92-.74,5.91-.75,33.32-.14,66.65.26,100-.23,2.47,0,4.35.53,4.77,3.22s2.09,4,4.78,4.06c4,.15,5.78,2.36,6.59,6.17,1.08,5.13,3,6.52,8.39,6.7,6.16.2,12.33.17,18.49,0,6-.15,7.62-1.39,8.91-7.3.81-3.73,2.88-5.48,6.52-5.57,2.71-.06,4.24-1.14,4.78-4C396.43,68.12,398.35,67.53,401,70Z" transform="translate(99 99)"/><path class="cls-5" d="M401-4V0c-3.47,2.08-7,3.76-11.22,2.34-2.61-.88-4,.92-5.38,2.58-.34.57-1,.82-1.46,1.4,1.38-.2,1.67-1.81,2.9-2.1,3.58-.19,4.77,1.32,2.54,4.27-1.52,2-2.9,4.32-5.36,5.49-11.51,1.29-23,.33-34.57.55-1.15,0-2.31-.11-3.46,0q-34.71.15-69.42,0c-3.1,0-6.43.46-8.75-2.47a11.91,11.91,0,0,1-2.45-5.32,30,30,0,0,0-9.1-15c-1.3-1.21-3.65-2.25-1.7-4.73,2.17-1.58,4.7-1.53,7.18-1.54q33.92,0,67.81,0c6.15,0,11.46,3,17.15,4.64A6.45,6.45,0,0,1,350-4.65c.56,3,2.41,4.1,5.26,4.12,7.65,0,15.29.11,22.93,0,2.05,0,3.73-.49,4.65-2.88,2.77-7.17,5.73-8.68,13.38-7.41,2.28,3.73,1.87,4.42-3.8,6.48C395.13-3.63,398.13-5.63,401-4Z" transform="translate(99 99)"/><path class="cls-6" d="M397-10c-2,0-4.09-.37-6,.1-3.53.88-7.25,1.93-6.53,7,.42,3-1.62,3.84-3.93,3.87-9.32.1-18.64.08-28,0-2.33,0-4.2-.77-4.19-3.71,0-4.45-2.65-6.27-7.22-7.35-26.47-6.23-53.28-1.3-79.88-2.91A22.86,22.86,0,0,0,253-12c-2.7.66-4.69-.78-6.66-2.27-1.14-1.67-2.89-1.37-4.55-1.34-6.51.19-13.1-.55-19.37,1.93q-56.15.16-112.26.08-94.23,0-188.45,0c-3,0-6.07-.58-8.51,1.85a8.51,8.51,0,0,1-1.55,1.06A2.53,2.53,0,0,1-91-11a11.32,11.32,0,0,1,10.91-8H14.38q155.69,0,311.37-.18c7.89,0,15.2,3.64,23.08,2.31,8,6.85,17.55,2.79,26.37,3.86,1.69.2,3.63.17,4.75-1.06,3.3-3.63,7.58-3.36,11.59-2.79,3.63.51,6.06-2.66,9.46-2.14v8A10.09,10.09,0,0,1,397-10Z" transform="translate(99 99)"/><path class="cls-7" d="M401,252c-1.26-5.24-2.48-10.49-3.8-15.71-.26-1,.25-2.72-1.36-2.82s-2.71,1.08-3.3,2.58A8.4,8.4,0,0,0,392,238c-1.31,8.7-1.69,9-10.22,9-10.82,0-21.63,0-32.44,0-6.22,0-7.89-1.65-8.4-7.84a15.37,15.37,0,0,0-.67-3.37,3.25,3.25,0,0,0-3-2.35c-1.69,0-1.21,1.66-1.51,2.67C332.61,247,332.62,247,321,247c-33.1,0-66.2,0-99.3.07-3.2,0-4.63-.65-3.67-4-.66-4.54,1-7.82,4.75-9.3a33,33,0,0,0,7.93.7c30.75,0,61.51-.05,92.27.05,4.32,0,7.57-.47,9.43-5.23,1.44-3.7,4.68-4.22,7.66-1.42,3.22,3,6.82,3.67,10.95,3.63,10.81-.11,21.62-.06,32.42,0,3.27,0,6.24-.49,8.67-3,1.68-1.7,3.65-3,6.24-1.92,2.93,1.21,2,3.83,2.15,6,.13,1.46-.41,3,.51,4.37Z" transform="translate(99 99)"/><path class="cls-8" d="M401,237c-1.74-1.64-.9-3.77-.95-5.68s-.48-3.2-2.34-3.93a2.94,2.94,0,0,0-3.87,1.37c-2.51,4.49-6.6,4.31-10.86,4.28q-17.49-.16-35,0c-3.35,0-6.22-.34-8.16-3.57-.81-1.33-2.1-2.89-4.07-2.19a4.15,4.15,0,0,0-2.79,3.8c-.33,3.87-2.34,5-6.27,5-33.15-.16-66.29-.07-99.44-.14-1.88,0-4.58,1.27-5.31-2-.7-5.13,2.3-8.86,4.89-12.7.51-.76,1.48-.4,2.24,0a12.78,12.78,0,0,0,8,2.27c29.92,0,59.84-.06,89.76,0,4.38,0,6.72-1.55,7.64-6,1.16-5.63,2.84-6.42,8.95-5.28a2.32,2.32,0,0,1,1.44,1.9c-.42,8,6.18,9.37,11.25,9.89,8.93.91,18.14,2.14,27-2,3-1.39,4.58-2.83,4.54-6.14,0-2.94.36-5.82,4.15-6.3,2.95-.37,6.44,2.23,7.22,5.71.71,3.21.83,6.54,2,9.66Z" transform="translate(99 99)"/><path class="cls-9" d="M401,70c-2.08-.46-4.54-1.47-4,2.38s-1.24,5.12-4.84,4.63c-4.25-.58-6.45.66-6.32,5.62.13,4.46-3.16,7.24-7.78,7.33q-11.47.21-22.95,0c-4.9-.08-8-2.84-8-7.65,0-4.23-1.57-5.83-5.61-5.31-3.75.49-6.21-.35-5.56-4.93.22-1.53.06-2.62-2.39-2.5-8.3.39-16.61.4-24.92.42q-41.43.08-82.85.07c-3.26-1.67-5-5.07-8.13-7-1.28-.81-1.31-2.29.64-2.89a53.58,53.58,0,0,1,10.95-.7q51.48,0,103,0c3.62,0,7.7-1.1,10.71,1.24,3.24,2.52,4.57,6.84,6.07,10.49s3.19,4.44,6.6,4.34q11.49-.33,23,0c2.65.08,4.43-.55,5-3.54.77-3.76,3.66-6.52,5.17-10,1.4-3.22,7.2-3.38,12.23-1Z" transform="translate(99 99)"/><path class="cls-10" d="M401,37V53c-.42.26-.86.72-1.33.61-8.82-2.06-10.77,4.15-12.79,10.45-1.83,5.73-2.72,6.14-8.62,5.78a156.75,156.75,0,0,0-24.42.12c-3.95.38-6.5-.88-7.42-4.81a31.89,31.89,0,0,0-2.05-5.06c-2.73-6.52-2.7-6.55-9.94-6.54q-62.35,0-124.72,0a16.82,16.82,0,0,0-3.47.21c-4.41-.34-7.6-3.12-10.9-5.61-1.14-.85-2.32-2.08-1.09-3.8,2.33-2,5.2-1.66,8-1.79,5-.26,10.17.68,15.14-.91,4.42-.24,8,2.93,12.41,2.92,3.55.09,7.09.07,10.64,0a20.93,20.93,0,0,0,9.21-3c1.74-.94,3.5-1.85,5.5-.59,2.95,1.46,6.13,1.41,9.3,1.41q36.72,0,73.45,0c2.81,0,5.68-.3,8.33,1a5.38,5.38,0,0,1,1.35,1.12c2.45,3.38,1.7,7.32,1.82,11.08.09,2.77.55,4.1,4.1,3.57a90.29,90.29,0,0,1,25.8,0c3.71.5,4.46-.67,4.37-3.76a41,41,0,0,1,.92-10.88c0-1,.08-2,.08-3,0-3.9.82-7.31,5.18-8.56C394.39,31.7,398.09,33,401,37Z" transform="translate(99 99)"/><path class="cls-11" d="M205.15,53c1.79-1.19,3.82-1,5.81-1q64,0,128,0c3.88,0,6.27.43,6.23,5.3,0,3.64,3.34,6.56,3.53,10.51.07,1.26,2.07,1.23,3.47,1a105.73,105.73,0,0,1,28.76,0c1.4.19,3.38.18,3.43-1.13.14-3.82,3.52-6.63,3.44-10-.12-5.5,2.67-5.9,6.86-5.74A40.48,40.48,0,0,1,401,53v8c-2.16,0-4.34.13-6.49,0-3.55-.25-6,.57-5.56,4.83a2.47,2.47,0,0,1-1.58,2.84c-2.71.73-2.51,2.79-2.34,4.76.27,3.21-1.45,4.09-4.21,3.94a236,236,0,0,0-28.89,0c-1.32.09-3.66-.48-3.43-1.25,1.63-5.22-4.63-7.14-4.52-11.59.08-2.93-1.75-3.59-4.25-3.55-3.66.06-7.33,0-11,0H217C211.89,60,207.73,57.65,205.15,53Z" transform="translate(99 99)"/><path class="cls-12" d="M401-55v23c-3.52.16-4.1-2.48-4.21-5-.17-3.74-2-4.79-5.45-4.69-3.13.09-6.31.38-9.41-.44a4,4,0,0,1-1.35-.83c-.81-1-1.44-2.48-2.88-2.46-4.32.07-6.09-3.28-8.42-6a18.67,18.67,0,0,1-3.15-3.2c-2.82-4.58-6.83-6.12-12.15-6.13s-8.57-5.24-13.46-6.95c-2-.71-3.89-1.79-6.12-1.44-5.47.88-11,.62-16.46.62L-9-68.4a68.27,68.27,0,0,1-17.33-1.76,2.42,2.42,0,0,1-1.38-2.3A2.8,2.8,0,0,1-25.39-75a13.09,13.09,0,0,1,6.31.25,8.43,8.43,0,0,1,1.68.82c2.1.78,4.29.52,6.44.52q167.81,0,335.61,0c2.14,0,4.34.3,6.39-.6,2.81-2.51,6-2.65,9.27-1.15,3.75,1.7,7.9,2.33,11.38,4.85,2.17,1.57,4.85,1.4,6.46-1.31,1.07-1.8,1.33-4.38,4.2-4.22,3,.18,6.5.62,8.07,3.2,3.61,6,10.36,5.32,15.39,8.17,1.7,1,3.14-.32,4.24-1.69a2.92,2.92,0,0,1,1.38-.38,3.16,3.16,0,0,1,1.83,1,24.44,24.44,0,0,0,3.37,4.09C398.56-59.63,399.66-57.23,401-55Z" transform="translate(99 99)"/><path class="cls-13" d="M334,401H-25c-3.65-1.11-7.34-2.13-10.63-4.18-.79-1.45-1.18-2.82.73-3.75,2.29-.82,4.83-1.1,6.82.07,4.49,2.63,9.29,2.23,14.09,2.23q170.21,0,340.4,0c3.15,0,6.34-.36,9.43.61C340,399.42,335.47,399.65,334,401Z" transform="translate(99 99)"/><path class="cls-14" d="M266.86,10c1.25,2.52,3.31,3,6,3C296.92,13,321,13,345,13c3.05,1.58,5.67,3.48,6,7.31.25,2.57,2.21,3.17,4.32,3.23,7.48.21,15,.19,22.45,0,2.23-.06,3.76-1,4.19-3.45.71-3.95,3.32-6.38,6.75-8.1,4.15-.49,8.34-1.49,12.25,1V23c-2.54.47-3.35-1.66-4.65-3.07-3.18-3.47-6.83-2.94-8.34,1.46-1,3-3.29,5.34-3.52,8.72-.16,2.36-2.39,3.08-4.48,3.14q-13.47.42-26.95,0c-2.54-.08-4.53-1.16-4.8-4.07-.31-3.43-2.78-5.95-3.79-9.14-.82-2.61-4.6-3-6.78-1.22a5.08,5.08,0,0,0-1.76,2.39c-2.05,7.51-7.48,8.47-14.29,8.31-16-.36-31.95,0-47.92-.19-3.92,0-8.37.11-9.05-5.55C265.46,19.21,264.69,14.39,266.86,10Z" transform="translate(99 99)"/><path class="cls-15" d="M265.86,23.7c-.06,3.86,3,4.19,5.51,4.21,19,.14,37.95.08,56.92.08,3,0,4-1.83,4.89-4.57,2.27-7.22,6.86-9.25,12-5.83,1,.68,2.17,1.36,1.53,2.69-1.09,2.28.49,3.34,1.71,4.66.77.83,2.39,1.63,1.91,2.7-2.6,5.7,1.89,4.26,4.38,4.31,8.32.14,16.64.1,25,0,2.25,0,5.3.23,3.15-3.74-.79-1.45.59-2.06,1.32-2.85,1.43-1.56,2.82-2.7,2.21-5.5s2.72-3,4.57-3.59c2.13-.65,4.69-1,6.08,1.78,1,1.93,1.82,4,4,4.93V33c-2.93,1.44-5.82-.31-8.79-.09-5.38.42-6.83,1.52-7.22,6.73-.4,5.44-1.53,6.68-7,6.82-7.66.2-15.32.19-23,0-5.35-.12-6.75-1.54-7.36-6.75-.66-5.61-1.41-6.7-7.31-6.23-23.28,1.88-46.58.59-69.87,1-2.77,0-5.77.49-7.74-2.32C262.28,28.77,262.75,25.74,265.86,23.7Z" transform="translate(99 99)"/><path class="cls-16" d="M334,93a7.54,7.54,0,0,1,10.45-3.23c1.13.7,1.88,1.45,1,2.77-2.77,4,0,4.42,3,4.44,9.63,0,19.26,0,28.89,0,2.83,0,5.66.1,8.47,0,2.33-.14,4.22-1.2,2.37-3.74-2.18-3,.16-3.48,1.95-4,5.53-1.63,9.19.89,9.92,6.64.14,1.14-.12,2.36,1,3.16v18c-3.86-3.17-3.23-8.26-5.23-12.23a11.2,11.2,0,0,1-.41-2.45c-.26-1.2-.65-2.26-2.15-2.32-1.71-.06-2.33,1-2.52,2.49a69.58,69.58,0,0,0-.21,9.47c0,4-1.64,5.81-5.7,6.69a84.55,84.55,0,0,1-37.52-.19c-3.19-.73-4.53-2.39-4.66-5.44a41.39,41.39,0,0,1,0-6.49c.54-4.62-1.15-7.31-5.94-7.73C334.55,97.41,334.43,95.13,334,93Z" transform="translate(99 99)"/><path class="cls-17" d="M401,225c-1.63-2.64-3.35-5.19-3.06-8.6.23-2.69-1.78-4.35-3.9-5.25-2.56-1.07-4.86-.84-5.08,2.93-.15,2.56,1.39,6.08-1,7.5a30.1,30.1,0,0,1-11.84,4.23c-6.39.69-12.92.35-19.39.12-4.15-.14-7.74-2.64-11.38-4.21-3-1.31-.86-5.73-1.37-8.72-1.88-2.58-1.79-5.23-.3-7.94,2.08-1.87,4.67-1.5,7.13-1.52,10-.06,20-.08,30,0,3.86,0,7.17-.22,6.7-5.44a2.58,2.58,0,0,1,2.05-3,17.85,17.85,0,0,0,7.39-3.53c2.55-1.95,2.78,2.06,4.05,3.43Z" transform="translate(99 99)"/><path class="cls-18" d="M401,149v24a1.68,1.68,0,0,1-2.35-.08c-1.57-2.61-1.07-5.82-2.54-8.52-1.28-2.35-2.76-3-5.25-2-14.91,6.1-30.16,5.3-45.32,1.44a33.7,33.7,0,0,1-10-4c-1.81-3.54-.62-7.35-1-11a13.1,13.1,0,0,1-.06-2c.31-6.9,2.1-8.19,9.12-6.6a4.07,4.07,0,0,1,1,1c1.17,1.78.11,4.92,2.43,5.68,4.43,1.45,7.84,5.52,13.24,4.65a31.24,31.24,0,0,1,10.39,0c6,1.08,10.46-2.36,15.25-4.62,2.93-1.37,1.25-4.78,1.69-7.27a28.73,28.73,0,0,1,.06-4.45c.23-3.24,2.05-4.65,5.19-4.67s5.12,1,5.5,4.34A68.84,68.84,0,0,0,401,149Z" transform="translate(99 99)"/><path class="cls-19" d="M401,149c-3-3.52-3.78-7.87-3.92-12.25-.1-3.05-.36-4.86-4.22-4.87-4.19,0-4,2.39-3.87,5.14,0,1,0,2,0,3-2,2.12-4.61,2.48-7.3,2.51q-15.15.15-30.31,0c-2.5,0-5-.27-7-2-2.38-1.93-1.59-4.64-1.79-7.11,0-1.57.3-3.37-1.89-3.83-2.53-.53-3.28,1.42-4.13,3.18-1.9,2.71-4.66,3.59-7.78,3.65-5.47.09-10.93.07-16.4,0-2.78,0-5.25-.74-6.87-3.23-1.12-1.62-2.81-3.07-1.53-5.37,7.4-.61,14.81-.15,22.21-.15,4.3,0,8.06-.05,7.87-5.9a4.71,4.71,0,0,1,1.6-3c5.78-3.18,10.06,1.7,14.95,3,1.94.52,1,2.76-1.13,4.78a64.21,64.21,0,0,0,33.61.17c-1.44-2.35-2.93-4.49.17-5.49,2.71-.87,5.19-2.19,7.83-3.11,4.3-1.48,7.91,1,8.53,5.73.23,1.81.06,3.64,1.38,5.13Z" transform="translate(99 99)"/><path class="cls-20" d="M336,253v-5.48c2.64,5,6.09,9.22,7,14,1.08,5.4,2.84,7.57,8.41,8.59,2.28.42,4.9,1.89,7.65,1.93,3.65.05,7.44-.62,10.93.15,6.43,1.4,11.41-3.38,17.41-3.35a1.83,1.83,0,0,0,1.31-1.22c.28-7.4,5-13,8.14-19.44-1.55,7.1,2.33,13.55,2.14,20.49a5.25,5.25,0,0,0,2,4.38v16c-2.62.37-2.85-1.66-3.12-3.35a18.85,18.85,0,0,0-1.47-5.09,7.5,7.5,0,0,1-.45-1.44,41.83,41.83,0,0,1,0-10.64c.05,1.46-.91,3.3-2.36,4.94-.76.87-1.82,1.67-1.84,2.88-.09,3.64-2.19,4.87-5.46,5.06-2.78.15-4.85,1.08-4.66,4.49.16,2.72-1.86,3.31-4,3.37-7.47.21-15,.21-22.43,0-2.46-.07-4.16-1-4-3.92s-1.76-3.76-4.13-3.91c-3.34-.22-4.48-2-6.22-5-2.85-4.84-3.93-10.05-5.82-15.09C335.16,258.54,334.32,255.63,336,253Z" transform="translate(99 99)"/><path class="cls-21" d="M399,173h2v22c-1.55-.53-1.94-2.18-3.46-3.95-.14,4.64-2.6,5.55-6,4.95-2.76-.47-2.93,1-2.54,3.19.79,4.39-.77,6.06-5.57,5.93-13.12-.35-26.26-.12-39.39-.12l-.58-.6a8.9,8.9,0,0,1,0-7.1c1.12-1.56,2.89-1.36,4.52-1.78-4-.34-8.08-.08-11.78-2a2.74,2.74,0,0,1-.9-1.34c-.27-1.53-.2-2.95,1.3-3.89,2.36-1.06,4.88-.81,7.36-.82,14.93,0,29.87,0,44.8,0,6.35,0,6.62-.38,6.77-6.82.05-2.47-.28-5,1-7.3A1.7,1.7,0,0,1,399,173Z" transform="translate(99 99)"/><path class="cls-22" d="M401,129c-1.92-.85-2.85-1.68-2.64-4.41.23-2.91-1.23-6.25-5.58-5.57-3.47.54-5.92,4.07-9.85,3.38-.15,0-.62.75-.64,1.16,0,.73.51,1.14,1.23,1.32,1.25.32,2.68-.26,3.8.73-6.13,4.67-13.23,4.66-20.44,4.42s-14.75,1.17-20.8-4.56c-.29.45-.14-.06.2-.26,1.4-.81,4.39.89,4.29-1.87-.08-2.21-2.88-.69-4.14-1.42C343.17,120,340,118.22,336,119c-2.29-2.63-1-5.85-1.45-8.79a90.14,90.14,0,0,1,.2-9.86A3.67,3.67,0,0,1,336,98a15.9,15.9,0,0,0,2.49,0c4.33-.68,6.28,1,5.53,5.45a10.36,10.36,0,0,0,0,2.49c.24,3.44-1.57,8.28.79,10,3.11,2.27,7.92,2.68,12.06,3,6.45.45,12.95.08,19.43.14,3.83,0,7-2.8,11-2.23,1.68.24,1.67-1.71,1.68-3,0-4,.17-8,0-12-.17-3.26,1.39-3.87,4.21-3.85,2.67,0,4,.71,3.87,3.65-.32,5.54,3.43,10.07,4,15.41Z" transform="translate(99 99)"/><path class="cls-23" d="M263,31c1,2.08,2.84,2,4.7,2,20.6,0,41.21.09,61.81-.1,4.09,0,8.16-1.12,12.33-.94,5.08.22,7.17,1.86,7.08,6.77-.08,4.61,1.42,6.59,6.37,6.36,8-.37,15.95-.19,23.92-.05,2.88,0,4.3-1.07,4.75-3.84,1.55-9.44,1.58-9.48,11.19-9.17A43.61,43.61,0,0,1,401,33v4c-1.82-1.06-3.37-2.57-5.58-3-7.37-1.27-9.42,1.1-9.42,11-1.75,1.38-2.08,3.25-2,5.35.07,2.5.09,5-.06,7.49a2.33,2.33,0,0,1-1.43,2.39,1.72,1.72,0,0,1-2.28-1.36c-1.06-4.72-4.66-4.45-8.22-4.41s-7.32,0-11,0-7.16-.31-8.22,4.41a1.72,1.72,0,0,1-2.28,1.36,2.33,2.33,0,0,1-1.43-2.39c-.15-2.49-.13-5-.06-7.49.06-2.1-.27-4-2-5.35a13.11,13.11,0,0,1-1.49-3.68c-1.29-5.16-3.38-6.7-8.6-5.24s-10.19,1.46-15.35,1.46c-18.16,0-36.32.08-54.48-.09-2.65,0-6.59,1-6.35-4C261.08,32.25,261.27,30.9,263,31Z" transform="translate(99 99)"/><path class="cls-24" d="M401-23c-1.51,0-2.84-1.17-4.58.34s-4.75,1.47-6,0c-2.56-2.94-5.6-2.32-8.63-2.33C369.18-25,356.59-25,344-25c-1.22-1.56-1.32-3.43.38-4.31,6.24-3.25,11.25-9.32,19.77-7.39,5.08,1.16,10.58-.38,15.84.73,2.84,4.81,9.08,4.53,12.63,8.37.78.85,2.19.19,3.3-.09,1.78-.46,3.55-.74,5.08.69Z" transform="translate(99 99)"/><path class="cls-25" d="M-99,330V-16a1.25,1.25,0,0,1,1.66.58c1.11,2,.84,4.2.83,6.36q-.15,59-.06,117.93c0,16.28,0,32.56,0,48.84-.21,5.13.4,10.26,0,15.39-.09,10.65,0,21.31,0,32q-.06,28.92,0,57.84c-.05,19.47,0,38.93,0,58.4a30.06,30.06,0,0,1-.34,7C-97.32,329.21-97.74,330.11-99,330Z" transform="translate(99 99)"/><path class="cls-26" d="M-11-99H325a1.12,1.12,0,0,1-.46,1.57c-2.68,1.33-5.55.78-8.36.85q-159.17,0-318.31,0c-2.82-.09-5.71.5-8.4-.84A1.14,1.14,0,0,1-11-99Z" transform="translate(99 99)"/><path class="cls-27" d="M-99,330l1-1c2-8.49.41-17.11.83-25.67.63-12.75.23-25.56.13-38.34a189.68,189.68,0,0,1,.88-19.37c.72-2,.67-4.19,1-6.28.15-.92.35-2.11,1.58-2.16s1.43,1.16,1.66,2.06c.44,1.75.19,3.6.58,5.37a29.28,29.28,0,0,0,.63,9.28c.49,6.73,0,13.46.21,20.19.18,6.3-.26,12.6,0,18.9-.64,5.32,1.42,10.87-1.32,16-2.29.12-1.63-1.65-1.63-2.76,0-14.17,0-28.35,0-42.52,0,20.1-.39,40.22,1.08,60.29a4.74,4.74,0,0,1,0,1.76c-2.66,6.58.19,13.05.48,19.57.12,2.75,1.9,5.41.48,8.26a1,1,0,0,1-1.44.41c-3-5.77-3.94-12.1-5.1-18.37-.18-1,0-2-1-2.63Z" transform="translate(99 99)"/><path class="cls-28" d="M401-27c-1.47.1-3.24-.29-4.37.38-3.32,2-5.47,1.32-7.13-2.08-.67-1.36-2.19-1.41-3.52-1.28-3.78.39-5-1.67-5-5,0-2.67-2.56-5.33,0-8,3.81,0,7.63.25,11.41-.07,4.19-.35,6.36.76,5.61,5.38A5,5,0,0,0,401-32Z" transform="translate(99 99)"/><path class="cls-5" d="M401,13H388c-1.33.83-2.67,1.23-4,0a5.65,5.65,0,0,1,2.69-4.43c.9-.59,2.23-1.34,1.77-2.62-.59-1.62-2.27-.7-3.46-1a.61.61,0,0,1-1,0c.83-4.14,2.81-5.83,7-3.56,3.61,2,6.45-2.42,10-1.44Z" transform="translate(99 99)"/><path class="cls-29" d="M393,377c-5.62,7.92-12,15-20.79,19.56-1.64.85-3.92,1.92-4.24,4.41H357c-1-1.61-.07-2.24,1.32-2.64,6.64-.15,11-4.88,15.75-8.4a73.56,73.56,0,0,0,9.12-8.15c1.69,0,1.4-1.45,1.76-2.42,1.12-3,3.35-4.31,6.49-4.26C392.36,375.43,393.37,375.67,393,377Z" transform="translate(99 99)"/><path class="cls-30" d="M401,315c-3.37-1.44-4.34-4-4.07-7.57.3-3.79.07-7.62.07-11.43-1.75-2.18-1.53-4.6-.85-7.06,2.62-2.83,3,.1,3.72,1.57s-.23,3.23,1.13,4.49Z" transform="translate(99 99)"/><path class="cls-31" d="M334,401c.43-1.76,3.09-1.85,3-4,3.33-2.54,6.77-4.63,11.27-4.1,2,.23,3.34-1,4.39-2.67,1.2-1.91,2.79-2.86,4.87-1,1.51,3.61-.24,5.46-3.49,6.51-3.67,1.76-7.76,2.66-11,5.26Z" transform="translate(99 99)"/><path class="cls-32" d="M-37,401h-6c-3.69-2.44-7.72-4.26-11.56-6.43A88,88,0,0,0-62.85,387c-2.42-1.92-5.29-4.09-4.3-8a2.62,2.62,0,0,1,3.16.87c2.79,3.87,7.47,5.74,10.34,9,3.4,3.86,7.81,4.56,11.65,6.85C-38.74,395.94-36,396.74-37,401Z" transform="translate(99 99)"/><path class="cls-5" d="M397-10c.88-2.14,2.33-2,4-1v7a25.52,25.52,0,0,1-9.71,1c-1.05,0-2.67.44-2.74-1.21-.05-1.35,1.33-1.66,2.54-1.74C393.83-6.17,397-5.76,397-10Z" transform="translate(99 99)"/><path class="cls-33" d="M401,367a15.08,15.08,0,0,0-5.07,8c-1.65.42-1.95-.94-2.54-1.92-.75-2.19.62-3.76,1.55-5.5,1.05-2,2.6-3.91,1.26-6.38a5,5,0,0,1,.28-1.38c1.48-1.61,1.57-4.55,4.52-4.78Z" transform="translate(99 99)"/><path class="cls-34" d="M-37,401c-.71-3.26-2.66-4.68-6-4a1.7,1.7,0,0,1,0-2.29c3.47-2,5.81-.06,8,2.29,4.24-.92,6.77,2.4,10,4Z" transform="translate(99 99)"/><path class="cls-34" d="M343,401c1.7-4.72,6.6-4.11,10-6,1.25-.82,2.59-.47,3.91-.31a2,2,0,0,1,.48,2.13A54.2,54.2,0,0,1,350,401Z" transform="translate(99 99)"/><path class="cls-35" d="M350,401c1.84-2.2,3.28-5.09,7-4,1.65-3.19,3.86-5.16,7.71-3.45,0,3.77-3.09,4.39-5.71,5.46a1.83,1.83,0,0,0-2,2Z" transform="translate(99 99)"/><path class="cls-36" d="M-53,401c.06-2.16-1.59-1.93-3-2.11-.48-2.31-5.14-2.87-2.71-6.42a2.64,2.64,0,0,1,3.19.81,29,29,0,0,0,8.91,5.79c.88.38,2,.54,1.56,1.93Z" transform="translate(99 99)"/><path class="cls-37" d="M-45,401a32,32,0,0,1-11-7,1.35,1.35,0,0,1,2,0c4.09.23,6.41,4.42,10.5,4.75.22,0,.33,1.47.5,2.25Z" transform="translate(99 99)"/><path class="cls-38" d="M401,355c-1.86,1.25-1.67,4.13-4,5a2.72,2.72,0,0,1-.89-1.25,10.4,10.4,0,0,1,.06-5.37c.65-1.65,1.2-3.36,2.83-4.38h2Z" transform="translate(99 99)"/><path class="cls-39" d="M401,295c-1.46-.07-1.66-.78-1.63-2.2,0-1.85-.25-3.86-2.37-4.8a6.19,6.19,0,0,1,0-8,5.67,5.67,0,0,1,2,4.86c-.05,1.74.16,3.33,2,4.14Z" transform="translate(99 99)"/><path class="cls-40" d="M-98-16h-1v-3c2-3.38.3-7.79,3-11l.5.5a5.92,5.92,0,0,1,.63,2.77c-.07,1.18-.18,2.36-.36,3.53a18,18,0,0,0-.52,2.82C-96-18.64-95.95-16.78-98-16Z" transform="translate(99 99)"/><path class="cls-41" d="M334-99c1.17,1.92,3.84.06,5,2a7,7,0,0,1-2.88,1.19,9.44,9.44,0,0,1-4.59-.5,1.52,1.52,0,0,1-.84-1.18c.24-1.3,1.71-.74,2.31-1.51Z" transform="translate(99 99)"/><path class="cls-42" d="M-24-98c1.38-.15,2.95.46,4-1h1c.6.76,2,.23,2.31,1.42a1.39,1.39,0,0,1-.76,1.21,7.48,7.48,0,0,1-3.82.56C-22.5-96.14-24.11-96-24-98Z" transform="translate(99 99)"/><path class="cls-43" d="M333-99A2.24,2.24,0,0,1,331-98c-2,1.47-4,1.68-5.92-.09l0-1Z" transform="translate(99 99)"/><path class="cls-43" d="M-16.94-98A2.25,2.25,0,0,1-19-99h8l0,1C-13-96.28-14.95-96.49-16.94-98Z" transform="translate(99 99)"/><path class="cls-44" d="M303.67,128.07l2.4,4c2.85,5,3.05,10,.11,15-2.9,4.63-6,9-12.36,8.78a18.28,18.28,0,0,0-9.43.25c-3.35.71-6.61-.27-9.87-.65-13.81-1.63-27.62-3.2-41.39-5.07a38.11,38.11,0,0,1-6.75-1.61c-4.27-1.19-6.9-3.89-8.44-8.12a51.4,51.4,0,0,0-4.77-9.67c-2-6.58-5.65-12.47-7.67-18.21-2.47,6.07-7.27,11.43-10.58,17.62-3.73,5.93-7.56,11.8-11.11,17.85a119.64,119.64,0,0,1-7,10.8c-1.92,2.56-1.23,4.1,1.06,5.63,3.83,2.56,7.58,5.24,11.57,7.57,6.25,4.5,12.51,9,19,13.1,4.94,3.62,10.22,6.79,14.83,10.86a25.87,25.87,0,0,1,5.24,6.61,13.09,13.09,0,0,1,1.19,4.15,7.64,7.64,0,0,1-.09,1.44,17.61,17.61,0,0,0,.07,7.78c0,1.82-.23,3.52-1.79,4.73a69.42,69.42,0,0,0-6,13,37.8,37.8,0,0,0-3.94,9.17A79.45,79.45,0,0,0,211,258.88c-.8,4.27-2.76,8.14-4.19,12.2-2.37,5-5.06,9.77-6.85,15-1.33,3.75-3.43,7.15-5.07,10.75a33.72,33.72,0,0,0-1.86,4.43c-.4,1.1-.87,2.18-1.37,3.24-2,3.65-3.42,7.65-6.8,10.31-1.66,1.3-3.31,2.91-5.78,2.31l-2.95,1.1c-4.59,2.8-9.19.22-13.79,0a7.5,7.5,0,0,1-4.82-2.24c-.83-.94-1.65-1.89-2.55-2.77-4.81-4.33-5.5-10.12-5.69-16.09a31.86,31.86,0,0,1,2.61-10.24c2-5.52,5.42-10.39,7.13-16,2.56-6.08,5.53-12,8.12-18.05,2.36-5.3,5.07-10.45,7-15.92,2.35-4.16,3.74-8.76,6-13,1.81-3.12.7-5-2.17-6.95-11-7.48-22-14.91-32.88-22.65-4.87-3.49-5.67-3.27-8.84,1.88-5.51,8.93-11.58,17.49-17.36,26.25a113.45,113.45,0,0,1-10.51,14.46c-3.14,2.61-6.27,5.24-10.8,4.61q-43.08-.25-86.15,0c-3.94.59-7-1.41-10-3.43-5.1-3.76-6-9.5-7.17-15.14,0-8,3.32-14.15,9.75-18.76,2.61-1.08,5.16-2.73,8.09-.86,20.49.43,41,0,61.46.21,1.64,0,3.33-.46,4.17,0-21.28-.16-43.31.14-65.34-.15-1.17-1.72.45-2,1.38-2.33,2.05-.77,4.25-.56,6.4-.56,17.59,0,35.18-.17,52.76.09,5.36.08,9.38-1.34,12.06-6,2-3.92,4.84-7.27,7.53-10.72,4-3.19,5.58-7.95,7.88-12.24,3.18-5.41,6.29-10.86,9.08-16.48a15.54,15.54,0,0,0,1.45-6.24c1.39-6.06,5-11.13,7.31-16.8,3.6-4.6,6.74-9.52,10.07-14.31,2.68-4,5.9-7.68,8-12.07,2.83-4.78,6.63-8.93,9.09-14,3.68-5.31,7.61-10.44,11-15.93,1.47-2.35,1.17-3.56-1.65-4.09-6.85-1.27-13.65-2.77-20.42-4.44a5.87,5.87,0,0,0-5.09,1.34C117.56,77.06,105,84.24,93.43,92.9c-4.77,2.68-8.82,6.78-14.64,7.37a21.64,21.64,0,0,1-5.33-.33c-1.46-.38-2.94-.72-4.39-1.17A19.09,19.09,0,0,1,61,93.1c-4.55-7.91-4.4-15.6,1.15-23C69.32,63.56,77.88,59,85.67,53.34,95.86,46.83,105.82,40,115.73,33.07c2.52-1.82,5-3.73,8.43-2.92a18.37,18.37,0,0,0,9.11,0c5.41.31,10.62,1.66,15.87,2.88,11.73,3,23.69,5,35.5,7.67,3.34.76,7,1.08,9,4.49,3.43,3.19,7.51,5.43,11.48,7.82A82.49,82.49,0,0,0,217,61c3.35,2.62,7.39,4.57,8.8,9.06,3.32,7.35,6,15,10.11,22,3.78,4.86,5.41,10.82,8.24,16.17,1.62,6.69,6.84,7.9,12.59,8.29,11.27.77,22.42,2.68,33.69,3.53,3.1,1.16,6.51,1.48,9.4,3.2C301.66,124.32,303.5,125.57,303.67,128.07Z" transform="translate(99 99)"/><path class="cls-45" d="M-75,326c2.31,2.92,5,5.37,5.57,9.6.5,3.51,3.11,5.51,7.54,5.51q218.79-.19,437.59,0c3.71,0,6.21-1.1,7.36-4.41s1.77-7,4.95-9.38c1.26-1,.65-2.14-1-2.24a15.41,15.41,0,0,1-5.06-.72c3.44-3.79,8.11-2.06,12.24-2.18,3.11-.1,2.76,2.69,2.8,4.84-5.73.6-7.93,4.53-9.76,9.44s-4.79,9.23-7,13.94c-1.89,1.24-2.8,3.19-3.89,5.06-2,3.48-4.35,3.72-6.29.37-1.53-2.63-3.55-3.23-6.17-3.2-1.17,0-2.34,0-3.5,0H-46.22c-4.07,0-8.18-.71-10.63,4.31-1.26,2.6-3.88,1.2-5.13-.89s-2.3-4.42-4.46-5.85c-3.24-6.89-6.51-13.78-9.06-21A2.88,2.88,0,0,1-75,326Z" transform="translate(99 99)"/><path class="cls-46" d="M150.05,297c.6,5.85,1.43,11.61,5.95,16,.59.71.74,1.8,1.85,2a8,8,0,0,0,4.1,2.06c-1.19,2.79-2.92,2.63-4.94.91a9.49,9.49,0,0,1-4.81,1q-108.15,0-216.31,0c-.65,0-1.31-.12-2-.18a5.6,5.6,0,0,0-4.18-7.61c-2.67-.46-5.58.1-3.45-4.16.19-.37-.82-1.34-1.27-2,2.71-2.35,6-1.59,9.1-1.59q102.21-.07,204.42,0a32.84,32.84,0,0,0,6.41-.36,27.73,27.73,0,0,0-6.1-.38H-75.59a38.05,38.05,0,0,1-7.47-.31c-1.43-.29-3.21-.53-3.15-2.53.06-1.75,1.51-2.48,3-2.89a27.39,27.39,0,0,1,7.45-.51H27.71c39.15,0,78.31.05,117.46,0C146.82,296.33,148.52,296.09,150.05,297Z" transform="translate(99 99)"/><path class="cls-46" d="M192.05,301a6.21,6.21,0,0,1,1.93-4c2.1-.77,4.28-.56,6.44-.56h125c1.66,0,3.33,0,5-.09,2.69-.08,3.87-1.49,4-4.08.15-3.49,0-7,.46-10.46a4.31,4.31,0,0,1,.65-1.49c2.92-1.45,4.84.34,5.14,2.68.57,4.52,3.12,5.78,7.08,5.92,1.52.05,3.12.61,3.34,2.4.19,1.6-1,2.28-2.83,2.65a56.45,56.45,0,0,0,36.71.07c-1.56-.33-3.12-.92-2.9-2.74s1.83-2.32,3.38-2.4c3.68-.19,6.3-1,6.44-5.64.07-2.22,2.32-4,5.19-3.23v16c-2.59.55-5,1.25-4.18,4.79.42,1.79-.92,2.69-1.9,3.8-1.29,1.46-4.68,1.78-2.46,5.19.64,1-1.21,1.27-2.11,1.18-2.24-.21-3.56,1.37-5.3,2.24-3.18,1.59-2.57,3.08-.29,4.86-1.93,1.53-3.83.91-5.56.91-37.12,0-74.23,0-111.35.09-3,0-5.89-.83-8.85-1.06a121.82,121.82,0,0,1-24,0c-2.91-.07-6,.61-8.32-2-.61-.69-2.08-1.19-2.45.13-1.06,3.76-4,3-6.51,2.85-7.58-.38-15.23,1.18-22.73-.95-3.24,1.25-6.73.13-10,1L179,317.11c6.26-2.34,8.86-8,11.9-13.22a20.83,20.83,0,0,1,6.44-.51q64.68,0,129.37,0c1.58,0,3.23.35,4.88-.48a38,38,0,0,0-7.11-.27q-61.93,0-123.87-.05C197.72,302.57,194.59,303.28,192.05,301Z" transform="translate(99 99)"/><path class="cls-47" d="M150.05,297c-2.14,1.28-4.5,1-6.82,1H-77.7c-1,0-2-.06-3,0-1.73.13-4.62-.58-4.6,1.62,0,2.46,2.93,1.31,4.51,1.31q112.22.1,224.42.15c2.06,0,6.07-1.78,6,2-.11,3.48-4,1.82-6.16,1.83Q34.22,305.07-75,305c-1.66,0-3.31,0-5,0-1,0-2.37-.14-2.61.93-1.35,6.08-5.22,11.42-5.27,17.87-.07,7.39-.1,14.78-.15,22.18-3-.67-2.31-3.18-2.35-5.13-.14-6.53-.46-13.06-.06-19.59,0-7.08.71-14.12,1-21.18a32,32,0,0,1,.75-5.43c1.5-8.11,2.68-9.25,11.12-9.26q111.09-.06,222.19,0c2.81,0,5.7-.17,8.18,1.62Q151.44,292,150.05,297Z" transform="translate(99 99)"/><path class="cls-48" d="M-75,326c2.28,5.32,2.87,11.38,6.62,16,1.81,2.24,1.17,4.61,1.38,7l-.6.38c-2.48,0-2.66-2.16-3.47-3.66a14.78,14.78,0,0,0-3.87-5.11,5.34,5.34,0,0,0-5.62-.87c-1.93.9-1.26,2.83-1.28,4.43,0,2.79.58,5.64-.63,8.34L-83,353c-4-7.67-3.79-14.89-.7-23.31,1.83-5,3.22-6.21,7.69-5.72C-74.32,324.15-74.71,325-75,326Z" transform="translate(99 99)"/><path class="cls-49" d="M381,349c-.26-3.12.32-5.94,2.69-8.23s3-5.28,3.75-8c1.44-5.38,4.53-6.9,9.56-5.73,0,4.93,2.54,9.36,2.71,14.3.09,2.65.64,5.23-.71,7.7a5.49,5.49,0,0,1-2,4l-.53-.51c-1.25-2.69-.58-5.55-.78-8.34-.12-1.6.38-3.56-1.53-4.39s-3.9-.16-5.54,1.17c-2,1.62-3.06,3.88-4.15,6.13-.58,1.18-1.14,2.47-2.84,2.32Z" transform="translate(99 99)"/><path class="cls-50" d="M-89,321c0,6.77,0,13.54,0,20.31,0,1.6-.55,3.38,1,4.69-.34,4,4.22,6.73,3,11-.11.24-.23.47-.34.71a2.43,2.43,0,0,1-2.08.8,2.87,2.87,0,0,1-2.34-2.32c-.52-5.41-3.46-10.42-2.79-16,.46-3.83-2.44-7.26-1.08-11.13,1-1.42,2.18-2.61,1.9-4.7C-92,322.66-91.66,320.7-89,321Z" transform="translate(99 99)"/><path class="cls-48" d="M-85,357c2.68-.33,1.81-2.43,2-4h0a2,2,0,0,1,3.24.89c1.52,5.61,5,10.6,5.32,16.59-.67,1.24-1.65.83-2.62.5-2.08-1.13-2.4-3.4-3.31-5.27s-1.33-3.74-3.48-4.47c-1.36-1.15-2.34-2.4-1.16-4.24Z" transform="translate(99 99)"/><path class="cls-51" d="M157,318a4.42,4.42,0,0,0,4.94-.91c4.64,1.21,9.29,2.35,14.13,1.11.19.78.58,1.69-.75,1.78-5.5.37-11-1-16.51-.09C157.66,320.1,157.15,319.09,157,318Z" transform="translate(99 99)"/><path class="cls-52" d="M231,318h24A58.45,58.45,0,0,1,231,318Z" transform="translate(99 99)"/><path class="cls-53" d="M181,319c3.17-2,6.69-.55,10-1C187.87,320.45,184.4,319.54,181,319Z" transform="translate(99 99)"/><path class="cls-54" d="M381-43c.26,2.3-.54,4.59,1.74,6.74,1.46,1.38-1,.94-1.74,1.26H358.08a23,23,0,0,0-2.49,0c-1,.1-1.91.34-2.87.52,1.47,7.19-9.48,2.93-8.72,9.46-3.19,1.61-6.35,1.86-9.15-.68-2.18-2-4.74-1.29-7.15-1.29Q136.06-27-55.57-27c-7.83,0-15.66.06-23.48,0-3.24,0-6.29-.19-8,3.45-.69,1.46-2.37,1.69-4,1.58-.37-1.89-1.33-3.59-1.68-5.49a1.87,1.87,0,0,1,2.58-1.72c9.36-2.14,18.86-1.39,28.31-1.39q192-.06,384,0a46.25,46.25,0,0,0,8-.29c1.13-.2,2.6-.35,2.67-1.75.08-1.65-1.55-1.43-2.6-1.57a46,46,0,0,0-6-.13H-69.72c-2.34,0-4.67.07-7,0-6-.3-7.1-1.79-6.09-7.9,1.37-2.16,3.45-2,5.56-1.69a4.14,4.14,0,0,1,1.3.59c5,4,5,4,9.39-.31a5.53,5.53,0,0,1,1.69-.52c2.84-.25,5.67-.15,8.5-.15,73,0,145.92.16,218.88-.06q90-.27,179.9-.1c10.49,0,21-.14,31.46,0C376.35-44.59,378.92-44.83,381-43Z" transform="translate(99 99)"/><path class="cls-55" d="M-92-16V-3c2.62,3.3-1.32,7.16.75,9.5-.61-4.74,1.83-10.32,1-16.08-.09-.58.73-1,1.28-1.42h0c3.11-2.61,6.71-3.06,10.68-3.05q139.3.11,278.61.11c5.37,0,10.94-2,16.14,1,1.38,4.18-2.13,3.78-4.33,4.62-97.93,0-195.87-.49-293.81.29-.52,0-.87.38-1.12,1.37,2.46,1.48,5.29,1,8,1q80.21,0,160.42,0,56.22,0,112.44,0c3.07,0,6.43-.71,8.87,2.12.29,1.48,1,3-.48,4.31-1.48,1-3.16.85-4.83.85-92.38-.23-184.77,0-277.16-.1-1.16,0-2.33,0-3.49,0-5.71.24-6.17.76-5.72,6.49a10.1,10.1,0,0,1-.24,4c-2.65,3.18-2.77,7-2.56,10.84-1.21,6.17-4,12-4,18.44-.23,1.46-.16,3.07-1.85,3.83-3.31-3.62-2.49-8.28-2.81-12.51-.49-6.54-.08-13.14-.18-19.71.41-8-1.1-16.07,2-23.92a134,134,0,0,1,1,19.08c-.17-4.78.44-12.07-.29-19.37C-94-13.2-94.83-15.25-92-16Z" transform="translate(99 99)"/><path class="cls-12" d="M-76-43h-6c-.24.26-.6.54-.82.41-1-.64-2.06-1.69-1.72.81.77,5.7.48,10.94-6.46,12.78a2.06,2.06,0,0,0-1,2,4.94,4.94,0,0,1-2,2v4c-1.76.43-1.77-.91-2-2l.06-4a2.74,2.74,0,0,0,.46-4c.19-2.13,1-4.08,1.51-6.13L-93-39c-.07-2.24,1.49-3.92,2-6a2,2,0,0,0,1-2,14,14,0,0,1,2-4.1L-82-61c.91-1.4,2.13-2.57,3-4l1-1a1.65,1.65,0,0,1,1.34-.43c2.17,2.73,4.75,2.6,7.49,1a13.69,13.69,0,0,1,5.09-1.92c3-.36,5-2,6.8-4.5,4.43-6.22,9.77-6,13.79.41,2,3.23,4.54,2,6.85.52,3-1.93,5.94-3.61,9.64-2.13v2c1.05,1.48.92,3.39-.53,3.91-5.44,2-9.1,7.7-16,6.71-5.65-.81-11.45,1.1-17.19,0,5.79,1.05,11.57-.16,17.36-.17,70.62-.15,141.24,0,211.86-.05,3.67,0,7.29,0,10.87-1.2,2.7-.88,6-1.6,7.82,1.16,2.1,3.18-.63,5.55-2.63,7.77a19.32,19.32,0,0,1-2.15,2.09,4.42,4.42,0,0,1-3.72.36c-3.62-2.13-7.62-2-11.64-2l-228.85,0c-2.3,0-4.61-.16-7.28,0,3.68,1.3,4.69,3.61,3.51,6.92A6,6,0,0,1-67-43h0A7.43,7.43,0,0,1-76-43Z" transform="translate(99 99)"/><path class="cls-54" d="M-92-16c-2,2.69-.85,5.77-.94,8.66C-93.13-.9-93,5.54-93.9,12V-9.73H-95V13c-.8,10.88-1.19,21.78.22,32.61.58,4.43-.89,8.51-.85,12.81.1,11.44,0,22.87,0,34.3-.37,5.25.74,10.57-.78,15.76a1.12,1.12,0,0,1-1.57.5q0-62.49,0-125a8.91,8.91,0,0,0,1-5c.34-.15.66,0,.91,0,.91-.09-.11,3.83,2,1Z" transform="translate(99 99)"/><path class="cls-6" d="M-89-11c-1.17,2.86-2.15,5.69,1,8.06.56.43,1,1.34.44,1.68-5.37,3.12-1.78,8-2.42,12-.1.62,0,1.35-2,1.81V-3c2-2.46.56-5.35,1-8Z" transform="translate(99 99)"/><path class="cls-56" d="M-94-20l-1.67,2.15c-.61-1,0-2.46-1.29-3.13A2,2,0,0,1-96-23l2,2Z" transform="translate(99 99)"/><path class="cls-56" d="M-94-25a3.46,3.46,0,0,1,2-2,8.21,8.21,0,0,1,1,5C-92.31-22.69-91.81-25.19-94-25Z" transform="translate(99 99)"/><path class="cls-57" d="M205.71,270.88a50.65,50.65,0,0,1,5.24-12c.31,2.41,2.15,2.11,3.79,2.11q57.31,0,114.62.05c3.45,0,4.93-1.27,4.66-4.7-.11-1.49-.17-3.11,2-3.34v9c0,.28.05.56.07.84a15,15,0,0,1-.57,7.7c-1.81,3.51-5.11,4-8.52,4-7,.12-14,0-21,0q-45.4,0-90.83,0C211.66,274.55,207.63,275.29,205.71,270.88Z" transform="translate(99 99)"/><path class="cls-58" d="M242.92,108a86.62,86.62,0,0,1-7-16c2.14,1.21,4.5,1,6.82,1H334c3.21.65,1.57,3.24,2,5v2a9,9,0,0,0-1.29,2.69c-1.11,4.54-4.21,5.92-8.56,5.9q-16.47-.07-33,0c-15.48.08-31-.26-46.44.19A5.88,5.88,0,0,1,242.92,108Z" transform="translate(99 99)"/><path class="cls-44" d="M206.75,0,207-1.95c1.33-2.88,2.76-5.67,5.88-7.07l4.34-2.9c1-3.09,4.16-1.79,6.1-3,6.21-3.34,12.95-1.62,19.47-2,1.36.72,3.22.49,4.13,2.1L253-12c7.52,5.52,11.83,13.06,13.88,22a52.22,52.22,0,0,1-1,13.66L263,31c-.9.27-1.09,1-1.08,1.78-2.13,3.22-3,7.63-7.93,8.19-4.18,2.06-8.16,4.66-13,4.89a35.39,35.39,0,0,0-11.93,0A26.66,26.66,0,0,1,218,42c-5.5-1.11-7.9-5.77-11-9.6-3.46-3.24-2.83-8.19-5-12-.81-2.51-.09-5-.23-7.58C202.84,8.33,202.42,3.23,206.75,0Z" transform="translate(99 99)"/><path class="cls-59" d="M384,13h4c-1.51,3.16-6.21,4.56-4.68,9.6.39,1.28-2.84,2.36-4.9,2.37-7.95,0-15.9.17-23.84-.06-3-.08-5.87-.52-4.88-5.3.6-2.89-3.61-4-4.7-6.61Z" transform="translate(99 99)"/><path class="cls-6" d="M384,5h1a4.19,4.19,0,0,1-.15,1c-.57,1.36-1.29,2.76-3,2.57a2,2,0,0,1-1.43-2.24C380.85,4.19,382.74,5.31,384,5Z" transform="translate(99 99)"/><path class="cls-6" d="M352.64,6.36c-.36.86-.45,2.08-1.66,2.18a2.4,2.4,0,0,1-2.45-2c-.38-1.51,1-1.43,1.89-1.46S352.5,4.87,352.64,6.36Z" transform="translate(99 99)"/><path class="cls-6" d="M223.34-14.89l-6.1,3A28.09,28.09,0,0,0,208.39-13Q71-13-66.49-13C-74-13-81.71-14.09-89-11c1.84-3.76,5.09-4.05,8.82-4.05Q59.4-15,199-15.2C207.1-15.22,215.22-15.21,223.34-14.89Z" transform="translate(99 99)"/><path class="cls-6" d="M246.94-14.83c-1.66-.15-2.88-1.16-4.13-2.1C244.47-16.79,246.72-17.8,246.94-14.83Z" transform="translate(99 99)"/><path class="cls-60" d="M228,220.88l.93-4.93a18.9,18.9,0,0,1,0-7.89c.07-.35.13-.7.2-1.05,3.64,5.5,9.3,4.4,14.58,4.4q41.64,0,83.27,0c3.77,0,7.12.11,8.29-5,.77-3.35,4.14-3.6,8.82-1.46v8c-4.51-.23-8.61-.64-8.29,6.31.15,3.28-2.19,5.86-6.88,5.82-31.32-.25-62.64-.16-94-.09C231.57,225.05,228.93,224.48,228,220.88Z" transform="translate(99 99)"/><path class="cls-10" d="M254,41l7.93-8.19c-.37,2-.38,3.27,2.51,3.25,22.11-.13,44.22-.08,66.33-.06,1.55,0,2.81-.84,4.19-1.21,8.41-2.3,13.15-.37,12.05,7.71A18.79,18.79,0,0,0,347,45c-1.95-1.23-4.14-1-6.29-1q-39.85,0-79.7,0C258.32,44,255.17,44.74,254,41Z" transform="translate(99 99)"/><path class="cls-10" d="M208,32.08A34.69,34.69,0,0,0,218,42c-1.18,2.59-3.53,1.93-5.62,2-6.24.35-12.59-1-18.73,1.14-10.85-4.66-22.64-5.53-33.93-8.43-3.66-1-7.36-1.73-11-2.58,4.3-2.78,9.37-2.06,14-2.33,14.09-.84,28.24-.32,42.36-.29A18.28,18.28,0,0,1,208,32.08Z" transform="translate(99 99)"/><path class="cls-10" d="M347,45c2.71.21,3,2.07,3,4.25a50.31,50.31,0,0,0,.75,10.66c.14-9,6.27-6.78,11-6.89,3.82-.09,7.65.17,11.45-.07,4.76-.29,8.89-.1,8.41,6.75,2.2-3.34,1.1-6.75,1.33-10,.16-2.22,0-4.47,3-4.74-1.39,3.85-.81,7.87-1,11.82-.2,3.26-.57,6.26-5.37,3.74-2.95-1.55-6.58-.72-9.84-.47-6,.46-12.12-1.4-18.15,1.26-2.49,1.1-3.48-1.72-3.58-4C347.86,53.2,348.45,49,347,45Z" transform="translate(99 99)"/><path class="cls-61" d="M229,45.89a17.18,17.18,0,0,1,11.93,0A55.33,55.33,0,0,1,229,45.89Z" transform="translate(99 99)"/><path class="cls-62" d="M-27-73c-3.61.93-7.22,1.37-10.27,4.29-2.41,2.32-7.1.7-7.61-2.1-.39-2.1-.47-4-3.2-4.16-2.88-.13-6.22-.34-7.5,2.62-1.92,4.43-4.89,6.43-9.57,6.4-2.6,0-3.71,3-6.6,3.06-4.13.07-4.12.41-5.22-3.1-.47-2.41,1.78-2.78,3-4l3-4c1.88-1.11,3.19-2.93,5.08-4l2-1A8.31,8.31,0,0,1-61-82L-55-86c2.84-1.37,5.77-2.6,8-5,7.61-2.59,15.15-5.4,23.06-7,.7,1.23,1.91.94,3,1a2.91,2.91,0,0,1,.71.89,4.3,4.3,0,0,0,2.3.94c2.67.85,5.12,3.29,8.22,1.1a18.61,18.61,0,0,1,7.65.19c2.3.65,4.64.42,7,.42q152.1,0,304.19,0a27.89,27.89,0,0,0,7-.37,20.47,20.47,0,0,1,7.6-.36c1.43.27,2.72,1.08,4.08,1.39,1.09.24-.53-.48,0-.77a1.23,1.23,0,0,1,.68-.9,1.56,1.56,0,0,1,.44,0c.13,0,.23.13.35.21-2.07-1.47-1.09-2.3.7-2.4,2-.12,4.13.7,6.15-.28l3,0c-.52,1.33-.51,2.42,1.33,1.73a11.32,11.32,0,0,1,4.73-.71,12.88,12.88,0,0,0,4.86,1A28.83,28.83,0,0,0,361-91c2.22,2.38,5.16,3.59,8,5,1.54,2,4.61,1.72,6,4,1.39.92,2.58,2.12,4,3l1,1c1.84,1.15,3.18,2.92,5,4l3,4c1.17,1.18,3.42,1.55,3,4-1.89.71.27,3.46-1.33,3.54a11.89,11.89,0,0,1-6.6-1.39,12.52,12.52,0,0,0-6.3-2.28,7.12,7.12,0,0,1-6.23-4.35c-.94-2.26-2.63-2.75-4.45-3.37-3-1-5.82-2.68-6.44,2.9-.41,3.67-5.9,3.47-10,1.31C344.56-72.3,339.54-76.47,333-74c-1.75,1.38-3.82,1-5.78,1Q157-73-13.22-73c-2,0-4,.4-5.78-1a7.62,7.62,0,0,0-6,0A2.06,2.06,0,0,0-27-73Z" transform="translate(99 99)"/><path class="cls-63" d="M-47.06-91c-1.71,3.19-4.57,4.53-8,5C-52.79-88.29-49.88-89.56-47.06-91Z" transform="translate(99 99)"/><path class="cls-64" d="M-65.93-78c-1.3,1.84-2.54,3.76-5.08,4C-69.78-75.91-68.51-77.78-65.93-78Z" transform="translate(99 99)"/><path class="cls-65" d="M-94-37.13-95.06-30a.55.55,0,0,1-1,0l0,0A10.19,10.19,0,0,1-94-37.13Z" transform="translate(99 99)"/><path class="cls-66" d="M-91-45c.24,2.3-1.1,4.06-2,6C-94.37-41.73-92.21-43.21-91-45Z" transform="translate(99 99)"/><path class="cls-67" d="M-74-69.95l-3,4h-1C-77.7-68.34-76.48-69.77-74-69.95Z" transform="translate(99 99)"/><path class="cls-68" d="M-88-51.07A5.47,5.47,0,0,1-90-47C-90.9-49.1-89.38-50.06-88-51.07Z" transform="translate(99 99)"/><path class="cls-69" d="M-79-65c-.09,2-1.35,3.15-3,4C-81.9-63-80.67-64.14-79-65Z" transform="translate(99 99)"/><path class="cls-70" d="M-61-82a6.19,6.19,0,0,1-2.93,3C-64-81.06-62.84-81.9-61-82Z" transform="translate(99 99)"/><path class="cls-56" d="M182-51c.14-2.69,2.59-3.73,4-5.52a3.25,3.25,0,0,0,.78-3.22c-.5-1.46-1.86-1-2.94-1.28-3.52-.91-6,2.14-9.46,2.13q-119-.21-237.9-.12c-.82,0-1.64-.07-2.91-.13,1.41-3.26,3.71-3.1,6.19-2.47,7.63,1.94,15.23-.44,22.73-1,2.61-.21,5.81-4.76,9.88-5.62.39-.08.44-1.79.65-2.75,117.59,2.3,235.19.36,352.78,1a40.55,40.55,0,0,0,8.41-.71c2.65-.53,6.06-1.64,7.49,2.56.39,1.16,1.91,1.23,3.09,1.14,2.4-.18,4.19.17,4.55,3.16.17,1.48,1.8,2.12,3.16,1.8,9.8-2.32,13.95,4.7,18.52,11.06a4.33,4.33,0,0,1-4.67.87c-4.7-1.62-9.54-1.25-14.35-1.25H199.1c-4.32,0-8.66-.31-12.88,1.08A4,4,0,0,1,182-51Z" transform="translate(99 99)"/><path class="cls-28" d="M182-51c19.22-4.17,38.68-1.6,58-1.87,33.48-.47,67-.15,100.47-.12,10.21,0,20.49-.8,30.52,2,2.13,2.51,4.19,4.71,8.15,4.2,2.34-.3,1.67,2.28,1.85,3.8H-67v-2c2.74-2.23,6-1.6,9.13-1.6q111.09,0,222.17,0c1.83,0,3.67-.12,5.49,0,4,.31,7.2-.71,9.21-4.4Z" transform="translate(99 99)"/><path class="cls-12" d="M-19-74H333c-.18,1.08-.65,1.89-1.88,1.94s-2.66.06-4,.06Q157-72-13.13-72.07C-15.12-72.07-18-70.51-19-74Z" transform="translate(99 99)"/><path class="cls-71" d="M391-66l-3-4c2.46.18,3.68,1.61,4,4Z" transform="translate(99 99)"/><path class="cls-12" d="M-25-74a4.52,4.52,0,0,1,6,0Z" transform="translate(99 99)"/><path class="cls-69" d="M393-65c1.65.85,2.88,2,3,4C394.37-61.84,393.11-63,393-65Z" transform="translate(99 99)"/><path class="cls-72" d="M357,389c-1.14,0-2.92-.19-3.08.9-.77,5.32-4.54,4.56-8,4.07s-5.3,4-8.93,3q-178.65,0-357.29,0c-2.62,0-5.21.7-7.56-2.22-1.64-2.05-5.37-.46-8.15-.74a1.64,1.64,0,0,1-2,.32c-1-2.85-3.44-4.42-5.54-6.3a5,5,0,0,1-.49-1.54c-.08-2.22.35-4.08,3.07-4.31A9,9,0,0,1-35.84,384c4.33,4.73,9.88,6.56,16.09,6.57q176.67,0,353.35,0c6.11,0,11.84-1.53,16.08-6.45a37.24,37.24,0,0,1,6.52-3.44,3.16,3.16,0,0,1,3.71.3c1.27,1.27.78,2.75-.06,4.06S358.35,388,357,389Z" transform="translate(99 99)"/><path class="cls-73" d="M-43,387v1a13.25,13.25,0,0,0,5,6h2l1,3c-2.65-.75-5-2.8-8-2-5.19-.72-8.49-4.34-11.92-7.76-1.7-2.26-1.52-5.44-4.32-7.36-1.67-1.15-1.28-4-.37-6.05s2.86-2,4.69-2.08a9.31,9.31,0,0,1,3.9.57c6.14,5.13,14,6.65,21,9.85,1.61.73,4.25,1,2.88,4-3.7,1.19-6.76-.59-9.87-2.15a6.71,6.71,0,0,1-4-1c-1.64-1-3.34-.39-5.24-.62C-45.68,384.69-44,385.6-43,387Z" transform="translate(99 99)"/><path class="cls-74" d="M-61.09,394.06c-5.64-1.15-8.59-5.27-11-10,.06-.23.11-.47.17-.7.54-.9,1.72-2,2.29-1.46,3.78,3.33,9.15,5.3,10.11,11.19C-59.77,393.9-60.16,394.42-61.09,394.06Z" transform="translate(99 99)"/><path class="cls-75" d="M-85,357a5.61,5.61,0,0,0,2,4c2.42,3.53,4.47,7.21,4.63,11.64A8.79,8.79,0,0,1-81,376l-2-3c-1.81-4.48-4.27-8.74-4.74-13.69A2.86,2.86,0,0,1-87,358Z" transform="translate(99 99)"/><path class="cls-76" d="M-87,359c1.12,4.74,4,9,4,14a37.81,37.81,0,0,1-8-14,1.8,1.8,0,0,1,1.08-.45A6.22,6.22,0,0,1-87,359Z" transform="translate(99 99)"/><path class="cls-77" d="M-72.1,384.09c-1-.21-2.2.13-2.76-1.13-.34-2.25-2.83-2.81-3.7-4.82s-.3-2.7,1.4-3.28c5.22,1,7.28,4.56,5.2,9.1Z" transform="translate(99 99)"/><path class="cls-78" d="M-77,376c-2.25.23-.69,1.2-.59,2.16.22,2.09,3.86,2.09,2.72,4.8-2.76-1.68-4.47-4.28-6.15-6.92,0-1.45-.06-2.94,2-3a2.53,2.53,0,0,1,2.4,1.08A1.8,1.8,0,0,1-77,376Z" transform="translate(99 99)"/><path class="cls-79" d="M-61.09,394.06-60,393a.59.59,0,0,1,1,0c-.28,2.64,4.81,2.49,3.06,5.88C-58.82,398.51-60.4,396.75-61.09,394.06Z" transform="translate(99 99)"/><path class="cls-80" d="M-90,359h-1c-1.35-1.39-1.67-3.18-1.92-5h.9C-87.51,354.15-89.94,357-90,359Z" transform="translate(99 99)"/><path class="cls-81" d="M226,147.17c10.75,3,21.92,3.3,32.88,4.93,8.67,1.28,17.42,2,26.14,3,3-1,6-.64,9,0,5.21-.42,8.18-4,11-7.79,1.4,2.21.71,4-.95,5.62,6.29-.54,12.71-.26,19.12-.25,3.86,0,7.6.07,10.48-3.13A2.12,2.12,0,0,1,336,149v11c2.14,5.12-.19,9.42-2.52,13.72-2.36,1.12-4.89.9-7.38.9q-63.93,0-127.88,0A22.43,22.43,0,0,1,189,173a100.88,100.88,0,0,1-13.58-8.92c-1.44-1.05-2.09-1.92-1-3.58,2.86-4.18,5.66-8.41,8.49-12.62,13-.93,26.09-.21,39.14-.38C223.39,147.49,224.72,147.87,226,147.17Z" transform="translate(99 99)"/><path class="cls-82" d="M334,173c-1.25-4.63,2.57-8.48,2-13,5.13-1.9,9,2.24,13.27,3.47,5.65,1.61,11.06,1.34,16.58,1.47,7,.17,14.15.62,20.95-2,.3-.11.67-.05,1-.17,9.33-3.75,11.2-2.39,11.23,8.21v2h-2c-4,.2-6.92,1.44-7,6.3-.06,2.58-2.3,3.89-4.62,4.69-4.26,1.48-8.52,2.71-13.15,2.48-8.08-.42-16.31,1-24.16-2.3-2.83-1.19-5.14-2.67-5.27-5.92-.17-4.52-2.79-5.12-6.41-4.46A3,3,0,0,1,334,173Z" transform="translate(99 99)"/><path class="cls-83" d="M336,149c-3.31,5.89-8.93,5.11-14.34,5-4.49-.08-9-.27-13.47,0s-5.43-1-3.41-4.88a5.89,5.89,0,0,0,.27-2,21.26,21.26,0,0,0,1-15.21,6.32,6.32,0,0,0,6.15,3c5.74-.23,11.5-.08,17.25-.07,3,0,5.42-.93,6.53-4,2.93-1.74,5.69-2.21,8,1v8a.59.59,0,0,1,.26.67c-.09.22-.17.33-.26.33C334.87,141.12,336.12,139.87,336,149Z" transform="translate(99 99)"/><path class="cls-84" d="M344,141v-1a211.54,211.54,0,0,0,45,0c0,1.82-.1,3.65,0,5.46.16,2.49-.74,3.78-3.39,3.56-.81-.07-2.11-.21-2.4.21-4.41,6.65-11.1,2.9-16.74,3.7-2.92.41-5.95.07-8.93.07-2.62,0-5.43.5-6.64-2.85-.14-.4-.75-1-1.07-.92C342.6,150.22,344.06,145.08,344,141Z" transform="translate(99 99)"/><path class="cls-63" d="M369-86c-3.41-.49-6.28-1.82-8-5C363.83-89.56,366.77-88.34,369-86Z" transform="translate(99 99)"/><path class="cls-85" d="M385-74c-2.51-.3-3.78-2.16-5-4C382.53-77.74,383.8-75.9,385-74Z" transform="translate(99 99)"/><path class="cls-69" d="M379-79c-2-.12-3.14-1.38-4-3C377-81.93,378.14-80.65,379-79Z" transform="translate(99 99)"/><path class="cls-86" d="M349.92-95c-2,1.51-3.35-.12-4.86-1A7.44,7.44,0,0,1,349.92-95Z" transform="translate(99 99)"/><path class="cls-87" d="M303.67,128.07c-3.38-4.11-8.31-5.29-13-6.9,2.67-3.46,6.59-3.55,10.39-3.63q12.21-.24,24.42,0c4.39.09,8-.31,8.53-5.78a1.79,1.79,0,0,1,2-1.76v9c.66,2.3-2.48,4.15-.49,6.93.82,1.13-1.44,3-3.15,2.95C322.79,128.64,313.18,130,303.67,128.07Z" transform="translate(99 99)"/><path class="cls-84" d="M344,132c-2.52-1.54-5.31-.85-8-1,.62-2.77,2.73-3.15,5-2.8C343,128.51,344.28,129.71,344,132Z" transform="translate(99 99)"/><path class="cls-39" d="M397,280c-2.3,1.41-5.86,1.81-3.61,6.26.64,1.26-1.81,2.92-3.55,3.58a14.15,14.15,0,0,1-2.47.18c-1.64.26-4.54-.87-4.47,1.56.07,2.25,3,1.11,4.65,1.44.62.13,1.23.3,2.74.66-16.07,6.16-31.3,6-46.9.45,1.39-1.8,3.34-.85,4.91-1.17.84-.16,1.81-.3,1.92-1.26.16-1.33-1-1.56-2-1.63-1.32-.11-2.67.05-4-.11-2.72-.33-5.33-1.88-4.7-4.56.87-3.71-1.44-4.26-3.58-5.4-2.66-3.48-1.19-7.15-.52-10.78.3-2.4-.51-4.87.52-7.22a3.37,3.37,0,0,1,2,3.67c-.22,3.6.83,6.56,4.15,8.42.72.4,1.74,1,1.35,1.85-2.43,5.18,1.67,3.8,4,4,3.58.37,6.46,1.13,4.89,5.85-.68,2,.94,2.14,2.31,2.15q11.75,0,23.48,0c1.33,0,3.14-.05,2.43-2.05-1.91-5.39,1.78-5.46,5.27-5.95,2.21-.3,6.47,1.12,3.6-3.93a.94.94,0,0,1,.19-.9c5.21-2.46,5.35-7.65,5.9-12.62l1.42.38Z" transform="translate(99 99)"/><path class="cls-88" d="M227.83,203c-4.81-7.84-13.41-11.21-20-17,1.85-3.31,5.13-2.63,8-2.64,20.42-.09,40.85-.05,61.28-.05,15.11,0,30.23-.13,45.34.08,4.5.07,8.84-1.32,13.33-.82,2,2,1.76,4.18.21,6.35v4a17.68,17.68,0,0,1-.66,2.9c-1.16,7.56-.61,9.77-12.14,9.73-28.9-.11-57.8,0-86.7-.06C233.41,205.56,230.06,206.13,227.83,203Z" transform="translate(99 99)"/><path class="cls-17" d="M227.83,203c2,1,4.15,1,6.32,1,30.89,0,61.78-.07,92.67.06,4.24,0,6.75-.72,6.26-5.68A5.42,5.42,0,0,1,336,193c1.76,3.14,5.67,2,8,4v8c-1.33,0-2.67.11-4,0-3-.31-4.35.82-4,3.93S334.71,213,331.8,213c-32.73,0-65.46-.14-98.18.1-5.29,0-2.49-4.55-4.58-6.11C228.64,205.69,228.23,204.37,227.83,203Z" transform="translate(99 99)"/><path class="cls-89" d="M336,189v-6a8.69,8.69,0,0,1,0-10c6.45-2.35,7.77-1.64,8,4.57.07,2.18.4,4.23,2.74,4.67,4.14.8,7.83,3.2,12.34,2.83,8.3-.68,16.75,1.11,24.94-2,2.87-1.08,5.06-1.79,5.09-5.5.05-6.21,1.48-6.92,7.93-4.57v9.44c0,6.55,0,6.56-6.34,6.56Z" transform="translate(99 99)"/><path class="cls-88" d="M344,197c-2.95-.76-7.8,2.27-8-4,4.23.34,8.39,1.43,12.68,1,1.19-.11,2.7.25,2.74,1.52.06,2.07-1.84,1.31-3,1.41C347,197.09,345.48,197,344,197Z" transform="translate(99 99)"/><path class="cls-90" d="M336,110c-.22.24-.58.46-.64.74-1.84,8.26-1.83,8.26-10.6,8.26-6.16,0-12.32.12-18.47,0-5.36-.13-10.62.12-15.64,2.21-12.45-.36-24.66-3.15-37-3.78-6.68-.34-9.49-3.53-10.68-9.36a27,27,0,0,1,8.34-1.06c24.48,0,48.95,0,73.42.09,4,0,7.58.2,8.82-4.76.23-.91,1.64-1.54,2.5-2.3Z" transform="translate(99 99)"/><path class="cls-78" d="M394,373l1.95,2c-.58,1.25-1.95,1.38-2.91,2.07a2.1,2.1,0,0,0-2-1c-1.2-2,.28-2.62,1.63-3.34A1.56,1.56,0,0,1,394,373Z" transform="translate(99 99)"/><path class="cls-4" d="M-97,109V93c3.09.7,2.27,3.29,2.35,5.24.34,8.15-1.15,16.21-.95,24.38.32,13.25.09,26.51.22,39.77.23.66.84-.31.27,0-.83-17.61-.21-35.24-.32-52.85a1.1,1.1,0,0,1,1.42-.78c1.06,4.58.24,9.19.58,13.77-.45-5.23.58-10.48-.76-15.73a7.72,7.72,0,0,1,.89-6.21c3-1.83,2.75-4.74,2.32-7.54-.56-3.71.15-6.93,2.78-9.67a10.74,10.74,0,0,0,2.71-7.32c.17-4,2.4-5.58,6.15-5.62,2,0,4-.06,6-.06,41.12,0,82.23-.07,123.35.1,4.45,0,8.82-1.68,13.29-.44-5,7.41-5.72,15-.94,22.8-2.48,2.4-5.63,1.67-8.54,1.67q-63.89.07-127.78,0c-1.83,0-3.66.11-5.48,0-3.85-.22-6,1.38-6.17,5.33a14.36,14.36,0,0,1-.29,1.72c-1.58,3.16.51,8-4.42,9.65-.4,0-.7-.12-.63-.35.19-.64.15-1.09,0-.43-.34,2.34.45,4.64.28,7,.07,1.36,0,2.72,0,4.08.17,3.55.07,7.09,0,10.64.38,13.6-1.22,27.08-2.34,40.6-1.44,6.2-.39,12.5-.7,18.75-.21,4.11.45,8.25-.48,12.34a2.72,2.72,0,0,1-1.21,1.34,1.49,1.49,0,0,1-1.39-1c-.8-9.92.07-19.87-.46-29.8A4.32,4.32,0,0,0-98,173V158c1.06-4.9.31-9.87.47-14.8C-97.14,131.78-98.1,120.37-97,109Z" transform="translate(99 99)"/><path class="cls-91" d="M-96,205h1l.88-.22A3.09,3.09,0,0,1-93,206.19c.55,10.52,1.37,21.06-1.66,31.42-.7,2.4-.2,4.92-.3,7.39-1.77,20.06-.12,40.2-1.32,60.23-.44,7.21,1.67,14.5-.69,21.58A23.48,23.48,0,0,1-98,329V263c.93-1.55.51-3.26.48-4.88-.32-16.13.6-32.25.53-48.38C-97,208.12-97.34,206.37-96,205Z" transform="translate(99 99)"/><path class="cls-92" d="M-96,205c.45,18.28-1.75,36.52-1,54.8.05,1.16.1,2.36-1,3.19q0-29,0-58a1.6,1.6,0,0,1,1-.56,1.62,1.62,0,0,1,1,.57Z" transform="translate(99 99)"/><path class="cls-93" d="M-97,109c0,14.61,0,29.21,0,43.81,0,1.74.66,3.69-.94,5.17l0-49C-97.63,109-97.32,109-97,109Z" transform="translate(99 99)"/><path class="cls-94" d="M-97,205h-1V173h1A212.31,212.31,0,0,1-97,205Z" transform="translate(99 99)"/><path class="cls-62" d="M-19-94c-.67-.66-2.45-.22-2-2,1.11-1.15,2.88.26,4-1,0-.32.05-.63.09-.94L-11-98-3-98c1.74.91,3.6.46,5.4.46q154.57,0,309.16,0c1.8,0,3.66.45,5.4-.46l8-.08L331-98c0,.31.07.63.09.94-8.37,4.1-17.37,3.42-26.26,3.42q-145.5,0-291,0c-10.48,0-21-.26-31.41-.9A2.86,2.86,0,0,0-19-94Z" transform="translate(99 99)"/><path class="cls-95" d="M317-98c-1.5,1.61-3.45.94-5.2.94Q157-97,2.22-97C.47-97-1.48-96.36-3-98Z" transform="translate(99 99)"/><path class="cls-81" d="M-95,245c-2.85-4.47-.34-9.08.24-13.38,1.19-8.9.36-17.76.76-26.62.24-8.16-.78-16.41,1.67-24.42,2.84-2.33,2-5.52,1.62-8.36-.74-6.29,1.95-11.68,4.29-17.07,1.4-3.23,4.55-4.71,8.23-4.69,2,0,4,0,6,0q75,0,150,0c11.43,0,22.93,1,34.28-1.39-.84,9-6.69,15.62-10.8,23.07-2.33,2.86-5.6,2.52-8.74,2.52q-37.66,0-75.32,0H-77.08c-7.31,0-7.22.05-9.06,7.23-1.2,4.65-1.92,9.41-3.35,14,0,8.34-1.49,16.62-1,25-.69,6.55,2,13.08.06,19.65-.46,1.54-.22,3.31-1.58,4.55-2.07-2-.25-4.84-1.43-7.19C-94.9,240.13-92.86,243-95,245Z" transform="translate(99 99)"/><path class="cls-96" d="M175.11,237a85,85,0,0,1-7,16c-1.4,2-3.46,2.44-5.7,2.51s-4.33.06-6.49.06H-73.24c-10.56,0-12.12,1.58-11.87,12.11a19.76,19.76,0,0,1-.59,5.43,85.19,85.19,0,0,0-2,11.68c-.37,3.16-.73,6.56-4.25,8.18V274c2.59-7.23,2-14.82,2.53-22.29,0-2.74-.15-5.53,1.76-7.85,3-6.7,8.49-7.61,15.11-7.53,21.55.27,43.11.12,64.66.08a52.74,52.74,0,0,1,9.88.76c2.53,1.61,5.07,3.2,8.09,3.75,29.63.05,59.27.32,88.9-.14,3.61-.52,6.2-2.91,9-4.9,20.6,1.18,41.21.28,61.81.51C171.56,236.42,173.42,236,175.11,237Z" transform="translate(99 99)"/><path class="cls-17" d="M-87,245c-1.92,2.11-.61,4.67-1,7-1,1.66-2.25,2.31-4,1a8.09,8.09,0,0,1,0-8,135.36,135.36,0,0,0,0-24c2-.46,1.5,1.71,2.8,2.46.64-4.09-1.06-8.35,1.3-12.07,1.59-7.26,2.38-8,10-8q37.58-.07,75.16,0c2.42,0,5-.41,7,1.69-5.78,4.49-8.69,10.48-9.22,17.71,1,2.37-.71,2.93-2.35,3.36a25,25,0,0,1-6.46.39q-31.68,0-63.36,0c-6.9,0-6.83.06-7.42,6.78C-84.86,237.34-85.3,241.31-87,245Z" transform="translate(99 99)"/><path class="cls-3" d="M-92,293c3.35-5,3-10.83,4-16.36.18-1,.1-2,1-2.64l.58.47c2.38,4.78,0,9.34-.73,13.94-.63,4.19-1.87,8.3-.85,12.59q-.5,10-1,20c-1.78.87-2.17,2.13-1.55,4.06s-.22,3.5-2.45,3.94a2.11,2.11,0,0,1,0-3v-1c.52-5.32-1.09-10.78,1-16Z" transform="translate(99 99)"/><path class="cls-97" d="M-92,309c-.54,5.32,1.12,10.78-1,16-1.26-1-1-2.38-1-3.68q0-28.71,0-57.43A2.14,2.14,0,0,1-93,262c0,13.27-.06,26.53,0,39.79C-92.93,304.21-93.92,306.83-92,309Z" transform="translate(99 99)"/><path class="cls-98" d="M-93,326v3c2.19,6.85.24,14.4,3.45,21,1.25,2.58-1,6.22,2.55,8v1c-1,.27-2,1.59-3,0-.42-1.77,1.2-4.34-2-5-.88-6.44-1.91-12.86-2.56-19.33C-94.84,331.74-96.92,328.26-93,326Z" transform="translate(99 99)"/><path class="cls-99" d="M-92,253a6.71,6.71,0,0,0,4-1c-.34,5.93-.7,11.85-1,17.78-.1,2.08-1.31,3.3-3,4.22Z" transform="translate(99 99)"/><path class="cls-100" d="M359,399a17.08,17.08,0,0,1,6-5c.12-2.87,2.42-4.44,4.36-5.48,5.19-2.78,8.28-7.36,11.53-11.9,1.37-.83,2.76-1.49,4.35-.57.55,2.19-.28,4.08-1.24,5.95-1.92,4.16-6.16,6.06-9.27,9-3.77,3.53-8.68,5.83-13.13,8.62A1.79,1.79,0,0,1,359,399Z" transform="translate(99 99)"/><path class="cls-101" d="M384,382c-.35-2.11.67-4,1-6-.05-2.46,2-3.55,3.34-5.06a4.94,4.94,0,0,1,3.13-1.32,1.68,1.68,0,0,1,1.1.73A5.85,5.85,0,0,1,393,373c-.6,1-2.16,1.45-2,3-3.55.53-5.59,2.33-5.37,6.17C385.67,383,385.51,383,384,382Z" transform="translate(99 99)"/><path class="cls-73" d="M357,389c-.15-1.9.08-3.57,2-4.71a1.71,1.71,0,0,0,.56-2.58c-.76-1-1.76-.48-2.7-.1-1.95.77-3.37,2.84-5.82,2.39-3.05,1.72-6,3.72-9.81,2.26-1.55-2.59.71-3.06,2.21-3.88,3.66-2,7.78-2.79,11.59-4.44a42.38,42.38,0,0,0,9.94-5.58,8.92,8.92,0,0,1,3.89-.62c4.76.11,7.56,4.69,4.39,8.05-2.18,2.31-2.62,5.09-4.2,7.44-3,4.19-7.23,6.39-12,7.77h-4C355.71,393.92,358,392.54,357,389Z" transform="translate(99 99)"/><path class="cls-102" d="M-59,393h-1c-1.39-5-7.31-5.88-9.51-10.2,0,0-1.6.75-2.45,1.15.86-4.25-.9-6.85-5-8l0-2c.1-1.33-1.58-2.67,0-4l2,1c4.1.15,5,4.76,8.32,6a1.68,1.68,0,0,1-.32,2,13.17,13.17,0,0,0,5.7,7.78A23.73,23.73,0,0,1-54,394h-2C-56.72,392.83-57.9,393-59,393Z" transform="translate(99 99)"/><path class="cls-103" d="M-67,379v-2a1.68,1.68,0,0,1-.21-2.07c2.74-1.33,3.72.87,5.07,2.47,2.71,3.21,4,7.58,8.14,9.6,3.13,3.4,7.1,5.66,11,8v2c-6.89-2.27-11.57-7.95-17.67-11.47C-63.31,384-63.69,380-67,379Z" transform="translate(99 99)"/><path class="cls-39" d="M393,373c-1.18-.72-1-1.9-1-3,0-3.94.55-7.54,5-9,2.53,3,0,5.29-1.25,7.56C395,370,393.8,371.19,394,373Z" transform="translate(99 99)"/><path class="cls-101" d="M397,361c-3.08,2.21-3.13,6.11-5,9h0c-1.9-5,.12-9.45,5-11v2Z" transform="translate(99 99)"/><path class="cls-103" d="M357,395c3.9-2.34,7.87-4.6,11-8,4.1-2,5.43-6.39,8.13-9.59,1.35-1.6,2.34-3.79,5.08-2.49A1.69,1.69,0,0,1,381,377c-.17,4.75-4,7.24-6.95,9.73s-6.18,4.66-9.05,7.27c-3.3-.69-5.7,1-8,3Z" transform="translate(99 99)"/><path class="cls-104" d="M397,359c-3.66,2.76-5.11,6.53-5,11l-3,1c-1.26-1.37-.67-2.75,0-4.15,1.72-3.77,3.65-7.44,4.37-11.61A2.6,2.6,0,0,1,397,353h0Z" transform="translate(99 99)"/><path class="cls-56" d="M-96-30h1c.58,0,1.6-.78,1.65,0a2.64,2.64,0,0,1-2.54,3C-96-28-96-29-96-30Z" transform="translate(99 99)"/><path class="cls-95" d="M-19-94c3.22-1,6.22-3,9.92-1.17,1.36.65,3.28.17,4.94.17q161.12,0,322.23.15c4.61,0,8.38-3.09,13-2.17L336-97c-2,2-4.74.25-7,1.26.58,1.39,2.19.12,3,1.22-1.25,1-2.69.26-4,.48-5.37,1.07-10.86.9-16.25.9Q157-92.9,2.18-93C-2.21-93-6.61-94.53-11-93c-.54,3.18-2.47,1.18-3.68.83C-16.16-92.6-17.09-94.45-19-94Z" transform="translate(99 99)"/><path class="cls-95" d="M-17-97c.4.2,1.6.51.75.82-1.41.51-3.12.18-4.71.2v-1Z" transform="translate(99 99)"/><path class="cls-3" d="M-87,274c1.06-5.42-1-11,1.72-16.51,1.28-2.61,2.35-3.64,5-3.5,1.16.06,2.33,0,3.49,0H160.81c2.48,0,5,.3,7.32-1-2,6.31-5.1,12.11-8.1,18-1.32,2.11-3.45,1.67-5.41,1.67q-104.43-.18-208.86,0c-10.92,0-21.92-1.05-32.76,1.34Z" transform="translate(99 99)"/><path class="cls-83" d="M112.05,149c-2.59,2.91-6,3-9.57,3q-89.63,0-179.25,0c-6.75,0-8.48,3.24-10.6,9.5-2,5.88-1.44,11.4-1.63,17.11-.07,2.1-1.35,2.42-3,2.39-3-4.7-.45-9.73-.88-14.6-.94-10.69,3.44-20.49,5.49-30.68.55-2.73,2.23-3.91,4.84-4.16,2.33-.22,4.66-.17,7-.17,63.58-.06,127.16.12,190.75-.09,1.48,0,3-.27,4.3.8C117.34,137.87,113.67,143,112.05,149Z" transform="translate(99 99)"/><path class="cls-10" d="M-93,45V41c2.08.25,3.39-.24,3.69-2.72.59-4.83,3.87-6.65,8.39-6.8,1.5-.05,3-.07,4.49-.07q90.63,0,181.25,0c3.89,0,8.09-.77,11.27,2.58C106.41,41.12,96.57,48,86.27,54.14c-3.63.77-7.31.43-11,.43q-74.22,0-148.44,0c-11.24,0-11.33.17-14.38,11.32-1,3.77-1.45,7.8-3.6,11.4-3.27-2.1-1.67-5.47-2.87-7.89A89.16,89.16,0,0,1-93,45Z" transform="translate(99 99)"/><path class="cls-105" d="M-87,274c2.52-2.47,5.5-3.07,9-3.07q115.07.13,230.15,0c2.61,0,5.23,1,7.85.05a79.94,79.94,0,0,1-7.21,16l-8.34,0H-75.14c-11.33,0-11.34,0-12.81,11a24.8,24.8,0,0,0,0,3c-2-3.9-.56-7.85-.19-11.8C-87.72,284.14-86.06,279.17-87,274Z" transform="translate(99 99)"/><path class="cls-93" d="M116.09,34c-4.89-1.23-9.87-1-14.84-1H-78.45c-8.69,0-9,.24-9.56,8.69-.08,1.11.35,2.63-1.12,3C-92.11,45.4-91.46,42-93,41c1.08-4.75,0-10,3.46-14.23.69-.84.39-2.49.54-3.77,1.12-2,3.06-2.4,5.12-2.53,2.33-.15,4.66-.1,7-.1q139.23,0,278.44,0a4.79,4.79,0,0,0,1.45-.34c2.22,3.77,2.07,8.53,5,12-1.51,1.54-3.45.88-5.2.89-10,.06-19.93.32-29.88-.06-8.13-.31-16.08,1.8-24.18,1.22l-15.75-3c-3,.43-6,.73-8.95-.16C120.74,30.4,118.82,33.26,116.09,34Z" transform="translate(99 99)"/><path class="cls-9" d="M-93,69c2.1,2,.19,4.84,1.7,7-.92-4.62,2.16-8.37,2.65-12.79.3-2.72,2.79-5.33,3.2-8.64.27-2.16,3-1.59,4.73-1.59Q-58,53-35.3,53H79.5c2.32,0,4.67-.2,6.77,1.14l-23,16a29.84,29.84,0,0,1-11.67,2C8.55,72-34.53,72.07-77.6,71.9c-4.71,0-7.46.71-6.41,6.14.59,3.06-1.23,5-3.32,6.77-2.45,2-2.79,4.31-2.25,7.51s3.3,8.06-3.42,8.68A74.43,74.43,0,0,1-93,69Z" transform="translate(99 99)"/><path class="cls-106" d="M119.49,132.1c-2.54,1-5.2.91-7.86.91Q15.8,133-80,132.93c-4.18,0-6,.58-6.26,5.53-.23,3.95-1.1,8.34-3.75,12-1.64,2.26-2,5.17-2,8.09.1,7.49,0,15,0,22.46-.7,8-.4,16.08-2,24h0a211,211,0,0,1,0-32c.54-13.67,2.36-27.28,2-41a13.28,13.28,0,0,0,3-7.27c.57-3.93,3-5.73,6.78-6.13a69.31,69.31,0,0,1,7.49-.19q95.21,0,190.41.06c4.48,0,8.92-.83,13.4-.46A88.81,88.81,0,0,1,119.49,132.1Z" transform="translate(99 99)"/><path class="cls-90" d="M129.08,118c-2.3,2.1-5.1,2-8,2q-99.93,0-199.87,0a22.29,22.29,0,0,0-5,.16c-2.39.56-4.33,1.77-3.76,4.85.69,3.7-.87,6-4.51,7V121a7.15,7.15,0,0,0,2.6-6.2,8.73,8.73,0,0,1,3-7.09c3.08-2.64,6.83-2.31,10.47-2.32q43.92,0,87.84,0c40.1,0,80.19.06,120.29,0,1.65,0,3.34-.26,4.86.68C135.25,110.56,132.2,114.31,129.08,118Z" transform="translate(99 99)"/><path class="cls-107" d="M230.11,93c3.94,8.16,8,16.27,11,24.83,0,2.38-2,2.5-3.52,2.58a182.51,182.51,0,0,1-19.43,0A4.81,4.81,0,0,1,214,118c-1.68-3.38-3.14-6.9-5.1-10.1s-4.78-3.32-7.09-.22c-2.74,3.66-5.16,7.56-7.71,11.36a8.56,8.56,0,0,1-5.65,1.55c-15.6.05-31.21.15-46.81-.09-2.3,0-6.2,1.07-5.77-3.75a210.73,210.73,0,0,1,16.9-25.07c4.63-.73,9.28-.27,13.92-.28q27.87-.09,55.76,0C225.11,91.4,227.83,91.13,230.11,93Z" transform="translate(99 99)"/><path class="cls-60" d="M122.32,206.1A169.17,169.17,0,0,1,109,226a6.49,6.49,0,0,1-3.84.78c-33.38-.36-66.77-.09-100.15-.15-1.65,0-3.34.21-4.88-.65-3-11.76,5.93-19.77,17.22-19.8,20.45-.06,40.91-.09,61.36.05,3.12,0,5.48-.75,7.31-3.21,5.62,2.24,11.51,1.28,17.29,1.42,4.66.12,9.32-.05,14,.08C119.08,204.55,121,204.51,122.32,206.1Z" transform="translate(99 99)"/><path class="cls-58" d="M137.1,106c-2.3,1.31-4.84,1-7.32,1Q26.89,107-76,107c-3.83,0-7.59,0-11,2a11,11,0,0,1,0-7c1.42-3.09,4-4.27,7.22-4.48,2.33-.16,4.66-.13,7-.13q66.47,0,132.93,0c3,0,6,.55,8.95.43,1.33.31,2.83,0,3.91,1.17a8.18,8.18,0,0,0,6,.18c5.48-.81,9.32-4.82,14-7.19,17.19-1.19,34.4-.16,51.59-.57a2.86,2.86,0,0,1,1.82.69C144.3,97.39,140.32,101.45,137.1,106Z" transform="translate(99 99)"/><path class="cls-108" d="M-91,196c1.51-6.91,3.86-13.64,4.06-20.81a2,2,0,0,1,2.2-2.14c1.5,0,3-.05,4.49-.05H93.91c2.49,0,5,.19,7.34-.94-2.59,4.07-2.88,9.71-8.13,12-2.78,2.12-6,1.54-9.15,1.54q-79.9,0-159.79,0c-3.1,0-6.37-.62-9.14,1.48-1.67,1.2-1.56,3.11-2,4.82C-87.57,194-88.11,196.19-91,196Z" transform="translate(99 99)"/><path class="cls-105" d="M336,269v11a7.56,7.56,0,0,0-.71,1.31c-2.85,8.24-2.85,8.27-11.79,8.27H208.36a28.34,28.34,0,0,1-6-.3c-1.84-.39-3.63-.93-3.47-3.41,1.37-5.4,4.19-10.15,6.79-15a11.25,11.25,0,0,0,6.91,2.18q57.36-.13,114.71,0c3.37,0,6.36-.31,7.67-4C335.33,268.55,335.67,268.55,336,269Z" transform="translate(99 99)"/><path class="cls-109" d="M-87,187c.84-2.81,2.94-3,5.48-3q87.33.1,174.64.09c-1,4-4.75,6.26-6.24,9.95-2.81,2-6,1.6-9.17,1.6H-74c-1.83,0-3.67,0-5.49,0-2.94,0-4.71,1.1-5,4.25-.17,2-.63,4-2.57,5.16-4.06-2.08-2.55-5.8-1.79-8.54C-88,193.35-87,190.29-87,187Z" transform="translate(99 99)"/><path class="cls-110" d="M230.11,93Q194,93,157.83,93c-1.74,0-3.73.6-5-1.29q5-7.66,9.94-15.34c1.78-2.74,3.4-5.47.08-8.25,1.69-3.17,4.78-2.57,7.48-2.59,12.94-.09,25.87-.06,38.8,0,1.31,0,2.66.33,3.92-.28a12,12,0,0,1,8.18,7.23C224.05,79.32,227.13,86.12,230.11,93Z" transform="translate(99 99)"/><path class="cls-111" d="M-88,205c2.06-1.69,2.24-4,2-6.37-.47-3.87,1.25-4.72,4.85-4.7,27.43.13,54.86.07,82.29.07H86.88c-2.66,6.25-6.88,8.73-14.14,8.49-18.53-.62-37.1-.22-55.66-.19-1.78,0-3.65-.46-5.33.58-.12.49-.35.56-.72.21l-6.74,2c-28.55,0-57.11,0-85.66-.16-3.45,0-4.92,1.28-4.65,4.7.11,1.49.17,3.11-2,3.34A6.2,6.2,0,0,1-88,205Z" transform="translate(99 99)"/><path class="cls-108" d="M336,173v10c-4.33,2.06-8.93,2-13.59,2q-53.9-.09-107.79,0c-2.32,0-4.68-.26-6.78,1.08A147.36,147.36,0,0,1,189,173H336Z" transform="translate(99 99)"/><path class="cls-11" d="M213,65.19c.59,3.49-2.19,1.7-3.18,1.71-13.59.15-27.18.11-40.77.09-2.16,0-4.32-.12-6.25,1.11l-29.47-6.76c-3.25-.75-5.72.94-8.22,2.61-2.06,1.37-4.17,2.66-6.26,4-11.79-.59-23.59-.25-35.38-.51-1.68,0-3.83.25-4.43-2.22C85.64,59.07,93.83,55.26,101,50c3.28.68,6.61.41,9.91.42q33.85.06,67.72,0A80.71,80.71,0,0,1,192,51c5.42,2.14,9.78,5.82,14.2,9.47C208.31,62.25,210.73,63.63,213,65.19Z" transform="translate(99 99)"/><path class="cls-47" d="M198.92,285.87c1,2.35,3.1,2.13,5.11,2.13H327.85c3.25,0,6.09-.13,5.37-4.79-.24-1.51,1.43-2.49,2.78-3.22,0,4.5-.18,9,.06,13.49.19,3.46-1,4.64-4.51,4.58-11-.19-22-.07-33-.07q-49.45,0-98.92,0c-1.9,0-4,.76-5.67-1C194.86,292.93,197.25,289.56,198.92,285.87Z" transform="translate(99 99)"/><path class="cls-17" d="M118,222.1c6.56-10.2,13.15-20.39,19.67-30.61,1-1.65,2.11-1.84,3.68-.79,3.43,2.3,7,4.48,10.37,6.8,9.75,6.62,19.43,13.36,29.25,19.87,3.72,2.46.8,4.43,0,6.63-1.29,2.15-3.41,2.53-5.63,2.54-17.46.12-34.92.19-52.38-.07C120.59,226.43,116.54,227.07,118,222.1Z" transform="translate(99 99)"/><path class="cls-112" d="M.11,226c1.79-1.16,3.81-1,5.8-1q47.87,0,95.73,0a27.85,27.85,0,0,1,7.34,1c-4.22,8.08-10.51,12.15-20,12-24.26-.29-48.52-.08-72.78-.11C8.16,237.91,2.13,233.39.11,226Z" transform="translate(99 99)"/><path class="cls-113" d="M298,130.25c4.21,4,5.31,8.08,3.06,13.28-2,4.55-5.41,7.56-10.65,7.63-8.65.11-17.11-1.8-25.67-2.71-9.2-1-18.37-2.37-27.58-3.32C226.53,144,223.26,141.47,220,131c1.87-1,3.89-.59,5.86-.59C249.91,130.34,273.93,130.62,298,130.25Z" transform="translate(99 99)"/><path class="cls-114" d="M-87,245c.34-5.62.83-11.24,1-16.86.09-3.83,2.66-3.12,4.88-3.13,23.65,0,47.31,0,71-.06,1.9,0,4.58,1.2,5.27-2.12,1.73,5,1.9,10.84,6.87,14.34-1.58,1.41-3.5.8-5.26.8-23.93,0-47.87.1-71.8,0-4.76,0-9,0-10.39,5.82C-85.63,244.26-86.49,244.59-87,245Z" transform="translate(99 99)"/><path class="cls-110" d="M146.38,92.06a10.53,10.53,0,0,1-2.86.82q-24.43.09-48.89,0c-.55,0-1.1-.62-1.66-1q18.63-12.78,37.24-25.59a4.06,4.06,0,0,1,3.69-.42c7.91,1.77,15.82,3.57,23.77,5.08,2.79.53,2.39,1.56,1.23,3.23C154.75,80.2,151.24,86.61,146.38,92.06Z" transform="translate(99 99)"/><path class="cls-88" d="M169.13,204l-26.34-17.85c1.68-3.16,4.75-2.59,7.46-2.63,14.57-.19,29.13.19,43.69-.27a225.6,225.6,0,0,1,27.27,19.73c-1.46,2.25-3.82,2.53-6.14,2.57-13.25.19-26.5.11-39.75.05A14.69,14.69,0,0,1,169.13,204Z" transform="translate(99 99)"/><path class="cls-108" d="M193.94,183.21c-1.82,1.83-4.14,1.81-6.5,1.8-12.79,0-25.59,0-38.38,0-2.17,0-4.33-.1-6.27,1.12-2.11-.48-3.79-3.65-6.38-1-1.21.84-2.31,1.8-4,1.71-9.07-.51-18.15,0-27.22-.37-2.63-.12-5.73-.36-4.26-4.56q3-5,5.93-10.07c2.45-.66,5-.4,7.43-.4q26.38,0,52.77,0a54.26,54.26,0,0,1,10.88.73C183.75,175.16,188.55,179.62,193.94,183.21Z" transform="translate(99 99)"/><path class="cls-110" d="M79.06,65.2c6.68,1.81,13.49.32,20.22.8,6.55.46,13.32-1.31,19.59,1.93-12.32,8.36-24.54,16.87-37,25-5,3.24-12.19,1.54-15.71-2.89-4.28-5.38-4.22-11.09.35-16.22A35,35,0,0,1,79.06,65.2Z" transform="translate(99 99)"/><path class="cls-10" d="M192,51c-1.49,1.61-3.44.95-5.19.95q-40.23.06-80.46,0c-1.87,0-4.56,1.33-5.35-2,6.13-5,13.08-8.86,19.62-13.29,3.46-2.34,7.37-2.3,11-1.48,17.87,4,35.66,8.22,53.5,12.29A15.37,15.37,0,0,1,192,51Z" transform="translate(99 99)"/><path class="cls-58" d="M69.1,97.78C67.42,99.86,65.07,99,63,99q-70.17.08-140.35,0c-3.69,0-6.88.69-9.68,3.07,0-9,0-9,8.77-9l140.58-.11Z" transform="translate(99 99)"/><path class="cls-113" d="M186.08,132a92.8,92.8,0,0,1-9.38,15c-2,1.47-4.28,1.62-6.62,1.62-15.23,0-30.46.08-45.69-.06-2.37,0-5.47.87-6.49-2.72a47.15,47.15,0,0,1,9-16c18.2,1.09,36.42.37,54.62.68C183.17,130.52,184.85,130.65,186.08,132Z" transform="translate(99 99)"/><path class="cls-17" d="M169.13,204c15.09,0,30.18,0,45.26.09a32.16,32.16,0,0,0,6.82-1.11c4,4.71,3.84,9.94,1.8,15.34-.86,2.29-2,4.49-3,6.73-4.91,2.36-29.71,2.31-34.28-.07,2.34-7.23,2.1-7.85-4.15-12.17C177.41,209.87,173.28,206.9,169.13,204Z" transform="translate(99 99)"/><path class="cls-114" d="M118,222.1c-.19,2.15.83,2.92,2.93,2.92,19.07-.05,38.14,0,57.21-.1A9.67,9.67,0,0,0,181,224a53.11,53.11,0,0,1-5.87,13c-1.82,1-3.79,1-5.8,1q-27.9,0-55.78,0c-2.11,0-4.45.5-5.59-2.11Z" transform="translate(99 99)"/><path class="cls-115" d="M117.9,145.83c1.37,1.79,3.34,1.14,5.08,1.14q26.86.06,53.72,0l-8.63,15c-1.63,1.42-3.62,1.59-5.63,1.6-14,.06-27.94.15-41.9-.07-2.85-.05-7.06.59-5.65-4.83C115.18,154.24,115.63,149.82,117.9,145.83Z" transform="translate(99 99)"/><path class="cls-116" d="M101,181.88c.07,1.55.17,3.08,2.31,3.09l33.15.13c-4,7.45-8.38,14.68-14.09,21q-15.55,0-31.12-.11c-2.27,0-4.85.44-5.2-3Q93.48,192.45,101,181.88Z" transform="translate(99 99)"/><path class="cls-106" d="M298,130.25c-1.12,2-3,1.75-4.84,1.75q-34.14,0-68.27,0a9,9,0,0,1-4.8-1,53.47,53.47,0,0,1-6-13c9,1.44,18.08,1.91,27.09-.22a10.28,10.28,0,0,0,6.58,3.15c13.36,1.6,26.71,3.35,40.09,4.82A16.54,16.54,0,0,1,298,130.25Z" transform="translate(99 99)"/><path class="cls-106" d="M186.08,132l-48.79,0c-3.62,0-7.18-.26-10.4-2.19l9-13c.65,3.33,3.32,2.19,5.24,2.2,17.66.09,35.32.07,53,.09A71.63,71.63,0,0,1,186.08,132Z" transform="translate(99 99)"/><path class="cls-117" d="M114.89,158.7c-.18,3.59,2.29,3.32,4.71,3.31q24.22,0,48.47,0c1,5.66,6.64,6.71,9.89,10.13-1.21,1.27-2.79.85-4.24.85q-31.12,0-62.26,0c-1.6,0-3.39.5-4.58-1.17C109,167.1,111.12,162.39,114.89,158.7Z" transform="translate(99 99)"/><path class="cls-30" d="M190.3,291.08a69.87,69.87,0,0,1-5.91,14.14c-4.37,8.38-14,11.47-21.94,7-7-3.94-10.78-12.86-5.61-22.29,2.32-1.42,4.83-.55,7.25-.54,6.58,0,13.16-.06,19.74,0C186.09,289.47,188.5,289.16,190.3,291.08Z" transform="translate(99 99)"/><path class="cls-114" d="M185.75,224.94,220,225a121.72,121.72,0,0,1-8.25,18,7.57,7.57,0,0,1-4.62,1.51c-7.09.06-14.18.27-21.26-.12-2.76-.15-5.67-.49-7.16-3.48C180.41,235.29,183.21,230.17,185.75,224.94Z" transform="translate(99 99)"/><path class="cls-57" d="M164.91,271.78A108.31,108.31,0,0,1,173,253.94c8.28,2.72,16.82,1.12,25.24,1.56,2.61.14,5.38-.51,7.63,1.5A123.4,123.4,0,0,1,198,274a5.45,5.45,0,0,1-3.6,1.46c-8.58.27-17.16.35-25.73-.06C166.71,275.31,164,275.25,164.91,271.78Z" transform="translate(99 99)"/><path class="cls-118" d="M164.91,271.78c.5,3,2.9,2.18,4.72,2.19,9.45.06,18.9,0,28.36,0-1.58,6.14-4.62,11.62-7.69,17.08-8.4,0-16.8-.12-25.2,0a26.74,26.74,0,0,1-8.26-1.1A149.36,149.36,0,0,1,164.91,271.78Z" transform="translate(99 99)"/><path class="cls-47" d="M192.05,301H329.52c1.5,0,3,0,4.5.07a1.93,1.93,0,0,1,0,3.85c-1.16.09-2.33.08-3.5.08q-67.23,0-134.47,0c-1.75,0-3.72.66-5.14-1.08Z" transform="translate(99 99)"/><path class="cls-113" d="M226,147.17A3.43,3.43,0,0,1,222.7,149c-12.55,0-25.1,0-37.65-.07-.71,0-1.41-.68-2.11-1,3.07-6.37,7.08-12.16,11-18a27.26,27.26,0,0,0,20,.16c2.79,2.94,3.88,6.89,5.33,10.42A11.1,11.1,0,0,0,226,147.17Z" transform="translate(99 99)"/><path class="cls-96" d="M205.84,257c-8.91,0-17.82-.06-26.73,0-2.69,0-4.91-.43-6.14-3.1,1-4.76,3.58-8.81,5.77-13,4.91,2.79,10.31,2.06,15.59,2.09,5.81,0,11.63,0,17.45,0C210.78,248.08,207.59,252.23,205.84,257Z" transform="translate(99 99)"/><path class="cls-119" d="M214,130.05c-4,6-10,1.78-15,2.87-2.24.49-4.75.28-5-3,3.77-6.19,7.54-12.38,11.67-19.18C209,117.42,212,123.5,214,130.05Z" transform="translate(99 99)"/><path class="cls-120" d="M98.93,240.78c-1.59,1.15-3.41,1.1-5.26,1.1q-39.18,0-78.37,0c-1.8,0-3.69.35-5.27-.93,1.19-1.33,2.77-.9,4.22-.9q40.44,0,80.89,0C96.44,240,97.83,239.71,98.93,240.78Z" transform="translate(99 99)"/><path class="cls-121" d="M11,203.09a.63.63,0,0,1,.72-.21H80V204H72.13q-27.93,0-55.88,0C14.5,204,12.56,204.61,11,203.09Z" transform="translate(99 99)"/><path class="cls-61" d="M294,155a26.33,26.33,0,0,1-9,0A8.83,8.83,0,0,1,294,155Z" transform="translate(99 99)"/><path class="cls-122" d="M124,31a26.89,26.89,0,0,1,8.95.16C129.94,32.44,127,32.67,124,31Z" transform="translate(99 99)"/><path class="cls-61" d="M228.84,208.06a24.86,24.86,0,0,1,0,7.89A8.11,8.11,0,0,1,228.84,208.06Z" transform="translate(99 99)"/><path class="cls-90" d="M79,99.13c-2,1.28-4,1.46-6-.18Z" transform="translate(99 99)"/><path class="cls-1" d="M157.85,315c-3.53,2-1.69-.94-1.85-2A2.66,2.66,0,0,1,157.85,315Z" transform="translate(99 99)"/><path class="cls-104" d="M-67,349c3.31.28,5,2.29,5.66,5.35.35,1.5.89,3.15,2.77,2.95s1.6-1.91,1.55-3.19c-.11-2.44,1.09-3.26,3.35-3.12,1.33.08,2.67,0,4,0q206.42,0,412.84,0c3.6,0,8.56-1.77,8.09,5.06a1.34,1.34,0,0,0,1.8,1.21,2.83,2.83,0,0,0,2.12-2.48c.73-3.13,2.21-5.55,5.82-5.82h0a3.26,3.26,0,0,1,.5,3.76c-3,3.49-5.51,7.37-9.58,9.76-6.74,5.72-13.67,10.19-23.26,10.18q-191.67-.26-383.33,0c-9.58,0-16.52-4.44-23.21-10.19-4.14-2.3-6.62-6.27-9.61-9.72A3.28,3.28,0,0,1-67,349Z" transform="translate(99 99)"/><path class="cls-123" d="M319,317c-2-2.49-.57-5.25-1.13-8.78,1.7,2.38.87,4.16,1.14,5.78A2.16,2.16,0,0,1,319,317Z" transform="translate(99 99)"/><path class="cls-1" d="M319,317c0-1,0-2,0-3,1,.09,2.18.16,2.31,1.29C321.5,316.86,320.09,316.84,319,317Z" transform="translate(99 99)"/><path class="cls-124" d="M-67,349v4l-.57.41c-2.14.39-3.24-1.32-4.68-2.34-1.9-1.32-4.16-.29-3.16,1.33,3.37,5.44.72,12.6,5.46,17.46a13.39,13.39,0,0,0,2.09,2.1c.93.83,1.92,1.65.86,3v2c-4.66.66-4.74-4.79-8-6-1-5.83-5-10.67-5.53-16.67-.09-1-1.43-1.26-2.47-1.33,0-3,.1-6-.06-9-.12-2.12-1.13-4.87,1.37-5.68s5.51-1,7.93,1.34a19,19,0,0,1,4.67,7.56A2.22,2.22,0,0,0-67,349Z" transform="translate(99 99)"/><path class="cls-124" d="M381,353v-4c2.37-.07,2.12-2.28,2.76-3.62a17.69,17.69,0,0,1,4.72-6.29c2.18-1.78,4.81-1.4,7.11-.77s1.29,3.08,1.37,4.74c.14,3.31,0,6.63,0,9.94-1.09.67-2.84.86-2.83,2.46,0,4.82-2.53,8.63-4.58,12.67A10.6,10.6,0,0,0,389,371c-.53,2.31-2.88,3.16-4,5a6.71,6.71,0,0,1-4,1v-2c-1.06-1.4-.05-2.21.87-3,3.27-3,5.83-6.35,5-11.27-.35-2.11,1-3.72,2.12-5.42s2.08-3.86.15-5.42-2.86.72-4,1.75a5.12,5.12,0,0,1-3.51,1.68Z" transform="translate(99 99)"/><path class="cls-125" d="M-77,370c-1.34,1.33,2.57,2.68,0,4a2,2,0,0,1-2-1c.09-4.48-3.72-7.65-4-12,2.76-.41,2.61,1.87,3.3,3.47C-78.89,366.35-77.91,368.16-77,370Z" transform="translate(99 99)"/><path class="cls-56" d="M-91-29c7.75-3.55,4-11.8,6.72-17.68C-82.7-45.53-84.79-42.8-82-43c0,7,0,7,7,7q201.68,0,403.36.12c2.54,0,7.35-2.42,7.43,2.62s-4.61,4.24-8,4.24Q125.31-29-77.13-29c-3.56,0-7.27-.88-10.61,1.61C-89-26.45-90.73-26.82-91-29Z" transform="translate(99 99)"/><path class="cls-56" d="M-76-43h9c.24,2.82-1.58,3.72-3.88,3.94C-73.73-38.79-75.56-40-76-43Z" transform="translate(99 99)"/><path class="cls-5" d="M206.75,0c-2.25,4.05-2.88,8.57-3.8,13-2.73,2.28-6,1.61-9.12,1.61q-89.91.06-179.82,0-45.72,0-91.42,0c-2.92,0-6,.65-8.59-1.61-.1-2.31.3-4.63-.9-6.84-2-3.66.26-5.25,3.38-6A19.08,19.08,0,0,1-79,0q138.7,0,277.4,0C201.16,0,204,.9,206.75,0Z" transform="translate(99 99)"/><path class="cls-14" d="M-86,13H203c0,2.35,0,4.71.05,7.06-.89,3.24-3.56,1.87-5.43,1.88-27,.09-53.95.06-80.93.06H-82.19c-2.31,0-4.69-.34-6.81,1,0-2.42.07-4.85,0-7.26C-89.08,13.56-87.92,12.9-86,13Z" transform="translate(99 99)"/><path class="cls-5" d="M212.9-9c-1.77,2.52-3.33,5.2-5.88,7.07-1.33-2.83-3.93-2-6.15-2q-39,0-78,0H-78.49c-1.5,0-3,0-4.49,0-2-.11-2.92-1.26-3-3.25-.09-2.35,1.31-2.76,3.2-2.7,1.17,0,2.34,0,3.5,0H206.09C208.39-10,210.78-10.39,212.9-9Z" transform="translate(99 99)"/><path class="cls-93" d="M-93,69v54.76l-1,0V109c-1-2.57-.44-5.25-.45-7.87-.07-15.93,0-31.87,0-47.81,0,16.94,0,33.87,0,50.8,0,1.63.43,3.33-.46,4.88v55.44c-1.5-2-1-3.57-1-5C-96,139-96,118.6-96,98.17c0-1.74.66-3.69-1-5.16,0-11.46-.33-22.93.08-34.38.52-14.15.94-28.29.92-42.45,0-1.16-.09-2.36,1-3.18,0,9.79-.4,19.59,1,29.33.15,1,.11,2,1,2.67,1.73,1.65,1.29,3.9.88,5.65C-93.56,56.75-92.75,62.89-93,69Z" transform="translate(99 99)"/><path class="cls-56" d="M179-51c.8,5-1.7,6.09-6.3,6.08Q52.85-45.08-67-45c1.34-5.42,1.34-5.42-7.16-6.38.41-2.38,2.18-2.59,4-2.61,2.5,0,5,0,7.5,0H171.26C174.23-54,177.41-54.55,179-51Z" transform="translate(99 99)"/><path class="cls-20" d="M336,269h-1c.39-2.33-.92-4.89,1-7Z" transform="translate(99 99)"/><path class="cls-126" d="M234,42.05c-2,.19-4,.38-5.85-.5-.35-3.15,1.23-5.85,2.42-8.49,5.32-11.81,10.15-23.81,15.21-35.72.92-2.16,1.39-5.61,5.34-4.4A2.13,2.13,0,0,1,253-5.87a2.54,2.54,0,0,1,.31,2.81c-5.65,14.67-11.94,29.09-18,43.61C235,41.15,234.42,41.54,234,42.05Z" transform="translate(99 99)"/><path class="cls-127" d="M251.12-7.06c-3.29-.05-3.58,3-4.17,4.86-2.87,9-7.85,17.05-10.94,25.94-2.12,6.11-5.21,11.89-7.86,17.81L226,40.87c-2.2-1.14-1.83-2.8-1-4.66,5.88-13.72,11.28-27.63,17.14-41.35,1.12-2.65,2.16-5.54,6.07-3.93Z" transform="translate(99 99)"/><path class="cls-128" d="M234,42.05c2.14-9.32,7-17.58,10.32-26.43C247.05,8.4,250.08,1.29,253-5.87c2.11,1,3.09,2.92,4.12,4.82-3.3,9-7.52,17.58-11.13,26.43-1.43,3.52-2.61,7.16-4.29,10.57a4.53,4.53,0,0,0,.39,5.09C239.56,42.84,236.74,42.1,234,42.05Z" transform="translate(99 99)"/><path class="cls-129" d="M248.15-9.07c-1.94,0-3.7.3-4.17,2.65-1,5-3.38,9.65-5.44,14-4.5,9.49-7.48,19.57-12.23,28.88-.88,1.74-1.29,2.83-.34,4.39-1.8-.17-3.53-.51-4.82-1.94-.56-3,.83-5.5,2-8q8.29-17.74,14.89-36.19c.91-2.51,2-5,4.95-5.73A6.71,6.71,0,0,1,248.15-9.07Z" transform="translate(99 99)"/><path class="cls-130" d="M243-11c-5.66,8-7.52,17.71-11.61,26.42-3.64,7.74-6.85,15.68-10.25,23.53l-2.24-1.72a3.48,3.48,0,0,1-.36-3.77c5.23-11.28,8.81-23.26,14.59-34.31a35.46,35.46,0,0,0,2.92-6.87c.7-2.57,2.18-4,4.87-4.06A2.2,2.2,0,0,1,243-11Z" transform="translate(99 99)"/><path class="cls-131" d="M242.07,41c-3.23,0-3.54-1.5-2.37-4.18,4.75-10.81,9.46-21.64,14-32.53A15.35,15.35,0,0,1,257.1-1c1.32,1,1.54,2.56,2,4-2.39,6.63-5,13.16-7.74,19.65-2.41,5.72-5.69,11.16-6.15,17.57A3.9,3.9,0,0,1,242.07,41Z" transform="translate(99 99)"/><path class="cls-132" d="M215.86,35.1l-3-3c2.31-6.19,4.66-12.37,7-18.55,3.06-8,7-15.7,10.26-23.65a2.29,2.29,0,0,1,1-1.06l1.06-.83c4.27-.45,5.15.35,3.44,3.8-6.23,12.59-10.45,26-16,38.85C219,32.33,218.8,35.08,215.86,35.1Z" transform="translate(99 99)"/><path class="cls-133" d="M211.92,30.05c-1.56-.95-2.11-2.54-2.63-4.15-.45-3,1.14-5.49,2.22-8,4-9.26,8-18.5,11.42-28,2.67-.93,5.15-3.23,8.24-1.12L231-11c-4.75,7.41-7.24,15.85-10.72,23.83-2.29,5.27-4.38,10.63-6.69,15.9C213.2,29.55,213.07,30.38,211.92,30.05Z" transform="translate(99 99)"/><path class="cls-134" d="M215.86,35.1A259.11,259.11,0,0,0,229.12,2.7c1.29-3.68,2.64-7.4,5.1-10.63,1.51-2,2.3-4.5-2-4.08,3-2.31,5.79.4,8.7.21-.75,1.07-2.48.7-3,2.35-2.52,8.49-7.23,16-10.35,24.33-2.11,5.6-3.93,11.45-6.91,16.74a10.54,10.54,0,0,0-1.8,5.59A4,4,0,0,1,215.86,35.1Z" transform="translate(99 99)"/><path class="cls-135" d="M222.93-10.06c.61.12,1.7.37,1.29,1-2.12,3.08-2.19,7-3.87,10-4.39,8-6.59,17-11.06,25a4.72,4.72,0,0,1-1-4c-1-6.69,2.41-12.19,4.87-17.91,1.85-4.3,2.05-9.57,6.78-12.31A3.78,3.78,0,0,1,222.93-10.06Z" transform="translate(99 99)"/><path class="cls-136" d="M245.23,40.16c-2.28-2.06-1.06-4.21-.15-6.35,1-2.42,1.92-5,3.14-7.24,4.25-7.62,5.26-16.69,10.9-23.63,1.36,1.4,1.43,3.31,2,5-5.37,9.91-8.87,20.61-13.15,31A2.91,2.91,0,0,1,245.23,40.16Z" transform="translate(99 99)"/><path class="cls-137" d="M211.92,30.05c3.88-9.32,7.78-18.63,11.63-28,1.31-3.15,2.45-6.37,3.75-9.53C228-9.11,228.59-11,231-11c.85,4.78-2.89,7.86-4.43,11.74-3.9,9.86-8.06,19.62-12.16,29.4a8.89,8.89,0,0,1-1.5,1.9C212,31.65,212,30.85,211.92,30.05Z" transform="translate(99 99)"/><path class="cls-138" d="M219.91-8.32c-4.72,9.75-9.24,19.58-11.65,30.22C204.77,10.05,209.89-3.25,219.91-8.32Z" transform="translate(99 99)"/><path class="cls-139" d="M247.94,39c-.07-4.84,2.2-9,3.79-13.39,2-5.38,4.35-10.61,6.56-15.9a2.9,2.9,0,0,1,2.8-1.7c1,1.2.67,2.68.77,4.06-3.17,8.05-6.82,15.89-9.68,24.06Q250.05,37.52,247.94,39Z" transform="translate(99 99)"/><path class="cls-140" d="M252.18,36.1a1.86,1.86,0,0,1-.89-2.53q4.5-10.14,9.11-20.23c.25-.54,1-.87,1.46-1.3C262.87,21.77,259.85,29.87,252.18,36.1Z" transform="translate(99 99)"/><path class="cls-141" d="M238.72,43.75H230v-.49h8.75Z" transform="translate(99 99)"/><path class="cls-142" d="M-11-93l-1.9-.19V-94H328v1a2.46,2.46,0,0,1-3,0h-8c-1.73.92-3.6.46-5.4.46q-154.61,0-309.2,0c-1.8,0-3.67.46-5.4-.46Z" transform="translate(99 99)"/><path class="cls-95" d="M-3-93H317c-1.48,1.64-3.43,1-5.18,1Q157-92,2.18-92C.43-92-1.52-91.36-3-93Z" transform="translate(99 99)"/><path class="cls-95" d="M325-93h3c.38.2,1.6.34.77.77A2.89,2.89,0,0,1,325-93Z" transform="translate(99 99)"/><path class="cls-13" d="M341,386l10-2c-3.06,7.08-9.65,7.87-15.87,7.89q-103.42.25-206.86.11c-50,0-99.94.11-149.9-.15-5.92,0-12.57-.73-15.37-7.85,3.5-.16,6.65,1.41,10,2l1,.11c3.8,1.95,7.84,2.44,12.09,2.44q170.94-.07,341.88,0c4.25,0,8.3-.44,12.09-2.44Z" transform="translate(99 99)"/><path class="cls-13" d="M-43,387a2.44,2.44,0,0,1-.48-.05c-2.45-1-5.77-3.22-4.63-5.05,1.41-2.24,4.93-1,7.11,1.1C-43.68,383.33-42.81,385.43-43,387Z" transform="translate(99 99)"/><path class="cls-13" d="M-38,394c-4.24.14-5.52-2.18-5-6C-40,388.92-36.93,389.72-38,394Z" transform="translate(99 99)"/><path class="cls-124" d="M365,373c-3.33,5.31-9.49,5.52-14.41,8-3.24,1.6-7.28,1.65-9.59,5h0a30.56,30.56,0,0,1-13.13,2.48q-170.86,0-341.74,0A30.56,30.56,0,0,1-27,386h0c-2.31-3.39-6.35-3.44-9.59-5-4.92-2.44-11.08-2.65-14.41-8-1.7-1.06-4.7-.85-4-4.19,1.32-.77,2.45-.16,3.6.47a63.44,63.44,0,0,0,6.27,3.58c8.82,5.45,18.51,7.14,28.68,6.75,2.5-.1,5-.16,7.49-.16H323.33c6.46,0,12.87.5,19.39-.55,7-1.11,13.2-3,18.07-8.37a6.69,6.69,0,0,1,5.85-2.2,3,3,0,0,1,1.58.73C369.18,372,366.55,372.07,365,373Z" transform="translate(99 99)"/><path class="cls-143" d="M-55,369c.69,2,2.8,2.53,4,4a20.34,20.34,0,0,0-2.47,0c-2.31.28-5.53-1.29-5.6,3.29-.06,3.77,1.53,5.15,5.68,4.58-1.31,2.25-2.83,4.19-.61,6.11-5.56,0-6.21-5.39-8.85-8.48-1.26-1.47-1.9-3.32-4.15-3.52a1.82,1.82,0,0,0-2-2c-1.85-3.79.59-7,1.56-10.36.55-1.88,2.52-1.26,3.72-.27A17.5,17.5,0,0,0-56.77,366C-55.67,366.67-54.52,367.37-55,369Z" transform="translate(99 99)"/><path class="cls-144" d="M-95,109V54.23h1V109h-1Z" transform="translate(99 99)"/><path class="cls-58" d="M-87,102v7c-1.5,2.44-1,5.15-1,7.76,0,2.87-1,4.45-4,4.24v-4c1.3-1.84-.25-4.15,1-6C-86.45,109.43-89.22,104.61-87,102Z" transform="translate(99 99)"/><path class="cls-145" d="M-97,205V173c1.63,1.47,1,3.42,1,5.16.06,8.94,0,17.89,0,26.84Z" transform="translate(99 99)"/><path class="cls-146" d="M-94,173v32h-1c0-8.95,0-17.9,0-26.84C-94.95,176.41-95.63,174.47-94,173Z" transform="translate(99 99)"/><path class="cls-90" d="M-91,111c-.33,2,.81,4.24-1,6,0-2.23,0-4.45,0-6.68,0-.09.2-.18.3-.28Z" transform="translate(99 99)"/><path class="cls-147" d="M-88,205v8c-1,4.44,2.57,9.5-1.8,13.6-2.43-1.27-.07-4.32-2.2-5.59-.67-8.38,1-16.66,1-25,3.92-1.85,2-6.31,4-9,1.68,3.37-.36,6.37-.84,9.55C-88.26,199.31-88,202.18-88,205Z" transform="translate(99 99)"/><path class="cls-143" d="M365,373l3-3c2-4.69,7.32-5.13,10.66-8.13a1.73,1.73,0,0,1,2.85.79c.76,3.4,3.34,6.57,1.49,10.34a1.82,1.82,0,0,0-2,2c-4.43.74-4.61,5.31-7,7.92-1.76,2-2.94,4.27-6,4.08,1.68-1.87,2-3.68-.71-5.12,1.85-1.5,4.23-.22,5.2-2.2a7.33,7.33,0,0,0,.26-5.31c-.56-1.94-2.42-1.24-3.8-1.35S366.32,373,365,373Z" transform="translate(99 99)"/><path class="cls-148" d="M-55,369a3.46,3.46,0,0,0-2-2c-.85-1.63-3.08-2.47-2.72-4.79A2.43,2.43,0,0,1-59,361c.5,0,1.29-.16,1.45.09,2.81,4.19,8.18,4.52,11.52,7.67A7.38,7.38,0,0,0-40.41,371q197.42,0,394.82,0A8.52,8.52,0,0,0,360,368.8c4-3.06,8.6-5.25,13-7.8a2.62,2.62,0,0,1,.79,1.22c.19,4.07-3.84,4.53-5.79,6.78-3.5.48-5.91,2.16-8.34,5-3.38,3.94-8.8,5.05-13.81,5.89-3.41.57-6.9.73-10.14,2-2.59,1-4.54-1-7-1-114.5.16-229,.05-343.48.3A79.76,79.76,0,0,1-41.41,377c-2.31-.8-3.9-2.43-5.59-4-1.55-1.2-2.82-2.85-5-3Z" transform="translate(99 99)"/><path class="cls-124" d="M-59,361v1c-5.37.06-9.26-4.32-8-9h0C-63.24,354.58-61.67,358.33-59,361Z" transform="translate(99 99)"/><path class="cls-124" d="M373,362v-1c2.67-2.67,4.24-6.42,8-8h0C382.2,357.51,378.16,362.05,373,362Z" transform="translate(99 99)"/><path class="cls-103" d="M-67,353c.09,5.29,4.26,6.95,8,9l2,5a9.24,9.24,0,0,1-7.07-3.47c-1.47-1.8-3.09-1.7-2.85,1.05.27,3.13-3,5.24-2.08,8.42-3.11-3.75-6.37-7.41-5-12.93.47-1.91-1.32-2.76-2.13-4.11-1.3-2.14-1.73-4.83.24-6.78,2.34-2.31,3.73.28,5.22,1.63C-69.61,351.8-68.69,353-67,353Z" transform="translate(99 99)"/><path class="cls-149" d="M373,362c3.64-2.13,7.68-3.91,8-9a9,9,0,0,0,4.79-4.11c.64-1.11,1.79-2.34,3.25-1.17,1.18.93,3.78,1.63,2.61,3.6-4,6.8-2.06,16-8.65,21.68.69-3.42-2.55-5.88-2.19-9.36.18-1.79-1.57-1.51-2.33-.5-2.7,3.56-7.58,3.68-10.48,6.86v-1C368.85,366.08,373.35,365.78,373,362Z" transform="translate(99 99)"/><path class="cls-150" d="M-27,386q184,2.49,368,0c-2.25,3.06-5.27,4.05-9.05,4.05q-174.94-.09-349.9,0C-21.73,390.05-24.75,389.06-27,386Z" transform="translate(99 99)"/><path class="cls-124" d="M-52,370c3.1-1.38,4,1,5,3C-49.13,372.78-50.52,371.3-52,370Z" transform="translate(99 99)"/><path class="cls-104" d="M345.69,378c-1.43-.36-4,.65-3.8-1.71.17-2,2.67-1.28,4.19-1.28,1.32,0,3.59-.66,3.54,1.4C349.55,378.88,347.09,377.63,345.69,378Z" transform="translate(99 99)"/></svg>