<svg id="图层_1" data-name="图层 1" xmlns="http://www.w3.org/2000/svg" viewBox="0 0 518.93 517.85"><defs><style>.cls-1{fill:#e4f566;}.cls-2{fill:#ddf568;}.cls-3{fill:#e0f467;}.cls-4{fill:#9ae869;}.cls-5{fill:#9feb6a;}.cls-6{fill:#96e86a;}.cls-7{fill:#9de969;}.cls-8{fill:#d9f367;}.cls-9{fill:#97e86a;}.cls-10{fill:#93e86b;}.cls-11{fill:#d6f268;}.cls-12{fill:#93e76a;}.cls-13{fill:#a1eb6a;}.cls-14{fill:#92ea6c;}.cls-15{fill:#adec69;}.cls-16{fill:#92e86c;}.cls-17{fill:#e4f166;}.cls-18{fill:#e6ee5b;}.cls-19{fill:#e5f15b;}.cls-20{fill:#fefefe;}.cls-21{fill:#a2eb6b;}.cls-22{fill:#ccf168;}.cls-23{fill:#d1f268;}.cls-24{fill:#d3f268;}.cls-25{fill:#beef69;}.cls-26{fill:#baed69;}.cls-27{fill:#c8f168;}.cls-28{fill:#c1ef68;}.cls-29{fill:#aeed69;}.cls-30{fill:#b4ef69;}.cls-31{fill:#b0ed69;}.cls-32{fill:#c5ef68;}.cls-33{fill:#b7ed69;}.cls-34{fill:#b1ee69;}.cls-35{fill:#c3ef68;}.cls-36{fill:#c6f067;}.cls-37{fill:#cbf168;}.cls-38{fill:#bdef69;}.cls-39{fill:#d0f167;}.cls-40{fill:#baee69;}.cls-41{fill:#c9f169;}.cls-42{fill:#95e56a;}.cls-43{fill:#a7eb6a;}.cls-44{fill:#abec6a;}.cls-45{fill:#a5eb69;}.cls-46{fill:#a9eb69;}.cls-47{fill:#aceb69;}.cls-48{fill:#bbef69;}.cls-49{fill:#c8f068;}.cls-50{fill:#cbf068;}.cls-51{fill:#b7ee69;}.cls-52{fill:#a9ec69;}.cls-53{fill:#d1f267;}.cls-54{fill:#d4f268;}.cls-55{fill:#c0ef68;}.cls-56{fill:#d6f368;}.cls-57{fill:#c0ef69;}</style></defs><title>音量2</title><path class="cls-1" d="M-71.95-74c14.15-14.82,31.55-24.17,51-30,12.83-3.83,26.05-5,39.43-5q133.68.09,267.37,0c30.54,0,57.81,9.38,81.32,29.17a40.89,40.89,0,0,1,4.95,5.52c1.05,2.45-1,2.78-2.42,3.43-3.29,1.5-6.82,1.34-10.32,1.34q-75.72,0-151.43.05c-11.29,0-22.59-.24-33.88-.07-6,.09-11.93,0-17.86,1.5a32.7,32.7,0,0,1-14.4-.07,85.29,85.29,0,0,0-17.89-1.43q-90.7,0-181.41,0c-3.16,0-6.43-.44-9.41.77-3.69,1.5-4.8.16-4.61-3.38A18.79,18.79,0,0,0-71.95-74Z" transform="translate(109.02 108.94)"/><path class="cls-2" d="M-103.94-17c-.32-8.18,4.21-14.89,6.82-22.17.65-1.83,2-3.43,3-5.14,6.19,1,12.47.53,18.65.54q226.05.28,452.1.2c4.74,0,9.38-1.75,14.3-.05,2.12.74,3.33,3.46,6,2.63,3.71,6.94,6.88,14.07,8.22,21.9-.73,7.15-.73,7.15-7.7,6.8-3-.14-6-.1-9-.1H-90.76c-2.5,0-5,.06-7.5-.11C-101.19-12.68-103.44-13.72-103.94-17Z" transform="translate(109.02 108.94)"/><path class="cls-3" d="M396.92-41c-1.87,1,1.24,3.32-1.11,4.19-3.07-5.9-5.17-6.73-12.86-5.3a22.1,22.1,0,0,1-4,.08Q150.59-42-77.81-42c-4.21,0-8.35-1.94-12.68-.11a2.5,2.5,0,0,1-3.65-2.2,1,1,0,0,1,.2-.69c1.81-.67,4,1.57,5.31-.72.94-.2-.06-.93.28-.36-2.22,1-4.24,1.7-3.72-2.11a63.14,63.14,0,0,1,12.85-18c1.78-.11,2.2-1.35,2.33-2.82a15.92,15.92,0,0,1,4.94-5c.85,1.69,2.27,1.08,4.23.59l-3.16,4.26c2.77-2,5.81-1.9,8.92-1.9q96.26.06,192.5,0c7.48,0,14.78,3.55,22.21,1.9,10.86-2.4,21.81-1.4,32.71-2,5.11-.31,10.1.32,15.16.3,54-.22,108-.14,162-.13,3.54,0,6.94-.3,9.47-3.21l.92.4c.67.86,1.89,2,1.8,2.64-.33,2.64,1.67.44,2.12,1.2,6.46,6.49,12.23,13.48,16.12,21.87-.65,3.37-.71,3.39-4.23,1.56,1,3.16,4.54.66,6.28,2.53C395-42.55,396.66-42.19,396.92-41Z" transform="translate(109.02 108.94)"/><path class="cls-4" d="M-93.11,346.18A81.19,81.19,0,0,1-104,319.07c-.51-1.05-.45-2.4.9-2,4.49,1.49,8.94.21,13.38.21q240.31.1,480.64.06c2.49,0,5-.23,7.46.42,2.76.74,5.54,1.64,5.69,5.28a75.23,75.23,0,0,1-8.91,21.18c-.78-.12-2.21.14-2.17-.66.21-4.81-2.91-3.47-5.53-3.22-2.82.28-5.66.17-8.49.17q-52.24,0-104.48,0c-3.89,0-6.88.21-8.41,4.89-1.15,3.54-4.67,5.52-8.63,5.95a65.27,65.27,0,0,1-7,.19q-129,0-257.95.08c-7.6,0-13.88-1.28-16.94-9.24-.91-2.39-3.36-1.8-5.27-1.81-14.33-.06-28.66,0-43,0-6.13,0-12.27.13-18.6-.38C-91.49,342.44-88.84,345.5-93.11,346.18Z" transform="translate(109.02 108.94)"/><path class="cls-5" d="M409.07,294.15c.05,5.42,0,10.83-2,16l-.45-.2a4.15,4.15,0,0,1-2.32-3.64c0-3.63-1.73,1-2.48-.62-.63-1.35-1-2.8-1.6-4.13-.89-1.84-2.69-1.88-4.31-1.88-8.65,0-17.32-.65-25.95.45-5.48.69-11,.34-16.47.45-2.8.06-5.32.35-6.29,3.63-.66,2.2-2.5,3-4.63,3.2-2.33.23-4.66.16-7,.16q-199.65,0-399.29.1c-7.74,0-15.07-2.62-22.77-2.41-2.34.06-3.72-1.84-5.19-3.5-2.61-2.95-5.93-2.57-7.6.64-2.09,4-4.5,4-7.52.08a6.94,6.94,0,0,1-.09-1.7,6,6,0,0,1,1.61-3.56c1.41-1.1.3-2.83.87-3.92-.79,1,.79,3.09-1.29,3.87-1.45-.81-1.63-2.18-1.64-3.63-.13-2.91-.28-6.09,3-7.24a17.46,17.46,0,0,1,12.68.2,2.08,2.08,0,0,1,1,2.56,2.3,2.3,0,0,1-2.15,1.78c-1.81.24-3.63.23-5.45.63q247.29.82,494.56-.12c-48.07,1.49-96.16.51-144.24.63s-96.31,0-144.46,0q-88.49,0-177-.08c-2.81,0-7.69,1.67-7.66-2.83,0-3.69,4.74-2.64,7.5-2.64q110.72-.07,221.44,0a13.52,13.52,0,0,0,3-.22c4.68-1,9,1.57,13.64,1.47,5.11-.11,9.8-.84,14-3.91a8.49,8.49,0,0,1,5.5-1.93,102,102,0,0,0,11.46.52c53.22,0,106.45.2,159.67-.15,13.77-.09,27.56-1,41.36-.83,3,0,6.07-.28,8.39,2.23A25,25,0,0,1,409.07,294.15Z" transform="translate(109.02 108.94)"/><path class="cls-6" d="M387.19,357.09c-5.77,8.81-12.25,17-21.22,22.78a1.84,1.84,0,0,1-1.28-1.37,2,2,0,0,1,.51-1.16c1-1.52,4.41-1.79,2.44-4.81-32.31.13-64.59,0-96.87.06-3.31,0-5.83.67-6.54,4.52-.53,2.82-2.71,4-5.45,4.31-1.83.18-3.66.17-5.49.17q-131.61,0-263.22,0c-1.84,0-3.67,0-5.49-.14-2.94-.24-5.26-1.5-5.85-4.52-.71-3.61-3.08-4.32-6.2-4.32-8.49,0-17-.1-25.47,0a129.24,129.24,0,0,1-17.92-1.17,13.52,13.52,0,0,1-4.9-1.52c-.43-.6-.86-1.21-1.28-1.82-3-4.25-.07-9-1.16-13.52-.25-1,1.53-1.55,2.62-2a22.09,22.09,0,0,1,7.86-1.2q20,0,40,0a21.24,21.24,0,0,1,4,.25c2,.39,4.19,1,4,3.56-.14,2.3-2.06,3.27-4.17,3.61a26.93,26.93,0,0,1-4.49.13c-12.67,0-25.33,0-38-.14,44,.6,88.07,1.94,132.12,1.68,61.49-.37,123,1,184.46-.48,39-.91,77.91-.19,109.72-1.05-24.79,0-56.72,0-88.64,0-2.14,0-4.37.38-6.36-.77-1.35-.77-2.48-1.79-2.23-3.55.22-1.5,1.37-2.21,2.69-2.65a17,17,0,0,1,5.45-.56q48.74,0,97.48,0c7.28,0,8.74,1.27,9.11,7.23,2.88-1.61,1.15-7.45,6.24-6.95C386.85,352.05,386.39,355.05,387.19,357.09Z" transform="translate(109.02 108.94)"/><path class="cls-7" d="M-106,300a5.5,5.5,0,0,0,1.26,4.14c1.53-.7-.07-2.59,1.38-3.2,1.41,1,1,2.72,1.89,4.19,1.17-2.13-.53-4.87,1.59-6.41,1.9-1.37,4.2-.57,6.32-.69,1.89-.1,3.32.65,3.51,2.71.26,3,2.25,3,4.58,3.31,32.27,3.73,64.66,1.77,97,1.85,109.26.26,218.53.1,327.79.09,3.34,0,7.28,1.06,6.95-4.74-.12-2,2.07-2.29,3.81-2.24,15.47.39,30.87-1.69,46.35-1,5.92.25,6.47.72,5.7,6.73,2-.89,1.36-3.08,2.61-5.14.23,4,.62,7.49,2.36,10.58a38.54,38.54,0,0,1-3,12.94c-2.21-3.1-5.21-4.13-9-4.13Q150.48,319-94.07,319c-1.65,0-3.38-.34-4.9.55-1.74,1-2.84.91-3.93-1.09-.93-1.71-.89.09-1.13.6a17.92,17.92,0,0,1-2-8.91c-.83-2.23.07-4.73-1.23-7C-107.67,302.5-108.63,300.14-106,300Z" transform="translate(109.02 108.94)"/><path class="cls-8" d="M-103.94-17c1.71,3.27,4.71,3,7.76,3q191.69,0,383.36,0h106a10.89,10.89,0,0,1,2.49,0c4.7,1.1,8.42.49,9.5-5.1a70.48,70.48,0,0,1,4,24.93c.18,1.69-1.66,1.68-2.37,2.76-2.48,3.82-3.07,3.81-5.65-.14-1.13-1.72-2.47-2-4.19-2-20.83.13-41.68-.6-62.48.21C288,8.51,241.49,7,195,7.46a10.2,10.2,0,0,1-2-.24A4.92,4.92,0,0,1,189.5,4.1a29.57,29.57,0,0,0-6.41-9.32c-1.16-1.1-2.47-2.47-.57-4.13,13.66-.3,27.31-.12,41-.12q84.41,0,168.8,0c1.7,0,3.43-.33,4.19,0H391q-95.64,0-191.29,0c-7.46,0-15-.51-22.36,1-5.52.19-11,.16-16.55,0-7.41-1.5-14.91-1-22.38-1q-114.46,0-228.92,0c-1.9,0-3.79,0-4.51,0-1.84.27-1,1.16-1.32.6-.11-.17.06-.19.37-.34a6.45,6.45,0,0,1,2.92-.21q123.47,0,246.91,0c.5,0,1,0,1.49.08,1.1.55,1.46,1.79.67,2.36-4.11,3-7.58,7.16-13.29,7.17a42.75,42.75,0,0,0-8.45-.52Q22.43-.4-89.4-.36c-3.56,0-7.46-.78-10.1,2.76-1.31,1.14-2.33,4.81-4.3.53,0-2.84,2.33-5.35,1.18-8.27A6.36,6.36,0,0,1-102.76-2a1.59,1.59,0,0,1-1.39.19,5.23,5.23,0,0,1-1.8-3.28c.35-2-1-4-.1-6l.22-1.84c1-.84,1.15-2.18,1.75-3.25A1.56,1.56,0,0,1-103.94-17Z" transform="translate(109.02 108.94)"/><path class="cls-9" d="M387.19,357.09c-.62-.54-1.49-.95-1.79-1.63-.61-1.36-.23-3.31-3-2.56-3.82,1,.87,1.7,0,2.61-.55.59-.73,1.85-1.3,2-3.75,1.09-2.32,3.49-1.15,6.1-3.46-.32-2.92-2.64-3.09-4.36-.47-4.81-2.72-6.44-7.81-6.4-33.16.26-66.32.11-99.49.18-2.11,0-5.79-1.22-5.92,1.73-.15,3.2,3.52,3.21,6.17,3.21q49.5,0,99,0h5.95c-2,2.74-4.16,2-6,2-33.16.05-66.43-1.64-99.46.44-46.77,2.94-93.48.85-140.21,1.47S35.48,363-11.31,361.55q-30.07-.9-60.2-1.59a12.18,12.18,0,0,1-2.23-.53c1.55-2.11,3.49-1.39,5.08-1.4,13.33-.06,26.66,0,40,0a23.88,23.88,0,0,0,3.49-.05c2-.28,4.65-.62,4.62-2.88-.05-2.85-2.93-2-4.76-2-14.83-.06-29.67.07-44.49-.12-2.78,0-4.92,1.64-8.14,1.76,4.87,4.39-.93,9,.9,13.45-5.89-4.53-9.5-10.83-13.27-17,.46-1.3-.48-1.73-1.36-2.19a3.17,3.17,0,0,1-1.44-2.73c4.19-4.06-2.49-5-2.26-8,23.22,1.77,46.48.41,69.73.86,1.51,0,3.46-.58,3.42,2.26-.06,4.18,4.19,8.48,8.35,8.71.83.05,1.66,0,2.49,0q132.9,0,265.78.07c4.14,0,7.45-.89,10-4.22.72-1,1.81-1.7,1.32-3-1.9-4.94,1.82-3.85,4.2-3.85q56.21-.06,112.4,0c4.5,0,8.81-1.12,12.95-1.36,2.39,2.48-4.82,4.06-.18,6.55-.44.89-.89,1.79-1.33,2.69a8,8,0,0,0-4.16,3.38c-1,1.74-.78,3.86-1.79,5.59Z" transform="translate(109.02 108.94)"/><path class="cls-10" d="M-73,370c16.09,1.53,32.23.94,48.36.95,3.45,0,4.95,1.3,4.65,4.72s1.34,4.57,4.48,4.34c1-.07,2,0,3,0q134,0,267.92.05c4.57,0,8.31.22,7.79-6.28-.27-3.34,3.11-2.75,5.34-2.75,22.66,0,45.32.12,68-.08,10.12-.09,20.27.9,30.39-.63,1.9-.29,3.9.91,3.09,3.69a10.69,10.69,0,0,0-5,4,30.08,30.08,0,0,1-2.08,3.15,2.32,2.32,0,0,1-2.7,1.35c-2.1-1.28-3.51-.68-4.31,1.57a3.19,3.19,0,0,0,.53,1.49,2.93,2.93,0,0,1,.62,1.46l-1.95,1.22c-4.14-2.56-8.72-2.71-13.43-2.69q-34.46.12-68.92,0c-4.16,0-8-.1-9,5.4-.42,2.32-2.86,3-5.1,3.38a47.82,47.82,0,0,1-7,.24H-8.51a52.48,52.48,0,0,1-7-.23c-2.87-.37-5.19-1.6-5.82-4.62-.68-3.32-2.84-4.1-5.81-4.13-5.66-.06-11.32.12-17-.13-1.69-.07-3.34,0-3.79,2.24-.33,1.7-1.8,2.26-3.3,2.66C-59,385.29-66.81,380.16-73,373A6.17,6.17,0,0,1-73,370Z" transform="translate(109.02 108.94)"/><path class="cls-11" d="M-103,2c.14.73-.39,1.73.52,2.08.31.12,1-.69,1.48-1.08,4.89.36,9.74-.09,13.3,5,1.9,2.7,6,2,8.54-.31C-76.16,5-72.78,4.4-69,4.4l195.15,0c2.32,0,4.68-.11,6.82,1.06,1.55,1.07,1.79,2.54.39,3.68-7.24,5.94-14.55,11.8-22.82,16.3a3.34,3.34,0,0,1-2,0c-58.13.15-116.25,0-174.37.06-4.65,0-9.09-.23-13,3.53-2.71,2.61-8.47,2-11-1-3.81-4.55-8.6-3.49-13.33-3.36-2.29.06-3.11,1.57-3.24,3.64-.2,3.17.06,6.33-.19,9.49.16,5.71.17,11.41,0,17.11.16,8.88.21,17.77,0,26.65.09,4.62.15,9.24,0,13.87a34,34,0,0,1,0,3.64c0,3.9.13,7.81,0,11.71.1,2.12.07,4.25,0,6.37.16,5,.14,9.89,0,14.84.16,6.59.18,13.18,0,19.76.12,5.29.17,10.58,0,15.86.08,2.76.12,5.51,0,8.27.1,3.93.12,7.87,0,11.81.07,2.39.1,4.79,0,7.19.09,3.25.11,6.5,0,9.75,0,2.89.1,5.79-.09,8.69-.26,1.37,0,3-2,3.42-.08-6.32-.24-12.64-.24-19q0-92.11,0-184.23c0-2.6-.66-5.33.75-7.82,1.64-.26.9-3.21,2.9-2.76,1.31.3.25,2.17,1.21,2.92a.9.9,0,0,1,.22.78c.32,0,.3-.13,0-.49a3.07,3.07,0,0,1-.73-1.58c0-2.25-1.74-4.62.5-6.7h1A4,4,0,0,1-103,2Z" transform="translate(109.02 108.94)"/><path class="cls-11" d="M191.88,6c42.92,0,85.85.61,128.75-.26,26.34-.54,52.67-.35,79-.94,2.92-.06,3.78.41,2.88,3.15-.44,1.36-.11,2.47,1.31,2.63,1.71.19,1.45-1.12,1.52-2.37a27.92,27.92,0,0,1,1.09-4.69c2.13,0,1.13,1.8,1.82,2.52a.56.56,0,0,0,.46.09c.14,0,.26-.19.39-.3,1.08,1.29.77,2.85.77,4.31q0,102.59,0,205.17c0,.82-.15,1.65-.22,2.48-2.94-1.42-1.78-4.15-2.09-6.41-.17-7.42-.22-14.84,0-22.26-.08-4.32-.18-8.65,0-13-.11-2.78-.1-5.56,0-8.33-.16-5.3-.15-10.6,0-15.9q-.24-9.93,0-19.87c-.15-5.68-.16-11.36,0-17-.15-6.3-.17-12.61,0-18.92q-.21-6.62,0-13.24c-.18-9.24-.2-18.48,0-27.71-.16-4.47-.15-8.94,0-13.41-.32-3.82-.1-7.66-.17-11.49-.05-3.07-1.4-4.61-4.53-4.59-11.49.05-23-.52-34.46.34-3.65.28-7.29.6-11,.6q-77.7,0-155.4,0c-3,0-6,.47-8.82-1.06C190.49,19.18,190.76,12.64,191.88,6Z" transform="translate(109.02 108.94)"/><path class="cls-12" d="M-51.19,390.37c.13-1.34,5.06-2.21.28-4.15-1.42-.58-.74-2.14.9-2.15,9.16,0,18.32-.08,27.48.09,2.43,0,2.65,2.22,2.51,4.13-.29,3.64,1.82,4.65,4.89,4.7,1.17,0,2.34,0,3.5,0q133.22,0,266.41,0c4.49,0,8.93.57,8.43-6.39-.22-3,2.85-2.61,5-2.62q17.25,0,34.49,0c14.83,0,29.66.14,44.48-.1,3.79-.06,6.44.82,8,4.34A86.15,86.15,0,0,1,327,402c-2.16-1.63-4.14.92-6.28.25-2.75-.86-5.6-.67-8.42-.67q-147.3,0-294.58,0c-5,0-10,0-15-.11-1.76-.07-3.53-.07-5.29-.06-4.86-.41-9.71.87-14.56,0a3.57,3.57,0,0,1-1.82-.53C-21,399-20.68,400.85-20.8,402c-3,.27-5.47-2.19-8.52-1.59a20,20,0,0,0-4.06-1.31c-1,0-2,.14-2.69-.85a10.18,10.18,0,0,0-6.23-3.17.89.89,0,0,1-.75-.3,13.66,13.66,0,0,0-7-3.8Z" transform="translate(109.02 108.94)"/><path class="cls-13" d="M-106,300c-2.52,3.37,1.89,6.78-.06,10.16-2.09-5.14-2-10.56-2-16a38.56,38.56,0,0,1,0-12.41c7.37-1.47,14.81-4.11,21.09,3,2,2.31,5,2.05,7.16,0a12.09,12.09,0,0,1,9.06-3.34c72.41,0,144.82-.1,217.23.06,4.21,0,7.6,1.43,9.55,5.41-1.75,2-4.07,1.08-6.12,1.08q-110.49.07-221,.09c-1.79,0-5.11-1-5.12,1.12,0,2.88,3.36,1.78,5.29,1.78q218,.07,436-.16c10.92,0,21.91-.64,32.87-.76,1.66,0,3.63-.68,5.54,2-3,0-5.28,0-7.57,0-159.45,2.21-318.91.4-478.36,1.1-6.21,0-12.38-3-18.62-.19-1,.45-.88-.63-.9-1.19-.06-1.28,0-2.21,1.9-1.94a45.14,45.14,0,0,0,6.48.19c1,0,2.18-.05,2.26-1.38s-1-1.54-2.06-1.55c-3.16,0-6.33-.05-9.49,0a2.83,2.83,0,0,0-3.09,3.15,9,9,0,0,1-1,4.81c.38,1.66,2,3.07,1,5Z" transform="translate(109.02 108.94)"/><path class="cls-14" d="M-29,400c3.4-2.27,5.51.62,8,2,.53-1.37,2-1.32,3-2H-3a5.39,5.39,0,0,0,5,0q156,0,312,0c4.89,0,10.17,2.52,14.55-1.86.32-.32,1.27-.19,1.67.64-.86,1.87-3.39,1-4.42,2.61,0,.07.07.36.17.4a8,8,0,0,0,1,.25,51.92,51.92,0,0,1-17,4.29c-.59-2.4,1.51-1.43,2.38-1.92-5.41.49-10.37,3.65-16,3a1.35,1.35,0,0,1-.65-1.21,7.94,7.94,0,0,1,4.4-2.69c-2.71.55-5.4-.18-8,0,1.22.44,2.93-.75,4.17,1.29-2.61,2.14-5.57,1.39-8.44,1.18-.57-.12-1.11-.27-1.67-.41a38.55,38.55,0,0,0-4-.13q-133.83,0-267.66,0c-1.17-.11-2.39.28-3.64-.07.82.3,2.08-.18,2.38,1.09-2.45,2.66-5.43,1.33-8.26,1.08-.75-.07-1.5-.06-2.25-.07a1.23,1.23,0,0,1-1-.81c-.1-.87,1-1.3.8-2.16-1.35-.58-2.72-.21-4.08-.23a13.55,13.55,0,0,0-2.52.5,8.21,8.21,0,0,1-4.61,0,.43.43,0,0,0-.18.28,1.57,1.57,0,0,0,.18.44.58.58,0,0,1-.45.75A56.93,56.93,0,0,1-29,401c-.34-.22-.46-.44-.35-.66S-29.12,400-29,400Z" transform="translate(109.02 108.94)"/><path class="cls-15" d="M-108,282l-.12,12.19a11.67,11.67,0,0,1-.71-2.82q0-37.26.13-74.53c.85-.8.58-1.86.68-2.84,5.2-3.95,14.19-3.59,18.73.76,3.28,3.14,6.9,3.73,10.15.86s7.12-3.2,11.16-3.19c38.78.08,77.56-.13,116.34.11a29,29,0,0,0,3.49-.1c5.43-.43,9.19,2.92,13.06,5.91,1.2.93,2,2.3.34,3.69-3,2-6.43,1.5-9.73,1.5q-60.73,0-121.49,0c-4.4,0-8.41.34-12.23,3.18a9.58,9.58,0,0,1-12.79-1.34c-3.93-4.08-8.56-2.84-13.08-2.31-2.38.28-2.28,2.59-2.35,4.39-.15,4.16,0,8.33-.13,12.49.11,5.65.14,11.29,0,16.93.13,4.69.15,9.38,0,14.07C-106.71,274.67-105.55,278.56-108,282Z" transform="translate(109.02 108.94)"/><path class="cls-15" d="M409,212c.31,1.93-.56,4,.69,5.82q.07,36.75.13,73.52a11.77,11.77,0,0,1-.73,2.81Q409,289.08,409,284c-2.64-4.4-1.15-9.22-1.42-13.87-.11-4.34-.15-8.68,0-13-.07-3.7-.15-7.4,0-11.1s-.18-7.43,0-11.14c-.16-3-.05-6-.13-9-.14-5.09-1-6.11-6.22-6.23-9.14-.21-18.34-.53-27.41.14-13.81,1-27.59.56-41.38.73-11.31.15-22.62.06-33.93,0-2.47,0-5,.31-7.25-1.21-.72-4.48,3.12-9.94,8.8-12.56,14.44-.72,28.9-.35,43.34-.28,17.93.09,35.82-1.15,53.74-1.15C402.64,205.34,406.89,206.43,409,212Z" transform="translate(109.02 108.94)"/><path class="cls-12" d="M296,407c3.7.06,6.94-1.39,10.29-2.76,1.62-.66,3.74-.11,5.77-.11L310,406.29a40.88,40.88,0,0,1-13.81,1.78c-1.59.76-3.28.4-4.92.4q-140.79,0-281.57,0c-1.64,0-3.33.35-4.92-.4l-.4.07L4,408q-.5-.33-.33-.66c.11-.23.22-.34.33-.34,3-.45,6.19,1,9-1,1.57-1.3,3.47-1,5.27-1q133.8,0,267.6,0a5.63,5.63,0,0,1,1.77.4C290.27,406.76,293.48,405,296,407Z" transform="translate(109.02 108.94)"/><path class="cls-16" d="M4.79,408.07q96,0,191.94-.07,49.74,0,99.47.07c-1.81,1.21-3.88.76-5.83.76q-139.87.06-279.75,0C8.68,408.83,6.61,409.27,4.79,408.07Z" transform="translate(109.02 108.94)"/><path class="cls-8" d="M-104-2V6h0c-.75,0-1.65-4.5-2.36.11-.15,1-1.23.4-1.76-.28.08-1.29.15-2.57.23-3.86,1-1.55.58-3.39,1-5.06.23-1,.17-2.41,1.93-1.91Z" transform="translate(109.02 108.94)"/><path class="cls-2" d="M395.09-44c-6.25.86-7.85-.46-7.55-6.24,3.33,4.59,3.33,4.59,5.5,2.15A5.75,5.75,0,0,1,395.09-44Z" transform="translate(109.02 108.94)"/><path class="cls-12" d="M355,385c-1.66-2.82,1.12-3.49,2.47-4.53s2.35-.11,2.53,1.53c.53.52,1.5.8,1,1.86-1.44.89-2.12,2.72-3.91,3.16L356,386c-.06-.42.59-.71.22-1.19C355.87,385.2,355.48,385.38,355,385Z" transform="translate(109.02 108.94)"/><path class="cls-2" d="M-92.07-48.17c2.12,2.58,2.12,2.58,5.59-1.59.54,2.83-.65,4.43-2.67,5.85s-3.3-.28-4.79-1.07Z" transform="translate(109.02 108.94)"/><path class="cls-11" d="M-105-5c-2.3,1.77,0,5.44-2.89,7A31.64,31.64,0,0,1-106-11.11C-105.7-9.08-104.64-7.16-105-5Z" transform="translate(109.02 108.94)"/><path class="cls-4" d="M389,350c.5-2.76,2-3.91,4.8-3.05a9.57,9.57,0,0,1-2.48,4.17C390.13,351.61,389.08,351.81,389,350Z" transform="translate(109.02 108.94)"/><path class="cls-1" d="M376.92-70l-4.19,3.38c1.7-2.38,1.07-4.8.27-7.22A8.92,8.92,0,0,1,376.92-70Z" transform="translate(109.02 108.94)"/><path class="cls-10" d="M-50,391c3.23-.39,5.93.19,7,3.8C-45.73,394.19-47.87,392.57-50,391Z" transform="translate(109.02 108.94)"/><path class="cls-6" d="M389,350c.51.91,1.42,1,2.32,1.12-.95,1.75-1.64,3.69-3.47,4.8C388.55,354,386.06,351.48,389,350Z" transform="translate(109.02 108.94)"/><path class="cls-10" d="M-42.3,395.11c3.23-1.2,5.08.28,6.23,3.17A16.16,16.16,0,0,1-42.3,395.11Z" transform="translate(109.02 108.94)"/><path class="cls-6" d="M361,383.86,360,382a1.82,1.82,0,0,0,2-2c1.35-.87,2.25-.43,2.83,1C364.15,382.73,362.61,383.37,361,383.86Z" transform="translate(109.02 108.94)"/><path class="cls-4" d="M-91.67,348.91c1.42-.76,2.74-.42,3.17,1,.27.92-1,1-1.81,1.15Z" transform="translate(109.02 108.94)"/><path class="cls-9" d="M-73,370a2.67,2.67,0,0,1,0,3,5.51,5.51,0,0,1-2.75-3.08C-74.82,369.18-73.91,369.5-73,370Z" transform="translate(109.02 108.94)"/><path class="cls-16" d="M4,407v1c-2.73,0-5.49.37-8.08-.91l.57-.62A4.7,4.7,0,0,1,2,407Z" transform="translate(109.02 108.94)"/><path class="cls-17" d="M-76.89-68.95c1.56,1.51-.33,2.68-.4,4l-1.93-1.21Z" transform="translate(109.02 108.94)"/><path class="cls-12" d="M364.83,381,362,380l3-2,1,1.88Z" transform="translate(109.02 108.94)"/><path class="cls-8" d="M-104.08-16.21c-.69,1,2.06,3.9-1.75,3.25A3.16,3.16,0,0,1-104.08-16.21Z" transform="translate(109.02 108.94)"/><path class="cls-10" d="M-29,400v1a8.38,8.38,0,0,1-4.38-1.86A6.2,6.2,0,0,1-29,400Z" transform="translate(109.02 108.94)"/><path class="cls-16" d="M-4.08,407.09c-1.74-.06-3.55.32-5.1-.86L-9,406c1.93-1,3.87-2.07,5,1Z" transform="translate(109.02 108.94)"/><path class="cls-18" d="M-63.65-78c-.26,1.81-1.07,2.46-2.2,2.63-.52.09-1-.58-.64-.89A18.48,18.48,0,0,1-63.65-78Z" transform="translate(109.02 108.94)"/><path class="cls-19" d="M364.48-77.55c1.74-.27,2.51.49,3.48,1.81A3.23,3.23,0,0,1,364.48-77.55Z" transform="translate(109.02 108.94)"/><path class="cls-20" d="M66.12,221A31,31,0,0,0,53,213.16C42.41,211.09,31.7,210.5,21,209.58a35.54,35.54,0,0,1-11.38-3.27A59.15,59.15,0,0,1-6.16,195.55c-1.74-2.27-3.81-4.25-5.61-6.46A51.53,51.53,0,0,1-18,176.63a64.81,64.81,0,0,1-2.29-8.57c-.38-5.08-.23-10.17-.17-15.25q-.24-9.8,0-19.6c-.1-4.87-.15-9.75,0-14.62,0-2-.08-4,.06-6A29,29,0,0,1-17.52,101a33.89,33.89,0,0,1,1.73-4.19A66.45,66.45,0,0,1-6.21,82.93c10.9-10,23.68-14.45,38.55-14.42A51.63,51.63,0,0,0,67.09,55.73C74.72,50.5,81.9,44.65,89.38,39.22c5.33-3.91,10.55-7.95,15.87-11.88,1.45-1.06,2.76-2.44,4.8-2.24,7.94-6.12,16.5-11.42,24.06-18C136.62,3.59,139.72.94,144-.16l12.1-7.74c1.16-2,3.46-1.13,5.05-2.06h15.78c1.59.93,3.89.1,5.05,2.06C187-4.46,189.55.68,191.88,6c1.74,6.24.8,12.65,1.28,19,2.61,5.14,1,10.62,1.31,15.94q.22,7.58,0,15.16c.18,9.25.2,18.5,0,27.75.15,6,.17,12,0,18,.14,5.35.15,10.7,0,16q.22,7.54,0,15.08c.15,6.62.17,13.23,0,19.84.12,5.31.16,10.61,0,15.92.11,2.79.12,5.59,0,8.39.17,5.63.16,11.27,0,16.91.17,7.93.19,15.85,0,23.78.13,6,.17,11.92,0,17.88.09,3.38.13,6.76,0,10.14.08,3.61.12,7.22,0,10.82-.1,4.61.53,9.27-.93,13.78-1.28,4.64-2.43,9.37-6.61,12.49-2.33-.13-3.19,2.09-4.83,3.09-6.48,4-13.37,3.5-20.36,2.22-1.91-.35-3.78-.92-5.67-1.39l-8-5c-4.78-.59-7.52-4.54-11.23-6.87a47.63,47.63,0,0,1-4.39-3.23c-6.65-5-13.34-10-20-15-7.64-5.7-15.21-11.5-22.92-17.12-6.27-4.82-12.63-9.51-18.93-14.29C68.91,224.13,66.79,223.25,66.12,221Z" transform="translate(109.02 108.94)"/><path class="cls-21" d="M186.89,283c1.76-4,4.4-7.58,5.28-12,2.71-2.31,6-1.6,9.1-1.6,52.07,0,104.14.1,156.2-.12,14.62-.06,29.23-1.33,43.87-.9,2.63.08,5.38-.36,7.61,1.62q0,7,0,14a23.94,23.94,0,0,0-7.86-1c-68.61,1.64-137.24.84-205.86,1A27,27,0,0,1,186.89,283Z" transform="translate(109.02 108.94)"/><path class="cls-13" d="M-79.69,296.93c-2.54,1.38-5.08,1.38-9,.1C-84.86,295.63-82.29,295.84-79.69,296.93Z" transform="translate(109.02 108.94)"/><path class="cls-13" d="M-105,297v-7.14l1.39.1a10.52,10.52,0,0,1-1.39,7Z" transform="translate(109.02 108.94)"/><path class="cls-7" d="M-106,300c-.33-1.67-.66-3.33-1-5l2,2h0C-105,298.1-104.82,299.28-106,300Z" transform="translate(109.02 108.94)"/><path class="cls-12" d="M365,378c-.29-3.77,2.12-4.19,5-4C368.75,375.86,367.54,377.76,365,378Z" transform="translate(109.02 108.94)"/><path class="cls-8" d="M144-.16,134.1,7.05C132.31,6,130.32,6,128.31,6Q28.68,6-70.95,6c-3.14,0-5.57.26-7.35,3.66S-88.88,11.18-90,7.46C-90.88,4.81-92.84,5.1-94.83,5-97,4.85-99.64,5.8-101,3c-.57-3,1.12-4.3,3.73-4.71a32.86,32.86,0,0,1,5-.28q115,0,230,0C139.88-2,142.46-2.82,144-.16Z" transform="translate(109.02 108.94)"/><path class="cls-2" d="M161.11-10c-1.46,1.24-3.3,1.53-5.05,2.06C154.29-9.83,152-9,149.92-9Q28.72-9-92.47-9h-5.4l0-1Z" transform="translate(109.02 108.94)"/><path class="cls-2" d="M181.94-7.9c-1.75-.53-3.59-.82-5.05-2.06h221.8l.08,1H394Q291-9,188.08-9C186-9,183.71-9.83,181.94-7.9Z" transform="translate(109.02 108.94)"/><path class="cls-8" d="M-103,2V-2c.91-2.47-2-4.9.32-8.44C-102-5.6-100.58-1.81-103,2Z" transform="translate(109.02 108.94)"/><path class="cls-4" d="M-86.06,346.44c2.79,1.36,2,3.57,1.83,6C-87.46,351-84.18,347.94-86.06,346.44Z" transform="translate(109.02 108.94)"/><path class="cls-6" d="M385.5,350.33a3.6,3.6,0,0,1-.34-1.24c.07-.67.4-1.34,1.19-1.33.17,0,.51.76.48,1.15A1.44,1.44,0,0,1,385.5,350.33Z" transform="translate(109.02 108.94)"/><path class="cls-12" d="M362.08,373.2c.34.57.71.91.73,1.28,0,.68-.36,1.24-1.11,1-.27-.08-.5-.77-.47-1.16S361.69,373.69,362.08,373.2Z" transform="translate(109.02 108.94)"/><path class="cls-6" d="M355,385c1-.43,1.21-2.13,3.27-1.76-.83,1-1.55,1.89-2.27,2.76Z" transform="translate(109.02 108.94)"/><path class="cls-22" d="M68.11,56c-7.35,7.76-16.87,10.88-27,13-6.24,1.34-12.53.41-18.74,1.24-11,1.47-20,6.82-28.33,13.78-4.12.75-8.28.39-12.42.4q-25.41.06-50.83,0c-3.23,0-6,.49-8.67,2.81a8.34,8.34,0,0,1-12-.8c-2.12-2.5-4.5-3-7.43-3-3.57-.12-7.36,1-10.62-1.47V55c5.36-2.83,11-1.61,16.52-.93,1.21.15,1.85,1.28,2.56,2.22,2.67,3.52,6.15,4.28,9.19,1.41,2.82-2.68,6-3.3,9.55-3.3q65.85,0,131.69,0C63.83,54.43,66.26,54.15,68.11,56Z" transform="translate(109.02 108.94)"/><path class="cls-23" d="M68.11,56Q-2.11,56-72.34,56c-2.76,0-4.56.24-6.11,3.5s-6,1-9.12,1.43c-2,.27-2.49-1.28-2.42-2.94.11-2.53-1.34-3-3.49-3-4.83.07-9.66,0-14.49,0V38c6.87-2.52,13.59-3.15,19.62,2,2.8,2.41,5.62,2.92,8.53.53s6.48-3.15,10.26-3.15q76.49,0,153,.07c2.4,0,5.49-.91,6.65,2.61C82.73,45.39,76,51.55,68.11,56Z" transform="translate(109.02 108.94)"/><path class="cls-24" d="M90.06,40.09C88.64,38.37,86.67,39,84.93,39Q6.86,39-71.21,39c-3.15,0-5.58.62-7.81,3.26-2.39,2.83-6.71,3.19-8.75.49-3.51-4.65-7.76-5-12.72-4.75-2.49.16-5,0-7.48,0,0-3.83.07-7.66-.06-11.49-.08-2.54.86-3.64,3.48-3.54,3.49.14,7,0,10.49,0a3.94,3.94,0,0,1,4,2.19c2.92,5.26,8.9,5.51,12.23.54,1.58-2.35,3.8-1.7,5.85-1.7Q-14,24,44,24q30.23,0,60.46,0c1.89,0,4-.78,5.63,1.06Z" transform="translate(109.02 108.94)"/><path class="cls-25" d="M-19.16,133v20c-2.07,1.9-4.66,1.49-7.1,1.5q-21.15.08-42.3,0c-2.9,0-5.23.44-7.45,2.88-3.53,3.88-13,2.9-15.84-1.47-1.48-2.26-3.35-2.27-5.52-2.42-3.56-.25-7.35.95-10.6-1.5V132c7.35-1.74,14.64-4.25,20.92,3,2.19,2.52,5.59,2.13,7.82-.65,1.78-2.23,4-2.8,6.57-2.82q24.19-.12,48.38,0C-22.46,131.51-20.59,131.57-19.16,133Z" transform="translate(109.02 108.94)"/><path class="cls-26" d="M-108,152c4.82,0,9.64-.05,14.45,0,1.26,0,3.53-.71,2.93,1.94-.9,4,1.69,4,4.33,4,2.32,0,4.65,0,7,0,1.23,0,2.94-.45,2.77-1.53-.74-4.92,2.8-3.4,5-3.41,17.44-.07,34.89,0,52.34,0v16c-2.05,2-4.66,1.52-7.1,1.53-14.13.06-28.27,0-42.41,0-3.32,0-6.33.06-8.94,3.13s-10.07,2.53-12.49-.9c-1.93-2.75-4.28-3.21-7.25-3.3-3.57-.1-7.37,1-10.62-1.5Z" transform="translate(109.02 108.94)"/><path class="cls-27" d="M-108,82c3.83,0,7.65,0,11.48,0,3.13,0,6.36-1,7.53,4,.72,3.07,9,2.78,10.74-.38C-77,83.44-75.6,83-73.46,83q31.93,0,63.88,0c1.31,0,2.71-.22,3.63,1.09L-14.89,97C-17,98.77-19.57,98.5-22,98.51c-16.09,0-32.19,0-48.28,0-2.92,0-5.63-.13-7.64,3.21-1.81,3-9.81,2.37-11.38-.75s-4.18-3.27-7-3.5c-3.88-.33-8,1.06-11.6-1.51Z" transform="translate(109.02 108.94)"/><path class="cls-28" d="M-19.16,133c-18,0-36,0-54,0-2.45,0-4.13,0-4.95,3.13-1,3.71-4.53,1.41-6.9,1.83-1.73.3-3.76.44-4.06-2.33-.35-3.25-2.59-3.74-5.41-3.64-4.5.15-9,0-13.5,0V117a19,19,0,0,1,20.38,2.74,5.74,5.74,0,0,0,8.47-.22c2.49-2.47,5.34-3.07,8.59-3.06,15.09,0,30.18,0,45.27,0,2.13,0,4.36-.16,6.1,1.52Z" transform="translate(109.02 108.94)"/><path class="cls-29" d="M9.11,205c8.37,3.09,17,4.15,25.92,4.2a39,39,0,0,1,17.92,4c-1.74,1.49-3.83.81-5.75.81q-58.85.06-117.69,0c-3.22,0-6.11-.15-7.8,3.7-1.09,2.49-10.5,2-11.39-.62-1.36-4-4.14-4.19-7.48-4.08-3.63.11-7.3-.28-10.82,1v-9c5.79-3.93,14.61-3.6,19.28,1,3,3,6.31,3.2,9.39.87,3.73-2.82,7.79-3.47,12.2-3.46q33.47,0,66.93,0A28.15,28.15,0,0,1,9.11,205Z" transform="translate(109.02 108.94)"/><path class="cls-30" d="M-16.89,177l6,12c-2.2,2.1-5,1.56-7.58,1.57-16.62.06-33.25,0-49.87,0-3.5,0-6.61.18-9.43,3.23-3.18,3.45-10.95,2.25-13.55-1.73-1.61-2.46-3.75-2.32-6-2.5-3.57-.29-7.37.9-10.62-1.57V176c5.35-2.8,11-1.54,16.49-.93,1.2.13,1.84,1.25,2.55,2.22,2.62,3.59,6.82,4.43,10.09,1.45,3-2.74,6.3-3.32,10-3.31,14.93,0,29.85,0,44.77,0C-21.56,175.46-19,175.23-16.89,177Z" transform="translate(109.02 108.94)"/><path class="cls-31" d="M9.11,205Q-30,205-69.12,205c-3.61,0-7.18-.12-9.34,4-1.09,2.09-9.92,1.43-10.72-.75-1.48-4.05-4.6-4.12-8-4.29A44.18,44.18,0,0,0-108,205V195c6.66-2.46,13.35-2.91,19.51,1.07,3.38,2.19,6.28,2.71,9.6.33a11.16,11.16,0,0,1,6.62-1.9c21.31-.14,42.63.1,63.94-.12A5.58,5.58,0,0,1-5.9,195C-.74,198.06,3.59,202.4,9.11,205Z" transform="translate(109.02 108.94)"/><path class="cls-32" d="M-16.16,101a32.44,32.44,0,0,0-3,11c-2.07,1.9-4.66,1.5-7.1,1.51q-20.92.08-41.83,0c-3.59,0-6.72.6-9.72,2.93-4,3.11-9.1,2.86-12.18-.62-2.4-2.71-5.09-3.29-8.37-3.34S-105,113.3-108,111V99c4.77-1.21,9.58-.44,14.37-.29a5.15,5.15,0,0,1,4.08,2.48,7.42,7.42,0,0,0,11.18,1.29c2.6-2.44,5.38-3,8.61-3,15.82,0,31.63,0,47.44,0C-20.15,99.51-17.91,99.32-16.16,101Z" transform="translate(109.02 108.94)"/><path class="cls-33" d="M-16.89,177q-27.15,0-54.29,0c-2.71,0-4.61.2-6.35,3.25-2.09,3.68-6.66,1.33-10.13,1.66-2.44.24-2.31-1.84-2.36-3.49C-90.1,176-91.81,176-93.53,176H-108c0-2.67,0-5.33,0-8,4,0,8,.11,11.94,0,3.32-.13,6.06-.12,7.1,4.11.64,2.58,10,3,10.59.51,1-4.05,3.66-3.59,6.46-3.59h52.73C-17.74,171.47-17.43,174.25-16.89,177Z" transform="translate(109.02 108.94)"/><path class="cls-34" d="M-5.9,195C-7.85,196.17-10,196-12.19,196c-19.79,0-39.58,0-59.37,0-2.92,0-5.41.25-7.66,2.58s-6.1,2.54-8.1.28c-3.52-4-7.65-4-12.18-3.85-2.82.11-5.65,0-8.48,0v-7c3.83,0,7.67,0,11.5,0,3.13.05,7-1.13,6.73,4.45-.09,1.73,1.92,1.69,3.16,1.49,2.8-.46,6.94,1.82,8.16-1.41C-77,188.7-74.65,189-71.85,189l61,0C-8.91,190.7-6.43,192-5.9,195Z" transform="translate(109.02 108.94)"/><path class="cls-35" d="M-108,111c3.65,0,7.3.06,11,0,3.35-.06,6.24-.24,7.88,4,1.24,3.18,8.44,3.18,10.9,0,2.06-2.65,4.39-3,7.34-3,17.25.06,34.49,0,51.74,0v6q-26.48,0-52.93,0c-2.35,0-4.09.07-5.6,2.75-2.34,4.17-10.44,3.17-12.15-1.36-.79-2.1-1.87-2.4-3.65-2.39-4.83,0-9.65,0-14.48,0Z" transform="translate(109.02 108.94)"/><path class="cls-36" d="M-16.16,101c-18.16,0-36.31,0-54.47,0-3.1,0-5.64.19-7.69,3.28-2.25,3.39-9.84,2.57-11.38-1.23-1.2-2.93-3.06-2.92-5.46-3.06-4.27-.26-8.67,1-12.81-.95V96c4.83,0,9.67.11,14.49,0,2.15-.07,3.94.7,4.36,2.54,1.34,5.87,5.85,2.78,9,3.47.66.14,1.4-.15,1.39-1-.07-4.86,3.47-4,6.35-4q28.74,0,57.48,0C-15.31,98.36-15.74,99.68-16.16,101Z" transform="translate(109.02 108.94)"/><path class="cls-8" d="M-104,6c2.07.29,2.33,1.59,1.6,3.19a1.39,1.39,0,0,1-2.13.43c-2.22-1.5.39-2.4.53-3.62Z" transform="translate(109.02 108.94)"/><path class="cls-24" d="M193.16,41V25c55.38,0,110.77.31,166.14-.2,14.92-.14,29.85-.58,44.78-.89,4.06-.08,5.25,1.26,5,5.13-.3,4.3-.09,8.64-.1,13-1.92,1.73-4.31,1.55-6.63,1.59-42.59.76-85.18,1.35-127.77,1-3.06.77-5.47-.78-7.64-2.51-4.12-3.29-8.18-4.76-12.68-.72a5.41,5.41,0,0,1-2.78,1c-17.74.53-35.48.17-53.22.19C196.42,42.55,194.57,42.44,193.16,41Z" transform="translate(109.02 108.94)"/><path class="cls-37" d="M409,55V83c-1.6,1.48-3.62,1.58-5.61,1.57-30.05-.15-60.06,1.77-90.11,1a23.75,23.75,0,0,1-4.46-.34,6,6,0,0,1-4.21-3.2c-4.49-7.79-10.11-14.74-15.76-21.68-1.13-1.4-4.17-3.48-.26-5.47a28.75,28.75,0,0,1,7.46-.48c20.48,0,41,.37,61.43-.14,14.63-.36,29.25-.9,43.89-.85C404,53.44,406.72,53.05,409,55Z" transform="translate(109.02 108.94)"/><path class="cls-31" d="M409,212c-.49-.11-1.31-.08-1.41-.34-2.32-6-7.49-4.76-12.08-4.64q-48.28,1.3-96.6.95c-.64-3,1.65-4.84,3-7,1.87-3.1,3.37-6.4,5.22-9.51,1-1.74,2.08-3.38,4.31-3.71,12.49-.66,25-.21,37.46-.29,17.14-.1,34.24-1.39,51.39-1,3.13.07,6.42-.31,8.75,2.56Z" transform="translate(109.02 108.94)"/><path class="cls-38" d="M409,132v20c-1.76,1.61-4,1.59-6.13,1.56-24.95-.37-49.87,1.68-74.83,1-2.79-.07-5.7.45-8.23-1.32a34.47,34.47,0,0,1-.13-20.36c2-1.64,4.35-1.43,6.65-1.46q9.19-.09,18.41,0c18.89.16,37.76-1.55,56.66-1C404,130.5,406.73,130.05,409,132Z" transform="translate(109.02 108.94)"/><path class="cls-32" d="M409,96v19c-1.6,1.48-3.61,1.6-5.6,1.57-26.18-.42-52.33,1.77-78.52,1a24,24,0,0,1-4.94-.39,3.48,3.48,0,0,1-2.64-2.09,130.48,130.48,0,0,1-4.65-16.82,1.85,1.85,0,0,1,1.07-2.06c2.54-1.1,5.24-.8,7.88-.81,14.14-.08,28.32.7,42.4-.27,12.65-.87,25.26-.28,37.88-.71C404.31,94.36,406.89,94.16,409,96Z" transform="translate(109.02 108.94)"/><path class="cls-39" d="M409,55c-40.7.27-81.38,1.53-122.08,1A25.51,25.51,0,0,1,273,44.11c1.39-1.76,3.37-1.07,5.1-1.08,10.13-.06,20.27-.2,30.39,0,33.52.68,67-1.34,100.51-1Z" transform="translate(109.02 108.94)"/><path class="cls-28" d="M318.88,116c30,.69,60.05-1.55,90.09-1v17c-29.61-.45-59.19,1.69-88.81,1C317.8,127.49,317.07,121.86,318.88,116Z" transform="translate(109.02 108.94)"/><path class="cls-40" d="M320.16,153c29.62.69,59.2-1.45,88.81-1q0,8,0,16c-1.62,1.48-3.64,1.57-5.64,1.55-26.63-.23-53.23,1.68-79.87,1-2,0-4,.06-5.88-.83C315.23,163.67,317.46,158.3,320.16,153Z" transform="translate(109.02 108.94)"/><path class="cls-41" d="M409,96c-31.94-.32-63.86,1.72-95.81,1a18.66,18.66,0,0,1-6-13c33.95.76,67.87-1.28,101.81-1Z" transform="translate(109.02 108.94)"/><path class="cls-30" d="M409,189a25.94,25.94,0,0,0-7.85-1c-9.8.08-19.66-.63-29.39.17-20.63,1.69-41.24.35-61.86.83.08-5.29,1.25-10.07,6.09-13.17,10.81-.83,21.64-.3,32.46-.35,17.64-.1,35.25-1.58,52.91-1,2.63.08,5.38-.38,7.63,1.57Q409,182.5,409,189Z" transform="translate(109.02 108.94)"/><path class="cls-33" d="M409,176c-31.37-.37-62.71,1.75-94.09,1-1.47-3.3-.26-5.82,2.28-8,30.62.71,61.2-1.39,91.82-1C409,170.67,409,173.33,409,176Z" transform="translate(109.02 108.94)"/><path class="cls-10" d="M-34.93,395.23l5.29,1.71C-32.64,398.55-33.86,396.89-34.93,395.23Z" transform="translate(109.02 108.94)"/><path class="cls-16" d="M-18,400l-3,2c-.41-1.15-.81-2.3-1.33-3.77Z" transform="translate(109.02 108.94)"/><path class="cls-16" d="M2,400a3.37,3.37,0,0,1-5,0Z" transform="translate(109.02 108.94)"/><path class="cls-10" d="M-44.24,387.61a4.92,4.92,0,0,1-1.44,1c-.59.16-.81-.42-.45-.84a8.84,8.84,0,0,1,1.47-1.16Z" transform="translate(109.02 108.94)"/><path class="cls-21" d="M133.11,271l14.94,10.94c-1.76,1.94-4.08,1.06-6.13,1.06Q36,283-69.85,283c-3.46,0-7.06-1.06-9,3.84-1.18,2.92-9.06,1.24-10-2.06-.77-2.59-2.42-2.81-4.53-2.8-4.83,0-9.66,0-14.49,0,0-3.67,0-7.33,0-11a16.53,16.53,0,0,1,19.8,1.33c2.83,2.48,5.83,2.71,8.61.65,3.71-2.76,7.73-3.59,12.17-3.59q96.12,0,192.22,0A23.48,23.48,0,0,1,133.11,271Z" transform="translate(109.02 108.94)"/><path class="cls-16" d="M288,406H13l-3.44-.22c1.26-1.13,2.4-.64,3.44-.78,1.73-.92,3.6-.46,5.4-.46q132.1,0,264.2,0c1.8,0,3.67-.46,5.4.46.25.22.34.44.25.67S288.09,406,288,406Z" transform="translate(109.02 108.94)"/><path class="cls-42" d="M288,405H13c1.47-1.64,3.43-1,5.18-1q132.32,0,264.64,0C284.57,404,286.53,403.36,288,405Z" transform="translate(109.02 108.94)"/><path class="cls-12" d="M288,406v-1h7.27c-1.69-1.84-3.73-.25-5.43-1.72h13.07c-2.79-.35-4.3,2.57-6.91,2.72a13.88,13.88,0,0,1-8,0Z" transform="translate(109.02 108.94)"/><path class="cls-10" d="M-4,406.94c-1.43-1.56-3.34-.7-5-1l-2.85-2H-4c2.18.11,4.7-.76,6,2v1Z" transform="translate(109.02 108.94)"/><path class="cls-16" d="M2,406l-6-2a2.06,2.06,0,0,1,2-1c2.19,1.35,4.8-.3,7,1C4.91,406,3.45,406,2,406Z" transform="translate(109.02 108.94)"/><path class="cls-16" d="M288,406h8v1C293.35,406.56,290.46,408,288,406Z" transform="translate(109.02 108.94)"/><path class="cls-10" d="M5,404c-2.33-.39-4.89.92-7-1C.33,403.39,2.89,402.08,5,404Z" transform="translate(109.02 108.94)"/><path class="cls-10" d="M7.85,403.45a3.27,3.27,0,0,1,3.39,0A2.82,2.82,0,0,1,7.85,403.45Z" transform="translate(109.02 108.94)"/><path class="cls-43" d="M90.1,239l23,17c-1.27,2.6-3.75,2.5-6,2.57-5.15.16-10.31.06-15.47.06q-79.09,0-158.2,0c-4.21,0-8.09.28-11.68,3.18-3.08,2.48-7.31,2.71-10.1-.24-3.89-4.11-8.44-4.07-13.31-3.83-2.11.1-4.32.84-6.27-.68V240c4-3.55,14.61-3.7,18.48-.25,5.13,4.58,5.47,4.66,11.34.53,2.67-1.87,5.63-1.83,8.61-1.84q36.69,0,73.36,0c26.78,0,53.56,0,80.34,0A22.39,22.39,0,0,1,90.1,239Z" transform="translate(109.02 108.94)"/><path class="cls-44" d="M90.1,239C88,240.28,85.63,240,83.31,240H-70.87c-3,0-5.91-.57-7.87,3.35-1.62,3.23-9.54,2.14-11-1.35-1.07-2.6-2.61-3.2-5-3-4.42.37-9-1-13.29,1,0-4.65,0-9.31,0-14,0-1.31-.24-2.7.64-3.85,1.68-2.18,15.25-1.54,16.77.76,3.46,5.21,9.52,5.91,13.43,1.11,1.89-2.32,4-2,6.22-2q64.35,0,128.71,0A27.89,27.89,0,0,0,66.12,221Q78.55,229.36,90.1,239Z" transform="translate(109.02 108.94)"/><path class="cls-45" d="M-108,257a54.55,54.55,0,0,1,11.34-1.07c3.57-.06,6.27.46,8.34,4,1.86,3.17,7.64,3.27,10,.13,2.2-2.93,4.79-3,7.85-3q88.38,0,176.75,0c2.32,0,4.68.28,6.8-1.05l20,15Q32.86,271-67.38,271c-4.21,0-8.54-.72-11.26,4.24-1.26,2.31-9,.47-10.76-1.86-3.61-4.73-8.87-3.36-13.67-3.12-1.59.09-3.2.81-4.89.72Z" transform="translate(109.02 108.94)"/><path class="cls-20" d="M317.16,169l-2.28,8q-2.49,6-5,12-5.49,9.5-11,19l-7.95,9.94c-3.16,5.85-8.49,9.6-13.4,13.76-1.4,1.19-2.86,2.27-4.29,3.41a53.37,53.37,0,0,1-9.48,6.14c-5.84,3-10.2,1.3-12.87-5-.75-4.6,1.56-7.65,5.16-10,3.79-2.44,7.45-5,11-7.74a80.07,80.07,0,0,0,18.21-19,56.87,56.87,0,0,0,7-10.92c2-4,4.3-7.85,5.68-12.14,1-3.06,2.13-6.1,3-9.23a70.21,70.21,0,0,0,3-14.91c1.13-6.27.3-12.61.65-18.9.22-5.57-1.24-10.92-2.06-16.35-1.15-6.79-3.76-13.11-6.26-19.46a65.06,65.06,0,0,0-7.86-14.24,97,97,0,0,0-26.22-27c-2.54-1.87-5.4-3.29-7.6-5.59-2.74-2.88-4.12-6-1.47-9.75,6.21-5.24,6.75-5.28,13.6-.67,2,1.36,3.79,3.13,6.26,3.74L286.89,56c7.28,8.94,14.81,17.7,20.27,28l6,13q2.85,9.51,5.72,19,.64,8.49,1.28,17v20Z" transform="translate(109.02 108.94)"/><path class="cls-45" d="M409,270c-72.25,1.43-144.52.94-216.78,1,1.4-4.59.5-9.34,1-14,2.72-2.34,6-1.59,9.11-1.59,51.17,0,102.33.19,153.5-.18,15-.11,30-1,45-.84,3,0,6.08-.11,8.24,2.61Q409,263.51,409,270Z" transform="translate(109.02 108.94)"/><path class="cls-43" d="M409,257a24.36,24.36,0,0,0-7.84-1c-69.31,1.58-138.64.89-208,1V246c2.71-2.34,6-1.59,9.1-1.59,52.41,0,104.82.13,157.23-.15,13.95-.08,27.9-1.17,41.87-.86,2.77.07,5.8-.41,7.6,2.59Z" transform="translate(109.02 108.94)"/><path class="cls-46" d="M409,246c-2.12-1.34-4.5-1-6.8-1-69.66,1.65-139.33.79-209,1V236c1.89-1.83,4.31-1.58,6.61-1.59q22.72-.07,45.46,0c2.3,0,4.72-.24,6.61,1.59,3,6.09,6.38,7.16,12,3.7,3-1.89,6.05-3.83,9.08-5.75a64.82,64.82,0,0,1,9.95-.55c25.31,0,50.63.34,75.93-.12,14-.25,27.94-1.06,41.93-.85,3,0,6.08-.15,8.24,2.57Z" transform="translate(109.02 108.94)"/><path class="cls-47" d="M409,235a24,24,0,0,0-7.83-1c-40.48,1-81,1.23-121.45,1-2.31,0-4.67.29-6.77-1.05,6.56-4.72,12.08-10.63,18-16,1.43,1.73,3.4,1.06,5.15,1.06,22.66,0,45.35.68,68-.23,12.41-.49,24.81-.25,37.21-.68,7.27-.26,7.72.43,7.72,7.44C409,228.67,409,231.84,409,235Z" transform="translate(109.02 108.94)"/><path class="cls-25" d="M178.84,133v20c-1.89,1.84-4.31,1.61-6.61,1.61q-85.23.06-170.46,0c-2.3,0-4.72.23-6.61-1.61V133c1.88-1.83,4.31-1.61,6.61-1.61q85.23-.06,170.46,0C174.53,131.39,177,131.17,178.84,133Z" transform="translate(109.02 108.94)"/><path class="cls-28" d="M178.84,133H-4.84V116c1.88-1.83,4.3-1.61,6.61-1.61q85.23-.06,170.46,0c2.31,0,4.73-.22,6.61,1.61Z" transform="translate(109.02 108.94)"/><path class="cls-32" d="M178.84,116H-4.84c.51-6.19,1.87-12.08,6-17,2.16-1.54,4.65-1.63,7.17-1.63q81.71,0,163.41,0c2.46,0,5.06-.33,7.1,1.61Z" transform="translate(109.02 108.94)"/><path class="cls-22" d="M52,81.9c15.32-4.71,26.86-15.46,39.33-24.72A4,4,0,0,1,93.89,56c2.39-1.41,5-1.6,7.69-1.6,23.4,0,46.79,0,70.19,0,2.44,0,5-.34,7.07,1.6V83c-1.88,1.83-4.29,1.6-6.59,1.6q-56.83.08-113.68,0C56.17,84.56,53.09,85.4,52,81.9Z" transform="translate(109.02 108.94)"/><path class="cls-48" d="M-4.84,153H178.84v15c-1.89,1.84-4.31,1.61-6.61,1.61q-84.73.06-169.46,0c-2.3,0-4.72.23-6.61-1.61C-5.81,163.11-4.86,158-4.84,153Z" transform="translate(109.02 108.94)"/><path class="cls-49" d="M52,81.9C53.53,83.74,55.68,83,57.57,83q60.65.06,121.27,0V99H1.16c6.51-8.94,15-13.7,26.34-14.17A125.63,125.63,0,0,0,52,81.9Z" transform="translate(109.02 108.94)"/><path class="cls-34" d="M74,208.1c-9.13-6.42-19-11.11-30.15-12.63-5.37-.74-10.74-1.86-16.23-1.47s-10.7-1.42-15.5-4.16c.43-2.2,2.32-2.08,3.88-2.32a37.23,37.23,0,0,1,5.49-.15q74.15,0,148.3,0c3.09,0,6.39-.74,9.1,1.6v18c-1.89,1.83-4.31,1.59-6.6,1.59-31,0-61.89,0-92.84,0A52.1,52.1,0,0,1,74,208.1Z" transform="translate(109.02 108.94)"/><path class="cls-50" d="M263.11,56c8.17,4.11,13.68,11.25,19.63,17.76,2.44,2.67,5.51,5.25,6.32,9.19-1.14,3.5-4.2,2.59-6.59,2.6-16,.1-32.06.14-48.08,0a3.29,3.29,0,0,1-2.44-.08c-5.46-3.88-10.73-3.09-16,.46-5.58-.51-11.18-.38-16.77-.43-2.12,0-4.33.18-6.06-1.48V56c1.87-1.82,4.28-1.59,6.57-1.6,18.55,0,37.11,0,55.67,0A17.35,17.35,0,0,1,263.11,56Z" transform="translate(109.02 108.94)"/><path class="cls-30" d="M178.84,189q-80.52,0-161,0c-1.92,0-4-.7-5.74.81A31.92,31.92,0,0,1-.84,177c1.88-1.87,4.31-1.6,6.6-1.6q83.24-.08,166.47,0c2.3,0,4.72-.22,6.61,1.61Z" transform="translate(109.02 108.94)"/><path class="cls-15" d="M74,208.1c1.58-1.84,3.73-1.06,5.62-1.07q49.63-.06,99.27,0,0,9.5,0,19c-1.87,1.83-4.28,1.6-6.57,1.6-22.22.05-44.43,0-66.65,0A17.37,17.37,0,0,1,97.89,226C89.6,220.47,81.65,214.45,74,208.1Z" transform="translate(109.02 108.94)"/><path class="cls-29" d="M286.12,200a66.14,66.14,0,0,1-18,19,21.16,21.16,0,0,1-5.44.59c-20.8-.08-41.6,0-62.4-.06-2.45,0-5,.36-7.1-1.58V194c1.89-1.79,4.29-1.55,6.56-1.51,5.43.09,10.89-.48,16.29.43,3.5,2,7,3.93,11.11,4.55,3.07,1,6.24.95,9.41.95,14.16,0,28.33,0,42.49,0C281.47,198.46,284.08,198,286.12,200Z" transform="translate(109.02 108.94)"/><path class="cls-51" d="M178.84,177H-.84c-1.09-3-3.23-5.59-3-9H178.84Z" transform="translate(109.02 108.94)"/><path class="cls-52" d="M97.89,226l81,0q0,12,0,24c-2.21,2-5,1.5-7.58,1.54-13.08.2-26.16-.29-39.24.29Z" transform="translate(109.02 108.94)"/><path class="cls-39" d="M178.84,56,93.89,56c4.54-4.77,10.22-8.08,15.39-12,2.2-1.67,4.51-3.19,6.78-4.77,5.9-1.23,11.89-.71,17.85-.74q18.92-.09,37.85,0c2.44,0,5-.36,7.08,1.57Z" transform="translate(109.02 108.94)"/><path class="cls-44" d="M193.16,218h68.67c2.15,0,4.33-.17,6.27,1.05-3.36,2.48-6.58,5.21-10.13,7.38-3.72,2.27-6.59,4.77-6.13,9.57H193.16Z" transform="translate(109.02 108.94)"/><path class="cls-25" d="M193.16,153V133c1.56-1.58,3.61-1.56,5.58-1.57q20.89-.1,41.79,0a9.57,9.57,0,0,1,5.3,1.07c3,5.62,2,16.56-1.94,21.19a9.48,9.48,0,0,1-4.35.88q-20.65.13-41.29,0C196.43,154.54,194.57,154.45,193.16,153Z" transform="translate(109.02 108.94)"/><path class="cls-53" d="M263.11,56l-70,0V41l60,0c-1,5.39,1.09,9,5.86,11.64C260.43,53.47,262.37,54.08,263.11,56Z" transform="translate(109.02 108.94)"/><path class="cls-54" d="M178.84,40q-28.78,0-57.56,0c-1.76,0-3.67.61-5.22-.81,7.15-5.57,14.2-11.27,21.83-16.2a16.22,16.22,0,0,1,7.19-1.57c9.24,0,18.48,0,27.72,0,2.12,0,4.33-.11,6,1.58Z" transform="translate(109.02 108.94)"/><path class="cls-45" d="M132,251.83c.81-2.94,3.24-1.77,5-1.78,13.94-.09,27.89-.05,41.83-.05a67.64,67.64,0,0,1-.82,17.22c-1.29,6.47-5.51,9.28-11.83,7.36s-11.73-5.68-16.92-9.75C143.59,260.39,137.77,256.16,132,251.83Z" transform="translate(109.02 108.94)"/><path class="cls-26" d="M193.16,153h50.68c1.23,5.5-2.6,13.65-8.05,17.1-13,1-26,.38-39,.34a4.8,4.8,0,0,1-3.58-1.44Z" transform="translate(109.02 108.94)"/><path class="cls-55" d="M245.84,133H193.16V118c1.89-1.8,4.29-1.53,6.58-1.54,13.4-.07,26.81,0,40.21-.09C244.43,119,247.06,126.39,245.84,133Z" transform="translate(109.02 108.94)"/><path class="cls-35" d="M240.84,117c-1.77,1.25-3.8,1-5.78,1h-41.9V102c1.9-1.79,4.3-1.48,6.58-1.52,9.26-.13,18.53.18,27.78-.23a5.6,5.6,0,0,1,5.18,2.3C236.18,106.92,241,110.6,240.84,117Z" transform="translate(109.02 108.94)"/><path class="cls-56" d="M178.84,23l-41,0a171.93,171.93,0,0,1,23-16.88c7-4.12,14.86-2.56,16.63,3.18a49,49,0,0,1,1.4,9.26A32.05,32.05,0,0,1,178.84,23Z" transform="translate(109.02 108.94)"/><path class="cls-49" d="M229.11,101c-2.1,1.28-4.44,1-6.74,1H193.16V84c8,.46,16.05-1,24,1,1,5.72,4.63,9.38,9.59,12C228.09,97.83,229.48,99,229.11,101Z" transform="translate(109.02 108.94)"/><path class="cls-30" d="M216.84,194H193.16V177a5.47,5.47,0,0,1,4.09-1.47c9.4-.14,18.81-.23,28.22.05a6.56,6.56,0,0,1,2.84.75c1.66,1.25,1.15,2.51,0,3.74a15.81,15.81,0,0,1-3.88,3.1A13.44,13.44,0,0,0,216.84,194Z" transform="translate(109.02 108.94)"/><path class="cls-33" d="M229,178.11c-1.39-1.76-3.36-1.07-5.09-1.08-10.26-.06-20.52,0-30.78,0v-8h43.68C235.91,173.47,233.61,176.77,229,178.11Z" transform="translate(109.02 108.94)"/><path class="cls-32" d="M297.12,97c3.15,6,4.9,12.55,6.72,19-2.07,1.92-4.66,1.51-7.12,1.54-12.82.16-25.64-.23-38.45.27-1.89,0-3-1.11-3.73-2.7a133.56,133.56,0,0,0-7.74-14.26c-1-1.54-2.37-3.56.54-4.87,8.57-1.23,17.19-.35,25.77-.55,5.79-.14,11.59-.05,17.38,0C292.81,95.43,295.16,95.36,297.12,97Z" transform="translate(109.02 108.94)"/><path class="cls-25" d="M305.84,133c-.29,6.67,1.42,13.44-1,20-1.26,1.32-2.93,1.51-4.6,1.53q-18.44.18-36.87,0a8.23,8.23,0,0,1-3.86-.84c-2.49-2.37-1.14-5.35-.89-7.94.44-4.46-1.19-9.23,1.73-13.37,1.82-1,3.82-1,5.79-1q16.58-.06,33.16,0C301.58,131.43,304,131.19,305.84,133Z" transform="translate(109.02 108.94)"/><path class="cls-57" d="M305.84,133H260.16c-2.4-5.06-4.34-10.2-3.28-16,1.95-1.17,4.11-1,6.27-1q20.34,0,40.69,0C304.35,121.69,306.62,127.16,305.84,133Z" transform="translate(109.02 108.94)"/><path class="cls-41" d="M297.12,97,245.88,97c-5.87-2.27-9.4-7.09-12.91-11.92,1.4-1.76,3.37-1.07,5.11-1.08,15.28,0,30.57,0,45.85-.06,1.74,0,3.71.66,5.13-1.06C293,86.86,295.13,91.87,297.12,97Z" transform="translate(109.02 108.94)"/><path class="cls-48" d="M259.16,153h45.68c.54,5.31-1.21,10.16-3,15a6.2,6.2,0,0,1-4.59,1.52c-13.21.08-26.42.19-39.64-.05a8,8,0,0,1-2.41-.48c-.72-.37-1.68-.81-1.45-1.71C255,162.33,255.55,157.07,259.16,153Z" transform="translate(109.02 108.94)"/><path class="cls-34" d="M286.12,200q-26.58,0-53.16,0c-2.5,0-5,.15-7-1.85,4.16-5.08,8.89-9.32,15.6-10.7,15-.08,30-.05,44.93,0,2.29,0,4.72-.3,6.59,1.58C291.86,193.38,289,196.7,286.12,200Z" transform="translate(109.02 108.94)"/><path class="cls-30" d="M293.12,189c-16,0-32.05,0-48.07-.06-1.73,0-3.69.68-5.08-1.08,2.21-5.23,5.11-9.86,10.66-12.19,14.55-.6,29.09-.21,43.64-.21,1.64,0,3.33.13,4.57,1.51C297.93,181.48,295.38,185.19,293.12,189Z" transform="translate(109.02 108.94)"/><path class="cls-51" d="M298.84,177l-49.95,0a11,11,0,0,1,5.27-9h47.68A29.47,29.47,0,0,1,298.84,177Z" transform="translate(109.02 108.94)"/><path class="cls-20" d="M254.16,168l-5.27,9L240,187.89l-14,10.27c-3.68,0-7.08-.63-9.16-4.16-2.16-4.41.41-7.2,3.5-9.64,2.8-2.21,5.79-4.17,8.69-6.25,3.46-2.3,5.26-6,7.81-9.11,3.29-4.92,6.08-10.05,7-16,2.54-6.48,2.33-13.23,2-20-1.58-5.36-1.72-11.17-5-16-2.81-6.15-6.28-11.82-11.73-16-1.48-2.57-4.09-3.73-6.49-5.06-4.36-2.41-6.54-5.8-5.5-10.88,3.59-4.7,7.27-5.38,12.13-2.24,1.23.8,2.48,1.55,3.72,2.32L245.88,97a128.33,128.33,0,0,1,11,20c1.1,5.32,3.15,10.45,3.28,16,.13,6.69.32,13.38-1,20C257.67,158.06,256.45,163.21,254.16,168Z" transform="translate(109.02 108.94)"/></svg>