<svg id="图层_1" data-name="图层 1" xmlns="http://www.w3.org/2000/svg" viewBox="0 0 500 500"><defs><style>.cls-1{fill:#c2c2cc;}.cls-2{fill:#e8e7ec;}.cls-3{fill:#cbcbd5;}.cls-4{fill:#f3f3f5;}.cls-5{fill:#f9f9fb;}.cls-6{fill:#cdcdd7;}.cls-7{fill:#f2f2f4;}.cls-8{fill:#cfcfd9;}.cls-9{fill:#e7e6eb;}.cls-10{fill:#f0f0f2;}.cls-11{fill:#eae9ee;}.cls-12{fill:#b1b1bd;}.cls-13{fill:#dfdee4;}.cls-14{fill:#ecebf0;}.cls-15{fill:#eeedf3;}.cls-16{fill:#e3e2e7;}.cls-17{fill:#e5e4e9;}.cls-18{fill:#d1d1db;}.cls-19{fill:#dadbe0;}.cls-20{fill:#c9c9d3;}.cls-21{fill:#d4d4de;}.cls-22{fill:#e0dfe5;}.cls-23{fill:#d2d2d4;}.cls-24{fill:#efeff1;}.cls-25{fill:#e2e2e2;}.cls-26{fill:#d6d7dd;}.cls-27{fill:#f6f6f8;}.cls-28{fill:#cacad0;}.cls-29{fill:#c5c5d1;}.cls-30{fill:#b3b2be;}.cls-31{fill:#bcbcc7;}.cls-32{fill:#ebeaef;}.cls-33{fill:#cecdd5;}.cls-34{fill:#b6b5c1;}.cls-35{fill:#bbbac6;}.cls-36{fill:#c8c8ce;}.cls-37{fill:#c2c1cc;}.cls-38{fill:#c5c3ce;}.cls-39{fill:#c7c7d1;}.cls-40{fill:#d9d9da;}.cls-41{fill:#e1e1e1;}.cls-42{fill:#d5d5d5;}.cls-43{fill:#e0e0e0;}.cls-44{fill:#c5c5cf;}.cls-45{fill:#c0c0cc;}.cls-46{fill:#c6c6d2;}.cls-47{fill:#bfbfca;}.cls-48{fill:#bfbfc9;}.cls-49{fill:#c9c9d2;}.cls-50{fill:#595656;}.cls-51{fill:#e9e8ed;}.cls-52{fill:#6f41fe;}.cls-53{fill:#7140fe;}.cls-54{fill:#cacad4;}.cls-55{fill:#f5f5f7;}.cls-56{fill:#f7f7f9;}.cls-57{fill:#fbfbfb;}.cls-58{fill:#dddedf;}.cls-59{fill:#dadada;}.cls-60{fill:#d0d0da;}.cls-61{fill:#ededf1;}.cls-62{fill:#d9d9db;}.cls-63{fill:#d8d8d9;}.cls-64{fill:#dadadb;}.cls-65{fill:#dcddde;}.cls-66{fill:#dedee0;}.cls-67{fill:#d6d6d7;}.cls-68{fill:#dcdcdc;}.cls-69{fill:#713cfe;}.cls-70{fill:#7539fe;}.cls-71{fill:#afafbb;}.cls-72{fill:#b3b3bf;}.cls-73{fill:#dcdbe3;}.cls-74{fill:#dfdee6;}.cls-75{fill:#dddee3;}.cls-76{fill:#7c32fe;}.cls-77{fill:#7935fe;}.cls-78{fill:#efeef3;}.cls-79{fill:#8231fe;}.cls-80{fill:#e2e1e9;}.cls-81{fill:#e3e2ea;}.cls-82{fill:#525afe;}.cls-83{fill:#5556fe;}.cls-84{fill:#cacbd0;}.cls-85{fill:#cbcad3;}.cls-86{fill:#d4d3d9;}.cls-87{fill:#ceced3;}.cls-88{fill:#d3d4d8;}.cls-89{fill:#cfd0d4;}.cls-90{fill:#d7d6dc;}.cls-91{fill:#d9d8e0;}.cls-92{fill:#d7d8dd;}.cls-93{fill:#dcdcdd;}.cls-94{fill:#d9d9d9;}.cls-95{fill:#d3d3dd;}.cls-96{fill:#d5d6db;}.cls-97{fill:#e1e0e8;}.cls-98{fill:#dedfe3;}.cls-99{fill:#f3f2f5;}.cls-100{fill:#e6e6e8;}.cls-101{fill:#e3e3e7;}.cls-102{fill:#ececee;}.cls-103{fill:#e8e8ec;}.cls-104{fill:#fefefe;}.cls-105{fill:#dad9e1;}.cls-106{fill:#d0d0d8;}.cls-107{fill:#d1d1d7;}.cls-108{fill:#bfbfc8;}.cls-109{fill:#c2c2cb;}.cls-110{fill:#c0c0c8;}.cls-111{fill:#b8b8c4;}.cls-112{fill:#bfbfcb;}.cls-113{fill:#c9c9d4;}.cls-114{fill:#bbbbc7;}.cls-115{fill:#c4c4ce;}.cls-116{fill:#d0ced9;}.cls-117{fill:#c8c8d4;}.cls-118{fill:#d4d3de;}.cls-119{fill:#d7d5e0;}.cls-120{fill:#e6e5ea;}.cls-121{fill:#c7c7d3;}.cls-122{fill:#dddce4;}.cls-123{fill:#dbdae2;}.cls-124{fill:#d2d2dc;}.cls-125{fill:#d0cfd9;}.cls-126{fill:#e4e3e9;}.cls-127{fill:#cccad5;}.cls-128{fill:#5b5351;}.cls-129{fill:#5359fe;}.cls-130{fill:#5854fe;}.cls-131{fill:#5e53fe;}.cls-132{fill:#7e31fe;}.cls-133{fill:#7835fe;}.cls-134{fill:#733afe;}.cls-135{fill:#edecf1;}.cls-136{fill:#7d2ffe;}.cls-137{fill:#7d39fd;}.cls-138{fill:#f9f9f9;}.cls-139{fill:#4d5ffe;}.cls-140{fill:#5c56fd;}.cls-141{fill:#9322fe;}.cls-142{fill:#9c5dfb;}.cls-143{fill:#edecf2;}.cls-144{fill:#842ffe;}.cls-145{fill:#e1e0e4;}.cls-146{fill:#e8e7eb;}.cls-147{fill:#ebebed;}.cls-148{fill:#b5b5c1;}.cls-149{fill:#dbdbe0;}.cls-150{fill:#dfdfe3;}.cls-151{fill:#d6d6dd;}.cls-152{fill:#bdbdc9;}.cls-153{fill:#b9b8c5;}.cls-154{fill:#8825fe;}.cls-155{fill:#901efe;}.cls-156{fill:#9717fe;}.cls-157{fill:#9e17fd;}.cls-158{fill:#505ffe;}.cls-159{fill:#515bfe;}.cls-160{fill:#6647fe;}.cls-161{fill:#5952fe;}.cls-162{fill:#5f4cfe;}.cls-163{fill:#7a34fe;}.cls-164{fill:#6c40fe;}.cls-165{fill:#7239fe;}.cls-166{fill:#862bfd;}.cls-167{fill:#8030fe;}.cls-168{fill:#9c1afd;}.cls-169{fill:#9120fe;}.cls-170{fill:#8c26fd;}.cls-171{fill:#961efd;}.cls-172{fill:#1791fe;}.cls-173{fill:#2e7bfe;}.cls-174{fill:#3d6cfe;}.cls-175{fill:#7a33fe;}.cls-176{fill:#733bfe;}.cls-177{fill:#6d42fe;}.cls-178{fill:#8329fe;}.cls-179{fill:#8d23fe;}.cls-180{fill:#8824fe;}.cls-181{fill:#b2b2be;}.cls-182{fill:#dbd9e4;}.cls-183{fill:#4961fe;}.cls-184{fill:#4466fe;}.cls-185{fill:#01a7fd;}.cls-186{fill:#0a9dfe;}.cls-187{fill:#1197fe;}.cls-188{fill:#05a3fe;}.cls-189{fill:#2583fe;}.cls-190{fill:#1e8bfe;}.cls-191{fill:#3575fe;}</style></defs><title>颜色</title><path class="cls-1" d="M401,315v34a1.51,1.51,0,0,1-2.26-.17c.17-7.68-2.31-15-3.3-22.48-1.83-4.34-5.73-2-8.74-2.77,2.8,1,3.69,2.78,1.8,5-2,2.38-2.88,5.15-3.89,8-1.36,3.8-4.08,6-8.3,6-2,0-4,.05-6,.05H-56.53c-1.83,0-3.67-.08-5.5,0-4.49.13-7.45-2.19-8.56-6.23A30.72,30.72,0,0,0-75,327.56c.15-2.2-1.4-2.17-2.91-2.17-1.83,0-2.89.82-3.74,2.59a29.34,29.34,0,0,0-.42,25.32c0,1.91.47,4.16-2.68,3.93-2.23-3.57-4.07-7.29-4.57-11.54,0-9.25-.13-18.49,1.09-27.71.62-4.62,2.93-8.49,4.94-12.32,1.77-3.35,5.73-2.3,8.94-1,2,2.65,3.8,5.44,7.14,6.64a2.59,2.59,0,0,1,1.53,1.23c2.22,6.18,7.43,4.86,12.06,4.86l422.26,0c4.24,0,8.23.63,10.92-4.45,1.72-3.25,6.6-4,8.7-7.83,1-1.81,2.41-3.34,2.93-5.52.62-2.64,2.19-4.5,5.31-4.14,2.74,2,1.87,5.05,1.9,7.7C398.43,307.37,398.41,311.45,401,315Z" transform="translate(99 99)"/><path class="cls-2" d="M401,53v8c-.65.52-1.37,1.22-2.17,1.14-8.34-.87-9.92,5.89-12,11.29-1.49,3.76-3.43,5.34-7.27,5.25-8.65-.23-17.3-.22-25.95,0-3.76.09-6.44-1-7.18-5.17-.62-3.5-3.63-5.9-4.66-9.29-.3-1-1.5-1.21-2.5-1.4a19.27,19.27,0,0,0-3.48-.24q-71.12,0-142.22,0a69.77,69.77,0,0,0-7.93.75c-5,0-9.27-2.49-13.95-3.57a93.62,93.62,0,0,0-46.87,1.1,33.23,33.23,0,0,1-6.28,1.59c-4,.84-8,.15-11.92.15q-92.1,0-184.2,0c-4,0-7.65-.11-8.55,5.21-.37,2.2-2.41,3.51-4.93,3.33a5.23,5.23,0,0,1-1.18-4.68c.89-5.3,3.36-10,6.17-14.47,1.1-1.75,3.25-2.21,5.3-2.4,2.32-.22,4.65-.15,7-.15q71.82,0,143.65,0A72.66,72.66,0,0,0,79.27,49a4.37,4.37,0,0,1,2.37-.27c1.41.82,1.74,2.69,3.3,3.38.4.2.78.41,1.17.62,3.26,1.79,5.6-.24,8-1.93a4.08,4.08,0,0,1,2.47.08,42,42,0,0,0,8.45.52h98.2a68,68,0,0,1,7.95.22,13.82,13.82,0,0,1,4.29,1c3.39,1.33,6.08.52,8.13-2.49a2.83,2.83,0,0,1,2.41-.55,42.56,42.56,0,0,0,9.94.85q49.25,0,98.49,0a61.27,61.27,0,0,1,6.5.18c3,.33,4.88,1.91,5.39,5a16.05,16.05,0,0,0,.56,3.43c3.09,7.61,3.08,7.53,11.48,7.46,6.83-.05,13.68-.37,20.49.27,2.55.25,4.12-.42,4.83-3,.81-3,3.11-5.43,3.19-8.81a4.24,4.24,0,0,1,3.86-4C394.39,50.33,398.1,49.79,401,53Z" transform="translate(99 99)"/><path class="cls-3" d="M401,252v21a2.07,2.07,0,0,1-2.52-1.85c-.32-7.16-4.84-14-2.29-20.11-1.35,5.07-5.31,10.61-6.58,17.19a1.75,1.75,0,0,1-1.34,1.37c-4.37.4-7.88,3.64-12.29,3.75-6.32.16-12.64.14-19,0-4.42-.1-7.91-3.38-12.28-3.75a1.73,1.73,0,0,1-1.36-1.36c-1.27-6.68-5.33-12.35-7-18.9-.06-.67-1,.2-.44-.1.14-.06.19.05.28.29a5.43,5.43,0,0,1,.07,4.31,9.52,9.52,0,0,0-1.08,3.82c-.47,2.87-2.28,4.3-5.05,4.7a42.66,42.66,0,0,1-6,.23H213.9c-1.66,0-3.33,0-5-.11-3.34-.26-5.37-1.57-4.58-5.41.67-3.28-.11-6.64.36-9.94,2.49-2.38,5.64-1.63,8.54-1.64q53.93-.08,107.85,0c1.66,0,3.33-.07,5,0,4.37.16,6.74-1.81,7.55-6.2.47-2.56.09-6.46,3.94-6.51s4.52,3.45,4.94,6.47c.63,4.49,3.29,6.21,7.56,6.22q16.47,0,32.95,0c4.29,0,7-1.76,7.48-6.26a10.65,10.65,0,0,1,.89-3.36c.82-1.76,2-3.16,4.07-3.22,2.47-.08,2.81,2,3.26,3.72C400.06,241.46,400,246.81,401,252Z" transform="translate(99 99)"/><path class="cls-4" d="M401-26v5c-1.48,1.09-3.29,1.59-4.78,2.7a5.06,5.06,0,0,1-6.88-.18c-3-2.64-6.53-3-10.27-2.95q-11,.09-22,0c-5,0-10-.31-14.18,3.4a4.33,4.33,0,0,1-5.61.08c-2.2-1.74-4.57-1.54-7.06-1.53-27.16.13-54.33.06-81.5.06q-162,0-324-.07c-5.42,0-10.23.54-13.55,5.35A10.73,10.73,0,0,0-90-11.9,3.22,3.22,0,0,1-91-10.76a1.32,1.32,0,0,1-1.36-.41c-.83-1.26-.71-2.74-.92-4.15-.37-1.51-.2-3.12-.76-4.6a8.44,8.44,0,0,1-.79-1.92,3.65,3.65,0,0,1,.78-3.41c1.73-1.13,3.09,1.63,4.84.43,2.85-3.08,6.44-3.64,10.45-3.63q203.36.07,406.71.05c2,0,4.25-.52,5.92.47,7.54,4.42,12-1.1,16.84-5.07,1.57-1.29,2.94-2.89,5-3,8.11-.63,16.24-1.57,24.25.8,2.33,4.61,8.16,4.87,11.07,8.92,1.21,1.67,3.33.67,5-.13S399.54-28.53,401-26Z" transform="translate(99 99)"/><path class="cls-5" d="M401-55v23c-3.52.16-4.1-2.48-4.21-5-.17-3.73-2-4.79-5.45-4.69-3.13.09-6.31.38-9.41-.44a3.87,3.87,0,0,1-1.34-.83c-.82-1-1.44-2.48-2.88-2.45-4.31.06-6.09-3.26-8.41-5.94a18.37,18.37,0,0,1-3.15-3.21c-2.81-4.59-6.8-6.49-12.14-6.07-2.22.18-4-1.11-5.84-2.4-5.27-3.68-10.54-7.52-17.72-5.66-2.38.61-5,.22-7.47.22q-165.95,0-331.89,0a60.09,60.09,0,0,1-10.47-.51,8.93,8.93,0,0,0-7.5,1.7,6.94,6.94,0,0,1-8,.68,3.54,3.54,0,0,1-1-3.57c4.26-4.92,10.05-6.17,16.07-5.94,4.32.17,8.63.5,13,.5H321.86a89.55,89.55,0,0,0,11.46-.53c6.12-.8,11.36,2,16.58,4.53,5,2.39,5.76,2.41,8.93-2,2.5-3.47,8.34-3.33,12,1.15,4,4.88,9.85,5.17,14.86,7.51,1.28.6,2.61,0,3.7-.9a3.65,3.65,0,0,1,1.48-.72,2.88,2.88,0,0,1,2.15.73c1.22,1.38,2.13,3,3.55,4.26C398.52-59.68,399.65-57.26,401-55Z" transform="translate(99 99)"/><path class="cls-6" d="M401,252c-1.26-5.24-2.48-10.49-3.8-15.72-.26-1,.25-2.72-1.38-2.81s-2.71,1.09-3.29,2.59A9.17,9.17,0,0,0,392,238c-1.3,8.69-1.66,9-10.26,9-10.82,0-21.64,0-32.46,0-6.18,0-7.82-1.65-8.34-7.91a14.27,14.27,0,0,0-.71-3.36,3.16,3.16,0,0,0-3-2.28c-1.67,0-1.17,1.72-1.47,2.73C332.64,247,332.65,247,320.9,247H205c-1.86-1.8-2.49-4.57-4.8-6-2.75-2.91-2.76-6.55-2.73-10.19,0-3.29-.2-6.59.14-9.86.17-1.6-.23-3.87,2.53-4,1.86,2.48,1.21,5.35,1.27,8.1.48,8.62-1.93,9.42,9.81,9.4q55.45-.09,110.92,0c4.58,0,8.36-.18,10.36-5.46,1.3-3.42,4.59-3.89,7.38-1.28,3.38,3.17,7.16,3.77,11.46,3.72,10.66-.11,21.32-.05,32,0,3.27,0,6.26-.47,8.71-2.94,1.68-1.69,3.65-3,6.25-1.95,2.94,1.2,2,3.83,2.17,6,.12,1.47-.41,3,.51,4.38Z" transform="translate(99 99)"/><path class="cls-7" d="M-91-13c2.85-4.76,5.92-8.16,12.55-8.15q202.37.3,404.74.26c4.15,0,9-2.62,12.55,2.5.87,1.28,3.29.21,4.24-1.33,1.85-3,4.62-3.34,7.77-3.31q15.5.12,31,0c3.31,0,6.14.31,8.24,3.42,1.39,2.05,4.05,2.64,5.38.22,1.56-2.84,3.61-1.47,5.55-1.6v4a19.56,19.56,0,0,1-12.21,3.57c-2.65,0-4.79.32-5.36,3.76-.5,3.09-3.3,4-6.12,4.11q-10.74.4-21.48,0c-3.24-.12-5.93-1.31-6.51-5-.34-2.09-1.63-2.7-3.47-2.8-4-.21-8-.15-11.52-2.59A3,3,0,0,0,331.9-16c-3.79.78-7.63.5-11.45.5l-394.78,0c-4.94,0-10-.73-14.34,2.75A1.94,1.94,0,0,1-91-13Z" transform="translate(99 99)"/><path class="cls-8" d="M401,237c-1.74-1.64-.9-3.77-.95-5.68s-.48-3.2-2.33-3.93a3,3,0,0,0-3.88,1.37c-2.5,4.46-6.57,4.32-10.84,4.28q-17.47-.16-35,0c-3.33,0-6.22-.29-8.17-3.53-.8-1.32-2.07-2.9-4.05-2.24A4.06,4.06,0,0,0,333,231c-.34,4.22-2.71,5.08-6.72,5.06-39.78-.15-79.56-.09-119.34-.09-6.94,0-7,0-6.92-7,0-1.33,0-2.66.07-4,2.57-2.17,5.68-1.55,8.61-1.56q56.64-.06,113.28,0c1.83,0,3.67-.08,5.49,0,4,.13,6-1.84,6.91-5.67,1.38-5.81,2.71-6.51,8.85-5.58a2.55,2.55,0,0,1,1.72,2.24c-.25,8,6.38,9.2,11.39,9.68,8.91.86,18.1,2.11,26.89-2,3-1.43,4.45-3,4.42-6.2,0-3,.45-5.78,4.21-6.22,2.95-.34,6.41,2.28,7.17,5.75.69,3.2.82,6.52,2,9.63Z" transform="translate(99 99)"/><path class="cls-9" d="M184.64,62.18C189.33,60.71,194.16,61,199,61q68.9,0,137.79,0c4,0,7.07-.35,7.76,5.53.34,2.86,4.06,5.58,4,9.6,0,1.1,2.12,1.37,3.44,1.28a228.27,228.27,0,0,1,28.89,0c1.38.08,3.57-.27,3.53-1.06-.2-4.37,3.72-7,4.34-10.56.72-4,2.27-5,5.81-4.77,2.15.16,4.33,0,6.49,0v9c-.51.42-1.29.79-1.43,1.35-1.17,5-4.06,7.5-9.32,7.65-2.1.06-2.44,2.39-3,4.15-1.84,5.9-4.36,8-10.35,8.19-7.14.22-14.29.27-21.43,0-5.27-.22-8.34-2.41-9.43-7.28-.88-3.94-2.76-5.78-6.74-5.73a4.39,4.39,0,0,1-4-1.7c-.63-4.34-3.23-5.17-7.36-5.17-42.2.09-84.39.38-126.58-.07C195.21,69.41,189.17,67.17,184.64,62.18Z" transform="translate(99 99)"/><path class="cls-10" d="M-92-16v5c1.17,5.19.13,10.47.52,14.84C-91-.53-92.13-5.79-91-11h0c3.83-3.74,8.42-4.58,13.69-4.57q200.07.15,400.14,0a81.77,81.77,0,0,1,19.94,2.4c4.34,1.07,6.58,4.51,8.69,7.78,1.9,3,4.24,3.92,7.47,3.84a63.11,63.11,0,0,1,8.48.05c7.49.84,13.1-.94,17.54-8C388.32-14.81,395-14.63,401-14v3c-2.73,2.5-5.61,4.48-9.59,4.59-2.56.07-4.37,1.49-4.09,4.53a6.21,6.21,0,0,1-1.51,4.12c-.38.55-1.38,1.07-.23,2,4.33,3.33.84,4.77-1.61,6.46-6.79-.38-13.52-1.53-20.36-1.14-3.65.21-7.26.19-10.86,1.25-4.42,1.29-7-1.47-5.88-6,1.28-5.21-2.16-9.41-7.08-11.44-9.35-3.88-19-2.75-28.5-2.75Q117.4-9.51-76.48-9.51H-82c-3.38,0-4.59,1.53-3.42,4.75.85,2.36.89,4.57-.93,6.52-1.3,1.38-1.28,2.88-.73,4.62a10.65,10.65,0,0,1-.17,6.39c.44,5.83-4.42,10.58-3.33,16.54-.31,5.38.24,10.9-2.59,15.87-4-3.35-2.69-8.18-3.08-12.33-.62-6.57-.15-13.23-.19-19.85.35-8-.7-16,.7-24h2.16c.1,7.17,0,14.35,0,19.3-.18-5,.45-12.32-.29-19.6C-94-13.2-94.82-15.26-92-16Z" transform="translate(99 99)"/><path class="cls-11" d="M401,53c-1.78-.33-3.55-.81-5.35-1-4.42-.39-8.16-.53-7.95,6.1.09,3-3.06,5.89-3.31,9.5-.1,1.36-2,1.39-3.4,1.2a103.42,103.42,0,0,0-29.19,0c-1.41.21-3.31,0-3.28-1.41.09-3.74-3.36-6.36-3.29-9.53.13-5.67-2.69-6-7.11-6-35.24.12-70.49.07-105.74.07-2.63,0-5.39.41-7.38-2-.62-2.47,1.75-3.54,2.49-5.38,1.64-1.77,2.7-4,4.7-5.51a2.12,2.12,0,0,1,2.92.65c2.15,2.22,4.94,1.64,7.54,1.64q47.32.06,94.66,0c3.45,0,7.06-.4,9.84,2.43,3,3,2.06,6.78,2.22,10.36.23,4.87.41,4.65,5.15,4,8.2-1.15,16.55-1.49,24.69.29,3.32.73,4.28,0,4.39-3.07.13-3.63-.33-7.32.85-10.87a27.08,27.08,0,0,0,.18-3c0-3.89.81-7.32,5.18-8.57,4.57-1.32,8.28,0,11.19,4Z" transform="translate(99 99)"/><path class="cls-7" d="M401-14c-7.82,1.75-16.67,1.82-19.24,12-.45,1.8-2,2-3.61,2H354.67c-1.85,0-2.89-.7-3.69-2.58-2.18-5.11-5.37-8-11.52-9.85-10.22-3-20.19-1.33-30.18-1.4C254.17-14.18,199.06-14,143.94-14H-71.26c-6.72,0-13.61-1-19.74,3v-2c6.06-5,13.29-4,20.34-4q196.2,0,392.39-.26c9.26,0,18,3,27.14,2.35,2-.14,3.92,1.07,2.5,3.45-2.2,3.66.67,4.27,2.76,4.34,8.15.25,16.33.26,24.49,0,2.31-.07,5.44-.57,2.91-4.57-1.25-2,.51-3.35,2.34-3.2,5.88.46,11.48-.94,17.13-2.12Z" transform="translate(99 99)"/><path class="cls-12" d="M334,401H-25c-3.65-1.11-7.34-2.13-10.63-4.18-.79-1.45-1.18-2.82.73-3.75,2.29-.82,4.83-1.1,6.82.07,4.49,2.63,9.29,2.23,14.09,2.23q170.21,0,340.4,0c3.15,0,6.34-.36,9.43.61C340,399.42,335.47,399.65,334,401Z" transform="translate(99 99)"/><path class="cls-13" d="M401,129v20c-2.28.36-2.76-1.43-3.29-2.94a32.58,32.58,0,0,1-2.07-8.66c-.12-1.66-.24-3.49-2.46-3.71s-2.6,1.54-2.86,3.23c-.23,1.47-.42,3-1.78,4a12.72,12.72,0,0,1-6.73,1.63c-10.16.12-20.31.1-30.47,0a12,12,0,0,1-7.15-1.83c-2-2.12-1.49-4.81-1.63-7.34,0-1.65.16-3.42-2.05-3.75-2.72-.4-3.34,2.09-4.65,3.64-2.44,2.75-5.67,3.33-9.09,3.34q-41,.09-82,0c-6.16,0-7.09-1.16-6.35-6.43,2.62-3.13,6.29-2.63,9.72-2.63q37-.09,73.91,0c1.67,0,3.34-.1,5,0,4.07.27,6.85-1,7.1-5.56a5.46,5.46,0,0,1,.9-2.3c2.07-2.46,4.77-2.17,7.32-1.27,2.34.82,4.51,2,6.94,2.73,3,.85,2.92,2.76.92,4.81,6.43,3.81,25.36,4,32.58.28-1.29-1.76-2.64-3.89.42-4.89,2.71-.87,5.2-2.19,7.84-3.11,4.3-1.49,7.92,1,8.54,5.72C399.86,125.68,399.67,127.51,401,129Z" transform="translate(99 99)"/><path class="cls-14" d="M401,23V33c-3.2,1.4-6.37-.45-9.62-.08-4.53.51-6.11,1.8-6.38,6.36-.12,2.09.4,4.34-1.5,6a4.58,4.58,0,0,1-1.57.8A201,201,0,0,1,350.7,46a4.4,4.4,0,0,1-1.58-1c-1.6-1.76-1.47-4-1.54-6.12-.12-3.72-2.12-5.16-5.7-5.45-5-.41-9.87,1.13-14.86,1.12q-39.86-.06-79.72,0c-2.63,0-5.39.31-7.41-2a3.54,3.54,0,0,1-.62-1.62,16.73,16.73,0,0,1,5.28-8c2.55,3.49,6.16,3.85,10.15,3.83,22.82-.1,45.65-.14,68.47,0,4.77,0,8.49-.58,9.91-5.89a9.14,9.14,0,0,1,2.47-3.72c3.59-3.69,10.68-2.51,11.85,2.43.85,3.56,3.85,5.77,4.4,9.35.28,1.85,2.26,1.7,3.73,1.71,7.32.07,14.65.05,22,0,2.21,0,3.66-.56,4.27-3.13.76-3.16,3.08-5.67,4.25-8.82,1.68-4.53,8.52-5,11.76-1.25C399.24,19,399.82,21.19,401,23Z" transform="translate(99 99)"/><path class="cls-15" d="M401,23a9.11,9.11,0,0,1-4-4.28c-1.23-2.92-3.78-3.21-6.24-2.4-2.19.72-5.08,1.43-4.16,5,.49,1.88-1.24,2.53-2.09,3.66-.68.89-2.38,1.63-1.83,2.71,2.74,5.34-1.46,4.23-4,4.26-8.48.12-17,.1-25.44,0-2.29,0-5.27.18-3.13-3.78.37-.7-6.16-11.22-7-11.56-4.56-1.94-8.89.76-10,7.17C332.57,27.41,331,28,327.94,28c-25.94-.06-51.89-.14-77.83.09-4.12,0-5-2.07-5.76-5.12a2.66,2.66,0,0,1-1.57-2c-.06-1.59-1.58-3.58,1.19-4.4a68,68,0,0,0,11.93.82q33.93-.06,67.88,0c3.69,0,6.51-.78,7.82-4.54,4-2.38,8.28-1.48,12.52-1,3.45,1.63,6.09,4,6.83,7.94.49,2.62,2.09,3.62,4.51,3.66,7.45.13,14.91.19,22.36,0,2.2-.07,3.76-1,4.18-3.42.68-3.94,3.29-6.35,6.69-8.08,4.18-.52,8.38-1.51,12.31,1Z" transform="translate(99 99)"/><path class="cls-16" d="M401,99v18c-3.86-3.15-3.21-8.25-5.22-12.21a10.46,10.46,0,0,1-.41-2.44c-.26-1.19-.63-2.27-2.13-2.34-1.72-.08-2.35,1-2.55,2.44a69.51,69.51,0,0,0-.21,9.46c0,3.92-1.55,5.85-5.63,6.73a85,85,0,0,1-37.46-.15c-3.14-.72-4.64-2.21-4.78-5.32-.09-2-.08-4-.09-6,0-6.7,0-6.7-6.17-8.55-2-1.55-1.72-4.15-2.89-6.08-.09-4.57,3.13-5,6.46-4.88s6.7.29,6.69,4.81c0,2.27,1.1,3,3,3,11.15.14,22.31.11,33.46,0,1.78,0,3.26-.38,3.25-2.76,0-4.83,3.65-4.88,7-5.07,3.88-.23,6.3,1.45,7,5.49C400.68,95.1,399.87,97.16,401,99Z" transform="translate(99 99)"/><path class="cls-17" d="M401,99c-.95-.66-.9-1.66-1-2.67-.72-6.52-2.77-8.27-8.94-7.24-2.24.37-5.46.5-2.67,4.54,1.53,2.21-.63,3.31-2.65,3.32-12.8.07-25.6.1-38.4,0-2.5,0-4.5-1.1-2.17-4,.91-1.15.84-2-.33-2.92-3.14-2.5-9.39-.78-10.83,3l-.7.65a10.85,10.85,0,0,1-5.36.9c-17.15,0-34.29.06-51.44,0-2.36,0-5.12.59-6.65-2.2,1.19-5.18,6.3-5.79,9.74-8.35a6,6,0,0,1,3.36-.49c6.56,1.69,13.26.9,19.9,1s13-.17,19.5.08c6.21.24,11.69-.35,13.65-7.57,2,0,4,0,6,0,3.23,0,4.72,1.54,5.06,4.81.61,6,3.13,8.13,9.06,8.18q10.23.08,20.46,0c6.31,0,8.69-2,9.38-8.36.44-4,2.89-4.95,6.23-4.59,3.62.38,5.4-.79,4.83-4.66s1.91-2.84,4-2.38Z" transform="translate(99 99)"/><path class="cls-18" d="M401,225c-1.63-2.64-3.35-5.19-3.06-8.6.23-2.69-1.78-4.35-3.9-5.25-2.56-1.07-4.86-.84-5.08,2.93-.15,2.56,1.39,6.08-1,7.5a30.1,30.1,0,0,1-11.84,4.23c-6.39.69-12.92.35-19.39.12-4.15-.14-7.74-2.64-11.38-4.21-3-1.31-.86-5.73-1.37-8.72-1.88-2.58-1.79-5.23-.3-7.94,2.08-1.87,4.67-1.5,7.13-1.52,10-.06,20-.08,30,0,3.86,0,7.17-.22,6.7-5.44a2.58,2.58,0,0,1,2.05-3,17.85,17.85,0,0,0,7.39-3.53c2.55-1.95,2.78,2.06,4.05,3.43Z" transform="translate(99 99)"/><path class="cls-19" d="M389,140c0-1.49.11-3,0-4.46-.26-3,1.27-3.58,3.88-3.6,2.8,0,4.3.58,4.2,3.82-.14,4.78.73,9.4,3.94,13.24v24a1.69,1.69,0,0,1-2.32,0c-1.58-2.44-1.08-5.46-2.31-8.06-1.32-2.79-2.79-3.45-5.84-2.36-16.28,5.82-32.6,6.05-48.82-.37-1.24-.49-2.54-.76-3.79-1.17a3.35,3.35,0,0,1-1.26-.71c-1.65-1.6-1.33-3,.44-4.3-1.28.15-2.68,2.85-3.8-.2-.19-3.18.64-6.23,1.06-9.33,1-6.92,2.81-8,9.57-5.83,3,8.91,10,11,18.36,10.93,3,0,6.06-.46,8.94.09,5.87,1.11,10-2.66,14.78-4.65C388.75,145.84,386.84,141.88,389,140Z" transform="translate(99 99)"/><path class="cls-20" d="M336,253v-5.48c2.64,5,6.09,9.22,7,14,1.08,5.4,2.84,7.57,8.41,8.59,2.28.42,4.9,1.89,7.65,1.93,3.65.05,7.44-.62,10.93.15,6.43,1.4,11.41-3.38,17.41-3.35a1.83,1.83,0,0,0,1.31-1.22c.28-7.4,5-13,8.14-19.44-1.55,7.1,2.33,13.55,2.14,20.49a5.25,5.25,0,0,0,2,4.38v16c-2.59.32-2.93-1.66-3.17-3.39a26.68,26.68,0,0,0-1.62-5.6c-1-4.11-.5-8.25-.19-12,.14,4.4-4.74,6.94-5.34,11.54-.2,1.58-2.69,1.62-4.35,1.77-2.81.24-4.77,1.2-4.64,4.54.11,2.69-1.9,3.3-4,3.36-7.48.2-14.95.22-22.42,0-2.14-.06-4.08-.74-3.93-3.44.16-3-1.56-4.2-4.21-4.38-3.32-.23-4.46-2-6.2-5-2.84-4.85-3.93-10-5.82-15.08C335.16,258.55,334.32,255.63,336,253Z" transform="translate(99 99)"/><path class="cls-21" d="M399,173h2v22c-1.55-.53-1.94-2.18-3.46-3.95-.14,4.64-2.6,5.55-6,4.95-2.76-.47-2.93,1-2.54,3.19.79,4.39-.77,6.06-5.57,5.93-13.12-.35-26.26-.12-39.39-.12l-.58-.6a8.88,8.88,0,0,1,0-7.11c1.13-1.56,2.91-1.34,5.28-1.75-4.71-.59-8.95.35-12.6-2a2.93,2.93,0,0,1-.87-1.36c-.25-1.54-.18-3,1.33-3.89,2.37-1,4.89-.8,7.36-.81,14.93,0,29.87,0,44.8,0,6.34,0,6.61-.38,6.76-6.82.05-2.47-.28-5,1-7.3A1.7,1.7,0,0,1,399,173Z" transform="translate(99 99)"/><path class="cls-22" d="M336,98a15.9,15.9,0,0,0,2.49,0c4.33-.68,6.28,1,5.53,5.45a10.36,10.36,0,0,0,0,2.49c.24,3.44-1.57,8.28.79,10,3.11,2.27,7.92,2.68,12.06,3,6.45.45,12.95.08,19.43.14,3.83,0,7-2.8,11-2.23,1.68.24,1.67-1.71,1.68-3,0-4,.17-8,0-12-.17-3.26,1.39-3.87,4.21-3.85,2.67,0,4,.71,3.87,3.65-.32,5.54,3.43,10.07,4,15.41v12c-1.92-.85-2.85-1.68-2.64-4.41.23-2.91-1.23-6.25-5.58-5.57-3.47.54-5.92,4.07-9.85,3.38-.15,0-.62.75-.64,1.16,0,.73.51,1.14,1.23,1.32,1.25.32,2.68-.26,4.39,1.25-14.36,5.78-28.25,5.61-42.43.27.31-.48.46-1,.8-1.19,1.4-.81,4.39.89,4.29-1.87-.08-2.21-2.88-.69-4.14-1.42C343.17,120,340,118.22,336,119a9.33,9.33,0,0,1-2.81-3.62c-.89-4.93,2.47-9.41,1.51-14.35A4.1,4.1,0,0,1,336,98Z" transform="translate(99 99)"/><path class="cls-23" d="M-99,330V-16a1.17,1.17,0,0,1,1.62.53c1.64,5.69.49,11.52.75,17.28.17,3.8,0,7.62,0,11.43q0,47.82,0,95.63,0,27.85,0,55.69a69.51,69.51,0,0,1,0,8.66c-.07,10.62,0,21.24,0,31.86q-.06,28.9,0,57.82c0,19.47,0,38.93,0,58.4a30.06,30.06,0,0,1-.34,7C-97.32,329.21-97.74,330.11-99,330Z" transform="translate(99 99)"/><path class="cls-24" d="M401,13H388a3.4,3.4,0,0,1-3.9.37c-1.58-1.84.2-3,.9-4.37,4.11-4.53-.06-3.78-3.13-4,2.46-2.91,5.56-5.25,4-9.45-.18-.47,1-2,1.73-2.17A78.9,78.9,0,0,0,401-11Z" transform="translate(99 99)"/><path class="cls-25" d="M-11-99H325a1.12,1.12,0,0,1-.46,1.57c-2.68,1.33-5.55.78-8.36.85q-159.17,0-318.31,0c-2.82-.09-5.71.5-8.4-.84A1.14,1.14,0,0,1-11-99Z" transform="translate(99 99)"/><path class="cls-26" d="M-99,330l1-1c2-8.5.42-17.13.83-25.7.62-12.93.24-25.91.13-38.87a188.84,188.84,0,0,1,.89-18.89c.72-2,.67-4.16,1-6.24.14-.93.43-2.09,1.55-2.16s1.49,1.08,1.7,2c.41,1.91.26,3.89.64,5.81-.3,5.59.91,11.12.8,16.71.23,10.41-.31,20.82,0,31.23-.71,5.34,1.4,10.9-1.31,16.07-2.3.16-1.64-1.63-1.64-2.73,0-14.17,0-28.35,0-42.53,0,20.11-.39,40.22,1.08,60.29a4.74,4.74,0,0,1,0,1.76c-2.66,6.58.19,13.05.48,19.57.12,2.75,1.9,5.41.48,8.26a1,1,0,0,1-1.44.41c-3-5.77-3.94-12.1-5.1-18.37-.18-1,0-2-1-2.63Z" transform="translate(99 99)"/><path class="cls-27" d="M381-43c3.81,0,7.63.25,11.41-.07,4.19-.35,6.36.76,5.61,5.38A5,5,0,0,0,401-32v6c-1.65-1.11-2.77-.24-4.32.62-2.84,1.57-6.33,3.72-7.92-1.72A2.72,2.72,0,0,0,385.65-29c-3.77.32-5-1.59-4.65-5C381.59-37,378.19-40,381-43Z" transform="translate(99 99)"/><path class="cls-28" d="M393,377c-5.62,7.92-12,15-20.79,19.56-1.64.85-3.92,1.92-4.24,4.41H357c-1-1.61-.07-2.24,1.32-2.64,6.64-.15,11-4.88,15.75-8.4a73.56,73.56,0,0,0,9.12-8.15c1.69,0,1.4-1.45,1.76-2.42,1.12-3,3.35-4.31,6.49-4.26C392.36,375.43,393.37,375.67,393,377Z" transform="translate(99 99)"/><path class="cls-29" d="M401,315c-3.37-1.44-4.34-4-4.07-7.57.3-3.79.07-7.62.07-11.43-1.73-2.16-1.52-4.54-.79-7,2.25-2.47,2.9-.22,3.65,1.33s-.25,3.33,1.14,4.64Z" transform="translate(99 99)"/><path class="cls-30" d="M334,401c.43-1.76,3.09-1.85,3-4,3.33-2.54,6.77-4.63,11.27-4.1,2,.23,3.34-1,4.39-2.67,1.2-1.91,2.79-2.86,4.87-1,1.51,3.61-.24,5.46-3.49,6.51-3.67,1.76-7.76,2.66-11,5.26Z" transform="translate(99 99)"/><path class="cls-31" d="M-37,401h-6c-3.69-2.44-7.72-4.26-11.56-6.43A88,88,0,0,0-62.85,387c-2.42-1.92-5.29-4.09-4.3-8a2.62,2.62,0,0,1,3.16.87c2.79,3.87,7.47,5.74,10.34,9,3.4,3.86,7.81,4.56,11.65,6.85C-38.74,395.94-36,396.74-37,401Z" transform="translate(99 99)"/><path class="cls-32" d="M383,45c1.34-2.12.94-4.49,1-6.79.12-4,2.19-6.11,6.18-6.19,3.64-.07,7.3-.3,10.82,1v4c-1.82-1.06-3.37-2.57-5.58-3-7.37-1.27-9.42,1.1-9.42,11A2.17,2.17,0,0,1,383,45Z" transform="translate(99 99)"/><path class="cls-33" d="M401,367a15.08,15.08,0,0,0-5.07,8c-1.65.42-1.95-.94-2.54-1.92-.75-2.19.62-3.76,1.55-5.5,1.05-2,2.6-3.91,1.26-6.38a5,5,0,0,1,.28-1.38c1.48-1.61,1.57-4.55,4.52-4.78Z" transform="translate(99 99)"/><path class="cls-34" d="M-37,401c-.71-3.26-2.66-4.68-6-4a1.7,1.7,0,0,1,0-2.29c3.47-2,5.81-.06,8,2.29,4.24-.92,6.77,2.4,10,4Z" transform="translate(99 99)"/><path class="cls-34" d="M343,401c1.7-4.72,6.6-4.11,10-6,1.25-.82,2.59-.47,3.91-.31a2,2,0,0,1,.48,2.13A54.2,54.2,0,0,1,350,401Z" transform="translate(99 99)"/><path class="cls-35" d="M350,401c1.84-2.2,3.28-5.09,7-4,1.65-3.19,3.86-5.16,7.71-3.45,0,3.77-3.09,4.39-5.71,5.46a1.83,1.83,0,0,0-2,2Z" transform="translate(99 99)"/><path class="cls-36" d="M-53,401c.06-2.16-1.59-1.93-3-2.11-.48-2.31-5.14-2.87-2.71-6.42a2.64,2.64,0,0,1,3.19.81,29,29,0,0,0,8.91,5.79c.88.38,2,.54,1.56,1.93Z" transform="translate(99 99)"/><path class="cls-37" d="M-45,401a32,32,0,0,1-11-7,1.35,1.35,0,0,1,2,0c4.09.23,6.41,4.42,10.5,4.75.22,0,.33,1.47.5,2.25Z" transform="translate(99 99)"/><path class="cls-38" d="M401,355c-1.86,1.25-1.67,4.13-4,5a2.72,2.72,0,0,1-.89-1.25,10.4,10.4,0,0,1,.06-5.37c.65-1.65,1.2-3.36,2.83-4.38h2Z" transform="translate(99 99)"/><path class="cls-39" d="M401,295c-1.46-.07-1.66-.78-1.63-2.2,0-1.85-.25-3.86-2.37-4.8l-.55-.56a8.77,8.77,0,0,1,0-6.89L397,280a5.67,5.67,0,0,1,2,4.86c-.05,1.74.16,3.33,2,4.14Z" transform="translate(99 99)"/><path class="cls-40" d="M-98-16h-1v-3c2-3.38.3-7.79,3-11l.5.5a5.92,5.92,0,0,1,.63,2.77c-.07,1.18-.18,2.36-.36,3.53a18,18,0,0,0-.52,2.82C-96-18.64-95.95-16.78-98-16Z" transform="translate(99 99)"/><path class="cls-41" d="M334-99c1.17,1.92,3.84.06,5,2a7,7,0,0,1-2.88,1.19,9.44,9.44,0,0,1-4.59-.5,1.52,1.52,0,0,1-.84-1.18c.24-1.3,1.71-.74,2.31-1.51Z" transform="translate(99 99)"/><path class="cls-42" d="M333-99A2.24,2.24,0,0,1,331-98c-2,1.47-4,1.68-5.92-.09l0-1Z" transform="translate(99 99)"/><path class="cls-42" d="M-11-99l0,1c-1.64,1.74-3.73,1.34-5.76,1.22-1.1-.35-2.39-.52-2.21-2.17Z" transform="translate(99 99)"/><path class="cls-43" d="M-19-99a2.25,2.25,0,0,0,2.06,1,1,1,0,0,1-.31,1.41,6.46,6.46,0,0,1-3.95.75c-1.25-.32-2.89-.17-2.8-2.2,1.38-.15,2.95.46,4-1Z" transform="translate(99 99)"/><path class="cls-44" d="M397,288v8c-2.83.58-5.17,1.63-4.41,5.21.45,2.14-1.3,2.89-2.41,4s-3.57,1.31-1.84,4.05c1.05,1.66-.9,1.79-2,1.7-2.24-.18-3.57,1.34-5.31,2.23-3.12,1.6-2.7,3.06.44,5.43H-66a5.57,5.57,0,0,0-4.26-7.41c-2.66-.46-5.58.1-3.45-4.16.19-.37-.82-1.34-1.27-2,2.71-2.35,6-1.59,9.1-1.59,55.83-.07,111.66,0,167.49-.08a6.74,6.74,0,0,1,4.15,1.5c6.42,5,13.72,6,21.63,5.75,12.46-.35,24.94-.13,37.42-.08,8.79,0,17.59.19,26.29-1.46,2.28.75,4.62.38,6.94.38,35.43,0,70.88-.35,106.31.15,22.61.31,45.21.24,63.47.43H324.15c-.5,0-1,0-1.49,0-2-.12-4.58.21-4.48-2.58.09-2.53,2.64-2.57,4.63-2.74,3.8-.33,7.63.3,11.4-.29.67-1.14.39-2.38.43-3.58s0-2.16,0-3.24c0-3.06-.49-6.16.72-9.12,3.72-1.55,6.33-.6,6.19,2.93-.17,4.25,1.87,5.12,5.29,5.37,1.8.13,4,.38,4.18,2.72.18,2.06-2,2.18-4.22,3.45,12.94,2.35,25,3.25,37.42-.59-2.86-2.26-3.13-4,.15-5.23a8.16,8.16,0,0,1,2.45-.45c3.06-.21,4.75-1.17,4.67-4.88C391.4,288.7,393.09,286.2,397,288Z" transform="translate(99 99)"/><path class="cls-45" d="M-75,326c2.31,2.92,5,5.38,5.57,9.6.5,3.51,3.11,5.51,7.54,5.51q218.79-.19,437.59,0c3.71,0,6.21-1.1,7.36-4.41s1.77-7,4.95-9.38c1.26-1,.65-2.14-1-2.24a15.41,15.41,0,0,1-5.06-.72c3.44-3.79,8.11-2.06,12.24-2.18,3.11-.1,2.76,2.69,2.8,4.84-5.73.6-7.93,4.53-9.76,9.44s-4.79,9.23-7,13.94c-1.89,1.24-2.8,3.19-3.89,5.06-2,3.48-4.35,3.72-6.29.37-1.53-2.63-3.55-3.23-6.17-3.2-1.17,0-2.34,0-3.5,0H-46.22c-4.07,0-8.18-.71-10.63,4.31-1.26,2.6-3.88,1.2-5.13-.89s-2.3-4.42-4.46-5.85c-3.24-6.89-6.51-13.78-9.06-21A2.88,2.88,0,0,1-75,326Z" transform="translate(99 99)"/><path class="cls-46" d="M102,304c-1.64,1.74-3.77,1-5.67,1Q10.67,305-75,305c-1.66,0-3.31,0-5,0-1,0-2.37-.14-2.61.93-1.35,6.08-5.22,11.42-5.27,17.87-.07,7.39-.1,14.78-.15,22.18-3-.72-2.3-3.25-2.35-5.23-.18-6.81-.35-13.63-.06-20.44.14-6.73.43-13.45,1-20.17a26.54,26.54,0,0,1,.37-4c1.86-10.08,2.62-10.76,12.92-10.77q80.64,0,161.28,0c4.26,0,8.43.13,10.8-4.37,1.4-.54,2,.62,1.94,1.45C97.78,290,99.87,297,102,304Z" transform="translate(99 99)"/><path class="cls-47" d="M-75,326c2.28,5.32,2.87,11.38,6.62,16,1.81,2.24,1.17,4.61,1.38,7l-.6.38c-2.48,0-2.66-2.16-3.47-3.66a14.78,14.78,0,0,0-3.87-5.11,5.34,5.34,0,0,0-5.62-.87c-1.93.9-1.26,2.83-1.28,4.43,0,2.79.58,5.64-.63,8.34L-83,353c-4-7.67-3.79-14.89-.7-23.31,1.83-5,3.22-6.21,7.69-5.72C-74.32,324.15-74.71,325-75,326Z" transform="translate(99 99)"/><path class="cls-48" d="M381,349c-.26-3.12.32-5.94,2.69-8.23s3-5.28,3.75-8c1.44-5.38,4.53-6.9,9.56-5.73,0,4.93,2.54,9.36,2.71,14.3.09,2.65.64,5.23-.71,7.7a5.49,5.49,0,0,1-2,4l-.53-.51c-1.25-2.69-.58-5.55-.78-8.34-.12-1.6.38-3.56-1.53-4.39s-3.9-.16-5.54,1.17c-2,1.62-3.06,3.88-4.15,6.13-.58,1.18-1.14,2.47-2.84,2.32Z" transform="translate(99 99)"/><path class="cls-49" d="M-89,320c0,7.1,0,14.21,0,21.31,0,1.6-.55,3.38,1,4.69-.34,4,4.22,6.73,3,11-.11.24-.23.47-.34.71a2.44,2.44,0,0,1-2.08.8,2.86,2.86,0,0,1-2.34-2.31c-.53-5.38-3.41-10.37-2.82-15.91.44-4.12-2.55-7.89-1-12.07.93-1.23,2.12-2.16,1.87-4.14C-92,322.28-91.72,320.13-89,320Z" transform="translate(99 99)"/><path class="cls-47" d="M-85,357c2.68-.33,1.81-2.43,2-4h0a2,2,0,0,1,3.24.89c1.52,5.61,5,10.6,5.32,16.59-.67,1.24-1.65.83-2.62.5-2.08-1.13-2.4-3.4-3.31-5.27s-1.33-3.74-3.48-4.47c-1.36-1.15-2.34-2.4-1.16-4.24Z" transform="translate(99 99)"/><path class="cls-50" d="M102,304c-5.11-6.93-6-14.73-4.7-23-.31-3.87,2.72-6.34,4-9.55.59-1.53-.52-2.53-1.25-3.55-5.27-7.35-5.39-15.32-3-23.63,1-2.74,3.09-4.95,3.79-7.84-.15-4.55-.33-9.09-.19-13.64.3-3-.34-5.44-3-7.35-8.48-6-15.32-13.69-21.3-22.16-3.28-4.88-5.62-10.25-8.23-15.49-1.16-3.19-2.08-6.46-3.39-9.6-4-11.27-3.08-23-3-34.59.66-5.13,2.1-10.1,3.29-15.11a138.06,138.06,0,0,1,7.11-17.38c1.94-2.67,3.43-5.62,5.27-8.35a110.71,110.71,0,0,1,7.14-8.6c9.7-10.6,20.58-19.43,34.9-23.05,19.11-6.27,38.33-7.43,57.73-1.35,2.51.79,5,1.6,7.52,2.41l14.94,8c10.6,4.75,17.47,13.52,24.24,22.41,2.48,3.8,4.94,7.62,7.05,11.65,2.26,5.28,4.35,10.63,6.15,16.08,1,3.4,2.23,6.75,1.47,10.39-.4,4.61,3,8.61,2,13.36-.4,2.06,0,4.25-.43,6.35-1.14,6.73-1.59,13.6-4,20.08-1.42,3.48-2.7,7-4.21,10.49-3.79,7.72-8.17,15.05-14.06,21.39-1.84,1.73-3.63,3.52-5.38,5.34-3.79,3.63-7.21,7.74-12.46,9.43-.57,8.07-3.6,16.33,1.92,23.9,5.1,9,4.69,17.84-.61,26.55-1,1.61-2.16,3-.64,4.87,1.59,2.58,3.42,5,4.36,7.94,1.87,7.47,1.42,14.62-2.89,21.25a10.4,10.4,0,0,1-1.39,1.78c-3,2.56-5.17,6.43-9.86,6.45-6.07,2-12.32,2.08-18.63,2-18.24-.12-36.49,0-54.73-.07-4.16,0-7.28-2.67-10.71-4.46A43.83,43.83,0,0,1,102,304Z" transform="translate(99 99)"/><path class="cls-9" d="M119.39,61.12A102.42,102.42,0,0,0,84.84,85c-2.13,1.66-4.65,1.54-7.15,1.58-7.8.11-15.61-.26-23.41.25A7.67,7.67,0,0,1,50.23,86c-3.37-1.61-6.42-3.78-9.76-5.46-5.75-3-10.66-8-17.93-7.15-31.83.37-63.66.06-95.48.16-1.67,0-3.33,0-5,0-2.74,0-4.5,1-4.52,4a11,11,0,0,1-3.44,8.06c-3,2.92-1.73,6.52-1.77,9.93-.07,4.93-1.21,6-5.59,5.58a5.42,5.42,0,0,1-1.09-3.73c.12-9.08-.56-18.17.37-27.21,2-2.58,2.34-.93,2.45,1.06,0,.65,0,1.31,0,2,.07-.76-.08-1.57.5-2.22,2.57-1.86,4.8-3.82,4.08-7.55-.29-1.56.77-2.43,2.41-2.42,1.33,0,2.66,0,4,0H108.09C111.86,61,115.62,61.08,119.39,61.12Z" transform="translate(99 99)"/><path class="cls-11" d="M-91,71v5.45c-2-2.66.17-5.59-2-7.45-2.74-7.82-1.55-15.54.64-23.23,2-1.81,3.62-3.79,3.93-6.68.49-4.4,3.45-6.19,7.55-6.53,2.16-.18,4.33-.13,6.5-.13H58.07c2.63,0,5.36.4,7.79-1.1a2.46,2.46,0,0,1,3-.1c2.4,2.53,4.45,5.37,6.65,8.08,1.74,2,3.18,4.24,4.89,6.28a3.72,3.72,0,0,1,.68,3.17c-.62,3.34-3.3,2.2-5.21,2.21Q40.47,51.05,5,51c-27.94,0-55.88,0-83.82,0-4.86,0-7.35,1.4-8.57,6.65C-88.38,62.05-92.22,65.82-91,71Z" transform="translate(99 99)"/><path class="cls-51" d="M213,53q-56.26,0-112.54,0c-2.06,0-4.92,1.23-5.64-2.32-1-2.05.71-4.62-1.26-6.49-.8-2.28-3.87-4.33-.71-7,2.24-.85,4.59-.65,6.91-.66,14.62,0,29.24,0,43.87,0,2.59,0,5.36.54,7.63-1.37,1.32-1.12,3-1.4,4.53-2.17a5.11,5.11,0,0,1,4.19-.17c3.58,1,7.25.72,10.88.72,12.44,0,24.88,0,37.31,0,2.65,0,5.33-.13,7.78,1.18a4.05,4.05,0,0,1,1.25,1.12c.62,3.47-2.08,5-4,7-2.2,1.92-2.2,4.14-1,6.62C212.64,50.53,213.71,51.56,213,53Z" transform="translate(99 99)"/><path class="cls-52" d="M228.22,45,225,50l-1,1.13c-2.57,3.42-6.13,3.58-9.28,1.67-2.65-1.62-5.57-4-3.43-8.09C216.94,45.92,222.6,44.26,228.22,45Z" transform="translate(99 99)"/><path class="cls-53" d="M95,44.18c2,2.2.28,4.31-.17,6.45l-.9,1.07A7.17,7.17,0,0,1,85,52.86l.08,0a6,6,0,0,1-3.08-3l-1-1.14c-.49-.89-1-1.79-1.45-2.68a84.11,84.11,0,0,1,10.53-.25C92,45.8,93.71,45.7,95,44.18Z" transform="translate(99 99)"/><path class="cls-9" d="M211.87,44.8c-1.5,3.49.37,5.91,3,7.55,3.18,2,6.36.92,9.21-1.21-2.8,5.82-7,3.38-11,1.86-2.36-3.49-5.06-6.94-.93-11A1.82,1.82,0,0,1,211.87,44.8Z" transform="translate(99 99)"/><path class="cls-9" d="M85,52.86c3.09.59,6.1.64,8.88-1.16C91.33,54.9,88.51,56.38,85,52.86Z" transform="translate(99 99)"/><path class="cls-9" d="M82,49.89l3.08,3C83.05,53,82.07,51.91,82,49.89Z" transform="translate(99 99)"/><path class="cls-54" d="M199.83,273.07c-1.41-1.11-3.27-1.87-1.16-4.18,7.73-8.46,7.41-18,3.28-27.88,2.41,1.28,3,3.52,3.09,6,1.55,3.51,1.34,7.19.47,10.73-.65,2.67.29,3.3,2.63,3.29,5.15,0,10.31,0,15.46,0q51.38,0,102.76.05c4.48,0,8.67.34,7.73-6.2-.17-1.18.81-1.7,1.91-1.85v9c0,.28.05.56.07.85a14.91,14.91,0,0,1-.58,7.72c-1.37,2.7-3.79,3.6-6.56,3.89a59.82,59.82,0,0,1-6,.15H209.05C205.89,274.62,202.7,274.8,199.83,273.07Z" transform="translate(99 99)"/><path class="cls-55" d="M381-43c.28,2.28-.63,4.6,1.76,6.68,1.78,1.55-1.79,1-1.76,2.32-7.72-1.74-15.56-.91-23.35-.89-2.42,0-5.63,0-5.71,3.93,0,1.51-1.09,1.86-2.38,2-2.64.21-4.27,1.5-5.95,3.75-1.81,2.43-5.3,2.11-7.43.07C334.3-27,332.41-27,330.27-27q-205.6,0-411.22,0c-2.63,0-4.86.18-6.38,2.75A4.2,4.2,0,0,1-91-22c-.37-1.89-1.33-3.59-1.68-5.49a1.87,1.87,0,0,1,2.58-1.72c9.36-2.14,18.86-1.39,28.31-1.39q192-.06,384,0a46.25,46.25,0,0,0,8-.29c1.13-.2,2.6-.35,2.67-1.75.08-1.65-1.55-1.43-2.6-1.57a46,46,0,0,0-6-.13H-69.72c-2.34,0-4.67.07-7,0-6-.3-7.1-1.79-6.09-7.9,1.37-2.16,3.45-2,5.56-1.69a4.14,4.14,0,0,1,1.3.59c5,4,5,4,9.39-.31a5.53,5.53,0,0,1,1.69-.52c2.84-.25,5.67-.15,8.5-.15,73,0,145.92.16,218.88-.06q90-.27,179.9-.1c10.49,0,21-.14,31.46,0C376.35-44.59,378.92-44.83,381-43Z" transform="translate(99 99)"/><path class="cls-5" d="M-76-43h-6c-.24.26-.6.54-.82.41-1-.64-2.06-1.69-1.72.81.77,5.7.48,10.94-6.46,12.78a2.06,2.06,0,0,0-1,2,4.94,4.94,0,0,1-2,2v4c-1.7.37-1.79-.88-2-2l.06-4a2.74,2.74,0,0,0,.46-4c.19-2.13,1-4.08,1.51-6.13L-93-39c-.07-2.24,1.49-3.92,2-6a2,2,0,0,0,1-2,14,14,0,0,1,2-4.1L-82-61c.91-1.4,2.13-2.57,3-4l1-1a1.64,1.64,0,0,1,1.32-.44c2.14,2.78,4.73,2.61,7.47,1.08a13.77,13.77,0,0,1,5.09-1.93c3-.35,5.08-2,6.83-4.49,4.45-6.27,9.89-6.09,13.74.42,1,1.76,2.42,2,4.19,1.88,1.46-.13,2.81-1.21,4.36-.53v3c1.1,4.24.14,6.19-4,6.29-7.06.17-14.1,1.13-19.27.71,7.73,0,17.35-.61,27-.6q99.9.08,199.8,0a36,36,0,0,0,10.86-1.19c2.84-.87,6.29-1.73,8.07,1.56,1.63,3-.91,5.27-2.82,7.35a23.61,23.61,0,0,1-2.15,2.09,4.45,4.45,0,0,1-3.73.39c-3.63-2.12-7.62-2.07-11.64-2.06l-228.87,0c-2.3,0-4.61-.16-7.28,0,3.68,1.3,4.69,3.61,3.51,6.92A6,6,0,0,1-67-43h0A7.43,7.43,0,0,1-76-43Z" transform="translate(99 99)"/><path class="cls-55" d="M-98-16a8.91,8.91,0,0,0,1-5,6.35,6.35,0,0,0,4,1c.86,1.2-.24,2.9,1,4-2,2.69-.85,5.78-.94,8.66C-93.13-.91-93,5.53-93.9,12V-9.73H-95V13a.93.93,0,0,1-1.41-.55c-.16-7.71,0-15.43-.08-22.66-.12-1.15-1.12-.19-.55-.54.15-.09.26,0,.28.35.54,7.28.13,14.57.21,21.86,0,.9-.26,1.63-1.4,1.51Z" transform="translate(99 99)"/><path class="cls-7" d="M-91-11V4.73l-1,0V-11Z" transform="translate(99 99)"/><path class="cls-56" d="M-93-20c-1.81,1.65-3.28,1.91-4-1A2,2,0,0,1-96-23l2,2Z" transform="translate(99 99)"/><path class="cls-56" d="M-94-25a3.46,3.46,0,0,1,2-2,8.21,8.21,0,0,1,1,5C-92.31-22.69-91.81-25.19-94-25Z" transform="translate(99 99)"/><path class="cls-57" d="M-35-70c-5.64,3.54-7.13,3.08-10.24-3.21C-46-74.85-47.47-75-49-75c-2.74,0-5.58.11-6.79,3-1.66,4-4.54,6.07-8.81,5.92-2.93-.1-4.09,3.11-7.12,3.15-4.14.05-4.13.41-5.23-3.11-.47-2.41,1.78-2.78,3-4l3-4c1.88-1.11,3.19-2.93,5.08-4l2-1A8.31,8.31,0,0,1-61-82L-55-86c2.84-1.37,5.77-2.6,8-5,7.61-2.59,15.15-5.4,23.06-7,.7,1.23,1.91.94,3,1a2.91,2.91,0,0,1,.71.89,4.3,4.3,0,0,0,2.3.94c2.67.85,5.12,3.29,8.22,1.1a18.61,18.61,0,0,1,7.65.19c2.3.65,4.64.42,7,.42q152.1,0,304.19,0a27.89,27.89,0,0,0,7-.37,20.47,20.47,0,0,1,7.6-.36c1.43.27,2.72,1.08,4.08,1.39,1.09.24-.53-.48,0-.77a1.23,1.23,0,0,1,.68-.9,1.56,1.56,0,0,1,.44,0c.13,0,.23.13.35.21-2.07-1.47-1.09-2.3.7-2.4,2-.12,4.13.7,6.15-.28l3,0c-.52,1.33-.51,2.42,1.33,1.73a11.32,11.32,0,0,1,4.73-.71,12.88,12.88,0,0,0,4.86,1A28.83,28.83,0,0,0,361-91c2.22,2.38,5.16,3.59,8,5,1.54,2,4.61,1.72,6,4,1.39.92,2.58,2.12,4,3l1,1c1.84,1.15,3.18,2.92,5,4l3,4c1.17,1.18,3.42,1.55,3,4-1.92.69.29,3.46-1.35,3.54A11.76,11.76,0,0,1,383-63.89a12.16,12.16,0,0,0-6.37-2.23A6.42,6.42,0,0,1,371-69.78c-1.45-3.64-4.66-3.85-7.49-4.87-1.79-.65-3-.36-3.56,2-1.23,5-5.53,6.07-9.8,3.38-5.66-3.58-11.55-6.92-18.81-4.85a17.11,17.11,0,0,1-4.48.12q-169.95,0-339.92-.19c-6.64,0-13-.24-19.27,2.18A4.19,4.19,0,0,0-35-70Z" transform="translate(99 99)"/><path class="cls-56" d="M182-51c.14-2.69,2.59-3.72,4-5.51a3.29,3.29,0,0,0,.79-3.22c-.5-1.46-1.85-1-2.94-1.29-3.65-.87-6.3,2.16-10,2.15Q55.8-59.12-62.27-59c-1.28,0-2.56-.12-4.14-.2,1.14-2.91,3.25-3.21,5.39-2.58,7.79,2.31,15.46-1.06,23.23-.38C-34.73-61.9-35-64.85-35-67c3.33-.11,6.85.93,8.92-3.42.7-1.48,3.85-.91,5.66-.38,3.3,1,6.59.79,9.9.79q167.91,0,335.82,0a41.82,41.82,0,0,0,8.9-.71c2.65-.56,6.06-1.63,7.48,2.57.4,1.16,1.92,1.22,3.1,1.13,2.41-.18,4.18.19,4.54,3.17.18,1.47,1.8,2.11,3.16,1.79,9.8-2.31,13.95,4.7,18.52,11.06a4.33,4.33,0,0,1-4.67.87c-4.7-1.62-9.54-1.25-14.35-1.25H199.1c-4.32,0-8.66-.31-12.88,1.08A4,4,0,0,1,182-51Z" transform="translate(99 99)"/><path class="cls-27" d="M182-51c19.22-4.17,38.68-1.6,58-1.87,33.48-.47,67-.15,100.47-.12,10.21,0,20.49-.8,30.52,2,2.13,2.51,4.19,4.71,8.15,4.2,2.34-.3,1.67,2.28,1.85,3.8H-67v-2c2.74-2.23,6-1.6,9.13-1.6q111.09,0,222.17,0c1.83,0,3.67-.12,5.49,0,4,.31,7.2-.71,9.21-4.4Z" transform="translate(99 99)"/><path class="cls-58" d="M391-66l-3-4c2.46.18,3.68,1.61,4,4Z" transform="translate(99 99)"/><path class="cls-59" d="M393-65c1.65.85,2.88,2,3,4C394.37-61.84,393.11-63,393-65Z" transform="translate(99 99)"/><path class="cls-60" d="M200,217.11,212,207c.09,3.33,1.5,4.53,5.11,4.51,36.92-.14,73.85-.09,110.77-.07,3.39,0,6-.4,7.09-4.5,1-3.8,4.1-4.2,9-1.95v8c-4.49-.22-8.61-.66-8.29,6.3.15,3.26-2.15,5.85-6.85,5.83-42.93-.22-85.86-.14-128.78-.14C200.06,222.36,200,219.74,200,217.11Z" transform="translate(99 99)"/><path class="cls-4" d="M366.53-19c3.83,0,7.66,0,11.49,0,1.15,0,2.59-.11,2.72,1.46s-1.05,2.44-2.54,2.45q-11.73.08-23.47,0a2.21,2.21,0,0,1-2.46-2.51c.18-1.54,1.63-1.38,2.78-1.39C358.88-19,362.71-19,366.53-19Z" transform="translate(99 99)"/><path class="cls-17" d="M223,93a117.06,117.06,0,0,0-23.46-22.85c25.1-.1,50.2.18,75.29,0,19.56-.15,39.16,1,58.7-.86,1.83-.17,2.4.65,2.41,2.25,0,1.83,0,3.66,0,5.49-.16,7.59-1.4,8.93-9,9-12.76.08-25.52,0-38.28,0-2.51,0-4.94-.29-6.84-2.19-1.09-2.87.15-6.24-1.89-8.9-2.58-2.53-5.21-1.51-7.83-.09-4.64,2.61-9.2,5.34-13.86,7.91-4.34,2.69-9,4.89-12.95,8.21a15.66,15.66,0,0,1-3.09,2.54C235.84,94.79,229.39,95.6,223,93Z" transform="translate(99 99)"/><path class="cls-24" d="M385,9c-.33,1.33-.67,2.67-1,4-1.55,1.6-3.59,1.56-5.56,1.57-9.1.09-18.19,0-27.29,0A11.15,11.15,0,0,1,345,13H332c-1.92,1.72-4.3,1.62-6.61,1.61-28.59-.06-57.17,0-85.76-.07-23.26,0-46.53,0-69.79.08-2.81,0-5.67.33-8.35-.9-2.12-1.48-1.76-3.77-1.86-5.89-.18-3.82.27-7.66-.33-11.45-2.69-5.65-4.64-6.2-12.18-3.41a17.23,17.23,0,0,1-1.76,0H-76.89Q31.35-7,139.58-7c2.14,0,4.35-.41,6.4.63,1.86,2.45,1.69,5,.29,7.55-2.84,2-6.1,1.37-9.21,1.37q-104.9.06-209.8,0c-1.83,0-3.66,0-5.49,0-5.94.11-6,.12-5.35,6a6,6,0,0,1-.92,4.28A3.23,3.23,0,0,1-89,13c.74-1.34,1.46-2.87.93-4.28-1.32-3.58-2-6.78,2-9.24,1.13-.7.12-1.67-.3-2.56C-89.3-9.27-88.15-11-81.21-11H52.18q138.38,0,276.76-.09c5.85,0,10.33,4.06,16,4.17,1.19,0,3,1.64,2.59,2.63-1.75,4.28,2.13,5.79,3.77,8.4-.7,1.95-5.38-.39-3.86,3.43,1.08,2.7,3.11,3.61,5.8,1.39,1.49-1.23,3.49-1.07,5.31-.91,7.86.67,16-1.71,23.65,1.78C382.89,10.1,384.06,9.29,385,9Z" transform="translate(99 99)"/><path class="cls-15" d="M-89,13h4c1.92-1.72,4.31-1.61,6.63-1.62q109,0,218,0c2.16,0,4.36-.08,6.3,1.17,2.05,2.78,1.82,5.67.38,8.61a6.16,6.16,0,0,1-4.17,1.32c-21,0-42,.46-63-.21a5.86,5.86,0,0,1-1.62-.46c-1.35-.68-2.08-2.05-3.19-3-1.83-1.59-3.86-2.63-6.3-1.58A5.81,5.81,0,0,0,64.3,22.6c-.1,1.79.08,3.64-1,5.26-2.69,2.36-6,1.7-9.07,1.71q-65.58.06-131.15,0c-3.67,0-7.25,0-10.55,2.14-3,2-4-.22-4.53-2.73.3-3.4-1-7,2.42-9.92C-88.47,18.11-89.14,15.08-89,13Z" transform="translate(99 99)"/><path class="cls-14" d="M-92,29c1.15,1.7,2.11,4.22,4.43,1.07,1.76-2.39,4.31-2.08,6.81-2.08q69,0,138.1,0c2,0,4.91,1.43,5.74-2.13a1.36,1.36,0,0,1,1.27.11C65.48,27.49,67.51,28.58,67,31c0,1.26,1.22,3.2-1.6,3-1.16-.07-2.33,0-3.49,0H-78.2c-7.71,0-7.85.1-8.8,7.7-.37,3-2,4.37-5,4.3a1.21,1.21,0,0,1-1-1Z" transform="translate(99 99)"/><path class="cls-61" d="M-93,45l1,1c-.62,7.66-1.37,15.3-1,23v32c1.56,1.74,1.63,3.9,1.53,6-.22,4.42,0,8.84-.18,13.25-.08,1.86.38,4.1-2.22,4.87-1.4-5.37-.23-10.84-.61-16.25q0-27.09,0-54.17,0,27,0,53.9c-.09,5.37.2,10.74-.15,16.11a1.1,1.1,0,0,1-1.65.07c-1.43-5.52-.37-11.15-.66-16.73-.27-5.1.45-10.24-.43-15.33.09-14.25,0-28.5.2-42.75.11-10.41.62-20.84.25-31.27-.07-1.93-.49-4,1-5.73h1c0,9.79-.4,19.58,1,29.32C-93.87,43.32-93.92,44.32-93,45Z" transform="translate(99 99)"/><path class="cls-62" d="M-47.06-91c-1.71,3.19-4.57,4.53-8,5C-52.79-88.29-49.88-89.56-47.06-91Z" transform="translate(99 99)"/><path class="cls-63" d="M-94-37.13-95.06-30a.55.55,0,0,1-1,0l0,0A10.19,10.19,0,0,1-94-37.13Z" transform="translate(99 99)"/><path class="cls-64" d="M-91-45c.24,2.3-1.1,4.06-2,6C-94.37-41.73-92.21-43.21-91-45Z" transform="translate(99 99)"/><path class="cls-65" d="M-65.93-78c-1.3,1.84-2.54,3.76-5.08,4C-69.78-75.91-68.51-77.78-65.93-78Z" transform="translate(99 99)"/><path class="cls-66" d="M-74-69.95l-3,4h-1C-77.7-68.34-76.48-69.77-74-69.95Z" transform="translate(99 99)"/><path class="cls-59" d="M-79-65c-.09,2-1.35,3.15-3,4C-81.9-63-80.67-64.14-79-65Z" transform="translate(99 99)"/><path class="cls-67" d="M-88-51.07A5.47,5.47,0,0,1-90-47C-90.9-49.1-89.38-50.06-88-51.07Z" transform="translate(99 99)"/><path class="cls-68" d="M-61-82a6.19,6.19,0,0,1-2.93,3C-64-81.06-62.84-81.9-61-82Z" transform="translate(99 99)"/><path class="cls-11" d="M347,45c-2.12-2-4.71-2-7.43-2-33.93.05-67.85,0-101.78.08-3.15,0-5.39-.15-3.82-4.16a4.07,4.07,0,0,1,.64-3.78,3.87,3.87,0,0,1,4.65-1.18c2.09.77,4.27.58,6.42.58q40.13,0,80.23,0a67.11,67.11,0,0,0,9.26-1c10-1.38,14.34-1,12.43,10.81Z" transform="translate(99 99)"/><path class="cls-11" d="M383,45h3c-1.83,3.45-.76,7.17-1,10.76-.32,5-1.56,5.93-6,3.9-2.27-1-4.59-.78-6.84-.6-6.81.56-13.72-1.42-20.51,1.61-3,1.32-3.45-2.08-3.7-4.42-.38-3.74.86-7.64-1-11.25a2.19,2.19,0,0,1,3,0c2.23,2.77,1.11,6,1.33,9.12,4.66-3.68,25.68-3.68,30.32,0C381.91,51,380.76,47.77,383,45Z" transform="translate(99 99)"/><path class="cls-69" d="M211.87,44.8c.07-.92.14-1.85.2-2.78,2.31-1,3-3.64,5-4.93,2.89,1.49,6,1.47,9.16,1.5,2.09,0,4.34-.34,6,1.48a13.88,13.88,0,0,1-4,5C222.75,46.14,217.27,48.57,211.87,44.8Z" transform="translate(99 99)"/><path class="cls-70" d="M232.21,40.07c-3.94,0-7.88-.11-11.81,0-2.11,0-3.61-.39-3.37-2.93l-.12-1.1c-.06-2.45,1.62-2.71,3.47-2.78,3,.41,6,.31,9,.43,2.2.09,4.33.39,5.77,2.37L234,38.89Z" transform="translate(99 99)"/><path class="cls-71" d="M357,389c-1.14,0-2.92-.19-3.08.9-.77,5.32-4.54,4.56-8,4.07s-5.3,4-8.93,3q-178.65,0-357.29,0c-2.62,0-5.21.7-7.56-2.22-1.64-2.05-5.37-.46-8.15-.74a1.64,1.64,0,0,1-2,.32c-1-2.85-3.44-4.42-5.54-6.3a5,5,0,0,1-.49-1.54c-.08-2.22.35-4.08,3.07-4.31A9,9,0,0,1-35.84,384c4.33,4.73,9.88,6.56,16.09,6.57q176.67,0,353.35,0c6.11,0,11.84-1.53,16.08-6.45a37.24,37.24,0,0,1,6.52-3.44,3.16,3.16,0,0,1,3.71.3c1.27,1.27.78,2.75-.06,4.06S358.35,388,357,389Z" transform="translate(99 99)"/><path class="cls-72" d="M-43,387v1a13.25,13.25,0,0,0,5,6h2l1,3c-2.65-.75-5-2.8-8-2-5.19-.72-8.49-4.34-11.92-7.76-1.7-2.26-1.52-5.44-4.32-7.36-1.67-1.15-1.28-4-.37-6.05s2.86-2,4.69-2.08a9.31,9.31,0,0,1,3.9.57c6.14,5.13,14,6.65,21,9.85,1.61.73,4.25,1,2.88,4-3.7,1.19-6.76-.59-9.87-2.15a6.71,6.71,0,0,1-4-1c-1.64-1-3.34-.39-5.24-.62C-45.68,384.69-44,385.6-43,387Z" transform="translate(99 99)"/><path class="cls-73" d="M238.92,150.75,238,130a.6.6,0,0,1,1,0c-.56,3.82.85,5.12,4.9,5.09,27.88-.17,55.77-.11,83.65-.06,3.55,0,6.58-.7,8.45-4,2.93-1.74,5.69-2.21,8,1v8a.59.59,0,0,1,.26.67c-.09.22-.17.33-.26.33-1.49,0-3,.08-4.47,0-2.47-.16-3.41.78-3.61,3.39-.34,4.23-1.25,8.42-1.92,12.63-1.87,1.84-4.29,1.6-6.58,1.61q-40.89.06-81.78,0C238.5,158.58,238,157.86,238.92,150.75Z" transform="translate(99 99)"/><path class="cls-74" d="M239,130h-1q-1.06-5-2.11-10c2.38-3.2,5.92-2.58,9.15-2.59q39.58-.1,79.18,0c3.34,0,6.63-.12,9.77-1.42,2,.09,2,1.55,2,3,.23,2.27-.73,4.38-.56,6.79.24,3.24-3,3.22-5.61,3.22q-20,0-40,0c-14.33,0-28.66,0-43,0A26.59,26.59,0,0,0,239,130Z" transform="translate(99 99)"/><path class="cls-75" d="M344,141v-1a211.54,211.54,0,0,0,45,0c0,1.82-.1,3.65,0,5.46.16,2.49-.74,3.78-3.39,3.56-.81-.07-2.11-.21-2.4.21-4.41,6.65-11.1,2.9-16.74,3.7-2.92.41-5.95.07-8.93.07-2.62,0-5.43.5-6.64-2.85-.14-.4-.75-1-1.07-.92C342.6,150.22,344.06,145.08,344,141Z" transform="translate(99 99)"/><path class="cls-75" d="M344,132c-2.52-1.54-5.31-.85-8-1,.62-2.77,2.73-3.15,5-2.8C343,128.51,344.28,129.71,344,132Z" transform="translate(99 99)"/><path class="cls-32" d="M350,45h-3V42.5c0-8.33-4.44-11.23-12.14-7.63A12.83,12.83,0,0,1,329.12,36q-43,0-86,0c-1.9,0-4.59,1.18-5.23-2.16,0-1.44-.36-3.18,2.11-2.63,1.05,2,2.94,1.84,4.77,1.84,28.07,0,56.13,0,84.2,0,4.27,0,8.47-1.24,12.82-1,5.28.29,7.07,1.91,7.16,7.26C349,41.2,348.88,43.21,350,45Z" transform="translate(99 99)"/><path class="cls-32" d="M383,45V58.3c-1.87-7.26-7.47-5.19-12-5.28-3.82-.08-7.65,0-11.48,0-6.47,0-6.47,0-8.75,6.35C349.41,54,350.28,49.46,350,45Z" transform="translate(99 99)"/><path class="cls-76" d="M244,21c.1.67.21,1.33.31,2,0,3.2-2,5.21-4.37,7-3.69.84-7.47.42-11.2.69-1.94.13-3.92-.59-4.5-3,0-2.76,2.12-4.37,3.46-6.4A5.13,5.13,0,0,1,230,20C234.71,19.6,239.51,18.41,244,21Z" transform="translate(99 99)"/><path class="cls-77" d="M225,27.14c1.15,2.73,3.28,2.52,5.7,2.15,3.1-.47,6.27-.87,9.25.7l.06,1.17-2.11,2.63L235.12,36c-3.36-1.21-6.85-1-10.33-1-1.74,0-3.74.62-5-1.37C219.83,30.05,221.58,27.91,225,27.14Z" transform="translate(99 99)"/><path class="cls-15" d="M229.22,21l-1.12,1c-1,1.58-2.6,1.83-4.35,1.79-18.87-.49-37.74-.07-56.61-.24-2.14,0-4.33.09-6.23-1.23-1.7-3.16-2.08-6.29.26-9.34H332c.82,4.76-1.08,6.16-5.93,6.11C301,18.87,275.84,19,250.72,19c-2.89,0-5.58-.28-8-1.94C237.42,15.64,233.06,17.45,229.22,21Z" transform="translate(99 99)"/><path class="cls-78" d="M345,13h43c-1.51,3.16-6.21,4.56-4.68,9.6.39,1.28-2.84,2.36-4.9,2.37-7.95,0-15.9.17-23.84-.06-3-.08-5.87-.52-4.88-5.3C350.3,16.72,346.09,15.61,345,13Z" transform="translate(99 99)"/><path class="cls-79" d="M229.22,21c4.93-6.51,6.22-6.88,13.5-3.91.44,1.3,1.72,2.31,1.32,3.9Z" transform="translate(99 99)"/><path class="cls-80" d="M223,93c6.62-.48,13.34,1.12,19.87-1,2.21,2.25,1.13,6.3,4.37,8s6-1,9-1.38a3.91,3.91,0,0,1,1.93.36c8.81,1,17.64.37,26.46.45,12.66.12,25.32-.15,38,.12,5.38.11,9.94-.23,11.38-6.54,3.21.65,1.57,3.24,2,5v3c-3.5,8.57-3.5,8.54-13.23,8.58-28.74.1-57.49-.36-86.22.3-4.67.1-5-3.48-6.9-5.79Z" transform="translate(99 99)"/><path class="cls-81" d="M334,93c0,8,0,8-7.79,8-21.45,0-42.9,0-64.35,0-1.75,0-4.22,1.1-4.86-2,2.68-4.66,7.75-6,11.93-8.57a2.22,2.22,0,0,1,2,.46c-.81,3.89,2.28,2,3.44,2C294.27,93,314.14,93,334,93Z" transform="translate(99 99)"/><path class="cls-82" d="M271,90.89l-1.68.26c-6.5.73-13.06,0-19.57.65A5.05,5.05,0,0,1,244.89,90c3.86-3.49,8.45-5.78,13.08-8,5.56,0,11.12-.11,16.68-.08,2.16,0,4.78-.23,5.31,3Z" transform="translate(99 99)"/><path class="cls-83" d="M280,84.88c-4.34-3.53-9.39-1.25-14.09-1.6-2.71-.2-5.46.4-7.9-1.29a85.14,85.14,0,0,1,13.77-8.13A35.94,35.94,0,0,1,281,74c2,3.09,2.62,6.32,1,9.77Z" transform="translate(99 99)"/><path class="cls-84" d="M-61.09,394.06c-5.64-1.15-8.59-5.27-11-10,.06-.23.11-.47.17-.7.54-.9,1.72-2,2.29-1.46,3.78,3.33,9.15,5.3,10.11,11.19C-59.77,393.9-60.16,394.42-61.09,394.06Z" transform="translate(99 99)"/><path class="cls-85" d="M-85,357a5.61,5.61,0,0,0,2,4c2.42,3.53,4.47,7.21,4.63,11.64A8.79,8.79,0,0,1-81,376l-2-3c-1.81-4.48-4.27-8.74-4.74-13.69A2.86,2.86,0,0,1-87,358Z" transform="translate(99 99)"/><path class="cls-86" d="M-87,359c1.12,4.74,4,9,4,14a37.81,37.81,0,0,1-8-14,1.8,1.8,0,0,1,1.08-.45A6.22,6.22,0,0,1-87,359Z" transform="translate(99 99)"/><path class="cls-87" d="M-72.1,384.09c-1-.21-2.2.13-2.76-1.13-.34-2.25-2.83-2.81-3.7-4.82s-.3-2.7,1.4-3.28c5.22,1,7.28,4.56,5.2,9.1Z" transform="translate(99 99)"/><path class="cls-88" d="M-77,376c-2.25.23-.69,1.2-.59,2.16.22,2.09,3.86,2.09,2.72,4.8-2.76-1.68-4.47-4.28-6.15-6.92,0-1.45-.06-2.94,2-3a2.53,2.53,0,0,1,2.4,1.08A1.8,1.8,0,0,1-77,376Z" transform="translate(99 99)"/><path class="cls-89" d="M-61.09,394.06-60,393a.59.59,0,0,1,1,0c-.28,2.64,4.81,2.49,3.06,5.88C-58.82,398.51-60.4,396.75-61.09,394.06Z" transform="translate(99 99)"/><path class="cls-90" d="M-90,359h-1c-1.35-1.39-1.67-3.18-1.92-5h.9C-87.51,354.15-89.94,357-90,359Z" transform="translate(99 99)"/><path class="cls-91" d="M238.92,150.75c-.73,4.9,1.08,6.44,6.26,6.39,29.61-.28,59.21-.14,88.82-.14,2.28-1.65,4.6-2.95,7.36-1.36-.27,3-6.67-1.1-4.36,4.36a27.91,27.91,0,0,1-.3,12.53,3,3,0,0,1-1.38,1.31,13.6,13.6,0,0,1-5.4.77q-44.13,0-88.25,0a15.49,15.49,0,0,1-4.46-.4c-1.66-.5-3.29-1.14-2.31-3.46Z" transform="translate(99 99)"/><path class="cls-92" d="M336,172c.38-4-.91-8.13,1-12,4.77-1.58,8.23,2.36,12.27,3.49,5.65,1.58,11.06,1.32,16.58,1.45,7,.17,14.15.62,20.95-2,.3-.11.67-.05,1-.17C397.1,159,399,160.41,399,171v2h-2c-4,.23-6.86,1.54-7,6.34-.09,2.56-2.3,3.95-4.64,4.65a64.08,64.08,0,0,1-37.65,0c-2.14-.64-4.51-1.87-4.48-4.15C343.26,174.68,339.8,173.31,336,172Z" transform="translate(99 99)"/><path class="cls-62" d="M369-86c-3.41-.49-6.28-1.82-8-5C363.83-89.56,366.77-88.34,369-86Z" transform="translate(99 99)"/><path class="cls-93" d="M385-74c-2.51-.3-3.78-2.16-5-4C382.53-77.74,383.8-75.9,385-74Z" transform="translate(99 99)"/><path class="cls-94" d="M349.92-95c-2,1.51-3.35-.12-4.86-1A7.44,7.44,0,0,1,349.92-95Z" transform="translate(99 99)"/><path class="cls-59" d="M379-79c-2-.12-3.14-1.38-4-3C377-81.93,378.14-80.65,379-79Z" transform="translate(99 99)"/><path class="cls-39" d="M336,262a3.37,3.37,0,0,1,2,3.67c-.22,3.6.83,6.56,4.15,8.42.72.4,1.74,1,1.35,1.85-2.43,5.18,1.67,3.8,4,4,3.58.37,6.46,1.13,4.89,5.85-.68,2,.94,2.14,2.31,2.15q11.75,0,23.48,0c1.33,0,3.14-.05,2.43-2.05-1.91-5.39,1.78-5.46,5.27-5.95,2.21-.3,6.47,1.12,3.6-3.93a.94.94,0,0,1,.19-.9c5.21-2.46,5.35-7.65,5.9-12.62l1.42.38V280a6.36,6.36,0,0,0-2.24,3.79c-.37,5.68-4.05,7.39-9.58,7.77a14.52,14.52,0,0,1,3.59.62c.79.31,1.52.76,1.55,1.73,0,1.23-.87,1.65-1.84,2-11,4.25-22.54,4-34,3-3.39-.28-6.38-3.17-10.15-3.17a1.76,1.76,0,0,1-1.67-1.61c-.12-1.2.77-1.74,1.76-2.08a24,24,0,0,1,3.22-.6c-6.55-.72-7.91-1.79-9.59-7.7a7.18,7.18,0,0,0-2.21-3.22,4.76,4.76,0,0,1-.79-1.43c-1-3.47-.29-6.86.45-10.25C335.76,266.61,335,264.24,336,262Z" transform="translate(99 99)"/><path class="cls-95" d="M217,202.08a145.26,145.26,0,0,0,13.91-21.23c3,2.08,6.29,2.62,9.9,2.61q41.88-.11,83.75,0c3.83,0,7.49-1.65,11.34-.8,1.8,2.08,1.63,4.18.07,6.3v4a10,10,0,0,1-.52,2.42c-2.55,10.17-2.54,10.18-13.28,10.18q-48.1,0-96.2,0a26.83,26.83,0,0,1-6.46-.35C218,204.87,216.05,204.56,217,202.08Z" transform="translate(99 99)"/><path class="cls-18" d="M217,202.08c.39,2.49,2.36,1.9,3.91,1.9q53.67,0,107.35.06c3.38,0,5-1.13,4.74-4.64-.17-2.6.5-5,3-6.4,1.67,3.32,5.7,1.94,8,4v8c-1.66,0-3.32.06-5,0-2.07-.08-3.23.77-3,2.91.5,4.46-1.94,5.16-5.73,5.15C306,213,281.79,213,257.53,213H216.16c-6.85,0-6.85,0-4.16-6C213,204.72,215.17,203.53,217,202.08Z" transform="translate(99 99)"/><path class="cls-96" d="M336,189v-6a8.69,8.69,0,0,1,0-10v-1c1.33,0,2.67.11,4,0,3-.3,4.42.85,4,3.94-.6,4.51,1.6,5.89,5.84,7.34,9.18,3.11,18.39,1.25,27.55,1.56,3.08.11,6.24-1.69,9.33-2.74,2.12-.72,2.23-2.55,2.31-4.49.24-6.23,1.52-6.93,8-4.59v9.44c0,6.55,0,6.56-6.34,6.56Z" transform="translate(99 99)"/><path class="cls-95" d="M344,197c-2.95-.76-7.8,2.27-8-4a43.75,43.75,0,0,0,11.69,1c1.46-.05,3.59-.2,3.68,1.54.12,2.29-2.17,1.23-3.43,1.4A28.75,28.75,0,0,1,344,197Z" transform="translate(99 99)"/><path class="cls-97" d="M229.65,104.09c2.22,4.25,5.77,4.1,10.09,4.06,28.74-.29,57.5-.21,86.24-.08,4.15,0,7.53-.13,8-5.28.1-1.18.94-1.69,2.05-1.79,1.22,5.25-2.29,9.87-2,15,.18,4-2.77,3-4.89,3q-42.44.06-84.87,0A27.57,27.57,0,0,0,235.9,120Q232.77,112,229.65,104.09Z" transform="translate(99 99)"/><path class="cls-88" d="M394,373l1.95,2c-.58,1.25-1.95,1.38-2.91,2.07a2.1,2.1,0,0,0-2-1c-1.2-2,.28-2.62,1.63-3.34A1.56,1.56,0,0,1,394,373Z" transform="translate(99 99)"/><path class="cls-98" d="M-95,245c-1.77,20.06-.12,40.2-1.32,60.23-.44,7.21,1.67,14.5-.69,21.58A23.48,23.48,0,0,1-98,329V263c1-1.71.49-3.57.48-5.35-.17-17.2.42-34.39.75-51.58a2.54,2.54,0,0,1,1.2-1.38l.93-.1a2,2,0,0,1,1.4,1.11c1,10.53,1.47,21.06-1.34,31.43C-95.28,239.74-94.84,242.38-95,245Z" transform="translate(99 99)"/><path class="cls-99" d="M-96,13l-1,80c1,5.12.28,10.28.42,15.42A.87.87,0,0,1-98,109q0-48,0-96c2.09-4.28.59-8.81.9-13.21.26-3.8,0-7.62,1-11.45Z" transform="translate(99 99)"/><path class="cls-100" d="M-97,109V93c1.63,1.47,1,3.41,1,5.15.06,9,0,17.89,0,26.84,1.64,1.79,1.38,4,1.39,6.17,0,8.82,0,17.65,0,26.48,0,2.16-.15,4.35.92,6.35a16.33,16.33,0,0,1,.67,9.28c-1.29,8.35-.27,16.76-.6,25.13-.09,2.27.34,4.66-1.4,6.59h-1l-.58-.66c-1-9.93,0-19.9-.56-29.84A4.45,4.45,0,0,0-98,173v-8c1-2.56.44-5.24.45-7.85.07-14.42,0-28.84.06-43.25C-97.46,112.24-97.89,110.55-97,109Z" transform="translate(99 99)"/><path class="cls-101" d="M-96,205c.45,18.28-1.75,36.52-1,54.8.05,1.16.1,2.36-1,3.19q0-29,0-58a1.6,1.6,0,0,1,1-.56,1.62,1.62,0,0,1,1,.57Z" transform="translate(99 99)"/><path class="cls-102" d="M-97,109c0,16.93,0,33.86,0,50.8,0,1.74.66,3.69-.94,5.17q0-28,0-56Z" transform="translate(99 99)"/><path class="cls-103" d="M-97,205h-1V173h1A212.31,212.31,0,0,1-97,205Z" transform="translate(99 99)"/><path class="cls-57" d="M-19-94c-.67-.66-2.45-.22-2-2,1.11-1.15,2.88.26,4-1,0-.32.05-.63.09-.94L-11-98-3-98c1.74.91,3.6.46,5.4.46q154.57,0,309.16,0c1.8,0,3.66.45,5.4-.46l8-.08L331-98c0,.31.07.63.09.94-8.37,4.1-17.37,3.42-26.26,3.42q-145.5,0-291,0c-10.48,0-21-.26-31.41-.9A2.86,2.86,0,0,0-19-94Z" transform="translate(99 99)"/><path class="cls-104" d="M317-98c-1.5,1.61-3.45.94-5.2.94Q157-97,2.22-97C.47-97-1.48-96.36-3-98Z" transform="translate(99 99)"/><path class="cls-18" d="M77.19,192.68c6.66,8.71,13.8,17,23,23.12,2.48,1.64,2,3.9,1.75,6.2-1.21,2.32-3.29,3.17-5.74,3.41a74.84,74.84,0,0,1-7.49.18H-73.64c-1.33,0-2.66,0-4,0-6.76.12-6.92.29-6.9,7a20.22,20.22,0,0,1-.23,3.48c-1.45,7.28-1.12,15-4.75,21.76-.65,1.22-.34,3.14-2.49,3.17,1.11-5.33-2.48-10.67,0-16a165.79,165.79,0,0,1-.71-23.26c1.79-.15,1.79-.15,3.34,1.46.83-6.33-1.26-12.63,1.19-18.58a8.44,8.44,0,0,0,1.39-3.74c.09-7.3,3.32-7.48,9.61-7.48q70.46,0,140.92,0A108,108,0,0,0,77.19,192.68Z" transform="translate(99 99)"/><path class="cls-3" d="M98,244c-2,9.11-2.18,17.85,4.9,25.17,1.24,1.29,1.19,2.28-.53,3-2.94,1.06-6,.34-8.92.34q-84.82.06-169.66,0c-8,0-8.13,0-9.1,7.61-.69,5.42-2.91,10.52-3,16,0,1.61-.81,3.28.36,4.8q-.5,9.5-1,19c-1.4,1.31-2.34,2.78-1.59,4.8.86,2.31-.53,2.94-2.41,3.2a1.39,1.39,0,0,1,0-2v-1c.52-5.32-1.09-10.78,1-16V293c.36-9.21,3.09-18.18,2.6-27.48-.21-3.9,1.32-7.51,2.44-11.15.67-2.2,2.69-2.79,4.66-3.29,3.1-.79,6.27-.63,9.43-.63H84.29c4.74,0,10,1,11.56-5.6C96,244.08,97.09,243.83,98,244Z" transform="translate(99 99)"/><path class="cls-105" d="M-92,221a135.36,135.36,0,0,1,0,24c-2.15-2-.1-4.87-1.5-7.09-1.4,2.22.64,5.1-1.5,7.09-2.85-4.47-.34-9.08.24-13.38,1.19-8.9.36-17.76.76-26.62.23-8.14-.75-16.36,1.62-24.36,3-2.48,1.82-5.78,1.64-8.83-.38-6.36,1.92-12,4.82-17.39,1.63-3,4.74-3.95,8.13-4q10.25,0,20.5,0h108c1.83,0,3.67,0,5.5-.06,2.89,0,4.15-1.46,4.25-4.33.14-3.82-.41-7.67.54-11.45.4-.9.84-1.75,2-1.6-.64,12.12-.1,24.14,3,35.94,1.52,3.79-.36,5.22-3.84,5.52-2.16.18-4.33.13-6.49.13H-75.66c-1.83,0-3.66,0-5.49.07-2.53.08-3.86,1.22-4.37,3.81-1.13,5.86-2.47,11.68-4,17.46.24,7-1.33,14-1.06,21A4.8,4.8,0,0,1-92,221Z" transform="translate(99 99)"/><path class="cls-6" d="M98,244c-1,.45-2,1.18-1.84,2.17.65,6.22-3.4,5.87-7.62,5.87Q6.72,252-75.12,252c-10.47,0-12.76,1.72-12.67,12,0,4.7.84,9.94-.75,13.86-2,5-.79,10.51-3.46,15.16V261c2.27-7,5.31-13.78,5-21.36A2.84,2.84,0,0,1-86,237c1.92-1.72,4.31-1.62,6.63-1.62q87.45,0,174.92,0c2.32,0,4.71-.1,6.61,1.66Q100.07,240.52,98,244Z" transform="translate(99 99)"/><path class="cls-106" d="M-92,309c-.54,5.32,1.12,10.78-1,16-1.26-1-1-2.38-1-3.68q0-28.71,0-57.43A2.14,2.14,0,0,1-93,262c0,13.27-.06,26.53,0,39.79C-92.93,304.21-93.92,306.82-92,309Z" transform="translate(99 99)"/><path class="cls-107" d="M-93,326v2c1.79,7.25.43,15,3.47,22,1.14,2.62-1,6.23,2.53,8v1c-1,.27-2,1.59-3,0-.42-1.77,1.2-4.34-2-5-.88-6.44-1.91-12.86-2.56-19.33C-94.84,331.74-96.92,328.26-93,326Z" transform="translate(99 99)"/><path class="cls-108" d="M359,399a17.08,17.08,0,0,1,6-5c.12-2.87,2.42-4.44,4.36-5.48,5.19-2.78,8.28-7.36,11.53-11.9,1.37-.83,2.76-1.49,4.35-.57.55,2.19-.28,4.08-1.24,5.95-1.92,4.16-6.16,6.06-9.27,9-3.77,3.53-8.68,5.83-13.13,8.62A1.79,1.79,0,0,1,359,399Z" transform="translate(99 99)"/><path class="cls-109" d="M384,382c-.35-2.11.67-4,1-6-.05-2.46,2-3.55,3.34-5.06a4.94,4.94,0,0,1,3.13-1.32,1.68,1.68,0,0,1,1.1.73A5.85,5.85,0,0,1,393,373c-.6,1-2.16,1.45-2,3-3.55.53-5.59,2.33-5.37,6.17C385.67,383,385.51,383,384,382Z" transform="translate(99 99)"/><path class="cls-72" d="M357,389c-.15-1.9.08-3.57,2-4.71a1.71,1.71,0,0,0,.56-2.58c-.76-1-1.76-.48-2.7-.1-1.95.77-3.37,2.84-5.82,2.39-3.05,1.72-6,3.72-9.81,2.26-1.55-2.59.71-3.06,2.21-3.88,3.66-2,7.78-2.79,11.59-4.44a42.38,42.38,0,0,0,9.94-5.58,8.92,8.92,0,0,1,3.89-.62c4.76.11,7.56,4.69,4.39,8.05-2.18,2.31-2.62,5.09-4.2,7.44-3,4.19-7.23,6.39-12,7.77h-4C355.71,393.92,358,392.54,357,389Z" transform="translate(99 99)"/><path class="cls-110" d="M-59,393h-1c-1.39-5-7.31-5.88-9.51-10.2,0,0-1.6.75-2.45,1.15.86-4.25-.9-6.85-5-8l0-2c.1-1.33-1.58-2.67,0-4l2,1c4.1.15,5,4.76,8.32,6a1.68,1.68,0,0,1-.32,2,13.17,13.17,0,0,0,5.7,7.78A23.73,23.73,0,0,1-54,394h-2C-56.72,392.83-57.9,393-59,393Z" transform="translate(99 99)"/><path class="cls-111" d="M-67,379v-2a1.68,1.68,0,0,1-.21-2.07c2.74-1.33,3.72.87,5.07,2.47,2.71,3.21,4,7.58,8.14,9.6,3.13,3.4,7.1,5.66,11,8v2c-6.89-2.27-11.57-7.95-17.67-11.47C-63.31,384-63.69,380-67,379Z" transform="translate(99 99)"/><path class="cls-39" d="M393,373c-1.18-.72-1-1.9-1-3,0-3.94.55-7.54,5-9,2.53,3,0,5.29-1.25,7.56C395,370,393.8,371.19,394,373Z" transform="translate(99 99)"/><path class="cls-109" d="M397,361c-3.08,2.21-3.13,6.11-5,9h0c-1.9-5,.12-9.45,5-11v2Z" transform="translate(99 99)"/><path class="cls-111" d="M357,395c3.9-2.34,7.87-4.6,11-8,4.1-2,5.43-6.39,8.13-9.59,1.35-1.6,2.34-3.79,5.08-2.49A1.69,1.69,0,0,1,381,377c-.17,4.75-4,7.24-6.95,9.73s-6.18,4.66-9.05,7.27c-3.3-.69-5.7,1-8,3Z" transform="translate(99 99)"/><path class="cls-112" d="M397,359c-3.66,2.76-5.11,6.53-5,11l-3,1c-1.26-1.37-.67-2.75,0-4.15,1.72-3.77,3.65-7.44,4.37-11.61A2.6,2.6,0,0,1,397,353h0Z" transform="translate(99 99)"/><path class="cls-44" d="M336,280c2.4.42,4.21,1.59,3.74,4.28-.81,4.55,2.06,5.2,5.41,5.76,2.08.35,5.74-1.41,5.84,1.59.07,2.38-3.62.93-5.59,1.4-.6.14-1.2.32-2.52.69,15.95,6.14,31.17,5.89,46.94.2-2.18-1.53-4.39-.62-6.34-1-.88-.16-1.77-.53-1.77-1.43s.89-1.37,1.77-1.42c1.5-.08,3,.07,4.49-.11,3.21-.4,6.06-.79,4.72-5.59-.71-2.53,1.9-3.83,4.31-4.38v8c-2.77.09-5.18.75-4.34,4.27,1,4.35-1.76,5.06-4.87,5.72-1.75.37-4.82-1-4.86,1.66,0,2.18,3.06.91,4.66,1.52a10.15,10.15,0,0,1,1.29.86c-15.37,5.78-30.32,5.52-45.81.84,1.49-2.7,3.35-1.58,4.81-1.86,1-.19,2.29-.21,2.35-1.37.08-1.57-1.39-1.52-2.53-1.63a23.72,23.72,0,0,1-4.41-.47c-2.26-.68-3.88-2.08-3.06-4.79,1.2-3.95-1.29-4.53-4.23-4.75A6.2,6.2,0,0,1,336,280Z" transform="translate(99 99)"/><path class="cls-56" d="M-96-30h1c.58,0,1.6-.78,1.65,0a2.64,2.64,0,0,1-2.54,3C-96-28-96-29-96-30Z" transform="translate(99 99)"/><path class="cls-104" d="M-19-94c3.22-1,6.22-3,9.92-1.17,1.36.65,3.28.17,4.94.17q161.12,0,322.23.15c4.61,0,8.38-3.09,13-2.17L336-97c-2,2-4.74.25-7,1.26.58,1.39,2.19.12,3,1.22-1.25,1-2.69.26-4,.48-5.37,1.07-10.86.9-16.25.9Q157-92.9,2.18-93C-2.21-93-6.61-94.53-11-93c-.54,3.18-2.47,1.18-3.68.83C-16.16-92.6-17.09-94.45-19-94Z" transform="translate(99 99)"/><path class="cls-104" d="M-17-97c.4.2,1.6.51.75.82-1.41.51-3.12.18-4.71.2v-1Z" transform="translate(99 99)"/><path class="cls-46" d="M336,280v18c-1.77,1.63-4,1.49-6.14,1.49q-59.67,0-119.35,0c-6.84,0-7.17-.42-5.43-7,.4-1.48.23-3,.64-4.42,2.5-2.35,5.65-1.63,8.56-1.64q53.13-.07,106.28,0c5,0,10.54,1.17,12.82-5.47C333.67,280.09,334.9,279.71,336,280Z" transform="translate(99 99)"/><path class="cls-44" d="M190.92,309.85,200,303c3.63.66,7.29.4,10.94.4q58.21,0,116.44.05c2.94,0,6.05-.56,8.63,1.59-.94,2-2.7.86-4,.94-3,.19-6,0-9,.09-1.55,0-4.13-.64-4.12,1.48S321.45,309,323,309c17,0,34,0,51,0,1.77,0,3.65-.48,5.58.7-1.27,2-3.24,1.24-4.81,1.24-16.82.06-33.64,0-50.46,0q-63.61,0-127.24,0C195,311,192.65,311.85,190.92,309.85Z" transform="translate(99 99)"/><path class="cls-46" d="M336,305q-65.34,0-130.68-.06c-1.86,0-4.56,1.32-5.33-2l.81-1c1.61-2,3.8-2.45,6.24-2.45H330.86c1.87,0,3.68.14,5.14,1.49Z" transform="translate(99 99)"/><path class="cls-44" d="M336,301H207.64c-2.33,0-4.67-.14-6.84,1,4.27-6.85,4.59-14.28,3.19-21.95,4,1.81,3.64,4.75,2,8a27.78,27.78,0,0,1-.19,4c-1.11,6-1.14,6,4.71,6H336Z" transform="translate(99 99)"/><path class="cls-112" d="M-67,349c3.31.28,5,2.29,5.66,5.35.35,1.5.89,3.15,2.77,2.95s1.6-1.91,1.55-3.19c-.11-2.44,1.09-3.26,3.35-3.12,1.33.08,2.67,0,4,0q206.42,0,412.84,0c3.6,0,8.56-1.77,8.09,5.06a1.34,1.34,0,0,0,1.8,1.21,2.83,2.83,0,0,0,2.12-2.48c.73-3.13,2.21-5.55,5.82-5.82h0a3.26,3.26,0,0,1,.5,3.76c-3,3.49-5.51,7.37-9.58,9.76-6.74,5.72-13.67,10.19-23.26,10.18q-191.67-.26-383.33,0c-9.58,0-16.52-4.44-23.21-10.19-4.14-2.3-6.62-6.27-9.61-9.72A3.28,3.28,0,0,1-67,349Z" transform="translate(99 99)"/><path class="cls-113" d="M-88,301c-1.09-.17-1.73-.48-1.57-1.9.93-8,2.66-15.94,2.85-24.07a3.88,3.88,0,0,1,4.22-4c1.16,0,2.33,0,3.49,0H95.1c2.49,0,5-.25,7.26,1.18q-2.52,4.43-5.06,8.83c-1.21,6.33-5.89,6.05-10.81,6Q5.67,286.93-75.15,287c-11.32,0-11.33,0-12.8,11A24.8,24.8,0,0,0-88,301Z" transform="translate(99 99)"/><path class="cls-114" d="M-67,349v4l-.57.41c-2.14.39-3.24-1.32-4.68-2.34-1.9-1.32-4.16-.29-3.16,1.33,3.37,5.44.72,12.6,5.46,17.46a13.39,13.39,0,0,0,2.09,2.1c.93.83,1.92,1.65.86,3v2c-4.66.66-4.74-4.79-8-6-1-5.83-5-10.67-5.53-16.67-.09-1-1.43-1.26-2.47-1.33,0-3,.1-6-.06-9-.12-2.12-1.13-4.87,1.37-5.68s5.51-1,7.93,1.34a19,19,0,0,1,4.67,7.56A2.22,2.22,0,0,0-67,349Z" transform="translate(99 99)"/><path class="cls-114" d="M381,353v-4c2.37-.07,2.12-2.28,2.76-3.62a17.69,17.69,0,0,1,4.72-6.29c2.18-1.78,4.81-1.4,7.11-.77s1.29,3.08,1.37,4.74c.14,3.31,0,6.63,0,9.94-1.09.67-2.84.86-2.83,2.46,0,4.82-2.53,8.63-4.58,12.67A10.6,10.6,0,0,0,389,371c-.53,2.31-2.88,3.16-4,5a6.71,6.71,0,0,1-4,1v-2c-1.06-1.4-.05-2.21.87-3,3.27-3,5.83-6.35,5-11.27-.35-2.11,1-3.72,2.12-5.42s2.08-3.86.15-5.42-2.86.72-4,1.75a5.12,5.12,0,0,1-3.51,1.68Z" transform="translate(99 99)"/><path class="cls-115" d="M-77,370c-1.34,1.33,2.57,2.68,0,4a2,2,0,0,1-2-1c.09-4.48-3.72-7.65-4-12,2.76-.41,2.61,1.87,3.3,3.47C-78.89,366.35-77.91,368.16-77,370Z" transform="translate(99 99)"/><path class="cls-80" d="M203.14,91.73a59,59,0,0,1,16,24c.84,3.94-2,4.41-4.65,4.6-5.6.42-11.22.13-16.83.17-5.78,0-11.56-.09-17.33.14a7.43,7.43,0,0,1-2.52.28c-2.65-.26-4.55-2.43-7.15-2.85-.51-.1-1-.24-1.52-.39-6.19-1.75-11.62,1.6-17.41,2.59-21.47.63-42.93.24-64.39.16-2.18,0-5.92,1-5.35-3.63A61.51,61.51,0,0,1,100,90.05c1.38,1.59,3.23,1.4,5.07,1.39,30-.07,60.08,0,90.12,0C197.86,91.39,200.5,91.49,203.14,91.73Z" transform="translate(99 99)"/><path class="cls-116" d="M102.16,237-86,237c-.17-2.64.48-5.36-.49-7.93-1.28-3.39.52-4.64,3.45-5a37.29,37.29,0,0,1,4.49-.06q86,0,172,0c3.09,0,6-.35,8.58-2Z" transform="translate(99 99)"/><path class="cls-97" d="M73.34,101.07l-7.17,17c-.66,4.51-4.07,4.53-7.46,4.53q-30.7.06-61.4,0c-24.79,0-49.58.08-74.38-.07-4.81,0-8.36.58-9.43,6.22-.47,2.48-1.93,5.12-5.49,4.51-3.08-4-.15-8.17-.26-12.26a8.92,8.92,0,0,0,2.85-6.6c.26-5.78,3.51-9,9.32-9.78a54.26,54.26,0,0,1,7-.18H57.34c4.81,0,9.74.62,13.66-3.24A1.94,1.94,0,0,1,73.34,101.07Z" transform="translate(99 99)"/><path class="cls-81" d="M73.34,101.07c-4.74,6.31-11.6,4.92-18,4.92q-66.42,0-132.83,0c-7.91,0-10.3,2.28-10.43,10.22-.05,2.88-.5,5-4,4.78-.84-1.29-.43-2.68-.34-4,.73-2.21-.12-4.64,1-6.8a33.3,33.3,0,0,0,3.28-12.92c.27-3.81,2.06-5.37,5.55-5.65,2-.16,4-.12,6-.12q50,0,100,0c2.08,0,4.38.75,6.14-1.13,4.19-2.3,6.38,2,9.6,2.91,2.88,1.93,5.87,3.71,8.66,5.77,2.26,1.67,4.8,2.39,7.43.93s3.51-3.74,3.25-6.69c-.11-1.28-1-3.12,1.45-3.45,3.45,1.85,7.19,1.79,11,1.82,2.52,0,5.28-.66,7.4,1.52Z" transform="translate(99 99)"/><path class="cls-117" d="M206,288c.06-2.86,0-5.66-2-8l-4.16-6.93q63.49,0,127-.05c3.47,0,6.78,0,8.19-4,.33-.45.67-.45,1,0v11c-1.35.73-3,1.7-2.79,3.22.76,5.16-2.64,4.78-5.86,4.78Z" transform="translate(99 99)"/><path class="cls-74" d="M-92,133c3.79-.67,4.75-4.11,4.76-6.73,0-5.27,2.88-5.32,6.75-5.31q66.82.09,133.64,0c2.33,0,4.67-.17,7,0,2.73.26,4.76-.52,6-3Q64.6,125.51,63,133l-1,1c-1.55.83-3.23.61-4.89.61-44-.09-88.09,0-132.13,0-1.33,0-2.66.07-4,.06-3.4,0-5.17,1.64-5.62,5-.65,4.78-1.42,9.54-3.62,13.93-.81,1.63-1.35,3.48-3.62,3.63-2.36-2.41-1.21-5.47-1.54-8.26C-92.75,143.64-94.86,138.1-92,133Z" transform="translate(99 99)"/><path class="cls-118" d="M77.19,192.68c-1.34,3.09-4.12,2.3-6.5,2.3q-74.64,0-149.27,0c-4.19,0-7.1.13-6.65,5.59.15,1.84-.41,4.38-2.77,5.48-2.38-3.34-1.69-7.08-.87-10.56a48.05,48.05,0,0,0,1.2-9.29c.92-2.55,2.9-3.48,5.42-3.64,2.16-.13,4.32-.1,6.48-.1q67.83,0,135.67.06c4.14,0,7.54-.51,9.24-4.78Z" transform="translate(99 99)"/><path class="cls-119" d="M69.14,177.69c.45,6.3.45,6.31-6.07,6.31H-80.52c-2.66,0-5.48-.49-6.48,3-1.13,1.78.55,3.81-.58,5.65-.88,1.42-.83,3.69-3.42,3.35,1.51-6.91,3.87-13.66,4.06-20.83a2,2,0,0,1,2.22-2.12c1.5,0,3-.05,4.5-.05H60.64c2.87,0,6,.48,5.38-4.07Z" transform="translate(99 99)"/><path class="cls-120" d="M203.14,91.73c-1.31,1.89-3.31,1.24-5,1.25q-47.22,0-94.44,0c-1.88,0-4.82,1-3.64-2.93,19.22-20.69,55-26.52,82.28-13.38C190.13,80.45,197.38,85.06,203.14,91.73Z" transform="translate(99 99)"/><path class="cls-121" d="M150.75,297.9c-9.81,0-19.62.12-29.43,0-6.95-.1-10.76-4-10.57-10.38.17-5.23,3.75-9.06,9.81-9.13q30.16-.35,60.34,0c6,.05,10,4.34,10,9.63.05,5.62-3.9,9.72-10.28,9.87C170.7,298.07,160.72,297.89,150.75,297.9Z" transform="translate(99 99)"/><path class="cls-3" d="M150.51,263c-9.66,0-19.33.12-29,0-7.43-.13-11.36-4.45-10.75-11.29.45-5.06,4.53-8.31,11.19-8.35,19.16-.1,38.33,0,57.49,0a15.9,15.9,0,0,1,3.94.58c4.86,1.29,7.63,4.66,7.55,9.25-.08,5-2.72,8-7.5,9.29-4.11,1.11-8.29.47-12.43.54C164.18,263,157.35,263,150.51,263Z" transform="translate(99 99)"/><path class="cls-105" d="M223,129.1c3.89,14.78,2.14,29.05-3.92,42.92-1.34,2-3.41,2.5-5.63,2.52q-26.07.17-52.14,0a8.32,8.32,0,0,1-3.85-.84c-2.51-2.13-1.7-5-1.64-7.66.52-2.66,2.6-3.71,4.85-4.39,8-2.41,15.22-6.18,20.73-12.72a4.07,4.07,0,0,1,3.49-1.52c10.59.22,21.17.11,31.76.08,5.36,0,5.81-.67,5.87-6.09,0-3.63-1.47-7.17-.52-10.84A3.48,3.48,0,0,1,223,129.1Z" transform="translate(99 99)"/><path class="cls-119" d="M336,173v10c-4.33,2.08-8.95,2-13.62,2-28.33-.06-56.66,0-85-.05-2.95,0-6.35.44-6.45-4.13l4-10.09c.63,3.32,3.3,2.19,5.22,2.2Q288.06,173.05,336,173Z" transform="translate(99 99)"/><path class="cls-18" d="M208.33,190.07c-5.44,7.8-12.8,13.36-20.93,18-3.42,3.24-2.79,7.56-2.87,11.59-.2,9.78-.11,9.89-9.94,9.74-5.92-.09-11.88.7-17.78-.51a4.08,4.08,0,0,1-1.07-2.71c-.2-9.75-.33-19.49.06-29.23a4.06,4.06,0,0,1,.69-1.84c2-2,4.59-1.65,7-1.66q14.67-.11,29.34,0c4.51,0,9,.18,12.68-3.11A2.29,2.29,0,0,1,208.33,190.07Z" transform="translate(99 99)"/><path class="cls-74" d="M81.94,116.85c.7,3.32,3.38,2.09,5.27,2.1,21.94.08,43.89.06,65.83.06-.29,3-3.71,3.86-4.55,6.5-1.43,1.79-2.11,4.11-4,5.55a9.51,9.51,0,0,1-1.59.81,15.64,15.64,0,0,1-4.94.68c-17.48.08-35,.11-52.45,0-5.89,0-6.8-1-6.6-5.92A23.25,23.25,0,0,1,81.94,116.85Z" transform="translate(99 99)"/><path class="cls-91" d="M82.84,173.06a42.91,42.91,0,0,1-5-17.05c4.7,3.18,10,2.48,15.25,2.49,8.33,0,16.65,0,25,0,2.69,0,5.34-.14,7.76-1.48a4.18,4.18,0,0,1,2.24-.71c1.54.12,2.66,1.15,3.94,1.83.8.44,1.61.86,2.43,1.27,2,1.18,4.22,2,6.33,3a3,3,0,0,1,1,1.18,6.26,6.26,0,0,1,.46,1.64c-.12,2.93,1,6.11-1.73,8.51-2.17,1.06-4.52.89-6.83.9q-21.6,0-43.21,0C87.83,174.6,85.12,174.85,82.84,173.06Z" transform="translate(99 99)"/><path class="cls-122" d="M78.88,126.61c0,2.69.85,4.42,4,4.41,19.3-.06,38.6,0,57.91-.07a13.94,13.94,0,0,0,3.34-.9c1.51,2.43,0,4.75-.22,7.12-1.22,3.08.16,6.53-1.36,9.56a3.19,3.19,0,0,1-2.78,1.23c-2.12-.12-3.49-1.61-5-2.78a31,31,0,0,1-3.08-3.4,18,18,0,0,0-1.36-1.26,15.3,15.3,0,0,0-3.21-1.85c-3.91-1.22-6.87.08-9.09,3.4a9.32,9.32,0,0,0-1.06,1.29c-1.69,2-4,2.13-6.36,2.16-8.76.1-17.53.15-26.29,0-6-.11-6.82-1.06-6.77-7,0-2.3-.39-4.63.35-6.89A7.51,7.51,0,0,1,78.88,126.61Z" transform="translate(99 99)"/><path class="cls-123" d="M77.89,131.62c0,.83.1,1.65.1,2.48.07,10.73-1.27,9.89,9.81,9.9,7.78,0,15.56-.11,23.33.06,2.71.06,4.75-.53,6-3,1.26,1.48.93,3.4,1.45,5.08a8,8,0,0,0,1,2.27,17,17,0,0,0,2.12,2.29,23.58,23.58,0,0,0,3.55,2.83,4.24,4.24,0,0,1,1.69,3.55c-.66,2.79-2.92,2.89-5.1,2.9-13.15,0-26.3-.18-39.45.15-3.53.09-3-2.88-4.63-4.12A53.72,53.72,0,0,1,77.89,131.62Z" transform="translate(99 99)"/><path class="cls-119" d="M157.14,173q28.07,0,56.14,0c2,0,4,0,5.79-1a33.24,33.24,0,0,1-5.65,11.08,9.11,9.11,0,0,1-6.8,2.5c-14.8,0-29.6,0-44.39,0a8.72,8.72,0,0,1-5.27-1.2C155.05,180.55,154.77,176.74,157.14,173Z" transform="translate(99 99)"/><path class="cls-124" d="M116,211c-2-3.52-5.71-4.92-8.72-7.18-3.85-2.9-7.63-5.86-10.6-9.71,1.32-1.57,3.18-1.66,5-1.68,11.57-.13,23.13-.11,34.7,0a7.9,7.9,0,0,1,4.73,1.19c2.61,5.71,1.22,11.68,1,17.54-.1,2.38-2.29,3.11-4.37,3.24a152.51,152.51,0,0,1-17.37,0A4.54,4.54,0,0,1,116,211Z" transform="translate(99 99)"/><path class="cls-119" d="M82.84,173.06,141,173c2.17,3.78,2,7.57.09,11.38-2.06,1.4-4.44,1.23-6.75,1.24q-19.2.06-38.39,0c-2.5,0-5,.06-7.18-1.52A31.45,31.45,0,0,1,82.84,173.06Z" transform="translate(99 99)"/><path class="cls-118" d="M157.13,184q25,0,49.93,0a18,18,0,0,0,6.36-.92,20.51,20.51,0,0,1-5.09,7c-4.84,5.52-11.25,5.1-17.74,5-11.15-.2-22.3-.06-33.45-.07A9.75,9.75,0,0,1,157.13,184Z" transform="translate(99 99)"/><path class="cls-125" d="M141,184V173c0-3.05.07-6.11.11-9.16,1.1,0,1.55.78,1.91,1.65.84,3.84.11,7.75.49,11.61q-.16,4.53,0,9.06c-.08,4.33,0,8.67,0,13,0,8.2,0,16.4,0,24.6,0,1.95.22,4-.8,5.78a1.05,1.05,0,0,1-1.61.36c-7.16,0-14.31-.23-21.46-.1-2.6.05-3.55-.64-3.49-3.31.13-5.15,0-10.31-.08-15.47a5.92,5.92,0,0,0,4.77,2c5.3-.16,10.62-.25,15.92,0,3.64.18,4.57-1.3,4.41-4.65-.22-4.8-.07-9.61-.08-14.42A8.84,8.84,0,0,1,141,184Z" transform="translate(99 99)"/><path class="cls-118" d="M141,184v10l-44.34.12a31.91,31.91,0,0,1-7.89-10Z" transform="translate(99 99)"/><path class="cls-74" d="M223,129.1c0,.3-.07.59-.1.88a6.16,6.16,0,0,1-4.6,1.48c-10.4,0-20.8.27-31.19-.08a5.18,5.18,0,0,1-2-1.32,10.5,10.5,0,0,1-1.53-2.47,11,11,0,0,0-2.15-3.16c-1-1.31-2.73-2.18-2.43-4.23,1.34-1.86,3.34-1.16,5.07-1.17,10-.06,20,0,30,0,2.43,0,4.83.09,5.13-3.23C221.89,119.78,221.88,124.6,223,129.1Z" transform="translate(99 99)"/><path class="cls-126" d="M78.34,93.11c-3.44,0-6.89-.29-10.31,0s-6.7-.27-9.22-3a1.71,1.71,0,0,1-1.29.2C55.72,89.16,53.1,88.91,53,86c3.41-1.82,7.1-.89,10.66-1,7.06-.15,14.13-.07,21.2-.09Z" transform="translate(99 99)"/><path class="cls-127" d="M157.14,228.88c7.45,0,14.9-.08,22.34.16,3.4.1,4.86-.89,4.57-4.46a58.22,58.22,0,0,1,0-9.43c.22-2.67,0-5.75,3.34-7-3.12,5.38-2,11.32-2,17,0,3.6-.53,4.89-4.51,4.71-7.62-.33-15.27,0-22.91.1a.73.73,0,0,1-1.13.17c0-.22-.1-.45-.16-.68Z" transform="translate(99 99)"/><path class="cls-128" d="M156.71,229.45l1.3.5c-3.49,3-13.65,3-17-.06a2.78,2.78,0,0,1,.86-.43A28.21,28.21,0,0,1,156.71,229.45Z" transform="translate(99 99)"/><path class="cls-17" d="M-92,133v16c-1.27,2.51.25,5.52-1,8.09-1.81-.5-1.87-1.72-1.88-2.84-.09-9-.15-18,0-27A3.83,3.83,0,0,1-94,125c2.13-4.06.66-8.4,1-12.59.25-3.79,0-7.61,0-11.41,5.73,0,4.51-4.62,3.74-7.2-1.37-4.62-.17-7.7,3.35-10.39,2.57-2,2-4.8,1.86-7.38-.14-3,.86-4.09,4-4.08q52.15.18,104.3.15c-.48,2.52-3.62,3.88-3,6.88-.27,4.93,4,6,7,8.15.83.75,2,1.28,1.84,2.7L32.29,93H26.75C-9,93-44.81,93.06-80.6,92.92c-4.48,0-6.26.92-6.7,6-.36,4,1.36,9.32-3.7,12.12-1.42,1.82.35,4.17-1,6v16Z" transform="translate(99 99)"/><path class="cls-129" d="M30.05,89.83l-2-1.91c-.05-2,1.66-2.46,3-2.63,6.3-.81,12.63-2,19-.3l3,1,5,4c1.18,3.51-1.54,4-3.7,4.2a62.1,62.1,0,0,1-15.59-.13Z" transform="translate(99 99)"/><path class="cls-130" d="M50,85c-7.27,1.38-15-.67-22,2.93-3.67-2-8.72-2.89-7.89-8.92,7.17-3,14.24-3.49,21.1.9A31.62,31.62,0,0,1,50,85Z" transform="translate(99 99)"/><path class="cls-131" d="M41.26,79.9c-6.89-3.57-14.06-.64-21.1-.9-.91-3.63,1.66-5.21,4.06-6.9C31.2,71.87,35.93,76.55,41.26,79.9Z" transform="translate(99 99)"/><path class="cls-132" d="M67,31l-3-4.9c-1.26-3.22-.31-5,3.29-5.06,3.21-.08,6.42-1.14,9.62,0l.35-.15c3.51,1.48,6.13,3.69,6.51,7.79a4.53,4.53,0,0,1-4.49,3.83c-3.55-.13-7.15.76-10.65-.4Z" transform="translate(99 99)"/><path class="cls-133" d="M68.6,32.14c3-.81,6-1.63,9.22-.77,2.62.69,4.22-.94,5.16-3.27,2.33-.74,2.76,1.5,4,2.52,1.39,2.84,5.37,4.48,4,8.61-5.25,1.93-10.6,1.61-16,.78A39.94,39.94,0,0,1,68.6,32.14Z" transform="translate(99 99)"/><path class="cls-134" d="M75,40c5.14-2.23,10.82.23,16-1.82.21-.54.43-.52.65,0l3.38,6c.06,1.86.3,3.62-2.7,2.91-4.14-1-8.6,1.59-12.65-1Z" transform="translate(99 99)"/><path class="cls-135" d="M161.16,22c19.41,0,38.81.09,58.21-.1,2.92,0,5.82,1.58,8.73.12L225,27.14a26,26,0,0,0-5.21,6.46A4.91,4.91,0,0,0,216.91,36a25.13,25.13,0,0,0-7.82-1q-22.64.09-45.27,0c-1.76,0-4.22,1.06-4.83-2-.65-1.29,0-2.5.24-3.73C160.26,26.93,158.8,24,161.16,22Z" transform="translate(99 99)"/><path class="cls-32" d="M91.61,38.18H91L86,31c2.09-2.92,5.26-2.5,8.19-2.52,13.15-.09,26.3-.29,39.43.07,6.12.17,11.22-.08,12.28-7.56V13a12.1,12.1,0,0,1,0-12c0-2.33.06-4.67.08-7-.61-1.15.48-1.43,1-2H148c1.15,1.17.51,2.59.53,3.92-.11,2.77,0,5.53-.07,8.3.1,2.56.08,5.13,0,7.69.06,2.79.06,5.58,0,8.37.21,4.2-1.07,8.62,1.89,12.4A8.9,8.9,0,0,1,152,35.05c.21,4.37-3.21,2.86-5.17,2.87-15.59.14-31.18.07-46.77.09C97.25,38,94.43,38.12,91.61,38.18Z" transform="translate(99 99)"/><path class="cls-136" d="M150,34c-5.26-3.34-2.72-8.5-3-13,4-2.4,8.17-1.71,12.36-.75,2.17,3.13,1.08,6.44.54,9.73.42,1.21-.56,2-.91,3l-2.69,1.14A10,10,0,0,1,150,34Z" transform="translate(99 99)"/><path class="cls-137" d="M150,34l6.28.12c-1.25,1.16-2.85.71-4.3.94Z" transform="translate(99 99)"/><path class="cls-20" d="M336,269h-1c.39-2.33-.92-4.89,1-7Z" transform="translate(99 99)"/><path class="cls-56" d="M-91-29c1.89-2.7,6.61-3.85,5.66-8A12.77,12.77,0,0,1-84-46.51c1.35,1-.74,3.71,2,3.51,0,7,0,7,7,7q201.68,0,403.36.12c2.54,0,7.35-2.42,7.43,2.62s-4.61,4.24-8,4.24Q125.31-29-77.13-29c-3.56,0-7.27-.88-10.61,1.61C-89-26.45-90.73-26.82-91-29Z" transform="translate(99 99)"/><path class="cls-56" d="M-76-43h9c.24,2.82-1.58,3.72-3.88,3.94C-73.73-38.79-75.56-40-76-43Z" transform="translate(99 99)"/><path class="cls-56" d="M179-51c.8,5-1.7,6.09-6.3,6.08Q52.85-45.08-67-45c1.34-5.42,1.34-5.42-7.16-6.38.41-2.38,2.18-2.59,4-2.61,2.5,0,5,0,7.5,0H171.26C174.23-54,177.41-54.55,179-51Z" transform="translate(99 99)"/><path class="cls-138" d="M-11-93l-1.9-.19V-94H328v1a2.46,2.46,0,0,1-3,0h-8c-1.73.92-3.6.46-5.4.46q-154.61,0-309.2,0c-1.8,0-3.67.46-5.4-.46Z" transform="translate(99 99)"/><path class="cls-104" d="M-3-93H317c-1.48,1.64-3.43,1-5.18,1Q157-92,2.18-92C.43-92-1.52-91.36-3-93Z" transform="translate(99 99)"/><path class="cls-104" d="M325-93h3c.38.2,1.6.34.77.77A2.89,2.89,0,0,1,325-93Z" transform="translate(99 99)"/><path class="cls-139" d="M244.89,90c6.06.91,12.11-.39,18.17,0,2.15.14,4.31,0,6.23,1.19L257,99a10.51,10.51,0,0,0-1.35.53c-8.65,4.75-12.79,2.3-12.74-7.53Z" transform="translate(99 99)"/><path class="cls-140" d="M281,74a9.8,9.8,0,0,1-9.2-.17C274.86,71.32,277.93,71.58,281,74Z" transform="translate(99 99)"/><path class="cls-24" d="M145.9,1c0,4,0,8,0,12H-85c.21-2.44.46-4.66-1.2-7C-88,3.31-86.91,1.2-83.39,1c1.33-.06,2.66,0,4,0Z" transform="translate(99 99)"/><path class="cls-24" d="M147-8l-1,2H-83.29V-8Z" transform="translate(99 99)"/><path class="cls-141" d="M147.08-5,148-8c5.19-3.71,9-2.8,12.15,2.9A.86.86,0,0,1,160-3.74C155.65-4.08,151.06-1.41,147.08-5Z" transform="translate(99 99)"/><path class="cls-142" d="M159.86-4l.24-1.07C162.21.83,160.28,7,161.17,13c0,3,0,6,0,9-.79,2.6,1,5.61-1.26,8q0-4.5,0-9c-2.06-2.71-1.31-5.86-1.39-8.88-.08-2.72-.09-5.44,0-8.16S157.93-1.62,159.86-4Z" transform="translate(99 99)"/><path class="cls-143" d="M145.91,21c.18,11.08.84,8.89-8.79,9-14.43.13-28.86.07-43.29,0A26.39,26.39,0,0,0,86,31l-3-2.9c-1.4-2.81-3.62-5-5.75-7.18Z" transform="translate(99 99)"/><path class="cls-144" d="M76.88,21.07c-3,1.82-6.56,1.3-9.62,1.31-3.56,0-3.3,1.51-3.29,3.71a5.41,5.41,0,0,1-.89-.28c-.58-6.19.85-9.64,5-10.22S75.65,16.46,76.88,21.07Z" transform="translate(99 99)"/><path class="cls-145" d="M-94,125v31.73c1.91-2.93-.14-5.8,2-7.73v8c2.06,4.17,2.06,19.69,0,24-.7,8-.4,16.08-2,24h0a211,211,0,0,1,0-32c-.44-2.65,1-5.55-1-8-1.07-11.7-.21-23.43-.45-35.14,0-1.62-.42-3.31.45-4.86l0-16q.49-.68,1,0Z" transform="translate(99 99)"/><path class="cls-146" d="M-94,109h-1V54.23h1Z" transform="translate(99 99)"/><path class="cls-147" d="M-95,125v40c-1.62-1.48-.95-3.42-1-5.17-.06-11.61,0-23.22,0-34.83Z" transform="translate(99 99)"/><path class="cls-12" d="M341,386l10-2c-3.06,7.08-9.65,7.87-15.87,7.89q-103.42.25-206.86.11c-50,0-99.94.11-149.9-.15-5.92,0-12.57-.73-15.37-7.85,3.5-.16,6.65,1.41,10,2l1,.11c3.8,1.95,7.84,2.44,12.09,2.44q170.94-.07,341.88,0c4.25,0,8.3-.44,12.09-2.44Z" transform="translate(99 99)"/><path class="cls-12" d="M-43,387a2.44,2.44,0,0,1-.48-.05c-2.45-1-5.77-3.22-4.63-5.05,1.41-2.24,4.93-1,7.11,1.1C-43.68,383.33-42.81,385.43-43,387Z" transform="translate(99 99)"/><path class="cls-12" d="M-38,394c-4.24.14-5.52-2.18-5-6C-40,388.92-36.93,389.72-38,394Z" transform="translate(99 99)"/><path class="cls-114" d="M365,373c-3.33,5.31-9.49,5.52-14.41,8-3.24,1.6-7.28,1.65-9.59,5h0a30.56,30.56,0,0,1-13.13,2.48q-170.86,0-341.74,0A30.56,30.56,0,0,1-27,386h0c-2.31-3.39-6.35-3.44-9.59-5-4.92-2.44-11.08-2.65-14.41-8-1.7-1.06-4.7-.85-4-4.19,1.32-.77,2.45-.16,3.6.47a63.44,63.44,0,0,0,6.27,3.58c8.82,5.45,18.51,7.14,28.68,6.75,2.5-.1,5-.16,7.49-.16H323.33c6.46,0,12.87.5,19.39-.55,7-1.11,13.2-3,18.07-8.37a6.69,6.69,0,0,1,5.85-2.2,3,3,0,0,1,1.58.73C369.18,372,366.55,372.07,365,373Z" transform="translate(99 99)"/><path class="cls-148" d="M-55,369c.69,2,2.8,2.53,4,4a20.34,20.34,0,0,0-2.47,0c-2.31.28-5.53-1.29-5.6,3.29-.06,3.77,1.53,5.15,5.68,4.58-1.31,2.25-2.83,4.19-.61,6.11-5.56,0-6.21-5.39-8.85-8.48-1.26-1.47-1.9-3.32-4.15-3.52a1.82,1.82,0,0,0-2-2c-1.85-3.79.59-7,1.56-10.36.55-1.88,2.52-1.26,3.72-.27A17.5,17.5,0,0,0-56.77,366C-55.67,366.67-54.52,367.37-55,369Z" transform="translate(99 99)"/><path class="cls-149" d="M-94,173v32h-1c0-8.95,0-17.9,0-26.84C-95,176.41-95.63,174.47-94,173Z" transform="translate(99 99)"/><path class="cls-150" d="M-97,205V173c1.63,1.47,1,3.42,1,5.16.06,8.94,0,17.89,0,26.84Z" transform="translate(99 99)"/><path class="cls-151" d="M-91,196c3.92-1.85,2-6.31,4-9,1.37,3-.06,5.7-.58,8.59-.61,3.39-.32,6.93-.42,10.41.33,5.1-.58,10.24.56,15.34.45,2-.94,3.71-2.35,5.26-2.45-1.26-.08-4.33-2.21-5.59C-92.67,212.63-91,204.35-91,196Z" transform="translate(99 99)"/><path class="cls-73" d="M-92,181V157c4.29-5.39,5.24-11.95,5.86-18.42.42-4.4,2.37-5.63,6.39-5.62q68.22.09,136.43,0A9.78,9.78,0,0,1,62,134c0,4.49-.19,9,0,13.48.19,3.44-.94,4.67-4.49,4.59-9.82-.21-19.64-.07-29.46-.07H-77.27c-6.11,0-8.2,3.5-10,9-2,6-1.62,11.71-1.69,17.6C-89,180.72-90.35,181-92,181Z" transform="translate(99 99)"/><path class="cls-148" d="M365,373l3-3c2-4.69,7.32-5.13,10.66-8.13a1.73,1.73,0,0,1,2.85.79c.76,3.4,3.34,6.57,1.49,10.34a1.82,1.82,0,0,0-2,2c-4.43.74-4.61,5.31-7,7.92-1.76,2-2.94,4.27-6,4.08,1.68-1.87,2-3.68-.71-5.12,1.85-1.5,4.23-.22,5.2-2.2a7.33,7.33,0,0,0,.26-5.31c-.56-1.94-2.42-1.24-3.8-1.35S366.32,373,365,373Z" transform="translate(99 99)"/><path class="cls-152" d="M-55,369a3.46,3.46,0,0,0-2-2c-.85-1.63-3.08-2.47-2.72-4.79A2.43,2.43,0,0,1-59,361c.5,0,1.29-.16,1.45.09,2.81,4.19,8.18,4.52,11.52,7.67A7.38,7.38,0,0,0-40.41,371q197.42,0,394.82,0A8.52,8.52,0,0,0,360,368.8c4-3.06,8.6-5.25,13-7.8a2.62,2.62,0,0,1,.79,1.22c.19,4.07-3.84,4.53-5.79,6.78-3.5.48-5.91,2.16-8.34,5-3.38,3.94-8.8,5.05-13.81,5.89-3.41.57-6.9.73-10.14,2-2.59,1-4.54-1-7-1-114.5.16-229,.05-343.48.3A79.76,79.76,0,0,1-41.41,377c-2.31-.8-3.9-2.43-5.59-4-1.55-1.2-2.82-2.85-5-3Z" transform="translate(99 99)"/><path class="cls-114" d="M-59,361v1c-5.37.06-9.26-4.32-8-9h0C-63.24,354.58-61.67,358.33-59,361Z" transform="translate(99 99)"/><path class="cls-114" d="M373,362v-1c2.67-2.67,4.24-6.42,8-8h0C382.2,357.51,378.16,362.05,373,362Z" transform="translate(99 99)"/><path class="cls-111" d="M-67,353c.09,5.29,4.26,6.95,8,9l2,5a9.24,9.24,0,0,1-7.07-3.47c-1.47-1.8-3.09-1.7-2.85,1.05.27,3.13-3,5.24-2.08,8.42-3.11-3.75-6.37-7.41-5-12.93.47-1.91-1.32-2.76-2.13-4.11-1.3-2.14-1.73-4.83.24-6.78,2.34-2.31,3.73.28,5.22,1.63C-69.61,351.8-68.69,353-67,353Z" transform="translate(99 99)"/><path class="cls-153" d="M373,362c3.64-2.13,7.68-3.91,8-9a9,9,0,0,0,4.79-4.11c.64-1.11,1.79-2.34,3.25-1.17,1.18.93,3.78,1.63,2.61,3.6-4,6.8-2.06,16-8.65,21.68.69-3.42-2.55-5.88-2.19-9.36.18-1.79-1.57-1.51-2.33-.5-2.7,3.56-7.58,3.68-10.48,6.86v-1C368.85,366.08,373.35,365.78,373,362Z" transform="translate(99 99)"/><path class="cls-154" d="M178.94,120.2,182,124c-3,5.39-8.43,6.81-13.81,8.29-3.91-.46-7,1-9.7,3.81-3.44,2-6.62,4.39-10.27,6-5.15,2.32-5.76,1.93-5.64-3.85,2.87-3.42,7.16-4.8,10.88-6.64,7.82-3.87,15.11-8.85,23.49-11.55Z" transform="translate(99 99)"/><path class="cls-155" d="M177,120c-3.37,4.33-8.93,5.93-13.31,7.87-7,3.11-13,8.28-20.59,10.08a.73.73,0,0,1-.2-1.22l1.26-6.72a4.22,4.22,0,0,0,.76-.25c1.14.21,2.33.59,3.41.07,7.86-3.75,16.16-6.7,22.7-12.78C173.58,116.91,175.09,118.88,177,120Z" transform="translate(99 99)"/><path class="cls-156" d="M171,117.09c.66,1.2.5,2-.79,2.84A218.12,218.12,0,0,1,148,131.46c-1.77.83-2.86.36-3.12-1.65a8.48,8.48,0,0,1,2.71-4.94c5.61-3,10.94-6.5,17.26-7.89,1.74-.39,3.5-.92,5.25,0A.92.92,0,0,1,171,117.09Z" transform="translate(99 99)"/><path class="cls-157" d="M170.13,117c-5.39-.12-9.91,2.64-14.29,5.08a25.94,25.94,0,0,1-8.22,2.84c1-2.71,3.68-3.85,5.42-5.86C158.53,116.65,164.07,114.65,170.13,117Z" transform="translate(99 99)"/><path class="cls-158" d="M38.69,94.12c4.89-2.18,10.06-.49,15.07-1.07,2.11-.24,4-.28,4.22-3l.83,0c1.78,4,2.08,7.71-2.08,10.52-3.75,2.54-7.14,1.22-10.4-1C43.76,97.76,41.23,95.93,38.69,94.12Z" transform="translate(99 99)"/><path class="cls-97" d="M-92,117c0-2.23,0-4.45,0-6.68,0-.09.2-.18.3-.28l.66,1C-91.33,113-90.19,115.24-92,117Z" transform="translate(99 99)"/><path class="cls-122" d="M186,130l36.86,0c.08,5.11,1.61,10.11,1.14,15.29-.18,1.89,0,3.73-2.74,3.72-11.93-.05-23.86-.05-35.79-.14-.53,0-1.06-.68-1.59-1a2,2,0,0,1-.45-1.85A21.58,21.58,0,0,0,185,141a11.48,11.48,0,0,1,.3-1.29,9.06,9.06,0,0,0,.37-2.69C186.12,134.71,184.09,132.25,186,130Z" transform="translate(99 99)"/><path class="cls-159" d="M184.18,146l-.27,1.78c-6.13,8.1-14.31,13-24.07,15.4-1.07.27-2.31.42-3,1.57a1.42,1.42,0,0,1-1,.81c-3.58.69-6.34,3.35-9.91,4.14-1.48.32-1.74,1.8-1.74,3.19A13.44,13.44,0,0,1,144,175c-.29.92-.46,1.94-1.77,1.89a54.42,54.42,0,0,1,0-11.9c12.59-5.32,24.22-12.59,36.71-18.09C180.62,146.2,182.25,145.06,184.18,146Z" transform="translate(99 99)"/><path class="cls-127" d="M156.09,165.12c.26-.11.53-.22.79-.35.08,2.74.17,5.47.25,8.21v11c0,3.66,0,7.33,0,11v33.9l-.21.17a1.17,1.17,0,0,1-1.55-.55c-1.79-6.59-.58-13.3-.8-20-.05-1.74,0-3.49,0-5.23-.07-1.41,0-2.82,0-4.22,0-1.65,0-3.31,0-5q-.07-2,0-4.08c-.07-1.62.05-3.24,0-4.86,0-1.08,0-2.15,0-3.23,0-1.59,0-3.19,0-4.79,0-1.3,0-2.61,0-3.92s0-2.58.06-3.86a12,12,0,0,1,.19-2.32A3,3,0,0,1,156.09,165.12Z" transform="translate(99 99)"/><path class="cls-160" d="M186.55,137.84a2,2,0,0,1-.44,2.32c-6.82.85-12.2,5.07-18,8.14-9.33,5-18.77,9.66-28.2,14.41a11.93,11.93,0,0,1-6.21-2.59c5.11-3.63,11.28-5.24,16.55-8.58a27.09,27.09,0,0,0,5.25-3.62c5.26-1.43,9.52-4.94,14.5-6.94,4.57-.77,7.84-4.29,12.08-5.73C184.59,134.41,186.84,134,186.55,137.84Z" transform="translate(99 99)"/><path class="cls-161" d="M184.18,146c-12.85,5.08-24.49,12.6-37,18.3-1.63.74-3.2.57-4.82.68l-1.24-1.17c0-.27-.08-.54-.12-.81,3.59-3.3,8.25-4.75,12.42-7,8.4-4.58,17.05-8.7,25.52-13.17,2.12-1.12,4.45-2.19,7-1.82A6.24,6.24,0,0,1,184.18,146Z" transform="translate(99 99)"/><path class="cls-162" d="M185.94,141q-15.16,7.49-30.34,15c-4.86,2.38-9.35,5.56-14.64,7.05l-1-.31c-.05-.47-.26-1.29-.13-1.35,10.38-4.68,20.31-10.23,30.37-15.53,3.22-1.7,6.3-3.72,9.65-5.11,1.88-.78,4-2.94,6.28-.56A1,1,0,0,1,185.94,141Z" transform="translate(99 99)"/><path class="cls-163" d="M127,157.08l-2.28-3c3.82-4.24,9.08-5.56,14.26-7.05l2.86-.1c4.54-3.48,9-7.22,15.15-7.25a2.45,2.45,0,0,1,.61,2.13c-.75,2.84-3.25,3.74-5.45,5-5.75,3-11.94,5-17.36,8.71-1.65,1.11-3.75,2.25-6.09,1.59Z" transform="translate(99 99)"/><path class="cls-164" d="M156.12,147.77c-.1,2.7-2.33,3.3-4.19,4.26-5.92,3-11.51,6.81-18.2,8.09l-1.93-1c.62-2.61,3.06-3.19,5-4.25,2.67-1.5,5.57-2.58,8.06-4.43,3.95-.29,6.61-4.16,10.77-3.86A1,1,0,0,1,156.12,147.77Z" transform="translate(99 99)"/><path class="cls-165" d="M145,151c-3.36,4.39-9.35,4.51-13.2,8.11-1.5.09-2.31-.91-3.1-2,7.68-3.91,15-8.6,23.3-11.15C151.35,150,147.66,149.79,145,151Z" transform="translate(99 99)"/><path class="cls-166" d="M139,147.07c-4.32,3.22-9.55,4.61-14.26,7.05-2-.17-2.61-1.83-3.54-3.16,4.5-2.45,8.69-5.52,13.78-6.76C136.91,144.3,137.32,146.56,139,147.07Z" transform="translate(99 99)"/><path class="cls-167" d="M156.86,140c-5.42,1.43-9.71,5.31-15,7,.53-3.38-.57-6.93,1-10.19.07.4.13.81.2,1.21-.67,4.35.59,5.44,4.55,3,3.43-2.14,7.08-3.92,10.63-5.86C159.34,137.17,158.73,138.76,156.86,140Z" transform="translate(99 99)"/><path class="cls-168" d="M117.94,140.84c2.3-4.62,5.78-5.25,10.12-3-.09,4.06-5.58,8.1-9.16,6.67C117,143.79,117.33,142.32,117.94,140.84Z" transform="translate(99 99)"/><path class="cls-169" d="M119.17,149a2.15,2.15,0,0,1-1.28-1.92,37.6,37.6,0,0,1,13-6.86l1,1c.31.4.66.85.5,1.34C131.05,146.82,123.81,150.32,119.17,149Z" transform="translate(99 99)"/><path class="cls-170" d="M119.17,149c5-1.34,10.56-1.83,12.77-7.78,1.61.42,1.74,2.3,3,3-4.26,2.94-8.38,6.15-13.78,6.76A3.49,3.49,0,0,1,119.17,149Z" transform="translate(99 99)"/><path class="cls-171" d="M130.94,140.17a63.74,63.74,0,0,1-13,6.86c-1.55-1.83-.84-3.94-.73-6a6.94,6.94,0,0,0,.78-.22c.32,1.09-.45,3.18,1.78,2.66,3.42-.81,7.27-1.26,8.34-5.64A4.69,4.69,0,0,1,130.94,140.17Z" transform="translate(99 99)"/><path class="cls-172" d="M156.13,228.91l.8.14-.21.4a59.28,59.28,0,0,1-14.88,0q.19-15.28.4-30.58c.66-1.37-.19-3,.79-4.34,3.09-2.09,6.89-2.73,9.93-4.95a2.47,2.47,0,0,1,3.14.4v4c-2.57,2.4-5.9,3.56-8.81,5.41-2,1.28-3.28,2.67-3,5.14,0,1.57,0,3.13.07,4.7.07,1.38,0,2.76,0,4.13a84.86,84.86,0,0,1,0,8.88c-.18,3.69,1.12,5.57,5.07,5.3C151.79,227.4,154.16,227.35,156.13,228.91Z" transform="translate(99 99)"/><path class="cls-173" d="M143,195c-.18,1.31.38,2.78-.8,3.88a68.64,68.64,0,0,1,0-13c.5-1.11,0-2.43.75-3.48,4.3-1.95,7.61-6.29,13.08-5.43v5c-2.63,1.71-5.4,3.21-8.16,4.7-2,1.07-3.69,2.3-3.63,4.87A5.23,5.23,0,0,1,143,195Z" transform="translate(99 99)"/><path class="cls-174" d="M143,183c-.08,1,.16,2.12-.77,2.91q0-4.5,0-9L143,175c4.27-2.2,7.66-6.28,13-6,0,1.33,0,2.66,0,4a14.94,14.94,0,0,1-7.16,5.06A10.18,10.18,0,0,0,143,183Z" transform="translate(99 99)"/><path class="cls-175" d="M167.89,131.06c5.55-.71,9.73-4.14,14.15-7.11a3.58,3.58,0,0,1,2,2.92c.69,1.46.83,3-.69,3.85-3.43,2-6.33,5.25-10.82,4.95C170.46,134.67,168.29,133.75,167.89,131.06Z" transform="translate(99 99)"/><path class="cls-176" d="M172,135c4.51-.23,7.37-3.91,11.27-5.44,1-.39.7-1.73.8-2.69a2.32,2.32,0,0,1,1,2c1.18,3,.35,5.19-2.8,6.16-3.6,1.1-6.06,5.37-10.6,3.85A3.07,3.07,0,0,1,172,135Z" transform="translate(99 99)"/><path class="cls-177" d="M171.76,138.93c4.33-1,7.78-3.9,11.72-5.73,2-.9,1.4-2.72,1.56-4.28l1,1.08c-.05,2.63,1.51,5.15.52,7.84-.92-3.31-3-1.86-4.86-1.17-4.13,1.49-7.1,5.66-12.06,5.2C169.18,140,169.82,139,171.76,138.93Z" transform="translate(99 99)"/><path class="cls-178" d="M160,12v9H147V12A13.09,13.09,0,0,1,160,12Z" transform="translate(99 99)"/><path class="cls-179" d="M159.86-4l.1,8a13.11,13.11,0,0,1-13,0q0-4.5.08-9C151.22-3,155.77-6.56,159.86-4Z" transform="translate(99 99)"/><path class="cls-180" d="M147,4h13c0,2.67,0,5.33,0,8H147Z" transform="translate(99 99)"/><path class="cls-181" d="M-27,386q184,2.49,368,0c-2.25,3.06-5.27,4.05-9.05,4.05q-174.94-.09-349.9,0C-21.73,390.05-24.75,389.06-27,386Z" transform="translate(99 99)"/><path class="cls-114" d="M-52,370c3.1-1.38,4,1,5,3C-49.13,372.78-50.52,371.3-52,370Z" transform="translate(99 99)"/><path class="cls-112" d="M345.66,378c-1.47-.28-4,.53-3.74-1.75.2-2,2.69-1.23,4.21-1.24,1.33,0,3.61-.62,3.5,1.45C349.51,378.86,347.07,377.65,345.66,378Z" transform="translate(99 99)"/><path class="cls-182" d="M171.76,138.93l-2.13,2.94c-4.26,2.54-7.79,6.72-13.51,5.9a.94.94,0,0,0,0-.77c-1.74-1.81,1-3.17.49-4.86.09-.71.19-1.43.28-2.14l1.41-4.91c2.27-3.56,5.51-4.82,9.62-4L172,135C171.9,136.31,171.83,137.62,171.76,138.93Z" transform="translate(99 99)"/><path class="cls-183" d="M156.09,165.12l0,1.87c-4.3,2.1-7.61,6.37-13,6a9.71,9.71,0,0,1,.27-2.93C143.87,168.69,154.25,164.83,156.09,165.12Z" transform="translate(99 99)"/><path class="cls-184" d="M143,173c4.61-1.43,7.95-5.64,13-6v2c-4.62,1.43-7.94,5.66-13,6Z" transform="translate(99 99)"/><path class="cls-185" d="M156.13,228.91C143,229.25,143,229.25,143,216c0-1,0-2,0-3,2.54-2.15,5.71-3.25,8.5-5,1.43-.89,3.06-1.3,4.59,0Q156.12,218.46,156.13,228.91Z" transform="translate(99 99)"/><path class="cls-186" d="M143,209c0-1.66,0-3.33,0-5,2.8-2.46,6.48-3.44,9.48-5.61a2.84,2.84,0,0,1,3.59.6v4C152.41,206.4,148.7,209.82,143,209Z" transform="translate(99 99)"/><path class="cls-187" d="M156.11,199c-2-.07-4-.12-5.29,1.72-1.93,2.74-5.1,2.4-7.79,3.29-.68-6.58,6.09-5.69,8.93-8.75.85-.92,2.74-.87,4.15-1.26Z" transform="translate(99 99)"/><path class="cls-188" d="M143,209c4.76-1.15,8.68-4.1,13.08-6,0,1.67,0,3.35,0,5-3.12-.36-5.12,1.93-7.55,3.19-1.75.9-3.43,2-5.54,1.81Z" transform="translate(99 99)"/><path class="cls-189" d="M143,191c.18-1,0-2.45.59-2.79,3.95-2.46,7.33-6.16,12.47-6.23v3C152.68,189,148.88,192.24,143,191Z" transform="translate(99 99)"/><path class="cls-190" d="M143,191c5-.59,8.9-3.61,13.06-6,0,1.67,0,3.35,0,5-4.71.74-8.06,5-13.07,5Z" transform="translate(99 99)"/><path class="cls-191" d="M143,183a4.72,4.72,0,0,1,3.4-5.41c3.71-.76,6.18-3.65,9.65-4.6,0,1.33,0,2.67,0,4Z" transform="translate(99 99)"/><path class="cls-165" d="M156.58,142.14c.6,1.7-.3,3.24-.49,4.86-4.06.33-6.58,4.93-11.09,4,2.26-1.77,5.41-2.3,7-5C153.24,144.37,155.7,144.2,156.58,142.14Z" transform="translate(99 99)"/></svg>