<svg id="图层_1" data-name="图层 1" xmlns="http://www.w3.org/2000/svg" viewBox="0 0 518.82 517.91"><defs><style>.cls-1{fill:#ed22cd;}.cls-2{fill:#e923c2;}.cls-3{fill:#c71efd;}.cls-4{fill:#c01cfc;}.cls-5{fill:#ca1ef9;}.cls-6{fill:#cd1efa;}.cls-7{fill:#ea23c7;}.cls-8{fill:#bb1cfd;}.cls-9{fill:#ed23d0;}.cls-10{fill:#ba1bfe;}.cls-11{fill:#c31efc;}.cls-12{fill:#e823ba;}.cls-13{fill:#b81cfc;}.cls-14{fill:#ea24bd;}.cls-15{fill:#ea25b8;}.cls-16{fill:#ea25b3;}.cls-17{fill:#e925b7;}.cls-18{fill:#e824b5;}.cls-19{fill:#db20f8;}.cls-20{fill:#f321f0;}.cls-21{fill:#ef22df;}.cls-22{fill:#ef21e7;}.cls-23{fill:#ea23bf;}.cls-24{fill:#e723b5;}.cls-25{fill:#b21cf9;}.cls-26{fill:#e72bb5;}.cls-27{fill:#ec21f3;}.cls-28{fill:#b71ffc;}.cls-29{fill:#e824ba;}.cls-30{fill:#c11ef6;}.cls-31{fill:#e221bb;}.cls-32{fill:#e221ba;}.cls-33{fill:#e420b5;}.cls-34{fill:#b721fc;}.cls-35{fill:#ef22de;}.cls-36{fill:#ae20f6;}.cls-37{fill:#ba1bf6;}.cls-38{fill:#c021f9;}.cls-39{fill:#a816f5;}.cls-40{fill:#b916f7;}.cls-41{fill:#b81af7;}.cls-42{fill:#ca28fb;}.cls-43{fill:#bc1bf9;}.cls-44{fill:#ef31b8;}.cls-45{fill:#e520b8;}.cls-46{fill:#c428fc;}.cls-47{fill:#b01cf6;}.cls-48{fill:#e224bd;}.cls-49{fill:#b117f4;}.cls-50{fill:#b017f4;}.cls-51{fill:#e829b9;}.cls-52{fill:#e328b6;}.cls-53{fill:#b01bf7;}.cls-54{fill:#bd27fc;}.cls-55{fill:#ae23f6;}.cls-56{fill:#b735fa;}.cls-57{fill:#ec24c9;}.cls-58{fill:#e327c2;}.cls-59{fill:#d91fc3;}.cls-60{fill:#ef1ac9;}.cls-61{fill:#ef1aca;}.cls-62{fill:#c81cfb;}.cls-63{fill:#d024fc;}.cls-64{fill:#b016f4;}.cls-65{fill:#b91af9;}.cls-66{fill:#a910f5;}.cls-67{fill:#c622fd;}.cls-68{fill:#b018f6;}.cls-69{fill:#a60cf7;}.cls-70{fill:#b313fb;}.cls-71{fill:#b119f6;}.cls-72{fill:#b218ef;}.cls-73{fill:#b916f5;}.cls-74{fill:#fefefe;}.cls-75{fill:#d01ef9;}.cls-76{fill:#c527fe;}.cls-77{fill:#c627fd;}.cls-78{fill:#9f0bf2;}.cls-79{fill:#ad13f7;}.cls-80{fill:#a712f5;}.cls-81{fill:#ee22d4;}.cls-82{fill:#e923bc;}.cls-83{fill:#a015f1;}.cls-84{fill:#e324bd;}.cls-85{fill:#e828b6;}.cls-86{fill:#ec25b1;}.cls-87{fill:#e423b8;}.cls-88{fill:#f21abc;}.cls-89{fill:#f725bb;}.cls-90{fill:#dd25ac;}.cls-91{fill:#d61ef8;}.cls-92{fill:#d21ef9;}.cls-93{fill:#d01cf7;}.cls-94{fill:#d81ef7;}.cls-95{fill:#dd1ef6;}.cls-96{fill:#da20f5;}.cls-97{fill:#dd1ff7;}.cls-98{fill:#d91ff7;}.cls-99{fill:#e21ff3;}.cls-100{fill:#f120ea;}.cls-101{fill:#e81ff3;}.cls-102{fill:#df1ff4;}.cls-103{fill:#e620f5;}.cls-104{fill:#ef20f1;}.cls-105{fill:#eb1ff1;}.cls-106{fill:#ea20f5;}.cls-107{fill:#ef21e4;}.cls-108{fill:#ee22d9;}.cls-109{fill:#ee20d6;}.cls-110{fill:#ee22d8;}.cls-111{fill:#ee20dc;}.cls-112{fill:#ed20e1;}.cls-113{fill:#f020ea;}.cls-114{fill:#ef21e5;}.cls-115{fill:#e31ff4;}.cls-116{fill:#d61ef7;}.cls-117{fill:#f320f0;}.cls-118{fill:#d91ff6;}.cls-119{fill:#eb20f1;}.cls-120{fill:#e720f5;}.cls-121{fill:#d11df8;}.cls-122{fill:#da20f8;}.cls-123{fill:#d120fd;}.cls-124{fill:#c41efd;}.cls-125{fill:#f220eb;}.cls-126{fill:#e01ff5;}.cls-127{fill:#e920f4;}.cls-128{fill:#f022e5;}.cls-129{fill:#e320f4;}.cls-130{fill:#d31ef9;}.cls-131{fill:#dd20f7;}.cls-132{fill:#eb20f2;}.cls-133{fill:#f021e6;}.cls-134{fill:#e21ff5;}.cls-135{fill:#ee20e2;}.cls-136{fill:#e721f4;}</style></defs><title>语言</title><path class="cls-1" d="M-106.09,310.15c-1.93-5.16-2.06-10.53-2-15.94-.83-2.77-.1-5.63-.43-8.42-.45-3.66,1.22-5.22,4.71-5.32a92.45,92.45,0,0,1,10,.06,6.38,6.38,0,0,1,5,2.81c2.81,3.85,7,4.18,10.46.74a8.82,8.82,0,0,1,6.23-2.63c2.49-.11,5-.08,7.49-.08q210.65,0,421.29-.08c15,0,29.94-1.32,44.93-.91,2.47.07,5-.3,7.26,1.24,1.19,4.15.74,8.33.23,12.52.06,5.15.05,10.29-1.86,15.2-4.62-2.53-3.42-6.91-3.44-10.9a11,11,0,0,0,.22-2.95c-.22,2.94-2.18,3.64-4.46,3.92a40.22,40.22,0,0,1-6.49.16c-13.35-.62-26.62,1.31-39.95,1.05-2.63-.06-5,.33-5.84,3.45-.68,2.46-2.67,3.21-5,3.28s-4.66.06-7,.06q-199,0-397.92.12c-8,0-15.64-3-23.67-2.26-1.68.15-3-1-4.24-2.32-4.63-5.07-7.3-4.47-9.49,2.05-2.18,1.47-2.26,1.4-3-2.25a6.31,6.31,0,0,1-.34-1.84,3.9,3.9,0,0,1,0-1.08c-.57,1.45.61,3.09.39,4.8a5.89,5.89,0,0,1-.23,1.32,26.53,26.53,0,0,1-1.21,3.1A2.28,2.28,0,0,1-106.09,310.15Z" transform="translate(108.92 108.93)"/><path class="cls-2" d="M-94.81,343a67.56,67.56,0,0,1-8.41-20.9c.55-2.4,2.23-2.54,4.24-2.19,3.8.67,7.65.47,11.47.47h475.4c4.16,0,8.33.2,12.47-.49,2.51-.42,3.87.51,3.69,3.21a75,75,0,0,1-8.18,19.9c-.3.17-.84.41-.88.35-2.79-5.18-7.68-3.77-12-3.77q-55.21,0-110.42,0c-7.09,0-7.09,0-8.62,6.54a3.58,3.58,0,0,1-1.22,1.5c-2.32,1.24-4.86,1-7.34,1q-133.89,0-267.79,0c-2.33,0-4.68.15-6.89-.8a3.52,3.52,0,0,1-1.89-3.29c0-4.7-2.87-5.12-6.61-5.1-19.45.1-38.9,0-58.35.07-2.81,0-6.13-.88-6.93,3.45C-93.22,343.55-94.22,343.4-94.81,343Z" transform="translate(108.92 108.93)"/><path class="cls-3" d="M-102-26.07a8.69,8.69,0,0,1,1.91-5c2.09-.95,2.49,1.63,4.25,2.1,1.16-3,1.87-6.48,6.1-6.47a83.44,83.44,0,0,1,8.51-.21H384.05a48.84,48.84,0,0,1,9,.36c2.42.34,2.94,2.69,4.31,4.14a9.13,9.13,0,0,1,1,2.57,10.25,10.25,0,0,0,5.3,3.67c.64,1.58,1.48,3.11,1.32,4.91-.19,3.33,0,6.71-1.56,9.84a2.14,2.14,0,0,1-1.68.61c-2.4-1.74-5.09-2-8-2q-243.3.06-486.6,0c-1.81,0-3.67-.32-5.4.52a7.6,7.6,0,0,1-1.33,1.2,2.35,2.35,0,0,1-2.4-.12c-2.56-3.17-.2-7-1.4-10.37C-103.29-22.28-102.42-24.12-102-26.07Z" transform="translate(108.92 108.93)"/><path class="cls-4" d="M-81-64.08l1.78-2A2.55,2.55,0,0,0-76.88-69l4.93-5c1.55-1.14,2.82-.39,4.06.59a2.4,2.4,0,0,1,.4,2c-.6,1.19-2.25,2.55.57,3.16a44.52,44.52,0,0,0,9.49.58h192a36.66,36.66,0,0,0,11.36-1.3,11.35,11.35,0,0,1,6.91-.25c6,1.92,12.19,1.54,18.34,1.54q88.49,0,177,0c7,0,14,0,21-.18,2.29.52,4.38-1,6.66-.69,1.62.55,1.95,3.59,4.51,2.36l1.78,2a4.36,4.36,0,0,1-1.19.8c.62.09.74-.63,1.24-.75A46,46,0,0,1,390.87-52a1.93,1.93,0,0,1-1.17,1.4,4.21,4.21,0,0,1-1.23,0c-1.93-.32-1,.71-.63,1.43a9.92,9.92,0,0,0,2.4,3.8c1.22,3.56.45,5-2.4,3.74-6.31-2.67-12.81-1.68-19.23-1.68Q148-43.43-72.53-43.4c-3.47,0-7,.47-10.35-1-1.58-.79-2.18-2.39-3.08-3.73a3.38,3.38,0,0,1-.46-1.24c0-.69.32-1.46-.46-2a7.65,7.65,0,0,0-2.08-.1,1.25,1.25,0,0,1-.89-.58,48.07,48.07,0,0,1,8.77-12c.59.27.92.9,1.55,1.11C-80-63.35-80.57-63.65-81-64.08Z" transform="translate(108.92 108.93)"/><path class="cls-5" d="M403-11a16.57,16.57,0,0,1,1.94-9,76.44,76.44,0,0,1,4.18,25.74,2.19,2.19,0,0,1,0,1.87c-1,3.7-6.27,7.39-11.33,7.85a78.86,78.86,0,0,1-8,.19c-19-.16-37.94,1-56.93,1q-199.7-.26-399.39-.08c-4.26,0-8.32-.35-11.85,3.54-2.82,3.13-10.54,1.69-12.89-1.78a5.84,5.84,0,0,0-4.92-2.78A16.17,16.17,0,0,1-107.3,9.74c.41-4.2,3.37-2.21,5.46-2.44a7.91,7.91,0,0,1,.23-4.57c.4-4.55,3.15-6.3,7.42-6.3,2,0,4,0,6,0q201.09,0,402.19,0c24.8,0,49.61-.13,74.42,0,1.67,0,3.33,0,5,0,7.51.15,8.91,1.37,10,8.66,2.51-1.59.92-3.76.85-5.7A7.74,7.74,0,0,1,404-2c-.2-1.61.4-3.13.56-4.7A9.57,9.57,0,0,0,403-11Z" transform="translate(108.92 108.93)"/><path class="cls-6" d="M-107,8c3.32,3.51,7,6.31,12.18,6,2.6-.15,5.2-.29,4.88,3.61-.11,1.33.7,2.64,2,2.24,3.49-1.05,9.1,3.51,10.33-3.81.19-1.11,1.57-1,2.56-1,1.5,0,3,0,4.5,0q214.8,0,429.61-.15c13.06,0,26.16-.83,39.25-.84,1.7,0,3.35.09,3.9-2.13.26-1,1.3-2.07,2.17-1.68,3.54,1.58,3.45-1.54,4.51-3.2,1.09,7.73.78,15.48.17,23.22-2,1.62-4.4,1.34-6.7,1.39-86.59,1.83-173.2.72-259.8,1-2.48,0-5,.19-7.36-.95-2.33-2.48-5.23-3.14-8.56-3.13q-36.19.09-72.38,0c-3.12,0-6,.42-8.11,2.94-2.8,1.47-5.84,1.07-8.81,1.08q-52.9,0-105.8,0c-3.49,0-6.61.05-9.38,3.23C-80.78,39.17-88.78,38-91,34.31c-1.38-2.29-3.17-2.58-5.39-2.73-3.77-.25-7.67.75-11.3-1.06-1.87-5.36-.12-10.94-1-16.37-.17-2.75-.64-5.51.48-8.18,1.6-1.31-.2-3.57,1.63-5.12C-104,3.46-104,5.77-107,8Z" transform="translate(108.92 108.93)"/><path class="cls-7" d="M404.05,323.09c-.78-.8-.6-3.19-2.57-2-2.54,1.54-5.2.88-7.79.88q-243.87.06-487.75.19c-3,0-6.13-2.65-9.16-.06a31.84,31.84,0,0,1-2.87-11.94L-105,309c1.25-.7-.06-2.24,1-3h0c1.13-1.13-.09-2.86,1-4,1.61.86.37,3.14,2,4,8.61-1.32,17.24-.57,25.84,0,1.93.12,3.92.54,5.9.54,136.76,0,273.52.24,410.28-.28,17.91-.07,35.89-.46,53.84-.86,3.4-.07,6.24-.74,7.65-4.3.41-1,1-2.17,2.49-2.07-.23,3.65,0,7.21,2.22,10.34A43.44,43.44,0,0,1,404.05,323.09Z" transform="translate(108.92 108.93)"/><path class="cls-8" d="M371-67c-2.62,1-5.36,1-8.11,1H161.57c-2.51,0-4.95,0-7.27-1.29a8.31,8.31,0,0,0-7.28-.41c-4.66,2.28-9.44,1.66-14.2,1.66Q35.91-66-61-66c-3.16,0-6.33.2-9-2-.68-1.89,1.22-2.08,2-3v-2c-.79-.83-2.45-1.06-2-2.8l2.79-2.61A2.12,2.12,0,0,1-66-77.2a2.24,2.24,0,0,0,1.6,1.34c2.09,0,2.25-1.73,2.69-3.17A6.31,6.31,0,0,1-59.7-82.5c5.3-2.89,11.07-1.4,16.61-1.56,2.93-.09,6,.47,9,.47H336.6a93.22,93.22,0,0,0,10.95-.73c4.12-.5,8.3-1,12.25,1,.44.36.9.71,1.36,1a10.35,10.35,0,0,1,1.74,3.48c.87.61.25,3.82,2.75,1.53a2.9,2.9,0,0,1,1.49-1.12,4.32,4.32,0,0,1,2.94,2.27c.22,1.66,1.65,3,1.38,4.78a5.71,5.71,0,0,0,.09,3.25A1.43,1.43,0,0,1,371-67Z" transform="translate(108.92 108.93)"/><path class="cls-9" d="M408.93,282c-10.49,0-21-.15-31.47,0-149.65,2.27-299.31.33-449,1-2.49,0-5.45-1-5.74,3.4-.15,2.28-2.65,1.71-4.12,1.51-3.48-.46-9,2.56-9-4.71,0-.37-.93-1.06-1.44-1.07-4.82-.08-9.65-.14-14.47,0-1.79.06-1.71,1.73-1.73,3.06,0,3-.07,6-.1,9-1.35-4.74-.73-9.56-.5-14.37.61-3.13-.91-6.51,1.08-9.5,6-1.18,12-2,17.8.67,3.58,5.29,6.26,5.74,11.21,1.65a9.62,9.62,0,0,1,5.95-2.2c2.5-.13,5-.08,7.49-.08q211.1,0,422.18-.09c14.8,0,29.59-1.28,44.41-.9,2.48.06,5-.31,7.28,1.2A22.22,22.22,0,0,1,408.93,282Z" transform="translate(108.92 108.93)"/><path class="cls-10" d="M-4.09-107.29C-1.48-108.4,1.27-108,4-108q146.52.06,293,0l1,.06a109.88,109.88,0,0,1,18,3.84c1.66.39,3.37-1,5,.13a75.24,75.24,0,0,1,22.26,8.9c-4.56,4.87-10.22,5.83-16.72,5.82q-177.25-.21-354.49,0c-5.71,0-10.52-.84-13.06-6.62l4.8-2.11c5.68-3,11.83-2.15,17.88-2.22.78,0,1.42.88,1.75-1.27.4-2.62,4.36-2.1,6.87-2.17,2.27-.07,3.48,1.41,2.94,4C-3.78-101.63-6.86-105.49-4.09-107.29Z" transform="translate(108.92 108.93)"/><path class="cls-11" d="M-84-46c1.8,1.12,3.81,1,5.81,1q228.65,0,457.29-.2c4.27,0,7.54,1.92,11.35,3.39.14-2.61-2.21-2.65-2.45-4.2-.44-.81,0-1.23.65-1.61,1.42-.6,3,0,4.4-.47a5.44,5.44,0,0,1,1.86,3.1,7.2,7.2,0,0,0,.61,5.11c.61,1.37,1-.58,1.64-.44,2.31,1.72,1.58,4.76,3,6.87a17.38,17.38,0,0,1,.58,2.34c1,3.84.62,4.18-3.71,3.1,0-1,0-2,0-3-1.33-.55.23-3-2-3H-92c-.7-.57-1.81-.2-2.4-1a4.11,4.11,0,0,1-.5-1.27c-.47-3,2.45-5.58,1-8.69A5.23,5.23,0,0,1-92-48.08c3.16.37,1.56-3,3-3.91l2-1c.46,1,1.6,1.68,1,3v1a2.5,2.5,0,0,1,.81,2.11c-.07.67-.46,1.25-.52,1.92C-85.31-45.6-85.06-46.47-84-46Z" transform="translate(108.92 108.93)"/><path class="cls-12" d="M380.18,365.23c-1,4.49-5,6.33-8.07,9-4.44-1.81-9.12-1.67-13.77-1.67q-42.72,0-85.44,0c-7.33,0-7.33,0-9.21,7.08a3.23,3.23,0,0,1-1.42,1.27c-2.4.93-4.92.73-7.41.73q-132.92,0-265.84,0a53,53,0,0,1-5.49-.19c-2.6-.28-4.56-1.45-4.85-4.18-.42-4-2.9-4.66-6.28-4.65q-16,.09-32,0c-2.66,0-5.36.15-7.81-1.2-1.83-1.38-3.55-2.89-6-3.21-2.66-.34-4.14-1.89-3.88-4.75a3.14,3.14,0,0,1,2.2-1.59c17.18-.58,34.36-.18,51.55-.21a5.78,5.78,0,0,1,3.74,1.07c1.4,4.9,4.93,5.74,9.57,5.74q131.73-.15,263.47,0c4.19,0,8.11.08,8.71-5.56.19-1.82,1.74-2.73,3.51-3.1a24.41,24.41,0,0,1,5-.35q49.74,0,99.49,0c4.24,0,8,.61,10,4.91Z" transform="translate(108.92 108.93)"/><path class="cls-13" d="M-41-95.95c1.12,1.74,6.45-1.39,4.55,4-.27.77,1.18.9,2,.93,1.17,0,2.34,0,3.5,0H331.29a37.06,37.06,0,0,0,4.48-.15,4.53,4.53,0,0,0,2.17-1c-1.56-7,4.27-.83,5.35-3,7.79,2.81,14.07,8,20.37,13.1A1.75,1.75,0,0,1,361-82a25.62,25.62,0,0,0-12.56-.86c-5.48,1-10.92.83-16.39.83Q147.64-82-36.8-82c-5.91,0-11.83-.39-17.74-.71A7.64,7.64,0,0,0-60-81c-1.42,1-2.27.34-2.9-1L-58-85.85l.33.24-.17-.37A73.8,73.8,0,0,1-41-95.95Z" transform="translate(108.92 108.93)"/><path class="cls-14" d="M263,347v-1c1.93-1.71,4.32-1.59,6.64-1.59q55.47,0,110.94,0c3,0,6.07,0,8.17,2.77a7.15,7.15,0,0,1,1.59,2.33,2.31,2.31,0,0,1-.22,1.8.61.61,0,0,1-.28.68c-.78.8-2.08,1-2.51.26-1.46-2.46-2.75-.32-4.11-.06a42.37,42.37,0,0,1-8.49.41q-50.48,0-101,0c-4.54,0-9.29-.69-9.91,6-.17,1.81-2.07,2.46-3.79,2.75a39.08,39.08,0,0,1-6.49.27H-10.35c-1.84,0-3.67,0-5.5-.1-3-.16-5.19-1.38-5.62-4.57-.45-3.38-2.58-4.28-5.6-4.3-17.33-.13-34.66.15-52-.15a3.58,3.58,0,0,0-4,3c-.73,1.18-1.63,2.05-3.18,1.64A7.48,7.48,0,0,1-89,352.94c-.5-1.46.67-2.64.57-4.12-.36,1-.44,2.26-1.79,2.51A29,29,0,0,1-94.82,343c5-2.14-1.82-3.15-.4-5h68.8c6.41,0,6.41,0,6.42,6.51V347c2.3,5.71,6.8,6.5,12.42,6.49q129.07-.21,258.16,0C256.2,353.5,260.7,352.71,263,347Z" transform="translate(108.92 108.93)"/><path class="cls-15" d="M-68,370c1.8,1.12,3.81,1,5.81,1,12.33,0,24.65,0,37,0,3.08,0,5.92-.08,5.21,4.27s1.62,4.83,5.21,4.82C19.84,380,54.48,380,89.12,380H263c1.53,5.53-.54,8.88-5.9,9.48a47.87,47.87,0,0,1-5.49.14q-130.21,0-260.41,0c-4.29,0-8.83.62-11.71-3.78-1.47-1.09-3-2.23-4.89-2.23-8.44,0-16.9-.81-25.3.53-2.59,1-3.85-1.19-5.55-2.4,2.36,1.28,2.78,5.56,6.73,4.28,2-.35,2.26.87,1.83,2.28-.52,1.74-1.65,2.74-3.63,1.83-7.45-3.82-13.7-9.24-19.77-14.9C-72.24,372.19-70.1,371.11-68,370Z" transform="translate(108.92 108.93)"/><path class="cls-16" d="M-14.37,405.13c-3.42-.38-7-.3-9.69-3a1.75,1.75,0,0,1-.35-1.84c1-.63,2.34-.84,2.42-2.39.85-1.35,2.14-1.57,3.58-1.46,9.51-.2,19-.08,28.5-.08H254c2.66,0,5.33-.12,8,.11,17,.13,33.94,0,50.91.06a28.46,28.46,0,0,0,6-.46c1.86-.4,3.57-.64,4.63,1.6,1.22,2.59,2.4-.41,3.63-.18a4.66,4.66,0,0,1,2.45-.28c2.74,1,1.11,2.44.42,3.81a99.29,99.29,0,0,1-33.73,7c-1.43.68-3,.38-4.44.38q-142,0-283.94,0c-3.82-1.87-8-.29-12-1.41l.05,0c-1.61-1.34-3.69-.06-5.38-1l-.27.14-.27-.14C-11.31,405.3-12.94,405.67-14.37,405.13Z" transform="translate(108.92 108.93)"/><path class="cls-17" d="M-20,384c1.72,3.29,4.35,4.1,8.06,4.09q133-.18,266.06-.09c7.43,0,7.6-.15,8.88-8,1.23-2.28,3.42-2.45,5.6-2.46,27.9-.13,55.8,0,83.71-.11,3.34,0,3.23,2,3.43,4.19a8.37,8.37,0,0,1,.06,4c-.28,1-1.22,1.66-1.71,2.58-.56.77-1,1.7-2.09,1.87a5.35,5.35,0,0,1-.71-.81c-1-1.05-.64.49-1.05.6a2.69,2.69,0,0,1-3,.52c-1-1.21-1.38-3-3.29-3.39a31.59,31.59,0,0,0-7.45-.47c-20.41,0-40.81.11-61.21-.08-5.73-.05-11-.15-12.38,7-2.28,1.36-4.83,1.11-7.3,1.12q-133.65,0-267.29,0c-.83,0-1.66,0-2.49,0C-21.4,394.28-23.32,390.78-20,384Z" transform="translate(108.92 108.93)"/><path class="cls-18" d="M-20,384c0,9,0,9,8.93,9H263c1.51,1.67,1.25,3.33,0,5q-138.41,0-276.82,0c-2.06,0-4.36.84-6.18-1-1-1-1.82.32-2.75.12a29.63,29.63,0,0,1-6-.11,6.73,6.73,0,0,1-1.24-.35c-.71-.25-1.39-.7-2.2-.34a3.55,3.55,0,0,0-1.08,1.17A5.18,5.18,0,0,1-34,399a62,62,0,0,1-17.31-8.85A2.87,2.87,0,0,0-48.41,387c0-.7-1-.06-1.59,0-2.08-.06-3-.87-2-3,.25-2.1,1.82-2,3.33-2,7.93,0,15.85.07,23.77-.05C-22.84,381.92-21.56,383.15-20,384Z" transform="translate(108.92 108.93)"/><path class="cls-19" d="M408.94,30l-.06-23,.24-1.24c1.12,1.67.7,3.56.71,5.35q0,42,0,83.92c0,1-.15,2-.22,3a1.08,1.08,0,0,1-1.28-.64,9.57,9.57,0,0,1-.65-3.89c-.05-2.14-.09-4.28-.06-6.42,0-1.37,0-2.73,0-4.1a10.47,10.47,0,0,0-.79-4.13c-1.7-2-4-1.37-6.1-1.38-13.65,0-27.29.75-40.91.8-93.82.32-187.64.17-281.47.14-2.79,0-5.69.56-8.31-1a4.39,4.39,0,0,1-.21-5.63c3-2,6.45-1.34,9.73-1.34,92.12,0,184.25.1,276.38-.15,15.29-.05,30.61-.92,45.92-.86,4.09,0,5.72-1.72,5.55-5.71a54.66,54.66,0,0,1,.13-8c0-1.88-.15-3.76,0-5.64-.1-3.06-.09-6.12,0-9.18C407.71,37.21,406.6,33.38,408.94,30Z" transform="translate(108.92 108.93)"/><path class="cls-20" d="M409.06,98h.56q.11,39.08.21,78.16c0,13.27-.15,26.55-.24,39.82a1.06,1.06,0,0,1-1.26-.63,5.39,5.39,0,0,1-.48-1.52c-.26-2.15-.13-4.32-.28-6.48-.05-2.33-.05-4.65,0-7-.65-10.58,2.23-11.16-11.53-10.75-37.48,1.1-75,1-112.45.93-2.95,0-6,.52-8.75-1.29a14.07,14.07,0,0,1-.16-12.4c2.47-1.91,5.4-1.42,8.18-1.42q31.47-.07,63,0c18.47,0,36.91-1.59,55.39-1,4.39.15,6.62-1.45,6.36-6,0-2.45-.16-4.91,0-7.36,0-3-.14-6,0-9-.09-3-.07-6,0-9,.12-2.39-.11-4.78.05-7.16-.12-2.72-.08-5.43,0-8.14-.14-5.19-.16-10.38,0-15.57-.08-3.34-.11-6.68.06-10C407.64,100.67,407.73,99.13,409.06,98Z" transform="translate(108.92 108.93)"/><path class="cls-21" d="M409.07,216h.52q.07,37.89.13,75.79a9.42,9.42,0,0,1-.64,2.36L408.93,282c0-3.67,0-7.34,0-11-1.44-1.73-1.37-3.8-1.33-5.86,0-1.46-.12-2.92,0-4.38.08-2.66-.17-5.32,0-8-.15-3.35,0-6.7-.09-10.05-.7-5.61-1.08-6.09-6.81-6.11-12.95-.06-25.89.54-38.84.8-26.24.52-52.5.17-78.76.13-2.79,0-5.69.45-8.23-1.28a10.68,10.68,0,0,1-.14-10.41c2.48-1.89,5.4-1.41,8.19-1.41,21.82,0,43.64,0,65.46,0,17.82,0,35.6-1.42,53.42-1,3.56.08,5.8-1.1,5.9-5A4.1,4.1,0,0,1,409.07,216Z" transform="translate(108.92 108.93)"/><path class="cls-22" d="M-108.58,246q-.65-25.5,0-51a2,2,0,0,1,1.49,1c1.31,3.71,4.47,3.39,7.47,3.45,4.59.08,9.06-.52,12.25,4.56,1.55,2.48,5.65,2.15,8-.26a11.07,11.07,0,0,1,8.51-3.3q55.65,0,111.28,0c2,0,4,0,5.75,1.27a7.8,7.8,0,0,1,.18,8.35c-2.62,2-5.72,1.43-8.66,1.44q-52.65.06-105.3,0c-4.22,0-8,.25-11.54,3.36-3.26,2.87-8,1.91-11.24-1.31-2.61-2.58-11.34-4.24-14.36-2.68-2.52,1.31-1.33,3.83-1.81,5.8.08,2.74.14,5.48,0,8.22.09,5.63.1,11.27,0,16.91a9.67,9.67,0,0,1-.67,3.36A1.33,1.33,0,0,1-108.58,246Z" transform="translate(108.92 108.93)"/><path class="cls-23" d="M390.12,351.32,390,350c-.39-.36-.23-.95-.42-1.29-.37-.65-.24.44-.58.29-2.08-2.9-5-3.06-8.31-3.05q-58.85.12-117.69.05a15.9,15.9,0,0,0,0-2.49c-.68-4.33,1-5.63,5.44-5.61,39.88.17,79.76.1,119.64.1h7.45c1.32,1.45-3.67,3.57.36,5C394.27,346,393.85,349.79,390.12,351.32Z" transform="translate(108.92 108.93)"/><path class="cls-24" d="M263,398v-5c0-8,0-8,7.79-8q35.18,0,70.35.05c1.75,0,4.22-1.1,4.86,1.95,1.05.76.18,2.16,1,3,1.1,0,2.28.18,3-1a1.33,1.33,0,0,1,2,0c0,.37,0,.74,0,1.11L348.82,392c-2.75-.42-3.76,2.28-5.76,3.21L339.85,397c-1.3,1.41-4-.8-4.83,1.91L330,401c-.34-1,1.15-2,0-3-.82-.46-1.53-1.42-2.64-.6a1.75,1.75,0,0,1,.64.6l-6.2,4.42c1.06-5.13,1.07-5-3.91-4.48a62.46,62.46,0,0,1-7,.06Z" transform="translate(108.92 108.93)"/><path class="cls-15" d="M355,382c-4.51-.4,1.41-2.29-.93-3.28-2.27,1.53-5.06.24-7.83.25q-38.72.07-77.43,0c-2,0-4-.11-5.81,1,0-9,0-9,8.94-9,29.46,0,58.92-.1,88.37.12,4,0,9-2.23,11.8,3.09-2.58,4.53-6.95,7.06-11.09,9.84C358.42,385.12,356.17,385.14,355,382Z" transform="translate(108.92 108.93)"/><path class="cls-25" d="M297-108c-1.44,1.69-3.41,1-5.15,1Q150.51-107,9.15-107c-1.75,0-3.71.67-5.17-1,3.2-1.35,6.58-.79,9.87-.79q136.65-.08,273.3,0C290.44-108.82,293.82-109.35,297-108Z" transform="translate(108.92 108.93)"/><path class="cls-26" d="M7,407.92l255.81.08c11.16,0,22.32.06,33.48.09-3,1.31-6.24.78-9.35.78q-136.41.08-272.82,0c-3.12,0-6.33.5-9.37-.75A1.6,1.6,0,0,1,7,407.92Z" transform="translate(108.92 108.93)"/><path class="cls-27" d="M-108.07,195h-.52c-.09-14.31-.23-28.63-.24-42.95q-.06-66.72,0-133.43c0-1.49.13-3,.2-4.48,1.45,5.24.2,10.59.7,15.86,2.38,3.42,1.23,7.29,1.41,11,.13,4.66.14,9.31,0,14,.12,5.25.16,10.5,0,15.75.1,2.74.07,5.48,0,8.22.14,2.74.08,5.47,0,8.21q.19,6.89,0,13.79c.13,3.69.13,7.39,0,11.08.12,5.23.15,10.46,0,15.69.06,2.72.12,5.45,0,8.17.14,2.36,0,4.72,0,7.08.13,7.54.13,7.53,7.82,7.58a34.73,34.73,0,0,1,6,.22c1.63.3,3.4.59,3.12,3-3.09,3-7,1.27-10.48,1.74s-6.81,1-6.4,5.74c0,2.3,0,4.6,0,6.89.11,2.68.08,5.35,0,8q.18,5.91,0,11.82C-106.62,190.38-106,193-108.07,195Z" transform="translate(108.92 108.93)"/><path class="cls-28" d="M-4.09-107.29a5.52,5.52,0,0,0,0,3.39C-2.54-99.16-5-98.38-9-99.23c2.11-2,2.4-3.61-1.17-3.5a39.63,39.63,0,0,0-6,1.12l4,2.26c-8.55,1-16.42-.76-24,1.29a41.16,41.16,0,0,1,13-5.06c.89-.49,1.27,0,1.47.78a3.59,3.59,0,0,1-2.13,1.44c.61-.41,2.14-.34,3.08-1.54a2.3,2.3,0,0,1,.82-1.44C-14.74-105.3-9.63-107.29-4.09-107.29Z" transform="translate(108.92 108.93)"/><path class="cls-29" d="M-68,370c0,2.32-3.45,2.66-3.09,5.22a81.5,81.5,0,0,1-10.1-11.15,3,3,0,0,1,2.84-1.45c.75.16,1,.79,1.35,1.37,1.13,2.15,2.6,3.5,5.34,3.07A2.88,2.88,0,0,1-68,370Z" transform="translate(108.92 108.93)"/><path class="cls-30" d="M-107,8a7.55,7.55,0,0,0,.68-6.09c-1.37,1.09,0,3.34-1.85,4.06.13-2,.25-4,.38-6,.68-1.43-.21-3.66,2.16-4.22,3.33,1.46,2.48,4.4,2.54,6.58.34-3.47.34-3.47,2.59-3.72-.2,1.81.44,3.69-.5,5.43C-100.13,9.63-103.81,8.44-107,8Z" transform="translate(108.92 108.93)"/><path class="cls-31" d="M387.19,357.08c-1.95,3.05-3.26,6.65-7,8.15l-.24-.32c-2.84-5-2.2-7.6,2.47-10.58,1.3-.83,2.15-.18,3.1.51A3.94,3.94,0,0,1,387.19,357.08Z" transform="translate(108.92 108.93)"/><path class="cls-32" d="M-78,363l-3.18,1.07a24,24,0,0,1-5-7L-84,356a2.44,2.44,0,0,1,1.9-.73c2.14.46,3.36,2.32,5.11,3.38a2.35,2.35,0,0,1,.46,1.29A4.14,4.14,0,0,1-78,363Z" transform="translate(108.92 108.93)"/><path class="cls-33" d="M-34,399c-.09-.66-1.1-1.32,0-2a12.46,12.46,0,0,1,4-1h8c1.09,1,0,2,0,3,.14.76,1.26,1.61.45,2.13-.41.26-1.61-.71-2.45-1.12-3.3,1.54-6.31-.15-9.41-.83h-.34Z" transform="translate(108.92 108.93)"/><path class="cls-34" d="M316-103l-18-5a57.09,57.09,0,0,1,19,3C317.61-103.83,316.53-103.55,316-103Z" transform="translate(108.92 108.93)"/><path class="cls-35" d="M-108.58,246h.5c2,1.94,1.35,4.48,1.52,6.83.14,2.63-.09,5.27,0,7.9.1,1.46,0,2.92,0,4.38,0,2.07.11,4.15-1.34,5.89-.42,2.93.61,6-.64,8.84C-109,268.56-109,257.27-108.58,246Z" transform="translate(108.92 108.93)"/><path class="cls-36" d="M371-67c0-.33,0-.66,0-1a4.48,4.48,0,0,0,.63-.93,1.81,1.81,0,0,0-.43-1.54L371-71c0-1.77-3-3-.92-5.15a17,17,0,0,1,7.11,7.06A1.37,1.37,0,0,1,376-68C374.2-68.35,373-65.49,371-67Z" transform="translate(108.92 108.93)"/><path class="cls-37" d="M-94-35a2,2,0,0,1,2,1c-2.94,1.65-1.14,5.85-4.11,7.56-1.89-1-1.69-3.93-4-4.61l1.06-3C-97.13-33.06-95.57-34.08-94-35Z" transform="translate(108.92 108.93)"/><path class="cls-3" d="M-94-35c-1.27,2.54-2.51,5.24-5.06,1a20.48,20.48,0,0,1,3.91-8.28C-92.66-40.6-96.22-37.77-94-36Z" transform="translate(108.92 108.93)"/><path class="cls-23" d="M387.19,357.08,385,356c-.75-1.67-1.32-3.33,0-5,.05-.63-.13-1.47.2-1.84.87-1,1.44,0,1.58.67a2.48,2.48,0,0,0,3.06,2.17C390,354.26,388.81,355.77,387.19,357.08Z" transform="translate(108.92 108.93)"/><path class="cls-38" d="M397-28c5.64.83,2.5-3.38,3.13-5.43a25,25,0,0,1,3.49,8.54C400.31-23.58,398.78-26.06,397-28Z" transform="translate(108.92 108.93)"/><path class="cls-39" d="M-62.9-82l2.9,1c-.34,1-.67,2-1,3-.51.65-.93,1.39-1.86,1.52-1.41-.15-2.65,1-4.11.51-.06-.81-.13-1.62-.19-2.43C-66.27-80.25-64.14-80.58-62.9-82Z" transform="translate(108.92 108.93)"/><path class="cls-40" d="M-103-20c2.63,3.1.14,6.72,1,10l-.54.52a3.31,3.31,0,0,1-3.57-.29,1.06,1.06,0,0,1,0-1.38l.26-1.8c1.46.38,1-.62,1.09-1.39C-104.43-16.29-104.23-18.31-103-20Z" transform="translate(108.92 108.93)"/><path class="cls-41" d="M397.16-40.31c-.31,1.22.19,2.74-1.66,3.73-.78-2.85-3.53-5.3-.59-8.4A10.43,10.43,0,0,1,397.16-40.31Z" transform="translate(108.92 108.93)"/><path class="cls-42" d="M-103-20a66.23,66.23,0,0,1-1,7.21c-.54,2.12-1.16-.19-1.78-.16.93-4.47,1.59-9,3.8-13.12C-101.59-23.93-102.68-22-103-20Z" transform="translate(108.92 108.93)"/><path class="cls-43" d="M-94-36c-3.53-1.54-.16-4.33-1.15-6.33L-93.92-45c2,1.05,2.24,2.54,1.2,4.43A7.67,7.67,0,0,0-94-36Z" transform="translate(108.92 108.93)"/><path class="cls-44" d="M-33.41,399.18c3.11.59,6.37-.64,9.41.83l-.06,2.14A16.45,16.45,0,0,1-33.41,399.18Z" transform="translate(108.92 108.93)"/><path class="cls-45" d="M355,382c2,.82,3.61,2.55,6,2.05l-4,3c-1.15.59-1.64-.14-2.05-1Z" transform="translate(108.92 108.93)"/><path class="cls-46" d="M361-82l2.65,0a8.29,8.29,0,0,1,3.48,3.6L366-77c-.94.62-1.62,0-2.33-.46-1-1.1-1.74-2.37-2.66-3.52C361-81.32,361-81.66,361-82Z" transform="translate(108.92 108.93)"/><path class="cls-42" d="M-106.09-11.15l.22,1.09C-104.53-8-104.24-6-106-4l-1.79,3.93C-108.07-3.89-107.07-7.52-106.09-11.15Z" transform="translate(108.92 108.93)"/><path class="cls-47" d="M376-68l1.19-1.08a4.55,4.55,0,0,1,3.06,3C377.35-63.39,376.53-65.36,376-68Z" transform="translate(108.92 108.93)"/><path class="cls-48" d="M-90.19,351.33c1.83-1.59.07-3.47-.07-6,3.37,2.74,3.09,5.06,1.29,7.57Z" transform="translate(108.92 108.93)"/><path class="cls-49" d="M-89-52a25.92,25.92,0,0,0,.25,3.31c.19,1,0,1.45-1,1.73-1.17.33-2.22.67-2.3-1.13L-89.85-52Z" transform="translate(108.92 108.93)"/><path class="cls-50" d="M393.05-48.08c-.61,3.14-2.82.27-4,1.07a1.29,1.29,0,0,1-.45-1.14A4.67,4.67,0,0,1,390-51c.3-.32.59-.65.89-1Q391.95-50,393.05-48.08Z" transform="translate(108.92 108.93)"/><path class="cls-51" d="M7,407.92l-2.24.2c-3-.11-6,.26-8.81-1.06C-.4,407.42,3.42,406,7,407.92Z" transform="translate(108.92 108.93)"/><path class="cls-15" d="M343.06,395.21c1.34-2.11,2.55-4.45,5.76-3.21A9.34,9.34,0,0,1,343.06,395.21Z" transform="translate(108.92 108.93)"/><path class="cls-52" d="M335,398.86c-.27-5.39,3.42-.76,4.83-1.91A8.25,8.25,0,0,1,335,398.86Z" transform="translate(108.92 108.93)"/><path class="cls-53" d="M-76.88-69c1.47,1.07.51,2.6.09,3.42s-1.59-.4-2.47-.56C-78.46-67.07-77.67-68-76.88-69Z" transform="translate(108.92 108.93)"/><path class="cls-54" d="M316-103l1-2c1.38.16,2.85-.08,4,1Z" transform="translate(108.92 108.93)"/><path class="cls-55" d="M-69.95-75.81l2,2.8-4-1A3,3,0,0,1-69.95-75.81Z" transform="translate(108.92 108.93)"/><path class="cls-56" d="M-20-103.88-20-102A1.27,1.27,0,0,1-22-102l-1.25-1.1C-22.32-104.18-21.16-104-20-103.88Z" transform="translate(108.92 108.93)"/><path class="cls-15" d="M355,386l2.05,1a3,3,0,0,1-3,1.21A2.09,2.09,0,0,1,355,386Z" transform="translate(108.92 108.93)"/><path class="cls-51" d="M-14.37,405.13c1.55,0,3.25-.67,4.43,1A5.12,5.12,0,0,1-14.37,405.13Z" transform="translate(108.92 108.93)"/><path class="cls-51" d="M-9.4,406.13c1.83.11,3.86-.9,5.38,1C-5.87,407.09-7.78,407.4-9.4,406.13Z" transform="translate(108.92 108.93)"/><path class="cls-57" d="M405,299c-3.75,9.17-1.43,8-12.52,8q-243.09.06-486.17,0c-2.47,0-5,.43-7.31-1a16,16,0,0,1,0-2.5c.3-1.81-1.08-4.59,1.48-5.18s5.61-.1,8.42,0a1,1,0,0,1,.69.64c.26,7.26,5.75,4.78,9.58,5,69.58,4.58,139.23,1.28,208.85,1.89,70,.62,140,.15,209.93.11,3.77,0,8.82,1.8,8.29-5.39-.15-2,2.21-1.58,3.61-1.56,16,.33,31.89-1.87,47.85-1,4.12.24,5.88-1,5.34-5.25-.14-1.13-.7-3.24,1.18-3.22s1.84,2.06,1.69,3.55C405.72,295.1,405.32,297.05,405,299Z" transform="translate(108.92 108.93)"/><path class="cls-58" d="M-103,302c-.15,1.38.46,2.95-1,4v-7.08C-102.38,299.76-103.28,301-103,302Z" transform="translate(108.92 108.93)"/><path class="cls-59" d="M-104,306c0,1.26.34,2.73-.19,3.71s-.62-.33-.82-.71C-104.95,307.9-105.18,306.72-104,306Z" transform="translate(108.92 108.93)"/><path class="cls-23" d="M263,347c-.53,7.54-1,8-8.11,8H-11.89c-7.13,0-7.58-.46-8.11-8Z" transform="translate(108.92 108.93)"/><path class="cls-60" d="M397.94,330.09c.42.54.83.84.87,1.19s-.34.66-.53,1c-.31-.3-.77-.55-.89-.91S397.66,330.69,397.94,330.09Z" transform="translate(108.92 108.93)"/><path class="cls-61" d="M-96.13,330.9c-.34.55-.49,1-.82,1.26-.51.35-.89-.06-.88-.55a1.81,1.81,0,0,1,.53-1.16C-97.17,330.34-96.62,330.7-96.13,330.9Z" transform="translate(108.92 108.93)"/><path class="cls-62" d="M-101,4V-2c-3.22-2.3-2.79-5-1-8h2c2.06,1,4.26.49,6.39.49q242.19,0,484.4,0c1.82,0,3.64-.1,4.24,0-.6,0-2.42,0-4.23,0q-242.2,0-484.4,0c-2.13,0-4.33.51-6.4-.46,0-1.66.29-3,2.4-3,1.5,0,3,0,4.5,0q243.22,0,486.46-.06c3.67,0,7,.19,9.63,3.06,1.61,1.6,1.28,3.57,1,5.49-.48,3.48.83,6.73,1.19,10.09A1.18,1.18,0,0,1,405,7c-.5.85-1,2.06-2.17,1.5S401.42,6.25,401.35,5c-.43-7-.38-7-7.27-7h-59Q121.8-2-91.53-2.08C-96.38-2.09-100.4-2-101,4Z" transform="translate(108.92 108.93)"/><path class="cls-63" d="M405,6c-3.53-5-1.67-10.62-2-16,0-.33,0-.67,0-1,1.6.89,2.92,2,3,4-1.05,1.53-2.28,3-1,5,0,.33,0,.66,0,1A10.83,10.83,0,0,1,405,6Z" transform="translate(108.92 108.93)"/><path class="cls-64" d="M395-34l2.64-1.52c-.25,1.67-.46,3.08-.68,4.5C393.25-30,395.7-33,395-34Z" transform="translate(108.92 108.93)"/><path class="cls-65" d="M-84-46c-1.74,1.2-2.09,4.43-5.91,3.49,2.32-1.83,4.72-3.37,3.91-6.49C-84-48.91-84-47.45-84-46Z" transform="translate(108.92 108.93)"/><path class="cls-66" d="M-81-64.08c2.53.28,3.2,1.51,1.81,4l-1.85-4Z" transform="translate(108.92 108.93)"/><path class="cls-67" d="M389-48v1l-1,1c-1.46-1-.85-2.62-1-4l.63-.41C389.38-50.34,389.88-49.55,389-48Z" transform="translate(108.92 108.93)"/><path class="cls-68" d="M387-50c-1.27-.08-1.83-.5-.8-1.66,1.33-1.51,2.14-.72,2.8.66-.47.73-1.51.31-2,1Z" transform="translate(108.92 108.93)"/><path class="cls-69" d="M382.08-64l-1.62,3.54c-1.54-2.4-.65-3.28,1.57-3.59Z" transform="translate(108.92 108.93)"/><path class="cls-70" d="M-68-71l-2,3C-71.8-70.64-69.48-70.54-68-71Z" transform="translate(108.92 108.93)"/><path class="cls-71" d="M-86-50c-.33-1-.67-2-1-3C-86.34-52.11-83.22-52-86-50Z" transform="translate(108.92 108.93)"/><path class="cls-11" d="M387-50a2.06,2.06,0,0,1,2-1h1c0,1.11.19,2.28-1,3A1.84,1.84,0,0,0,387-50Z" transform="translate(108.92 108.93)"/><path class="cls-72" d="M405,6l0-7a7.49,7.49,0,0,1,0,8C405,6.66,405,6.32,405,6Z" transform="translate(108.92 108.93)"/><path class="cls-73" d="M405-2c-1.83-2.11-1.14-3.72,1-5C405.67-5.34,405.33-3.66,405-2Z" transform="translate(108.92 108.93)"/><path class="cls-74" d="M46,210v-8c-2.73-4-1.22-8.53-1.5-12.83-.09-4-.13-8,0-11.95-.07-2.71-.11-5.43,0-8.14-.08-3-.1-6,0-9-.08-2.38-.09-4.76,0-7.14-.09-3.27-.1-6.53,0-9.8-.07-2.09-.08-4.18,0-6.26-.13-2.71-.07-5.43,0-8.14-.16-5.22-.15-10.44,0-15.67-.11-3.69-.12-7.39,0-11.08-.12-4.6-.15-9.21,0-13.81-.07-3-.11-6.07,0-9.11-.1-2.42-.08-4.85,0-7.27-.13-5.17-.16-10.35,0-15.52-.05-2.41-.12-4.82,0-7.23-.11-2.12-.06-4.24,0-6.36C44.77,38.78,43.45,34.64,46,31c.07-2.79,1.23-4,4.29-4q40.35.18,80.69,0c3.06,0,4.26,1.07,4.15,4,2.2,3.44,1.11,7.26,1.28,10.93a57.72,57.72,0,0,1-.13,8.42c-.56,4.74-4,5-7.7,5-16.91,0-33.82,0-50.73.05-2,0-4.41-.83-5.83,1.56-.91,3.25-.39,6.56-.55,9.84-.09,1.81-.1,3.64-1.34,5.15v5a5.29,5.29,0,0,1,1,2.21,36.14,36.14,0,0,1,.18,4.88c.09,1.39,0,2.77,0,4.15.13,1.72,0,3.43,0,5.15.15,3.58.11,7.15,0,10.73.15,3.67.09,7.33,0,11,.17,4.33,3.29,4.3,6.38,4.31,14.93,0,29.85,0,44.78,0,2.62,0,5.35-.38,7.67,1.4,2,8.69,1.65,17.4.13,26.11-2.22,2-5,1.56-7.59,1.57-15.09.06-30.18,0-45.28,0-3,0-5.82.1-6.09,4.08,0,2.42.1,4.84,0,7.26.09,3,.1,6,0,9,.1,2.72.09,5.43,0,8.15.13,4,.12,7.92,0,11.88.12,4.3.13,8.6,0,12.89.13,2.47.09,4.94,0,7.41.49,7.08.49,7.12,7.59,7.14,17.41,0,34.82,0,52.24,0,2.62,0,5.34-.35,7.75,1.19,2,2.55,1.4,5.55,1.43,8.44-.37,6.1,1.46,12.36-1.37,18.27-2.06,1.42-4.43,1.25-6.74,1.26q-39.36,0-78.71,0c-2.15,0-4.33.08-6.36-.84-2.37-1.33-2.68-3.65-2.76-6-.14-4.14-.2-8.28,0-12.41-.07-2.78-.12-5.57,0-8.35S44,212.39,46,210Z" transform="translate(108.92 108.93)"/><path class="cls-75" d="M135.16,42c0-3.67,0-7.33,0-11,91.25-.21,182.52.68,273.77-1,0,3.67,0,7.33,0,11-2.24,2-5,1.55-7.62,1.61-66.21,1.59-132.44.88-198.66,1q-30,.06-59.91,0C140.15,43.59,137.37,44.05,135.16,42Z" transform="translate(108.92 108.93)"/><path class="cls-75" d="M46,31q0,6,0,12c-2.59,2.12-5.69,1.58-8.64,1.58q-52.44.06-104.89,0c-3.91,0-7.66.19-10.74,3-5.11,1.2-10.13,2.14-13.76-3.25-1.39-2.07-3.77-1.67-5.89-1.83-3.39-.27-7,.88-10.08-1.48V30c5,0,10,0,15,0,2.12,0,4.25.2,3.33,3.35-.63,2.16.72,2.94,2.39,2.55,3.42-.78,8.61,3,9.82-4,.29-1.68,3.3-.86,5.06-.86Q-24.9,31,22.56,31Z" transform="translate(108.92 108.93)"/><path class="cls-76" d="M364-78l2,1c.11.79.6,1.84.26,2.32-.66,1-1.37,0-1.94-.48-1-.75-2.38-1.22-2.31-2.84A1.37,1.37,0,0,1,364-78Z" transform="translate(108.92 108.93)"/><path class="cls-77" d="M-63-77l2-1c.13,3-1.41,3.72-4,3C-65.23-76.59-64.62-77.32-63-77Z" transform="translate(108.92 108.93)"/><path class="cls-78" d="M-63-77l-2,2A1.84,1.84,0,0,1-67-76C-65.59-76.09-64.95-79.08-63-77Z" transform="translate(108.92 108.93)"/><path class="cls-79" d="M372-68h-1c-.17-1-3.82-2,0-3h0C372.07-70.25,373.15-69.49,372-68Z" transform="translate(108.92 108.93)"/><path class="cls-80" d="M364-78h-2l-1-3A6,6,0,0,1,364-78Z" transform="translate(108.92 108.93)"/><path class="cls-81" d="M408.94,265v6c-25.62.33-51.24.94-76.86.95q-201.19.15-402.4.08c-3.26,0-6.5-1-8.42,3.89-1.05,2.69-6.16,1.26-9.29.87-3.4-.43-1.45-3.77-2-5.79l.74-.67c4.41-1.07,9-1.34,12.54-5,1.63-1.68,4.79-.91,7.28-.91q32.73,0,65.47,0,181.19,0,362.35-.08c14.31,0,28.61-1.32,42.93-.91C403.94,263.46,406.7,263,408.94,265Z" transform="translate(108.92 108.93)"/><path class="cls-81" d="M-107.94,271v-6c5.34-2.85,11-2,16.43-.81,3.53.8,3.32,4,1.51,6.82h-17.94Z" transform="translate(108.92 108.93)"/><path class="cls-82" d="M385,351v5c-.79,0-1.31-2.23-2.07-.63-1,2.15-4.39,2.82-3.77,5.8.26,1.24,1,2.39.78,3.74-3.72-5.08-9.19-3.9-14.29-3.9-32.29,0-64.59,0-96.89-.08-4,0-6.5.41-5.82,5.26.39,2.74-1.28,3.92-3.95,3.81-1.16,0-2.33,0-3.49,0H-12.7c-7.26,0-7.26,0-7.3-7-1.89-1.52-4.13-1-6.24-1-16.26-.15-32.52.19-48.79-.18A2.5,2.5,0,0,1-77,360v-1c-1.2-1.77-1.71-4.7-5-3h-2c-.59-3.87.91-5.13,4.94-5.08,17.83.21,35.67.18,53.5,0,4,0,6.11,1,5.57,5.33-.35,2.81.9,4,3.72,3.75,1-.09,2,0,3,0q134.75,0,269.5.05c4.15,0,7.65.22,6.9-5.74C262.7,351,265.58,351,268,351H385Z" transform="translate(108.92 108.93)"/><path class="cls-29" d="M-76,361c17.06,0,34.11,0,51.16.05,1.75,0,4.21-1.09,4.84,1.95H-76A1.37,1.37,0,0,1-76,361Z" transform="translate(108.92 108.93)"/><path class="cls-14" d="M-76,361v2l-1,1-1-1c.05-1.1-.17-2.28,1-3Z" transform="translate(108.92 108.93)"/><path class="cls-83" d="M-57.83-86c.84.07,1.66.21,2,1.07a.83.83,0,0,1-.34.73c-1.28.23-1.74-.55-1.86-1.67Z" transform="translate(108.92 108.93)"/><path class="cls-84" d="M389,349a2.68,2.68,0,0,1,2.21-2.8L390,350Z" transform="translate(108.92 108.93)"/><path class="cls-85" d="M-52,384a3,3,0,0,0,2,3c-.62,1.09-.93,1.89-2.4.47-2.3-2.22-3.94-5.11-7.28-6.45C-55,378-54.38,382.86-52,384Z" transform="translate(108.92 108.93)"/><path class="cls-86" d="M288,405c-1.47,1.64-3.43,1-5.18,1q-132.31,0-264.64,0c-1.75,0-3.71.67-5.18-1,1.73-.92,3.6-.46,5.4-.46q132.1,0,264.2,0C284.4,404.54,286.27,404.08,288,405Z" transform="translate(108.92 108.93)"/><path class="cls-87" d="M288,405H13c1.47-1.64,3.43-1,5.18-1q132.32,0,264.64,0C284.57,404,286.53,403.36,288,405Z" transform="translate(108.92 108.93)"/><path class="cls-52" d="M328,398l-4-.3c2.73-2.29,4.47-2.14,6,.3Z" transform="translate(108.92 108.93)"/><path class="cls-17" d="M-22,399c-1.16-1,.33-2,0-3,.61.45,2.16-1,2,1Z" transform="translate(108.92 108.93)"/><path class="cls-88" d="M297.18,406c.89.08,2.52.07,2.54.26.15,1.23-.93.55-1.49.66a3.42,3.42,0,0,1-1.28-.27Z" transform="translate(108.92 108.93)"/><path class="cls-15" d="M347,390c-2.66-.22-.62-2-1-3C348.61,387.24,347.56,388.7,347,390Z" transform="translate(108.92 108.93)"/><path class="cls-15" d="M352,389h-2c0-.78-1.62-1.84,0-2.23C351.08,386.5,352,387.64,352,389Z" transform="translate(108.92 108.93)"/><path class="cls-89" d="M-30,396a2.8,2.8,0,0,1-4,1l1-1a2.22,2.22,0,0,1,3,0Z" transform="translate(108.92 108.93)"/><path class="cls-90" d="M-30,396h-3C-32,392.85-31,394.44-30,396Z" transform="translate(108.92 108.93)"/><path class="cls-15" d="M-44.24,387.61a4.92,4.92,0,0,1-1.44,1c-.59.16-.81-.42-.45-.84a8.84,8.84,0,0,1,1.47-1.16Z" transform="translate(108.92 108.93)"/><path class="cls-91" d="M70.17,72V56c1.56-1.35,3.47-1,5.26-1,38.49.42,77-.84,115.45-.7q82.26.3,164.5-.06c15.3-.08,30.61-.92,45.93-.87,2.63,0,5.39-.38,7.63,1.6,0,4.16-.05,8.33.08,12.48.08,2.53-.83,3.6-3.46,3.56-7.29-.1-14.59.08-21.89,0s-14.58.9-21.84.91Q216,72.13,70.17,72Z" transform="translate(108.92 108.93)"/><path class="cls-92" d="M135.16,42c91.26-.21,182.53.68,273.79-1,0,3,0,6,0,9a4,4,0,0,1-3.24,1c-8-1.17-15.94.51-23.91-.32-7.34-.77-14.58.94-21.91.94q-107.8-.07-215.62-.06c-3.08,0-6.38.75-9.09-1.59C135.17,47.33,135.16,44.67,135.16,42Z" transform="translate(108.92 108.93)"/><path class="cls-93" d="M135.17,50q110.66,0,221.31,0c11.87,0,23.74-.67,35.61-.93,5.63-.13,11.29-.28,16.85,1v5c-112.92,1.9-225.85.66-338.77,1-.08-3.41,2.55-1.92,3.93-1.93q28-.15,56,0C133,54.05,135.53,54,135.17,50Z" transform="translate(108.92 108.93)"/><path class="cls-94" d="M70.17,84V79c2.23-1.67,4.82-1,7.25-1,94.06,0,188.11.09,282.16-.18,13.75,0,27.53-.59,41.29-.86,2.88-.06,5.66.21,8.07,2v4c-1.75,1.64-4,1.57-6.11,1.61-52.75,1.1-105.5,1-158.26.93-55.1-.11-110.21.09-165.31.06C76.18,85.59,72.88,86.34,70.17,84Z" transform="translate(108.92 108.93)"/><path class="cls-95" d="M409.06,98c0,1.34-.08,2.67-.11,4a6.81,6.81,0,0,1-5.24,2.48c-.83.06-1.66.09-2.49.11-42.69,1.17-85.39,1.09-128.08,1a22,22,0,0,1-5.95-.48c-3.92-2.38-6.69-5.52-6.7-10.43,2.1-3,5.34-2.26,8.21-2.26,29.27-.08,58.54.3,87.8-.19,14.95-.25,29.89-1,44.85-.82,2.76,0,5.8-.44,7.6,2.56Z" transform="translate(108.92 108.93)"/><path class="cls-96" d="M70.17,84c112.92-.34,225.85.88,338.77-1v4c-1.75,1.63-4,1.53-6.12,1.58-49.67,1.11-99.36,1.28-149,.9a10.87,10.87,0,0,0-2,.16,5.64,5.64,0,0,1-2.91-.33c-9.93-4.11-19.93-3.42-30-.55a12.9,12.9,0,0,1-2.91.55c-36.6.35-73.19.32-109.79.32-9.65,0-19.3,0-28.95,0-2.45,0-5.05.35-7.09-1.6Z" transform="translate(108.92 108.93)"/><path class="cls-97" d="M251,88.63c1.69-1.06,3.57-.61,5.37-.61,27.31,0,54.62.11,81.92-.06,23.55-.14,47.1-.63,70.64-1,0,2.33,0,4.66,0,7-1.8-1.13-3.81-1-5.8-1-9.3,0-18.63-.42-27.91.07-36.67,2-73.36.39-110,.94-1.72,0-3.87-.61-4.26,2.14A17.41,17.41,0,0,1,251,88.63Z" transform="translate(108.92 108.93)"/><path class="cls-98" d="M408.94,79c-7.24-1.12-14.55-.14-21.71-.43-8-.32-15.83.41-23.74.41Q216.82,79,70.17,79V77c96.64,0,193.28.17,289.93-.19,14.26,0,28.56-.79,42.86-.79C405.39,76,408.13,75.64,408.94,79Z" transform="translate(108.92 108.93)"/><path class="cls-74" d="M251,88.63A62.7,62.7,0,0,1,261,96.15q2.69,3.93,5.38,7.84c3.26,2.72,4.14,6.75,5.71,10.41a82.53,82.53,0,0,1,3.28,14.65c0,2.75.85,5.41,1,8.14.17,2,.08,4,.07,6,.11,3.24.1,6.48,0,9.72.09,2.67.1,5.35,0,8q.13,4.05,0,8.08c0,2.72.51,5.53-1.27,8v12c2.35,4,1.08,8.4,1.28,12.64,0,2.66.1,5.33,0,8,0,1.74.09,3.48,0,5.21.05,1.16,0,2.32,0,3.48,0,2.62.48,5.33-1.23,7.68v10a7.13,7.13,0,0,1-.1,8.36,46.27,46.27,0,0,1-23.14,0c-2.82-5.82-1.06-12-1.39-18-.09-2.81-.12-5.63,0-8.44q-.23-7.9,0-15.82c-.12-4.33-.14-8.65,0-13-.11-4-.14-8,0-12-.09-2.74-.1-5.48,0-8.22-.11-5.11-.14-10.23,0-15.34a55.19,55.19,0,0,0-.87-10.1,31.78,31.78,0,0,0-.59-6.3,50.48,50.48,0,0,0-2-8.82c-.83-2-1.43-4.07-2.42-6-7.06-13.85-24.61-13.88-33.34-6.31A44.44,44.44,0,0,0,202,128.24a35.74,35.74,0,0,0-3.13,8.87,39.08,39.08,0,0,0-1.44,6.69c-.4,3.26-1.16,6.49-1,9.81.16,5.08.15,10.16,0,15.24.09,2.74.1,5.47,0,8.21.13,4,.12,8,0,12q.21,6.48,0,13c.13,5.27.15,10.55,0,15.82.12,2.8.11,5.61,0,8.42-.28,6,1.26,12.12-1.2,18-7.66,2.35-15.36,1.84-23.07.3a3.72,3.72,0,0,1-1.16-1.58c-.82-12.33-.45-24.68-.46-37-.09-35.75.07-71.5,0-107.25a60,60,0,0,1,.19-7.47c.44-2.66,2.4-2.71,4.51-2.69,5.47,0,10.94.17,16.4,0,3.25-.13,4.57,1.22,4.63,4.27.08,4.6.19,9.2,0,13.45,5.59-7.31,10.68-15.66,20.94-18.1C228.55,84,239.82,83.72,251,88.63Z" transform="translate(108.92 108.93)"/><path class="cls-99" d="M274.11,129q-1.61-7.41-3.22-14.82c.6-3.42,3.49-2.6,5.53-2.67,7.49-.25,15-.1,22.5-.1,21.83,0,43.68.51,65.49-.18,12.47-.4,24.94-.41,37.4-.79,2.47-.07,5.06-.3,7.14,1.56q0,8,0,16c-1.59,1.5-3.61,1.54-5.61,1.58-41,.81-82.07,1.35-123.11,1C278.07,130.56,275.85,130.67,274.11,129Z" transform="translate(108.92 108.93)"/><path class="cls-100" d="M275.17,202q0-6.5,0-13c28.42,0,56.85.47,85.25-.2,14.39-.33,28.78-.48,43.16-.9,4.5-.13,6,1.28,5.48,5.62a66.4,66.4,0,0,0-.11,7.47c-1.75,1.63-4,1.55-6.11,1.59-40.19.88-80.38,1.29-120.57,1C279.81,203.56,277.21,203.94,275.17,202Z" transform="translate(108.92 108.93)"/><path class="cls-101" d="M275.17,153V143c2.21-2,5-1.57,7.59-1.57q32.65-.08,65.32,0c17.76,0,35.51-1.44,53.28-1,2.75.07,5.79-.46,7.59,2.56q0,4.5,0,9c-1.75,1.63-4,1.55-6.11,1.59-40.19.88-80.38,1.29-120.57,1C279.81,154.56,277.21,154.94,275.17,153Z" transform="translate(108.92 108.93)"/><path class="cls-102" d="M409,112c-11.39,0-22.81-.57-34.15.11-33.1,2-66.22.26-99.32.9-1.6,0-3.39-.5-4.59,1.17L266.33,104c31.64,0,63.29.53,94.92-.23,14.11-.34,28.23-.47,42.34-.8a34.46,34.46,0,0,0,5.36-1Z" transform="translate(108.92 108.93)"/><path class="cls-103" d="M274.11,129c44.95.17,89.9,0,134.83-1v8c-1.75,1.63-4,1.54-6.12,1.58-40.21.77-80.43,1.36-120.65,1-2.47,0-5,.27-7.12-1.59C274.74,134.33,274.43,131.67,274.11,129Z" transform="translate(108.92 108.93)"/><path class="cls-27" d="M275.17,153c44.59.41,89.18-.42,133.77-1v9a4.9,4.9,0,0,1-3.33.78c-31.79-.79-63.56,1.73-95.36.87-9.32-.25-18.65,0-28-.06-2.45,0-5,.35-7.1-1.59Z" transform="translate(108.92 108.93)"/><path class="cls-104" d="M275.17,177v-8c2.21-2,5-1.57,7.59-1.58q32.14-.07,64.3,0c18.1,0,36.17-1.55,54.27-1,2.62.08,5.38-.39,7.61,1.59a18.78,18.78,0,0,0,.07,2.49c.69,4.32-.93,5.82-5.43,5.61-8.27-.36-16.58-.47-24.84,0C344.23,177.88,309.69,176.6,275.17,177Z" transform="translate(108.92 108.93)"/><path class="cls-105" d="M408.94,168c-44.59.54-89.18,1.43-133.77,1v-8c22.92,0,45.84-.14,68.76,0,19.08.16,38.1-1.76,57.19-1.09a29.37,29.37,0,0,1,7.82,1.05Z" transform="translate(108.92 108.93)"/><path class="cls-22" d="M275.17,202c44.59.42,89.18-.43,133.77-1q0,3.52,0,7a4.84,4.84,0,0,1-4.11,2.42c-1,.11-2,.14-3,.16q-59.53,1.32-119.1,1c-2.6,0-5.38.46-7.58-1.59Z" transform="translate(108.92 108.93)"/><path class="cls-106" d="M275.05,137c44.64.46,89.26-.51,133.89-1q0,3.5,0,7c-1.64-1-3.46-1-5.3-1-10.45,0-20.93-.52-31.34.11-32.37,2-64.77.31-97.14.9Z" transform="translate(108.92 108.93)"/><path class="cls-107" d="M275.17,210c12.29,0,24.59-.21,36.88,0,30.71.63,61.39-1.33,92.09-1a8.87,8.87,0,0,0,4.81-1v7a6.11,6.11,0,0,1-2.92.51c-41.75.67-83.5,1.36-125.25,1-2,0-4,.14-5.61-1.48Z" transform="translate(108.92 108.93)"/><path class="cls-107" d="M275.17,215c22.1,0,44.2-.14,66.3,0,20.4.17,40.77-1.79,61.18-1,2.15.08,4.34-.25,6.3,1l.12,1c-.05.66-.09,1.32-.13,2-8.24,1.24-16.59,1-24.83.87-6.69-.11-13.28.64-19.91.68-27.48.13-54.95.07-82.42,0-2.3,0-4.72.26-6.61-1.57Z" transform="translate(108.92 108.93)"/><path class="cls-108" d="M252.14,244a169.93,169.93,0,0,0,22.79-.07,18.11,18.11,0,0,1,5.44-.49c27.44,0,54.9.35,82.33-.12,13.62-.24,27.23-.78,40.86-.87,1.81,0,3.67-.3,5.38.62v10a6.25,6.25,0,0,1-3.39.66c-18.33-.66-36.62,1-54.94,1q-207.21.06-414.43,0c-5.3,0-10.48-.31-15.14,3.5a7.3,7.3,0,0,1-9.76-.47c-4-4.19-8.8-4.15-13.83-4-1.82,0-3.68.29-5.39-.64,0-2.33-.09-4.65-.14-7,0-1,.09-2,.14-3a18.16,18.16,0,0,1,20,2.83,6,6,0,0,0,8.59-.2c2.8-2.76,6-3.22,9.6-3.22H39.69c2.5,0,5-.07,7.15,1.63,30.61.19,61.23.51,91.84-.17a8.32,8.32,0,0,1,4.7-1.44q12-.16,24,0A6.71,6.71,0,0,1,172,244a210.21,210.21,0,0,0,22.87-.05c2-1.6,4.33-1.56,6.66-1.57q22,0,44,0C247.81,242.39,250.17,242.35,252.14,244Z" transform="translate(108.92 108.93)"/><path class="cls-109" d="M-90,271c.82-4.78-1.08-6.57-6-6.08-4,.4-8,.07-12,.07v-4a11.11,11.11,0,0,1,17-3.22c5,4.11,9.4,4.29,14.35.45a10.23,10.23,0,0,1,6.15-1.76c2.5-.09,5-.06,7.5-.06q210.93,0,421.87-.07c13.47,0,26.93-1.34,40.43-.94,4.32.12,8,1,9.58,5.6v4c-26.62-.58-53.2,1.15-79.82,1.11q-199.89-.33-399.76,0c-3,0-7.38-1.92-7.81,3.95-.09,1.25-1.93,1-3.06,1C-84.34,271-87.17,271-90,271Z" transform="translate(108.92 108.93)"/><path class="cls-110" d="M408.94,261c-3.1-3.57-7.07-4.13-11.62-4.06-155.77,2.29-311.54.5-467.31,1-2.79,0-5,.48-7.19,2.56-3.42,3.31-8.74,3.5-11.81,1-7.54-6.2-11.78-6.31-19-.5q0-4,0-8c4.83-2,9.87-.61,14.81-.94,1.85-.12,2.39,1.59,3.3,2.7,3.66,4.44,8.33,4.74,12.2.5A6.05,6.05,0,0,1-72.41,253c1.33.09,2.67,0,4,0q214.35,0,428.7-.18c14.26,0,28.55-.76,42.84-.82,2,0,4-.16,5.81,1Z" transform="translate(108.92 108.93)"/><path class="cls-111" d="M408.94,243a9.48,9.48,0,0,1-4.81,1c-41.35,1.25-82.72,1-124.08.95-1.74,0-3.72.67-5.12-1.09l.24-7.88c27.49,0,55,.24,82.48-.1,14.43-.17,28.85-1,43.29-.91C409.07,235,409.07,235,408.94,243Z" transform="translate(108.92 108.93)"/><path class="cls-112" d="M275.17,218c27.63,0,55.27-.05,82.9,0,5.49,0,10.91-.74,16.36-.94,9.72-.35,19.47-.09,29.2-.11,1.85,0,3.67,0,5.31,1,.12,7,.12,7-6.84,7-8.28,0-16.59-.39-24.84.07-34,1.86-68.07.48-102.09.93Z" transform="translate(108.92 108.93)"/><path class="cls-35" d="M46.84,244.05q-59.65,0-119.31-.08c-2.5,0-4.37.26-5.51,3-1.59,3.87-5.23,1.41-7.91,1.93-1.91.38-3.81-.21-4-2.61-.31-3.32-2.58-3.35-5-3.33-4.32,0-8.65,0-13,0V225c5.2-2.81,10.68-1.5,16.09-1.05,1.39.11,2.18,1.31,3,2.42,2.57,3.47,6.12,4.14,9.21,1.3A11.93,11.93,0,0,1-71,224.42q55.47,0,111,0c2.16,0,4.36,0,6.14,1.57C46.81,232,45.49,238.08,46.84,244.05Z" transform="translate(108.92 108.93)"/><path class="cls-113" d="M46,189v13q-58.71,0-117.44,0c-2.87,0-5.18-.12-6.83,3.37s-5.66,1.21-8.6,1.55c-2,.23-3.14-1-3.13-3,0-2.59-1.53-2.94-3.6-2.89-2.83.08-5.71-.28-8.49.09-4.92.65-6.66-1.42-6-6.07,0-2.33.09-4.66.13-7,5.37-2.83,11-1.59,16.54-.91,1,.12,1.63,1,2.27,1.83,3.34,4.16,6.26,4.7,10.38,1.37,3-2.4,6.22-2.88,9.78-2.88q53.94,0,107.87,0C41.38,187.43,43.94,187.2,46,189Z" transform="translate(108.92 108.93)"/><path class="cls-114" d="M46,210v8c-2.58,2.11-5.68,1.56-8.63,1.57q-51.88,0-103.78,0c-4,0-7.67.13-11,3.31s-10.65,2.3-13.15-1.11c-2-2.7-4.34-3.14-7.28-3.23-3.41-.11-7,.87-10.12-1.54-.15-8-.15-8,7.63-8h7c1.54,0,2.6.2,3.39,2.06,2.21,5.2,8.83,5.91,11.57,1.08,1.54-2.71,3.47-2.11,5.45-2.11q54.72-.06,109.45,0Z" transform="translate(108.92 108.93)"/><path class="cls-112" d="M-107.94,217c4.16,0,8.32,0,12.48,0,2.85,0,5.44-.46,5.83,3.93.25,2.81,11,3.36,12.12.44,1.42-3.73,4-3.36,6.78-3.36H46v8H-71.83c-2.79,0-5-.22-6.63,3.49-1.46,3.38-6,1-9.1,1.43-2,.27-2.51-1.25-2.43-2.92.14-3-1.81-3-4-3-4.67,0-9.33,0-14,0Z" transform="translate(108.92 108.93)"/><path class="cls-115" d="M46,113v16c-2.59,2.12-5.69,1.57-8.64,1.57q-52,.06-103.95,0c-4,0-7.61.15-11,3.34-3.64,3.44-10.95,2-14-2.16-1.59-2.15-3.62-2-5.74-2.17-3.58-.32-7.39.91-10.63-1.6V112a18.07,18.07,0,0,1,20,2.8,6,6,0,0,0,8.57-.14c2.81-2.72,6-3.25,9.57-3.25q54.63,0,109.25,0C41.73,111.43,44.11,111.32,46,113Z" transform="translate(108.92 108.93)"/><path class="cls-116" d="M46,56V72c-2.58,2.11-5.68,1.56-8.62,1.56q-52.59.06-105.17,0c-3.78,0-7.32-.21-10.32,3.41-2.52,3-9.77,2-12-1.32-1.77-2.66-4-3-6.78-3.14-3.73-.17-7.69,1-11.1-1.54V55c5.37-2.83,11-1.62,16.52-.91,1.41.18,2,1.57,2.8,2.65,2.33,3.17,6.15,3.72,8.83.81,2.3-2.5,4.93-3.13,8-3.13q55.86-.06,111.71,0C42.08,54.43,44.27,54.44,46,56Z" transform="translate(108.92 108.93)"/><path class="cls-97" d="M46,88v14c-2.43,2-5.35,1.54-8.14,1.54q-51.42,0-102.85,0c-4.78,0-9.06.49-12.94,3.93a7.79,7.79,0,0,1-11.28-.58c-3.3-3.55-7.09-4.57-11.64-4.36-2.46.11-5,.33-7.13-1.52V87c5.38-2.84,11-1.61,16.55-.9,1.39.17,2.06,1.54,2.91,2.58,2.65,3.26,6,3.69,8.84.69,2.2-2.32,4.71-2.93,7.62-2.94q56.21-.08,112.42,0C42.41,86.44,44.41,86.56,46,88Z" transform="translate(108.92 108.93)"/><path class="cls-117" d="M46,189H-70.38c-3.2,0-5.85,0-7.94,3.56-1.87,3.24-6.08,1-9.23,1.37-2.43.27-2.45-1.71-2.47-3.42,0-2.39-1.65-2.51-3.43-2.5-4.83,0-9.66,0-14.49,0V176c5.54-2.74,11.29-1.72,17-.82,1.37.21,2,1.54,2.85,2.62,2.33,3.11,5.8,3.63,8.32.77,2.28-2.58,4.92-3.14,8-3.14q55.85,0,111.69,0c2.16,0,4.35,0,6.13,1.56Z" transform="translate(108.92 108.93)"/><path class="cls-102" d="M-107.94,101c3.49,0,7,.1,10.48,0,3.81-.13,6.63,1.07,8.79,4.45s7.84,4,10.33.7c2.85-3.77,6.39-4.16,10.54-4.16q56.91.11,113.84,0v11q-58.72,0-117.46,0c-2.87,0-5.22-.12-6.8,3.4-1.49,3.32-5.35,1.15-8.13,1.56-1.83.28-3.39-.52-3.57-2.59-.3-3.32-2.56-3.39-5-3.36-4.33,0-8.66,0-13,0Z" transform="translate(108.92 108.93)"/><path class="cls-101" d="M46,143v10c-2.58,2.12-5.68,1.58-8.62,1.58q-53.08.06-106.17,0c-3.33,0-6.76-.27-8.69,3.35-3.53,2.27-7.29,1.56-11,.82-1.73-1.2-2.68-2.65-1.51-4.77-.19-1.73-1.37-2-2.83-2-2.14,0-4.28,0-6.42,0-9.71-.22-8.75,1.84-8.7-9,4.47-3.94,15.09-3.63,19.07.54,3.25,3.41,6.38,3.93,9.94,1,2.93-2.43,6.11-3.07,9.7-3.07q54.31,0,108.65,0C41.73,141.44,44.11,141.32,46,143Z" transform="translate(108.92 108.93)"/><path class="cls-118" d="M46,88q-59.11,0-118.21,0c-2.62,0-5.39-1-6.25,3.51-.56,2.93-4.31,1-6.6,1.43-2.12.36-4.33-.09-4.61-2.58-.43-3.63-2.76-3.44-5.34-3.4-4.32.07-8.64,0-13,0,0-2.67,0-5.33,0-8,5.36-4.09,14.86-3.64,19.56,1.13,2.9,2.94,6,3,8.82.54s6-3.23,9.66-3.23q54.9,0,109.81,0c2.16,0,4.36,0,6.14,1.54Z" transform="translate(108.92 108.93)"/><path class="cls-119" d="M46,160v9c-2.58,2.12-5.68,1.57-8.62,1.58q-52.37,0-104.72,0c-3.94,0-7.62-.24-10.83,3.41-2.88,3.28-10.67,1.9-13.18-1.86-1.61-2.4-3.71-2.39-6-2.57-3.57-.28-7.37.92-10.6-1.59v-7c4.06-4.5,13.39-5,18.09-1,5,4.27,6.91,4.45,12.22.76a13.52,13.52,0,0,1,8-2.27q55-.06,110,0C42.4,158.47,44.41,158.57,46,160Z" transform="translate(108.92 108.93)"/><path class="cls-104" d="M-107.94,168c3.82,0,7.65,0,11.48,0,3.14,0,6.94-1.12,6.73,4.45-.07,2,2.3,1.68,3.64,1.47,2.63-.39,6.82,1.74,7.61-1.37,1.08-4.27,3.58-3.55,6.25-3.55Q-13.1,169,46,169v8q-58.93,0-117.86,0c-2.75,0-5.35-.86-6.77,3.59-1,3.17-5.94,1-9.1,1.31-2.56.25-1.6-1.63-1.53-3.07C-89.09,176.27-91,176-93,176c-5,0-10,0-15,0Z" transform="translate(108.92 108.93)"/><path class="cls-120" d="M-107.94,128c4.66,0,9.32,0,14,0,2.15,0,4.14,0,4,3-.16,2.5,1.3,3.33,3.44,3,3.61-.62,8.56,2.37,10.16-4.08.43-1.74,3.31-.85,5.06-.85q54-.06,107.89,0H46v8c-2.58,2.12-5.68,1.57-8.62,1.58q-52.35,0-104.71,0c-3.93,0-7.64-.28-10.82,3.41-2.71,3.13-10.7,2-12.91-1.44-1.64-2.55-3.74-2.86-6.31-3-3.57-.2-7.37.94-10.6-1.57Z" transform="translate(108.92 108.93)"/><path class="cls-121" d="M46,56H-72.24c-2.68,0-5-.61-6.29,3.53-1,3.16-5.59,1-8.56,1.42-2.14.29-3-1-2.91-3,.14-2.53-1.33-3-3.48-3-4.82.07-9.65,0-14.47,0V41c3.46,0,6.92,0,10.37,0s7-.67,8,4.31c.35,1.92,2.55,1.7,4.21,1.7H-79c-.61,4.85-5.09,2.41-8.08,4.36,3.23,1.44,5.68,1.08,7.84-1.09s4.82-2.78,7.75-2.79q55.93-.06,111.88,0c2,0,4,.08,5.65,1.51Z" transform="translate(108.92 108.93)"/><path class="cls-122" d="M46,79H-70.63c-3.1,0-6-.36-7.94,3.45-1.62,3.23-9.54,2-10.88-1.49-.9-2.37-2.8-2.86-4.68-2.88-4.62-.07-9.31-.71-13.82.91q0-4,0-8h15.48c1.71,0,3.27-.21,3.08,2.53-.15,2.14,1,4.09,3.67,3.41S-79,79.3-78,74.27c.69-3.44,3.31-2.21,5.17-2.22q50.21-.1,100.4,0H46Z" transform="translate(108.92 108.93)"/><path class="cls-27" d="M46,160q-57.88,0-115.77,0c-3.28,0-6,.28-8.29,3.31-2,2.63-8.69,2.5-10.89.21-1.56-1.62-2.15-4.45-5-4.41-4.74.06-9.69-1.12-14,1.91-1.06-5.34,2.3-6.7,6.51-6.93,3.81-.21,7.63-.06,11.44-.06l1,4a13.13,13.13,0,0,0,11,0c-.76-4.43,1.54-5.09,5.4-5.07C-33,153.05,6.5,153,46,153Z" transform="translate(108.92 108.93)"/><path class="cls-106" d="M-107.93,136c3.82,0,7.65,0,11.47,0,3.15,0,6.94-1.11,6.74,4.46-.08,2,2.3,1.67,3.64,1.46,2.63-.39,6.81,1.75,7.6-1.37,1.08-4.29,3.59-3.55,6.25-3.55Q-13.1,137,46,137v6H-69.71c-3.48,0-6.8-.49-8.72,3.87-1.15,2.64-10.21,1.48-11.12-1.36-1-3.09-2.84-3.78-5.61-3.51-4.25.41-8.65-1-12.79,1C-107.94,140.66-107.94,138.33-107.93,136Z" transform="translate(108.92 108.93)"/><path class="cls-10" d="M-22-102H-20c-2,2.07-4.47,1.92-7.06,1.4Z" transform="translate(108.92 108.93)"/><path class="cls-123" d="M-102-10c.15,2.68-.54,5.47,1,8-2.22,2.07,0,5.16-1.88,7.68-2.43-2.9.32-7.39-3.12-9.67q.06-3,.13-6.06Z" transform="translate(108.92 108.93)"/><path class="cls-14" d="M-82,356c.27-2.06,1.72-2.45,3.13-1.58s3.49,2.15,1.87,4.58C-79.68,359.68-80.17,356.72-82,356Z" transform="translate(108.92 108.93)"/><path class="cls-124" d="M372-68l-1-3c.92.13,2.17-.35,2.57.85S372.85-68.48,372-68Z" transform="translate(108.92 108.93)"/><path class="cls-3" d="M-100-10H398.06c-1.39,1.67-2.87,1-4.1,1Q149.58-9-94.82-9c-1.75,0-3.7.67-5.18-1Z" transform="translate(108.92 108.93)"/><path class="cls-20" d="M171.55,90.16c.07,24,.2,47.94.2,71.91,0,14.63-.2,29.27-.31,43.91a1.71,1.71,0,0,1-1.24-1,16,16,0,0,1-.68-4.34c-.38-9.9,1.1-10-10.32-10q-40.45,0-80.92,0c-2.77,0-5.73.57-8.12-1.56,0-4,0-8,0-12,2.38-2.13,5.34-1.56,8.1-1.56,28.14-.05,56.28,0,84.41-.05,6,0,6.08-.13,6.85-5.94-.05-3.09-.14-6.18,0-9.27-.1-2.45-.09-4.89,0-7.34-.13-5.22-.14-10.43,0-15.64-.1-2.76-.11-5.52,0-8.27-.13-4.59-.14-9.19,0-13.78-.09-3.61-.13-7.23,0-10.85,0-3.51-.11-7,.07-10.55C169.88,92.35,169.74,90.73,171.55,90.16Z" transform="translate(108.92 108.93)"/><path class="cls-125" d="M70.16,189c31.63,0,63.26.1,94.89-.11,4.84,0,6.64,1.33,6,6.12a57.92,57.92,0,0,0-.14,7c-1.89,1.78-4.28,1.61-6.58,1.62q-43.8,0-87.59,0c-2.29,0-4.7.23-6.58-1.6Z" transform="translate(108.92 108.93)"/><path class="cls-95" d="M170.91,93v11c-1.89,1.78-4.29,1.61-6.59,1.61q-43.78.06-87.58,0c-2.29,0-4.7.23-6.57-1.6V93c1.87-1.83,4.28-1.6,6.57-1.6q43.8-.08,87.59,0C166.63,91.4,169,91.23,170.91,93Z" transform="translate(108.92 108.93)"/><path class="cls-126" d="M70.17,104H170.91v11c-1.89,1.77-4.28,1.6-6.58,1.61q-43.8,0-87.59,0c-2.29,0-4.7.23-6.58-1.6Z" transform="translate(108.92 108.93)"/><path class="cls-127" d="M170.9,137v16c-1.89,1.78-4.28,1.61-6.58,1.62q-43.8,0-87.59,0c-2.29,0-4.7.23-6.57-1.6-1-4.46.42-5.95,5.24-5.89,18.2.23,36.4,0,54.6-.11,1.05-2.4.44-4.92.46-7.38,0-2.16.69-3.75,2.91-3.84,12-.51,23.91-.83,35.85.18A3.16,3.16,0,0,1,170.9,137Z" transform="translate(108.92 108.93)"/><path class="cls-128" d="M171.13,206l.31,0c.6,12.28.42,24.56.11,36.83-2.29-1.05-1.93-3.22-2-5.09q-.21-5.86,0-11.74c-.49-6.3-.54-6.38-6.71-6.44-5.82,0-11.64,0-17.45,0-2.33,0-4.68.06-6.71-1.41q-25.38-.17-50.78-.33c-4.15,0-8.33-.3-12.45.07-4.29.39-6.3-.83-5.47-5.38a26.62,26.62,0,0,0,.18-3.47c2.38-2.14,5.32-1.57,8.08-1.58q41.57-.06,83.12,0A26.72,26.72,0,0,0,171.13,206Z" transform="translate(108.92 108.93)"/><path class="cls-129" d="M70.16,115H170.91v14c-1.9,1.77-4.31,1.56-6.61,1.57-8.82.05-17.63.07-26.45,0-7-.06-7.12-.18-7.33-7.19A4.06,4.06,0,0,0,130,121c-18.2-.08-36.4-.34-54.6-.11C70.58,121,69.13,119.44,70.16,115Z" transform="translate(108.92 108.93)"/><path class="cls-105" d="M170.91,160v9c-1.89,1.77-4.29,1.6-6.59,1.6q-43.78.06-87.58,0c-2.29,0-4.7.23-6.57-1.6v-9c1.87-1.83,4.28-1.6,6.57-1.6q43.79-.08,87.58,0C166.63,158.4,169,158.23,170.91,160Z" transform="translate(108.92 108.93)"/><path class="cls-104" d="M70.17,169H170.91a20.65,20.65,0,0,0,.1,2.49c.7,4.35-1,5.64-5.45,5.61-31.8-.19-63.6-.1-95.39-.1Z" transform="translate(108.92 108.93)"/><path class="cls-130" d="M46,49H-71.25c-2.91,0-5.81-.6-7.37,3.3-.92,2.29-8,2.34-10.19.71a2.54,2.54,0,0,1-1-3.07c.5-1.56,1.59-1.65,3.16-1.37C-83.95,49.06-81,50.2-79,47c1.48-3.83,4.6-4,8.14-4q58.46.1,116.91,0C46.05,45,46,47,46,49Z" transform="translate(108.92 108.93)"/><path class="cls-131" d="M170.91,93H70.17V88l147,.08c-9.34,5.15-16.51,12.48-22.21,21.73,0-5.56-.14-11.13.05-16.68.11-3.07-.58-4.6-4.07-4.43-5.13.25-10.29,0-15.44.07-1.48,0-3.06-.21-4,1.39C171.34,91.11,171.13,92.06,170.91,93Z" transform="translate(108.92 108.93)"/><path class="cls-27" d="M170.91,160H70.17v-7H170.91Z" transform="translate(108.92 108.93)"/><path class="cls-22" d="M171.13,206c0,3.74-2.79,3-5,3q-41.24,0-82.46,0H70.16v-7H170.91C171,203.33,171.06,204.66,171.13,206Z" transform="translate(108.92 108.93)"/><path class="cls-35" d="M170.91,226c.52,5.6-.64,11.26.64,16.82.14.4.29.8.44,1.19l-33.31-.11q.21-9,.41-17.89a3.12,3.12,0,0,1,1.65-1,149.21,149.21,0,0,1,28.51,0A3.17,3.17,0,0,1,170.91,226Z" transform="translate(108.92 108.93)"/><path class="cls-120" d="M130,121a2.89,2.89,0,0,1,.35.35c1.57,2.15-.69,5.52,1.47,7,2.66,1.77,6.12.63,9.23.66,9.95.11,19.9,0,29.85,0v8c-11.28,0-22.56.22-33.83-.11-4.66-.13-6.86,1-6.13,6,.21,1.39.45,3-.94,4.16Z" transform="translate(108.92 108.93)"/><path class="cls-112" d="M170.91,226H139.09q-.19-3.94-.41-7.89c8.14,0,16.28-.18,24.41-.08S171.19,216.13,170.91,226Z" transform="translate(108.92 108.93)"/><path class="cls-35" d="M252.14,244H194.86q.16-9,.31-17.95c1.88-1.84,4.3-1.58,6.6-1.59q21.73-.07,43.46,0c2.3,0,4.72-.25,6.6,1.59Q252,235,252.14,244Z" transform="translate(108.92 108.93)"/><path class="cls-132" d="M251.83,153v16c-1.88,1.83-4.3,1.58-6.6,1.59q-21.73.07-43.46,0c-2.3,0-4.72.24-6.6-1.59V153c1.88-1.84,4.3-1.58,6.6-1.59q21.73-.07,43.46,0C247.53,151.42,250,151.16,251.83,153Z" transform="translate(108.92 108.93)"/><path class="cls-133" d="M251.83,202v16c-1.88,1.83-4.3,1.58-6.6,1.59q-21.73.07-43.46,0c-2.3,0-4.72.24-6.6-1.59V202c1.88-1.83,4.3-1.58,6.6-1.59q21.73-.07,43.46,0C247.53,200.42,250,200.17,251.83,202Z" transform="translate(108.92 108.93)"/><path class="cls-125" d="M251.83,202H195.17V189c1.88-1.83,4.3-1.58,6.6-1.59q21.73-.07,43.46,0c2.3,0,4.72-.24,6.6,1.59Z" transform="translate(108.92 108.93)"/><path class="cls-117" d="M251.83,189H195.17V177c1.88-1.83,4.3-1.58,6.6-1.59q21.73-.07,43.46,0c2.3,0,4.72-.24,6.6,1.59Z" transform="translate(108.92 108.93)"/><path class="cls-134" d="M201,128c4.27-9.39,10.59-16.6,21.34-18,13.1-1.73,22.09,4.8,25.67,18-.45,2.81-2.83,2.49-4.63,2.52q-18.84.33-37.69,0C203.9,130.47,201.54,130.8,201,128Z" transform="translate(108.92 108.93)"/><path class="cls-101" d="M251.83,153H195.17c-.33-3.4.57-6.68,1-10,1.88-1.79,4.27-1.59,6.56-1.59q20.82-.07,41.65,0c2.3,0,4.67-.12,6.57,1.6A33.63,33.63,0,0,1,251.83,153Z" transform="translate(108.92 108.93)"/><path class="cls-104" d="M251.83,177H195.17v-8h56.66Z" transform="translate(108.92 108.93)"/><path class="cls-135" d="M195.17,218h56.66v8H195.17Z" transform="translate(108.92 108.93)"/><path class="cls-136" d="M201,128c1,1.23,2.38,1,3.67,1h39.7c1.3,0,2.69.24,3.64-1a18.31,18.31,0,0,1,2.11,9c-1.69,1.75-3.93,1.62-6,1.63q-20.15.1-40.28,0c-2.13,0-4.37.12-6-1.66A19.29,19.29,0,0,1,201,128Z" transform="translate(108.92 108.93)"/><path class="cls-106" d="M197.76,136.94l52.37,0c1.21,1.88,1,4,.85,6H196.2C196.46,140.91,196.64,138.81,197.76,136.94Z" transform="translate(108.92 108.93)"/><path class="cls-27" d="M-78,158c-2.71,2.89-8.29,2.89-11,0Z" transform="translate(108.92 108.93)"/></svg>